<svg id="maze" width="800" height="800" stroke-width="3" fill-opacity="0.0" stroke="#000">
          <path stroke-linecap="round" 
            d="M40.34 32.28
L40.34 32.28 A8.07 8.07 0 0 0 32.28 40.34
L32.28 40.34
M40.34 8.07
L40.34 8.07 A32.28 32.28 0 0 0 8.07 40.34
L8.07 40.34
M40.34 32.28
L40.34 32.28 A8.07 8.07 0 0 1 48.41 40.34
L48.41 40.34
M40.34 8.07
L48.41 8.07 A24.21 24.21 0 0 1 72.62 32.28
L72.62 40.34
M121.03 32.28
L121.03 32.28 A8.07 8.07 0 0 0 112.97 40.34
L112.97 40.34
M121.03 8.07
L121.03 8.07 A32.28 32.28 0 0 0 88.76 40.34
L88.76 40.34
M121.03 32.28
L121.03 32.28 A8.07 8.07 0 0 1 129.1 40.34
L129.1 40.34
M121.03 8.07
L129.1 8.07 A24.21 24.21 0 0 1 153.31 32.28
L153.31 40.34
M193.66 40.34
L193.66 35.8 A16.14 16.14 0 0 1 195.67 27.99
L195.67 27.99 A16.14 16.14 0 1 0 167.43 27.99
L167.43 27.99 A16.14 16.14 0 0 1 169.45 35.8
L169.45 40.34
M234 40.34
L234 35.8 A16.14 16.14 0 0 1 236.02 27.99
L236.02 27.99 A16.14 16.14 0 1 0 207.78 27.99
L207.78 27.99 A16.14 16.14 0 0 1 209.79 35.8
L209.79 40.34
M274.34 40.34
L274.34 35.8 A16.14 16.14 0 0 1 276.36 27.99
L276.36 27.99 A16.14 16.14 0 1 0 248.12 27.99
L248.12 27.99 A16.14 16.14 0 0 1 250.14 35.8
L250.14 40.34
M322.76 32.28
L318.21 32.28 A16.14 16.14 0 0 0 310.4 34.29
L310.4 34.29 A16.14 16.14 0 1 1 310.4 6.05
L310.4 6.05 A16.14 16.14 0 0 0 318.21 8.07
L322.76 8.07
M322.76 32.28
L322.76 32.28 A8.07 8.07 0 0 1 330.83 40.34
L330.83 40.34
M322.76 8.07
L330.83 8.07 A24.21 24.21 0 0 1 355.03 32.28
L355.03 40.34
M403.45 32.28
L398.9 32.28 A16.14 16.14 0 0 0 391.09 34.29
L391.09 34.29 A16.14 16.14 0 1 1 391.09 6.05
L391.09 6.05 A16.14 16.14 0 0 0 398.9 8.07
L403.45 8.07
M403.45 32.28
L403.45 32.28 A8.07 8.07 0 0 1 411.52 40.34
L411.52 40.34
M403.45 8.07
L411.52 8.07 A24.21 24.21 0 0 1 435.72 32.28
L435.72 40.34
M484.14 32.28
L479.59 32.28 A16.14 16.14 0 0 0 471.78 34.29
L471.78 34.29 A16.14 16.14 0 1 1 471.78 6.05
L471.78 6.05 A16.14 16.14 0 0 0 479.59 8.07
L484.14 8.07
M484.14 32.28
L484.14 32.28 A8.07 8.07 0 0 1 492.21 40.34
L492.21 40.34
M484.14 8.07
L492.21 8.07 A24.21 24.21 0 0 1 516.41 32.28
L516.41 40.34
M556.76 40.34
L556.76 35.8 A16.14 16.14 0 0 1 558.78 27.99
L558.78 27.99 A16.14 16.14 0 1 0 530.53 27.99
L530.53 27.99 A16.14 16.14 0 0 1 532.55 35.8
L532.55 40.34
M605.17 32.28
L600.63 32.28 A16.14 16.14 0 0 0 592.81 34.29
L592.81 34.29 A16.14 16.14 0 1 1 592.81 6.05
L592.81 6.05 A16.14 16.14 0 0 0 600.63 8.07
L605.17 8.07
M605.17 32.28
L605.17 32.28 A8.07 8.07 0 0 1 613.24 40.34
L613.24 40.34
M605.17 8.07
L613.24 8.07 A24.21 24.21 0 0 1 637.45 32.28
L637.45 40.34
M685.86 32.28
L685.86 32.28 A8.07 8.07 0 0 0 677.79 40.34
L677.79 40.34
M685.86 8.07
L685.86 8.07 A32.28 32.28 0 0 0 653.59 40.34
L653.59 40.34
M685.86 32.28
L726.21 32.28
M685.86 8.07
L726.21 8.07
M726.21 32.28
L730.75 32.28 A16.14 16.14 0 0 1 738.57 34.29
L738.57 34.29 A16.14 16.14 0 1 0 738.57 6.05
L738.57 6.05 A16.14 16.14 0 0 1 730.75 8.07
L726.21 8.07
M32.28 40.34
L32.28 44.89
L32.28 44.89 A16.14 16.14 0 0 0 34.29 52.7
L34.29 52.7 A16.14 16.14 0 1 1 6.05 52.7
L6.05 52.7 A16.14 16.14 0 0 0 8.07 44.89
L8.07 40.34
M80.69 48.41
L80.69 48.41 A8.07 8.07 0 0 1 72.62 40.34
L72.62 40.34
M80.69 72.62
L72.62 72.62 A24.21 24.21 0 0 1 48.41 48.41
L48.41 40.34
M80.69 72.62
L121.03 72.62
M88.76 40.34
L88.76 40.34 A8.07 8.07 0 0 1 80.69 48.41
L80.69 48.41
M121.03 48.41
L121.03 48.41 A8.07 8.07 0 0 1 112.97 40.34
L112.97 40.34
M121.03 72.62
L161.38 72.62
M121.03 48.41
L161.38 48.41
M129.1 48.41
L129.1 40.34
M129.1 72.62
L129.1 80.69
M153.31 48.41
L153.31 40.34
M153.31 72.62
L153.31 80.69
M193.66 80.69
L193.66 40.34
M169.45 40.34
L169.45 40.34 A8.07 8.07 0 0 1 161.38 48.41
L161.38 48.41
M161.38 72.62
L161.38 72.62 A8.07 8.07 0 0 1 169.45 80.69
L169.45 80.69
M242.07 48.41
L242.07 48.41 A8.07 8.07 0 0 1 234 40.34
L234 40.34
M242.07 72.62
L234 72.62 A24.21 24.21 0 0 1 209.79 48.41
L209.79 40.34
M250.14 80.69
L250.14 40.34
M274.34 80.69
L274.34 40.34
M242.07 48.41
L250.14 48.41
M242.07 72.62
L250.14 72.62
M282.41 48.41
L274.34 48.41
M282.41 72.62
L274.34 72.62
M282.41 72.62
L322.76 72.62
M282.41 48.41
L322.76 48.41
M330.83 80.69
L330.83 40.34
M355.03 80.69
L355.03 40.34
M322.76 48.41
L330.83 48.41
M322.76 72.62
L330.83 72.62
M363.1 48.41
L355.03 48.41
M363.1 72.62
L355.03 72.62
M363.1 48.41
L403.45 48.41
M363.1 72.62
L363.1 72.62 A8.07 8.07 0 0 1 371.17 80.69
L371.17 80.69
M403.45 72.62
L403.45 72.62 A8.07 8.07 0 0 0 395.38 80.69
L395.38 80.69
M403.45 72.62
L443.79 72.62
M403.45 48.41
L443.79 48.41
M411.52 48.41
L411.52 40.34
M411.52 72.62
L411.52 80.69
M435.72 48.41
L435.72 40.34
M435.72 72.62
L435.72 80.69
M443.79 48.41
L484.14 48.41
M443.79 72.62
L443.79 72.62 A8.07 8.07 0 0 1 451.86 80.69
L451.86 80.69
M484.14 72.62
L484.14 72.62 A8.07 8.07 0 0 0 476.07 80.69
L476.07 80.69
M492.21 80.69
L492.21 40.34
M516.41 80.69
L516.41 40.34
M484.14 48.41
L492.21 48.41
M484.14 72.62
L492.21 72.62
M524.48 48.41
L516.41 48.41
M524.48 72.62
L516.41 72.62
M556.76 80.69
L556.76 40.34
M532.55 40.34
L532.55 40.34 A8.07 8.07 0 0 1 524.48 48.41
L524.48 48.41
M524.48 72.62
L524.48 72.62 A8.07 8.07 0 0 1 532.55 80.69
L532.55 80.69
M605.17 72.62
L605.17 72.62 A8.07 8.07 0 0 0 597.1 80.69
L597.1 80.69
M605.17 48.41
L605.17 48.41 A32.28 32.28 0 0 0 572.9 80.69
L572.9 80.69
M605.17 72.62
L645.52 72.62
M605.17 48.41
L645.52 48.41
M613.24 48.41
L613.24 40.34
M613.24 72.62
L613.24 80.69
M637.45 48.41
L637.45 40.34
M637.45 72.62
L637.45 80.69
M653.59 40.34
L653.59 40.34 A8.07 8.07 0 0 1 645.52 48.41
L645.52 48.41
M677.79 40.34
L677.79 48.41 A24.21 24.21 0 0 1 653.59 72.62
L645.52 72.62
M718.14 80.69
L718.14 76.14 A16.14 16.14 0 0 1 720.16 68.33
L720.16 68.33 A16.14 16.14 0 1 0 691.91 68.33
L691.91 68.33 A16.14 16.14 0 0 1 693.93 76.14
L693.93 80.69
M766.55 72.62
L766.55 72.62 A8.07 8.07 0 0 0 758.48 80.69
L758.48 80.69
M766.55 48.41
L766.55 48.41 A32.28 32.28 0 0 0 734.28 80.69
L734.28 80.69
M774.62 40.34
L774.62 40.34 A8.07 8.07 0 0 1 766.55 48.41
L766.55 48.41
M798.83 40.34
L798.83 48.41 A24.21 24.21 0 0 1 774.62 72.62
L766.55 72.62
M32.28 121.03
L32.28 116.49 A16.14 16.14 0 0 1 34.29 108.67
L34.29 108.67 A16.14 16.14 0 1 0 6.05 108.67
L6.05 108.67 A16.14 16.14 0 0 1 8.07 116.49
L8.07 121.03
M72.62 121.03
L72.62 116.49 A16.14 16.14 0 0 1 74.64 108.67
L74.64 108.67 A16.14 16.14 0 1 0 46.4 108.67
L46.4 108.67 A16.14 16.14 0 0 1 48.41 116.49
L48.41 121.03
M112.97 121.03
L112.97 116.49 A16.14 16.14 0 0 1 114.98 108.67
L114.98 108.67 A16.14 16.14 0 1 0 86.74 108.67
L86.74 108.67 A16.14 16.14 0 0 1 88.76 116.49
L88.76 121.03
M161.38 88.76
L161.38 88.76 A8.07 8.07 0 0 1 153.31 80.69
L153.31 80.69
M161.38 112.97
L153.31 112.97 A24.21 24.21 0 0 1 129.1 88.76
L129.1 80.69
M169.45 121.03
L169.45 80.69
M193.66 121.03
L193.66 80.69
M161.38 88.76
L169.45 88.76
M161.38 112.97
L169.45 112.97
M201.72 88.76
L193.66 88.76
M201.72 112.97
L193.66 112.97
M201.72 112.97
L201.72 112.97 A8.07 8.07 0 0 1 209.79 121.03
L209.79 121.03
M201.72 88.76
L209.79 88.76 A24.21 24.21 0 0 1 234 112.97
L234 121.03
M282.41 88.76
L282.41 88.76 A8.07 8.07 0 0 1 274.34 80.69
L274.34 80.69
M282.41 112.97
L274.34 112.97 A24.21 24.21 0 0 1 250.14 88.76
L250.14 80.69
M282.41 112.97
L322.76 112.97
M282.41 88.76
L322.76 88.76
M330.83 80.69
L330.83 80.69 A8.07 8.07 0 0 1 322.76 88.76
L322.76 88.76
M322.76 112.97
L322.76 112.97 A8.07 8.07 0 0 1 330.83 121.03
L330.83 121.03
M363.1 88.76
L363.1 88.76 A8.07 8.07 0 0 1 355.03 80.69
L355.03 80.69
M363.1 112.97
L363.1 112.97 A8.07 8.07 0 0 0 355.03 121.03
L355.03 121.03
M363.1 112.97
L403.45 112.97
M363.1 88.76
L403.45 88.76
M371.17 88.76
L371.17 80.69
M371.17 112.97
L371.17 121.03
M395.38 88.76
L395.38 80.69
M395.38 112.97
L395.38 121.03
M435.72 121.03
L435.72 80.69
M411.52 80.69
L411.52 80.69 A8.07 8.07 0 0 1 403.45 88.76
L403.45 88.76
M403.45 112.97
L403.45 112.97 A8.07 8.07 0 0 1 411.52 121.03
L411.52 121.03
M484.14 88.76
L484.14 88.76 A8.07 8.07 0 0 1 476.07 80.69
L476.07 80.69
M484.14 112.97
L476.07 112.97 A24.21 24.21 0 0 1 451.86 88.76
L451.86 80.69
M484.14 112.97
L524.48 112.97
M492.21 80.69
L492.21 80.69 A8.07 8.07 0 0 1 484.14 88.76
L484.14 88.76
M524.48 88.76
L524.48 88.76 A8.07 8.07 0 0 1 516.41 80.69
L516.41 80.69
M524.48 112.97
L564.83 112.97
M524.48 88.76
L564.83 88.76
M532.55 88.76
L532.55 80.69
M532.55 112.97
L532.55 121.03
M556.76 88.76
L556.76 80.69
M556.76 112.97
L556.76 121.03
M572.9 80.69
L572.9 80.69 A8.07 8.07 0 0 1 564.83 88.76
L564.83 88.76
M597.1 80.69
L597.1 88.76 A24.21 24.21 0 0 1 572.9 112.97
L564.83 112.97
M645.52 88.76
L645.52 88.76 A8.07 8.07 0 0 1 637.45 80.69
L637.45 80.69
M645.52 112.97
L637.45 112.97 A24.21 24.21 0 0 1 613.24 88.76
L613.24 80.69
M645.52 112.97
L645.52 112.97 A8.07 8.07 0 0 1 653.59 121.03
L653.59 121.03
M645.52 88.76
L653.59 88.76 A24.21 24.21 0 0 1 677.79 112.97
L677.79 121.03
M693.93 121.03
L693.93 80.69
M718.14 121.03
L718.14 80.69
M734.28 121.03
L734.28 80.69
M766.55 88.76
L766.55 88.76 A8.07 8.07 0 0 1 758.48 80.69
L758.48 80.69
M766.55 112.97
L766.55 112.97 A8.07 8.07 0 0 0 758.48 121.03
L758.48 121.03
M766.55 112.97
L766.55 112.97 A8.07 8.07 0 0 1 774.62 121.03
L774.62 121.03
M766.55 88.76
L774.62 88.76 A24.21 24.21 0 0 1 798.83 112.97
L798.83 121.03
M8.07 161.38
L8.07 121.03
M32.28 161.38
L32.28 121.03
M48.41 161.38
L48.41 121.03
M80.69 129.1
L80.69 129.1 A8.07 8.07 0 0 1 72.62 121.03
L72.62 121.03
M80.69 153.31
L80.69 153.31 A8.07 8.07 0 0 0 72.62 161.38
L72.62 161.38
M80.69 153.31
L121.03 153.31
M80.69 129.1
L121.03 129.1
M88.76 129.1
L88.76 121.03
M88.76 153.31
L88.76 161.38
M112.97 129.1
L112.97 121.03
M112.97 153.31
L112.97 161.38
M121.03 153.31
L121.03 153.31 A8.07 8.07 0 0 1 129.1 161.38
L129.1 161.38
M121.03 129.1
L129.1 129.1 A24.21 24.21 0 0 1 153.31 153.31
L153.31 161.38
M201.72 129.1
L201.72 129.1 A8.07 8.07 0 0 1 193.66 121.03
L193.66 121.03
M201.72 153.31
L193.66 153.31 A24.21 24.21 0 0 1 169.45 129.1
L169.45 121.03
M209.79 161.38
L209.79 121.03
M234 161.38
L234 121.03
M201.72 129.1
L209.79 129.1
M201.72 153.31
L209.79 153.31
M242.07 129.1
L234 129.1
M242.07 153.31
L234 153.31
M242.07 153.31
L246.62 153.31 A16.14 16.14 0 0 1 254.43 155.33
L254.43 155.33 A16.14 16.14 0 1 0 254.43 127.09
L254.43 127.09 A16.14 16.14 0 0 1 246.62 129.1
L242.07 129.1
M322.76 153.31
L322.76 153.31 A8.07 8.07 0 0 0 314.69 161.38
L314.69 161.38
M322.76 129.1
L322.76 129.1 A32.28 32.28 0 0 0 290.48 161.38
L290.48 161.38
M322.76 153.31
L363.1 153.31
M322.76 129.1
L363.1 129.1
M330.83 129.1
L330.83 121.03
M330.83 153.31
L330.83 161.38
M355.03 129.1
L355.03 121.03
M355.03 153.31
L355.03 161.38
M371.17 121.03
L371.17 121.03 A8.07 8.07 0 0 1 363.1 129.1
L363.1 129.1
M363.1 153.31
L363.1 153.31 A8.07 8.07 0 0 1 371.17 161.38
L371.17 161.38
M403.45 129.1
L403.45 129.1 A8.07 8.07 0 0 1 395.38 121.03
L395.38 121.03
M403.45 153.31
L403.45 153.31 A8.07 8.07 0 0 0 395.38 161.38
L395.38 161.38
M411.52 161.38
L411.52 121.03
M435.72 161.38
L435.72 121.03
M403.45 129.1
L411.52 129.1
M403.45 153.31
L411.52 153.31
M443.79 129.1
L435.72 129.1
M443.79 153.31
L435.72 153.31
M443.79 153.31
L443.79 153.31 A8.07 8.07 0 0 1 451.86 161.38
L451.86 161.38
M443.79 129.1
L451.86 129.1 A24.21 24.21 0 0 1 476.07 153.31
L476.07 161.38
M516.41 161.38
L516.41 156.83 A16.14 16.14 0 0 1 518.43 149.02
L518.43 149.02 A16.14 16.14 0 1 0 490.19 149.02
L490.19 149.02 A16.14 16.14 0 0 1 492.21 156.83
L492.21 161.38
M532.55 161.38
L532.55 121.03
M556.76 161.38
L556.76 121.03
M605.17 153.31
L605.17 153.31 A8.07 8.07 0 0 0 597.1 161.38
L597.1 161.38
M605.17 129.1
L605.17 129.1 A32.28 32.28 0 0 0 572.9 161.38
L572.9 161.38
M605.17 153.31
L609.72 153.31 A16.14 16.14 0 0 1 617.53 155.33
L617.53 155.33 A16.14 16.14 0 1 0 617.53 127.09
L617.53 127.09 A16.14 16.14 0 0 1 609.72 129.1
L605.17 129.1
M653.59 161.38
L653.59 121.03
M685.86 129.1
L685.86 129.1 A8.07 8.07 0 0 1 677.79 121.03
L677.79 121.03
M685.86 153.31
L685.86 153.31 A8.07 8.07 0 0 0 677.79 161.38
L677.79 161.38
M685.86 153.31
L726.21 153.31
M685.86 129.1
L726.21 129.1
M693.93 129.1
L693.93 121.03
M693.93 153.31
L693.93 161.38
M718.14 129.1
L718.14 121.03
M718.14 153.31
L718.14 161.38
M758.48 161.38
L758.48 121.03
M734.28 121.03
L734.28 121.03 A8.07 8.07 0 0 1 726.21 129.1
L726.21 129.1
M726.21 153.31
L726.21 153.31 A8.07 8.07 0 0 1 734.28 161.38
L734.28 161.38
M798.83 121.03
L798.83 125.58
L798.83 125.58 A16.14 16.14 0 0 0 800.84 133.39
L800.84 133.39 A16.14 16.14 0 1 1 772.6 133.39
L772.6 133.39 A16.14 16.14 0 0 0 774.62 125.58
L774.62 121.03
M40.34 169.45
L40.34 169.45 A8.07 8.07 0 0 1 32.28 161.38
L32.28 161.38
M40.34 193.66
L32.28 193.66 A24.21 24.21 0 0 1 8.07 169.45
L8.07 161.38
M40.34 193.66
L80.69 193.66
M40.34 169.45
L80.69 169.45
M48.41 169.45
L48.41 161.38
M48.41 193.66
L48.41 201.72
M72.62 169.45
L72.62 161.38
M72.62 193.66
L72.62 201.72
M80.69 193.66
L121.03 193.66
M88.76 161.38
L88.76 161.38 A8.07 8.07 0 0 1 80.69 169.45
L80.69 169.45
M121.03 169.45
L121.03 169.45 A8.07 8.07 0 0 1 112.97 161.38
L112.97 161.38
M129.1 201.72
L129.1 161.38
M153.31 201.72
L153.31 161.38
M121.03 169.45
L129.1 169.45
M121.03 193.66
L129.1 193.66
M161.38 169.45
L153.31 169.45
M161.38 193.66
L153.31 193.66
M161.38 193.66
L161.38 193.66 A8.07 8.07 0 0 1 169.45 201.72
L169.45 201.72
M161.38 169.45
L169.45 169.45 A24.21 24.21 0 0 1 193.66 193.66
L193.66 201.72
M209.79 201.72
L209.79 161.38
M234 201.72
L234 161.38
M282.41 193.66
L277.87 193.66 A16.14 16.14 0 0 0 270.05 195.67
L270.05 195.67 A16.14 16.14 0 1 1 270.05 167.43
L270.05 167.43 A16.14 16.14 0 0 0 277.87 169.45
L282.41 169.45
M282.41 193.66
L322.76 193.66
M282.41 169.45
L322.76 169.45
M290.48 169.45
L290.48 161.38
M290.48 193.66
L290.48 201.72
M314.69 169.45
L314.69 161.38
M314.69 193.66
L314.69 201.72
M330.83 161.38
L330.83 161.38 A8.07 8.07 0 0 1 322.76 169.45
L322.76 169.45
M355.03 161.38
L355.03 169.45 A24.21 24.21 0 0 1 330.83 193.66
L322.76 193.66
M395.38 161.38
L395.38 165.93
L395.38 165.93 A16.14 16.14 0 0 0 397.4 173.74
L397.4 173.74 A16.14 16.14 0 1 1 369.16 173.74
L369.16 173.74 A16.14 16.14 0 0 0 371.17 165.93
L371.17 161.38
M443.79 169.45
L443.79 169.45 A8.07 8.07 0 0 1 435.72 161.38
L435.72 161.38
M443.79 193.66
L435.72 193.66 A24.21 24.21 0 0 1 411.52 169.45
L411.52 161.38
M451.86 201.72
L451.86 161.38
M476.07 201.72
L476.07 161.38
M443.79 169.45
L451.86 169.45
M443.79 193.66
L451.86 193.66
M484.14 169.45
L476.07 169.45
M484.14 193.66
L476.07 193.66
M484.14 193.66
L524.48 193.66
M492.21 161.38
L492.21 161.38 A8.07 8.07 0 0 1 484.14 169.45
L484.14 169.45
M524.48 169.45
L524.48 169.45 A8.07 8.07 0 0 1 516.41 161.38
L516.41 161.38
M532.55 201.72
L532.55 161.38
M556.76 201.72
L556.76 161.38
M524.48 169.45
L532.55 169.45
M524.48 193.66
L532.55 193.66
M564.83 169.45
L556.76 169.45
M564.83 193.66
L556.76 193.66
M564.83 193.66
L605.17 193.66
M572.9 161.38
L572.9 161.38 A8.07 8.07 0 0 1 564.83 169.45
L564.83 169.45
M605.17 169.45
L605.17 169.45 A8.07 8.07 0 0 1 597.1 161.38
L597.1 161.38
M605.17 169.45
L645.52 169.45
M605.17 193.66
L605.17 193.66 A8.07 8.07 0 0 1 613.24 201.72
L613.24 201.72
M645.52 193.66
L645.52 193.66 A8.07 8.07 0 0 0 637.45 201.72
L637.45 201.72
M645.52 193.66
L685.86 193.66
M645.52 169.45
L685.86 169.45
M653.59 169.45
L653.59 161.38
M653.59 193.66
L653.59 201.72
M677.79 169.45
L677.79 161.38
M677.79 193.66
L677.79 201.72
M718.14 201.72
L718.14 161.38
M693.93 161.38
L693.93 161.38 A8.07 8.07 0 0 1 685.86 169.45
L685.86 169.45
M685.86 193.66
L685.86 193.66 A8.07 8.07 0 0 1 693.93 201.72
L693.93 201.72
M734.28 201.72
L734.28 161.38
M758.48 201.72
L758.48 161.38
M798.83 201.72
L798.83 197.18 A16.14 16.14 0 0 1 800.84 189.36
L800.84 189.36 A16.14 16.14 0 1 0 772.6 189.36
L772.6 189.36 A16.14 16.14 0 0 1 774.62 197.18
L774.62 201.72
M40.34 234
L35.8 234 A16.14 16.14 0 0 0 27.99 236.02
L27.99 236.02 A16.14 16.14 0 1 1 27.99 207.78
L27.99 207.78 A16.14 16.14 0 0 0 35.8 209.79
L40.34 209.79
M48.41 201.72
L48.41 201.72 A8.07 8.07 0 0 1 40.34 209.79
L40.34 209.79
M72.62 201.72
L72.62 209.79 A24.21 24.21 0 0 1 48.41 234
L40.34 234
M112.97 242.07
L112.97 237.52 A16.14 16.14 0 0 1 114.98 229.71
L114.98 229.71 A16.14 16.14 0 1 0 86.74 229.71
L86.74 229.71 A16.14 16.14 0 0 1 88.76 237.52
L88.76 242.07
M129.1 242.07
L129.1 201.72
M161.38 209.79
L161.38 209.79 A8.07 8.07 0 0 1 153.31 201.72
L153.31 201.72
M161.38 234
L161.38 234 A8.07 8.07 0 0 0 153.31 242.07
L153.31 242.07
M169.45 242.07
L169.45 201.72
M193.66 242.07
L193.66 201.72
M161.38 209.79
L169.45 209.79
M161.38 234
L169.45 234
M201.72 209.79
L193.66 209.79
M201.72 234
L193.66 234
M234 242.07
L234 201.72
M209.79 201.72
L209.79 201.72 A8.07 8.07 0 0 1 201.72 209.79
L201.72 209.79
M201.72 234
L201.72 234 A8.07 8.07 0 0 1 209.79 242.07
L209.79 242.07
M274.34 242.07
L274.34 237.52 A16.14 16.14 0 0 1 276.36 229.71
L276.36 229.71 A16.14 16.14 0 1 0 248.12 229.71
L248.12 229.71 A16.14 16.14 0 0 1 250.14 237.52
L250.14 242.07
M290.48 242.07
L290.48 201.72
M314.69 242.07
L314.69 201.72
M355.03 242.07
L355.03 237.52 A16.14 16.14 0 0 1 357.05 229.71
L357.05 229.71 A16.14 16.14 0 1 0 328.81 229.71
L328.81 229.71 A16.14 16.14 0 0 1 330.83 237.52
L330.83 242.07
M395.38 242.07
L395.38 237.52 A16.14 16.14 0 0 1 397.4 229.71
L397.4 229.71 A16.14 16.14 0 1 0 369.16 229.71
L369.16 229.71 A16.14 16.14 0 0 1 371.17 237.52
L371.17 242.07
M435.72 242.07
L435.72 237.52 A16.14 16.14 0 0 1 437.74 229.71
L437.74 229.71 A16.14 16.14 0 1 0 409.5 229.71
L409.5 229.71 A16.14 16.14 0 0 1 411.52 237.52
L411.52 242.07
M476.07 201.72
L476.07 206.27
L476.07 206.27 A16.14 16.14 0 0 0 478.09 214.08
L478.09 214.08 A16.14 16.14 0 1 1 449.84 214.08
L449.84 214.08 A16.14 16.14 0 0 0 451.86 206.27
L451.86 201.72
M516.41 242.07
L516.41 237.52 A16.14 16.14 0 0 1 518.43 229.71
L518.43 229.71 A16.14 16.14 0 1 0 490.19 229.71
L490.19 229.71 A16.14 16.14 0 0 1 492.21 237.52
L492.21 242.07
M556.76 201.72
L556.76 206.27
L556.76 206.27 A16.14 16.14 0 0 0 558.78 214.08
L558.78 214.08 A16.14 16.14 0 1 1 530.53 214.08
L530.53 214.08 A16.14 16.14 0 0 0 532.55 206.27
L532.55 201.72
M605.17 234
L600.63 234 A16.14 16.14 0 0 0 592.81 236.02
L592.81 236.02 A16.14 16.14 0 1 1 592.81 207.78
L592.81 207.78 A16.14 16.14 0 0 0 600.63 209.79
L605.17 209.79
M605.17 234
L645.52 234
M605.17 209.79
L645.52 209.79
M613.24 209.79
L613.24 201.72
M613.24 234
L613.24 242.07
M637.45 209.79
L637.45 201.72
M637.45 234
L637.45 242.07
M677.79 242.07
L677.79 201.72
M653.59 201.72
L653.59 201.72 A8.07 8.07 0 0 1 645.52 209.79
L645.52 209.79
M645.52 234
L645.52 234 A8.07 8.07 0 0 1 653.59 242.07
L653.59 242.07
M726.21 209.79
L726.21 209.79 A8.07 8.07 0 0 1 718.14 201.72
L718.14 201.72
M726.21 234
L718.14 234 A24.21 24.21 0 0 1 693.93 209.79
L693.93 201.72
M734.28 242.07
L734.28 201.72
M758.48 242.07
L758.48 201.72
M726.21 209.79
L734.28 209.79
M726.21 234
L734.28 234
M766.55 209.79
L758.48 209.79
M766.55 234
L758.48 234
M774.62 201.72
L774.62 201.72 A8.07 8.07 0 0 1 766.55 209.79
L766.55 209.79
M798.83 201.72
L798.83 209.79 A24.21 24.21 0 0 1 774.62 234
L766.55 234
M40.34 274.34
L35.8 274.34 A16.14 16.14 0 0 0 27.99 276.36
L27.99 276.36 A16.14 16.14 0 1 1 27.99 248.12
L27.99 248.12 A16.14 16.14 0 0 0 35.8 250.14
L40.34 250.14
M40.34 250.14
L80.69 250.14
M40.34 274.34
L40.34 274.34 A8.07 8.07 0 0 1 48.41 282.41
L48.41 282.41
M80.69 274.34
L80.69 274.34 A8.07 8.07 0 0 0 72.62 282.41
L72.62 282.41
M88.76 282.41
L88.76 242.07
M112.97 282.41
L112.97 242.07
M80.69 250.14
L88.76 250.14
M80.69 274.34
L88.76 274.34
M121.03 250.14
L112.97 250.14
M121.03 274.34
L112.97 274.34
M153.31 282.41
L153.31 242.07
M129.1 242.07
L129.1 242.07 A8.07 8.07 0 0 1 121.03 250.14
L121.03 250.14
M121.03 274.34
L121.03 274.34 A8.07 8.07 0 0 1 129.1 282.41
L129.1 282.41
M201.72 250.14
L201.72 250.14 A8.07 8.07 0 0 1 193.66 242.07
L193.66 242.07
M201.72 274.34
L193.66 274.34 A24.21 24.21 0 0 1 169.45 250.14
L169.45 242.07
M209.79 282.41
L209.79 242.07
M234 282.41
L234 242.07
M201.72 250.14
L209.79 250.14
M201.72 274.34
L209.79 274.34
M242.07 250.14
L234 250.14
M242.07 274.34
L234 274.34
M274.34 282.41
L274.34 242.07
M250.14 242.07
L250.14 242.07 A8.07 8.07 0 0 1 242.07 250.14
L242.07 250.14
M242.07 274.34
L242.07 274.34 A8.07 8.07 0 0 1 250.14 282.41
L250.14 282.41
M322.76 250.14
L322.76 250.14 A8.07 8.07 0 0 1 314.69 242.07
L314.69 242.07
M322.76 274.34
L314.69 274.34 A24.21 24.21 0 0 1 290.48 250.14
L290.48 242.07
M330.83 282.41
L330.83 242.07
M355.03 282.41
L355.03 242.07
M322.76 250.14
L330.83 250.14
M322.76 274.34
L330.83 274.34
M363.1 250.14
L355.03 250.14
M363.1 274.34
L355.03 274.34
M363.1 274.34
L403.45 274.34
M371.17 242.07
L371.17 242.07 A8.07 8.07 0 0 1 363.1 250.14
L363.1 250.14
M403.45 250.14
L403.45 250.14 A8.07 8.07 0 0 1 395.38 242.07
L395.38 242.07
M411.52 282.41
L411.52 242.07
M435.72 282.41
L435.72 242.07
M403.45 250.14
L411.52 250.14
M403.45 274.34
L411.52 274.34
M443.79 250.14
L435.72 250.14
M443.79 274.34
L435.72 274.34
M443.79 274.34
L484.14 274.34
M443.79 250.14
L484.14 250.14
M492.21 282.41
L492.21 242.07
M516.41 282.41
L516.41 242.07
M484.14 250.14
L492.21 250.14
M484.14 274.34
L492.21 274.34
M524.48 250.14
L516.41 250.14
M524.48 274.34
L516.41 274.34
M524.48 250.14
L564.83 250.14
M524.48 274.34
L524.48 274.34 A8.07 8.07 0 0 1 532.55 282.41
L532.55 282.41
M564.83 274.34
L564.83 274.34 A8.07 8.07 0 0 0 556.76 282.41
L556.76 282.41
M564.83 274.34
L569.37 274.34 A16.14 16.14 0 0 1 577.19 276.36
L577.19 276.36 A16.14 16.14 0 1 0 577.19 248.12
L577.19 248.12 A16.14 16.14 0 0 1 569.37 250.14
L564.83 250.14
M645.52 250.14
L645.52 250.14 A8.07 8.07 0 0 1 637.45 242.07
L637.45 242.07
M645.52 274.34
L637.45 274.34 A24.21 24.21 0 0 1 613.24 250.14
L613.24 242.07
M645.52 274.34
L685.86 274.34
M645.52 250.14
L685.86 250.14
M653.59 250.14
L653.59 242.07
M653.59 274.34
L653.59 282.41
M677.79 250.14
L677.79 242.07
M677.79 274.34
L677.79 282.41
M685.86 274.34
L685.86 274.34 A8.07 8.07 0 0 1 693.93 282.41
L693.93 282.41
M685.86 250.14
L693.93 250.14 A24.21 24.21 0 0 1 718.14 274.34
L718.14 282.41
M766.55 250.14
L766.55 250.14 A8.07 8.07 0 0 1 758.48 242.07
L758.48 242.07
M766.55 274.34
L758.48 274.34 A24.21 24.21 0 0 1 734.28 250.14
L734.28 242.07
M766.55 274.34
L766.55 274.34 A8.07 8.07 0 0 1 774.62 282.41
L774.62 282.41
M766.55 250.14
L774.62 250.14 A24.21 24.21 0 0 1 798.83 274.34
L798.83 282.41
M40.34 314.69
L35.8 314.69 A16.14 16.14 0 0 0 27.99 316.71
L27.99 316.71 A16.14 16.14 0 1 1 27.99 288.47
L27.99 288.47 A16.14 16.14 0 0 0 35.8 290.48
L40.34 290.48
M48.41 322.76
L48.41 282.41
M72.62 322.76
L72.62 282.41
M40.34 290.48
L48.41 290.48
M40.34 314.69
L48.41 314.69
M80.69 290.48
L72.62 290.48
M80.69 314.69
L72.62 314.69
M112.97 322.76
L112.97 282.41
M88.76 282.41
L88.76 282.41 A8.07 8.07 0 0 1 80.69 290.48
L80.69 290.48
M80.69 314.69
L80.69 314.69 A8.07 8.07 0 0 1 88.76 322.76
L88.76 322.76
M129.1 322.76
L129.1 282.41
M153.31 322.76
L153.31 282.41
M201.72 314.69
L197.18 314.69 A16.14 16.14 0 0 0 189.36 316.71
L189.36 316.71 A16.14 16.14 0 1 1 189.36 288.47
L189.36 288.47 A16.14 16.14 0 0 0 197.18 290.48
L201.72 290.48
M209.79 282.41
L209.79 282.41 A8.07 8.07 0 0 1 201.72 290.48
L201.72 290.48
M201.72 314.69
L201.72 314.69 A8.07 8.07 0 0 1 209.79 322.76
L209.79 322.76
M242.07 290.48
L242.07 290.48 A8.07 8.07 0 0 1 234 282.41
L234 282.41
M242.07 314.69
L242.07 314.69 A8.07 8.07 0 0 0 234 322.76
L234 322.76
M250.14 322.76
L250.14 282.41
M274.34 322.76
L274.34 282.41
M242.07 290.48
L250.14 290.48
M242.07 314.69
L250.14 314.69
M282.41 290.48
L274.34 290.48
M282.41 314.69
L274.34 314.69
M282.41 314.69
L282.41 314.69 A8.07 8.07 0 0 1 290.48 322.76
L290.48 322.76
M282.41 290.48
L290.48 290.48 A24.21 24.21 0 0 1 314.69 314.69
L314.69 322.76
M363.1 290.48
L363.1 290.48 A8.07 8.07 0 0 1 355.03 282.41
L355.03 282.41
M363.1 314.69
L355.03 314.69 A24.21 24.21 0 0 1 330.83 290.48
L330.83 282.41
M363.1 290.48
L403.45 290.48
M363.1 314.69
L363.1 314.69 A8.07 8.07 0 0 1 371.17 322.76
L371.17 322.76
M403.45 314.69
L403.45 314.69 A8.07 8.07 0 0 0 395.38 322.76
L395.38 322.76
M403.45 314.69
L443.79 314.69
M411.52 282.41
L411.52 282.41 A8.07 8.07 0 0 1 403.45 290.48
L403.45 290.48
M443.79 290.48
L443.79 290.48 A8.07 8.07 0 0 1 435.72 282.41
L435.72 282.41
M443.79 314.69
L448.34 314.69 A16.14 16.14 0 0 1 456.15 316.71
L456.15 316.71 A16.14 16.14 0 1 0 456.15 288.47
L456.15 288.47 A16.14 16.14 0 0 1 448.34 290.48
L443.79 290.48
M492.21 322.76
L492.21 282.41
M524.48 290.48
L524.48 290.48 A8.07 8.07 0 0 1 516.41 282.41
L516.41 282.41
M524.48 314.69
L524.48 314.69 A8.07 8.07 0 0 0 516.41 322.76
L516.41 322.76
M532.55 322.76
L532.55 282.41
M556.76 322.76
L556.76 282.41
M524.48 290.48
L532.55 290.48
M524.48 314.69
L532.55 314.69
M564.83 290.48
L556.76 290.48
M564.83 314.69
L556.76 314.69
M564.83 314.69
L605.17 314.69
M564.83 290.48
L605.17 290.48
M605.17 314.69
L605.17 314.69 A8.07 8.07 0 0 1 613.24 322.76
L613.24 322.76
M605.17 290.48
L613.24 290.48 A24.21 24.21 0 0 1 637.45 314.69
L637.45 322.76
M653.59 322.76
L653.59 282.41
M685.86 290.48
L685.86 290.48 A8.07 8.07 0 0 1 677.79 282.41
L677.79 282.41
M685.86 314.69
L685.86 314.69 A8.07 8.07 0 0 0 677.79 322.76
L677.79 322.76
M693.93 322.76
L693.93 282.41
M718.14 322.76
L718.14 282.41
M685.86 290.48
L693.93 290.48
M685.86 314.69
L693.93 314.69
M726.21 290.48
L718.14 290.48
M726.21 314.69
L718.14 314.69
M726.21 314.69
L730.75 314.69 A16.14 16.14 0 0 1 738.57 316.71
L738.57 316.71 A16.14 16.14 0 1 0 738.57 288.47
L738.57 288.47 A16.14 16.14 0 0 1 730.75 290.48
L726.21 290.48
M798.83 282.41
L798.83 286.96
L798.83 286.96 A16.14 16.14 0 0 0 800.84 294.77
L800.84 294.77 A16.14 16.14 0 1 1 772.6 294.77
L772.6 294.77 A16.14 16.14 0 0 0 774.62 286.96
L774.62 282.41
M40.34 355.03
L40.34 355.03 A8.07 8.07 0 0 0 32.28 363.1
L32.28 363.1
M40.34 330.83
L40.34 330.83 A32.28 32.28 0 0 0 8.07 363.1
L8.07 363.1
M48.41 322.76
L48.41 322.76 A8.07 8.07 0 0 1 40.34 330.83
L40.34 330.83
M72.62 322.76
L72.62 330.83 A24.21 24.21 0 0 1 48.41 355.03
L40.34 355.03
M121.03 330.83
L121.03 330.83 A8.07 8.07 0 0 1 112.97 322.76
L112.97 322.76
M121.03 355.03
L112.97 355.03 A24.21 24.21 0 0 1 88.76 330.83
L88.76 322.76
M121.03 355.03
L161.38 355.03
M121.03 330.83
L161.38 330.83
M129.1 330.83
L129.1 322.76
M129.1 355.03
L129.1 363.1
M153.31 330.83
L153.31 322.76
M153.31 355.03
L153.31 363.1
M161.38 330.83
L201.72 330.83
M161.38 355.03
L161.38 355.03 A8.07 8.07 0 0 1 169.45 363.1
L169.45 363.1
M201.72 355.03
L201.72 355.03 A8.07 8.07 0 0 0 193.66 363.1
L193.66 363.1
M209.79 363.1
L209.79 322.76
M234 363.1
L234 322.76
M201.72 330.83
L209.79 330.83
M201.72 355.03
L209.79 355.03
M242.07 330.83
L234 330.83
M242.07 355.03
L234 355.03
M274.34 363.1
L274.34 322.76
M250.14 322.76
L250.14 322.76 A8.07 8.07 0 0 1 242.07 330.83
L242.07 330.83
M242.07 355.03
L242.07 355.03 A8.07 8.07 0 0 1 250.14 363.1
L250.14 363.1
M314.69 322.76
L314.69 327.31
L314.69 327.31 A16.14 16.14 0 0 0 316.71 335.12
L316.71 335.12 A16.14 16.14 0 1 1 288.47 335.12
L288.47 335.12 A16.14 16.14 0 0 0 290.48 327.31
L290.48 322.76
M363.1 355.03
L363.1 355.03 A8.07 8.07 0 0 0 355.03 363.1
L355.03 363.1
M363.1 330.83
L363.1 330.83 A32.28 32.28 0 0 0 330.83 363.1
L330.83 363.1
M371.17 363.1
L371.17 322.76
M395.38 363.1
L395.38 322.76
M363.1 330.83
L371.17 330.83
M363.1 355.03
L371.17 355.03
M403.45 330.83
L395.38 330.83
M403.45 355.03
L395.38 355.03
M403.45 355.03
L403.45 355.03 A8.07 8.07 0 0 1 411.52 363.1
L411.52 363.1
M403.45 330.83
L411.52 330.83 A24.21 24.21 0 0 1 435.72 355.03
L435.72 363.1
M484.14 355.03
L479.59 355.03 A16.14 16.14 0 0 0 471.78 357.05
L471.78 357.05 A16.14 16.14 0 1 1 471.78 328.81
L471.78 328.81 A16.14 16.14 0 0 0 479.59 330.83
L484.14 330.83
M484.14 355.03
L524.48 355.03
M484.14 330.83
L524.48 330.83
M492.21 330.83
L492.21 322.76
M492.21 355.03
L492.21 363.1
M516.41 330.83
L516.41 322.76
M516.41 355.03
L516.41 363.1
M556.76 363.1
L556.76 322.76
M532.55 322.76
L532.55 322.76 A8.07 8.07 0 0 1 524.48 330.83
L524.48 330.83
M524.48 355.03
L524.48 355.03 A8.07 8.07 0 0 1 532.55 363.1
L532.55 363.1
M605.17 355.03
L600.63 355.03 A16.14 16.14 0 0 0 592.81 357.05
L592.81 357.05 A16.14 16.14 0 1 1 592.81 328.81
L592.81 328.81 A16.14 16.14 0 0 0 600.63 330.83
L605.17 330.83
M605.17 355.03
L645.52 355.03
M605.17 330.83
L645.52 330.83
M613.24 330.83
L613.24 322.76
M613.24 355.03
L613.24 363.1
M637.45 330.83
L637.45 322.76
M637.45 355.03
L637.45 363.1
M677.79 363.1
L677.79 322.76
M653.59 322.76
L653.59 322.76 A8.07 8.07 0 0 1 645.52 330.83
L645.52 330.83
M645.52 355.03
L645.52 355.03 A8.07 8.07 0 0 1 653.59 363.1
L653.59 363.1
M726.21 330.83
L726.21 330.83 A8.07 8.07 0 0 1 718.14 322.76
L718.14 322.76
M726.21 355.03
L718.14 355.03 A24.21 24.21 0 0 1 693.93 330.83
L693.93 322.76
M726.21 330.83
L766.55 330.83
M726.21 355.03
L726.21 355.03 A8.07 8.07 0 0 1 734.28 363.1
L734.28 363.1
M766.55 355.03
L766.55 355.03 A8.07 8.07 0 0 0 758.48 363.1
L758.48 363.1
M766.55 355.03
L771.1 355.03 A16.14 16.14 0 0 1 778.91 357.05
L778.91 357.05 A16.14 16.14 0 1 0 778.91 328.81
L778.91 328.81 A16.14 16.14 0 0 1 771.1 330.83
L766.55 330.83
M32.28 363.1
L32.28 367.65
L32.28 367.65 A16.14 16.14 0 0 0 34.29 375.46
L34.29 375.46 A16.14 16.14 0 1 1 6.05 375.46
L6.05 375.46 A16.14 16.14 0 0 0 8.07 367.65
L8.07 363.1
M72.62 403.45
L72.62 398.9 A16.14 16.14 0 0 1 74.64 391.09
L74.64 391.09 A16.14 16.14 0 1 0 46.4 391.09
L46.4 391.09 A16.14 16.14 0 0 1 48.41 398.9
L48.41 403.45
M121.03 395.38
L116.49 395.38 A16.14 16.14 0 0 0 108.67 397.4
L108.67 397.4 A16.14 16.14 0 1 1 108.67 369.16
L108.67 369.16 A16.14 16.14 0 0 0 116.49 371.17
L121.03 371.17
M129.1 363.1
L129.1 363.1 A8.07 8.07 0 0 1 121.03 371.17
L121.03 371.17
M153.31 363.1
L153.31 371.17 A24.21 24.21 0 0 1 129.1 395.38
L121.03 395.38
M193.66 363.1
L193.66 367.65
L193.66 367.65 A16.14 16.14 0 0 0 195.67 375.46
L195.67 375.46 A16.14 16.14 0 1 1 167.43 375.46
L167.43 375.46 A16.14 16.14 0 0 0 169.45 367.65
L169.45 363.1
M242.07 371.17
L242.07 371.17 A8.07 8.07 0 0 1 234 363.1
L234 363.1
M242.07 395.38
L234 395.38 A24.21 24.21 0 0 1 209.79 371.17
L209.79 363.1
M242.07 395.38
L282.41 395.38
M242.07 371.17
L282.41 371.17
M250.14 371.17
L250.14 363.1
M250.14 395.38
L250.14 403.45
M274.34 371.17
L274.34 363.1
M274.34 395.38
L274.34 403.45
M282.41 395.38
L282.41 395.38 A8.07 8.07 0 0 1 290.48 403.45
L290.48 403.45
M282.41 371.17
L290.48 371.17 A24.21 24.21 0 0 1 314.69 395.38
L314.69 403.45
M355.03 363.1
L355.03 367.65
L355.03 367.65 A16.14 16.14 0 0 0 357.05 375.46
L357.05 375.46 A16.14 16.14 0 1 1 328.81 375.46
L328.81 375.46 A16.14 16.14 0 0 0 330.83 367.65
L330.83 363.1
M371.17 403.45
L371.17 363.1
M403.45 371.17
L403.45 371.17 A8.07 8.07 0 0 1 395.38 363.1
L395.38 363.1
M403.45 395.38
L403.45 395.38 A8.07 8.07 0 0 0 395.38 403.45
L395.38 403.45
M403.45 395.38
L443.79 395.38
M403.45 371.17
L443.79 371.17
M411.52 371.17
L411.52 363.1
M411.52 395.38
L411.52 403.45
M435.72 371.17
L435.72 363.1
M435.72 395.38
L435.72 403.45
M443.79 395.38
L448.34 395.38 A16.14 16.14 0 0 1 456.15 397.4
L456.15 397.4 A16.14 16.14 0 1 0 456.15 369.16
L456.15 369.16 A16.14 16.14 0 0 1 448.34 371.17
L443.79 371.17
M492.21 403.45
L492.21 363.1
M524.48 371.17
L524.48 371.17 A8.07 8.07 0 0 1 516.41 363.1
L516.41 363.1
M524.48 395.38
L524.48 395.38 A8.07 8.07 0 0 0 516.41 403.45
L516.41 403.45
M524.48 395.38
L564.83 395.38
M524.48 371.17
L564.83 371.17
M532.55 371.17
L532.55 363.1
M532.55 395.38
L532.55 403.45
M556.76 371.17
L556.76 363.1
M556.76 395.38
L556.76 403.45
M564.83 395.38
L569.37 395.38 A16.14 16.14 0 0 1 577.19 397.4
L577.19 397.4 A16.14 16.14 0 1 0 577.19 369.16
L577.19 369.16 A16.14 16.14 0 0 1 569.37 371.17
L564.83 371.17
M645.52 371.17
L645.52 371.17 A8.07 8.07 0 0 1 637.45 363.1
L637.45 363.1
M645.52 395.38
L637.45 395.38 A24.21 24.21 0 0 1 613.24 371.17
L613.24 363.1
M645.52 395.38
L685.86 395.38
M645.52 371.17
L685.86 371.17
M653.59 371.17
L653.59 363.1
M653.59 395.38
L653.59 403.45
M677.79 371.17
L677.79 363.1
M677.79 395.38
L677.79 403.45
M685.86 395.38
L726.21 395.38
M685.86 371.17
L726.21 371.17
M726.21 395.38
L766.55 395.38
M726.21 371.17
L766.55 371.17
M734.28 371.17
L734.28 363.1
M734.28 395.38
L734.28 403.45
M758.48 371.17
L758.48 363.1
M758.48 395.38
L758.48 403.45
M766.55 395.38
L771.1 395.38 A16.14 16.14 0 0 1 778.91 397.4
L778.91 397.4 A16.14 16.14 0 1 0 778.91 369.16
L778.91 369.16 A16.14 16.14 0 0 1 771.1 371.17
L766.55 371.17
M40.34 435.72
L40.34 435.72 A8.07 8.07 0 0 0 32.28 443.79
L32.28 443.79
M40.34 411.52
L40.34 411.52 A32.28 32.28 0 0 0 8.07 443.79
L8.07 443.79
M40.34 435.72
L80.69 435.72
M40.34 411.52
L80.69 411.52
M48.41 411.52
L48.41 403.45
M48.41 435.72
L48.41 443.79
M72.62 411.52
L72.62 403.45
M72.62 435.72
L72.62 443.79
M80.69 411.52
L121.03 411.52
M80.69 435.72
L80.69 435.72 A8.07 8.07 0 0 1 88.76 443.79
L88.76 443.79
M121.03 435.72
L121.03 435.72 A8.07 8.07 0 0 0 112.97 443.79
L112.97 443.79
M121.03 435.72
L125.58 435.72 A16.14 16.14 0 0 1 133.39 437.74
L133.39 437.74 A16.14 16.14 0 1 0 133.39 409.5
L133.39 409.5 A16.14 16.14 0 0 1 125.58 411.52
L121.03 411.52
M193.66 443.79
L193.66 439.25 A16.14 16.14 0 0 1 195.67 431.43
L195.67 431.43 A16.14 16.14 0 1 0 167.43 431.43
L167.43 431.43 A16.14 16.14 0 0 1 169.45 439.25
L169.45 443.79
M234 443.79
L234 439.25 A16.14 16.14 0 0 1 236.02 431.43
L236.02 431.43 A16.14 16.14 0 1 0 207.78 431.43
L207.78 431.43 A16.14 16.14 0 0 1 209.79 439.25
L209.79 443.79
M250.14 443.79
L250.14 403.45
M282.41 411.52
L282.41 411.52 A8.07 8.07 0 0 1 274.34 403.45
L274.34 403.45
M282.41 435.72
L282.41 435.72 A8.07 8.07 0 0 0 274.34 443.79
L274.34 443.79
M290.48 443.79
L290.48 403.45
M314.69 443.79
L314.69 403.45
M282.41 411.52
L290.48 411.52
M282.41 435.72
L290.48 435.72
M322.76 411.52
L314.69 411.52
M322.76 435.72
L314.69 435.72
M322.76 411.52
L363.1 411.52
M322.76 435.72
L322.76 435.72 A8.07 8.07 0 0 1 330.83 443.79
L330.83 443.79
M363.1 435.72
L363.1 435.72 A8.07 8.07 0 0 0 355.03 443.79
L355.03 443.79
M363.1 435.72
L403.45 435.72
M363.1 411.52
L403.45 411.52
M371.17 411.52
L371.17 403.45
M371.17 435.72
L371.17 443.79
M395.38 411.52
L395.38 403.45
M395.38 435.72
L395.38 443.79
M435.72 443.79
L435.72 403.45
M411.52 403.45
L411.52 403.45 A8.07 8.07 0 0 1 403.45 411.52
L403.45 411.52
M403.45 435.72
L403.45 435.72 A8.07 8.07 0 0 1 411.52 443.79
L411.52 443.79
M484.14 435.72
L484.14 435.72 A8.07 8.07 0 0 0 476.07 443.79
L476.07 443.79
M484.14 411.52
L484.14 411.52 A32.28 32.28 0 0 0 451.86 443.79
L451.86 443.79
M484.14 435.72
L524.48 435.72
M484.14 411.52
L524.48 411.52
M492.21 411.52
L492.21 403.45
M492.21 435.72
L492.21 443.79
M516.41 411.52
L516.41 403.45
M516.41 435.72
L516.41 443.79
M556.76 443.79
L556.76 403.45
M532.55 403.45
L532.55 403.45 A8.07 8.07 0 0 1 524.48 411.52
L524.48 411.52
M524.48 435.72
L524.48 435.72 A8.07 8.07 0 0 1 532.55 443.79
L532.55 443.79
M605.17 435.72
L600.63 435.72 A16.14 16.14 0 0 0 592.81 437.74
L592.81 437.74 A16.14 16.14 0 1 1 592.81 409.5
L592.81 409.5 A16.14 16.14 0 0 0 600.63 411.52
L605.17 411.52
M605.17 411.52
L645.52 411.52
M605.17 435.72
L605.17 435.72 A8.07 8.07 0 0 1 613.24 443.79
L613.24 443.79
M645.52 435.72
L645.52 435.72 A8.07 8.07 0 0 0 637.45 443.79
L637.45 443.79
M653.59 403.45
L653.59 403.45 A8.07 8.07 0 0 1 645.52 411.52
L645.52 411.52
M677.79 403.45
L677.79 411.52 A24.21 24.21 0 0 1 653.59 435.72
L645.52 435.72
M718.14 443.79
L718.14 439.25 A16.14 16.14 0 0 1 720.16 431.43
L720.16 431.43 A16.14 16.14 0 1 0 691.91 431.43
L691.91 431.43 A16.14 16.14 0 0 1 693.93 439.25
L693.93 443.79
M734.28 443.79
L734.28 403.45
M766.55 411.52
L766.55 411.52 A8.07 8.07 0 0 1 758.48 403.45
L758.48 403.45
M766.55 435.72
L766.55 435.72 A8.07 8.07 0 0 0 758.48 443.79
L758.48 443.79
M766.55 435.72
L766.55 435.72 A8.07 8.07 0 0 1 774.62 443.79
L774.62 443.79
M766.55 411.52
L774.62 411.52 A24.21 24.21 0 0 1 798.83 435.72
L798.83 443.79
M32.28 443.79
L32.28 448.34
L32.28 448.34 A16.14 16.14 0 0 0 34.29 456.15
L34.29 456.15 A16.14 16.14 0 1 1 6.05 456.15
L6.05 456.15 A16.14 16.14 0 0 0 8.07 448.34
L8.07 443.79
M48.41 484.14
L48.41 443.79
M80.69 451.86
L80.69 451.86 A8.07 8.07 0 0 1 72.62 443.79
L72.62 443.79
M80.69 476.07
L80.69 476.07 A8.07 8.07 0 0 0 72.62 484.14
L72.62 484.14
M80.69 476.07
L121.03 476.07
M80.69 451.86
L121.03 451.86
M88.76 451.86
L88.76 443.79
M88.76 476.07
L88.76 484.14
M112.97 451.86
L112.97 443.79
M112.97 476.07
L112.97 484.14
M121.03 476.07
L125.58 476.07 A16.14 16.14 0 0 1 133.39 478.09
L133.39 478.09 A16.14 16.14 0 1 0 133.39 449.84
L133.39 449.84 A16.14 16.14 0 0 1 125.58 451.86
L121.03 451.86
M201.72 451.86
L201.72 451.86 A8.07 8.07 0 0 1 193.66 443.79
L193.66 443.79
M201.72 476.07
L193.66 476.07 A24.21 24.21 0 0 1 169.45 451.86
L169.45 443.79
M209.79 443.79
L209.79 443.79 A8.07 8.07 0 0 1 201.72 451.86
L201.72 451.86
M201.72 476.07
L201.72 476.07 A8.07 8.07 0 0 1 209.79 484.14
L209.79 484.14
M242.07 451.86
L242.07 451.86 A8.07 8.07 0 0 1 234 443.79
L234 443.79
M242.07 476.07
L242.07 476.07 A8.07 8.07 0 0 0 234 484.14
L234 484.14
M250.14 484.14
L250.14 443.79
M274.34 484.14
L274.34 443.79
M242.07 451.86
L250.14 451.86
M242.07 476.07
L250.14 476.07
M282.41 451.86
L274.34 451.86
M282.41 476.07
L274.34 476.07
M314.69 484.14
L314.69 443.79
M290.48 443.79
L290.48 443.79 A8.07 8.07 0 0 1 282.41 451.86
L282.41 451.86
M282.41 476.07
L282.41 476.07 A8.07 8.07 0 0 1 290.48 484.14
L290.48 484.14
M355.03 443.79
L355.03 448.34
L355.03 448.34 A16.14 16.14 0 0 0 357.05 456.15
L357.05 456.15 A16.14 16.14 0 1 1 328.81 456.15
L328.81 456.15 A16.14 16.14 0 0 0 330.83 448.34
L330.83 443.79
M403.45 451.86
L403.45 451.86 A8.07 8.07 0 0 1 395.38 443.79
L395.38 443.79
M403.45 476.07
L395.38 476.07 A24.21 24.21 0 0 1 371.17 451.86
L371.17 443.79
M403.45 476.07
L443.79 476.07
M403.45 451.86
L443.79 451.86
M411.52 451.86
L411.52 443.79
M411.52 476.07
L411.52 484.14
M435.72 451.86
L435.72 443.79
M435.72 476.07
L435.72 484.14
M451.86 443.79
L451.86 443.79 A8.07 8.07 0 0 1 443.79 451.86
L443.79 451.86
M476.07 443.79
L476.07 451.86 A24.21 24.21 0 0 1 451.86 476.07
L443.79 476.07
M492.21 484.14
L492.21 443.79
M524.48 451.86
L524.48 451.86 A8.07 8.07 0 0 1 516.41 443.79
L516.41 443.79
M524.48 476.07
L524.48 476.07 A8.07 8.07 0 0 0 516.41 484.14
L516.41 484.14
M524.48 476.07
L564.83 476.07
M524.48 451.86
L564.83 451.86
M532.55 451.86
L532.55 443.79
M532.55 476.07
L532.55 484.14
M556.76 451.86
L556.76 443.79
M556.76 476.07
L556.76 484.14
M564.83 451.86
L605.17 451.86
M564.83 476.07
L564.83 476.07 A8.07 8.07 0 0 1 572.9 484.14
L572.9 484.14
M605.17 476.07
L605.17 476.07 A8.07 8.07 0 0 0 597.1 484.14
L597.1 484.14
M605.17 476.07
L645.52 476.07
M605.17 451.86
L645.52 451.86
M613.24 451.86
L613.24 443.79
M613.24 476.07
L613.24 484.14
M637.45 451.86
L637.45 443.79
M637.45 476.07
L637.45 484.14
M645.52 476.07
L685.86 476.07
M645.52 451.86
L685.86 451.86
M685.86 476.07
L726.21 476.07
M685.86 451.86
L726.21 451.86
M693.93 451.86
L693.93 443.79
M693.93 476.07
L693.93 484.14
M718.14 451.86
L718.14 443.79
M718.14 476.07
L718.14 484.14
M734.28 443.79
L734.28 443.79 A8.07 8.07 0 0 1 726.21 451.86
L726.21 451.86
M758.48 443.79
L758.48 451.86 A24.21 24.21 0 0 1 734.28 476.07
L726.21 476.07
M798.83 443.79
L798.83 448.34
L798.83 448.34 A16.14 16.14 0 0 0 800.84 456.15
L800.84 456.15 A16.14 16.14 0 1 1 772.6 456.15
L772.6 456.15 A16.14 16.14 0 0 0 774.62 448.34
L774.62 443.79
M40.34 516.41
L40.34 516.41 A8.07 8.07 0 0 0 32.28 524.48
L32.28 524.48
M40.34 492.21
L40.34 492.21 A32.28 32.28 0 0 0 8.07 524.48
L8.07 524.48
M40.34 516.41
L80.69 516.41
M40.34 492.21
L80.69 492.21
M48.41 492.21
L48.41 484.14
M48.41 516.41
L48.41 524.48
M72.62 492.21
L72.62 484.14
M72.62 516.41
L72.62 524.48
M112.97 524.48
L112.97 484.14
M88.76 484.14
L88.76 484.14 A8.07 8.07 0 0 1 80.69 492.21
L80.69 492.21
M80.69 516.41
L80.69 516.41 A8.07 8.07 0 0 1 88.76 524.48
L88.76 524.48
M161.38 516.41
L161.38 516.41 A8.07 8.07 0 0 0 153.31 524.48
L153.31 524.48
M161.38 492.21
L161.38 492.21 A32.28 32.28 0 0 0 129.1 524.48
L129.1 524.48
M161.38 516.41
L161.38 516.41 A8.07 8.07 0 0 1 169.45 524.48
L169.45 524.48
M161.38 492.21
L169.45 492.21 A24.21 24.21 0 0 1 193.66 516.41
L193.66 524.48
M242.07 492.21
L242.07 492.21 A8.07 8.07 0 0 1 234 484.14
L234 484.14
M242.07 516.41
L234 516.41 A24.21 24.21 0 0 1 209.79 492.21
L209.79 484.14
M250.14 484.14
L250.14 484.14 A8.07 8.07 0 0 1 242.07 492.21
L242.07 492.21
M242.07 516.41
L242.07 516.41 A8.07 8.07 0 0 1 250.14 524.48
L250.14 524.48
M282.41 492.21
L282.41 492.21 A8.07 8.07 0 0 1 274.34 484.14
L274.34 484.14
M282.41 516.41
L282.41 516.41 A8.07 8.07 0 0 0 274.34 524.48
L274.34 524.48
M290.48 524.48
L290.48 484.14
M314.69 524.48
L314.69 484.14
M282.41 492.21
L290.48 492.21
M282.41 516.41
L290.48 516.41
M322.76 492.21
L314.69 492.21
M322.76 516.41
L314.69 516.41
M322.76 492.21
L363.1 492.21
M322.76 516.41
L322.76 516.41 A8.07 8.07 0 0 1 330.83 524.48
L330.83 524.48
M363.1 516.41
L363.1 516.41 A8.07 8.07 0 0 0 355.03 524.48
L355.03 524.48
M363.1 516.41
L367.65 516.41 A16.14 16.14 0 0 1 375.46 518.43
L375.46 518.43 A16.14 16.14 0 1 0 375.46 490.19
L375.46 490.19 A16.14 16.14 0 0 1 367.65 492.21
L363.1 492.21
M411.52 524.48
L411.52 484.14
M435.72 524.48
L435.72 484.14
M476.07 524.48
L476.07 519.94 A16.14 16.14 0 0 1 478.09 512.12
L478.09 512.12 A16.14 16.14 0 1 0 449.84 512.12
L449.84 512.12 A16.14 16.14 0 0 1 451.86 519.94
L451.86 524.48
M516.41 484.14
L516.41 488.68
L516.41 488.68 A16.14 16.14 0 0 0 518.43 496.5
L518.43 496.5 A16.14 16.14 0 1 1 490.19 496.5
L490.19 496.5 A16.14 16.14 0 0 0 492.21 488.68
L492.21 484.14
M532.55 524.48
L532.55 484.14
M564.83 492.21
L564.83 492.21 A8.07 8.07 0 0 1 556.76 484.14
L556.76 484.14
M564.83 516.41
L564.83 516.41 A8.07 8.07 0 0 0 556.76 524.48
L556.76 524.48
M564.83 516.41
L605.17 516.41
M564.83 492.21
L605.17 492.21
M572.9 492.21
L572.9 484.14
M572.9 516.41
L572.9 524.48
M597.1 492.21
L597.1 484.14
M597.1 516.41
L597.1 524.48
M613.24 484.14
L613.24 484.14 A8.07 8.07 0 0 1 605.17 492.21
L605.17 492.21
M605.17 516.41
L605.17 516.41 A8.07 8.07 0 0 1 613.24 524.48
L613.24 524.48
M645.52 492.21
L645.52 492.21 A8.07 8.07 0 0 1 637.45 484.14
L637.45 484.14
M645.52 516.41
L645.52 516.41 A8.07 8.07 0 0 0 637.45 524.48
L637.45 524.48
M645.52 516.41
L645.52 516.41 A8.07 8.07 0 0 1 653.59 524.48
L653.59 524.48
M645.52 492.21
L653.59 492.21 A24.21 24.21 0 0 1 677.79 516.41
L677.79 524.48
M726.21 492.21
L726.21 492.21 A8.07 8.07 0 0 1 718.14 484.14
L718.14 484.14
M726.21 516.41
L718.14 516.41 A24.21 24.21 0 0 1 693.93 492.21
L693.93 484.14
M726.21 492.21
L766.55 492.21
M726.21 516.41
L726.21 516.41 A8.07 8.07 0 0 1 734.28 524.48
L734.28 524.48
M766.55 516.41
L766.55 516.41 A8.07 8.07 0 0 0 758.48 524.48
L758.48 524.48
M766.55 516.41
L771.1 516.41 A16.14 16.14 0 0 1 778.91 518.43
L778.91 518.43 A16.14 16.14 0 1 0 778.91 490.19
L778.91 490.19 A16.14 16.14 0 0 1 771.1 492.21
L766.55 492.21
M32.28 524.48
L32.28 529.03
L32.28 529.03 A16.14 16.14 0 0 0 34.29 536.84
L34.29 536.84 A16.14 16.14 0 1 1 6.05 536.84
L6.05 536.84 A16.14 16.14 0 0 0 8.07 529.03
L8.07 524.48
M80.69 532.55
L80.69 532.55 A8.07 8.07 0 0 1 72.62 524.48
L72.62 524.48
M80.69 556.76
L72.62 556.76 A24.21 24.21 0 0 1 48.41 532.55
L48.41 524.48
M88.76 564.83
L88.76 524.48
M112.97 564.83
L112.97 524.48
M80.69 532.55
L88.76 532.55
M80.69 556.76
L88.76 556.76
M121.03 532.55
L112.97 532.55
M121.03 556.76
L112.97 556.76
M129.1 524.48
L129.1 524.48 A8.07 8.07 0 0 1 121.03 532.55
L121.03 532.55
M121.03 556.76
L121.03 556.76 A8.07 8.07 0 0 1 129.1 564.83
L129.1 564.83
M161.38 532.55
L161.38 532.55 A8.07 8.07 0 0 1 153.31 524.48
L153.31 524.48
M161.38 556.76
L161.38 556.76 A8.07 8.07 0 0 0 153.31 564.83
L153.31 564.83
M161.38 556.76
L201.72 556.76
M161.38 532.55
L201.72 532.55
M169.45 532.55
L169.45 524.48
M169.45 556.76
L169.45 564.83
M193.66 532.55
L193.66 524.48
M193.66 556.76
L193.66 564.83
M201.72 556.76
L201.72 556.76 A8.07 8.07 0 0 1 209.79 564.83
L209.79 564.83
M201.72 532.55
L209.79 532.55 A24.21 24.21 0 0 1 234 556.76
L234 564.83
M250.14 564.83
L250.14 524.48
M274.34 564.83
L274.34 524.48
M290.48 564.83
L290.48 524.48
M322.76 532.55
L322.76 532.55 A8.07 8.07 0 0 1 314.69 524.48
L314.69 524.48
M322.76 556.76
L322.76 556.76 A8.07 8.07 0 0 0 314.69 564.83
L314.69 564.83
M322.76 556.76
L363.1 556.76
M322.76 532.55
L363.1 532.55
M330.83 532.55
L330.83 524.48
M330.83 556.76
L330.83 564.83
M355.03 532.55
L355.03 524.48
M355.03 556.76
L355.03 564.83
M363.1 556.76
L367.65 556.76 A16.14 16.14 0 0 1 375.46 558.78
L375.46 558.78 A16.14 16.14 0 1 0 375.46 530.53
L375.46 530.53 A16.14 16.14 0 0 1 367.65 532.55
L363.1 532.55
M411.52 564.83
L411.52 524.48
M443.79 532.55
L443.79 532.55 A8.07 8.07 0 0 1 435.72 524.48
L435.72 524.48
M443.79 556.76
L443.79 556.76 A8.07 8.07 0 0 0 435.72 564.83
L435.72 564.83
M451.86 564.83
L451.86 524.48
M476.07 564.83
L476.07 524.48
M443.79 532.55
L451.86 532.55
M443.79 556.76
L451.86 556.76
M484.14 532.55
L476.07 532.55
M484.14 556.76
L476.07 556.76
M484.14 556.76
L524.48 556.76
M484.14 532.55
L524.48 532.55
M524.48 556.76
L564.83 556.76
M524.48 532.55
L564.83 532.55
M532.55 532.55
L532.55 524.48
M532.55 556.76
L532.55 564.83
M556.76 532.55
L556.76 524.48
M556.76 556.76
L556.76 564.83
M564.83 556.76
L605.17 556.76
M572.9 524.48
L572.9 524.48 A8.07 8.07 0 0 1 564.83 532.55
L564.83 532.55
M605.17 532.55
L605.17 532.55 A8.07 8.07 0 0 1 597.1 524.48
L597.1 524.48
M613.24 564.83
L613.24 524.48
M637.45 564.83
L637.45 524.48
M605.17 532.55
L613.24 532.55
M605.17 556.76
L613.24 556.76
M645.52 532.55
L637.45 532.55
M645.52 556.76
L637.45 556.76
M677.79 564.83
L677.79 524.48
M653.59 524.48
L653.59 524.48 A8.07 8.07 0 0 1 645.52 532.55
L645.52 532.55
M645.52 556.76
L645.52 556.76 A8.07 8.07 0 0 1 653.59 564.83
L653.59 564.83
M726.21 556.76
L721.66 556.76 A16.14 16.14 0 0 0 713.85 558.78
L713.85 558.78 A16.14 16.14 0 1 1 713.85 530.53
L713.85 530.53 A16.14 16.14 0 0 0 721.66 532.55
L726.21 532.55
M734.28 524.48
L734.28 524.48 A8.07 8.07 0 0 1 726.21 532.55
L726.21 532.55
M726.21 556.76
L726.21 556.76 A8.07 8.07 0 0 1 734.28 564.83
L734.28 564.83
M766.55 532.55
L766.55 532.55 A8.07 8.07 0 0 1 758.48 524.48
L758.48 524.48
M766.55 556.76
L766.55 556.76 A8.07 8.07 0 0 0 758.48 564.83
L758.48 564.83
M766.55 556.76
L771.1 556.76 A16.14 16.14 0 0 1 778.91 558.78
L778.91 558.78 A16.14 16.14 0 1 0 778.91 530.53
L778.91 530.53 A16.14 16.14 0 0 1 771.1 532.55
L766.55 532.55
M32.28 605.17
L32.28 600.63 A16.14 16.14 0 0 1 34.29 592.81
L34.29 592.81 A16.14 16.14 0 1 0 6.05 592.81
L6.05 592.81 A16.14 16.14 0 0 1 8.07 600.63
L8.07 605.17
M72.62 605.17
L72.62 600.63 A16.14 16.14 0 0 1 74.64 592.81
L74.64 592.81 A16.14 16.14 0 1 0 46.4 592.81
L46.4 592.81 A16.14 16.14 0 0 1 48.41 600.63
L48.41 605.17
M121.03 572.9
L121.03 572.9 A8.07 8.07 0 0 1 112.97 564.83
L112.97 564.83
M121.03 597.1
L112.97 597.1 A24.21 24.21 0 0 1 88.76 572.9
L88.76 564.83
M121.03 597.1
L161.38 597.1
M121.03 572.9
L161.38 572.9
M129.1 572.9
L129.1 564.83
M129.1 597.1
L129.1 605.17
M153.31 572.9
L153.31 564.83
M153.31 597.1
L153.31 605.17
M161.38 597.1
L201.72 597.1
M169.45 564.83
L169.45 564.83 A8.07 8.07 0 0 1 161.38 572.9
L161.38 572.9
M201.72 572.9
L201.72 572.9 A8.07 8.07 0 0 1 193.66 564.83
L193.66 564.83
M209.79 605.17
L209.79 564.83
M234 605.17
L234 564.83
M201.72 572.9
L209.79 572.9
M201.72 597.1
L209.79 597.1
M242.07 572.9
L234 572.9
M242.07 597.1
L234 597.1
M274.34 605.17
L274.34 564.83
M250.14 564.83
L250.14 564.83 A8.07 8.07 0 0 1 242.07 572.9
L242.07 572.9
M242.07 597.1
L242.07 597.1 A8.07 8.07 0 0 1 250.14 605.17
L250.14 605.17
M314.69 564.83
L314.69 569.37
L314.69 569.37 A16.14 16.14 0 0 0 316.71 577.19
L316.71 577.19 A16.14 16.14 0 1 1 288.47 577.19
L288.47 577.19 A16.14 16.14 0 0 0 290.48 569.37
L290.48 564.83
M330.83 605.17
L330.83 564.83
M355.03 605.17
L355.03 564.83
M403.45 597.1
L403.45 597.1 A8.07 8.07 0 0 0 395.38 605.17
L395.38 605.17
M403.45 572.9
L403.45 572.9 A32.28 32.28 0 0 0 371.17 605.17
L371.17 605.17
M411.52 605.17
L411.52 564.83
M435.72 605.17
L435.72 564.83
M403.45 572.9
L411.52 572.9
M403.45 597.1
L411.52 597.1
M443.79 572.9
L435.72 572.9
M443.79 597.1
L435.72 597.1
M476.07 605.17
L476.07 564.83
M451.86 564.83
L451.86 564.83 A8.07 8.07 0 0 1 443.79 572.9
L443.79 572.9
M443.79 597.1
L443.79 597.1 A8.07 8.07 0 0 1 451.86 605.17
L451.86 605.17
M524.48 597.1
L524.48 597.1 A8.07 8.07 0 0 0 516.41 605.17
L516.41 605.17
M524.48 572.9
L524.48 572.9 A32.28 32.28 0 0 0 492.21 605.17
L492.21 605.17
M556.76 605.17
L556.76 564.83
M532.55 564.83
L532.55 564.83 A8.07 8.07 0 0 1 524.48 572.9
L524.48 572.9
M524.48 597.1
L524.48 597.1 A8.07 8.07 0 0 1 532.55 605.17
L532.55 605.17
M597.1 605.17
L597.1 600.63 A16.14 16.14 0 0 1 599.12 592.81
L599.12 592.81 A16.14 16.14 0 1 0 570.88 592.81
L570.88 592.81 A16.14 16.14 0 0 1 572.9 600.63
L572.9 605.17
M645.52 572.9
L645.52 572.9 A8.07 8.07 0 0 1 637.45 564.83
L637.45 564.83
M645.52 597.1
L637.45 597.1 A24.21 24.21 0 0 1 613.24 572.9
L613.24 564.83
M653.59 605.17
L653.59 564.83
M677.79 605.17
L677.79 564.83
M645.52 572.9
L653.59 572.9
M645.52 597.1
L653.59 597.1
M685.86 572.9
L677.79 572.9
M685.86 597.1
L677.79 597.1
M685.86 597.1
L726.21 597.1
M685.86 572.9
L726.21 572.9
M734.28 605.17
L734.28 564.83
M758.48 605.17
L758.48 564.83
M726.21 572.9
L734.28 572.9
M726.21 597.1
L734.28 597.1
M766.55 572.9
L758.48 572.9
M766.55 597.1
L758.48 597.1
M766.55 597.1
L766.55 597.1 A8.07 8.07 0 0 1 774.62 605.17
L774.62 605.17
M766.55 572.9
L774.62 572.9 A24.21 24.21 0 0 1 798.83 597.1
L798.83 605.17
M8.07 645.52
L8.07 605.17
M40.34 613.24
L40.34 613.24 A8.07 8.07 0 0 1 32.28 605.17
L32.28 605.17
M40.34 637.45
L40.34 637.45 A8.07 8.07 0 0 0 32.28 645.52
L32.28 645.52
M48.41 645.52
L48.41 605.17
M72.62 645.52
L72.62 605.17
M40.34 613.24
L48.41 613.24
M40.34 637.45
L48.41 637.45
M80.69 613.24
L72.62 613.24
M80.69 637.45
L72.62 637.45
M80.69 637.45
L85.24 637.45 A16.14 16.14 0 0 1 93.05 639.47
L93.05 639.47 A16.14 16.14 0 1 0 93.05 611.22
L93.05 611.22 A16.14 16.14 0 0 1 85.24 613.24
L80.69 613.24
M129.1 645.52
L129.1 605.17
M161.38 613.24
L161.38 613.24 A8.07 8.07 0 0 1 153.31 605.17
L153.31 605.17
M161.38 637.45
L161.38 637.45 A8.07 8.07 0 0 0 153.31 645.52
L153.31 645.52
M161.38 637.45
L165.93 637.45 A16.14 16.14 0 0 1 173.74 639.47
L173.74 639.47 A16.14 16.14 0 1 0 173.74 611.22
L173.74 611.22 A16.14 16.14 0 0 1 165.93 613.24
L161.38 613.24
M209.79 645.52
L209.79 605.17
M234 645.52
L234 605.17
M250.14 645.52
L250.14 605.17
M282.41 613.24
L282.41 613.24 A8.07 8.07 0 0 1 274.34 605.17
L274.34 605.17
M282.41 637.45
L282.41 637.45 A8.07 8.07 0 0 0 274.34 645.52
L274.34 645.52
M282.41 637.45
L282.41 637.45 A8.07 8.07 0 0 1 290.48 645.52
L290.48 645.52
M282.41 613.24
L290.48 613.24 A24.21 24.21 0 0 1 314.69 637.45
L314.69 645.52
M355.03 605.17
L355.03 609.72
L355.03 609.72 A16.14 16.14 0 0 0 357.05 617.53
L357.05 617.53 A16.14 16.14 0 1 1 328.81 617.53
L328.81 617.53 A16.14 16.14 0 0 0 330.83 609.72
L330.83 605.17
M395.38 605.17
L395.38 609.72
L395.38 609.72 A16.14 16.14 0 0 0 397.4 617.53
L397.4 617.53 A16.14 16.14 0 1 1 369.16 617.53
L369.16 617.53 A16.14 16.14 0 0 0 371.17 609.72
L371.17 605.17
M435.72 605.17
L435.72 609.72
L435.72 609.72 A16.14 16.14 0 0 0 437.74 617.53
L437.74 617.53 A16.14 16.14 0 1 1 409.5 617.53
L409.5 617.53 A16.14 16.14 0 0 0 411.52 609.72
L411.52 605.17
M451.86 645.52
L451.86 605.17
M484.14 613.24
L484.14 613.24 A8.07 8.07 0 0 1 476.07 605.17
L476.07 605.17
M484.14 637.45
L484.14 637.45 A8.07 8.07 0 0 0 476.07 645.52
L476.07 645.52
M492.21 605.17
L492.21 605.17 A8.07 8.07 0 0 1 484.14 613.24
L484.14 613.24
M484.14 637.45
L484.14 637.45 A8.07 8.07 0 0 1 492.21 645.52
L492.21 645.52
M524.48 613.24
L524.48 613.24 A8.07 8.07 0 0 1 516.41 605.17
L516.41 605.17
M524.48 637.45
L524.48 637.45 A8.07 8.07 0 0 0 516.41 645.52
L516.41 645.52
M532.55 605.17
L532.55 605.17 A8.07 8.07 0 0 1 524.48 613.24
L524.48 613.24
M524.48 637.45
L524.48 637.45 A8.07 8.07 0 0 1 532.55 645.52
L532.55 645.52
M564.83 613.24
L564.83 613.24 A8.07 8.07 0 0 1 556.76 605.17
L556.76 605.17
M564.83 637.45
L564.83 637.45 A8.07 8.07 0 0 0 556.76 645.52
L556.76 645.52
M564.83 637.45
L605.17 637.45
M564.83 613.24
L605.17 613.24
M572.9 613.24
L572.9 605.17
M572.9 637.45
L572.9 645.52
M597.1 613.24
L597.1 605.17
M597.1 637.45
L597.1 645.52
M605.17 637.45
L609.72 637.45 A16.14 16.14 0 0 1 617.53 639.47
L617.53 639.47 A16.14 16.14 0 1 0 617.53 611.22
L617.53 611.22 A16.14 16.14 0 0 1 609.72 613.24
L605.17 613.24
M653.59 645.52
L653.59 605.17
M685.86 613.24
L685.86 613.24 A8.07 8.07 0 0 1 677.79 605.17
L677.79 605.17
M685.86 637.45
L685.86 637.45 A8.07 8.07 0 0 0 677.79 645.52
L677.79 645.52
M685.86 637.45
L690.41 637.45 A16.14 16.14 0 0 1 698.22 639.47
L698.22 639.47 A16.14 16.14 0 1 0 698.22 611.22
L698.22 611.22 A16.14 16.14 0 0 1 690.41 613.24
L685.86 613.24
M766.55 613.24
L766.55 613.24 A8.07 8.07 0 0 1 758.48 605.17
L758.48 605.17
M766.55 637.45
L758.48 637.45 A24.21 24.21 0 0 1 734.28 613.24
L734.28 605.17
M774.62 605.17
L774.62 605.17 A8.07 8.07 0 0 1 766.55 613.24
L766.55 613.24
M798.83 605.17
L798.83 613.24 A24.21 24.21 0 0 1 774.62 637.45
L766.55 637.45
M8.07 685.86
L8.07 645.52
M32.28 685.86
L32.28 645.52
M48.41 685.86
L48.41 645.52
M80.69 653.59
L80.69 653.59 A8.07 8.07 0 0 1 72.62 645.52
L72.62 645.52
M80.69 677.79
L80.69 677.79 A8.07 8.07 0 0 0 72.62 685.86
L72.62 685.86
M80.69 653.59
L121.03 653.59
M80.69 677.79
L80.69 677.79 A8.07 8.07 0 0 1 88.76 685.86
L88.76 685.86
M121.03 677.79
L121.03 677.79 A8.07 8.07 0 0 0 112.97 685.86
L112.97 685.86
M129.1 645.52
L129.1 645.52 A8.07 8.07 0 0 1 121.03 653.59
L121.03 653.59
M153.31 645.52
L153.31 653.59 A24.21 24.21 0 0 1 129.1 677.79
L121.03 677.79
M193.66 685.86
L193.66 681.32 A16.14 16.14 0 0 1 195.67 673.5
L195.67 673.5 A16.14 16.14 0 1 0 167.43 673.5
L167.43 673.5 A16.14 16.14 0 0 1 169.45 681.32
L169.45 685.86
M234 645.52
L234 650.06
L234 650.06 A16.14 16.14 0 0 0 236.02 657.88
L236.02 657.88 A16.14 16.14 0 1 1 207.78 657.88
L207.78 657.88 A16.14 16.14 0 0 0 209.79 650.06
L209.79 645.52
M250.14 685.86
L250.14 645.52
M274.34 685.86
L274.34 645.52
M314.69 645.52
L314.69 650.06
L314.69 650.06 A16.14 16.14 0 0 0 316.71 657.88
L316.71 657.88 A16.14 16.14 0 1 1 288.47 657.88
L288.47 657.88 A16.14 16.14 0 0 0 290.48 650.06
L290.48 645.52
M355.03 685.86
L355.03 681.32 A16.14 16.14 0 0 1 357.05 673.5
L357.05 673.5 A16.14 16.14 0 1 0 328.81 673.5
L328.81 673.5 A16.14 16.14 0 0 1 330.83 681.32
L330.83 685.86
M395.38 685.86
L395.38 681.32 A16.14 16.14 0 0 1 397.4 673.5
L397.4 673.5 A16.14 16.14 0 1 0 369.16 673.5
L369.16 673.5 A16.14 16.14 0 0 1 371.17 681.32
L371.17 685.86
M443.79 677.79
L439.25 677.79 A16.14 16.14 0 0 0 431.43 679.81
L431.43 679.81 A16.14 16.14 0 1 1 431.43 651.57
L431.43 651.57 A16.14 16.14 0 0 0 439.25 653.59
L443.79 653.59
M443.79 677.79
L484.14 677.79
M443.79 653.59
L484.14 653.59
M451.86 653.59
L451.86 645.52
M451.86 677.79
L451.86 685.86
M476.07 653.59
L476.07 645.52
M476.07 677.79
L476.07 685.86
M484.14 677.79
L524.48 677.79
M492.21 645.52
L492.21 645.52 A8.07 8.07 0 0 1 484.14 653.59
L484.14 653.59
M524.48 653.59
L524.48 653.59 A8.07 8.07 0 0 1 516.41 645.52
L516.41 645.52
M532.55 685.86
L532.55 645.52
M556.76 685.86
L556.76 645.52
M524.48 653.59
L532.55 653.59
M524.48 677.79
L532.55 677.79
M564.83 653.59
L556.76 653.59
M564.83 677.79
L556.76 677.79
M572.9 645.52
L572.9 645.52 A8.07 8.07 0 0 1 564.83 653.59
L564.83 653.59
M564.83 677.79
L564.83 677.79 A8.07 8.07 0 0 1 572.9 685.86
L572.9 685.86
M605.17 653.59
L605.17 653.59 A8.07 8.07 0 0 1 597.1 645.52
L597.1 645.52
M605.17 677.79
L605.17 677.79 A8.07 8.07 0 0 0 597.1 685.86
L597.1 685.86
M605.17 677.79
L609.72 677.79 A16.14 16.14 0 0 1 617.53 679.81
L617.53 679.81 A16.14 16.14 0 1 0 617.53 651.57
L617.53 651.57 A16.14 16.14 0 0 1 609.72 653.59
L605.17 653.59
M653.59 685.86
L653.59 645.52
M685.86 653.59
L685.86 653.59 A8.07 8.07 0 0 1 677.79 645.52
L677.79 645.52
M685.86 677.79
L685.86 677.79 A8.07 8.07 0 0 0 677.79 685.86
L677.79 685.86
M685.86 677.79
L690.41 677.79 A16.14 16.14 0 0 1 698.22 679.81
L698.22 679.81 A16.14 16.14 0 1 0 698.22 651.57
L698.22 651.57 A16.14 16.14 0 0 1 690.41 653.59
L685.86 653.59
M766.55 677.79
L766.55 677.79 A8.07 8.07 0 0 0 758.48 685.86
L758.48 685.86
M766.55 653.59
L766.55 653.59 A32.28 32.28 0 0 0 734.28 685.86
L734.28 685.86
M766.55 677.79
L771.1 677.79 A16.14 16.14 0 0 1 778.91 679.81
L778.91 679.81 A16.14 16.14 0 1 0 778.91 651.57
L778.91 651.57 A16.14 16.14 0 0 1 771.1 653.59
L766.55 653.59
M40.34 693.93
L40.34 693.93 A8.07 8.07 0 0 1 32.28 685.86
L32.28 685.86
M40.34 718.14
L32.28 718.14 A24.21 24.21 0 0 1 8.07 693.93
L8.07 685.86
M48.41 726.21
L48.41 685.86
M72.62 726.21
L72.62 685.86
M40.34 693.93
L48.41 693.93
M40.34 718.14
L48.41 718.14
M80.69 693.93
L72.62 693.93
M80.69 718.14
L72.62 718.14
M112.97 726.21
L112.97 685.86
M88.76 685.86
L88.76 685.86 A8.07 8.07 0 0 1 80.69 693.93
L80.69 693.93
M80.69 718.14
L80.69 718.14 A8.07 8.07 0 0 1 88.76 726.21
L88.76 726.21
M161.38 718.14
L156.83 718.14 A16.14 16.14 0 0 0 149.02 720.16
L149.02 720.16 A16.14 16.14 0 1 1 149.02 691.91
L149.02 691.91 A16.14 16.14 0 0 0 156.83 693.93
L161.38 693.93
M169.45 726.21
L169.45 685.86
M193.66 726.21
L193.66 685.86
M161.38 693.93
L169.45 693.93
M161.38 718.14
L169.45 718.14
M201.72 693.93
L193.66 693.93
M201.72 718.14
L193.66 718.14
M201.72 693.93
L242.07 693.93
M201.72 718.14
L201.72 718.14 A8.07 8.07 0 0 1 209.79 726.21
L209.79 726.21
M242.07 718.14
L242.07 718.14 A8.07 8.07 0 0 0 234 726.21
L234 726.21
M242.07 718.14
L282.41 718.14
M242.07 693.93
L282.41 693.93
M250.14 693.93
L250.14 685.86
M250.14 718.14
L250.14 726.21
M274.34 693.93
L274.34 685.86
M274.34 718.14
L274.34 726.21
M282.41 693.93
L322.76 693.93
M282.41 718.14
L282.41 718.14 A8.07 8.07 0 0 1 290.48 726.21
L290.48 726.21
M322.76 718.14
L322.76 718.14 A8.07 8.07 0 0 0 314.69 726.21
L314.69 726.21
M330.83 685.86
L330.83 685.86 A8.07 8.07 0 0 1 322.76 693.93
L322.76 693.93
M322.76 718.14
L322.76 718.14 A8.07 8.07 0 0 1 330.83 726.21
L330.83 726.21
M363.1 693.93
L363.1 693.93 A8.07 8.07 0 0 1 355.03 685.86
L355.03 685.86
M363.1 718.14
L363.1 718.14 A8.07 8.07 0 0 0 355.03 726.21
L355.03 726.21
M363.1 718.14
L403.45 718.14
M363.1 693.93
L403.45 693.93
M371.17 693.93
L371.17 685.86
M371.17 718.14
L371.17 726.21
M395.38 693.93
L395.38 685.86
M395.38 718.14
L395.38 726.21
M403.45 718.14
L408 718.14 A16.14 16.14 0 0 1 415.81 720.16
L415.81 720.16 A16.14 16.14 0 1 0 415.81 691.91
L415.81 691.91 A16.14 16.14 0 0 1 408 693.93
L403.45 693.93
M451.86 726.21
L451.86 685.86
M476.07 726.21
L476.07 685.86
M516.41 726.21
L516.41 721.66 A16.14 16.14 0 0 1 518.43 713.85
L518.43 713.85 A16.14 16.14 0 1 0 490.19 713.85
L490.19 713.85 A16.14 16.14 0 0 1 492.21 721.66
L492.21 726.21
M564.83 693.93
L564.83 693.93 A8.07 8.07 0 0 1 556.76 685.86
L556.76 685.86
M564.83 718.14
L556.76 718.14 A24.21 24.21 0 0 1 532.55 693.93
L532.55 685.86
M564.83 718.14
L605.17 718.14
M564.83 693.93
L605.17 693.93
M572.9 693.93
L572.9 685.86
M572.9 718.14
L572.9 726.21
M597.1 693.93
L597.1 685.86
M597.1 718.14
L597.1 726.21
M605.17 718.14
L645.52 718.14
M605.17 693.93
L645.52 693.93
M645.52 718.14
L685.86 718.14
M645.52 693.93
L685.86 693.93
M653.59 693.93
L653.59 685.86
M653.59 718.14
L653.59 726.21
M677.79 693.93
L677.79 685.86
M677.79 718.14
L677.79 726.21
M685.86 693.93
L726.21 693.93
M685.86 718.14
L685.86 718.14 A8.07 8.07 0 0 1 693.93 726.21
L693.93 726.21
M726.21 718.14
L726.21 718.14 A8.07 8.07 0 0 0 718.14 726.21
L718.14 726.21
M726.21 718.14
L766.55 718.14
M726.21 693.93
L766.55 693.93
M734.28 693.93
L734.28 685.86
M734.28 718.14
L734.28 726.21
M758.48 693.93
L758.48 685.86
M758.48 718.14
L758.48 726.21
M766.55 718.14
L766.55 718.14 A8.07 8.07 0 0 1 774.62 726.21
L774.62 726.21
M766.55 693.93
L774.62 693.93 A24.21 24.21 0 0 1 798.83 718.14
L798.83 726.21
M40.34 758.48
L40.34 758.48 A8.07 8.07 0 0 0 32.28 766.55
L32.28 766.55
M40.34 734.28
L40.34 734.28 A32.28 32.28 0 0 0 8.07 766.55
L8.07 766.55
M48.41 726.21
L48.41 726.21 A8.07 8.07 0 0 1 40.34 734.28
L40.34 734.28
M40.34 758.48
L40.34 758.48 A8.07 8.07 0 0 1 48.41 766.55
L48.41 766.55
M80.69 734.28
L80.69 734.28 A8.07 8.07 0 0 1 72.62 726.21
L72.62 726.21
M80.69 758.48
L80.69 758.48 A8.07 8.07 0 0 0 72.62 766.55
L72.62 766.55
M88.76 766.55
L88.76 726.21
M112.97 766.55
L112.97 726.21
M80.69 734.28
L88.76 734.28
M80.69 758.48
L88.76 758.48
M121.03 734.28
L112.97 734.28
M121.03 758.48
L112.97 758.48
M121.03 758.48
L125.58 758.48 A16.14 16.14 0 0 1 133.39 760.5
L133.39 760.5 A16.14 16.14 0 1 0 133.39 732.26
L133.39 732.26 A16.14 16.14 0 0 1 125.58 734.28
L121.03 734.28
M169.45 766.55
L169.45 726.21
M201.72 734.28
L201.72 734.28 A8.07 8.07 0 0 1 193.66 726.21
L193.66 726.21
M201.72 758.48
L201.72 758.48 A8.07 8.07 0 0 0 193.66 766.55
L193.66 766.55
M201.72 758.48
L242.07 758.48
M201.72 734.28
L242.07 734.28
M209.79 734.28
L209.79 726.21
M209.79 758.48
L209.79 766.55
M234 734.28
L234 726.21
M234 758.48
L234 766.55
M242.07 758.48
L282.41 758.48
M250.14 726.21
L250.14 726.21 A8.07 8.07 0 0 1 242.07 734.28
L242.07 734.28
M282.41 734.28
L282.41 734.28 A8.07 8.07 0 0 1 274.34 726.21
L274.34 726.21
M290.48 766.55
L290.48 726.21
M314.69 766.55
L314.69 726.21
M282.41 734.28
L290.48 734.28
M282.41 758.48
L290.48 758.48
M322.76 734.28
L314.69 734.28
M322.76 758.48
L314.69 758.48
M355.03 766.55
L355.03 726.21
M330.83 726.21
L330.83 726.21 A8.07 8.07 0 0 1 322.76 734.28
L322.76 734.28
M322.76 758.48
L322.76 758.48 A8.07 8.07 0 0 1 330.83 766.55
L330.83 766.55
M403.45 734.28
L403.45 734.28 A8.07 8.07 0 0 1 395.38 726.21
L395.38 726.21
M403.45 758.48
L395.38 758.48 A24.21 24.21 0 0 1 371.17 734.28
L371.17 726.21
M403.45 758.48
L443.79 758.48
M403.45 734.28
L443.79 734.28
M451.86 766.55
L451.86 726.21
M476.07 766.55
L476.07 726.21
M443.79 734.28
L451.86 734.28
M443.79 758.48
L451.86 758.48
M484.14 734.28
L476.07 734.28
M484.14 758.48
L476.07 758.48
M516.41 766.55
L516.41 726.21
M492.21 726.21
L492.21 726.21 A8.07 8.07 0 0 1 484.14 734.28
L484.14 734.28
M484.14 758.48
L484.14 758.48 A8.07 8.07 0 0 1 492.21 766.55
L492.21 766.55
M564.83 758.48
L560.28 758.48 A16.14 16.14 0 0 0 552.47 760.5
L552.47 760.5 A16.14 16.14 0 1 1 552.47 732.26
L552.47 732.26 A16.14 16.14 0 0 0 560.28 734.28
L564.83 734.28
M597.1 766.55
L597.1 726.21
M572.9 726.21
L572.9 726.21 A8.07 8.07 0 0 1 564.83 734.28
L564.83 734.28
M564.83 758.48
L564.83 758.48 A8.07 8.07 0 0 1 572.9 766.55
L572.9 766.55
M637.45 766.55
L637.45 762 A16.14 16.14 0 0 1 639.47 754.19
L639.47 754.19 A16.14 16.14 0 1 0 611.22 754.19
L611.22 754.19 A16.14 16.14 0 0 1 613.24 762
L613.24 766.55
M653.59 766.55
L653.59 726.21
M685.86 734.28
L685.86 734.28 A8.07 8.07 0 0 1 677.79 726.21
L677.79 726.21
M685.86 758.48
L685.86 758.48 A8.07 8.07 0 0 0 677.79 766.55
L677.79 766.55
M685.86 758.48
L726.21 758.48
M685.86 734.28
L726.21 734.28
M693.93 734.28
L693.93 726.21
M693.93 758.48
L693.93 766.55
M718.14 734.28
L718.14 726.21
M718.14 758.48
L718.14 766.55
M734.28 726.21
L734.28 726.21 A8.07 8.07 0 0 1 726.21 734.28
L726.21 734.28
M758.48 726.21
L758.48 734.28 A24.21 24.21 0 0 1 734.28 758.48
L726.21 758.48
M798.83 726.21
L798.83 730.75
L798.83 730.75 A16.14 16.14 0 0 0 800.84 738.57
L800.84 738.57 A16.14 16.14 0 1 1 772.6 738.57
L772.6 738.57 A16.14 16.14 0 0 0 774.62 730.75
L774.62 726.21
M72.62 766.55
L72.62 771.1
L72.62 771.1 A16.14 16.14 0 0 0 74.64 778.91
L74.64 778.91 A16.14 16.14 0 1 1 46.4 778.91
L46.4 778.91 A16.14 16.14 0 0 0 48.41 771.1
L48.41 766.55
M121.03 774.62
L121.03 774.62 A8.07 8.07 0 0 1 112.97 766.55
L112.97 766.55
M121.03 798.83
L112.97 798.83 A24.21 24.21 0 0 1 88.76 774.62
L88.76 766.55
M121.03 798.83
L125.58 798.83 A16.14 16.14 0 0 1 133.39 800.84
L133.39 800.84 A16.14 16.14 0 1 0 133.39 772.6
L133.39 772.6 A16.14 16.14 0 0 1 125.58 774.62
L121.03 774.62
M193.66 766.55
L193.66 771.1
L193.66 771.1 A16.14 16.14 0 0 0 195.67 778.91
L195.67 778.91 A16.14 16.14 0 1 1 167.43 778.91
L167.43 778.91 A16.14 16.14 0 0 0 169.45 771.1
L169.45 766.55
M242.07 774.62
L242.07 774.62 A8.07 8.07 0 0 1 234 766.55
L234 766.55
M242.07 798.83
L234 798.83 A24.21 24.21 0 0 1 209.79 774.62
L209.79 766.55
M242.07 798.83
L246.62 798.83 A16.14 16.14 0 0 1 254.43 800.84
L254.43 800.84 A16.14 16.14 0 1 0 254.43 772.6
L254.43 772.6 A16.14 16.14 0 0 1 246.62 774.62
L242.07 774.62
M314.69 766.55
L314.69 771.1
L314.69 771.1 A16.14 16.14 0 0 0 316.71 778.91
L316.71 778.91 A16.14 16.14 0 1 1 288.47 778.91
L288.47 778.91 A16.14 16.14 0 0 0 290.48 771.1
L290.48 766.55
M355.03 766.55
L355.03 771.1
L355.03 771.1 A16.14 16.14 0 0 0 357.05 778.91
L357.05 778.91 A16.14 16.14 0 1 1 328.81 778.91
L328.81 778.91 A16.14 16.14 0 0 0 330.83 771.1
L330.83 766.55
M403.45 798.83
L398.9 798.83 A16.14 16.14 0 0 0 391.09 800.84
L391.09 800.84 A16.14 16.14 0 1 1 391.09 772.6
L391.09 772.6 A16.14 16.14 0 0 0 398.9 774.62
L403.45 774.62
M403.45 798.83
L443.79 798.83
M403.45 774.62
L443.79 774.62
M443.79 798.83
L484.14 798.83
M451.86 766.55
L451.86 766.55 A8.07 8.07 0 0 1 443.79 774.62
L443.79 774.62
M484.14 774.62
L484.14 774.62 A8.07 8.07 0 0 1 476.07 766.55
L476.07 766.55
M484.14 798.83
L524.48 798.83
M492.21 766.55
L492.21 766.55 A8.07 8.07 0 0 1 484.14 774.62
L484.14 774.62
M524.48 774.62
L524.48 774.62 A8.07 8.07 0 0 1 516.41 766.55
L516.41 766.55
M524.48 798.83
L529.03 798.83 A16.14 16.14 0 0 1 536.84 800.84
L536.84 800.84 A16.14 16.14 0 1 0 536.84 772.6
L536.84 772.6 A16.14 16.14 0 0 1 529.03 774.62
L524.48 774.62
M597.1 766.55
L597.1 771.1
L597.1 771.1 A16.14 16.14 0 0 0 599.12 778.91
L599.12 778.91 A16.14 16.14 0 1 1 570.88 778.91
L570.88 778.91 A16.14 16.14 0 0 0 572.9 771.1
L572.9 766.55
M645.52 774.62
L645.52 774.62 A8.07 8.07 0 0 1 637.45 766.55
L637.45 766.55
M645.52 798.83
L637.45 798.83 A24.21 24.21 0 0 1 613.24 774.62
L613.24 766.55
M653.59 766.55
L653.59 766.55 A8.07 8.07 0 0 1 645.52 774.62
L645.52 774.62
M677.79 766.55
L677.79 774.62 A24.21 24.21 0 0 1 653.59 798.83
L645.52 798.83
M726.21 774.62
L726.21 774.62 A8.07 8.07 0 0 1 718.14 766.55
L718.14 766.55
M726.21 798.83
L718.14 798.83 A24.21 24.21 0 0 1 693.93 774.62
L693.93 766.55
M726.21 798.83
L766.55 798.83
M726.21 774.62
L766.55 774.62
M766.55 798.83
L771.1 798.83 A16.14 16.14 0 0 1 778.91 800.84
L778.91 800.84 A16.14 16.14 0 1 0 778.91 772.6
L778.91 772.6 A16.14 16.14 0 0 1 771.1 774.62
L766.55 774.62
"></path>
            <circle cx="786.72" cy="20.17" r="13.45" fill-opacity="1.0" stroke-opacity="0" fill="#E51919" /><circle cx="20.17" cy="786.72" r="13.45" fill-opacity="1.0" stroke-opacity="0" fill="#E51919" />
         </svg>