<svg id="maze" xmlns="http://www.w3.org/2000/svg" viewBox="0 0 597.6 597.6"  width="597.6px" height="597.6px" stroke-width="2" fill-opacity="0.0" stroke="black"> <path stroke-opacity="1.0" stroke-width="2" stroke="#000000" d="M 107.57 59.76 L 107.57 11.95 L 71.71 11.95 L 71.71 59.76 M 167.33 59.76 L 167.33 11.95 L 131.47 11.95 L 131.47 59.76 M 227.09 59.76 L 227.09 11.95 L 191.23 11.95 L 191.23 59.76 M 298.8 47.81 L 250.99 47.81 L 250.99 11.95 L 298.8 11.95 M 298.8 11.95 L 358.56 11.95 M 298.8 47.81 L 358.56 47.81 M 358.56 11.95 L 418.32 11.95 M 358.56 47.81 L 370.51 47.81 L 370.51 59.76 M 418.32 47.81 L 406.37 47.81 L 406.37 59.76 M 418.32 11.95 L 478.08 11.95 M 418.32 47.81 L 478.08 47.81 M 478.08 11.95 L 537.84 11.95 M 478.08 47.81 L 537.84 47.81 M 537.84 47.81 L 585.65 47.81 L 585.65 11.95 L 537.84 11.95 M 11.95 59.76 L 11.95 119.52 M 59.76 71.71 L 47.81 71.71 L 47.81 59.76 M 59.76 107.57 L 47.81 107.57 L 47.81 119.52 M 59.76 71.71 L 119.52 71.71 M 59.76 107.57 L 119.52 107.57 M 71.71 59.76 L 71.71 71.71 M 107.57 59.76 L 107.57 71.71 M 71.71 107.57 L 71.71 119.52 M 107.57 107.57 L 107.57 119.52 M 131.47 59.76 L 131.47 71.71 L 119.52 71.71 M 119.52 107.57 L 131.47 107.57 L 131.47 119.52 M 179.28 71.71 L 167.33 71.71 L 167.33 59.76 M 179.28 107.57 L 167.33 107.57 L 167.33 119.52 M 179.28 71.71 L 239.04 71.71 M 179.28 107.57 L 239.04 107.57 M 191.23 59.76 L 191.23 71.71 M 227.09 59.76 L 227.09 71.71 M 191.23 107.57 L 191.23 119.52 M 227.09 107.57 L 227.09 119.52 M 239.04 71.71 L 298.8 71.71 M 239.04 107.57 L 250.99 107.57 L 250.99 119.52 M 298.8 107.57 L 286.85 107.57 L 286.85 119.52 M 298.8 71.71 L 358.56 71.71 M 298.8 107.57 L 358.56 107.57 M 358.56 71.71 L 418.32 71.71 M 358.56 107.57 L 418.32 107.57 M 370.51 59.76 L 370.51 71.71 M 406.37 59.76 L 406.37 71.71 M 370.51 107.57 L 370.51 119.52 M 406.37 107.57 L 406.37 119.52 M 418.32 107.57 L 430.27 107.57 L 430.27 119.52 M 418.32 71.71 L 466.13 71.71 L 466.13 119.52 M 525.89 119.52 L 525.89 71.71 L 490.03 71.71 L 490.03 119.52 M 585.65 119.52 L 585.65 71.71 L 549.79 71.71 L 549.79 119.52 M 11.95 119.52 L 11.95 179.28 M 47.81 119.52 L 47.81 179.28 M 71.71 119.52 L 71.71 179.28 M 107.57 119.52 L 107.57 179.28 M 167.33 119.52 L 167.33 126.26 L 167.33 167.33 L 131.47 167.33 L 131.47 119.52 M 239.04 131.47 L 227.09 131.47 L 227.09 119.52 M 239.04 167.33 L 191.23 167.33 L 191.23 119.52 M 239.04 131.47 L 298.8 131.47 M 239.04 167.33 L 298.8 167.33 M 250.99 119.52 L 250.99 131.47 M 286.85 119.52 L 286.85 131.47 M 250.99 167.33 L 250.99 179.28 M 286.85 167.33 L 286.85 179.28 M 298.8 167.33 L 310.75 167.33 L 310.75 179.28 M 298.8 131.47 L 346.61 131.47 L 346.61 179.28 M 418.32 131.47 L 406.37 131.47 L 406.37 119.52 M 418.32 167.33 L 370.51 167.33 L 370.51 119.52 M 418.32 131.47 L 478.08 131.47 M 418.32 167.33 L 478.08 167.33 M 430.27 119.52 L 430.27 131.47 M 466.13 119.52 L 466.13 131.47 M 430.27 167.33 L 430.27 179.28 M 466.13 167.33 L 466.13 179.28 M 525.89 119.52 L 525.89 179.28 M 490.03 119.52 L 490.03 131.47 L 478.08 131.47 M 478.08 167.33 L 490.03 167.33 L 490.03 179.28 M 549.79 119.52 L 549.79 179.28 M 585.65 119.52 L 585.65 179.28 M 59.76 191.23 L 47.81 191.23 L 47.81 179.28 M 59.76 227.09 L 11.95 227.09 L 11.95 179.28 M 59.76 191.23 L 119.52 191.23 M 59.76 227.09 L 119.52 227.09 M 71.71 179.28 L 71.71 191.23 M 107.57 179.28 L 107.57 191.23 M 71.71 227.09 L 71.71 239.04 M 107.57 227.09 L 107.57 239.04 M 119.52 191.23 L 179.28 191.23 M 119.52 227.09 L 179.28 227.09 M 179.28 227.09 L 227.09 227.09 L 227.09 191.23 L 179.28 191.23 M 298.8 191.23 L 286.85 191.23 L 286.85 179.28 M 298.8 227.09 L 250.99 227.09 L 250.99 179.28 M 310.75 179.28 L 310.75 239.04 M 346.61 179.28 L 346.61 239.04 M 298.8 191.23 L 310.75 191.23 M 298.8 227.09 L 310.75 227.09 M 358.56 191.23 L 346.61 191.23 M 358.56 227.09 L 346.61 227.09 M 358.56 227.09 L 370.51 227.09 L 370.51 239.04 M 358.56 191.23 L 406.37 191.23 L 406.37 239.04 M 478.08 191.23 L 466.13 191.23 L 466.13 179.28 M 478.08 227.09 L 430.27 227.09 L 430.27 179.28 M 478.08 191.23 L 537.84 191.23 M 478.08 227.09 L 537.84 227.09 M 490.03 179.28 L 490.03 191.23 M 525.89 179.28 L 525.89 191.23 M 490.03 227.09 L 490.03 239.04 M 525.89 227.09 L 525.89 239.04 M 549.79 179.28 L 549.79 191.23 L 537.84 191.23 M 585.65 179.28 L 585.65 227.09 L 537.84 227.09 M 59.76 286.85 L 11.95 286.85 L 11.95 250.99 L 59.76 250.99 M 107.57 239.04 L 107.57 298.8 M 71.71 239.04 L 71.71 250.99 L 59.76 250.99 M 59.76 286.85 L 71.71 286.85 L 71.71 298.8 M 167.33 298.8 L 167.33 250.99 L 131.47 250.99 L 131.47 298.8 M 227.09 298.8 L 227.09 250.99 L 191.23 250.99 L 191.23 298.8 M 286.85 298.8 L 286.85 250.99 L 250.99 250.99 L 250.99 298.8 M 310.75 239.04 L 310.75 298.8 M 358.56 250.99 L 346.61 250.99 L 346.61 239.04 M 358.56 286.85 L 346.61 286.85 L 346.61 298.8 M 370.51 239.04 L 370.51 298.8 M 406.37 239.04 L 406.37 298.8 M 358.56 250.99 L 370.51 250.99 M 358.56 286.85 L 370.51 286.85 M 418.32 250.99 L 406.37 250.99 M 418.32 286.85 L 406.37 286.85 M 418.32 250.99 L 478.08 250.99 M 418.32 286.85 L 430.27 286.85 L 430.27 298.8 M 478.08 286.85 L 466.13 286.85 L 466.13 298.8 M 490.03 239.04 L 490.03 250.99 L 478.08 250.99 M 525.89 239.04 L 525.89 286.85 L 478.08 286.85 M 585.65 298.8 L 585.65 250.99 L 549.79 250.99 L 549.79 298.8 M 59.76 346.61 L 11.95 346.61 L 11.95 310.75 L 59.76 310.75 M 59.76 310.75 L 119.52 310.75 M 59.76 346.61 L 119.52 346.61 M 71.71 298.8 L 71.71 310.75 M 107.57 298.8 L 107.57 310.75 M 71.71 346.61 L 71.71 358.56 M 107.57 346.61 L 107.57 358.56 M 131.47 298.8 L 131.47 310.75 L 119.52 310.75 M 119.52 346.61 L 131.47 346.61 L 131.47 358.56 M 179.28 310.75 L 167.33 310.75 L 167.33 298.8 M 179.28 346.61 L 167.33 346.61 L 167.33 358.56 M 191.23 298.8 L 191.23 358.56 M 227.09 298.8 L 227.09 358.56 M 179.28 310.75 L 191.23 310.75 M 179.28 346.61 L 191.23 346.61 M 239.04 310.75 L 227.09 310.75 M 239.04 346.61 L 227.09 346.61 M 250.99 298.8 L 250.99 310.75 L 239.04 310.75 M 239.04 346.61 L 250.99 346.61 L 250.99 358.56 M 298.8 310.75 L 286.85 310.75 L 286.85 298.8 M 298.8 346.61 L 286.85 346.61 L 286.85 358.56 M 310.75 298.8 L 310.75 358.56 M 346.61 298.8 L 346.61 358.56 M 298.8 310.75 L 310.75 310.75 M 298.8 346.61 L 310.75 346.61 M 358.56 310.75 L 346.61 310.75 M 358.56 346.61 L 346.61 346.61 M 358.56 346.61 L 418.32 346.61 M 370.51 298.8 L 370.51 310.75 L 358.56 310.75 M 418.32 310.75 L 406.37 310.75 L 406.37 298.8 M 430.27 298.8 L 430.27 358.56 M 466.13 298.8 L 466.13 358.56 M 418.32 310.75 L 430.27 310.75 M 418.32 346.61 L 430.27 346.61 M 478.08 310.75 L 466.13 310.75 M 478.08 346.61 L 466.13 346.61 M 478.08 310.75 L 537.84 310.75 M 478.08 346.61 L 490.03 346.61 L 490.03 358.56 M 537.84 346.61 L 525.89 346.61 L 525.89 358.56 M 549.79 298.8 L 549.79 310.75 L 537.84 310.75 M 585.65 298.8 L 585.65 346.61 L 537.84 346.61 M 47.81 418.32 L 47.81 370.51 L 11.95 370.51 L 11.95 418.32 M 71.71 358.56 L 71.71 418.32 M 119.52 370.51 L 107.57 370.51 L 107.57 358.56 M 119.52 406.37 L 107.57 406.37 L 107.57 418.32 M 119.52 370.51 L 179.28 370.51 M 119.52 406.37 L 179.28 406.37 M 131.47 358.56 L 131.47 370.51 M 167.33 358.56 L 167.33 370.51 M 131.47 406.37 L 131.47 418.32 M 167.33 406.37 L 167.33 418.32 M 179.28 406.37 L 239.04 406.37 M 191.23 358.56 L 191.23 370.51 L 179.28 370.51 M 239.04 370.51 L 227.09 370.51 L 227.09 358.56 M 250.99 358.56 L 250.99 418.32 M 286.85 358.56 L 286.85 418.32 M 239.04 370.51 L 250.99 370.51 M 239.04 406.37 L 250.99 406.37 M 298.8 370.51 L 286.85 370.51 M 298.8 406.37 L 286.85 406.37 M 346.61 358.56 L 346.61 418.32 M 310.75 358.56 L 310.75 370.51 L 298.8 370.51 M 298.8 406.37 L 310.75 406.37 L 310.75 418.32 M 406.37 418.32 L 406.37 370.51 L 370.51 370.51 L 370.51 418.32 M 430.27 358.56 L 430.27 418.32 M 466.13 358.56 L 466.13 418.32 M 525.89 358.56 L 525.89 365.3 L 525.89 406.37 L 490.03 406.37 L 490.03 358.56 M 585.65 418.32 L 585.65 370.51 L 549.79 370.51 L 549.79 418.32 M 11.95 418.32 L 11.95 478.08 M 59.76 430.27 L 47.81 430.27 L 47.81 418.32 M 59.76 466.13 L 47.81 466.13 L 47.81 478.08 M 59.76 430.27 L 119.52 430.27 M 59.76 466.13 L 119.52 466.13 M 71.71 418.32 L 71.71 430.27 M 107.57 418.32 L 107.57 430.27 M 71.71 466.13 L 71.71 478.08 M 107.57 466.13 L 107.57 478.08 M 131.47 418.32 L 131.47 430.27 L 119.52 430.27 M 119.52 466.13 L 131.47 466.13 L 131.47 478.08 M 179.28 430.27 L 167.33 430.27 L 167.33 418.32 M 179.28 466.13 L 167.33 466.13 L 167.33 478.08 M 179.28 466.13 L 191.23 466.13 L 191.23 478.08 M 179.28 430.27 L 227.09 430.27 L 227.09 478.08 M 298.8 430.27 L 286.85 430.27 L 286.85 418.32 M 298.8 466.13 L 250.99 466.13 L 250.99 418.32 M 298.8 430.27 L 358.56 430.27 M 298.8 466.13 L 358.56 466.13 M 310.75 418.32 L 310.75 430.27 M 346.61 418.32 L 346.61 430.27 M 310.75 466.13 L 310.75 478.08 M 346.61 466.13 L 346.61 478.08 M 358.56 466.13 L 418.32 466.13 M 370.51 418.32 L 370.51 430.27 L 358.56 430.27 M 418.32 430.27 L 406.37 430.27 L 406.37 418.32 M 430.27 418.32 L 430.27 478.08 M 466.13 418.32 L 466.13 478.08 M 418.32 430.27 L 430.27 430.27 M 418.32 466.13 L 430.27 466.13 M 478.08 430.27 L 466.13 430.27 M 478.08 466.13 L 466.13 466.13 M 478.08 430.27 L 537.84 430.27 M 478.08 466.13 L 537.84 466.13 M 585.65 418.32 L 585.65 478.08 M 549.79 418.32 L 549.79 430.27 L 537.84 430.27 M 537.84 466.13 L 549.79 466.13 L 549.79 478.08 M 59.76 490.03 L 47.81 490.03 L 47.81 478.08 M 59.76 525.89 L 11.95 525.89 L 11.95 478.08 M 71.71 478.08 L 71.71 490.03 L 59.76 490.03 M 107.57 478.08 L 107.57 525.89 L 59.76 525.89 M 131.47 478.08 L 131.47 537.84 M 179.28 490.03 L 167.33 490.03 L 167.33 478.08 M 179.28 525.89 L 167.33 525.89 L 167.33 537.84 M 191.23 478.08 L 191.23 537.84 M 227.09 478.08 L 227.09 537.84 M 179.28 490.03 L 191.23 490.03 M 179.28 525.89 L 191.23 525.89 M 239.04 490.03 L 227.09 490.03 M 239.04 525.89 L 227.09 525.89 M 239.04 525.89 L 286.85 525.89 L 286.85 490.03 L 239.04 490.03 M 310.75 478.08 L 310.75 537.84 M 346.61 478.08 L 346.61 537.84 M 418.32 525.89 L 370.51 525.89 L 370.51 490.03 L 418.32 490.03 M 430.27 478.08 L 430.27 490.03 L 418.32 490.03 M 466.13 478.08 L 466.13 525.89 L 418.32 525.89 M 537.84 525.89 L 490.03 525.89 L 490.03 490.03 L 537.84 490.03 M 549.79 478.08 L 549.79 490.03 L 537.84 490.03 M 585.65 478.08 L 585.65 525.89 L 537.84 525.89 M 59.76 585.65 L 11.95 585.65 L 11.95 549.79 L 59.76 549.79 M 59.76 549.79 L 119.52 549.79 M 59.76 585.65 L 119.52 585.65 M 131.47 537.84 L 131.47 549.79 L 119.52 549.79 M 167.33 537.84 L 167.33 585.65 L 119.52 585.65 M 227.09 537.84 L 227.09 544.58 L 227.09 585.65 L 191.23 585.65 L 191.23 537.84 M 298.8 585.65 L 250.99 585.65 L 250.99 549.79 L 298.8 549.79 M 298.8 585.65 L 358.56 585.65 M 310.75 537.84 L 310.75 549.79 L 298.8 549.79 M 358.56 549.79 L 346.61 549.79 L 346.61 537.84 M 358.56 549.79 L 418.32 549.79 M 358.56 585.65 L 418.32 585.65 M 418.32 549.79 L 478.08 549.79 M 418.32 585.65 L 478.08 585.65 M 478.08 549.79 L 537.84 549.79 M 478.08 585.65 L 537.84 585.65 " /> <circle cx="29.88" cy="29.88" r="19.92" fill-opacity="1.0" stroke-opacity="0" fill="#E51919" /><circle cx="567.72" cy="567.72" r="19.92" fill-opacity="1.0" stroke-opacity="0" fill="#E51919" />  </svg>