<svg id="maze" width="800" height="800" stroke-width="3" fill-opacity="0.0" stroke="#000">
          <path stroke-linecap="round" 
            d="M78 62.4
L15.6 62.4
L15.6 15.6
L78 15.6
M78 62.4
L156 62.4
M78 15.6
L156 15.6
M156 15.6
L234 15.6
M156 62.4
L171.6 62.4
L171.6 78
M234 62.4
L218.4 62.4
L218.4 78
M234 62.4
L249.6 62.4
L249.6 78
M234 15.6
L296.4 15.6
L296.4 78
M374.4 78
L374.4 15.6
L327.6 15.6
L327.6 78
M468 62.4
L405.6 62.4
L405.6 15.6
L468 15.6
M468 62.4
L483.6 62.4
L483.6 78
M468 15.6
L530.4 15.6
L530.4 78
M624 62.4
L561.6 62.4
L561.6 15.6
L624 15.6
M624 62.4
L639.6 62.4
L639.6 78
M624 15.6
L686.4 15.6
L686.4 78
M62.4 156
L62.4 93.6
L15.6 93.6
L15.6 156
M156 140.4
L140.4 140.4
L140.4 156
M156 93.6
L93.6 93.6
L93.6 156
M171.6 78
L171.6 93.6
L156 93.6
M218.4 78
L218.4 140.4
L156 140.4
M312 93.6
L296.4 93.6
L296.4 78
M312 140.4
L249.6 140.4
L249.6 78
M327.6 156
L327.6 78
M374.4 156
L374.4 78
M312 93.6
L327.6 93.6
M312 140.4
L327.6 140.4
M390 93.6
L374.4 93.6
M390 140.4
L374.4 140.4
M390 93.6
L468 93.6
M390 140.4
L405.6 140.4
L405.6 156
M468 140.4
L452.4 140.4
L452.4 156
M468 140.4
L546 140.4
M468 93.6
L546 93.6
M483.6 93.6
L483.6 78
M483.6 140.4
L483.6 156
M530.4 93.6
L530.4 78
M530.4 140.4
L530.4 156
M546 93.6
L624 93.6
M546 140.4
L561.6 140.4
L561.6 156
M624 140.4
L608.4 140.4
L608.4 156
M639.6 78
L639.6 93.6
L624 93.6
M624 140.4
L639.6 140.4
L639.6 156
M702 93.6
L686.4 93.6
L686.4 78
M702 140.4
L686.4 140.4
L686.4 156
M717.6 78
L717.6 93.6
L702 93.6
M764.4 78
L764.4 140.4
L702 140.4
M78 171.6
L62.4 171.6
L62.4 156
M78 218.4
L15.6 218.4
L15.6 156
M93.6 234
L93.6 156
M140.4 234
L140.4 156
M78 171.6
L93.6 171.6
M78 218.4
L93.6 218.4
M156 171.6
L140.4 171.6
M156 218.4
L140.4 218.4
M156 218.4
L171.6 218.4
L171.6 234
M156 171.6
L218.4 171.6
L218.4 234
M312 218.4
L249.6 218.4
L249.6 171.6
L312 171.6
M312 218.4
L390 218.4
M327.6 156
L327.6 171.6
L312 171.6
M390 171.6
L374.4 171.6
L374.4 156
M405.6 234
L405.6 156
M452.4 234
L452.4 156
M390 171.6
L405.6 171.6
M390 218.4
L405.6 218.4
M468 171.6
L452.4 171.6
M468 218.4
L452.4 218.4
M530.4 234
L530.4 156
M483.6 156
L483.6 171.6
L468 171.6
M468 218.4
L483.6 218.4
L483.6 234
M608.4 156
L608.4 218.4
L561.6 218.4
L561.6 156
M702 171.6
L686.4 171.6
L686.4 156
M702 218.4
L639.6 218.4
L639.6 156
M702 218.4
L764.4 218.4
L764.4 171.6
L702 171.6
M62.4 312
L62.4 249.6
L15.6 249.6
L15.6 312
M93.6 312
L93.6 234
M156 249.6
L140.4 249.6
L140.4 234
M156 296.4
L140.4 296.4
L140.4 312
M156 296.4
L234 296.4
M156 249.6
L234 249.6
M171.6 249.6
L171.6 234
M171.6 296.4
L171.6 312
M218.4 249.6
L218.4 234
M218.4 296.4
L218.4 312
M234 296.4
L296.4 296.4
L296.4 249.6
L234 249.6
M374.4 312
L374.4 249.6
L327.6 249.6
L327.6 312
M468 249.6
L452.4 249.6
L452.4 234
M468 296.4
L405.6 296.4
L405.6 234
M468 296.4
L546 296.4
M468 249.6
L546 249.6
M483.6 249.6
L483.6 234
M483.6 296.4
L483.6 312
M530.4 249.6
L530.4 234
M530.4 296.4
L530.4 312
M546 296.4
L561.6 296.4
L561.6 312
M546 249.6
L608.4 249.6
L608.4 312
M702 296.4
L639.6 296.4
L639.6 249.6
L702 249.6
M702 296.4
L717.6 296.4
L717.6 312
M702 249.6
L764.4 249.6
L764.4 312
M15.6 390
L15.6 312
M78 327.6
L62.4 327.6
L62.4 312
M78 374.4
L62.4 374.4
L62.4 390
M93.6 312
L93.6 327.6
L78 327.6
M140.4 312
L140.4 374.4
L78 374.4
M171.6 390
L171.6 312
M218.4 390
L218.4 312
M312 374.4
L296.4 374.4
L296.4 390
M312 327.6
L249.6 327.6
L249.6 390
M312 374.4
L390 374.4
M312 327.6
L390 327.6
M327.6 327.6
L327.6 312
M327.6 374.4
L327.6 390
M374.4 327.6
L374.4 312
M374.4 374.4
L374.4 390
M390 374.4
L452.4 374.4
L452.4 327.6
L390 327.6
M483.6 390
L483.6 312
M546 327.6
L530.4 327.6
L530.4 312
M546 374.4
L530.4 374.4
L530.4 390
M546 374.4
L624 374.4
M546 327.6
L624 327.6
M561.6 327.6
L561.6 312
M561.6 374.4
L561.6 390
M608.4 327.6
L608.4 312
M608.4 374.4
L608.4 390
M624 327.6
L702 327.6
M624 374.4
L639.6 374.4
L639.6 390
M702 374.4
L686.4 374.4
L686.4 390
M764.4 390
L764.4 312
M717.6 312
L717.6 327.6
L702 327.6
M702 374.4
L717.6 374.4
L717.6 390
M62.4 390
L62.4 452.4
L15.6 452.4
L15.6 390
M140.4 468
L140.4 405.6
L93.6 405.6
L93.6 468
M171.6 468
L171.6 390
M234 405.6
L218.4 405.6
L218.4 390
M234 452.4
L218.4 452.4
L218.4 468
M234 452.4
L312 452.4
M234 405.6
L312 405.6
M249.6 405.6
L249.6 390
M249.6 452.4
L249.6 468
M296.4 405.6
L296.4 390
M296.4 452.4
L296.4 468
M327.6 390
L327.6 405.6
L312 405.6
M312 452.4
L327.6 452.4
L327.6 468
M390 405.6
L374.4 405.6
L374.4 390
M390 452.4
L374.4 452.4
L374.4 468
M390 452.4
L468 452.4
M390 405.6
L468 405.6
M468 452.4
L546 452.4
M468 405.6
L546 405.6
M483.6 405.6
L483.6 390
M483.6 452.4
L483.6 468
M530.4 405.6
L530.4 390
M530.4 452.4
L530.4 468
M608.4 468
L608.4 390
M561.6 390
L561.6 405.6
L546 405.6
M546 452.4
L561.6 452.4
L561.6 468
M686.4 390
L686.4 452.4
L639.6 452.4
L639.6 390
M717.6 468
L717.6 390
M764.4 468
L764.4 390
M78 530.4
L15.6 530.4
L15.6 483.6
L78 483.6
M93.6 468
L93.6 483.6
L78 483.6
M78 530.4
L93.6 530.4
L93.6 546
M156 483.6
L140.4 483.6
L140.4 468
M156 530.4
L140.4 530.4
L140.4 546
M171.6 546
L171.6 468
M218.4 546
L218.4 468
M156 483.6
L171.6 483.6
M156 530.4
L171.6 530.4
M234 483.6
L218.4 483.6
M234 530.4
L218.4 530.4
M234 530.4
L312 530.4
M249.6 468
L249.6 483.6
L234 483.6
M312 483.6
L296.4 483.6
L296.4 468
M327.6 546
L327.6 468
M374.4 546
L374.4 468
M312 483.6
L327.6 483.6
M312 530.4
L327.6 530.4
M390 483.6
L374.4 483.6
M390 530.4
L374.4 530.4
M390 483.6
L468 483.6
M390 530.4
L405.6 530.4
L405.6 546
M468 530.4
L452.4 530.4
L452.4 546
M468 530.4
L546 530.4
M483.6 468
L483.6 483.6
L468 483.6
M546 483.6
L530.4 483.6
L530.4 468
M561.6 546
L561.6 468
M608.4 546
L608.4 468
M546 483.6
L561.6 483.6
M546 530.4
L561.6 530.4
M624 483.6
L608.4 483.6
M624 530.4
L608.4 530.4
M624 530.4
L639.6 530.4
L639.6 546
M624 483.6
L686.4 483.6
L686.4 546
M764.4 468
L764.4 530.4
L717.6 530.4
L717.6 468
M78 608.4
L62.4 608.4
L62.4 624
M78 561.6
L15.6 561.6
L15.6 624
M93.6 624
L93.6 546
M140.4 624
L140.4 546
M78 561.6
L93.6 561.6
M78 608.4
L93.6 608.4
M156 561.6
L140.4 561.6
M156 608.4
L140.4 608.4
M218.4 624
L218.4 546
M171.6 546
L171.6 561.6
L156 561.6
M156 608.4
L171.6 608.4
L171.6 624
M296.4 624
L296.4 561.6
L249.6 561.6
L249.6 624
M390 561.6
L374.4 561.6
L374.4 546
M390 608.4
L327.6 608.4
L327.6 546
M390 608.4
L468 608.4
M390 561.6
L468 561.6
M405.6 561.6
L405.6 546
M405.6 608.4
L405.6 624
M452.4 561.6
L452.4 546
M452.4 608.4
L452.4 624
M468 608.4
L483.6 608.4
L483.6 624
M468 561.6
L530.4 561.6
L530.4 624
M561.6 624
L561.6 546
M624 561.6
L608.4 561.6
L608.4 546
M624 608.4
L608.4 608.4
L608.4 624
M624 608.4
L702 608.4
M624 561.6
L702 561.6
M639.6 561.6
L639.6 546
M639.6 608.4
L639.6 624
M686.4 561.6
L686.4 546
M686.4 608.4
L686.4 624
M702 608.4
L717.6 608.4
L717.6 624
M702 561.6
L764.4 561.6
L764.4 624
M15.6 702
L15.6 624
M62.4 702
L62.4 624
M156 639.6
L140.4 639.6
L140.4 624
M156 686.4
L93.6 686.4
L93.6 624
M156 686.4
L234 686.4
M156 639.6
L234 639.6
M171.6 639.6
L171.6 624
M171.6 686.4
L171.6 702
M218.4 639.6
L218.4 624
M218.4 686.4
L218.4 702
M249.6 624
L249.6 639.6
L234 639.6
M296.4 624
L296.4 686.4
L234 686.4
M390 686.4
L374.4 686.4
L374.4 702
M390 639.6
L327.6 639.6
L327.6 702
M452.4 702
L452.4 624
M405.6 624
L405.6 639.6
L390 639.6
M390 686.4
L405.6 686.4
L405.6 702
M483.6 702
L483.6 624
M546 639.6
L530.4 639.6
L530.4 624
M546 686.4
L530.4 686.4
L530.4 702
M561.6 702
L561.6 624
M608.4 702
L608.4 624
M546 639.6
L561.6 639.6
M546 686.4
L561.6 686.4
M624 639.6
L608.4 639.6
M624 686.4
L608.4 686.4
M639.6 624
L639.6 639.6
L624 639.6
M686.4 624
L686.4 686.4
L624 686.4
M717.6 702
L717.6 624
M764.4 702
L764.4 624
M156 764.4
L93.6 764.4
L93.6 717.6
L156 717.6
M156 764.4
L234 764.4
M171.6 702
L171.6 717.6
L156 717.6
M234 717.6
L218.4 717.6
L218.4 702
M234 764.4
L296.4 764.4
L296.4 717.6
L234 717.6
M374.4 702
L374.4 764.4
L327.6 764.4
L327.6 702
M452.4 702
L452.4 764.4
L405.6 764.4
L405.6 702
M530.4 702
L530.4 764.4
L483.6 764.4
L483.6 702
M624 717.6
L608.4 717.6
L608.4 702
M624 764.4
L561.6 764.4
L561.6 702
M624 764.4
L686.4 764.4
L686.4 717.6
L624 717.6
M764.4 702
L764.4 764.4
L717.6 764.4
L717.6 702
"></path>
            <circle cx="741" cy="39" r="26" fill-opacity="1.0" stroke-opacity="0" fill="#E51919" /><circle cx="39" cy="741" r="26" fill-opacity="1.0" stroke-opacity="0" fill="#E51919" />
         </svg>