<svg id="maze" width="800" height="800" stroke-width="3" fill-opacity="0.0" stroke="#000">
          <path stroke-linecap="round" 
            d="M62.4 78
L62.4 69.21 A31.2 31.2 0 0 1 66.3 54.1
L66.3 54.1 A31.2 31.2 0 1 0 11.7 54.1
L11.7 54.1 A31.2 31.2 0 0 1 15.6 69.21
L15.6 78
M140.4 78
L140.4 69.21 A31.2 31.2 0 0 1 144.3 54.1
L144.3 54.1 A31.2 31.2 0 1 0 89.7 54.1
L89.7 54.1 A31.2 31.2 0 0 1 93.6 69.21
L93.6 78
M234 62.4
L225.21 62.4 A31.2 31.2 0 0 0 210.1 66.3
L210.1 66.3 A31.2 31.2 0 1 1 210.1 11.7
L210.1 11.7 A31.2 31.2 0 0 0 225.21 15.6
L234 15.6
M234 15.6
L312 15.6
M234 62.4
L234 62.4 A15.6 15.6 0 0 1 249.6 78
L249.6 78
M312 62.4
L312 62.4 A15.6 15.6 0 0 0 296.4 78
L296.4 78
M312 62.4
L320.79 62.4 A31.2 31.2 0 0 1 335.9 66.3
L335.9 66.3 A31.2 31.2 0 1 0 335.9 11.7
L335.9 11.7 A31.2 31.2 0 0 1 320.79 15.6
L312 15.6
M452.4 78
L452.4 69.21 A31.2 31.2 0 0 1 456.3 54.1
L456.3 54.1 A31.2 31.2 0 1 0 401.7 54.1
L401.7 54.1 A31.2 31.2 0 0 1 405.6 69.21
L405.6 78
M546 62.4
L537.21 62.4 A31.2 31.2 0 0 0 522.1 66.3
L522.1 66.3 A31.2 31.2 0 1 1 522.1 11.7
L522.1 11.7 A31.2 31.2 0 0 0 537.21 15.6
L546 15.6
M546 62.4
L624 62.4
M546 15.6
L624 15.6
M624 62.4
L624 62.4 A15.6 15.6 0 0 1 639.6 78
L639.6 78
M624 15.6
L639.6 15.6 A46.8 46.8 0 0 1 686.4 62.4
L686.4 78
M15.6 156
L15.6 78
M78 93.6
L78 93.6 A15.6 15.6 0 0 1 62.4 78
L62.4 78
M78 140.4
L78 140.4 A15.6 15.6 0 0 0 62.4 156
L62.4 156
M78 140.4
L156 140.4
M78 93.6
L156 93.6
M93.6 93.6
L93.6 78
M93.6 140.4
L93.6 156
M140.4 93.6
L140.4 78
M140.4 140.4
L140.4 156
M156 93.6
L234 93.6
M156 140.4
L156 140.4 A15.6 15.6 0 0 1 171.6 156
L171.6 156
M234 140.4
L234 140.4 A15.6 15.6 0 0 0 218.4 156
L218.4 156
M249.6 156
L249.6 78
M296.4 156
L296.4 78
M234 93.6
L249.6 93.6
M234 140.4
L249.6 140.4
M312 93.6
L296.4 93.6
M312 140.4
L296.4 140.4
M312 93.6
L390 93.6
M312 140.4
L312 140.4 A15.6 15.6 0 0 1 327.6 156
L327.6 156
M390 140.4
L390 140.4 A15.6 15.6 0 0 0 374.4 156
L374.4 156
M390 140.4
L468 140.4
M390 93.6
L468 93.6
M405.6 93.6
L405.6 78
M405.6 140.4
L405.6 156
M452.4 93.6
L452.4 78
M452.4 140.4
L452.4 156
M468 140.4
L468 140.4 A15.6 15.6 0 0 1 483.6 156
L483.6 156
M468 93.6
L483.6 93.6 A46.8 46.8 0 0 1 530.4 140.4
L530.4 156
M624 140.4
L615.21 140.4 A31.2 31.2 0 0 0 600.1 144.3
L600.1 144.3 A31.2 31.2 0 1 1 600.1 89.7
L600.1 89.7 A31.2 31.2 0 0 0 615.21 93.6
L624 93.6
M624 140.4
L702 140.4
M624 93.6
L702 93.6
M639.6 93.6
L639.6 78
M639.6 140.4
L639.6 156
M686.4 93.6
L686.4 78
M686.4 140.4
L686.4 156
M764.4 156
L764.4 78
M717.6 78
L717.6 78 A15.6 15.6 0 0 1 702 93.6
L702 93.6
M702 140.4
L702 140.4 A15.6 15.6 0 0 1 717.6 156
L717.6 156
M62.4 156
L62.4 164.79
L62.4 164.79 A31.2 31.2 0 0 0 66.3 179.9
L66.3 179.9 A31.2 31.2 0 1 1 11.7 179.9
L11.7 179.9 A31.2 31.2 0 0 0 15.6 164.79
L15.6 156
M93.6 234
L93.6 156
M156 171.6
L156 171.6 A15.6 15.6 0 0 1 140.4 156
L140.4 156
M156 218.4
L156 218.4 A15.6 15.6 0 0 0 140.4 234
L140.4 234
M171.6 234
L171.6 156
M218.4 234
L218.4 156
M156 171.6
L171.6 171.6
M156 218.4
L171.6 218.4
M234 171.6
L218.4 171.6
M234 218.4
L218.4 218.4
M234 218.4
L312 218.4
M249.6 156
L249.6 156 A15.6 15.6 0 0 1 234 171.6
L234 171.6
M312 171.6
L312 171.6 A15.6 15.6 0 0 1 296.4 156
L296.4 156
M327.6 234
L327.6 156
M374.4 234
L374.4 156
M312 171.6
L327.6 171.6
M312 218.4
L327.6 218.4
M390 171.6
L374.4 171.6
M390 218.4
L374.4 218.4
M390 218.4
L468 218.4
M405.6 156
L405.6 156 A15.6 15.6 0 0 1 390 171.6
L390 171.6
M468 171.6
L468 171.6 A15.6 15.6 0 0 1 452.4 156
L452.4 156
M483.6 234
L483.6 156
M530.4 234
L530.4 156
M468 171.6
L483.6 171.6
M468 218.4
L483.6 218.4
M546 171.6
L530.4 171.6
M546 218.4
L530.4 218.4
M546 218.4
L546 218.4 A15.6 15.6 0 0 1 561.6 234
L561.6 234
M546 171.6
L561.6 171.6 A46.8 46.8 0 0 1 608.4 218.4
L608.4 234
M639.6 234
L639.6 156
M702 171.6
L702 171.6 A15.6 15.6 0 0 1 686.4 156
L686.4 156
M702 218.4
L702 218.4 A15.6 15.6 0 0 0 686.4 234
L686.4 234
M717.6 156
L717.6 156 A15.6 15.6 0 0 1 702 171.6
L702 171.6
M764.4 156
L764.4 171.6 A46.8 46.8 0 0 1 717.6 218.4
L702 218.4
M78 296.4
L69.21 296.4 A31.2 31.2 0 0 0 54.1 300.3
L54.1 300.3 A31.2 31.2 0 1 1 54.1 245.7
L54.1 245.7 A31.2 31.2 0 0 0 69.21 249.6
L78 249.6
M93.6 312
L93.6 234
M140.4 312
L140.4 234
M78 249.6
L93.6 249.6
M78 296.4
L93.6 296.4
M156 249.6
L140.4 249.6
M156 296.4
L140.4 296.4
M171.6 234
L171.6 234 A15.6 15.6 0 0 1 156 249.6
L156 249.6
M218.4 234
L218.4 249.6 A46.8 46.8 0 0 1 171.6 296.4
L156 296.4
M296.4 312
L296.4 303.21 A31.2 31.2 0 0 1 300.3 288.1
L300.3 288.1 A31.2 31.2 0 1 0 245.7 288.1
L245.7 288.1 A31.2 31.2 0 0 1 249.6 303.21
L249.6 312
M327.6 312
L327.6 234
M374.4 312
L374.4 234
M468 296.4
L468 296.4 A15.6 15.6 0 0 0 452.4 312
L452.4 312
M468 249.6
L468 249.6 A62.4 62.4 0 0 0 405.6 312
L405.6 312
M468 296.4
L546 296.4
M483.6 234
L483.6 234 A15.6 15.6 0 0 1 468 249.6
L468 249.6
M546 249.6
L546 249.6 A15.6 15.6 0 0 1 530.4 234
L530.4 234
M546 296.4
L624 296.4
M561.6 234
L561.6 234 A15.6 15.6 0 0 1 546 249.6
L546 249.6
M624 249.6
L624 249.6 A15.6 15.6 0 0 1 608.4 234
L608.4 234
M639.6 312
L639.6 234
M686.4 312
L686.4 234
M624 249.6
L639.6 249.6
M624 296.4
L639.6 296.4
M702 249.6
L686.4 249.6
M702 296.4
L686.4 296.4
M702 296.4
L710.79 296.4 A31.2 31.2 0 0 1 725.9 300.3
L725.9 300.3 A31.2 31.2 0 1 0 725.9 245.7
L725.9 245.7 A31.2 31.2 0 0 1 710.79 249.6
L702 249.6
M78 374.4
L78 374.4 A15.6 15.6 0 0 0 62.4 390
L62.4 390
M78 327.6
L78 327.6 A62.4 62.4 0 0 0 15.6 390
L15.6 390
M93.6 312
L93.6 312 A15.6 15.6 0 0 1 78 327.6
L78 327.6
M140.4 312
L140.4 327.6 A46.8 46.8 0 0 1 93.6 374.4
L78 374.4
M234 374.4
L234 374.4 A15.6 15.6 0 0 0 218.4 390
L218.4 390
M234 327.6
L234 327.6 A62.4 62.4 0 0 0 171.6 390
L171.6 390
M249.6 390
L249.6 312
M296.4 390
L296.4 312
M234 327.6
L249.6 327.6
M234 374.4
L249.6 374.4
M312 327.6
L296.4 327.6
M312 374.4
L296.4 374.4
M327.6 312
L327.6 312 A15.6 15.6 0 0 1 312 327.6
L312 327.6
M312 374.4
L312 374.4 A15.6 15.6 0 0 1 327.6 390
L327.6 390
M390 327.6
L390 327.6 A15.6 15.6 0 0 1 374.4 312
L374.4 312
M390 374.4
L390 374.4 A15.6 15.6 0 0 0 374.4 390
L374.4 390
M405.6 390
L405.6 312
M452.4 390
L452.4 312
M390 327.6
L405.6 327.6
M390 374.4
L405.6 374.4
M468 327.6
L452.4 327.6
M468 374.4
L452.4 374.4
M468 327.6
L546 327.6
M468 374.4
L468 374.4 A15.6 15.6 0 0 1 483.6 390
L483.6 390
M546 374.4
L546 374.4 A15.6 15.6 0 0 0 530.4 390
L530.4 390
M546 374.4
L624 374.4
M546 327.6
L624 327.6
M624 374.4
L702 374.4
M639.6 312
L639.6 312 A15.6 15.6 0 0 1 624 327.6
L624 327.6
M702 327.6
L702 327.6 A15.6 15.6 0 0 1 686.4 312
L686.4 312
M702 374.4
L710.79 374.4 A31.2 31.2 0 0 1 725.9 378.3
L725.9 378.3 A31.2 31.2 0 1 0 725.9 323.7
L725.9 323.7 A31.2 31.2 0 0 1 710.79 327.6
L702 327.6
M62.4 390
L62.4 398.79
L62.4 398.79 A31.2 31.2 0 0 0 66.3 413.9
L66.3 413.9 A31.2 31.2 0 1 1 11.7 413.9
L11.7 413.9 A31.2 31.2 0 0 0 15.6 398.79
L15.6 390
M156 452.4
L156 452.4 A15.6 15.6 0 0 0 140.4 468
L140.4 468
M156 405.6
L156 405.6 A62.4 62.4 0 0 0 93.6 468
L93.6 468
M171.6 468
L171.6 390
M218.4 468
L218.4 390
M156 405.6
L171.6 405.6
M156 452.4
L171.6 452.4
M234 405.6
L218.4 405.6
M234 452.4
L218.4 452.4
M234 452.4
L312 452.4
M249.6 390
L249.6 390 A15.6 15.6 0 0 1 234 405.6
L234 405.6
M312 405.6
L312 405.6 A15.6 15.6 0 0 1 296.4 390
L296.4 390
M327.6 468
L327.6 390
M374.4 468
L374.4 390
M312 405.6
L327.6 405.6
M312 452.4
L327.6 452.4
M390 405.6
L374.4 405.6
M390 452.4
L374.4 452.4
M390 452.4
L468 452.4
M405.6 390
L405.6 390 A15.6 15.6 0 0 1 390 405.6
L390 405.6
M468 405.6
L468 405.6 A15.6 15.6 0 0 1 452.4 390
L452.4 390
M483.6 468
L483.6 390
M530.4 468
L530.4 390
M468 405.6
L483.6 405.6
M468 452.4
L483.6 452.4
M546 405.6
L530.4 405.6
M546 452.4
L530.4 452.4
M546 452.4
L554.79 452.4 A31.2 31.2 0 0 1 569.9 456.3
L569.9 456.3 A31.2 31.2 0 1 0 569.9 401.7
L569.9 401.7 A31.2 31.2 0 0 1 554.79 405.6
L546 405.6
M702 452.4
L702 452.4 A15.6 15.6 0 0 0 686.4 468
L686.4 468
M702 405.6
L702 405.6 A62.4 62.4 0 0 0 639.6 468
L639.6 468
M702 452.4
L702 452.4 A15.6 15.6 0 0 1 717.6 468
L717.6 468
M702 405.6
L717.6 405.6 A46.8 46.8 0 0 1 764.4 452.4
L764.4 468
M78 530.4
L78 530.4 A15.6 15.6 0 0 0 62.4 546
L62.4 546
M78 483.6
L78 483.6 A62.4 62.4 0 0 0 15.6 546
L15.6 546
M78 530.4
L156 530.4
M78 483.6
L156 483.6
M93.6 483.6
L93.6 468
M93.6 530.4
L93.6 546
M140.4 483.6
L140.4 468
M140.4 530.4
L140.4 546
M171.6 468
L171.6 468 A15.6 15.6 0 0 1 156 483.6
L156 483.6
M218.4 468
L218.4 483.6 A46.8 46.8 0 0 1 171.6 530.4
L156 530.4
M312 530.4
L303.21 530.4 A31.2 31.2 0 0 0 288.1 534.3
L288.1 534.3 A31.2 31.2 0 1 1 288.1 479.7
L288.1 479.7 A31.2 31.2 0 0 0 303.21 483.6
L312 483.6
M327.6 468
L327.6 468 A15.6 15.6 0 0 1 312 483.6
L312 483.6
M374.4 468
L374.4 483.6 A46.8 46.8 0 0 1 327.6 530.4
L312 530.4
M468 530.4
L468 530.4 A15.6 15.6 0 0 0 452.4 546
L452.4 546
M468 483.6
L468 483.6 A62.4 62.4 0 0 0 405.6 546
L405.6 546
M530.4 546
L530.4 468
M483.6 468
L483.6 468 A15.6 15.6 0 0 1 468 483.6
L468 483.6
M468 530.4
L468 530.4 A15.6 15.6 0 0 1 483.6 546
L483.6 546
M624 530.4
L624 530.4 A15.6 15.6 0 0 0 608.4 546
L608.4 546
M624 483.6
L624 483.6 A62.4 62.4 0 0 0 561.6 546
L561.6 546
M639.6 546
L639.6 468
M686.4 546
L686.4 468
M624 483.6
L639.6 483.6
M624 530.4
L639.6 530.4
M702 483.6
L686.4 483.6
M702 530.4
L686.4 530.4
M717.6 468
L717.6 468 A15.6 15.6 0 0 1 702 483.6
L702 483.6
M764.4 468
L764.4 483.6 A46.8 46.8 0 0 1 717.6 530.4
L702 530.4
M62.4 546
L62.4 554.79
L62.4 554.79 A31.2 31.2 0 0 0 66.3 569.9
L66.3 569.9 A31.2 31.2 0 1 1 11.7 569.9
L11.7 569.9 A31.2 31.2 0 0 0 15.6 554.79
L15.6 546
M93.6 624
L93.6 546
M156 561.6
L156 561.6 A15.6 15.6 0 0 1 140.4 546
L140.4 546
M156 608.4
L156 608.4 A15.6 15.6 0 0 0 140.4 624
L140.4 624
M156 608.4
L156 608.4 A15.6 15.6 0 0 1 171.6 624
L171.6 624
M156 561.6
L171.6 561.6 A46.8 46.8 0 0 1 218.4 608.4
L218.4 624
M296.4 624
L296.4 615.21 A31.2 31.2 0 0 1 300.3 600.1
L300.3 600.1 A31.2 31.2 0 1 0 245.7 600.1
L245.7 600.1 A31.2 31.2 0 0 1 249.6 615.21
L249.6 624
M390 608.4
L390 608.4 A15.6 15.6 0 0 0 374.4 624
L374.4 624
M390 561.6
L390 561.6 A62.4 62.4 0 0 0 327.6 624
L327.6 624
M405.6 624
L405.6 546
M452.4 624
L452.4 546
M390 561.6
L405.6 561.6
M390 608.4
L405.6 608.4
M468 561.6
L452.4 561.6
M468 608.4
L452.4 608.4
M483.6 546
L483.6 546 A15.6 15.6 0 0 1 468 561.6
L468 561.6
M468 608.4
L468 608.4 A15.6 15.6 0 0 1 483.6 624
L483.6 624
M546 561.6
L546 561.6 A15.6 15.6 0 0 1 530.4 546
L530.4 546
M546 608.4
L546 608.4 A15.6 15.6 0 0 0 530.4 624
L530.4 624
M561.6 624
L561.6 546
M608.4 624
L608.4 546
M546 561.6
L561.6 561.6
M546 608.4
L561.6 608.4
M624 561.6
L608.4 561.6
M624 608.4
L608.4 608.4
M686.4 624
L686.4 546
M639.6 546
L639.6 546 A15.6 15.6 0 0 1 624 561.6
L624 561.6
M624 608.4
L624 608.4 A15.6 15.6 0 0 1 639.6 624
L639.6 624
M764.4 624
L764.4 615.21 A31.2 31.2 0 0 1 768.3 600.1
L768.3 600.1 A31.2 31.2 0 1 0 713.7 600.1
L713.7 600.1 A31.2 31.2 0 0 1 717.6 615.21
L717.6 624
M78 686.4
L78 686.4 A15.6 15.6 0 0 0 62.4 702
L62.4 702
M78 639.6
L78 639.6 A62.4 62.4 0 0 0 15.6 702
L15.6 702
M78 686.4
L156 686.4
M78 639.6
L156 639.6
M93.6 639.6
L93.6 624
M93.6 686.4
L93.6 702
M140.4 639.6
L140.4 624
M140.4 686.4
L140.4 702
M156 686.4
L234 686.4
M171.6 624
L171.6 624 A15.6 15.6 0 0 1 156 639.6
L156 639.6
M234 639.6
L234 639.6 A15.6 15.6 0 0 1 218.4 624
L218.4 624
M249.6 624
L249.6 624 A15.6 15.6 0 0 1 234 639.6
L234 639.6
M296.4 624
L296.4 639.6 A46.8 46.8 0 0 1 249.6 686.4
L234 686.4
M327.6 702
L327.6 624
M374.4 702
L374.4 624
M405.6 702
L405.6 624
M452.4 702
L452.4 624
M530.4 624
L530.4 632.79
L530.4 632.79 A31.2 31.2 0 0 0 534.3 647.9
L534.3 647.9 A31.2 31.2 0 1 1 479.7 647.9
L479.7 647.9 A31.2 31.2 0 0 0 483.6 632.79
L483.6 624
M608.4 624
L608.4 632.79
L608.4 632.79 A31.2 31.2 0 0 0 612.3 647.9
L612.3 647.9 A31.2 31.2 0 1 1 557.7 647.9
L557.7 647.9 A31.2 31.2 0 0 0 561.6 632.79
L561.6 624
M686.4 624
L686.4 632.79
L686.4 632.79 A31.2 31.2 0 0 0 690.3 647.9
L690.3 647.9 A31.2 31.2 0 1 1 635.7 647.9
L635.7 647.9 A31.2 31.2 0 0 0 639.6 632.79
L639.6 624
M717.6 702
L717.6 624
M764.4 702
L764.4 624
M156 717.6
L156 717.6 A15.6 15.6 0 0 1 140.4 702
L140.4 702
M156 764.4
L140.4 764.4 A46.8 46.8 0 0 1 93.6 717.6
L93.6 702
M156 764.4
L164.79 764.4 A31.2 31.2 0 0 1 179.9 768.3
L179.9 768.3 A31.2 31.2 0 1 0 179.9 713.7
L179.9 713.7 A31.2 31.2 0 0 1 164.79 717.6
L156 717.6
M312 764.4
L303.21 764.4 A31.2 31.2 0 0 0 288.1 768.3
L288.1 768.3 A31.2 31.2 0 1 1 288.1 713.7
L288.1 713.7 A31.2 31.2 0 0 0 303.21 717.6
L312 717.6
M327.6 702
L327.6 702 A15.6 15.6 0 0 1 312 717.6
L312 717.6
M374.4 702
L374.4 717.6 A46.8 46.8 0 0 1 327.6 764.4
L312 764.4
M468 717.6
L468 717.6 A15.6 15.6 0 0 1 452.4 702
L452.4 702
M468 764.4
L452.4 764.4 A46.8 46.8 0 0 1 405.6 717.6
L405.6 702
M468 764.4
L546 764.4
M468 717.6
L546 717.6
M546 764.4
L624 764.4
M546 717.6
L624 717.6
M624 764.4
L702 764.4
M624 717.6
L702 717.6
M717.6 702
L717.6 702 A15.6 15.6 0 0 1 702 717.6
L702 717.6
M764.4 702
L764.4 717.6 A46.8 46.8 0 0 1 717.6 764.4
L702 764.4
"></path>
            <circle cx="741" cy="39" r="26" fill-opacity="1.0" stroke-opacity="0" fill="#E51919" /><circle cx="39" cy="741" r="26" fill-opacity="1.0" stroke-opacity="0" fill="#E51919" />
         </svg>