<svg id="maze" xmlns="http://www.w3.org/2000/svg" viewBox="0 0 597.6 597.6"  width="597.6px" height="597.6px" stroke-width="2" fill-opacity="0.0" stroke="black"> <path stroke-opacity="1.0" stroke-width="2" stroke="#000000" d="M 107.57 59.76 L 107.57 11.95 L 71.71 11.95 L 71.71 59.76 M 167.33 59.76 L 167.33 11.95 L 131.47 11.95 L 131.47 59.76 M 239.04 47.81 L 227.09 47.81 L 227.09 59.76 M 239.04 11.95 L 191.23 11.95 L 191.23 59.76 M 239.04 47.81 L 286.85 47.81 L 286.85 11.95 L 239.04 11.95 M 346.61 59.76 L 346.61 11.95 L 310.75 11.95 L 310.75 59.76 M 418.32 47.81 L 406.37 47.81 L 406.37 59.76 M 418.32 11.95 L 370.51 11.95 L 370.51 59.76 M 418.32 47.81 L 466.13 47.81 L 466.13 11.95 L 418.32 11.95 M 537.84 47.81 L 525.89 47.81 L 525.89 59.76 M 537.84 11.95 L 490.03 11.95 L 490.03 59.76 M 537.84 47.81 L 585.65 47.81 L 585.65 11.95 L 537.84 11.95 M 59.76 71.71 L 47.81 71.71 L 47.81 59.76 M 59.76 107.57 L 11.95 107.57 L 11.95 59.76 M 59.76 71.71 L 119.52 71.71 M 59.76 107.57 L 119.52 107.57 M 71.71 59.76 L 71.71 71.71 M 107.57 59.76 L 107.57 71.71 M 71.71 107.57 L 71.71 119.52 M 107.57 107.57 L 107.57 119.52 M 131.47 59.76 L 131.47 71.71 L 119.52 71.71 M 119.52 107.57 L 131.47 107.57 L 131.47 119.52 M 179.28 71.71 L 167.33 71.71 L 167.33 59.76 M 179.28 107.57 L 167.33 107.57 L 167.33 119.52 M 191.23 59.76 L 191.23 119.52 M 227.09 59.76 L 227.09 119.52 M 179.28 71.71 L 191.23 71.71 M 179.28 107.57 L 191.23 107.57 M 239.04 71.71 L 227.09 71.71 M 239.04 107.57 L 227.09 107.57 M 239.04 71.71 L 298.8 71.71 M 239.04 107.57 L 250.99 107.57 L 250.99 119.52 M 298.8 107.57 L 286.85 107.57 L 286.85 119.52 M 310.75 59.76 L 310.75 119.52 M 346.61 59.76 L 346.61 119.52 M 298.8 71.71 L 310.75 71.71 M 298.8 107.57 L 310.75 107.57 M 358.56 71.71 L 346.61 71.71 M 358.56 107.57 L 346.61 107.57 M 406.37 59.76 L 406.37 119.52 M 370.51 59.76 L 370.51 71.71 L 358.56 71.71 M 358.56 107.57 L 370.51 107.57 L 370.51 119.52 M 478.08 107.57 L 466.13 107.57 L 466.13 119.52 M 478.08 71.71 L 430.27 71.71 L 430.27 119.52 M 490.03 59.76 L 490.03 119.52 M 525.89 59.76 L 525.89 119.52 M 478.08 71.71 L 490.03 71.71 M 478.08 107.57 L 490.03 107.57 M 537.84 71.71 L 525.89 71.71 M 537.84 107.57 L 525.89 107.57 M 537.84 107.57 L 549.79 107.57 L 549.79 119.52 M 537.84 71.71 L 585.65 71.71 L 585.65 119.52 M 59.76 167.33 L 11.95 167.33 L 11.95 131.47 L 59.76 131.47 M 59.76 167.33 L 119.52 167.33 M 71.71 119.52 L 71.71 131.47 L 59.76 131.47 M 119.52 131.47 L 107.57 131.47 L 107.57 119.52 M 131.47 119.52 L 131.47 179.28 M 167.33 119.52 L 167.33 179.28 M 119.52 131.47 L 131.47 131.47 M 119.52 167.33 L 131.47 167.33 M 179.28 131.47 L 167.33 131.47 M 179.28 167.33 L 167.33 167.33 M 191.23 119.52 L 191.23 131.47 L 179.28 131.47 M 179.28 167.33 L 191.23 167.33 L 191.23 179.28 M 239.04 131.47 L 227.09 131.47 L 227.09 119.52 M 239.04 167.33 L 227.09 167.33 L 227.09 179.28 M 250.99 119.52 L 250.99 131.47 L 239.04 131.47 M 286.85 119.52 L 286.85 167.33 L 239.04 167.33 M 310.75 119.52 L 310.75 179.28 M 358.56 131.47 L 346.61 131.47 L 346.61 119.52 M 358.56 167.33 L 346.61 167.33 L 346.61 179.28 M 358.56 131.47 L 418.32 131.47 M 358.56 167.33 L 418.32 167.33 M 370.51 119.52 L 370.51 131.47 M 406.37 119.52 L 406.37 131.47 M 370.51 167.33 L 370.51 179.28 M 406.37 167.33 L 406.37 179.28 M 430.27 119.52 L 430.27 131.47 L 418.32 131.47 M 418.32 167.33 L 430.27 167.33 L 430.27 179.28 M 478.08 131.47 L 466.13 131.47 L 466.13 119.52 M 478.08 167.33 L 466.13 167.33 L 466.13 179.28 M 490.03 119.52 L 490.03 131.47 L 478.08 131.47 M 525.89 119.52 L 525.89 167.33 L 478.08 167.33 M 549.79 119.52 L 549.79 179.28 M 585.65 119.52 L 585.65 179.28 M 47.81 239.04 L 47.81 191.23 L 11.95 191.23 L 11.95 239.04 M 119.52 227.09 L 71.71 227.09 L 71.71 191.23 L 119.52 191.23 M 131.47 179.28 L 131.47 191.23 L 119.52 191.23 M 119.52 227.09 L 131.47 227.09 L 131.47 239.04 M 179.28 191.23 L 167.33 191.23 L 167.33 179.28 M 179.28 227.09 L 167.33 227.09 L 167.33 239.04 M 179.28 191.23 L 239.04 191.23 M 179.28 227.09 L 239.04 227.09 M 191.23 179.28 L 191.23 191.23 M 227.09 179.28 L 227.09 191.23 M 191.23 227.09 L 191.23 239.04 M 227.09 227.09 L 227.09 239.04 M 239.04 227.09 L 286.85 227.09 L 286.85 191.23 L 239.04 191.23 M 310.75 179.28 L 310.75 239.04 M 346.61 179.28 L 346.61 239.04 M 418.32 191.23 L 406.37 191.23 L 406.37 179.28 M 418.32 227.09 L 370.51 227.09 L 370.51 179.28 M 418.32 191.23 L 478.08 191.23 M 418.32 227.09 L 478.08 227.09 M 430.27 179.28 L 430.27 191.23 M 466.13 179.28 L 466.13 191.23 M 430.27 227.09 L 430.27 239.04 M 466.13 227.09 L 466.13 239.04 M 478.08 227.09 L 490.03 227.09 L 490.03 239.04 M 478.08 191.23 L 525.89 191.23 L 525.89 239.04 M 585.65 179.28 L 585.65 186.02 L 585.65 227.09 L 549.79 227.09 L 549.79 179.28 M 11.95 239.04 L 11.95 298.8 M 59.76 250.99 L 47.81 250.99 L 47.81 239.04 M 59.76 286.85 L 47.81 286.85 L 47.81 298.8 M 59.76 250.99 L 119.52 250.99 M 59.76 286.85 L 71.71 286.85 L 71.71 298.8 M 119.52 286.85 L 107.57 286.85 L 107.57 298.8 M 131.47 239.04 L 131.47 298.8 M 167.33 239.04 L 167.33 298.8 M 119.52 250.99 L 131.47 250.99 M 119.52 286.85 L 131.47 286.85 M 179.28 250.99 L 167.33 250.99 M 179.28 286.85 L 167.33 286.85 M 191.23 239.04 L 191.23 250.99 L 179.28 250.99 M 227.09 239.04 L 227.09 286.85 L 179.28 286.85 M 298.8 286.85 L 286.85 286.85 L 286.85 298.8 M 298.8 250.99 L 250.99 250.99 L 250.99 298.8 M 310.75 239.04 L 310.75 298.8 M 346.61 239.04 L 346.61 298.8 M 298.8 250.99 L 310.75 250.99 M 298.8 286.85 L 310.75 286.85 M 358.56 250.99 L 346.61 250.99 M 358.56 286.85 L 346.61 286.85 M 358.56 286.85 L 370.51 286.85 L 370.51 298.8 M 358.56 250.99 L 406.37 250.99 L 406.37 298.8 M 478.08 250.99 L 466.13 250.99 L 466.13 239.04 M 478.08 286.85 L 430.27 286.85 L 430.27 239.04 M 490.03 239.04 L 490.03 298.8 M 525.89 239.04 L 525.89 298.8 M 478.08 250.99 L 490.03 250.99 M 478.08 286.85 L 490.03 286.85 M 537.84 250.99 L 525.89 250.99 M 537.84 286.85 L 525.89 286.85 M 537.84 286.85 L 585.65 286.85 L 585.65 250.99 L 537.84 250.99 M 47.81 298.8 L 47.81 305.54 L 47.81 346.61 L 11.95 346.61 L 11.95 298.8 M 107.57 298.8 L 107.57 305.54 L 107.57 346.61 L 71.71 346.61 L 71.71 298.8 M 167.33 298.8 L 167.33 305.54 L 167.33 346.61 L 131.47 346.61 L 131.47 298.8 M 227.09 358.56 L 227.09 310.75 L 191.23 310.75 L 191.23 358.56 M 250.99 298.8 L 250.99 358.56 M 286.85 298.8 L 286.85 358.56 M 310.75 298.8 L 310.75 358.56 M 358.56 310.75 L 346.61 310.75 L 346.61 298.8 M 358.56 346.61 L 346.61 346.61 L 346.61 358.56 M 370.51 298.8 L 370.51 358.56 M 406.37 298.8 L 406.37 358.56 M 358.56 310.75 L 370.51 310.75 M 358.56 346.61 L 370.51 346.61 M 418.32 310.75 L 406.37 310.75 M 418.32 346.61 L 406.37 346.61 M 418.32 346.61 L 430.27 346.61 L 430.27 358.56 M 418.32 310.75 L 466.13 310.75 L 466.13 358.56 M 490.03 298.8 L 490.03 358.56 M 537.84 310.75 L 525.89 310.75 L 525.89 298.8 M 537.84 346.61 L 525.89 346.61 L 525.89 358.56 M 537.84 346.61 L 585.65 346.61 L 585.65 310.75 L 537.84 310.75 M 59.76 406.37 L 11.95 406.37 L 11.95 370.51 L 59.76 370.51 M 59.76 370.51 L 119.52 370.51 M 59.76 406.37 L 71.71 406.37 L 71.71 418.32 M 119.52 406.37 L 107.57 406.37 L 107.57 418.32 M 119.52 370.51 L 179.28 370.51 M 119.52 406.37 L 179.28 406.37 M 179.28 370.51 L 239.04 370.51 M 179.28 406.37 L 239.04 406.37 M 191.23 358.56 L 191.23 370.51 M 227.09 358.56 L 227.09 370.51 M 191.23 406.37 L 191.23 418.32 M 227.09 406.37 L 227.09 418.32 M 286.85 358.56 L 286.85 418.32 M 250.99 358.56 L 250.99 370.51 L 239.04 370.51 M 239.04 406.37 L 250.99 406.37 L 250.99 418.32 M 310.75 358.56 L 310.75 418.32 M 358.56 370.51 L 346.61 370.51 L 346.61 358.56 M 358.56 406.37 L 346.61 406.37 L 346.61 418.32 M 370.51 358.56 L 370.51 370.51 L 358.56 370.51 M 358.56 406.37 L 370.51 406.37 L 370.51 418.32 M 418.32 370.51 L 406.37 370.51 L 406.37 358.56 M 418.32 406.37 L 406.37 406.37 L 406.37 418.32 M 430.27 358.56 L 430.27 418.32 M 466.13 358.56 L 466.13 418.32 M 418.32 370.51 L 430.27 370.51 M 418.32 406.37 L 430.27 406.37 M 478.08 370.51 L 466.13 370.51 M 478.08 406.37 L 466.13 406.37 M 490.03 358.56 L 490.03 370.51 L 478.08 370.51 M 478.08 406.37 L 490.03 406.37 L 490.03 418.32 M 537.84 370.51 L 525.89 370.51 L 525.89 358.56 M 537.84 406.37 L 525.89 406.37 L 525.89 418.32 M 537.84 406.37 L 585.65 406.37 L 585.65 370.51 L 537.84 370.51 M 59.76 466.13 L 11.95 466.13 L 11.95 430.27 L 59.76 430.27 M 71.71 418.32 L 71.71 478.08 M 107.57 418.32 L 107.57 478.08 M 59.76 430.27 L 71.71 430.27 M 59.76 466.13 L 71.71 466.13 M 119.52 430.27 L 107.57 430.27 M 119.52 466.13 L 107.57 466.13 M 119.52 466.13 L 131.47 466.13 L 131.47 478.08 M 119.52 430.27 L 167.33 430.27 L 167.33 478.08 M 191.23 418.32 L 191.23 478.08 M 239.04 430.27 L 227.09 430.27 L 227.09 418.32 M 239.04 466.13 L 227.09 466.13 L 227.09 478.08 M 250.99 418.32 L 250.99 478.08 M 286.85 418.32 L 286.85 478.08 M 239.04 430.27 L 250.99 430.27 M 239.04 466.13 L 250.99 466.13 M 298.8 430.27 L 286.85 430.27 M 298.8 466.13 L 286.85 466.13 M 346.61 418.32 L 346.61 478.08 M 310.75 418.32 L 310.75 430.27 L 298.8 430.27 M 298.8 466.13 L 310.75 466.13 L 310.75 478.08 M 406.37 418.32 L 406.37 425.06 L 406.37 466.13 L 370.51 466.13 L 370.51 418.32 M 478.08 430.27 L 466.13 430.27 L 466.13 418.32 M 478.08 466.13 L 430.27 466.13 L 430.27 418.32 M 490.03 418.32 L 490.03 478.08 M 525.89 418.32 L 525.89 478.08 M 478.08 430.27 L 490.03 430.27 M 478.08 466.13 L 490.03 466.13 M 537.84 430.27 L 525.89 430.27 M 537.84 466.13 L 525.89 466.13 M 537.84 466.13 L 585.65 466.13 L 585.65 430.27 L 537.84 430.27 M 59.76 525.89 L 11.95 525.89 L 11.95 490.03 L 59.76 490.03 M 71.71 478.08 L 71.71 490.03 L 59.76 490.03 M 107.57 478.08 L 107.57 525.89 L 59.76 525.89 M 179.28 490.03 L 167.33 490.03 L 167.33 478.08 M 179.28 525.89 L 131.47 525.89 L 131.47 478.08 M 191.23 478.08 L 191.23 537.84 M 227.09 478.08 L 227.09 537.84 M 179.28 490.03 L 191.23 490.03 M 179.28 525.89 L 191.23 525.89 M 239.04 490.03 L 227.09 490.03 M 239.04 525.89 L 227.09 525.89 M 250.99 478.08 L 250.99 490.03 L 239.04 490.03 M 286.85 478.08 L 286.85 525.89 L 239.04 525.89 M 310.75 478.08 L 310.75 537.84 M 346.61 478.08 L 346.61 537.84 M 406.37 537.84 L 406.37 490.03 L 370.51 490.03 L 370.51 537.84 M 466.13 537.84 L 466.13 490.03 L 430.27 490.03 L 430.27 537.84 M 490.03 478.08 L 490.03 537.84 M 537.84 490.03 L 525.89 490.03 L 525.89 478.08 M 537.84 525.89 L 525.89 525.89 L 525.89 537.84 M 537.84 525.89 L 585.65 525.89 L 585.65 490.03 L 537.84 490.03 M 59.76 585.65 L 11.95 585.65 L 11.95 549.79 L 59.76 549.79 M 59.76 549.79 L 119.52 549.79 M 59.76 585.65 L 119.52 585.65 M 119.52 549.79 L 179.28 549.79 M 119.52 585.65 L 179.28 585.65 M 179.28 585.65 L 239.04 585.65 M 191.23 537.84 L 191.23 549.79 L 179.28 549.79 M 239.04 549.79 L 227.09 549.79 L 227.09 537.84 M 239.04 585.65 L 286.85 585.65 L 286.85 549.79 L 239.04 549.79 M 346.61 537.84 L 346.61 544.58 L 346.61 585.65 L 310.75 585.65 L 310.75 537.84 M 418.32 549.79 L 406.37 549.79 L 406.37 537.84 M 418.32 585.65 L 370.51 585.65 L 370.51 537.84 M 418.32 585.65 L 478.08 585.65 M 430.27 537.84 L 430.27 549.79 L 418.32 549.79 M 478.08 549.79 L 466.13 549.79 L 466.13 537.84 M 478.08 585.65 L 537.84 585.65 M 490.03 537.84 L 490.03 549.79 L 478.08 549.79 M 537.84 549.79 L 525.89 549.79 L 525.89 537.84 " /> <circle cx="29.88" cy="29.88" r="19.92" fill-opacity="1.0" stroke-opacity="0" fill="#E51919" /><circle cx="567.72" cy="567.72" r="19.92" fill-opacity="1.0" stroke-opacity="0" fill="#E51919" />  </svg>