<svg id="maze" xmlns="http://www.w3.org/2000/svg" viewBox="0 0 597.6 597.6"  width="597.6px" height="597.6px" stroke-width="2" fill-opacity="0.0" stroke="black"> <path stroke-opacity="1.0" stroke-width="2" stroke="#000000" d="M 59.76 11.95 L 119.52 11.95 M 59.76 47.81 L 119.52 47.81 M 119.52 47.81 L 131.47 47.81 L 131.47 59.76 M 119.52 11.95 L 167.33 11.95 L 167.33 59.76 M 227.09 59.76 L 227.09 11.95 L 191.23 11.95 L 191.23 59.76 M 298.8 47.81 L 250.99 47.81 L 250.99 11.95 L 298.8 11.95 M 298.8 11.95 L 358.56 11.95 M 298.8 47.81 L 310.75 47.81 L 310.75 59.76 M 358.56 47.81 L 346.61 47.81 L 346.61 59.76 M 358.56 47.81 L 406.37 47.81 L 406.37 11.95 L 358.56 11.95 M 466.13 59.76 L 466.13 11.95 L 430.27 11.95 L 430.27 59.76 M 537.84 47.81 L 490.03 47.81 L 490.03 11.95 L 537.84 11.95 M 537.84 47.81 L 549.79 47.81 L 549.79 59.76 M 537.84 11.95 L 585.65 11.95 L 585.65 59.76 M 47.81 59.76 L 47.81 66.5 L 47.81 107.57 L 11.95 107.57 L 11.95 59.76 M 119.52 107.57 L 107.57 107.57 L 107.57 119.52 M 119.52 71.71 L 71.71 71.71 L 71.71 119.52 M 131.47 59.76 L 131.47 119.52 M 167.33 59.76 L 167.33 119.52 M 119.52 71.71 L 131.47 71.71 M 119.52 107.57 L 131.47 107.57 M 179.28 71.71 L 167.33 71.71 M 179.28 107.57 L 167.33 107.57 M 179.28 107.57 L 239.04 107.57 M 191.23 59.76 L 191.23 71.71 L 179.28 71.71 M 239.04 71.71 L 227.09 71.71 L 227.09 59.76 M 239.04 71.71 L 298.8 71.71 M 239.04 107.57 L 250.99 107.57 L 250.99 119.52 M 298.8 107.57 L 286.85 107.57 L 286.85 119.52 M 298.8 71.71 L 358.56 71.71 M 298.8 107.57 L 358.56 107.57 M 310.75 59.76 L 310.75 71.71 M 346.61 59.76 L 346.61 71.71 M 310.75 107.57 L 310.75 119.52 M 346.61 107.57 L 346.61 119.52 M 358.56 71.71 L 418.32 71.71 M 358.56 107.57 L 370.51 107.57 L 370.51 119.52 M 418.32 107.57 L 406.37 107.57 L 406.37 119.52 M 418.32 71.71 L 478.08 71.71 M 418.32 107.57 L 478.08 107.57 M 430.27 59.76 L 430.27 71.71 M 466.13 59.76 L 466.13 71.71 M 430.27 107.57 L 430.27 119.52 M 466.13 107.57 L 466.13 119.52 M 478.08 107.57 L 490.03 107.57 L 490.03 119.52 M 478.08 71.71 L 525.89 71.71 L 525.89 119.52 M 549.79 59.76 L 549.79 119.52 M 585.65 59.76 L 585.65 119.52 M 59.76 167.33 L 47.81 167.33 L 47.81 179.28 M 59.76 131.47 L 11.95 131.47 L 11.95 179.28 M 59.76 167.33 L 119.52 167.33 M 71.71 119.52 L 71.71 131.47 L 59.76 131.47 M 119.52 131.47 L 107.57 131.47 L 107.57 119.52 M 167.33 119.52 L 167.33 179.28 M 131.47 119.52 L 131.47 131.47 L 119.52 131.47 M 119.52 167.33 L 131.47 167.33 L 131.47 179.28 M 239.04 167.33 L 191.23 167.33 L 191.23 131.47 L 239.04 131.47 M 250.99 119.52 L 250.99 131.47 L 239.04 131.47 M 286.85 119.52 L 286.85 167.33 L 239.04 167.33 M 310.75 119.52 L 310.75 179.28 M 358.56 131.47 L 346.61 131.47 L 346.61 119.52 M 358.56 167.33 L 346.61 167.33 L 346.61 179.28 M 370.51 119.52 L 370.51 179.28 M 406.37 119.52 L 406.37 179.28 M 358.56 131.47 L 370.51 131.47 M 358.56 167.33 L 370.51 167.33 M 418.32 131.47 L 406.37 131.47 M 418.32 167.33 L 406.37 167.33 M 430.27 119.52 L 430.27 131.47 L 418.32 131.47 M 418.32 167.33 L 430.27 167.33 L 430.27 179.28 M 478.08 131.47 L 466.13 131.47 L 466.13 119.52 M 478.08 167.33 L 466.13 167.33 L 466.13 179.28 M 478.08 131.47 L 537.84 131.47 M 478.08 167.33 L 537.84 167.33 M 490.03 119.52 L 490.03 131.47 M 525.89 119.52 L 525.89 131.47 M 490.03 167.33 L 490.03 179.28 M 525.89 167.33 L 525.89 179.28 M 549.79 119.52 L 549.79 131.47 L 537.84 131.47 M 585.65 119.52 L 585.65 167.33 L 537.84 167.33 M 11.95 179.28 L 11.95 239.04 M 47.81 179.28 L 47.81 239.04 M 119.52 227.09 L 107.57 227.09 L 107.57 239.04 M 119.52 191.23 L 71.71 191.23 L 71.71 239.04 M 119.52 191.23 L 179.28 191.23 M 119.52 227.09 L 179.28 227.09 M 131.47 179.28 L 131.47 191.23 M 167.33 179.28 L 167.33 191.23 M 131.47 227.09 L 131.47 239.04 M 167.33 227.09 L 167.33 239.04 M 179.28 227.09 L 191.23 227.09 L 191.23 239.04 M 179.28 191.23 L 227.09 191.23 L 227.09 239.04 M 298.8 227.09 L 286.85 227.09 L 286.85 239.04 M 298.8 191.23 L 250.99 191.23 L 250.99 239.04 M 298.8 191.23 L 358.56 191.23 M 298.8 227.09 L 358.56 227.09 M 310.75 179.28 L 310.75 191.23 M 346.61 179.28 L 346.61 191.23 M 310.75 227.09 L 310.75 239.04 M 346.61 227.09 L 346.61 239.04 M 406.37 179.28 L 406.37 239.04 M 370.51 179.28 L 370.51 191.23 L 358.56 191.23 M 358.56 227.09 L 370.51 227.09 L 370.51 239.04 M 478.08 191.23 L 466.13 191.23 L 466.13 179.28 M 478.08 227.09 L 430.27 227.09 L 430.27 179.28 M 525.89 179.28 L 525.89 239.04 M 490.03 179.28 L 490.03 191.23 L 478.08 191.23 M 478.08 227.09 L 490.03 227.09 L 490.03 239.04 M 585.65 239.04 L 585.65 191.23 L 549.79 191.23 L 549.79 239.04 M 47.81 239.04 L 47.81 245.78 L 47.81 286.85 L 11.95 286.85 L 11.95 239.04 M 119.52 250.99 L 107.57 250.99 L 107.57 239.04 M 119.52 286.85 L 71.71 286.85 L 71.71 239.04 M 167.33 239.04 L 167.33 298.8 M 131.47 239.04 L 131.47 250.99 L 119.52 250.99 M 119.52 286.85 L 131.47 286.85 L 131.47 298.8 M 227.09 239.04 L 227.09 245.78 L 227.09 286.85 L 191.23 286.85 L 191.23 239.04 M 286.85 239.04 L 286.85 245.78 L 286.85 286.85 L 250.99 286.85 L 250.99 239.04 M 346.61 239.04 L 346.61 245.78 L 346.61 286.85 L 310.75 286.85 L 310.75 239.04 M 406.37 239.04 L 406.37 245.78 L 406.37 286.85 L 370.51 286.85 L 370.51 239.04 M 478.08 286.85 L 466.13 286.85 L 466.13 298.8 M 478.08 250.99 L 430.27 250.99 L 430.27 298.8 M 478.08 250.99 L 537.84 250.99 M 478.08 286.85 L 537.84 286.85 M 490.03 239.04 L 490.03 250.99 M 525.89 239.04 L 525.89 250.99 M 490.03 286.85 L 490.03 298.8 M 525.89 286.85 L 525.89 298.8 M 549.79 239.04 L 549.79 250.99 L 537.84 250.99 M 585.65 239.04 L 585.65 286.85 L 537.84 286.85 M 59.76 346.61 L 11.95 346.61 L 11.95 310.75 L 59.76 310.75 M 59.76 346.61 L 71.71 346.61 L 71.71 358.56 M 59.76 310.75 L 107.57 310.75 L 107.57 358.56 M 131.47 298.8 L 131.47 358.56 M 167.33 298.8 L 167.33 358.56 M 239.04 346.61 L 227.09 346.61 L 227.09 358.56 M 239.04 310.75 L 191.23 310.75 L 191.23 358.56 M 239.04 346.61 L 286.85 346.61 L 286.85 310.75 L 239.04 310.75 M 358.56 346.61 L 346.61 346.61 L 346.61 358.56 M 358.56 310.75 L 310.75 310.75 L 310.75 358.56 M 358.56 346.61 L 370.51 346.61 L 370.51 358.56 M 358.56 310.75 L 406.37 310.75 L 406.37 358.56 M 478.08 310.75 L 466.13 310.75 L 466.13 298.8 M 478.08 346.61 L 430.27 346.61 L 430.27 298.8 M 525.89 298.8 L 525.89 358.56 M 490.03 298.8 L 490.03 310.75 L 478.08 310.75 M 478.08 346.61 L 490.03 346.61 L 490.03 358.56 M 585.65 358.56 L 585.65 310.75 L 549.79 310.75 L 549.79 358.56 M 59.76 406.37 L 47.81 406.37 L 47.81 418.32 M 59.76 370.51 L 11.95 370.51 L 11.95 418.32 M 59.76 370.51 L 119.52 370.51 M 59.76 406.37 L 119.52 406.37 M 71.71 358.56 L 71.71 370.51 M 107.57 358.56 L 107.57 370.51 M 71.71 406.37 L 71.71 418.32 M 107.57 406.37 L 107.57 418.32 M 131.47 358.56 L 131.47 370.51 L 119.52 370.51 M 119.52 406.37 L 131.47 406.37 L 131.47 418.32 M 179.28 370.51 L 167.33 370.51 L 167.33 358.56 M 179.28 406.37 L 167.33 406.37 L 167.33 418.32 M 191.23 358.56 L 191.23 370.51 L 179.28 370.51 M 227.09 358.56 L 227.09 406.37 L 179.28 406.37 M 298.8 406.37 L 286.85 406.37 L 286.85 418.32 M 298.8 370.51 L 250.99 370.51 L 250.99 418.32 M 298.8 370.51 L 358.56 370.51 M 298.8 406.37 L 358.56 406.37 M 310.75 358.56 L 310.75 370.51 M 346.61 358.56 L 346.61 370.51 M 310.75 406.37 L 310.75 418.32 M 346.61 406.37 L 346.61 418.32 M 370.51 358.56 L 370.51 370.51 L 358.56 370.51 M 406.37 358.56 L 406.37 406.37 L 358.56 406.37 M 478.08 406.37 L 466.13 406.37 L 466.13 418.32 M 478.08 370.51 L 430.27 370.51 L 430.27 418.32 M 478.08 370.51 L 537.84 370.51 M 478.08 406.37 L 537.84 406.37 M 490.03 358.56 L 490.03 370.51 M 525.89 358.56 L 525.89 370.51 M 490.03 406.37 L 490.03 418.32 M 525.89 406.37 L 525.89 418.32 M 549.79 358.56 L 549.79 370.51 L 537.84 370.51 M 585.65 358.56 L 585.65 406.37 L 537.84 406.37 M 47.81 418.32 L 47.81 425.06 L 47.81 466.13 L 11.95 466.13 L 11.95 418.32 M 71.71 418.32 L 71.71 478.08 M 119.52 430.27 L 107.57 430.27 L 107.57 418.32 M 119.52 466.13 L 107.57 466.13 L 107.57 478.08 M 167.33 418.32 L 167.33 478.08 M 131.47 418.32 L 131.47 430.27 L 119.52 430.27 M 119.52 466.13 L 131.47 466.13 L 131.47 478.08 M 239.04 466.13 L 227.09 466.13 L 227.09 478.08 M 239.04 430.27 L 191.23 430.27 L 191.23 478.08 M 239.04 430.27 L 298.8 430.27 M 239.04 466.13 L 298.8 466.13 M 250.99 418.32 L 250.99 430.27 M 286.85 418.32 L 286.85 430.27 M 250.99 466.13 L 250.99 478.08 M 286.85 466.13 L 286.85 478.08 M 310.75 418.32 L 310.75 430.27 L 298.8 430.27 M 346.61 418.32 L 346.61 466.13 L 298.8 466.13 M 418.32 466.13 L 370.51 466.13 L 370.51 430.27 L 418.32 430.27 M 430.27 418.32 L 430.27 478.08 M 466.13 418.32 L 466.13 478.08 M 418.32 430.27 L 430.27 430.27 M 418.32 466.13 L 430.27 466.13 M 478.08 430.27 L 466.13 430.27 M 478.08 466.13 L 466.13 466.13 M 490.03 418.32 L 490.03 430.27 L 478.08 430.27 M 478.08 466.13 L 490.03 466.13 L 490.03 478.08 M 537.84 430.27 L 525.89 430.27 L 525.89 418.32 M 537.84 466.13 L 525.89 466.13 L 525.89 478.08 M 537.84 466.13 L 585.65 466.13 L 585.65 430.27 L 537.84 430.27 M 59.76 525.89 L 47.81 525.89 L 47.81 537.84 M 59.76 490.03 L 11.95 490.03 L 11.95 537.84 M 71.71 478.08 L 71.71 490.03 L 59.76 490.03 M 59.76 525.89 L 71.71 525.89 L 71.71 537.84 M 119.52 490.03 L 107.57 490.03 L 107.57 478.08 M 119.52 525.89 L 107.57 525.89 L 107.57 537.84 M 131.47 478.08 L 131.47 537.84 M 167.33 478.08 L 167.33 537.84 M 119.52 490.03 L 131.47 490.03 M 119.52 525.89 L 131.47 525.89 M 179.28 490.03 L 167.33 490.03 M 179.28 525.89 L 167.33 525.89 M 191.23 478.08 L 191.23 490.03 L 179.28 490.03 M 227.09 478.08 L 227.09 525.89 L 179.28 525.89 M 250.99 478.08 L 250.99 537.84 M 286.85 478.08 L 286.85 537.84 M 358.56 525.89 L 346.61 525.89 L 346.61 537.84 M 358.56 490.03 L 310.75 490.03 L 310.75 537.84 M 358.56 490.03 L 418.32 490.03 M 358.56 525.89 L 370.51 525.89 L 370.51 537.84 M 418.32 525.89 L 406.37 525.89 L 406.37 537.84 M 418.32 525.89 L 478.08 525.89 M 430.27 478.08 L 430.27 490.03 L 418.32 490.03 M 478.08 490.03 L 466.13 490.03 L 466.13 478.08 M 478.08 490.03 L 537.84 490.03 M 478.08 525.89 L 537.84 525.89 M 490.03 478.08 L 490.03 490.03 M 525.89 478.08 L 525.89 490.03 M 490.03 525.89 L 490.03 537.84 M 525.89 525.89 L 525.89 537.84 M 537.84 525.89 L 585.65 525.89 L 585.65 490.03 L 537.84 490.03 M 47.81 537.84 L 47.81 544.58 L 47.81 585.65 L 11.95 585.65 L 11.95 537.84 M 107.57 537.84 L 107.57 544.58 L 107.57 585.65 L 71.71 585.65 L 71.71 537.84 M 179.28 549.79 L 167.33 549.79 L 167.33 537.84 M 179.28 585.65 L 131.47 585.65 L 131.47 537.84 M 179.28 585.65 L 227.09 585.65 L 227.09 549.79 L 179.28 549.79 M 286.85 537.84 L 286.85 544.58 L 286.85 585.65 L 250.99 585.65 L 250.99 537.84 M 346.61 537.84 L 346.61 544.58 L 346.61 585.65 L 310.75 585.65 L 310.75 537.84 M 418.32 549.79 L 406.37 549.79 L 406.37 537.84 M 418.32 585.65 L 370.51 585.65 L 370.51 537.84 M 418.32 549.79 L 478.08 549.79 M 418.32 585.65 L 478.08 585.65 M 478.08 585.65 L 537.84 585.65 M 490.03 537.84 L 490.03 549.79 L 478.08 549.79 M 537.84 549.79 L 525.89 549.79 L 525.89 537.84 " /> <circle cx="29.88" cy="29.88" r="19.92" fill-opacity="1.0" stroke-opacity="0" fill="#E51919" /><circle cx="567.72" cy="567.72" r="19.92" fill-opacity="1.0" stroke-opacity="0" fill="#E51919" /> <path stroke-opacity="1.0" stroke-width="5" stroke="#E51919" d="M 29.88 29.88 L 59.76 29.88 M 59.76 29.88 L 119.52 29.88 M 119.52 29.88 L 149.4 29.88 L 149.4 59.76 M 149.4 119.52 L 149.4 149.4 L 119.52 149.4 M 149.4 59.76 L 149.4 119.52 M 119.52 149.4 L 89.64 149.4 L 89.64 119.52 M 119.52 89.64 L 89.64 89.64 L 89.64 119.52 M 179.28 89.64 L 239.04 89.64 M 119.52 89.64 L 131.47 89.64 M 179.28 89.64 L 167.33 89.64 M 239.04 89.64 L 298.8 89.64 M 358.56 89.64 L 418.32 89.64 M 298.8 89.64 L 358.56 89.64 M 478.08 89.64 L 507.96 89.64 L 507.96 119.52 M 418.32 89.64 L 478.08 89.64 M 507.96 179.28 L 507.96 239.04 M 507.96 119.52 L 507.96 131.47 M 507.96 179.28 L 507.96 167.33 M 507.96 298.8 L 507.96 358.56 M 507.96 239.04 L 507.96 250.99 M 507.96 298.8 L 507.96 286.85 M 507.96 418.32 L 507.96 478.08 M 507.96 358.56 L 507.96 370.51 M 507.96 418.32 L 507.96 406.37 M 567.72 567.72 L 537.84 567.72 M 537.84 567.72 L 507.96 567.72 L 507.96 537.84 M 507.96 478.08 L 507.96 490.03 M 507.96 537.84 L 507.96 525.89 " />  <path stroke-opacity="0.2" stroke-width="5" stroke="#E51919" d="M 29.88 29.88 L 59.76 29.88 M 131.47 89.64 L 149.4 89.64 M 167.33 89.64 L 149.4 89.64 M 507.96 131.47 L 507.96 149.4 M 507.96 167.33 L 507.96 149.4 M 507.96 250.99 L 507.96 268.92 M 507.96 286.85 L 507.96 268.92 M 507.96 370.51 L 507.96 388.44 M 507.96 406.37 L 507.96 388.44 M 567.72 567.72 L 537.84 567.72 M 507.96 490.03 L 507.96 507.96 M 507.96 525.89 L 507.96 507.96 " />   </svg>