<svg id="maze" xmlns="http://www.w3.org/2000/svg" viewBox="0 0 597.6 597.6"  width="597.6px" height="597.6px" stroke-width="2" fill-opacity="0.0" stroke="black"> <path stroke-opacity="1.0" stroke-width="2" stroke="#000000" d="M 59.76 47.81 L 71.71 47.81 L 71.71 59.76 M 59.76 11.95 L 107.57 11.95 L 107.57 59.76 M 179.28 47.81 L 167.33 47.81 L 167.33 59.76 M 179.28 11.95 L 131.47 11.95 L 131.47 59.76 M 179.28 11.95 L 239.04 11.95 M 179.28 47.81 L 239.04 47.81 M 239.04 11.95 L 298.8 11.95 M 239.04 47.81 L 250.99 47.81 L 250.99 59.76 M 298.8 47.81 L 286.85 47.81 L 286.85 59.76 M 298.8 47.81 L 310.75 47.81 L 310.75 59.76 M 298.8 11.95 L 346.61 11.95 L 346.61 59.76 M 418.32 47.81 L 370.51 47.81 L 370.51 11.95 L 418.32 11.95 M 418.32 11.95 L 478.08 11.95 M 418.32 47.81 L 430.27 47.81 L 430.27 59.76 M 478.08 47.81 L 466.13 47.81 L 466.13 59.76 M 478.08 11.95 L 537.84 11.95 M 478.08 47.81 L 490.03 47.81 L 490.03 59.76 M 537.84 47.81 L 525.89 47.81 L 525.89 59.76 M 537.84 47.81 L 585.65 47.81 L 585.65 11.95 L 537.84 11.95 M 59.76 107.57 L 47.81 107.57 L 47.81 119.52 M 59.76 71.71 L 11.95 71.71 L 11.95 119.52 M 71.71 59.76 L 71.71 71.71 L 59.76 71.71 M 59.76 107.57 L 71.71 107.57 L 71.71 119.52 M 119.52 71.71 L 107.57 71.71 L 107.57 59.76 M 119.52 107.57 L 107.57 107.57 L 107.57 119.52 M 119.52 71.71 L 179.28 71.71 M 119.52 107.57 L 179.28 107.57 M 131.47 59.76 L 131.47 71.71 M 167.33 59.76 L 167.33 71.71 M 131.47 107.57 L 131.47 119.52 M 167.33 107.57 L 167.33 119.52 M 179.28 107.57 L 191.23 107.57 L 191.23 119.52 M 179.28 71.71 L 227.09 71.71 L 227.09 119.52 M 250.99 59.76 L 250.99 119.52 M 298.8 71.71 L 286.85 71.71 L 286.85 59.76 M 298.8 107.57 L 286.85 107.57 L 286.85 119.52 M 298.8 71.71 L 358.56 71.71 M 298.8 107.57 L 358.56 107.57 M 310.75 59.76 L 310.75 71.71 M 346.61 59.76 L 346.61 71.71 M 310.75 107.57 L 310.75 119.52 M 346.61 107.57 L 346.61 119.52 M 358.56 71.71 L 418.32 71.71 M 358.56 107.57 L 418.32 107.57 M 418.32 71.71 L 478.08 71.71 M 418.32 107.57 L 478.08 107.57 M 430.27 59.76 L 430.27 71.71 M 466.13 59.76 L 466.13 71.71 M 430.27 107.57 L 430.27 119.52 M 466.13 107.57 L 466.13 119.52 M 478.08 107.57 L 537.84 107.57 M 490.03 59.76 L 490.03 71.71 L 478.08 71.71 M 537.84 71.71 L 525.89 71.71 L 525.89 59.76 M 537.84 107.57 L 549.79 107.57 L 549.79 119.52 M 537.84 71.71 L 585.65 71.71 L 585.65 119.52 M 47.81 119.52 L 47.81 126.26 L 47.81 167.33 L 11.95 167.33 L 11.95 119.52 M 107.57 119.52 L 107.57 126.26 L 107.57 167.33 L 71.71 167.33 L 71.71 119.52 M 167.33 119.52 L 167.33 126.26 L 167.33 167.33 L 131.47 167.33 L 131.47 119.52 M 191.23 119.52 L 191.23 179.28 M 239.04 131.47 L 227.09 131.47 L 227.09 119.52 M 239.04 167.33 L 227.09 167.33 L 227.09 179.28 M 239.04 131.47 L 298.8 131.47 M 239.04 167.33 L 298.8 167.33 M 250.99 119.52 L 250.99 131.47 M 286.85 119.52 L 286.85 131.47 M 250.99 167.33 L 250.99 179.28 M 286.85 167.33 L 286.85 179.28 M 298.8 167.33 L 358.56 167.33 M 310.75 119.52 L 310.75 131.47 L 298.8 131.47 M 358.56 131.47 L 346.61 131.47 L 346.61 119.52 M 358.56 167.33 L 370.51 167.33 L 370.51 179.28 M 358.56 131.47 L 406.37 131.47 L 406.37 179.28 M 466.13 119.52 L 466.13 126.26 L 466.13 167.33 L 430.27 167.33 L 430.27 119.52 M 525.89 179.28 L 525.89 131.47 L 490.03 131.47 L 490.03 179.28 M 585.65 119.52 L 585.65 126.26 L 585.65 167.33 L 549.79 167.33 L 549.79 119.52 M 59.76 227.09 L 11.95 227.09 L 11.95 191.23 L 59.76 191.23 M 59.76 191.23 L 119.52 191.23 M 59.76 227.09 L 71.71 227.09 L 71.71 239.04 M 119.52 227.09 L 107.57 227.09 L 107.57 239.04 M 119.52 227.09 L 167.33 227.09 L 167.33 191.23 L 119.52 191.23 M 191.23 179.28 L 191.23 239.04 M 227.09 179.28 L 227.09 239.04 M 286.85 179.28 L 286.85 186.02 L 286.85 227.09 L 250.99 227.09 L 250.99 179.28 M 358.56 227.09 L 346.61 227.09 L 346.61 239.04 M 358.56 191.23 L 310.75 191.23 L 310.75 239.04 M 358.56 191.23 L 418.32 191.23 M 358.56 227.09 L 418.32 227.09 M 370.51 179.28 L 370.51 191.23 M 406.37 179.28 L 406.37 191.23 M 370.51 227.09 L 370.51 239.04 M 406.37 227.09 L 406.37 239.04 M 418.32 191.23 L 478.08 191.23 M 418.32 227.09 L 430.27 227.09 L 430.27 239.04 M 478.08 227.09 L 466.13 227.09 L 466.13 239.04 M 478.08 191.23 L 537.84 191.23 M 478.08 227.09 L 537.84 227.09 M 490.03 179.28 L 490.03 191.23 M 525.89 179.28 L 525.89 191.23 M 490.03 227.09 L 490.03 239.04 M 525.89 227.09 L 525.89 239.04 M 537.84 227.09 L 549.79 227.09 L 549.79 239.04 M 537.84 191.23 L 585.65 191.23 L 585.65 239.04 M 59.76 286.85 L 11.95 286.85 L 11.95 250.99 L 59.76 250.99 M 71.71 239.04 L 71.71 298.8 M 107.57 239.04 L 107.57 298.8 M 59.76 250.99 L 71.71 250.99 M 59.76 286.85 L 71.71 286.85 M 119.52 250.99 L 107.57 250.99 M 119.52 286.85 L 107.57 286.85 M 119.52 250.99 L 179.28 250.99 M 119.52 286.85 L 131.47 286.85 L 131.47 298.8 M 179.28 286.85 L 167.33 286.85 L 167.33 298.8 M 179.28 250.99 L 239.04 250.99 M 179.28 286.85 L 239.04 286.85 M 191.23 239.04 L 191.23 250.99 M 227.09 239.04 L 227.09 250.99 M 191.23 286.85 L 191.23 298.8 M 227.09 286.85 L 227.09 298.8 M 239.04 250.99 L 298.8 250.99 M 239.04 286.85 L 250.99 286.85 L 250.99 298.8 M 298.8 286.85 L 286.85 286.85 L 286.85 298.8 M 310.75 239.04 L 310.75 298.8 M 346.61 239.04 L 346.61 298.8 M 298.8 250.99 L 310.75 250.99 M 298.8 286.85 L 310.75 286.85 M 358.56 250.99 L 346.61 250.99 M 358.56 286.85 L 346.61 286.85 M 358.56 286.85 L 418.32 286.85 M 370.51 239.04 L 370.51 250.99 L 358.56 250.99 M 418.32 250.99 L 406.37 250.99 L 406.37 239.04 M 430.27 239.04 L 430.27 298.8 M 466.13 239.04 L 466.13 298.8 M 418.32 250.99 L 430.27 250.99 M 418.32 286.85 L 430.27 286.85 M 478.08 250.99 L 466.13 250.99 M 478.08 286.85 L 466.13 286.85 M 490.03 239.04 L 490.03 250.99 L 478.08 250.99 M 525.89 239.04 L 525.89 286.85 L 478.08 286.85 M 585.65 239.04 L 585.65 245.78 L 585.65 286.85 L 549.79 286.85 L 549.79 239.04 M 59.76 346.61 L 11.95 346.61 L 11.95 310.75 L 59.76 310.75 M 71.71 298.8 L 71.71 310.75 L 59.76 310.75 M 59.76 346.61 L 71.71 346.61 L 71.71 358.56 M 119.52 310.75 L 107.57 310.75 L 107.57 298.8 M 119.52 346.61 L 107.57 346.61 L 107.57 358.56 M 119.52 310.75 L 179.28 310.75 M 119.52 346.61 L 179.28 346.61 M 131.47 298.8 L 131.47 310.75 M 167.33 298.8 L 167.33 310.75 M 131.47 346.61 L 131.47 358.56 M 167.33 346.61 L 167.33 358.56 M 191.23 298.8 L 191.23 310.75 L 179.28 310.75 M 227.09 298.8 L 227.09 346.61 L 179.28 346.61 M 250.99 298.8 L 250.99 358.56 M 286.85 298.8 L 286.85 358.56 M 346.61 298.8 L 346.61 305.54 L 346.61 346.61 L 310.75 346.61 L 310.75 298.8 M 418.32 346.61 L 370.51 346.61 L 370.51 310.75 L 418.32 310.75 M 430.27 298.8 L 430.27 310.75 L 418.32 310.75 M 418.32 346.61 L 430.27 346.61 L 430.27 358.56 M 478.08 310.75 L 466.13 310.75 L 466.13 298.8 M 478.08 346.61 L 466.13 346.61 L 466.13 358.56 M 478.08 310.75 L 537.84 310.75 M 478.08 346.61 L 537.84 346.61 M 537.84 346.61 L 585.65 346.61 L 585.65 310.75 L 537.84 310.75 M 59.76 406.37 L 11.95 406.37 L 11.95 370.51 L 59.76 370.51 M 71.71 358.56 L 71.71 418.32 M 107.57 358.56 L 107.57 418.32 M 59.76 370.51 L 71.71 370.51 M 59.76 406.37 L 71.71 406.37 M 119.52 370.51 L 107.57 370.51 M 119.52 406.37 L 107.57 406.37 M 119.52 406.37 L 179.28 406.37 M 131.47 358.56 L 131.47 370.51 L 119.52 370.51 M 179.28 370.51 L 167.33 370.51 L 167.33 358.56 M 179.28 406.37 L 191.23 406.37 L 191.23 418.32 M 179.28 370.51 L 227.09 370.51 L 227.09 418.32 M 250.99 358.56 L 250.99 418.32 M 286.85 358.56 L 286.85 418.32 M 346.61 418.32 L 346.61 370.51 L 310.75 370.51 L 310.75 418.32 M 418.32 406.37 L 406.37 406.37 L 406.37 418.32 M 418.32 370.51 L 370.51 370.51 L 370.51 418.32 M 418.32 370.51 L 478.08 370.51 M 418.32 406.37 L 478.08 406.37 M 430.27 358.56 L 430.27 370.51 M 466.13 358.56 L 466.13 370.51 M 430.27 406.37 L 430.27 418.32 M 466.13 406.37 L 466.13 418.32 M 478.08 370.51 L 537.84 370.51 M 478.08 406.37 L 537.84 406.37 M 537.84 406.37 L 585.65 406.37 L 585.65 370.51 L 537.84 370.51 M 47.81 478.08 L 47.81 430.27 L 11.95 430.27 L 11.95 478.08 M 107.57 418.32 L 107.57 425.06 L 107.57 466.13 L 71.71 466.13 L 71.71 418.32 M 179.28 466.13 L 167.33 466.13 L 167.33 478.08 M 179.28 430.27 L 131.47 430.27 L 131.47 478.08 M 179.28 466.13 L 239.04 466.13 M 191.23 418.32 L 191.23 430.27 L 179.28 430.27 M 239.04 430.27 L 227.09 430.27 L 227.09 418.32 M 239.04 430.27 L 298.8 430.27 M 239.04 466.13 L 298.8 466.13 M 250.99 418.32 L 250.99 430.27 M 286.85 418.32 L 286.85 430.27 M 250.99 466.13 L 250.99 478.08 M 286.85 466.13 L 286.85 478.08 M 310.75 418.32 L 310.75 430.27 L 298.8 430.27 M 298.8 466.13 L 310.75 466.13 L 310.75 478.08 M 358.56 430.27 L 346.61 430.27 L 346.61 418.32 M 358.56 466.13 L 346.61 466.13 L 346.61 478.08 M 370.51 418.32 L 370.51 478.08 M 406.37 418.32 L 406.37 478.08 M 358.56 430.27 L 370.51 430.27 M 358.56 466.13 L 370.51 466.13 M 418.32 430.27 L 406.37 430.27 M 418.32 466.13 L 406.37 466.13 M 430.27 418.32 L 430.27 430.27 L 418.32 430.27 M 418.32 466.13 L 430.27 466.13 L 430.27 478.08 M 478.08 430.27 L 466.13 430.27 L 466.13 418.32 M 478.08 466.13 L 466.13 466.13 L 466.13 478.08 M 478.08 430.27 L 537.84 430.27 M 478.08 466.13 L 537.84 466.13 M 537.84 466.13 L 549.79 466.13 L 549.79 478.08 M 537.84 430.27 L 585.65 430.27 L 585.65 478.08 M 59.76 490.03 L 47.81 490.03 L 47.81 478.08 M 59.76 525.89 L 11.95 525.89 L 11.95 478.08 M 59.76 490.03 L 119.52 490.03 M 59.76 525.89 L 119.52 525.89 M 119.52 490.03 L 179.28 490.03 M 119.52 525.89 L 179.28 525.89 M 131.47 478.08 L 131.47 490.03 M 167.33 478.08 L 167.33 490.03 M 131.47 525.89 L 131.47 537.84 M 167.33 525.89 L 167.33 537.84 M 179.28 525.89 L 191.23 525.89 L 191.23 537.84 M 179.28 490.03 L 227.09 490.03 L 227.09 537.84 M 250.99 478.08 L 250.99 537.84 M 298.8 490.03 L 286.85 490.03 L 286.85 478.08 M 298.8 525.89 L 286.85 525.89 L 286.85 537.84 M 310.75 478.08 L 310.75 537.84 M 346.61 478.08 L 346.61 537.84 M 298.8 490.03 L 310.75 490.03 M 298.8 525.89 L 310.75 525.89 M 358.56 490.03 L 346.61 490.03 M 358.56 525.89 L 346.61 525.89 M 358.56 525.89 L 418.32 525.89 M 370.51 478.08 L 370.51 490.03 L 358.56 490.03 M 418.32 490.03 L 406.37 490.03 L 406.37 478.08 M 418.32 490.03 L 478.08 490.03 M 418.32 525.89 L 478.08 525.89 M 430.27 478.08 L 430.27 490.03 M 466.13 478.08 L 466.13 490.03 M 430.27 525.89 L 430.27 537.84 M 466.13 525.89 L 466.13 537.84 M 478.08 525.89 L 525.89 525.89 L 525.89 490.03 L 478.08 490.03 M 549.79 478.08 L 549.79 537.84 M 585.65 478.08 L 585.65 537.84 M 59.76 585.65 L 11.95 585.65 L 11.95 549.79 L 59.76 549.79 M 59.76 549.79 L 119.52 549.79 M 59.76 585.65 L 119.52 585.65 M 119.52 585.65 L 179.28 585.65 M 131.47 537.84 L 131.47 549.79 L 119.52 549.79 M 179.28 549.79 L 167.33 549.79 L 167.33 537.84 M 191.23 537.84 L 191.23 549.79 L 179.28 549.79 M 227.09 537.84 L 227.09 585.65 L 179.28 585.65 M 286.85 537.84 L 286.85 544.58 L 286.85 585.65 L 250.99 585.65 L 250.99 537.84 M 346.61 537.84 L 346.61 544.58 L 346.61 585.65 L 310.75 585.65 L 310.75 537.84 M 418.32 585.65 L 370.51 585.65 L 370.51 549.79 L 418.32 549.79 M 430.27 537.84 L 430.27 549.79 L 418.32 549.79 M 466.13 537.84 L 466.13 585.65 L 418.32 585.65 M 537.84 585.65 L 490.03 585.65 L 490.03 549.79 L 537.84 549.79 " /> <circle cx="29.88" cy="29.88" r="19.92" fill-opacity="1.0" stroke-opacity="0" fill="#E51919" /><circle cx="567.72" cy="567.72" r="19.92" fill-opacity="1.0" stroke-opacity="0" fill="#E51919" /> <path stroke-opacity="1.0" stroke-width="5" stroke="#E51919" d="M 29.88 29.88 L 59.76 29.88 M 59.76 29.88 L 89.64 29.88 L 89.64 59.76 M 119.52 89.64 L 89.64 89.64 L 89.64 59.76 M 179.28 89.64 L 209.16 89.64 L 209.16 119.52 M 119.52 89.64 L 179.28 89.64 M 239.04 149.4 L 209.16 149.4 L 209.16 119.52 M 298.8 149.4 L 358.56 149.4 M 239.04 149.4 L 298.8 149.4 M 358.56 149.4 L 388.44 149.4 L 388.44 179.28 M 388.44 239.04 L 388.44 268.92 L 358.56 268.92 M 388.44 179.28 L 388.44 191.23 M 388.44 239.04 L 388.44 227.09 M 239.04 268.92 L 298.8 268.92 M 298.8 268.92 L 310.75 268.92 M 358.56 268.92 L 346.61 268.92 M 179.28 268.92 L 149.4 268.92 L 149.4 298.8 M 179.28 268.92 L 239.04 268.92 M 179.28 388.44 L 149.4 388.44 L 149.4 358.56 M 149.4 298.8 L 149.4 310.75 M 149.4 358.56 L 149.4 346.61 M 179.28 388.44 L 209.16 388.44 L 209.16 418.32 M 239.04 448.2 L 209.16 448.2 L 209.16 418.32 M 298.8 448.2 L 358.56 448.2 M 239.04 448.2 L 298.8 448.2 M 418.32 448.2 L 478.08 448.2 M 358.56 448.2 L 370.51 448.2 M 418.32 448.2 L 406.37 448.2 M 478.08 448.2 L 537.84 448.2 M 537.84 448.2 L 567.72 448.2 L 567.72 478.08 M 567.72 537.84 L 567.72 567.72 M 567.72 478.08 L 567.72 537.84 " />  <path stroke-opacity="0.2" stroke-width="5" stroke="#E51919" d="M 29.88 29.88 L 59.76 29.88 M 388.44 191.23 L 388.44 209.16 M 388.44 227.09 L 388.44 209.16 M 310.75 268.92 L 328.68 268.92 M 346.61 268.92 L 328.68 268.92 M 149.4 310.75 L 149.4 328.68 M 149.4 346.61 L 149.4 328.68 M 370.51 448.2 L 388.44 448.2 M 406.37 448.2 L 388.44 448.2 M 567.72 537.84 L 567.72 567.72 " />   </svg>