<svg id="maze" xmlns="http://www.w3.org/2000/svg" viewBox="0 0 597.6 597.6"  width="597.6px" height="597.6px" stroke-width="2" fill-opacity="0.0" stroke="black"> <path stroke-opacity="1.0" stroke-width="2" stroke="#000000" d="M 107.57 59.76 L 107.57 11.95 L 71.71 11.95 L 71.71 59.76 M 179.28 47.81 L 131.47 47.81 L 131.47 11.95 L 179.28 11.95 M 179.28 47.81 L 191.23 47.81 L 191.23 59.76 M 179.28 11.95 L 227.09 11.95 L 227.09 59.76 M 298.8 47.81 L 250.99 47.81 L 250.99 11.95 L 298.8 11.95 M 298.8 11.95 L 358.56 11.95 M 298.8 47.81 L 310.75 47.81 L 310.75 59.76 M 358.56 47.81 L 346.61 47.81 L 346.61 59.76 M 358.56 11.95 L 418.32 11.95 M 358.56 47.81 L 418.32 47.81 M 418.32 47.81 L 430.27 47.81 L 430.27 59.76 M 418.32 11.95 L 466.13 11.95 L 466.13 59.76 M 537.84 47.81 L 525.89 47.81 L 525.89 59.76 M 537.84 11.95 L 490.03 11.95 L 490.03 59.76 M 537.84 47.81 L 585.65 47.81 L 585.65 11.95 L 537.84 11.95 M 11.95 59.76 L 11.95 119.52 M 59.76 71.71 L 47.81 71.71 L 47.81 59.76 M 59.76 107.57 L 47.81 107.57 L 47.81 119.52 M 59.76 71.71 L 119.52 71.71 M 59.76 107.57 L 119.52 107.57 M 71.71 59.76 L 71.71 71.71 M 107.57 59.76 L 107.57 71.71 M 71.71 107.57 L 71.71 119.52 M 107.57 107.57 L 107.57 119.52 M 119.52 71.71 L 179.28 71.71 M 119.52 107.57 L 131.47 107.57 L 131.47 119.52 M 179.28 107.57 L 167.33 107.57 L 167.33 119.52 M 191.23 59.76 L 191.23 119.52 M 227.09 59.76 L 227.09 119.52 M 179.28 71.71 L 191.23 71.71 M 179.28 107.57 L 191.23 107.57 M 239.04 71.71 L 227.09 71.71 M 239.04 107.57 L 227.09 107.57 M 239.04 71.71 L 298.8 71.71 M 239.04 107.57 L 250.99 107.57 L 250.99 119.52 M 298.8 107.57 L 286.85 107.57 L 286.85 119.52 M 310.75 59.76 L 310.75 119.52 M 346.61 59.76 L 346.61 119.52 M 298.8 71.71 L 310.75 71.71 M 298.8 107.57 L 310.75 107.57 M 358.56 71.71 L 346.61 71.71 M 358.56 107.57 L 346.61 107.57 M 358.56 71.71 L 418.32 71.71 M 358.56 107.57 L 418.32 107.57 M 430.27 59.76 L 430.27 119.52 M 466.13 59.76 L 466.13 119.52 M 418.32 71.71 L 430.27 71.71 M 418.32 107.57 L 430.27 107.57 M 478.08 71.71 L 466.13 71.71 M 478.08 107.57 L 466.13 107.57 M 490.03 59.76 L 490.03 71.71 L 478.08 71.71 M 478.08 107.57 L 490.03 107.57 L 490.03 119.52 M 537.84 71.71 L 525.89 71.71 L 525.89 59.76 M 537.84 107.57 L 525.89 107.57 L 525.89 119.52 M 537.84 107.57 L 585.65 107.57 L 585.65 71.71 L 537.84 71.71 M 47.81 119.52 L 47.81 126.26 L 47.81 167.33 L 11.95 167.33 L 11.95 119.52 M 71.71 119.52 L 71.71 179.28 M 119.52 131.47 L 107.57 131.47 L 107.57 119.52 M 119.52 167.33 L 107.57 167.33 L 107.57 179.28 M 119.52 131.47 L 179.28 131.47 M 119.52 167.33 L 179.28 167.33 M 131.47 119.52 L 131.47 131.47 M 167.33 119.52 L 167.33 131.47 M 131.47 167.33 L 131.47 179.28 M 167.33 167.33 L 167.33 179.28 M 191.23 119.52 L 191.23 131.47 L 179.28 131.47 M 179.28 167.33 L 191.23 167.33 L 191.23 179.28 M 239.04 131.47 L 227.09 131.47 L 227.09 119.52 M 239.04 167.33 L 227.09 167.33 L 227.09 179.28 M 250.99 119.52 L 250.99 179.28 M 286.85 119.52 L 286.85 179.28 M 239.04 131.47 L 250.99 131.47 M 239.04 167.33 L 250.99 167.33 M 298.8 131.47 L 286.85 131.47 M 298.8 167.33 L 286.85 167.33 M 310.75 119.52 L 310.75 131.47 L 298.8 131.47 M 346.61 119.52 L 346.61 167.33 L 298.8 167.33 M 406.37 179.28 L 406.37 131.47 L 370.51 131.47 L 370.51 179.28 M 466.13 119.52 L 466.13 126.26 L 466.13 167.33 L 430.27 167.33 L 430.27 119.52 M 537.84 131.47 L 525.89 131.47 L 525.89 119.52 M 537.84 167.33 L 490.03 167.33 L 490.03 119.52 M 537.84 167.33 L 549.79 167.33 L 549.79 179.28 M 537.84 131.47 L 585.65 131.47 L 585.65 179.28 M 59.76 227.09 L 11.95 227.09 L 11.95 191.23 L 59.76 191.23 M 71.71 179.28 L 71.71 191.23 L 59.76 191.23 M 107.57 179.28 L 107.57 227.09 L 59.76 227.09 M 131.47 179.28 L 131.47 239.04 M 179.28 191.23 L 167.33 191.23 L 167.33 179.28 M 179.28 227.09 L 167.33 227.09 L 167.33 239.04 M 227.09 179.28 L 227.09 239.04 M 191.23 179.28 L 191.23 191.23 L 179.28 191.23 M 179.28 227.09 L 191.23 227.09 L 191.23 239.04 M 286.85 179.28 L 286.85 186.02 L 286.85 227.09 L 250.99 227.09 L 250.99 179.28 M 346.61 239.04 L 346.61 191.23 L 310.75 191.23 L 310.75 239.04 M 418.32 191.23 L 406.37 191.23 L 406.37 179.28 M 418.32 227.09 L 370.51 227.09 L 370.51 179.28 M 418.32 227.09 L 430.27 227.09 L 430.27 239.04 M 418.32 191.23 L 466.13 191.23 L 466.13 239.04 M 525.89 239.04 L 525.89 191.23 L 490.03 191.23 L 490.03 239.04 M 585.65 179.28 L 585.65 186.02 L 585.65 227.09 L 549.79 227.09 L 549.79 179.28 M 59.76 286.85 L 47.81 286.85 L 47.81 298.8 M 59.76 250.99 L 11.95 250.99 L 11.95 298.8 M 59.76 250.99 L 119.52 250.99 M 59.76 286.85 L 119.52 286.85 M 119.52 250.99 L 179.28 250.99 M 119.52 286.85 L 179.28 286.85 M 131.47 239.04 L 131.47 250.99 M 167.33 239.04 L 167.33 250.99 M 131.47 286.85 L 131.47 298.8 M 167.33 286.85 L 167.33 298.8 M 227.09 239.04 L 227.09 298.8 M 191.23 239.04 L 191.23 250.99 L 179.28 250.99 M 179.28 286.85 L 191.23 286.85 L 191.23 298.8 M 298.8 286.85 L 250.99 286.85 L 250.99 250.99 L 298.8 250.99 M 310.75 239.04 L 310.75 298.8 M 346.61 239.04 L 346.61 298.8 M 298.8 250.99 L 310.75 250.99 M 298.8 286.85 L 310.75 286.85 M 358.56 250.99 L 346.61 250.99 M 358.56 286.85 L 346.61 286.85 M 358.56 250.99 L 418.32 250.99 M 358.56 286.85 L 418.32 286.85 M 466.13 239.04 L 466.13 298.8 M 430.27 239.04 L 430.27 250.99 L 418.32 250.99 M 418.32 286.85 L 430.27 286.85 L 430.27 298.8 M 490.03 239.04 L 490.03 298.8 M 537.84 250.99 L 525.89 250.99 L 525.89 239.04 M 537.84 286.85 L 525.89 286.85 L 525.89 298.8 M 537.84 286.85 L 585.65 286.85 L 585.65 250.99 L 537.84 250.99 M 47.81 298.8 L 47.81 305.54 L 47.81 346.61 L 11.95 346.61 L 11.95 298.8 M 107.57 358.56 L 107.57 310.75 L 71.71 310.75 L 71.71 358.56 M 179.28 310.75 L 167.33 310.75 L 167.33 298.8 M 179.28 346.61 L 131.47 346.61 L 131.47 298.8 M 179.28 310.75 L 239.04 310.75 M 179.28 346.61 L 239.04 346.61 M 191.23 298.8 L 191.23 310.75 M 227.09 298.8 L 227.09 310.75 M 191.23 346.61 L 191.23 358.56 M 227.09 346.61 L 227.09 358.56 M 239.04 310.75 L 298.8 310.75 M 239.04 346.61 L 298.8 346.61 M 298.8 346.61 L 358.56 346.61 M 310.75 298.8 L 310.75 310.75 L 298.8 310.75 M 358.56 310.75 L 346.61 310.75 L 346.61 298.8 M 358.56 310.75 L 418.32 310.75 M 358.56 346.61 L 370.51 346.61 L 370.51 358.56 M 418.32 346.61 L 406.37 346.61 L 406.37 358.56 M 418.32 310.75 L 478.08 310.75 M 418.32 346.61 L 478.08 346.61 M 430.27 298.8 L 430.27 310.75 M 466.13 298.8 L 466.13 310.75 M 430.27 346.61 L 430.27 358.56 M 466.13 346.61 L 466.13 358.56 M 490.03 298.8 L 490.03 310.75 L 478.08 310.75 M 525.89 298.8 L 525.89 346.61 L 478.08 346.61 M 585.65 358.56 L 585.65 310.75 L 549.79 310.75 L 549.79 358.56 M 59.76 406.37 L 11.95 406.37 L 11.95 370.51 L 59.76 370.51 M 59.76 370.51 L 119.52 370.51 M 59.76 406.37 L 119.52 406.37 M 71.71 358.56 L 71.71 370.51 M 107.57 358.56 L 107.57 370.51 M 71.71 406.37 L 71.71 418.32 M 107.57 406.37 L 107.57 418.32 M 119.52 370.51 L 179.28 370.51 M 119.52 406.37 L 131.47 406.37 L 131.47 418.32 M 179.28 406.37 L 167.33 406.37 L 167.33 418.32 M 191.23 358.56 L 191.23 370.51 L 179.28 370.51 M 227.09 358.56 L 227.09 406.37 L 179.28 406.37 M 298.8 406.37 L 286.85 406.37 L 286.85 418.32 M 298.8 370.51 L 250.99 370.51 L 250.99 418.32 M 298.8 370.51 L 358.56 370.51 M 298.8 406.37 L 310.75 406.37 L 310.75 418.32 M 358.56 406.37 L 346.61 406.37 L 346.61 418.32 M 358.56 370.51 L 418.32 370.51 M 358.56 406.37 L 418.32 406.37 M 370.51 358.56 L 370.51 370.51 M 406.37 358.56 L 406.37 370.51 M 370.51 406.37 L 370.51 418.32 M 406.37 406.37 L 406.37 418.32 M 418.32 406.37 L 478.08 406.37 M 430.27 358.56 L 430.27 370.51 L 418.32 370.51 M 478.08 370.51 L 466.13 370.51 L 466.13 358.56 M 478.08 370.51 L 537.84 370.51 M 478.08 406.37 L 490.03 406.37 L 490.03 418.32 M 537.84 406.37 L 525.89 406.37 L 525.89 418.32 M 549.79 358.56 L 549.79 370.51 L 537.84 370.51 M 585.65 358.56 L 585.65 406.37 L 537.84 406.37 M 47.81 478.08 L 47.81 430.27 L 11.95 430.27 L 11.95 478.08 M 119.52 430.27 L 107.57 430.27 L 107.57 418.32 M 119.52 466.13 L 71.71 466.13 L 71.71 418.32 M 131.47 418.32 L 131.47 478.08 M 167.33 418.32 L 167.33 478.08 M 119.52 430.27 L 131.47 430.27 M 119.52 466.13 L 131.47 466.13 M 179.28 430.27 L 167.33 430.27 M 179.28 466.13 L 167.33 466.13 M 179.28 430.27 L 239.04 430.27 M 179.28 466.13 L 239.04 466.13 M 250.99 418.32 L 250.99 430.27 L 239.04 430.27 M 239.04 466.13 L 250.99 466.13 L 250.99 478.08 M 298.8 430.27 L 286.85 430.27 L 286.85 418.32 M 298.8 466.13 L 286.85 466.13 L 286.85 478.08 M 310.75 418.32 L 310.75 478.08 M 346.61 418.32 L 346.61 478.08 M 298.8 430.27 L 310.75 430.27 M 298.8 466.13 L 310.75 466.13 M 358.56 430.27 L 346.61 430.27 M 358.56 466.13 L 346.61 466.13 M 370.51 418.32 L 370.51 430.27 L 358.56 430.27 M 406.37 418.32 L 406.37 466.13 L 358.56 466.13 M 478.08 466.13 L 466.13 466.13 L 466.13 478.08 M 478.08 430.27 L 430.27 430.27 L 430.27 478.08 M 478.08 430.27 L 537.84 430.27 M 478.08 466.13 L 537.84 466.13 M 490.03 418.32 L 490.03 430.27 M 525.89 418.32 L 525.89 430.27 M 490.03 466.13 L 490.03 478.08 M 525.89 466.13 L 525.89 478.08 M 537.84 466.13 L 549.79 466.13 L 549.79 478.08 M 537.84 430.27 L 585.65 430.27 L 585.65 478.08 M 11.95 478.08 L 11.95 537.84 M 59.76 490.03 L 47.81 490.03 L 47.81 478.08 M 59.76 525.89 L 47.81 525.89 L 47.81 537.84 M 59.76 525.89 L 71.71 525.89 L 71.71 537.84 M 59.76 490.03 L 107.57 490.03 L 107.57 537.84 M 131.47 478.08 L 131.47 537.84 M 167.33 478.08 L 167.33 537.84 M 239.04 525.89 L 227.09 525.89 L 227.09 537.84 M 239.04 490.03 L 191.23 490.03 L 191.23 537.84 M 239.04 490.03 L 298.8 490.03 M 239.04 525.89 L 298.8 525.89 M 250.99 478.08 L 250.99 490.03 M 286.85 478.08 L 286.85 490.03 M 250.99 525.89 L 250.99 537.84 M 286.85 525.89 L 286.85 537.84 M 310.75 478.08 L 310.75 490.03 L 298.8 490.03 M 298.8 525.89 L 310.75 525.89 L 310.75 537.84 M 358.56 490.03 L 346.61 490.03 L 346.61 478.08 M 358.56 525.89 L 346.61 525.89 L 346.61 537.84 M 358.56 490.03 L 418.32 490.03 M 358.56 525.89 L 370.51 525.89 L 370.51 537.84 M 418.32 525.89 L 406.37 525.89 L 406.37 537.84 M 430.27 478.08 L 430.27 490.03 L 418.32 490.03 M 466.13 478.08 L 466.13 525.89 L 418.32 525.89 M 490.03 478.08 L 490.03 537.84 M 525.89 478.08 L 525.89 537.84 M 549.79 478.08 L 549.79 537.84 M 585.65 478.08 L 585.65 537.84 M 47.81 537.84 L 47.81 544.58 L 47.81 585.65 L 11.95 585.65 L 11.95 537.84 M 119.52 549.79 L 107.57 549.79 L 107.57 537.84 M 119.52 585.65 L 71.71 585.65 L 71.71 537.84 M 131.47 537.84 L 131.47 549.79 L 119.52 549.79 M 167.33 537.84 L 167.33 585.65 L 119.52 585.65 M 227.09 537.84 L 227.09 544.58 L 227.09 585.65 L 191.23 585.65 L 191.23 537.84 M 286.85 537.84 L 286.85 544.58 L 286.85 585.65 L 250.99 585.65 L 250.99 537.84 M 346.61 537.84 L 346.61 544.58 L 346.61 585.65 L 310.75 585.65 L 310.75 537.84 M 418.32 549.79 L 406.37 549.79 L 406.37 537.84 M 418.32 585.65 L 370.51 585.65 L 370.51 537.84 M 418.32 585.65 L 466.13 585.65 L 466.13 549.79 L 418.32 549.79 M 525.89 537.84 L 525.89 544.58 L 525.89 585.65 L 490.03 585.65 L 490.03 537.84 " /> <circle cx="29.88" cy="29.88" r="19.92" fill-opacity="1.0" stroke-opacity="0" fill="#E51919" /><circle cx="567.72" cy="567.72" r="19.92" fill-opacity="1.0" stroke-opacity="0" fill="#E51919" />  </svg>