<svg id="maze" xmlns="http://www.w3.org/2000/svg" viewBox="0 0 597.6 597.6"  width="597.6px" height="597.6px" stroke-width="2" fill-opacity="0.0" stroke="black"> <path stroke-opacity="1.0" stroke-width="2" stroke="#000000" d="M 59.76 47.81 L 71.71 47.81 L 71.71 59.76 M 59.76 11.95 L 107.57 11.95 L 107.57 59.76 M 179.28 47.81 L 167.33 47.81 L 167.33 59.76 M 179.28 11.95 L 131.47 11.95 L 131.47 59.76 M 179.28 47.81 L 227.09 47.81 L 227.09 11.95 L 179.28 11.95 M 286.85 59.76 L 286.85 11.95 L 250.99 11.95 L 250.99 59.76 M 346.61 59.76 L 346.61 11.95 L 310.75 11.95 L 310.75 59.76 M 406.37 59.76 L 406.37 11.95 L 370.51 11.95 L 370.51 59.76 M 466.13 59.76 L 466.13 11.95 L 430.27 11.95 L 430.27 59.76 M 537.84 47.81 L 525.89 47.81 L 525.89 59.76 M 537.84 11.95 L 490.03 11.95 L 490.03 59.76 M 537.84 47.81 L 585.65 47.81 L 585.65 11.95 L 537.84 11.95 M 59.76 107.57 L 47.81 107.57 L 47.81 119.52 M 59.76 71.71 L 11.95 71.71 L 11.95 119.52 M 71.71 59.76 L 71.71 71.71 L 59.76 71.71 M 59.76 107.57 L 71.71 107.57 L 71.71 119.52 M 119.52 71.71 L 107.57 71.71 L 107.57 59.76 M 119.52 107.57 L 107.57 107.57 L 107.57 119.52 M 119.52 71.71 L 179.28 71.71 M 119.52 107.57 L 179.28 107.57 M 131.47 59.76 L 131.47 71.71 M 167.33 59.76 L 167.33 71.71 M 131.47 107.57 L 131.47 119.52 M 167.33 107.57 L 167.33 119.52 M 179.28 71.71 L 239.04 71.71 M 179.28 107.57 L 239.04 107.57 M 239.04 71.71 L 298.8 71.71 M 239.04 107.57 L 298.8 107.57 M 250.99 59.76 L 250.99 71.71 M 286.85 59.76 L 286.85 71.71 M 250.99 107.57 L 250.99 119.52 M 286.85 107.57 L 286.85 119.52 M 346.61 59.76 L 346.61 119.52 M 310.75 59.76 L 310.75 71.71 L 298.8 71.71 M 298.8 107.57 L 310.75 107.57 L 310.75 119.52 M 370.51 59.76 L 370.51 119.52 M 406.37 59.76 L 406.37 119.52 M 430.27 59.76 L 430.27 119.52 M 478.08 71.71 L 466.13 71.71 L 466.13 59.76 M 478.08 107.57 L 466.13 107.57 L 466.13 119.52 M 490.03 59.76 L 490.03 119.52 M 525.89 59.76 L 525.89 119.52 M 478.08 71.71 L 490.03 71.71 M 478.08 107.57 L 490.03 107.57 M 537.84 71.71 L 525.89 71.71 M 537.84 107.57 L 525.89 107.57 M 537.84 107.57 L 585.65 107.57 L 585.65 71.71 L 537.84 71.71 M 59.76 131.47 L 47.81 131.47 L 47.81 119.52 M 59.76 167.33 L 11.95 167.33 L 11.95 119.52 M 59.76 131.47 L 119.52 131.47 M 59.76 167.33 L 119.52 167.33 M 71.71 119.52 L 71.71 131.47 M 107.57 119.52 L 107.57 131.47 M 71.71 167.33 L 71.71 179.28 M 107.57 167.33 L 107.57 179.28 M 131.47 119.52 L 131.47 131.47 L 119.52 131.47 M 167.33 119.52 L 167.33 167.33 L 119.52 167.33 M 239.04 167.33 L 191.23 167.33 L 191.23 131.47 L 239.04 131.47 M 286.85 119.52 L 286.85 179.28 M 250.99 119.52 L 250.99 131.47 L 239.04 131.47 M 239.04 167.33 L 250.99 167.33 L 250.99 179.28 M 310.75 119.52 L 310.75 179.28 M 358.56 131.47 L 346.61 131.47 L 346.61 119.52 M 358.56 167.33 L 346.61 167.33 L 346.61 179.28 M 370.51 119.52 L 370.51 179.28 M 406.37 119.52 L 406.37 179.28 M 358.56 131.47 L 370.51 131.47 M 358.56 167.33 L 370.51 167.33 M 418.32 131.47 L 406.37 131.47 M 418.32 167.33 L 406.37 167.33 M 430.27 119.52 L 430.27 131.47 L 418.32 131.47 M 418.32 167.33 L 430.27 167.33 L 430.27 179.28 M 478.08 131.47 L 466.13 131.47 L 466.13 119.52 M 478.08 167.33 L 466.13 167.33 L 466.13 179.28 M 490.03 119.52 L 490.03 131.47 L 478.08 131.47 M 525.89 119.52 L 525.89 167.33 L 478.08 167.33 M 585.65 179.28 L 585.65 131.47 L 549.79 131.47 L 549.79 179.28 M 59.76 227.09 L 11.95 227.09 L 11.95 191.23 L 59.76 191.23 M 71.71 179.28 L 71.71 191.23 L 59.76 191.23 M 59.76 227.09 L 71.71 227.09 L 71.71 239.04 M 119.52 191.23 L 107.57 191.23 L 107.57 179.28 M 119.52 227.09 L 107.57 227.09 L 107.57 239.04 M 119.52 191.23 L 179.28 191.23 M 119.52 227.09 L 131.47 227.09 L 131.47 239.04 M 179.28 227.09 L 167.33 227.09 L 167.33 239.04 M 179.28 227.09 L 227.09 227.09 L 227.09 191.23 L 179.28 191.23 M 250.99 179.28 L 250.99 239.04 M 298.8 191.23 L 286.85 191.23 L 286.85 179.28 M 298.8 227.09 L 286.85 227.09 L 286.85 239.04 M 298.8 191.23 L 358.56 191.23 M 298.8 227.09 L 358.56 227.09 M 310.75 179.28 L 310.75 191.23 M 346.61 179.28 L 346.61 191.23 M 310.75 227.09 L 310.75 239.04 M 346.61 227.09 L 346.61 239.04 M 358.56 227.09 L 418.32 227.09 M 370.51 179.28 L 370.51 191.23 L 358.56 191.23 M 418.32 191.23 L 406.37 191.23 L 406.37 179.28 M 430.27 179.28 L 430.27 239.04 M 466.13 179.28 L 466.13 239.04 M 418.32 191.23 L 430.27 191.23 M 418.32 227.09 L 430.27 227.09 M 478.08 191.23 L 466.13 191.23 M 478.08 227.09 L 466.13 227.09 M 478.08 227.09 L 490.03 227.09 L 490.03 239.04 M 478.08 191.23 L 525.89 191.23 L 525.89 239.04 M 549.79 179.28 L 549.79 239.04 M 585.65 179.28 L 585.65 239.04 M 59.76 286.85 L 11.95 286.85 L 11.95 250.99 L 59.76 250.99 M 71.71 239.04 L 71.71 298.8 M 107.57 239.04 L 107.57 298.8 M 59.76 250.99 L 71.71 250.99 M 59.76 286.85 L 71.71 286.85 M 119.52 250.99 L 107.57 250.99 M 119.52 286.85 L 107.57 286.85 M 131.47 239.04 L 131.47 250.99 L 119.52 250.99 M 167.33 239.04 L 167.33 286.85 L 119.52 286.85 M 239.04 286.85 L 227.09 286.85 L 227.09 298.8 M 239.04 250.99 L 191.23 250.99 L 191.23 298.8 M 250.99 239.04 L 250.99 298.8 M 286.85 239.04 L 286.85 298.8 M 239.04 250.99 L 250.99 250.99 M 239.04 286.85 L 250.99 286.85 M 298.8 250.99 L 286.85 250.99 M 298.8 286.85 L 286.85 286.85 M 310.75 239.04 L 310.75 250.99 L 298.8 250.99 M 346.61 239.04 L 346.61 286.85 L 298.8 286.85 M 406.37 298.8 L 406.37 250.99 L 370.51 250.99 L 370.51 298.8 M 478.08 250.99 L 466.13 250.99 L 466.13 239.04 M 478.08 286.85 L 430.27 286.85 L 430.27 239.04 M 490.03 239.04 L 490.03 298.8 M 525.89 239.04 L 525.89 298.8 M 478.08 250.99 L 490.03 250.99 M 478.08 286.85 L 490.03 286.85 M 537.84 250.99 L 525.89 250.99 M 537.84 286.85 L 525.89 286.85 M 549.79 239.04 L 549.79 250.99 L 537.84 250.99 M 585.65 239.04 L 585.65 286.85 L 537.84 286.85 M 59.76 346.61 L 11.95 346.61 L 11.95 310.75 L 59.76 310.75 M 71.71 298.8 L 71.71 310.75 L 59.76 310.75 M 59.76 346.61 L 71.71 346.61 L 71.71 358.56 M 119.52 310.75 L 107.57 310.75 L 107.57 298.8 M 119.52 346.61 L 107.57 346.61 L 107.57 358.56 M 119.52 310.75 L 179.28 310.75 M 119.52 346.61 L 179.28 346.61 M 191.23 298.8 L 191.23 358.56 M 227.09 298.8 L 227.09 358.56 M 179.28 310.75 L 191.23 310.75 M 179.28 346.61 L 191.23 346.61 M 239.04 310.75 L 227.09 310.75 M 239.04 346.61 L 227.09 346.61 M 286.85 298.8 L 286.85 358.56 M 250.99 298.8 L 250.99 310.75 L 239.04 310.75 M 239.04 346.61 L 250.99 346.61 L 250.99 358.56 M 358.56 346.61 L 346.61 346.61 L 346.61 358.56 M 358.56 310.75 L 310.75 310.75 L 310.75 358.56 M 370.51 298.8 L 370.51 358.56 M 406.37 298.8 L 406.37 358.56 M 358.56 310.75 L 370.51 310.75 M 358.56 346.61 L 370.51 346.61 M 418.32 310.75 L 406.37 310.75 M 418.32 346.61 L 406.37 346.61 M 418.32 346.61 L 466.13 346.61 L 466.13 310.75 L 418.32 310.75 M 490.03 298.8 L 490.03 358.56 M 525.89 298.8 L 525.89 358.56 M 585.65 358.56 L 585.65 310.75 L 549.79 310.75 L 549.79 358.56 M 59.76 406.37 L 11.95 406.37 L 11.95 370.51 L 59.76 370.51 M 71.71 358.56 L 71.71 418.32 M 107.57 358.56 L 107.57 418.32 M 59.76 370.51 L 71.71 370.51 M 59.76 406.37 L 71.71 406.37 M 119.52 370.51 L 107.57 370.51 M 119.52 406.37 L 107.57 406.37 M 119.52 406.37 L 131.47 406.37 L 131.47 418.32 M 119.52 370.51 L 167.33 370.51 L 167.33 418.32 M 239.04 370.51 L 227.09 370.51 L 227.09 358.56 M 239.04 406.37 L 191.23 406.37 L 191.23 358.56 M 239.04 370.51 L 298.8 370.51 M 239.04 406.37 L 298.8 406.37 M 250.99 358.56 L 250.99 370.51 M 286.85 358.56 L 286.85 370.51 M 250.99 406.37 L 250.99 418.32 M 286.85 406.37 L 286.85 418.32 M 310.75 358.56 L 310.75 370.51 L 298.8 370.51 M 346.61 358.56 L 346.61 406.37 L 298.8 406.37 M 418.32 370.51 L 406.37 370.51 L 406.37 358.56 M 418.32 406.37 L 370.51 406.37 L 370.51 358.56 M 418.32 370.51 L 478.08 370.51 M 418.32 406.37 L 430.27 406.37 L 430.27 418.32 M 478.08 406.37 L 466.13 406.37 L 466.13 418.32 M 490.03 358.56 L 490.03 418.32 M 525.89 358.56 L 525.89 418.32 M 478.08 370.51 L 490.03 370.51 M 478.08 406.37 L 490.03 406.37 M 537.84 370.51 L 525.89 370.51 M 537.84 406.37 L 525.89 406.37 M 585.65 358.56 L 585.65 418.32 M 549.79 358.56 L 549.79 370.51 L 537.84 370.51 M 537.84 406.37 L 549.79 406.37 L 549.79 418.32 M 59.76 466.13 L 11.95 466.13 L 11.95 430.27 L 59.76 430.27 M 71.71 418.32 L 71.71 430.27 L 59.76 430.27 M 59.76 466.13 L 71.71 466.13 L 71.71 478.08 M 119.52 430.27 L 107.57 430.27 L 107.57 418.32 M 119.52 466.13 L 107.57 466.13 L 107.57 478.08 M 131.47 418.32 L 131.47 478.08 M 167.33 418.32 L 167.33 478.08 M 119.52 430.27 L 131.47 430.27 M 119.52 466.13 L 131.47 466.13 M 179.28 430.27 L 167.33 430.27 M 179.28 466.13 L 167.33 466.13 M 179.28 466.13 L 227.09 466.13 L 227.09 430.27 L 179.28 430.27 M 250.99 418.32 L 250.99 478.08 M 286.85 418.32 L 286.85 478.08 M 346.61 478.08 L 346.61 430.27 L 310.75 430.27 L 310.75 478.08 M 418.32 466.13 L 406.37 466.13 L 406.37 478.08 M 418.32 430.27 L 370.51 430.27 L 370.51 478.08 M 418.32 466.13 L 478.08 466.13 M 430.27 418.32 L 430.27 430.27 L 418.32 430.27 M 478.08 430.27 L 466.13 430.27 L 466.13 418.32 M 525.89 418.32 L 525.89 478.08 M 490.03 418.32 L 490.03 430.27 L 478.08 430.27 M 478.08 466.13 L 490.03 466.13 L 490.03 478.08 M 585.65 418.32 L 585.65 425.06 L 585.65 466.13 L 549.79 466.13 L 549.79 418.32 M 59.76 525.89 L 47.81 525.89 L 47.81 537.84 M 59.76 490.03 L 11.95 490.03 L 11.95 537.84 M 71.71 478.08 L 71.71 490.03 L 59.76 490.03 M 107.57 478.08 L 107.57 525.89 L 59.76 525.89 M 131.47 478.08 L 131.47 537.84 M 167.33 478.08 L 167.33 537.84 M 239.04 525.89 L 227.09 525.89 L 227.09 537.84 M 239.04 490.03 L 191.23 490.03 L 191.23 537.84 M 250.99 478.08 L 250.99 537.84 M 286.85 478.08 L 286.85 537.84 M 239.04 490.03 L 250.99 490.03 M 239.04 525.89 L 250.99 525.89 M 298.8 490.03 L 286.85 490.03 M 298.8 525.89 L 286.85 525.89 M 298.8 525.89 L 358.56 525.89 M 310.75 478.08 L 310.75 490.03 L 298.8 490.03 M 358.56 490.03 L 346.61 490.03 L 346.61 478.08 M 358.56 490.03 L 418.32 490.03 M 358.56 525.89 L 418.32 525.89 M 370.51 478.08 L 370.51 490.03 M 406.37 478.08 L 406.37 490.03 M 370.51 525.89 L 370.51 537.84 M 406.37 525.89 L 406.37 537.84 M 418.32 490.03 L 478.08 490.03 M 418.32 525.89 L 478.08 525.89 M 478.08 490.03 L 537.84 490.03 M 478.08 525.89 L 537.84 525.89 M 490.03 478.08 L 490.03 490.03 M 525.89 478.08 L 525.89 490.03 M 490.03 525.89 L 490.03 537.84 M 525.89 525.89 L 525.89 537.84 M 537.84 525.89 L 585.65 525.89 L 585.65 490.03 L 537.84 490.03 M 47.81 537.84 L 47.81 544.58 L 47.81 585.65 L 11.95 585.65 L 11.95 537.84 M 119.52 585.65 L 71.71 585.65 L 71.71 549.79 L 119.52 549.79 M 119.52 585.65 L 179.28 585.65 M 131.47 537.84 L 131.47 549.79 L 119.52 549.79 M 179.28 549.79 L 167.33 549.79 L 167.33 537.84 M 179.28 585.65 L 239.04 585.65 M 191.23 537.84 L 191.23 549.79 L 179.28 549.79 M 239.04 549.79 L 227.09 549.79 L 227.09 537.84 M 239.04 585.65 L 298.8 585.65 M 250.99 537.84 L 250.99 549.79 L 239.04 549.79 M 298.8 549.79 L 286.85 549.79 L 286.85 537.84 M 298.8 585.65 L 346.61 585.65 L 346.61 549.79 L 298.8 549.79 M 406.37 537.84 L 406.37 544.58 L 406.37 585.65 L 370.51 585.65 L 370.51 537.84 M 478.08 585.65 L 430.27 585.65 L 430.27 549.79 L 478.08 549.79 M 478.08 585.65 L 537.84 585.65 M 490.03 537.84 L 490.03 549.79 L 478.08 549.79 M 537.84 549.79 L 525.89 549.79 L 525.89 537.84 " /> <circle cx="29.88" cy="29.88" r="19.92" fill-opacity="1.0" stroke-opacity="0" fill="#E51919" /><circle cx="567.72" cy="567.72" r="19.92" fill-opacity="1.0" stroke-opacity="0" fill="#E51919" />  </svg>