<svg id="maze" xmlns="http://www.w3.org/2000/svg" viewBox="0 0 597.6 597.6"  width="597.6px" height="597.6px" stroke-width="2" fill-opacity="0.0" stroke="black"> <path stroke-opacity="1.0" stroke-width="2" stroke="#000000" d="M 59.76 47.81 L 71.71 47.81 L 71.71 59.76 M 59.76 11.95 L 107.57 11.95 L 107.57 59.76 M 167.33 59.76 L 167.33 11.95 L 131.47 11.95 L 131.47 59.76 M 239.04 47.81 L 191.23 47.81 L 191.23 11.95 L 239.04 11.95 M 239.04 11.95 L 298.8 11.95 M 239.04 47.81 L 298.8 47.81 M 298.8 47.81 L 310.75 47.81 L 310.75 59.76 M 298.8 11.95 L 346.61 11.95 L 346.61 59.76 M 406.37 59.76 L 406.37 11.95 L 370.51 11.95 L 370.51 59.76 M 478.08 47.81 L 466.13 47.81 L 466.13 59.76 M 478.08 11.95 L 430.27 11.95 L 430.27 59.76 M 478.08 11.95 L 537.84 11.95 M 478.08 47.81 L 537.84 47.81 M 537.84 47.81 L 585.65 47.81 L 585.65 11.95 L 537.84 11.95 M 59.76 107.57 L 11.95 107.57 L 11.95 71.71 L 59.76 71.71 M 59.76 71.71 L 119.52 71.71 M 59.76 107.57 L 119.52 107.57 M 71.71 59.76 L 71.71 71.71 M 107.57 59.76 L 107.57 71.71 M 71.71 107.57 L 71.71 119.52 M 107.57 107.57 L 107.57 119.52 M 167.33 59.76 L 167.33 119.52 M 131.47 59.76 L 131.47 71.71 L 119.52 71.71 M 119.52 107.57 L 131.47 107.57 L 131.47 119.52 M 239.04 107.57 L 191.23 107.57 L 191.23 71.71 L 239.04 71.71 M 239.04 71.71 L 298.8 71.71 M 239.04 107.57 L 298.8 107.57 M 310.75 59.76 L 310.75 71.71 L 298.8 71.71 M 298.8 107.57 L 310.75 107.57 L 310.75 119.52 M 358.56 71.71 L 346.61 71.71 L 346.61 59.76 M 358.56 107.57 L 346.61 107.57 L 346.61 119.52 M 370.51 59.76 L 370.51 71.71 L 358.56 71.71 M 358.56 107.57 L 370.51 107.57 L 370.51 119.52 M 418.32 71.71 L 406.37 71.71 L 406.37 59.76 M 418.32 107.57 L 406.37 107.57 L 406.37 119.52 M 430.27 59.76 L 430.27 119.52 M 466.13 59.76 L 466.13 119.52 M 418.32 71.71 L 430.27 71.71 M 418.32 107.57 L 430.27 107.57 M 478.08 71.71 L 466.13 71.71 M 478.08 107.57 L 466.13 107.57 M 478.08 107.57 L 490.03 107.57 L 490.03 119.52 M 478.08 71.71 L 525.89 71.71 L 525.89 119.52 M 585.65 119.52 L 585.65 71.71 L 549.79 71.71 L 549.79 119.52 M 59.76 167.33 L 11.95 167.33 L 11.95 131.47 L 59.76 131.47 M 71.71 119.52 L 71.71 131.47 L 59.76 131.47 M 59.76 167.33 L 71.71 167.33 L 71.71 179.28 M 119.52 131.47 L 107.57 131.47 L 107.57 119.52 M 119.52 167.33 L 107.57 167.33 L 107.57 179.28 M 131.47 119.52 L 131.47 179.28 M 167.33 119.52 L 167.33 179.28 M 119.52 131.47 L 131.47 131.47 M 119.52 167.33 L 131.47 167.33 M 179.28 131.47 L 167.33 131.47 M 179.28 167.33 L 167.33 167.33 M 179.28 167.33 L 191.23 167.33 L 191.23 179.28 M 179.28 131.47 L 227.09 131.47 L 227.09 179.28 M 298.8 167.33 L 250.99 167.33 L 250.99 131.47 L 298.8 131.47 M 310.75 119.52 L 310.75 179.28 M 346.61 119.52 L 346.61 179.28 M 298.8 131.47 L 310.75 131.47 M 298.8 167.33 L 310.75 167.33 M 358.56 131.47 L 346.61 131.47 M 358.56 167.33 L 346.61 167.33 M 358.56 167.33 L 418.32 167.33 M 370.51 119.52 L 370.51 131.47 L 358.56 131.47 M 418.32 131.47 L 406.37 131.47 L 406.37 119.52 M 430.27 119.52 L 430.27 131.47 L 418.32 131.47 M 418.32 167.33 L 430.27 167.33 L 430.27 179.28 M 478.08 131.47 L 466.13 131.47 L 466.13 119.52 M 478.08 167.33 L 466.13 167.33 L 466.13 179.28 M 478.08 131.47 L 537.84 131.47 M 478.08 167.33 L 537.84 167.33 M 490.03 119.52 L 490.03 131.47 M 525.89 119.52 L 525.89 131.47 M 490.03 167.33 L 490.03 179.28 M 525.89 167.33 L 525.89 179.28 M 549.79 119.52 L 549.79 131.47 L 537.84 131.47 M 585.65 119.52 L 585.65 167.33 L 537.84 167.33 M 59.76 227.09 L 11.95 227.09 L 11.95 191.23 L 59.76 191.23 M 59.76 191.23 L 119.52 191.23 M 59.76 227.09 L 119.52 227.09 M 71.71 179.28 L 71.71 191.23 M 107.57 179.28 L 107.57 191.23 M 71.71 227.09 L 71.71 239.04 M 107.57 227.09 L 107.57 239.04 M 119.52 227.09 L 179.28 227.09 M 131.47 179.28 L 131.47 191.23 L 119.52 191.23 M 179.28 191.23 L 167.33 191.23 L 167.33 179.28 M 179.28 191.23 L 239.04 191.23 M 179.28 227.09 L 239.04 227.09 M 191.23 179.28 L 191.23 191.23 M 227.09 179.28 L 227.09 191.23 M 191.23 227.09 L 191.23 239.04 M 227.09 227.09 L 227.09 239.04 M 239.04 227.09 L 250.99 227.09 L 250.99 239.04 M 239.04 191.23 L 286.85 191.23 L 286.85 239.04 M 346.61 179.28 L 346.61 186.02 L 346.61 227.09 L 310.75 227.09 L 310.75 179.28 M 418.32 227.09 L 406.37 227.09 L 406.37 239.04 M 418.32 191.23 L 370.51 191.23 L 370.51 239.04 M 418.32 191.23 L 478.08 191.23 M 418.32 227.09 L 478.08 227.09 M 430.27 179.28 L 430.27 191.23 M 466.13 179.28 L 466.13 191.23 M 430.27 227.09 L 430.27 239.04 M 466.13 227.09 L 466.13 239.04 M 490.03 179.28 L 490.03 191.23 L 478.08 191.23 M 478.08 227.09 L 490.03 227.09 L 490.03 239.04 M 537.84 191.23 L 525.89 191.23 L 525.89 179.28 M 537.84 227.09 L 525.89 227.09 L 525.89 239.04 M 537.84 227.09 L 585.65 227.09 L 585.65 191.23 L 537.84 191.23 M 47.81 298.8 L 47.81 250.99 L 11.95 250.99 L 11.95 298.8 M 71.71 239.04 L 71.71 298.8 M 119.52 250.99 L 107.57 250.99 L 107.57 239.04 M 119.52 286.85 L 107.57 286.85 L 107.57 298.8 M 119.52 286.85 L 167.33 286.85 L 167.33 250.99 L 119.52 250.99 M 191.23 239.04 L 191.23 298.8 M 239.04 250.99 L 227.09 250.99 L 227.09 239.04 M 239.04 286.85 L 227.09 286.85 L 227.09 298.8 M 250.99 239.04 L 250.99 298.8 M 286.85 239.04 L 286.85 298.8 M 239.04 250.99 L 250.99 250.99 M 239.04 286.85 L 250.99 286.85 M 298.8 250.99 L 286.85 250.99 M 298.8 286.85 L 286.85 286.85 M 298.8 250.99 L 358.56 250.99 M 298.8 286.85 L 310.75 286.85 L 310.75 298.8 M 358.56 286.85 L 346.61 286.85 L 346.61 298.8 M 370.51 239.04 L 370.51 298.8 M 406.37 239.04 L 406.37 298.8 M 358.56 250.99 L 370.51 250.99 M 358.56 286.85 L 370.51 286.85 M 418.32 250.99 L 406.37 250.99 M 418.32 286.85 L 406.37 286.85 M 418.32 286.85 L 478.08 286.85 M 430.27 239.04 L 430.27 250.99 L 418.32 250.99 M 478.08 250.99 L 466.13 250.99 L 466.13 239.04 M 478.08 250.99 L 537.84 250.99 M 478.08 286.85 L 537.84 286.85 M 490.03 239.04 L 490.03 250.99 M 525.89 239.04 L 525.89 250.99 M 490.03 286.85 L 490.03 298.8 M 525.89 286.85 L 525.89 298.8 M 537.84 286.85 L 585.65 286.85 L 585.65 250.99 L 537.84 250.99 M 11.95 298.8 L 11.95 358.56 M 59.76 310.75 L 47.81 310.75 L 47.81 298.8 M 59.76 346.61 L 47.81 346.61 L 47.81 358.56 M 59.76 310.75 L 119.52 310.75 M 59.76 346.61 L 119.52 346.61 M 71.71 298.8 L 71.71 310.75 M 107.57 298.8 L 107.57 310.75 M 71.71 346.61 L 71.71 358.56 M 107.57 346.61 L 107.57 358.56 M 119.52 310.75 L 179.28 310.75 M 119.52 346.61 L 179.28 346.61 M 179.28 310.75 L 239.04 310.75 M 179.28 346.61 L 239.04 346.61 M 191.23 298.8 L 191.23 310.75 M 227.09 298.8 L 227.09 310.75 M 191.23 346.61 L 191.23 358.56 M 227.09 346.61 L 227.09 358.56 M 286.85 298.8 L 286.85 358.56 M 250.99 298.8 L 250.99 310.75 L 239.04 310.75 M 239.04 346.61 L 250.99 346.61 L 250.99 358.56 M 346.61 298.8 L 346.61 305.54 L 346.61 346.61 L 310.75 346.61 L 310.75 298.8 M 418.32 310.75 L 406.37 310.75 L 406.37 298.8 M 418.32 346.61 L 370.51 346.61 L 370.51 298.8 M 418.32 346.61 L 466.13 346.61 L 466.13 310.75 L 418.32 310.75 M 537.84 310.75 L 525.89 310.75 L 525.89 298.8 M 537.84 346.61 L 490.03 346.61 L 490.03 298.8 M 537.84 346.61 L 585.65 346.61 L 585.65 310.75 L 537.84 310.75 M 47.81 358.56 L 47.81 365.3 L 47.81 406.37 L 11.95 406.37 L 11.95 358.56 M 71.71 358.56 L 71.71 418.32 M 119.52 370.51 L 107.57 370.51 L 107.57 358.56 M 119.52 406.37 L 107.57 406.37 L 107.57 418.32 M 119.52 406.37 L 167.33 406.37 L 167.33 370.51 L 119.52 370.51 M 191.23 358.56 L 191.23 418.32 M 239.04 370.51 L 227.09 370.51 L 227.09 358.56 M 239.04 406.37 L 227.09 406.37 L 227.09 418.32 M 250.99 358.56 L 250.99 418.32 M 286.85 358.56 L 286.85 418.32 M 239.04 370.51 L 250.99 370.51 M 239.04 406.37 L 250.99 406.37 M 298.8 370.51 L 286.85 370.51 M 298.8 406.37 L 286.85 406.37 M 298.8 406.37 L 310.75 406.37 L 310.75 418.32 M 298.8 370.51 L 346.61 370.51 L 346.61 418.32 M 406.37 418.32 L 406.37 370.51 L 370.51 370.51 L 370.51 418.32 M 466.13 418.32 L 466.13 370.51 L 430.27 370.51 L 430.27 418.32 M 537.84 406.37 L 525.89 406.37 L 525.89 418.32 M 537.84 370.51 L 490.03 370.51 L 490.03 418.32 M 537.84 406.37 L 585.65 406.37 L 585.65 370.51 L 537.84 370.51 M 59.76 466.13 L 11.95 466.13 L 11.95 430.27 L 59.76 430.27 M 71.71 418.32 L 71.71 478.08 M 107.57 418.32 L 107.57 478.08 M 59.76 430.27 L 71.71 430.27 M 59.76 466.13 L 71.71 466.13 M 119.52 430.27 L 107.57 430.27 M 119.52 466.13 L 107.57 466.13 M 119.52 430.27 L 179.28 430.27 M 119.52 466.13 L 131.47 466.13 L 131.47 478.08 M 179.28 466.13 L 167.33 466.13 L 167.33 478.08 M 191.23 418.32 L 191.23 478.08 M 227.09 418.32 L 227.09 478.08 M 179.28 430.27 L 191.23 430.27 M 179.28 466.13 L 191.23 466.13 M 239.04 430.27 L 227.09 430.27 M 239.04 466.13 L 227.09 466.13 M 239.04 466.13 L 298.8 466.13 M 250.99 418.32 L 250.99 430.27 L 239.04 430.27 M 298.8 430.27 L 286.85 430.27 L 286.85 418.32 M 298.8 430.27 L 358.56 430.27 M 298.8 466.13 L 358.56 466.13 M 310.75 418.32 L 310.75 430.27 M 346.61 418.32 L 346.61 430.27 M 310.75 466.13 L 310.75 478.08 M 346.61 466.13 L 346.61 478.08 M 370.51 418.32 L 370.51 430.27 L 358.56 430.27 M 358.56 466.13 L 370.51 466.13 L 370.51 478.08 M 418.32 430.27 L 406.37 430.27 L 406.37 418.32 M 418.32 466.13 L 406.37 466.13 L 406.37 478.08 M 430.27 418.32 L 430.27 478.08 M 466.13 418.32 L 466.13 478.08 M 418.32 430.27 L 430.27 430.27 M 418.32 466.13 L 430.27 466.13 M 478.08 430.27 L 466.13 430.27 M 478.08 466.13 L 466.13 466.13 M 525.89 418.32 L 525.89 478.08 M 490.03 418.32 L 490.03 430.27 L 478.08 430.27 M 478.08 466.13 L 490.03 466.13 L 490.03 478.08 M 585.65 478.08 L 585.65 430.27 L 549.79 430.27 L 549.79 478.08 M 59.76 525.89 L 11.95 525.89 L 11.95 490.03 L 59.76 490.03 M 71.71 478.08 L 71.71 490.03 L 59.76 490.03 M 107.57 478.08 L 107.57 525.89 L 59.76 525.89 M 131.47 478.08 L 131.47 537.84 M 179.28 490.03 L 167.33 490.03 L 167.33 478.08 M 179.28 525.89 L 167.33 525.89 L 167.33 537.84 M 179.28 525.89 L 239.04 525.89 M 191.23 478.08 L 191.23 490.03 L 179.28 490.03 M 239.04 490.03 L 227.09 490.03 L 227.09 478.08 M 239.04 525.89 L 250.99 525.89 L 250.99 537.84 M 239.04 490.03 L 286.85 490.03 L 286.85 537.84 M 346.61 478.08 L 346.61 484.82 L 346.61 525.89 L 310.75 525.89 L 310.75 478.08 M 418.32 490.03 L 406.37 490.03 L 406.37 478.08 M 418.32 525.89 L 370.51 525.89 L 370.51 478.08 M 430.27 478.08 L 430.27 490.03 L 418.32 490.03 M 418.32 525.89 L 430.27 525.89 L 430.27 537.84 M 478.08 490.03 L 466.13 490.03 L 466.13 478.08 M 478.08 525.89 L 466.13 525.89 L 466.13 537.84 M 478.08 490.03 L 537.84 490.03 M 478.08 525.89 L 537.84 525.89 M 490.03 478.08 L 490.03 490.03 M 525.89 478.08 L 525.89 490.03 M 490.03 525.89 L 490.03 537.84 M 525.89 525.89 L 525.89 537.84 M 585.65 478.08 L 585.65 537.84 M 549.79 478.08 L 549.79 490.03 L 537.84 490.03 M 537.84 525.89 L 549.79 525.89 L 549.79 537.84 M 59.76 585.65 L 11.95 585.65 L 11.95 549.79 L 59.76 549.79 M 59.76 549.79 L 119.52 549.79 M 59.76 585.65 L 119.52 585.65 M 131.47 537.84 L 131.47 549.79 L 119.52 549.79 M 167.33 537.84 L 167.33 585.65 L 119.52 585.65 M 239.04 585.65 L 191.23 585.65 L 191.23 549.79 L 239.04 549.79 M 239.04 585.65 L 298.8 585.65 M 250.99 537.84 L 250.99 549.79 L 239.04 549.79 M 298.8 549.79 L 286.85 549.79 L 286.85 537.84 M 298.8 549.79 L 358.56 549.79 M 298.8 585.65 L 358.56 585.65 M 358.56 585.65 L 406.37 585.65 L 406.37 549.79 L 358.56 549.79 M 466.13 537.84 L 466.13 544.58 L 466.13 585.65 L 430.27 585.65 L 430.27 537.84 M 525.89 537.84 L 525.89 544.58 L 525.89 585.65 L 490.03 585.65 L 490.03 537.84 " /> <circle cx="29.88" cy="29.88" r="19.92" fill-opacity="1.0" stroke-opacity="0" fill="#E51919" /><circle cx="567.72" cy="567.72" r="19.92" fill-opacity="1.0" stroke-opacity="0" fill="#E51919" /> <path stroke-opacity="1.0" stroke-width="5" stroke="#E51919" d="M 29.88 29.88 L 59.76 29.88 M 59.76 29.88 L 89.64 29.88 L 89.64 59.76 M 119.52 149.4 L 89.64 149.4 L 89.64 119.52 M 89.64 59.76 L 89.64 71.71 M 89.64 119.52 L 89.64 107.57 M 179.28 149.4 L 209.16 149.4 L 209.16 179.28 M 119.52 149.4 L 131.47 149.4 M 179.28 149.4 L 167.33 149.4 M 209.16 239.04 L 209.16 298.8 M 209.16 179.28 L 209.16 191.23 M 209.16 239.04 L 209.16 227.09 M 209.16 358.56 L 209.16 418.32 M 209.16 298.8 L 209.16 310.75 M 209.16 358.56 L 209.16 346.61 M 209.16 478.08 L 209.16 507.96 L 179.28 507.96 M 209.16 418.32 L 209.16 478.08 M 179.28 507.96 L 149.4 507.96 L 149.4 478.08 M 179.28 448.2 L 149.4 448.2 L 149.4 478.08 M 239.04 448.2 L 298.8 448.2 M 179.28 448.2 L 191.23 448.2 M 239.04 448.2 L 227.09 448.2 M 358.56 448.2 L 388.44 448.2 L 388.44 478.08 M 298.8 448.2 L 358.56 448.2 M 418.32 507.96 L 388.44 507.96 L 388.44 478.08 M 418.32 507.96 L 478.08 507.96 M 567.72 537.84 L 567.72 567.72 M 537.84 507.96 L 567.72 507.96 L 567.72 537.84 M 478.08 507.96 L 537.84 507.96 " />  <path stroke-opacity="0.2" stroke-width="5" stroke="#E51919" d="M 29.88 29.88 L 59.76 29.88 M 89.64 71.71 L 89.64 89.64 M 89.64 107.57 L 89.64 89.64 M 131.47 149.4 L 149.4 149.4 M 167.33 149.4 L 149.4 149.4 M 209.16 191.23 L 209.16 209.16 M 209.16 227.09 L 209.16 209.16 M 209.16 310.75 L 209.16 328.68 M 209.16 346.61 L 209.16 328.68 M 191.23 448.2 L 209.16 448.2 M 227.09 448.2 L 209.16 448.2 M 567.72 537.84 L 567.72 567.72 " />   </svg>