<svg id="maze" xmlns="http://www.w3.org/2000/svg" viewBox="0 0 597.6 597.6"  width="597.6px" height="597.6px" stroke-width="2" fill-opacity="0.0" stroke="black"> <path stroke-opacity="1.0" stroke-width="2" stroke="#000000" d="M 107.57 59.76 L 107.57 11.95 L 71.71 11.95 L 71.71 59.76 M 179.28 47.81 L 167.33 47.81 L 167.33 59.76 M 179.28 11.95 L 131.47 11.95 L 131.47 59.76 M 179.28 47.81 L 227.09 47.81 L 227.09 11.95 L 179.28 11.95 M 286.85 59.76 L 286.85 11.95 L 250.99 11.95 L 250.99 59.76 M 346.61 59.76 L 346.61 11.95 L 310.75 11.95 L 310.75 59.76 M 418.32 47.81 L 370.51 47.81 L 370.51 11.95 L 418.32 11.95 M 418.32 47.81 L 430.27 47.81 L 430.27 59.76 M 418.32 11.95 L 466.13 11.95 L 466.13 59.76 M 525.89 59.76 L 525.89 11.95 L 490.03 11.95 L 490.03 59.76 M 585.65 59.76 L 585.65 11.95 L 549.79 11.95 L 549.79 59.76 M 11.95 59.76 L 11.95 119.52 M 59.76 71.71 L 47.81 71.71 L 47.81 59.76 M 59.76 107.57 L 47.81 107.57 L 47.81 119.52 M 71.71 59.76 L 71.71 71.71 L 59.76 71.71 M 59.76 107.57 L 71.71 107.57 L 71.71 119.52 M 119.52 71.71 L 107.57 71.71 L 107.57 59.76 M 119.52 107.57 L 107.57 107.57 L 107.57 119.52 M 131.47 59.76 L 131.47 119.52 M 167.33 59.76 L 167.33 119.52 M 119.52 71.71 L 131.47 71.71 M 119.52 107.57 L 131.47 107.57 M 179.28 71.71 L 167.33 71.71 M 179.28 107.57 L 167.33 107.57 M 179.28 71.71 L 239.04 71.71 M 179.28 107.57 L 191.23 107.57 L 191.23 119.52 M 239.04 107.57 L 227.09 107.57 L 227.09 119.52 M 239.04 71.71 L 298.8 71.71 M 239.04 107.57 L 298.8 107.57 M 250.99 59.76 L 250.99 71.71 M 286.85 59.76 L 286.85 71.71 M 250.99 107.57 L 250.99 119.52 M 286.85 107.57 L 286.85 119.52 M 346.61 59.76 L 346.61 119.52 M 310.75 59.76 L 310.75 71.71 L 298.8 71.71 M 298.8 107.57 L 310.75 107.57 L 310.75 119.52 M 418.32 107.57 L 406.37 107.57 L 406.37 119.52 M 418.32 71.71 L 370.51 71.71 L 370.51 119.52 M 418.32 71.71 L 478.08 71.71 M 418.32 107.57 L 478.08 107.57 M 430.27 59.76 L 430.27 71.71 M 466.13 59.76 L 466.13 71.71 M 430.27 107.57 L 430.27 119.52 M 466.13 107.57 L 466.13 119.52 M 490.03 59.76 L 490.03 71.71 L 478.08 71.71 M 525.89 59.76 L 525.89 107.57 L 478.08 107.57 M 549.79 59.76 L 549.79 119.52 M 585.65 59.76 L 585.65 119.52 M 59.76 131.47 L 47.81 131.47 L 47.81 119.52 M 59.76 167.33 L 11.95 167.33 L 11.95 119.52 M 59.76 131.47 L 119.52 131.47 M 59.76 167.33 L 119.52 167.33 M 71.71 119.52 L 71.71 131.47 M 107.57 119.52 L 107.57 131.47 M 71.71 167.33 L 71.71 179.28 M 107.57 167.33 L 107.57 179.28 M 119.52 167.33 L 179.28 167.33 M 131.47 119.52 L 131.47 131.47 L 119.52 131.47 M 179.28 131.47 L 167.33 131.47 L 167.33 119.52 M 191.23 119.52 L 191.23 179.28 M 227.09 119.52 L 227.09 179.28 M 179.28 131.47 L 191.23 131.47 M 179.28 167.33 L 191.23 167.33 M 239.04 131.47 L 227.09 131.47 M 239.04 167.33 L 227.09 167.33 M 239.04 167.33 L 298.8 167.33 M 250.99 119.52 L 250.99 131.47 L 239.04 131.47 M 298.8 131.47 L 286.85 131.47 L 286.85 119.52 M 298.8 131.47 L 358.56 131.47 M 298.8 167.33 L 358.56 167.33 M 310.75 119.52 L 310.75 131.47 M 346.61 119.52 L 346.61 131.47 M 310.75 167.33 L 310.75 179.28 M 346.61 167.33 L 346.61 179.28 M 370.51 119.52 L 370.51 131.47 L 358.56 131.47 M 358.56 167.33 L 370.51 167.33 L 370.51 179.28 M 418.32 131.47 L 406.37 131.47 L 406.37 119.52 M 418.32 167.33 L 406.37 167.33 L 406.37 179.28 M 430.27 119.52 L 430.27 131.47 L 418.32 131.47 M 466.13 119.52 L 466.13 167.33 L 418.32 167.33 M 525.89 179.28 L 525.89 131.47 L 490.03 131.47 L 490.03 179.28 M 549.79 119.52 L 549.79 179.28 M 585.65 119.52 L 585.65 179.28 M 59.76 227.09 L 11.95 227.09 L 11.95 191.23 L 59.76 191.23 M 107.57 179.28 L 107.57 239.04 M 71.71 179.28 L 71.71 191.23 L 59.76 191.23 M 59.76 227.09 L 71.71 227.09 L 71.71 239.04 M 167.33 239.04 L 167.33 191.23 L 131.47 191.23 L 131.47 239.04 M 191.23 179.28 L 191.23 239.04 M 239.04 191.23 L 227.09 191.23 L 227.09 179.28 M 239.04 227.09 L 227.09 227.09 L 227.09 239.04 M 239.04 227.09 L 286.85 227.09 L 286.85 191.23 L 239.04 191.23 M 310.75 179.28 L 310.75 239.04 M 358.56 191.23 L 346.61 191.23 L 346.61 179.28 M 358.56 227.09 L 346.61 227.09 L 346.61 239.04 M 358.56 191.23 L 418.32 191.23 M 358.56 227.09 L 418.32 227.09 M 370.51 179.28 L 370.51 191.23 M 406.37 179.28 L 406.37 191.23 M 370.51 227.09 L 370.51 239.04 M 406.37 227.09 L 406.37 239.04 M 418.32 191.23 L 478.08 191.23 M 418.32 227.09 L 430.27 227.09 L 430.27 239.04 M 478.08 227.09 L 466.13 227.09 L 466.13 239.04 M 478.08 191.23 L 537.84 191.23 M 478.08 227.09 L 537.84 227.09 M 490.03 179.28 L 490.03 191.23 M 525.89 179.28 L 525.89 191.23 M 490.03 227.09 L 490.03 239.04 M 525.89 227.09 L 525.89 239.04 M 549.79 179.28 L 549.79 191.23 L 537.84 191.23 M 585.65 179.28 L 585.65 227.09 L 537.84 227.09 M 59.76 286.85 L 11.95 286.85 L 11.95 250.99 L 59.76 250.99 M 59.76 250.99 L 119.52 250.99 M 59.76 286.85 L 119.52 286.85 M 71.71 239.04 L 71.71 250.99 M 107.57 239.04 L 107.57 250.99 M 71.71 286.85 L 71.71 298.8 M 107.57 286.85 L 107.57 298.8 M 131.47 239.04 L 131.47 250.99 L 119.52 250.99 M 119.52 286.85 L 131.47 286.85 L 131.47 298.8 M 179.28 250.99 L 167.33 250.99 L 167.33 239.04 M 179.28 286.85 L 167.33 286.85 L 167.33 298.8 M 179.28 250.99 L 239.04 250.99 M 179.28 286.85 L 239.04 286.85 M 191.23 239.04 L 191.23 250.99 M 227.09 239.04 L 227.09 250.99 M 191.23 286.85 L 191.23 298.8 M 227.09 286.85 L 227.09 298.8 M 239.04 286.85 L 286.85 286.85 L 286.85 250.99 L 239.04 250.99 M 346.61 239.04 L 346.61 245.78 L 346.61 286.85 L 310.75 286.85 L 310.75 239.04 M 370.51 239.04 L 370.51 298.8 M 418.32 250.99 L 406.37 250.99 L 406.37 239.04 M 418.32 286.85 L 406.37 286.85 L 406.37 298.8 M 418.32 250.99 L 478.08 250.99 M 418.32 286.85 L 478.08 286.85 M 430.27 239.04 L 430.27 250.99 M 466.13 239.04 L 466.13 250.99 M 430.27 286.85 L 430.27 298.8 M 466.13 286.85 L 466.13 298.8 M 490.03 239.04 L 490.03 250.99 L 478.08 250.99 M 478.08 286.85 L 490.03 286.85 L 490.03 298.8 M 537.84 250.99 L 525.89 250.99 L 525.89 239.04 M 537.84 286.85 L 525.89 286.85 L 525.89 298.8 M 537.84 286.85 L 585.65 286.85 L 585.65 250.99 L 537.84 250.99 M 47.81 358.56 L 47.81 310.75 L 11.95 310.75 L 11.95 358.56 M 71.71 298.8 L 71.71 358.56 M 107.57 298.8 L 107.57 358.56 M 179.28 310.75 L 167.33 310.75 L 167.33 298.8 M 179.28 346.61 L 131.47 346.61 L 131.47 298.8 M 191.23 298.8 L 191.23 310.75 L 179.28 310.75 M 227.09 298.8 L 227.09 346.61 L 179.28 346.61 M 298.8 346.61 L 286.85 346.61 L 286.85 358.56 M 298.8 310.75 L 250.99 310.75 L 250.99 358.56 M 298.8 310.75 L 358.56 310.75 M 298.8 346.61 L 358.56 346.61 M 370.51 298.8 L 370.51 358.56 M 406.37 298.8 L 406.37 358.56 M 358.56 310.75 L 370.51 310.75 M 358.56 346.61 L 370.51 346.61 M 418.32 310.75 L 406.37 310.75 M 418.32 346.61 L 406.37 346.61 M 418.32 346.61 L 478.08 346.61 M 430.27 298.8 L 430.27 310.75 L 418.32 310.75 M 478.08 310.75 L 466.13 310.75 L 466.13 298.8 M 490.03 298.8 L 490.03 358.56 M 525.89 298.8 L 525.89 358.56 M 478.08 310.75 L 490.03 310.75 M 478.08 346.61 L 490.03 346.61 M 537.84 310.75 L 525.89 310.75 M 537.84 346.61 L 525.89 346.61 M 537.84 346.61 L 585.65 346.61 L 585.65 310.75 L 537.84 310.75 M 59.76 370.51 L 47.81 370.51 L 47.81 358.56 M 59.76 406.37 L 11.95 406.37 L 11.95 358.56 M 59.76 370.51 L 119.52 370.51 M 59.76 406.37 L 119.52 406.37 M 71.71 358.56 L 71.71 370.51 M 107.57 358.56 L 107.57 370.51 M 71.71 406.37 L 71.71 418.32 M 107.57 406.37 L 107.57 418.32 M 119.52 406.37 L 131.47 406.37 L 131.47 418.32 M 119.52 370.51 L 167.33 370.51 L 167.33 418.32 M 239.04 406.37 L 227.09 406.37 L 227.09 418.32 M 239.04 370.51 L 191.23 370.51 L 191.23 418.32 M 250.99 358.56 L 250.99 418.32 M 286.85 358.56 L 286.85 418.32 M 239.04 370.51 L 250.99 370.51 M 239.04 406.37 L 250.99 406.37 M 298.8 370.51 L 286.85 370.51 M 298.8 406.37 L 286.85 406.37 M 298.8 406.37 L 310.75 406.37 L 310.75 418.32 M 298.8 370.51 L 346.61 370.51 L 346.61 418.32 M 406.37 358.56 L 406.37 365.3 L 406.37 406.37 L 370.51 406.37 L 370.51 358.56 M 478.08 406.37 L 430.27 406.37 L 430.27 370.51 L 478.08 370.51 M 525.89 358.56 L 525.89 418.32 M 490.03 358.56 L 490.03 370.51 L 478.08 370.51 M 478.08 406.37 L 490.03 406.37 L 490.03 418.32 M 585.65 418.32 L 585.65 370.51 L 549.79 370.51 L 549.79 418.32 M 59.76 466.13 L 47.81 466.13 L 47.81 478.08 M 59.76 430.27 L 11.95 430.27 L 11.95 478.08 M 71.71 418.32 L 71.71 430.27 L 59.76 430.27 M 59.76 466.13 L 71.71 466.13 L 71.71 478.08 M 119.52 430.27 L 107.57 430.27 L 107.57 418.32 M 119.52 466.13 L 107.57 466.13 L 107.57 478.08 M 119.52 430.27 L 179.28 430.27 M 119.52 466.13 L 179.28 466.13 M 131.47 418.32 L 131.47 430.27 M 167.33 418.32 L 167.33 430.27 M 131.47 466.13 L 131.47 478.08 M 167.33 466.13 L 167.33 478.08 M 191.23 418.32 L 191.23 430.27 L 179.28 430.27 M 227.09 418.32 L 227.09 466.13 L 179.28 466.13 M 250.99 418.32 L 250.99 478.08 M 298.8 430.27 L 286.85 430.27 L 286.85 418.32 M 298.8 466.13 L 286.85 466.13 L 286.85 478.08 M 298.8 430.27 L 358.56 430.27 M 298.8 466.13 L 358.56 466.13 M 310.75 418.32 L 310.75 430.27 M 346.61 418.32 L 346.61 430.27 M 310.75 466.13 L 310.75 478.08 M 346.61 466.13 L 346.61 478.08 M 358.56 466.13 L 406.37 466.13 L 406.37 430.27 L 358.56 430.27 M 466.13 478.08 L 466.13 430.27 L 430.27 430.27 L 430.27 478.08 M 537.84 430.27 L 525.89 430.27 L 525.89 418.32 M 537.84 466.13 L 490.03 466.13 L 490.03 418.32 M 549.79 418.32 L 549.79 430.27 L 537.84 430.27 M 585.65 418.32 L 585.65 466.13 L 537.84 466.13 M 59.76 490.03 L 47.81 490.03 L 47.81 478.08 M 59.76 525.89 L 11.95 525.89 L 11.95 478.08 M 59.76 490.03 L 119.52 490.03 M 59.76 525.89 L 119.52 525.89 M 71.71 478.08 L 71.71 490.03 M 107.57 478.08 L 107.57 490.03 M 71.71 525.89 L 71.71 537.84 M 107.57 525.89 L 107.57 537.84 M 131.47 478.08 L 131.47 490.03 L 119.52 490.03 M 167.33 478.08 L 167.33 525.89 L 119.52 525.89 M 239.04 525.89 L 191.23 525.89 L 191.23 490.03 L 239.04 490.03 M 250.99 478.08 L 250.99 537.84 M 286.85 478.08 L 286.85 537.84 M 239.04 490.03 L 250.99 490.03 M 239.04 525.89 L 250.99 525.89 M 298.8 490.03 L 286.85 490.03 M 298.8 525.89 L 286.85 525.89 M 298.8 525.89 L 358.56 525.89 M 310.75 478.08 L 310.75 490.03 L 298.8 490.03 M 358.56 490.03 L 346.61 490.03 L 346.61 478.08 M 358.56 490.03 L 418.32 490.03 M 358.56 525.89 L 418.32 525.89 M 430.27 478.08 L 430.27 537.84 M 466.13 478.08 L 466.13 537.84 M 418.32 490.03 L 430.27 490.03 M 418.32 525.89 L 430.27 525.89 M 478.08 490.03 L 466.13 490.03 M 478.08 525.89 L 466.13 525.89 M 478.08 525.89 L 490.03 525.89 L 490.03 537.84 M 478.08 490.03 L 525.89 490.03 L 525.89 537.84 M 585.65 537.84 L 585.65 490.03 L 549.79 490.03 L 549.79 537.84 M 59.76 585.65 L 11.95 585.65 L 11.95 549.79 L 59.76 549.79 M 71.71 537.84 L 71.71 549.79 L 59.76 549.79 M 107.57 537.84 L 107.57 585.65 L 59.76 585.65 M 179.28 585.65 L 131.47 585.65 L 131.47 549.79 L 179.28 549.79 M 179.28 549.79 L 239.04 549.79 M 179.28 585.65 L 239.04 585.65 M 239.04 585.65 L 298.8 585.65 M 250.99 537.84 L 250.99 549.79 L 239.04 549.79 M 298.8 549.79 L 286.85 549.79 L 286.85 537.84 M 298.8 549.79 L 358.56 549.79 M 298.8 585.65 L 358.56 585.65 M 358.56 585.65 L 406.37 585.65 L 406.37 549.79 L 358.56 549.79 M 478.08 549.79 L 466.13 549.79 L 466.13 537.84 M 478.08 585.65 L 430.27 585.65 L 430.27 537.84 M 478.08 585.65 L 537.84 585.65 M 490.03 537.84 L 490.03 549.79 L 478.08 549.79 M 537.84 549.79 L 525.89 549.79 L 525.89 537.84 " /> <circle cx="29.88" cy="29.88" r="19.92" fill-opacity="1.0" stroke-opacity="0" fill="#E51919" /><circle cx="567.72" cy="567.72" r="19.92" fill-opacity="1.0" stroke-opacity="0" fill="#E51919" /> <path stroke-opacity="1.0" stroke-width="5" stroke="#E51919" d="M 29.88 59.76 L 29.88 29.88 M 59.76 89.64 L 29.88 89.64 L 29.88 59.76 M 59.76 89.64 L 89.64 89.64 L 89.64 119.52 M 89.64 179.28 L 89.64 239.04 M 89.64 119.52 L 89.64 131.47 M 89.64 179.28 L 89.64 167.33 M 89.64 298.8 L 89.64 358.56 M 89.64 239.04 L 89.64 250.99 M 89.64 298.8 L 89.64 286.85 M 119.52 448.2 L 89.64 448.2 L 89.64 418.32 M 89.64 358.56 L 89.64 370.51 M 89.64 418.32 L 89.64 406.37 M 209.16 418.32 L 209.16 448.2 L 179.28 448.2 M 119.52 448.2 L 179.28 448.2 M 239.04 388.44 L 209.16 388.44 L 209.16 418.32 M 298.8 388.44 L 328.68 388.44 L 328.68 418.32 M 239.04 388.44 L 250.99 388.44 M 298.8 388.44 L 286.85 388.44 M 358.56 507.96 L 328.68 507.96 L 328.68 478.08 M 328.68 418.32 L 328.68 430.27 M 328.68 478.08 L 328.68 466.13 M 358.56 507.96 L 418.32 507.96 M 478.08 507.96 L 507.96 507.96 L 507.96 537.84 M 418.32 507.96 L 430.27 507.96 M 478.08 507.96 L 466.13 507.96 M 567.72 567.72 L 537.84 567.72 M 537.84 567.72 L 507.96 567.72 L 507.96 537.84 " />  <path stroke-opacity="0.2" stroke-width="5" stroke="#E51919" d="M 29.88 59.76 L 29.88 29.88 M 89.64 131.47 L 89.64 149.4 M 89.64 167.33 L 89.64 149.4 M 89.64 250.99 L 89.64 268.92 M 89.64 286.85 L 89.64 268.92 M 89.64 370.51 L 89.64 388.44 M 89.64 406.37 L 89.64 388.44 M 250.99 388.44 L 268.92 388.44 M 286.85 388.44 L 268.92 388.44 M 328.68 430.27 L 328.68 448.2 M 328.68 466.13 L 328.68 448.2 M 430.27 507.96 L 448.2 507.96 M 466.13 507.96 L 448.2 507.96 M 567.72 567.72 L 537.84 567.72 " />   </svg>