<svg id="maze" width="800" height="800" stroke-width="3" fill-opacity="0.0" stroke="#000">
          <path stroke-linecap="round" 
            d="M78 62.4
L15.6 62.4
L15.6 15.6
L78 15.6
M78 15.6
L156 15.6
M78 62.4
L93.6 62.4
L93.6 78
M156 62.4
L140.4 62.4
L140.4 78
M156 62.4
L171.6 62.4
L171.6 78
M156 15.6
L218.4 15.6
L218.4 78
M312 62.4
L296.4 62.4
L296.4 78
M312 15.6
L249.6 15.6
L249.6 78
M312 62.4
L374.4 62.4
L374.4 15.6
L312 15.6
M468 62.4
L452.4 62.4
L452.4 78
M468 15.6
L405.6 15.6
L405.6 78
M468 62.4
L546 62.4
M468 15.6
L546 15.6
M546 62.4
L608.4 62.4
L608.4 15.6
L546 15.6
M686.4 78
L686.4 15.6
L639.6 15.6
L639.6 78
M78 140.4
L15.6 140.4
L15.6 93.6
L78 93.6
M93.6 156
L93.6 78
M140.4 156
L140.4 78
M78 93.6
L93.6 93.6
M78 140.4
L93.6 140.4
M156 93.6
L140.4 93.6
M156 140.4
L140.4 140.4
M171.6 78
L171.6 93.6
L156 93.6
M156 140.4
L171.6 140.4
L171.6 156
M234 93.6
L218.4 93.6
L218.4 78
M234 140.4
L218.4 140.4
L218.4 156
M249.6 156
L249.6 78
M296.4 156
L296.4 78
M234 93.6
L249.6 93.6
M234 140.4
L249.6 140.4
M312 93.6
L296.4 93.6
M312 140.4
L296.4 140.4
M312 140.4
L390 140.4
M312 93.6
L390 93.6
M405.6 156
L405.6 78
M452.4 156
L452.4 78
M390 93.6
L405.6 93.6
M390 140.4
L405.6 140.4
M468 93.6
L452.4 93.6
M468 140.4
L452.4 140.4
M468 140.4
L530.4 140.4
L530.4 93.6
L468 93.6
M608.4 156
L608.4 93.6
L561.6 93.6
L561.6 156
M639.6 156
L639.6 78
M702 93.6
L686.4 93.6
L686.4 78
M702 140.4
L686.4 140.4
L686.4 156
M717.6 78
L717.6 93.6
L702 93.6
M764.4 78
L764.4 140.4
L702 140.4
M62.4 234
L62.4 171.6
L15.6 171.6
L15.6 234
M140.4 156
L140.4 218.4
L93.6 218.4
L93.6 156
M234 171.6
L218.4 171.6
L218.4 156
M234 218.4
L171.6 218.4
L171.6 156
M296.4 234
L296.4 156
M249.6 156
L249.6 171.6
L234 171.6
M234 218.4
L249.6 218.4
L249.6 234
M374.4 234
L374.4 171.6
L327.6 171.6
L327.6 234
M405.6 234
L405.6 156
M452.4 234
L452.4 156
M546 218.4
L483.6 218.4
L483.6 171.6
L546 171.6
M561.6 156
L561.6 171.6
L546 171.6
M546 218.4
L561.6 218.4
L561.6 234
M624 171.6
L608.4 171.6
L608.4 156
M624 218.4
L608.4 218.4
L608.4 234
M624 218.4
L702 218.4
M624 171.6
L702 171.6
M639.6 171.6
L639.6 156
M639.6 218.4
L639.6 234
M686.4 171.6
L686.4 156
M686.4 218.4
L686.4 234
M702 218.4
L764.4 218.4
L764.4 171.6
L702 171.6
M78 249.6
L62.4 249.6
L62.4 234
M78 296.4
L15.6 296.4
L15.6 234
M78 296.4
L93.6 296.4
L93.6 312
M78 249.6
L140.4 249.6
L140.4 312
M234 296.4
L171.6 296.4
L171.6 249.6
L234 249.6
M249.6 312
L249.6 234
M296.4 312
L296.4 234
M234 249.6
L249.6 249.6
M234 296.4
L249.6 296.4
M312 249.6
L296.4 249.6
M312 296.4
L296.4 296.4
M327.6 234
L327.6 249.6
L312 249.6
M312 296.4
L327.6 296.4
L327.6 312
M390 249.6
L374.4 249.6
L374.4 234
M390 296.4
L374.4 296.4
L374.4 312
M390 296.4
L468 296.4
M390 249.6
L468 249.6
M405.6 249.6
L405.6 234
M405.6 296.4
L405.6 312
M452.4 249.6
L452.4 234
M452.4 296.4
L452.4 312
M468 249.6
L546 249.6
M468 296.4
L483.6 296.4
L483.6 312
M546 296.4
L530.4 296.4
L530.4 312
M546 296.4
L624 296.4
M546 249.6
L624 249.6
M561.6 249.6
L561.6 234
M561.6 296.4
L561.6 312
M608.4 249.6
L608.4 234
M608.4 296.4
L608.4 312
M639.6 234
L639.6 249.6
L624 249.6
M624 296.4
L639.6 296.4
L639.6 312
M702 249.6
L686.4 249.6
L686.4 234
M702 296.4
L686.4 296.4
L686.4 312
M702 296.4
L764.4 296.4
L764.4 249.6
L702 249.6
M78 374.4
L15.6 374.4
L15.6 327.6
L78 327.6
M78 374.4
L156 374.4
M78 327.6
L156 327.6
M93.6 327.6
L93.6 312
M93.6 374.4
L93.6 390
M140.4 327.6
L140.4 312
M140.4 374.4
L140.4 390
M156 374.4
L171.6 374.4
L171.6 390
M156 327.6
L218.4 327.6
L218.4 390
M312 327.6
L296.4 327.6
L296.4 312
M312 374.4
L249.6 374.4
L249.6 312
M327.6 390
L327.6 312
M374.4 390
L374.4 312
M312 327.6
L327.6 327.6
M312 374.4
L327.6 374.4
M390 327.6
L374.4 327.6
M390 374.4
L374.4 374.4
M452.4 390
L452.4 312
M405.6 312
L405.6 327.6
L390 327.6
M390 374.4
L405.6 374.4
L405.6 390
M483.6 390
L483.6 312
M530.4 390
L530.4 312
M561.6 390
L561.6 312
M624 327.6
L608.4 327.6
L608.4 312
M624 374.4
L608.4 374.4
L608.4 390
M624 374.4
L702 374.4
M624 327.6
L702 327.6
M639.6 327.6
L639.6 312
M639.6 374.4
L639.6 390
M686.4 327.6
L686.4 312
M686.4 374.4
L686.4 390
M702 374.4
L764.4 374.4
L764.4 327.6
L702 327.6
M78 452.4
L15.6 452.4
L15.6 405.6
L78 405.6
M93.6 390
L93.6 405.6
L78 405.6
M78 452.4
L93.6 452.4
L93.6 468
M156 405.6
L140.4 405.6
L140.4 390
M156 452.4
L140.4 452.4
L140.4 468
M156 452.4
L234 452.4
M156 405.6
L234 405.6
M171.6 405.6
L171.6 390
M171.6 452.4
L171.6 468
M218.4 405.6
L218.4 390
M218.4 452.4
L218.4 468
M234 405.6
L312 405.6
M234 452.4
L249.6 452.4
L249.6 468
M312 452.4
L296.4 452.4
L296.4 468
M327.6 390
L327.6 405.6
L312 405.6
M312 452.4
L327.6 452.4
L327.6 468
M390 405.6
L374.4 405.6
L374.4 390
M390 452.4
L374.4 452.4
L374.4 468
M390 452.4
L468 452.4
M405.6 390
L405.6 405.6
L390 405.6
M468 405.6
L452.4 405.6
L452.4 390
M468 452.4
L546 452.4
M468 405.6
L546 405.6
M483.6 405.6
L483.6 390
M483.6 452.4
L483.6 468
M530.4 405.6
L530.4 390
M530.4 452.4
L530.4 468
M561.6 390
L561.6 405.6
L546 405.6
M608.4 390
L608.4 452.4
L546 452.4
M639.6 468
L639.6 390
M686.4 468
L686.4 390
M764.4 468
L764.4 405.6
L717.6 405.6
L717.6 468
M78 530.4
L15.6 530.4
L15.6 483.6
L78 483.6
M78 530.4
L156 530.4
M78 483.6
L156 483.6
M93.6 483.6
L93.6 468
M93.6 530.4
L93.6 546
M140.4 483.6
L140.4 468
M140.4 530.4
L140.4 546
M156 530.4
L234 530.4
M171.6 468
L171.6 483.6
L156 483.6
M234 483.6
L218.4 483.6
L218.4 468
M249.6 546
L249.6 468
M296.4 546
L296.4 468
M234 483.6
L249.6 483.6
M234 530.4
L249.6 530.4
M312 483.6
L296.4 483.6
M312 530.4
L296.4 530.4
M327.6 468
L327.6 483.6
L312 483.6
M312 530.4
L327.6 530.4
L327.6 546
M390 483.6
L374.4 483.6
L374.4 468
M390 530.4
L374.4 530.4
L374.4 546
M390 530.4
L452.4 530.4
L452.4 483.6
L390 483.6
M530.4 468
L530.4 530.4
L483.6 530.4
L483.6 468
M624 530.4
L608.4 530.4
L608.4 546
M624 483.6
L561.6 483.6
L561.6 546
M639.6 546
L639.6 468
M686.4 546
L686.4 468
M624 483.6
L639.6 483.6
M624 530.4
L639.6 530.4
M702 483.6
L686.4 483.6
M702 530.4
L686.4 530.4
M764.4 546
L764.4 468
M717.6 468
L717.6 483.6
L702 483.6
M702 530.4
L717.6 530.4
L717.6 546
M78 608.4
L15.6 608.4
L15.6 561.6
L78 561.6
M140.4 624
L140.4 546
M93.6 546
L93.6 561.6
L78 561.6
M78 608.4
L93.6 608.4
L93.6 624
M234 608.4
L171.6 608.4
L171.6 561.6
L234 561.6
M234 608.4
L312 608.4
M249.6 546
L249.6 561.6
L234 561.6
M312 561.6
L296.4 561.6
L296.4 546
M327.6 624
L327.6 546
M374.4 624
L374.4 546
M312 561.6
L327.6 561.6
M312 608.4
L327.6 608.4
M390 561.6
L374.4 561.6
M390 608.4
L374.4 608.4
M390 608.4
L405.6 608.4
L405.6 624
M390 561.6
L452.4 561.6
L452.4 624
M530.4 624
L530.4 561.6
L483.6 561.6
L483.6 624
M561.6 624
L561.6 546
M624 561.6
L608.4 561.6
L608.4 546
M624 608.4
L608.4 608.4
L608.4 624
M639.6 546
L639.6 561.6
L624 561.6
M686.4 546
L686.4 608.4
L624 608.4
M717.6 624
L717.6 546
M764.4 624
L764.4 546
M78 686.4
L15.6 686.4
L15.6 639.6
L78 639.6
M93.6 702
L93.6 624
M140.4 702
L140.4 624
M78 639.6
L93.6 639.6
M78 686.4
L93.6 686.4
M156 639.6
L140.4 639.6
M156 686.4
L140.4 686.4
M156 639.6
L234 639.6
M156 686.4
L171.6 686.4
L171.6 702
M234 686.4
L218.4 686.4
L218.4 702
M234 639.6
L312 639.6
M234 686.4
L249.6 686.4
L249.6 702
M312 686.4
L296.4 686.4
L296.4 702
M312 686.4
L390 686.4
M327.6 624
L327.6 639.6
L312 639.6
M390 639.6
L374.4 639.6
L374.4 624
M390 686.4
L468 686.4
M390 639.6
L468 639.6
M405.6 639.6
L405.6 624
M405.6 686.4
L405.6 702
M452.4 639.6
L452.4 624
M452.4 686.4
L452.4 702
M468 686.4
L546 686.4
M483.6 624
L483.6 639.6
L468 639.6
M546 639.6
L530.4 639.6
L530.4 624
M561.6 702
L561.6 624
M608.4 702
L608.4 624
M546 639.6
L561.6 639.6
M546 686.4
L561.6 686.4
M624 639.6
L608.4 639.6
M624 686.4
L608.4 686.4
M624 686.4
L686.4 686.4
L686.4 639.6
L624 639.6
M717.6 702
L717.6 624
M764.4 702
L764.4 624
M93.6 702
L93.6 717.6
L78 717.6
M140.4 702
L140.4 764.4
L78 764.4
M218.4 702
L218.4 764.4
L171.6 764.4
L171.6 702
M312 717.6
L296.4 717.6
L296.4 702
M312 764.4
L249.6 764.4
L249.6 702
M312 764.4
L374.4 764.4
L374.4 717.6
L312 717.6
M452.4 702
L452.4 764.4
L405.6 764.4
L405.6 702
M546 764.4
L483.6 764.4
L483.6 717.6
L546 717.6
M561.6 702
L561.6 717.6
L546 717.6
M608.4 702
L608.4 764.4
L546 764.4
M702 764.4
L639.6 764.4
L639.6 717.6
L702 717.6
M717.6 702
L717.6 717.6
L702 717.6
M764.4 702
L764.4 764.4
L702 764.4
"></path>
            <circle cx="741" cy="39" r="26" fill-opacity="1.0" stroke-opacity="0" fill="#E51919" /><circle cx="39" cy="741" r="26" fill-opacity="1.0" stroke-opacity="0" fill="#E51919" />
         </svg>