<svg id="maze" xmlns="http://www.w3.org/2000/svg" viewBox="0 0 597.6 597.6"  width="597.6px" height="597.6px" stroke-width="2" fill-opacity="0.0" stroke="black"> <path stroke-opacity="1.0" stroke-width="2" stroke="#000000" d="M 119.52 47.81 L 107.57 47.81 L 107.57 59.76 M 119.52 11.95 L 71.71 11.95 L 71.71 59.76 M 119.52 47.81 L 167.33 47.81 L 167.33 11.95 L 119.52 11.95 M 227.09 59.76 L 227.09 11.95 L 191.23 11.95 L 191.23 59.76 M 286.85 59.76 L 286.85 11.95 L 250.99 11.95 L 250.99 59.76 M 358.56 47.81 L 346.61 47.81 L 346.61 59.76 M 358.56 11.95 L 310.75 11.95 L 310.75 59.76 M 358.56 47.81 L 406.37 47.81 L 406.37 11.95 L 358.56 11.95 M 466.13 59.76 L 466.13 11.95 L 430.27 11.95 L 430.27 59.76 M 537.84 47.81 L 490.03 47.81 L 490.03 11.95 L 537.84 11.95 M 537.84 47.81 L 549.79 47.81 L 549.79 59.76 M 537.84 11.95 L 585.65 11.95 L 585.65 59.76 M 59.76 71.71 L 47.81 71.71 L 47.81 59.76 M 59.76 107.57 L 11.95 107.57 L 11.95 59.76 M 107.57 59.76 L 107.57 119.52 M 71.71 59.76 L 71.71 71.71 L 59.76 71.71 M 59.76 107.57 L 71.71 107.57 L 71.71 119.52 M 179.28 107.57 L 131.47 107.57 L 131.47 71.71 L 179.28 71.71 M 179.28 71.71 L 239.04 71.71 M 179.28 107.57 L 239.04 107.57 M 191.23 59.76 L 191.23 71.71 M 227.09 59.76 L 227.09 71.71 M 191.23 107.57 L 191.23 119.52 M 227.09 107.57 L 227.09 119.52 M 250.99 59.76 L 250.99 71.71 L 239.04 71.71 M 239.04 107.57 L 250.99 107.57 L 250.99 119.52 M 298.8 71.71 L 286.85 71.71 L 286.85 59.76 M 298.8 107.57 L 286.85 107.57 L 286.85 119.52 M 310.75 59.76 L 310.75 119.52 M 346.61 59.76 L 346.61 119.52 M 298.8 71.71 L 310.75 71.71 M 298.8 107.57 L 310.75 107.57 M 358.56 71.71 L 346.61 71.71 M 358.56 107.57 L 346.61 107.57 M 358.56 71.71 L 418.32 71.71 M 358.56 107.57 L 370.51 107.57 L 370.51 119.52 M 418.32 107.57 L 406.37 107.57 L 406.37 119.52 M 430.27 59.76 L 430.27 119.52 M 466.13 59.76 L 466.13 119.52 M 418.32 71.71 L 430.27 71.71 M 418.32 107.57 L 430.27 107.57 M 478.08 71.71 L 466.13 71.71 M 478.08 107.57 L 466.13 107.57 M 478.08 71.71 L 537.84 71.71 M 478.08 107.57 L 490.03 107.57 L 490.03 119.52 M 537.84 107.57 L 525.89 107.57 L 525.89 119.52 M 549.79 59.76 L 549.79 71.71 L 537.84 71.71 M 585.65 59.76 L 585.65 107.57 L 537.84 107.57 M 59.76 167.33 L 47.81 167.33 L 47.81 179.28 M 59.76 131.47 L 11.95 131.47 L 11.95 179.28 M 71.71 119.52 L 71.71 179.28 M 107.57 119.52 L 107.57 179.28 M 59.76 131.47 L 71.71 131.47 M 59.76 167.33 L 71.71 167.33 M 119.52 131.47 L 107.57 131.47 M 119.52 167.33 L 107.57 167.33 M 119.52 131.47 L 179.28 131.47 M 119.52 167.33 L 131.47 167.33 L 131.47 179.28 M 179.28 167.33 L 167.33 167.33 L 167.33 179.28 M 179.28 167.33 L 239.04 167.33 M 191.23 119.52 L 191.23 131.47 L 179.28 131.47 M 239.04 131.47 L 227.09 131.47 L 227.09 119.52 M 239.04 131.47 L 298.8 131.47 M 239.04 167.33 L 298.8 167.33 M 250.99 119.52 L 250.99 131.47 M 286.85 119.52 L 286.85 131.47 M 250.99 167.33 L 250.99 179.28 M 286.85 167.33 L 286.85 179.28 M 298.8 167.33 L 358.56 167.33 M 310.75 119.52 L 310.75 131.47 L 298.8 131.47 M 358.56 131.47 L 346.61 131.47 L 346.61 119.52 M 358.56 131.47 L 418.32 131.47 M 358.56 167.33 L 418.32 167.33 M 370.51 119.52 L 370.51 131.47 M 406.37 119.52 L 406.37 131.47 M 370.51 167.33 L 370.51 179.28 M 406.37 167.33 L 406.37 179.28 M 418.32 167.33 L 478.08 167.33 M 430.27 119.52 L 430.27 131.47 L 418.32 131.47 M 478.08 131.47 L 466.13 131.47 L 466.13 119.52 M 490.03 119.52 L 490.03 179.28 M 525.89 119.52 L 525.89 179.28 M 478.08 131.47 L 490.03 131.47 M 478.08 167.33 L 490.03 167.33 M 537.84 131.47 L 525.89 131.47 M 537.84 167.33 L 525.89 167.33 M 537.84 167.33 L 549.79 167.33 L 549.79 179.28 M 537.84 131.47 L 585.65 131.47 L 585.65 179.28 M 47.81 179.28 L 47.81 186.02 L 47.81 227.09 L 11.95 227.09 L 11.95 179.28 M 71.71 179.28 L 71.71 239.04 M 119.52 191.23 L 107.57 191.23 L 107.57 179.28 M 119.52 227.09 L 107.57 227.09 L 107.57 239.04 M 131.47 179.28 L 131.47 239.04 M 167.33 179.28 L 167.33 239.04 M 119.52 191.23 L 131.47 191.23 M 119.52 227.09 L 131.47 227.09 M 179.28 191.23 L 167.33 191.23 M 179.28 227.09 L 167.33 227.09 M 179.28 227.09 L 191.23 227.09 L 191.23 239.04 M 179.28 191.23 L 227.09 191.23 L 227.09 239.04 M 286.85 179.28 L 286.85 186.02 L 286.85 227.09 L 250.99 227.09 L 250.99 179.28 M 346.61 239.04 L 346.61 191.23 L 310.75 191.23 L 310.75 239.04 M 370.51 179.28 L 370.51 239.04 M 406.37 179.28 L 406.37 239.04 M 466.13 239.04 L 466.13 191.23 L 430.27 191.23 L 430.27 239.04 M 525.89 179.28 L 525.89 186.02 L 525.89 227.09 L 490.03 227.09 L 490.03 179.28 M 585.65 179.28 L 585.65 186.02 L 585.65 227.09 L 549.79 227.09 L 549.79 179.28 M 59.76 286.85 L 47.81 286.85 L 47.81 298.8 M 59.76 250.99 L 11.95 250.99 L 11.95 298.8 M 71.71 239.04 L 71.71 298.8 M 107.57 239.04 L 107.57 298.8 M 59.76 250.99 L 71.71 250.99 M 59.76 286.85 L 71.71 286.85 M 119.52 250.99 L 107.57 250.99 M 119.52 286.85 L 107.57 286.85 M 119.52 286.85 L 179.28 286.85 M 131.47 239.04 L 131.47 250.99 L 119.52 250.99 M 179.28 250.99 L 167.33 250.99 L 167.33 239.04 M 179.28 250.99 L 239.04 250.99 M 179.28 286.85 L 239.04 286.85 M 191.23 239.04 L 191.23 250.99 M 227.09 239.04 L 227.09 250.99 M 191.23 286.85 L 191.23 298.8 M 227.09 286.85 L 227.09 298.8 M 239.04 250.99 L 298.8 250.99 M 239.04 286.85 L 298.8 286.85 M 298.8 250.99 L 358.56 250.99 M 298.8 286.85 L 358.56 286.85 M 310.75 239.04 L 310.75 250.99 M 346.61 239.04 L 346.61 250.99 M 310.75 286.85 L 310.75 298.8 M 346.61 286.85 L 346.61 298.8 M 370.51 239.04 L 370.51 250.99 L 358.56 250.99 M 358.56 286.85 L 370.51 286.85 L 370.51 298.8 M 418.32 250.99 L 406.37 250.99 L 406.37 239.04 M 418.32 286.85 L 406.37 286.85 L 406.37 298.8 M 430.27 239.04 L 430.27 298.8 M 466.13 239.04 L 466.13 298.8 M 418.32 250.99 L 430.27 250.99 M 418.32 286.85 L 430.27 286.85 M 478.08 250.99 L 466.13 250.99 M 478.08 286.85 L 466.13 286.85 M 478.08 286.85 L 490.03 286.85 L 490.03 298.8 M 478.08 250.99 L 525.89 250.99 L 525.89 298.8 M 585.65 298.8 L 585.65 250.99 L 549.79 250.99 L 549.79 298.8 M 47.81 298.8 L 47.81 305.54 L 47.81 346.61 L 11.95 346.61 L 11.95 298.8 M 71.71 298.8 L 71.71 358.56 M 107.57 298.8 L 107.57 358.56 M 167.33 358.56 L 167.33 310.75 L 131.47 310.75 L 131.47 358.56 M 191.23 298.8 L 191.23 358.56 M 227.09 298.8 L 227.09 358.56 M 286.85 358.56 L 286.85 310.75 L 250.99 310.75 L 250.99 358.56 M 310.75 298.8 L 310.75 358.56 M 358.56 310.75 L 346.61 310.75 L 346.61 298.8 M 358.56 346.61 L 346.61 346.61 L 346.61 358.56 M 370.51 298.8 L 370.51 358.56 M 406.37 298.8 L 406.37 358.56 M 358.56 310.75 L 370.51 310.75 M 358.56 346.61 L 370.51 346.61 M 418.32 310.75 L 406.37 310.75 M 418.32 346.61 L 406.37 346.61 M 430.27 298.8 L 430.27 310.75 L 418.32 310.75 M 418.32 346.61 L 430.27 346.61 L 430.27 358.56 M 478.08 310.75 L 466.13 310.75 L 466.13 298.8 M 478.08 346.61 L 466.13 346.61 L 466.13 358.56 M 490.03 298.8 L 490.03 358.56 M 525.89 298.8 L 525.89 358.56 M 478.08 310.75 L 490.03 310.75 M 478.08 346.61 L 490.03 346.61 M 537.84 310.75 L 525.89 310.75 M 537.84 346.61 L 525.89 346.61 M 585.65 298.8 L 585.65 358.56 M 549.79 298.8 L 549.79 310.75 L 537.84 310.75 M 537.84 346.61 L 549.79 346.61 L 549.79 358.56 M 59.76 406.37 L 11.95 406.37 L 11.95 370.51 L 59.76 370.51 M 59.76 370.51 L 119.52 370.51 M 59.76 406.37 L 119.52 406.37 M 71.71 358.56 L 71.71 370.51 M 107.57 358.56 L 107.57 370.51 M 71.71 406.37 L 71.71 418.32 M 107.57 406.37 L 107.57 418.32 M 119.52 406.37 L 179.28 406.37 M 131.47 358.56 L 131.47 370.51 L 119.52 370.51 M 179.28 370.51 L 167.33 370.51 L 167.33 358.56 M 179.28 370.51 L 239.04 370.51 M 179.28 406.37 L 239.04 406.37 M 191.23 358.56 L 191.23 370.51 M 227.09 358.56 L 227.09 370.51 M 191.23 406.37 L 191.23 418.32 M 227.09 406.37 L 227.09 418.32 M 250.99 358.56 L 250.99 370.51 L 239.04 370.51 M 239.04 406.37 L 250.99 406.37 L 250.99 418.32 M 298.8 370.51 L 286.85 370.51 L 286.85 358.56 M 298.8 406.37 L 286.85 406.37 L 286.85 418.32 M 310.75 358.56 L 310.75 418.32 M 346.61 358.56 L 346.61 418.32 M 298.8 370.51 L 310.75 370.51 M 298.8 406.37 L 310.75 406.37 M 358.56 370.51 L 346.61 370.51 M 358.56 406.37 L 346.61 406.37 M 406.37 358.56 L 406.37 418.32 M 370.51 358.56 L 370.51 370.51 L 358.56 370.51 M 358.56 406.37 L 370.51 406.37 L 370.51 418.32 M 466.13 358.56 L 466.13 365.3 L 466.13 406.37 L 430.27 406.37 L 430.27 358.56 M 490.03 358.56 L 490.03 418.32 M 525.89 358.56 L 525.89 418.32 M 549.79 358.56 L 549.79 418.32 M 585.65 358.56 L 585.65 418.32 M 47.81 478.08 L 47.81 430.27 L 11.95 430.27 L 11.95 478.08 M 71.71 418.32 L 71.71 478.08 M 107.57 418.32 L 107.57 478.08 M 179.28 466.13 L 167.33 466.13 L 167.33 478.08 M 179.28 430.27 L 131.47 430.27 L 131.47 478.08 M 191.23 418.32 L 191.23 430.27 L 179.28 430.27 M 179.28 466.13 L 191.23 466.13 L 191.23 478.08 M 239.04 430.27 L 227.09 430.27 L 227.09 418.32 M 239.04 466.13 L 227.09 466.13 L 227.09 478.08 M 250.99 418.32 L 250.99 478.08 M 286.85 418.32 L 286.85 478.08 M 239.04 430.27 L 250.99 430.27 M 239.04 466.13 L 250.99 466.13 M 298.8 430.27 L 286.85 430.27 M 298.8 466.13 L 286.85 466.13 M 310.75 418.32 L 310.75 430.27 L 298.8 430.27 M 298.8 466.13 L 310.75 466.13 L 310.75 478.08 M 358.56 430.27 L 346.61 430.27 L 346.61 418.32 M 358.56 466.13 L 346.61 466.13 L 346.61 478.08 M 358.56 430.27 L 418.32 430.27 M 358.56 466.13 L 418.32 466.13 M 370.51 418.32 L 370.51 430.27 M 406.37 418.32 L 406.37 430.27 M 370.51 466.13 L 370.51 478.08 M 406.37 466.13 L 406.37 478.08 M 418.32 466.13 L 466.13 466.13 L 466.13 430.27 L 418.32 430.27 M 490.03 418.32 L 490.03 478.08 M 525.89 418.32 L 525.89 478.08 M 585.65 418.32 L 585.65 425.06 L 585.65 466.13 L 549.79 466.13 L 549.79 418.32 M 59.76 490.03 L 47.81 490.03 L 47.81 478.08 M 59.76 525.89 L 11.95 525.89 L 11.95 478.08 M 71.71 478.08 L 71.71 537.84 M 107.57 478.08 L 107.57 537.84 M 59.76 490.03 L 71.71 490.03 M 59.76 525.89 L 71.71 525.89 M 119.52 490.03 L 107.57 490.03 M 119.52 525.89 L 107.57 525.89 M 119.52 525.89 L 179.28 525.89 M 131.47 478.08 L 131.47 490.03 L 119.52 490.03 M 179.28 490.03 L 167.33 490.03 L 167.33 478.08 M 191.23 478.08 L 191.23 537.84 M 227.09 478.08 L 227.09 537.84 M 179.28 490.03 L 191.23 490.03 M 179.28 525.89 L 191.23 525.89 M 239.04 490.03 L 227.09 490.03 M 239.04 525.89 L 227.09 525.89 M 286.85 478.08 L 286.85 537.84 M 250.99 478.08 L 250.99 490.03 L 239.04 490.03 M 239.04 525.89 L 250.99 525.89 L 250.99 537.84 M 346.61 478.08 L 346.61 484.82 L 346.61 525.89 L 310.75 525.89 L 310.75 478.08 M 370.51 478.08 L 370.51 537.84 M 418.32 490.03 L 406.37 490.03 L 406.37 478.08 M 418.32 525.89 L 406.37 525.89 L 406.37 537.84 M 418.32 490.03 L 478.08 490.03 M 418.32 525.89 L 478.08 525.89 M 478.08 490.03 L 537.84 490.03 M 478.08 525.89 L 537.84 525.89 M 490.03 478.08 L 490.03 490.03 M 525.89 478.08 L 525.89 490.03 M 490.03 525.89 L 490.03 537.84 M 525.89 525.89 L 525.89 537.84 M 537.84 525.89 L 549.79 525.89 L 549.79 537.84 M 537.84 490.03 L 585.65 490.03 L 585.65 537.84 M 59.76 585.65 L 11.95 585.65 L 11.95 549.79 L 59.76 549.79 M 59.76 585.65 L 119.52 585.65 M 71.71 537.84 L 71.71 549.79 L 59.76 549.79 M 119.52 549.79 L 107.57 549.79 L 107.57 537.84 M 119.52 585.65 L 167.33 585.65 L 167.33 549.79 L 119.52 549.79 M 227.09 537.84 L 227.09 544.58 L 227.09 585.65 L 191.23 585.65 L 191.23 537.84 M 298.8 549.79 L 286.85 549.79 L 286.85 537.84 M 298.8 585.65 L 250.99 585.65 L 250.99 537.84 M 298.8 585.65 L 346.61 585.65 L 346.61 549.79 L 298.8 549.79 M 418.32 549.79 L 406.37 549.79 L 406.37 537.84 M 418.32 585.65 L 370.51 585.65 L 370.51 537.84 M 418.32 585.65 L 466.13 585.65 L 466.13 549.79 L 418.32 549.79 M 525.89 537.84 L 525.89 544.58 L 525.89 585.65 L 490.03 585.65 L 490.03 537.84 " /> <circle cx="29.88" cy="29.88" r="19.92" fill-opacity="1.0" stroke-opacity="0" fill="#E51919" /><circle cx="567.72" cy="567.72" r="19.92" fill-opacity="1.0" stroke-opacity="0" fill="#E51919" /> <path stroke-opacity="1.0" stroke-width="5" stroke="#E51919" d="M 29.88 59.76 L 29.88 29.88 M 59.76 89.64 L 29.88 89.64 L 29.88 59.76 M 59.76 89.64 L 89.64 89.64 L 89.64 119.52 M 119.52 209.16 L 89.64 209.16 L 89.64 179.28 M 89.64 119.52 L 89.64 179.28 M 179.28 209.16 L 209.16 209.16 L 209.16 239.04 M 119.52 209.16 L 131.47 209.16 M 179.28 209.16 L 167.33 209.16 M 209.16 298.8 L 209.16 358.56 M 209.16 239.04 L 209.16 250.99 M 209.16 298.8 L 209.16 286.85 M 209.16 418.32 L 209.16 448.2 L 179.28 448.2 M 209.16 358.56 L 209.16 370.51 M 209.16 418.32 L 209.16 406.37 M 179.28 448.2 L 149.4 448.2 L 149.4 478.08 M 179.28 507.96 L 149.4 507.96 L 149.4 478.08 M 268.92 478.08 L 268.92 507.96 L 239.04 507.96 M 179.28 507.96 L 191.23 507.96 M 239.04 507.96 L 227.09 507.96 M 298.8 388.44 L 268.92 388.44 L 268.92 418.32 M 268.92 418.32 L 268.92 478.08 M 358.56 388.44 L 388.44 388.44 L 388.44 418.32 M 298.8 388.44 L 310.75 388.44 M 358.56 388.44 L 346.61 388.44 M 418.32 507.96 L 388.44 507.96 L 388.44 478.08 M 388.44 418.32 L 388.44 430.27 M 388.44 478.08 L 388.44 466.13 M 418.32 507.96 L 478.08 507.96 M 567.72 537.84 L 567.72 567.72 M 537.84 507.96 L 567.72 507.96 L 567.72 537.84 M 478.08 507.96 L 537.84 507.96 " />  <path stroke-opacity="0.2" stroke-width="5" stroke="#E51919" d="M 29.88 59.76 L 29.88 29.88 M 131.47 209.16 L 149.4 209.16 M 167.33 209.16 L 149.4 209.16 M 209.16 250.99 L 209.16 268.92 M 209.16 286.85 L 209.16 268.92 M 209.16 370.51 L 209.16 388.44 M 209.16 406.37 L 209.16 388.44 M 191.23 507.96 L 209.16 507.96 M 227.09 507.96 L 209.16 507.96 M 310.75 388.44 L 328.68 388.44 M 346.61 388.44 L 328.68 388.44 M 388.44 430.27 L 388.44 448.2 M 388.44 466.13 L 388.44 448.2 M 567.72 537.84 L 567.72 567.72 " />   </svg>