<svg id="maze" xmlns="http://www.w3.org/2000/svg" viewBox="0 0 597.6 597.6"  width="597.6px" height="597.6px" stroke-width="2" fill-opacity="0.0" stroke="black"> <path stroke-opacity="1.0" stroke-width="2" stroke="#000000" d="M 59.76 47.81 L 71.71 47.81 L 71.71 59.76 M 59.76 11.95 L 107.57 11.95 L 107.57 59.76 M 179.28 47.81 L 167.33 47.81 L 167.33 59.76 M 179.28 11.95 L 131.47 11.95 L 131.47 59.76 M 179.28 47.81 L 227.09 47.81 L 227.09 11.95 L 179.28 11.95 M 298.8 47.81 L 286.85 47.81 L 286.85 59.76 M 298.8 11.95 L 250.99 11.95 L 250.99 59.76 M 298.8 11.95 L 358.56 11.95 M 298.8 47.81 L 358.56 47.81 M 358.56 47.81 L 406.37 47.81 L 406.37 11.95 L 358.56 11.95 M 466.13 59.76 L 466.13 11.95 L 430.27 11.95 L 430.27 59.76 M 537.84 47.81 L 490.03 47.81 L 490.03 11.95 L 537.84 11.95 M 537.84 47.81 L 549.79 47.81 L 549.79 59.76 M 537.84 11.95 L 585.65 11.95 L 585.65 59.76 M 59.76 107.57 L 47.81 107.57 L 47.81 119.52 M 59.76 71.71 L 11.95 71.71 L 11.95 119.52 M 71.71 59.76 L 71.71 119.52 M 107.57 59.76 L 107.57 119.52 M 59.76 71.71 L 71.71 71.71 M 59.76 107.57 L 71.71 107.57 M 119.52 71.71 L 107.57 71.71 M 119.52 107.57 L 107.57 107.57 M 167.33 59.76 L 167.33 119.52 M 131.47 59.76 L 131.47 71.71 L 119.52 71.71 M 119.52 107.57 L 131.47 107.57 L 131.47 119.52 M 227.09 119.52 L 227.09 71.71 L 191.23 71.71 L 191.23 119.52 M 250.99 59.76 L 250.99 119.52 M 298.8 71.71 L 286.85 71.71 L 286.85 59.76 M 298.8 107.57 L 286.85 107.57 L 286.85 119.52 M 298.8 107.57 L 346.61 107.57 L 346.61 71.71 L 298.8 71.71 M 418.32 107.57 L 370.51 107.57 L 370.51 71.71 L 418.32 71.71 M 418.32 71.71 L 478.08 71.71 M 418.32 107.57 L 478.08 107.57 M 430.27 59.76 L 430.27 71.71 M 466.13 59.76 L 466.13 71.71 M 430.27 107.57 L 430.27 119.52 M 466.13 107.57 L 466.13 119.52 M 478.08 71.71 L 537.84 71.71 M 478.08 107.57 L 490.03 107.57 L 490.03 119.52 M 537.84 107.57 L 525.89 107.57 L 525.89 119.52 M 549.79 59.76 L 549.79 71.71 L 537.84 71.71 M 585.65 59.76 L 585.65 107.57 L 537.84 107.57 M 47.81 119.52 L 47.81 126.26 L 47.81 167.33 L 11.95 167.33 L 11.95 119.52 M 119.52 131.47 L 107.57 131.47 L 107.57 119.52 M 119.52 167.33 L 71.71 167.33 L 71.71 119.52 M 119.52 131.47 L 179.28 131.47 M 119.52 167.33 L 179.28 167.33 M 131.47 119.52 L 131.47 131.47 M 167.33 119.52 L 167.33 131.47 M 131.47 167.33 L 131.47 179.28 M 167.33 167.33 L 167.33 179.28 M 191.23 119.52 L 191.23 131.47 L 179.28 131.47 M 179.28 167.33 L 191.23 167.33 L 191.23 179.28 M 239.04 131.47 L 227.09 131.47 L 227.09 119.52 M 239.04 167.33 L 227.09 167.33 L 227.09 179.28 M 239.04 131.47 L 298.8 131.47 M 239.04 167.33 L 298.8 167.33 M 250.99 119.52 L 250.99 131.47 M 286.85 119.52 L 286.85 131.47 M 250.99 167.33 L 250.99 179.28 M 286.85 167.33 L 286.85 179.28 M 298.8 167.33 L 346.61 167.33 L 346.61 131.47 L 298.8 131.47 M 406.37 179.28 L 406.37 131.47 L 370.51 131.47 L 370.51 179.28 M 478.08 131.47 L 466.13 131.47 L 466.13 119.52 M 478.08 167.33 L 430.27 167.33 L 430.27 119.52 M 490.03 119.52 L 490.03 131.47 L 478.08 131.47 M 478.08 167.33 L 490.03 167.33 L 490.03 179.28 M 537.84 131.47 L 525.89 131.47 L 525.89 119.52 M 537.84 167.33 L 525.89 167.33 L 525.89 179.28 M 537.84 167.33 L 549.79 167.33 L 549.79 179.28 M 537.84 131.47 L 585.65 131.47 L 585.65 179.28 M 59.76 227.09 L 47.81 227.09 L 47.81 239.04 M 59.76 191.23 L 11.95 191.23 L 11.95 239.04 M 59.76 227.09 L 71.71 227.09 L 71.71 239.04 M 59.76 191.23 L 107.57 191.23 L 107.57 239.04 M 131.47 179.28 L 131.47 239.04 M 167.33 179.28 L 167.33 239.04 M 191.23 179.28 L 191.23 239.04 M 227.09 179.28 L 227.09 239.04 M 250.99 179.28 L 250.99 239.04 M 286.85 179.28 L 286.85 239.04 M 358.56 227.09 L 346.61 227.09 L 346.61 239.04 M 358.56 191.23 L 310.75 191.23 L 310.75 239.04 M 370.51 179.28 L 370.51 191.23 L 358.56 191.23 M 358.56 227.09 L 370.51 227.09 L 370.51 239.04 M 418.32 191.23 L 406.37 191.23 L 406.37 179.28 M 418.32 227.09 L 406.37 227.09 L 406.37 239.04 M 418.32 191.23 L 478.08 191.23 M 418.32 227.09 L 478.08 227.09 M 525.89 179.28 L 525.89 239.04 M 490.03 179.28 L 490.03 191.23 L 478.08 191.23 M 478.08 227.09 L 490.03 227.09 L 490.03 239.04 M 585.65 179.28 L 585.65 186.02 L 585.65 227.09 L 549.79 227.09 L 549.79 179.28 M 59.76 250.99 L 47.81 250.99 L 47.81 239.04 M 59.76 286.85 L 11.95 286.85 L 11.95 239.04 M 71.71 239.04 L 71.71 298.8 M 107.57 239.04 L 107.57 298.8 M 59.76 250.99 L 71.71 250.99 M 59.76 286.85 L 71.71 286.85 M 119.52 250.99 L 107.57 250.99 M 119.52 286.85 L 107.57 286.85 M 119.52 286.85 L 179.28 286.85 M 131.47 239.04 L 131.47 250.99 L 119.52 250.99 M 179.28 250.99 L 167.33 250.99 L 167.33 239.04 M 191.23 239.04 L 191.23 298.8 M 227.09 239.04 L 227.09 298.8 M 179.28 250.99 L 191.23 250.99 M 179.28 286.85 L 191.23 286.85 M 239.04 250.99 L 227.09 250.99 M 239.04 286.85 L 227.09 286.85 M 250.99 239.04 L 250.99 250.99 L 239.04 250.99 M 239.04 286.85 L 250.99 286.85 L 250.99 298.8 M 298.8 250.99 L 286.85 250.99 L 286.85 239.04 M 298.8 286.85 L 286.85 286.85 L 286.85 298.8 M 310.75 239.04 L 310.75 298.8 M 346.61 239.04 L 346.61 298.8 M 298.8 250.99 L 310.75 250.99 M 298.8 286.85 L 310.75 286.85 M 358.56 250.99 L 346.61 250.99 M 358.56 286.85 L 346.61 286.85 M 406.37 239.04 L 406.37 298.8 M 370.51 239.04 L 370.51 250.99 L 358.56 250.99 M 358.56 286.85 L 370.51 286.85 L 370.51 298.8 M 478.08 286.85 L 430.27 286.85 L 430.27 250.99 L 478.08 250.99 M 490.03 239.04 L 490.03 298.8 M 525.89 239.04 L 525.89 298.8 M 478.08 250.99 L 490.03 250.99 M 478.08 286.85 L 490.03 286.85 M 537.84 250.99 L 525.89 250.99 M 537.84 286.85 L 525.89 286.85 M 537.84 286.85 L 549.79 286.85 L 549.79 298.8 M 537.84 250.99 L 585.65 250.99 L 585.65 298.8 M 47.81 358.56 L 47.81 310.75 L 11.95 310.75 L 11.95 358.56 M 71.71 298.8 L 71.71 358.56 M 107.57 298.8 L 107.57 358.56 M 179.28 346.61 L 131.47 346.61 L 131.47 310.75 L 179.28 310.75 M 191.23 298.8 L 191.23 310.75 L 179.28 310.75 M 179.28 346.61 L 191.23 346.61 L 191.23 358.56 M 239.04 310.75 L 227.09 310.75 L 227.09 298.8 M 239.04 346.61 L 227.09 346.61 L 227.09 358.56 M 239.04 310.75 L 298.8 310.75 M 239.04 346.61 L 298.8 346.61 M 250.99 298.8 L 250.99 310.75 M 286.85 298.8 L 286.85 310.75 M 250.99 346.61 L 250.99 358.56 M 286.85 346.61 L 286.85 358.56 M 298.8 346.61 L 358.56 346.61 M 310.75 298.8 L 310.75 310.75 L 298.8 310.75 M 358.56 310.75 L 346.61 310.75 L 346.61 298.8 M 358.56 310.75 L 418.32 310.75 M 358.56 346.61 L 418.32 346.61 M 370.51 298.8 L 370.51 310.75 M 406.37 298.8 L 406.37 310.75 M 370.51 346.61 L 370.51 358.56 M 406.37 346.61 L 406.37 358.56 M 418.32 346.61 L 466.13 346.61 L 466.13 310.75 L 418.32 310.75 M 537.84 310.75 L 525.89 310.75 L 525.89 298.8 M 537.84 346.61 L 490.03 346.61 L 490.03 298.8 M 585.65 298.8 L 585.65 358.56 M 549.79 298.8 L 549.79 310.75 L 537.84 310.75 M 537.84 346.61 L 549.79 346.61 L 549.79 358.56 M 59.76 370.51 L 47.81 370.51 L 47.81 358.56 M 59.76 406.37 L 11.95 406.37 L 11.95 358.56 M 71.71 358.56 L 71.71 418.32 M 107.57 358.56 L 107.57 418.32 M 59.76 370.51 L 71.71 370.51 M 59.76 406.37 L 71.71 406.37 M 119.52 370.51 L 107.57 370.51 M 119.52 406.37 L 107.57 406.37 M 119.52 406.37 L 131.47 406.37 L 131.47 418.32 M 119.52 370.51 L 167.33 370.51 L 167.33 418.32 M 191.23 358.56 L 191.23 418.32 M 227.09 358.56 L 227.09 418.32 M 286.85 358.56 L 286.85 365.3 L 286.85 406.37 L 250.99 406.37 L 250.99 358.56 M 358.56 406.37 L 310.75 406.37 L 310.75 370.51 L 358.56 370.51 M 370.51 358.56 L 370.51 370.51 L 358.56 370.51 M 358.56 406.37 L 370.51 406.37 L 370.51 418.32 M 418.32 370.51 L 406.37 370.51 L 406.37 358.56 M 418.32 406.37 L 406.37 406.37 L 406.37 418.32 M 418.32 370.51 L 478.08 370.51 M 418.32 406.37 L 478.08 406.37 M 478.08 406.37 L 490.03 406.37 L 490.03 418.32 M 478.08 370.51 L 525.89 370.51 L 525.89 418.32 M 585.65 358.56 L 585.65 365.3 L 585.65 406.37 L 549.79 406.37 L 549.79 358.56 M 59.76 466.13 L 11.95 466.13 L 11.95 430.27 L 59.76 430.27 M 71.71 418.32 L 71.71 430.27 L 59.76 430.27 M 59.76 466.13 L 71.71 466.13 L 71.71 478.08 M 119.52 430.27 L 107.57 430.27 L 107.57 418.32 M 119.52 466.13 L 107.57 466.13 L 107.57 478.08 M 119.52 466.13 L 179.28 466.13 M 131.47 418.32 L 131.47 430.27 L 119.52 430.27 M 179.28 430.27 L 167.33 430.27 L 167.33 418.32 M 191.23 418.32 L 191.23 478.08 M 227.09 418.32 L 227.09 478.08 M 179.28 430.27 L 191.23 430.27 M 179.28 466.13 L 191.23 466.13 M 239.04 430.27 L 227.09 430.27 M 239.04 466.13 L 227.09 466.13 M 239.04 466.13 L 286.85 466.13 L 286.85 430.27 L 239.04 430.27 M 358.56 466.13 L 346.61 466.13 L 346.61 478.08 M 358.56 430.27 L 310.75 430.27 L 310.75 478.08 M 370.51 418.32 L 370.51 478.08 M 406.37 418.32 L 406.37 478.08 M 358.56 430.27 L 370.51 430.27 M 358.56 466.13 L 370.51 466.13 M 418.32 430.27 L 406.37 430.27 M 418.32 466.13 L 406.37 466.13 M 418.32 466.13 L 430.27 466.13 L 430.27 478.08 M 418.32 430.27 L 466.13 430.27 L 466.13 478.08 M 537.84 430.27 L 525.89 430.27 L 525.89 418.32 M 537.84 466.13 L 490.03 466.13 L 490.03 418.32 M 537.84 466.13 L 585.65 466.13 L 585.65 430.27 L 537.84 430.27 M 59.76 525.89 L 47.81 525.89 L 47.81 537.84 M 59.76 490.03 L 11.95 490.03 L 11.95 537.84 M 71.71 478.08 L 71.71 537.84 M 107.57 478.08 L 107.57 537.84 M 59.76 490.03 L 71.71 490.03 M 59.76 525.89 L 71.71 525.89 M 119.52 490.03 L 107.57 490.03 M 119.52 525.89 L 107.57 525.89 M 119.52 525.89 L 131.47 525.89 L 131.47 537.84 M 119.52 490.03 L 167.33 490.03 L 167.33 537.84 M 191.23 478.08 L 191.23 537.84 M 239.04 490.03 L 227.09 490.03 L 227.09 478.08 M 239.04 525.89 L 227.09 525.89 L 227.09 537.84 M 239.04 490.03 L 298.8 490.03 M 239.04 525.89 L 298.8 525.89 M 346.61 478.08 L 346.61 537.84 M 310.75 478.08 L 310.75 490.03 L 298.8 490.03 M 298.8 525.89 L 310.75 525.89 L 310.75 537.84 M 418.32 490.03 L 406.37 490.03 L 406.37 478.08 M 418.32 525.89 L 370.51 525.89 L 370.51 478.08 M 418.32 490.03 L 478.08 490.03 M 418.32 525.89 L 478.08 525.89 M 430.27 478.08 L 430.27 490.03 M 466.13 478.08 L 466.13 490.03 M 430.27 525.89 L 430.27 537.84 M 466.13 525.89 L 466.13 537.84 M 478.08 525.89 L 525.89 525.89 L 525.89 490.03 L 478.08 490.03 M 585.65 537.84 L 585.65 490.03 L 549.79 490.03 L 549.79 537.84 M 47.81 537.84 L 47.81 544.58 L 47.81 585.65 L 11.95 585.65 L 11.95 537.84 M 107.57 537.84 L 107.57 544.58 L 107.57 585.65 L 71.71 585.65 L 71.71 537.84 M 179.28 549.79 L 167.33 549.79 L 167.33 537.84 M 179.28 585.65 L 131.47 585.65 L 131.47 537.84 M 179.28 585.65 L 239.04 585.65 M 191.23 537.84 L 191.23 549.79 L 179.28 549.79 M 239.04 549.79 L 227.09 549.79 L 227.09 537.84 M 239.04 585.65 L 286.85 585.65 L 286.85 549.79 L 239.04 549.79 M 346.61 537.84 L 346.61 544.58 L 346.61 585.65 L 310.75 585.65 L 310.75 537.84 M 418.32 585.65 L 370.51 585.65 L 370.51 549.79 L 418.32 549.79 M 418.32 585.65 L 478.08 585.65 M 430.27 537.84 L 430.27 549.79 L 418.32 549.79 M 478.08 549.79 L 466.13 549.79 L 466.13 537.84 M 478.08 549.79 L 537.84 549.79 M 478.08 585.65 L 537.84 585.65 " /> <circle cx="29.88" cy="29.88" r="19.92" fill-opacity="1.0" stroke-opacity="0" fill="#E51919" /><circle cx="567.72" cy="567.72" r="19.92" fill-opacity="1.0" stroke-opacity="0" fill="#E51919" /> <path stroke-opacity="1.0" stroke-width="5" stroke="#E51919" d="M 29.88 29.88 L 59.76 29.88 M 59.76 29.88 L 89.64 29.88 L 89.64 59.76 M 119.52 149.4 L 89.64 149.4 L 89.64 119.52 M 89.64 59.76 L 89.64 119.52 M 179.28 149.4 L 209.16 149.4 L 209.16 179.28 M 119.52 149.4 L 179.28 149.4 M 209.16 179.28 L 209.16 239.04 M 209.16 298.8 L 209.16 358.56 M 209.16 239.04 L 209.16 298.8 M 209.16 358.56 L 209.16 418.32 M 239.04 507.96 L 209.16 507.96 L 209.16 478.08 M 209.16 418.32 L 209.16 478.08 M 239.04 507.96 L 298.8 507.96 M 328.68 478.08 L 328.68 507.96 L 298.8 507.96 M 358.56 448.2 L 328.68 448.2 L 328.68 478.08 M 418.32 448.2 L 448.2 448.2 L 448.2 478.08 M 358.56 448.2 L 370.51 448.2 M 418.32 448.2 L 406.37 448.2 M 478.08 567.72 L 448.2 567.72 L 448.2 537.84 M 448.2 478.08 L 448.2 490.03 M 448.2 537.84 L 448.2 525.89 M 567.72 567.72 L 537.84 567.72 M 478.08 567.72 L 537.84 567.72 " />  <path stroke-opacity="0.2" stroke-width="5" stroke="#E51919" d="M 29.88 29.88 L 59.76 29.88 M 370.51 448.2 L 388.44 448.2 M 406.37 448.2 L 388.44 448.2 M 448.2 490.03 L 448.2 507.96 M 448.2 525.89 L 448.2 507.96 M 567.72 567.72 L 537.84 567.72 " />   </svg>