<svg id="maze" xmlns="http://www.w3.org/2000/svg" viewBox="0 0 597.6 597.6"  width="597.6px" height="597.6px" stroke-width="2" fill-opacity="0.0" stroke="black"> <path stroke-opacity="1.0" stroke-width="2" stroke="#000000" d="M 59.76 11.95 L 119.52 11.95 M 59.76 47.81 L 71.71 47.81 L 71.71 59.76 M 119.52 47.81 L 107.57 47.81 L 107.57 59.76 M 119.52 11.95 L 179.28 11.95 M 119.52 47.81 L 179.28 47.81 M 179.28 11.95 L 239.04 11.95 M 179.28 47.81 L 191.23 47.81 L 191.23 59.76 M 239.04 47.81 L 227.09 47.81 L 227.09 59.76 M 239.04 47.81 L 250.99 47.81 L 250.99 59.76 M 239.04 11.95 L 286.85 11.95 L 286.85 59.76 M 358.56 47.81 L 310.75 47.81 L 310.75 11.95 L 358.56 11.95 M 358.56 47.81 L 370.51 47.81 L 370.51 59.76 M 358.56 11.95 L 406.37 11.95 L 406.37 59.76 M 478.08 47.81 L 430.27 47.81 L 430.27 11.95 L 478.08 11.95 M 478.08 47.81 L 490.03 47.81 L 490.03 59.76 M 478.08 11.95 L 525.89 11.95 L 525.89 59.76 M 585.65 59.76 L 585.65 11.95 L 549.79 11.95 L 549.79 59.76 M 59.76 107.57 L 47.81 107.57 L 47.81 119.52 M 59.76 71.71 L 11.95 71.71 L 11.95 119.52 M 59.76 71.71 L 119.52 71.71 M 59.76 107.57 L 119.52 107.57 M 71.71 59.76 L 71.71 71.71 M 107.57 59.76 L 107.57 71.71 M 71.71 107.57 L 71.71 119.52 M 107.57 107.57 L 107.57 119.52 M 119.52 71.71 L 179.28 71.71 M 119.52 107.57 L 179.28 107.57 M 191.23 59.76 L 191.23 119.52 M 227.09 59.76 L 227.09 119.52 M 179.28 71.71 L 191.23 71.71 M 179.28 107.57 L 191.23 107.57 M 239.04 71.71 L 227.09 71.71 M 239.04 107.57 L 227.09 107.57 M 250.99 59.76 L 250.99 71.71 L 239.04 71.71 M 286.85 59.76 L 286.85 107.57 L 239.04 107.57 M 358.56 107.57 L 310.75 107.57 L 310.75 71.71 L 358.56 71.71 M 370.51 59.76 L 370.51 119.52 M 406.37 59.76 L 406.37 119.52 M 358.56 71.71 L 370.51 71.71 M 358.56 107.57 L 370.51 107.57 M 418.32 71.71 L 406.37 71.71 M 418.32 107.57 L 406.37 107.57 M 418.32 71.71 L 478.08 71.71 M 418.32 107.57 L 430.27 107.57 L 430.27 119.52 M 478.08 107.57 L 466.13 107.57 L 466.13 119.52 M 490.03 59.76 L 490.03 119.52 M 525.89 59.76 L 525.89 119.52 M 478.08 71.71 L 490.03 71.71 M 478.08 107.57 L 490.03 107.57 M 537.84 71.71 L 525.89 71.71 M 537.84 107.57 L 525.89 107.57 M 585.65 59.76 L 585.65 119.52 M 549.79 59.76 L 549.79 71.71 L 537.84 71.71 M 537.84 107.57 L 549.79 107.57 L 549.79 119.52 M 47.81 119.52 L 47.81 126.26 L 47.81 167.33 L 11.95 167.33 L 11.95 119.52 M 107.57 119.52 L 107.57 126.26 L 107.57 167.33 L 71.71 167.33 L 71.71 119.52 M 167.33 179.28 L 167.33 131.47 L 131.47 131.47 L 131.47 179.28 M 191.23 119.52 L 191.23 179.28 M 227.09 119.52 L 227.09 179.28 M 298.8 167.33 L 286.85 167.33 L 286.85 179.28 M 298.8 131.47 L 250.99 131.47 L 250.99 179.28 M 298.8 167.33 L 346.61 167.33 L 346.61 131.47 L 298.8 131.47 M 370.51 119.52 L 370.51 179.28 M 418.32 131.47 L 406.37 131.47 L 406.37 119.52 M 418.32 167.33 L 406.37 167.33 L 406.37 179.28 M 418.32 131.47 L 478.08 131.47 M 418.32 167.33 L 478.08 167.33 M 430.27 119.52 L 430.27 131.47 M 466.13 119.52 L 466.13 131.47 M 430.27 167.33 L 430.27 179.28 M 466.13 167.33 L 466.13 179.28 M 525.89 119.52 L 525.89 179.28 M 490.03 119.52 L 490.03 131.47 L 478.08 131.47 M 478.08 167.33 L 490.03 167.33 L 490.03 179.28 M 585.65 119.52 L 585.65 126.26 L 585.65 167.33 L 549.79 167.33 L 549.79 119.52 M 59.76 227.09 L 11.95 227.09 L 11.95 191.23 L 59.76 191.23 M 59.76 191.23 L 119.52 191.23 M 59.76 227.09 L 71.71 227.09 L 71.71 239.04 M 119.52 227.09 L 107.57 227.09 L 107.57 239.04 M 131.47 179.28 L 131.47 239.04 M 167.33 179.28 L 167.33 239.04 M 119.52 191.23 L 131.47 191.23 M 119.52 227.09 L 131.47 227.09 M 179.28 191.23 L 167.33 191.23 M 179.28 227.09 L 167.33 227.09 M 179.28 227.09 L 239.04 227.09 M 191.23 179.28 L 191.23 191.23 L 179.28 191.23 M 239.04 191.23 L 227.09 191.23 L 227.09 179.28 M 239.04 191.23 L 298.8 191.23 M 239.04 227.09 L 298.8 227.09 M 250.99 179.28 L 250.99 191.23 M 286.85 179.28 L 286.85 191.23 M 250.99 227.09 L 250.99 239.04 M 286.85 227.09 L 286.85 239.04 M 298.8 191.23 L 358.56 191.23 M 298.8 227.09 L 310.75 227.09 L 310.75 239.04 M 358.56 227.09 L 346.61 227.09 L 346.61 239.04 M 358.56 191.23 L 418.32 191.23 M 358.56 227.09 L 418.32 227.09 M 370.51 179.28 L 370.51 191.23 M 406.37 179.28 L 406.37 191.23 M 370.51 227.09 L 370.51 239.04 M 406.37 227.09 L 406.37 239.04 M 418.32 227.09 L 478.08 227.09 M 430.27 179.28 L 430.27 191.23 L 418.32 191.23 M 478.08 191.23 L 466.13 191.23 L 466.13 179.28 M 490.03 179.28 L 490.03 239.04 M 525.89 179.28 L 525.89 239.04 M 478.08 191.23 L 490.03 191.23 M 478.08 227.09 L 490.03 227.09 M 537.84 191.23 L 525.89 191.23 M 537.84 227.09 L 525.89 227.09 M 537.84 227.09 L 585.65 227.09 L 585.65 191.23 L 537.84 191.23 M 59.76 286.85 L 47.81 286.85 L 47.81 298.8 M 59.76 250.99 L 11.95 250.99 L 11.95 298.8 M 71.71 239.04 L 71.71 298.8 M 107.57 239.04 L 107.57 298.8 M 59.76 250.99 L 71.71 250.99 M 59.76 286.85 L 71.71 286.85 M 119.52 250.99 L 107.57 250.99 M 119.52 286.85 L 107.57 286.85 M 131.47 239.04 L 131.47 250.99 L 119.52 250.99 M 167.33 239.04 L 167.33 286.85 L 119.52 286.85 M 227.09 298.8 L 227.09 250.99 L 191.23 250.99 L 191.23 298.8 M 250.99 239.04 L 250.99 298.8 M 286.85 239.04 L 286.85 298.8 M 310.75 239.04 L 310.75 298.8 M 358.56 250.99 L 346.61 250.99 L 346.61 239.04 M 358.56 286.85 L 346.61 286.85 L 346.61 298.8 M 358.56 286.85 L 418.32 286.85 M 370.51 239.04 L 370.51 250.99 L 358.56 250.99 M 418.32 250.99 L 406.37 250.99 L 406.37 239.04 M 418.32 286.85 L 466.13 286.85 L 466.13 250.99 L 418.32 250.99 M 490.03 239.04 L 490.03 298.8 M 537.84 250.99 L 525.89 250.99 L 525.89 239.04 M 537.84 286.85 L 525.89 286.85 L 525.89 298.8 M 537.84 286.85 L 585.65 286.85 L 585.65 250.99 L 537.84 250.99 M 59.76 310.75 L 47.81 310.75 L 47.81 298.8 M 59.76 346.61 L 11.95 346.61 L 11.95 298.8 M 71.71 298.8 L 71.71 310.75 L 59.76 310.75 M 59.76 346.61 L 71.71 346.61 L 71.71 358.56 M 119.52 310.75 L 107.57 310.75 L 107.57 298.8 M 119.52 346.61 L 107.57 346.61 L 107.57 358.56 M 119.52 346.61 L 167.33 346.61 L 167.33 310.75 L 119.52 310.75 M 191.23 298.8 L 191.23 358.56 M 227.09 298.8 L 227.09 358.56 M 298.8 310.75 L 286.85 310.75 L 286.85 298.8 M 298.8 346.61 L 250.99 346.61 L 250.99 298.8 M 310.75 298.8 L 310.75 358.56 M 346.61 298.8 L 346.61 358.56 M 298.8 310.75 L 310.75 310.75 M 298.8 346.61 L 310.75 346.61 M 358.56 310.75 L 346.61 310.75 M 358.56 346.61 L 346.61 346.61 M 358.56 346.61 L 370.51 346.61 L 370.51 358.56 M 358.56 310.75 L 406.37 310.75 L 406.37 358.56 M 478.08 346.61 L 430.27 346.61 L 430.27 310.75 L 478.08 310.75 M 490.03 298.8 L 490.03 310.75 L 478.08 310.75 M 478.08 346.61 L 490.03 346.61 L 490.03 358.56 M 537.84 310.75 L 525.89 310.75 L 525.89 298.8 M 537.84 346.61 L 525.89 346.61 L 525.89 358.56 M 537.84 346.61 L 585.65 346.61 L 585.65 310.75 L 537.84 310.75 M 47.81 418.32 L 47.81 370.51 L 11.95 370.51 L 11.95 418.32 M 119.52 370.51 L 107.57 370.51 L 107.57 358.56 M 119.52 406.37 L 71.71 406.37 L 71.71 358.56 M 119.52 370.51 L 179.28 370.51 M 119.52 406.37 L 131.47 406.37 L 131.47 418.32 M 179.28 406.37 L 167.33 406.37 L 167.33 418.32 M 191.23 358.56 L 191.23 418.32 M 227.09 358.56 L 227.09 418.32 M 179.28 370.51 L 191.23 370.51 M 179.28 406.37 L 191.23 406.37 M 239.04 370.51 L 227.09 370.51 M 239.04 406.37 L 227.09 406.37 M 239.04 406.37 L 250.99 406.37 L 250.99 418.32 M 239.04 370.51 L 286.85 370.51 L 286.85 418.32 M 358.56 370.51 L 346.61 370.51 L 346.61 358.56 M 358.56 406.37 L 310.75 406.37 L 310.75 358.56 M 358.56 370.51 L 418.32 370.51 M 358.56 406.37 L 418.32 406.37 M 370.51 358.56 L 370.51 370.51 M 406.37 358.56 L 406.37 370.51 M 370.51 406.37 L 370.51 418.32 M 406.37 406.37 L 406.37 418.32 M 418.32 406.37 L 430.27 406.37 L 430.27 418.32 M 418.32 370.51 L 466.13 370.51 L 466.13 418.32 M 490.03 358.56 L 490.03 418.32 M 525.89 358.56 L 525.89 418.32 M 585.65 418.32 L 585.65 370.51 L 549.79 370.51 L 549.79 418.32 M 11.95 418.32 L 11.95 478.08 M 59.76 430.27 L 47.81 430.27 L 47.81 418.32 M 59.76 466.13 L 47.81 466.13 L 47.81 478.08 M 59.76 430.27 L 119.52 430.27 M 59.76 466.13 L 71.71 466.13 L 71.71 478.08 M 119.52 466.13 L 107.57 466.13 L 107.57 478.08 M 119.52 430.27 L 179.28 430.27 M 119.52 466.13 L 179.28 466.13 M 131.47 418.32 L 131.47 430.27 M 167.33 418.32 L 167.33 430.27 M 131.47 466.13 L 131.47 478.08 M 167.33 466.13 L 167.33 478.08 M 191.23 418.32 L 191.23 430.27 L 179.28 430.27 M 179.28 466.13 L 191.23 466.13 L 191.23 478.08 M 239.04 430.27 L 227.09 430.27 L 227.09 418.32 M 239.04 466.13 L 227.09 466.13 L 227.09 478.08 M 239.04 430.27 L 298.8 430.27 M 239.04 466.13 L 298.8 466.13 M 250.99 418.32 L 250.99 430.27 M 286.85 418.32 L 286.85 430.27 M 250.99 466.13 L 250.99 478.08 M 286.85 466.13 L 286.85 478.08 M 298.8 466.13 L 310.75 466.13 L 310.75 478.08 M 298.8 430.27 L 346.61 430.27 L 346.61 478.08 M 418.32 430.27 L 406.37 430.27 L 406.37 418.32 M 418.32 466.13 L 370.51 466.13 L 370.51 418.32 M 430.27 418.32 L 430.27 478.08 M 466.13 418.32 L 466.13 478.08 M 418.32 430.27 L 430.27 430.27 M 418.32 466.13 L 430.27 466.13 M 478.08 430.27 L 466.13 430.27 M 478.08 466.13 L 466.13 466.13 M 525.89 418.32 L 525.89 478.08 M 490.03 418.32 L 490.03 430.27 L 478.08 430.27 M 478.08 466.13 L 490.03 466.13 L 490.03 478.08 M 549.79 418.32 L 549.79 478.08 M 585.65 418.32 L 585.65 478.08 M 11.95 478.08 L 11.95 537.84 M 59.76 490.03 L 47.81 490.03 L 47.81 478.08 M 59.76 525.89 L 47.81 525.89 L 47.81 537.84 M 71.71 478.08 L 71.71 537.84 M 107.57 478.08 L 107.57 537.84 M 59.76 490.03 L 71.71 490.03 M 59.76 525.89 L 71.71 525.89 M 119.52 490.03 L 107.57 490.03 M 119.52 525.89 L 107.57 525.89 M 167.33 478.08 L 167.33 537.84 M 131.47 478.08 L 131.47 490.03 L 119.52 490.03 M 119.52 525.89 L 131.47 525.89 L 131.47 537.84 M 191.23 478.08 L 191.23 537.84 M 227.09 478.08 L 227.09 537.84 M 250.99 478.08 L 250.99 537.84 M 286.85 478.08 L 286.85 537.84 M 346.61 478.08 L 346.61 484.82 L 346.61 525.89 L 310.75 525.89 L 310.75 478.08 M 406.37 537.84 L 406.37 490.03 L 370.51 490.03 L 370.51 537.84 M 430.27 478.08 L 430.27 537.84 M 478.08 490.03 L 466.13 490.03 L 466.13 478.08 M 478.08 525.89 L 466.13 525.89 L 466.13 537.84 M 490.03 478.08 L 490.03 537.84 M 525.89 478.08 L 525.89 537.84 M 478.08 490.03 L 490.03 490.03 M 478.08 525.89 L 490.03 525.89 M 537.84 490.03 L 525.89 490.03 M 537.84 525.89 L 525.89 525.89 M 549.79 478.08 L 549.79 490.03 L 537.84 490.03 M 585.65 478.08 L 585.65 525.89 L 537.84 525.89 M 47.81 537.84 L 47.81 544.58 L 47.81 585.65 L 11.95 585.65 L 11.95 537.84 M 107.57 537.84 L 107.57 544.58 L 107.57 585.65 L 71.71 585.65 L 71.71 537.84 M 167.33 537.84 L 167.33 544.58 L 167.33 585.65 L 131.47 585.65 L 131.47 537.84 M 227.09 537.84 L 227.09 544.58 L 227.09 585.65 L 191.23 585.65 L 191.23 537.84 M 286.85 537.84 L 286.85 544.58 L 286.85 585.65 L 250.99 585.65 L 250.99 537.84 M 358.56 585.65 L 310.75 585.65 L 310.75 549.79 L 358.56 549.79 M 358.56 585.65 L 418.32 585.65 M 370.51 537.84 L 370.51 549.79 L 358.56 549.79 M 418.32 549.79 L 406.37 549.79 L 406.37 537.84 M 430.27 537.84 L 430.27 549.79 L 418.32 549.79 M 466.13 537.84 L 466.13 585.65 L 418.32 585.65 M 537.84 549.79 L 525.89 549.79 L 525.89 537.84 M 537.84 585.65 L 490.03 585.65 L 490.03 537.84 " /> <circle cx="29.88" cy="29.88" r="19.92" fill-opacity="1.0" stroke-opacity="0" fill="#E51919" /><circle cx="567.72" cy="567.72" r="19.92" fill-opacity="1.0" stroke-opacity="0" fill="#E51919" /> <path stroke-opacity="1.0" stroke-width="5" stroke="#E51919" d="M 29.88 29.88 L 59.76 29.88 M 59.76 29.88 L 119.52 29.88 M 119.52 29.88 L 179.28 29.88 M 179.28 29.88 L 209.16 29.88 L 209.16 59.76 M 209.16 119.52 L 209.16 179.28 M 209.16 59.76 L 209.16 119.52 M 239.04 209.16 L 209.16 209.16 L 209.16 179.28 M 298.8 209.16 L 328.68 209.16 L 328.68 239.04 M 239.04 209.16 L 298.8 209.16 M 358.56 268.92 L 328.68 268.92 L 328.68 239.04 M 388.44 239.04 L 388.44 268.92 L 358.56 268.92 M 418.32 149.4 L 388.44 149.4 L 388.44 179.28 M 388.44 179.28 L 388.44 191.23 M 388.44 239.04 L 388.44 227.09 M 478.08 149.4 L 507.96 149.4 L 507.96 179.28 M 418.32 149.4 L 478.08 149.4 M 507.96 239.04 L 507.96 298.8 M 507.96 179.28 L 507.96 239.04 M 507.96 298.8 L 507.96 358.56 M 507.96 358.56 L 507.96 418.32 M 507.96 418.32 L 507.96 478.08 M 567.72 567.72 L 537.84 567.72 M 537.84 567.72 L 507.96 567.72 L 507.96 537.84 M 507.96 478.08 L 507.96 537.84 " />  <path stroke-opacity="0.2" stroke-width="5" stroke="#E51919" d="M 29.88 29.88 L 59.76 29.88 M 388.44 191.23 L 388.44 209.16 M 388.44 227.09 L 388.44 209.16 M 567.72 567.72 L 537.84 567.72 " />   </svg>