<svg id="maze" xmlns="http://www.w3.org/2000/svg" viewBox="0 0 597.6 597.6"  width="597.6px" height="597.6px" stroke-width="2" fill-opacity="0.0" stroke="black"> <path stroke-opacity="1.0" stroke-width="2" stroke="#000000" d="M 59.76 47.81 L 107.57 47.81 L 107.57 11.95 L 59.76 11.95 M 179.28 47.81 L 167.33 47.81 L 167.33 59.76 M 179.28 11.95 L 131.47 11.95 L 131.47 59.76 M 179.28 47.81 L 227.09 47.81 L 227.09 11.95 L 179.28 11.95 M 286.85 59.76 L 286.85 11.95 L 250.99 11.95 L 250.99 59.76 M 346.61 59.76 L 346.61 11.95 L 310.75 11.95 L 310.75 59.76 M 406.37 59.76 L 406.37 11.95 L 370.51 11.95 L 370.51 59.76 M 478.08 47.81 L 466.13 47.81 L 466.13 59.76 M 478.08 11.95 L 430.27 11.95 L 430.27 59.76 M 478.08 11.95 L 537.84 11.95 M 478.08 47.81 L 490.03 47.81 L 490.03 59.76 M 537.84 47.81 L 525.89 47.81 L 525.89 59.76 M 537.84 47.81 L 585.65 47.81 L 585.65 11.95 L 537.84 11.95 M 11.95 59.76 L 11.95 119.52 M 47.81 59.76 L 47.81 119.52 M 119.52 107.57 L 71.71 107.57 L 71.71 71.71 L 119.52 71.71 M 119.52 71.71 L 179.28 71.71 M 119.52 107.57 L 179.28 107.57 M 131.47 59.76 L 131.47 71.71 M 167.33 59.76 L 167.33 71.71 M 131.47 107.57 L 131.47 119.52 M 167.33 107.57 L 167.33 119.52 M 179.28 71.71 L 239.04 71.71 M 179.28 107.57 L 239.04 107.57 M 239.04 71.71 L 298.8 71.71 M 239.04 107.57 L 298.8 107.57 M 250.99 59.76 L 250.99 71.71 M 286.85 59.76 L 286.85 71.71 M 250.99 107.57 L 250.99 119.52 M 286.85 107.57 L 286.85 119.52 M 298.8 107.57 L 358.56 107.57 M 310.75 59.76 L 310.75 71.71 L 298.8 71.71 M 358.56 71.71 L 346.61 71.71 L 346.61 59.76 M 358.56 71.71 L 418.32 71.71 M 358.56 107.57 L 418.32 107.57 M 370.51 59.76 L 370.51 71.71 M 406.37 59.76 L 406.37 71.71 M 370.51 107.57 L 370.51 119.52 M 406.37 107.57 L 406.37 119.52 M 466.13 59.76 L 466.13 119.52 M 430.27 59.76 L 430.27 71.71 L 418.32 71.71 M 418.32 107.57 L 430.27 107.57 L 430.27 119.52 M 525.89 59.76 L 525.89 66.5 L 525.89 107.57 L 490.03 107.57 L 490.03 59.76 M 585.65 119.52 L 585.65 71.71 L 549.79 71.71 L 549.79 119.52 M 11.95 119.52 L 11.95 179.28 M 47.81 119.52 L 47.81 179.28 M 107.57 179.28 L 107.57 131.47 L 71.71 131.47 L 71.71 179.28 M 131.47 119.52 L 131.47 179.28 M 167.33 119.52 L 167.33 179.28 M 227.09 179.28 L 227.09 131.47 L 191.23 131.47 L 191.23 179.28 M 250.99 119.52 L 250.99 179.28 M 286.85 119.52 L 286.85 179.28 M 346.61 179.28 L 346.61 131.47 L 310.75 131.47 L 310.75 179.28 M 370.51 119.52 L 370.51 179.28 M 418.32 131.47 L 406.37 131.47 L 406.37 119.52 M 418.32 167.33 L 406.37 167.33 L 406.37 179.28 M 430.27 119.52 L 430.27 179.28 M 466.13 119.52 L 466.13 179.28 M 418.32 131.47 L 430.27 131.47 M 418.32 167.33 L 430.27 167.33 M 478.08 131.47 L 466.13 131.47 M 478.08 167.33 L 466.13 167.33 M 478.08 131.47 L 537.84 131.47 M 478.08 167.33 L 490.03 167.33 L 490.03 179.28 M 537.84 167.33 L 525.89 167.33 L 525.89 179.28 M 549.79 119.52 L 549.79 131.47 L 537.84 131.47 M 585.65 119.52 L 585.65 167.33 L 537.84 167.33 M 59.76 191.23 L 47.81 191.23 L 47.81 179.28 M 59.76 227.09 L 11.95 227.09 L 11.95 179.28 M 59.76 191.23 L 119.52 191.23 M 59.76 227.09 L 119.52 227.09 M 71.71 179.28 L 71.71 191.23 M 107.57 179.28 L 107.57 191.23 M 71.71 227.09 L 71.71 239.04 M 107.57 227.09 L 107.57 239.04 M 131.47 179.28 L 131.47 191.23 L 119.52 191.23 M 119.52 227.09 L 131.47 227.09 L 131.47 239.04 M 179.28 191.23 L 167.33 191.23 L 167.33 179.28 M 179.28 227.09 L 167.33 227.09 L 167.33 239.04 M 191.23 179.28 L 191.23 239.04 M 227.09 179.28 L 227.09 239.04 M 179.28 191.23 L 191.23 191.23 M 179.28 227.09 L 191.23 227.09 M 239.04 191.23 L 227.09 191.23 M 239.04 227.09 L 227.09 227.09 M 250.99 179.28 L 250.99 191.23 L 239.04 191.23 M 239.04 227.09 L 250.99 227.09 L 250.99 239.04 M 298.8 191.23 L 286.85 191.23 L 286.85 179.28 M 298.8 227.09 L 286.85 227.09 L 286.85 239.04 M 310.75 179.28 L 310.75 239.04 M 346.61 179.28 L 346.61 239.04 M 298.8 191.23 L 310.75 191.23 M 298.8 227.09 L 310.75 227.09 M 358.56 191.23 L 346.61 191.23 M 358.56 227.09 L 346.61 227.09 M 370.51 179.28 L 370.51 191.23 L 358.56 191.23 M 358.56 227.09 L 370.51 227.09 L 370.51 239.04 M 418.32 191.23 L 406.37 191.23 L 406.37 179.28 M 418.32 227.09 L 406.37 227.09 L 406.37 239.04 M 430.27 179.28 L 430.27 191.23 L 418.32 191.23 M 466.13 179.28 L 466.13 227.09 L 418.32 227.09 M 537.84 191.23 L 525.89 191.23 L 525.89 179.28 M 537.84 227.09 L 490.03 227.09 L 490.03 179.28 M 537.84 227.09 L 585.65 227.09 L 585.65 191.23 L 537.84 191.23 M 59.76 286.85 L 11.95 286.85 L 11.95 250.99 L 59.76 250.99 M 59.76 286.85 L 119.52 286.85 M 71.71 239.04 L 71.71 250.99 L 59.76 250.99 M 119.52 250.99 L 107.57 250.99 L 107.57 239.04 M 119.52 250.99 L 179.28 250.99 M 119.52 286.85 L 179.28 286.85 M 131.47 239.04 L 131.47 250.99 M 167.33 239.04 L 167.33 250.99 M 131.47 286.85 L 131.47 298.8 M 167.33 286.85 L 167.33 298.8 M 191.23 239.04 L 191.23 250.99 L 179.28 250.99 M 179.28 286.85 L 191.23 286.85 L 191.23 298.8 M 239.04 250.99 L 227.09 250.99 L 227.09 239.04 M 239.04 286.85 L 227.09 286.85 L 227.09 298.8 M 250.99 239.04 L 250.99 298.8 M 286.85 239.04 L 286.85 298.8 M 239.04 250.99 L 250.99 250.99 M 239.04 286.85 L 250.99 286.85 M 298.8 250.99 L 286.85 250.99 M 298.8 286.85 L 286.85 286.85 M 310.75 239.04 L 310.75 250.99 L 298.8 250.99 M 298.8 286.85 L 310.75 286.85 L 310.75 298.8 M 358.56 250.99 L 346.61 250.99 L 346.61 239.04 M 358.56 286.85 L 346.61 286.85 L 346.61 298.8 M 358.56 250.99 L 418.32 250.99 M 358.56 286.85 L 418.32 286.85 M 370.51 239.04 L 370.51 250.99 M 406.37 239.04 L 406.37 250.99 M 370.51 286.85 L 370.51 298.8 M 406.37 286.85 L 406.37 298.8 M 418.32 286.85 L 430.27 286.85 L 430.27 298.8 M 418.32 250.99 L 466.13 250.99 L 466.13 298.8 M 525.89 298.8 L 525.89 250.99 L 490.03 250.99 L 490.03 298.8 M 585.65 298.8 L 585.65 250.99 L 549.79 250.99 L 549.79 298.8 M 59.76 346.61 L 11.95 346.61 L 11.95 310.75 L 59.76 310.75 M 59.76 310.75 L 119.52 310.75 M 59.76 346.61 L 71.71 346.61 L 71.71 358.56 M 119.52 346.61 L 107.57 346.61 L 107.57 358.56 M 131.47 298.8 L 131.47 310.75 L 119.52 310.75 M 167.33 298.8 L 167.33 346.61 L 119.52 346.61 M 227.09 298.8 L 227.09 305.54 L 227.09 346.61 L 191.23 346.61 L 191.23 298.8 M 250.99 298.8 L 250.99 358.56 M 286.85 298.8 L 286.85 358.56 M 310.75 298.8 L 310.75 358.56 M 346.61 298.8 L 346.61 358.56 M 418.32 310.75 L 406.37 310.75 L 406.37 298.8 M 418.32 346.61 L 370.51 346.61 L 370.51 298.8 M 418.32 310.75 L 478.08 310.75 M 418.32 346.61 L 478.08 346.61 M 430.27 298.8 L 430.27 310.75 M 466.13 298.8 L 466.13 310.75 M 430.27 346.61 L 430.27 358.56 M 466.13 346.61 L 466.13 358.56 M 478.08 346.61 L 537.84 346.61 M 490.03 298.8 L 490.03 310.75 L 478.08 310.75 M 537.84 310.75 L 525.89 310.75 L 525.89 298.8 M 549.79 298.8 L 549.79 310.75 L 537.84 310.75 M 585.65 298.8 L 585.65 346.61 L 537.84 346.61 M 59.76 406.37 L 11.95 406.37 L 11.95 370.51 L 59.76 370.51 M 59.76 370.51 L 119.52 370.51 M 59.76 406.37 L 119.52 406.37 M 71.71 358.56 L 71.71 370.51 M 107.57 358.56 L 107.57 370.51 M 71.71 406.37 L 71.71 418.32 M 107.57 406.37 L 107.57 418.32 M 119.52 370.51 L 179.28 370.51 M 119.52 406.37 L 179.28 406.37 M 179.28 406.37 L 191.23 406.37 L 191.23 418.32 M 179.28 370.51 L 227.09 370.51 L 227.09 418.32 M 298.8 370.51 L 286.85 370.51 L 286.85 358.56 M 298.8 406.37 L 250.99 406.37 L 250.99 358.56 M 298.8 370.51 L 358.56 370.51 M 298.8 406.37 L 358.56 406.37 M 310.75 358.56 L 310.75 370.51 M 346.61 358.56 L 346.61 370.51 M 310.75 406.37 L 310.75 418.32 M 346.61 406.37 L 346.61 418.32 M 358.56 370.51 L 418.32 370.51 M 358.56 406.37 L 370.51 406.37 L 370.51 418.32 M 418.32 406.37 L 406.37 406.37 L 406.37 418.32 M 430.27 358.56 L 430.27 370.51 L 418.32 370.51 M 466.13 358.56 L 466.13 406.37 L 418.32 406.37 M 537.84 406.37 L 525.89 406.37 L 525.89 418.32 M 537.84 370.51 L 490.03 370.51 L 490.03 418.32 M 537.84 406.37 L 585.65 406.37 L 585.65 370.51 L 537.84 370.51 M 47.81 478.08 L 47.81 430.27 L 11.95 430.27 L 11.95 478.08 M 71.71 418.32 L 71.71 478.08 M 119.52 430.27 L 107.57 430.27 L 107.57 418.32 M 119.52 466.13 L 107.57 466.13 L 107.57 478.08 M 119.52 430.27 L 179.28 430.27 M 119.52 466.13 L 179.28 466.13 M 179.28 430.27 L 239.04 430.27 M 179.28 466.13 L 239.04 466.13 M 191.23 418.32 L 191.23 430.27 M 227.09 418.32 L 227.09 430.27 M 191.23 466.13 L 191.23 478.08 M 227.09 466.13 L 227.09 478.08 M 239.04 466.13 L 250.99 466.13 L 250.99 478.08 M 239.04 430.27 L 286.85 430.27 L 286.85 478.08 M 358.56 430.27 L 346.61 430.27 L 346.61 418.32 M 358.56 466.13 L 310.75 466.13 L 310.75 418.32 M 358.56 430.27 L 418.32 430.27 M 358.56 466.13 L 418.32 466.13 M 370.51 418.32 L 370.51 430.27 M 406.37 418.32 L 406.37 430.27 M 370.51 466.13 L 370.51 478.08 M 406.37 466.13 L 406.37 478.08 M 418.32 430.27 L 478.08 430.27 M 418.32 466.13 L 430.27 466.13 L 430.27 478.08 M 478.08 466.13 L 466.13 466.13 L 466.13 478.08 M 490.03 418.32 L 490.03 478.08 M 525.89 418.32 L 525.89 478.08 M 478.08 430.27 L 490.03 430.27 M 478.08 466.13 L 490.03 466.13 M 537.84 430.27 L 525.89 430.27 M 537.84 466.13 L 525.89 466.13 M 537.84 466.13 L 549.79 466.13 L 549.79 478.08 M 537.84 430.27 L 585.65 430.27 L 585.65 478.08 M 59.76 490.03 L 47.81 490.03 L 47.81 478.08 M 59.76 525.89 L 11.95 525.89 L 11.95 478.08 M 71.71 478.08 L 71.71 537.84 M 107.57 478.08 L 107.57 537.84 M 59.76 490.03 L 71.71 490.03 M 59.76 525.89 L 71.71 525.89 M 119.52 490.03 L 107.57 490.03 M 119.52 525.89 L 107.57 525.89 M 119.52 525.89 L 131.47 525.89 L 131.47 537.84 M 119.52 490.03 L 167.33 490.03 L 167.33 537.84 M 191.23 478.08 L 191.23 537.84 M 239.04 490.03 L 227.09 490.03 L 227.09 478.08 M 239.04 525.89 L 227.09 525.89 L 227.09 537.84 M 250.99 478.08 L 250.99 537.84 M 286.85 478.08 L 286.85 537.84 M 239.04 490.03 L 250.99 490.03 M 239.04 525.89 L 250.99 525.89 M 298.8 490.03 L 286.85 490.03 M 298.8 525.89 L 286.85 525.89 M 298.8 525.89 L 310.75 525.89 L 310.75 537.84 M 298.8 490.03 L 346.61 490.03 L 346.61 537.84 M 418.32 490.03 L 406.37 490.03 L 406.37 478.08 M 418.32 525.89 L 370.51 525.89 L 370.51 478.08 M 430.27 478.08 L 430.27 537.84 M 466.13 478.08 L 466.13 537.84 M 418.32 490.03 L 430.27 490.03 M 418.32 525.89 L 430.27 525.89 M 478.08 490.03 L 466.13 490.03 M 478.08 525.89 L 466.13 525.89 M 525.89 478.08 L 525.89 537.84 M 490.03 478.08 L 490.03 490.03 L 478.08 490.03 M 478.08 525.89 L 490.03 525.89 L 490.03 537.84 M 585.65 478.08 L 585.65 484.82 L 585.65 525.89 L 549.79 525.89 L 549.79 478.08 M 59.76 585.65 L 11.95 585.65 L 11.95 549.79 L 59.76 549.79 M 59.76 585.65 L 119.52 585.65 M 71.71 537.84 L 71.71 549.79 L 59.76 549.79 M 119.52 549.79 L 107.57 549.79 L 107.57 537.84 M 131.47 537.84 L 131.47 549.79 L 119.52 549.79 M 167.33 537.84 L 167.33 585.65 L 119.52 585.65 M 239.04 549.79 L 227.09 549.79 L 227.09 537.84 M 239.04 585.65 L 191.23 585.65 L 191.23 537.84 M 250.99 537.84 L 250.99 549.79 L 239.04 549.79 M 286.85 537.84 L 286.85 585.65 L 239.04 585.65 M 346.61 537.84 L 346.61 544.58 L 346.61 585.65 L 310.75 585.65 L 310.75 537.84 M 418.32 585.65 L 370.51 585.65 L 370.51 549.79 L 418.32 549.79 M 430.27 537.84 L 430.27 549.79 L 418.32 549.79 M 466.13 537.84 L 466.13 585.65 L 418.32 585.65 M 537.84 549.79 L 525.89 549.79 L 525.89 537.84 M 537.84 585.65 L 490.03 585.65 L 490.03 537.84 " /> <circle cx="29.88" cy="29.88" r="19.92" fill-opacity="1.0" stroke-opacity="0" fill="#E51919" /><circle cx="567.72" cy="567.72" r="19.92" fill-opacity="1.0" stroke-opacity="0" fill="#E51919" />  </svg>