<svg id="maze" xmlns="http://www.w3.org/2000/svg" viewBox="0 0 597.6 597.6"  width="597.6px" height="597.6px" stroke-width="2" fill-opacity="0.0" stroke="black"> <path stroke-opacity="1.0" stroke-width="2" stroke="#000000" d="M 59.76 11.95 L 119.52 11.95 M 59.76 47.81 L 71.71 47.81 L 71.71 59.76 M 119.52 47.81 L 107.57 47.81 L 107.57 59.76 M 119.52 11.95 L 179.28 11.95 M 119.52 47.81 L 179.28 47.81 M 179.28 47.81 L 227.09 47.81 L 227.09 11.95 L 179.28 11.95 M 298.8 47.81 L 286.85 47.81 L 286.85 59.76 M 298.8 11.95 L 250.99 11.95 L 250.99 59.76 M 298.8 47.81 L 346.61 47.81 L 346.61 11.95 L 298.8 11.95 M 418.32 47.81 L 406.37 47.81 L 406.37 59.76 M 418.32 11.95 L 370.51 11.95 L 370.51 59.76 M 418.32 11.95 L 478.08 11.95 M 418.32 47.81 L 430.27 47.81 L 430.27 59.76 M 478.08 47.81 L 466.13 47.81 L 466.13 59.76 M 478.08 47.81 L 525.89 47.81 L 525.89 11.95 L 478.08 11.95 M 585.65 59.76 L 585.65 11.95 L 549.79 11.95 L 549.79 59.76 M 59.76 107.57 L 47.81 107.57 L 47.81 119.52 M 59.76 71.71 L 11.95 71.71 L 11.95 119.52 M 59.76 71.71 L 119.52 71.71 M 59.76 107.57 L 119.52 107.57 M 71.71 59.76 L 71.71 71.71 M 107.57 59.76 L 107.57 71.71 M 71.71 107.57 L 71.71 119.52 M 107.57 107.57 L 107.57 119.52 M 119.52 107.57 L 167.33 107.57 L 167.33 71.71 L 119.52 71.71 M 239.04 107.57 L 227.09 107.57 L 227.09 119.52 M 239.04 71.71 L 191.23 71.71 L 191.23 119.52 M 239.04 71.71 L 298.8 71.71 M 239.04 107.57 L 298.8 107.57 M 250.99 59.76 L 250.99 71.71 M 286.85 59.76 L 286.85 71.71 M 250.99 107.57 L 250.99 119.52 M 286.85 107.57 L 286.85 119.52 M 298.8 107.57 L 346.61 107.57 L 346.61 71.71 L 298.8 71.71 M 370.51 59.76 L 370.51 119.52 M 406.37 59.76 L 406.37 119.52 M 466.13 59.76 L 466.13 66.5 L 466.13 107.57 L 430.27 107.57 L 430.27 59.76 M 537.84 107.57 L 525.89 107.57 L 525.89 119.52 M 537.84 71.71 L 490.03 71.71 L 490.03 119.52 M 549.79 59.76 L 549.79 71.71 L 537.84 71.71 M 585.65 59.76 L 585.65 107.57 L 537.84 107.57 M 59.76 131.47 L 47.81 131.47 L 47.81 119.52 M 59.76 167.33 L 11.95 167.33 L 11.95 119.52 M 107.57 119.52 L 107.57 179.28 M 71.71 119.52 L 71.71 131.47 L 59.76 131.47 M 59.76 167.33 L 71.71 167.33 L 71.71 179.28 M 179.28 167.33 L 131.47 167.33 L 131.47 131.47 L 179.28 131.47 M 179.28 131.47 L 239.04 131.47 M 179.28 167.33 L 239.04 167.33 M 191.23 119.52 L 191.23 131.47 M 227.09 119.52 L 227.09 131.47 M 191.23 167.33 L 191.23 179.28 M 227.09 167.33 L 227.09 179.28 M 239.04 167.33 L 298.8 167.33 M 250.99 119.52 L 250.99 131.47 L 239.04 131.47 M 298.8 131.47 L 286.85 131.47 L 286.85 119.52 M 298.8 131.47 L 358.56 131.47 M 298.8 167.33 L 310.75 167.33 L 310.75 179.28 M 358.56 167.33 L 346.61 167.33 L 346.61 179.28 M 370.51 119.52 L 370.51 179.28 M 406.37 119.52 L 406.37 179.28 M 358.56 131.47 L 370.51 131.47 M 358.56 167.33 L 370.51 167.33 M 418.32 131.47 L 406.37 131.47 M 418.32 167.33 L 406.37 167.33 M 418.32 131.47 L 478.08 131.47 M 418.32 167.33 L 430.27 167.33 L 430.27 179.28 M 478.08 167.33 L 466.13 167.33 L 466.13 179.28 M 490.03 119.52 L 490.03 179.28 M 525.89 119.52 L 525.89 179.28 M 478.08 131.47 L 490.03 131.47 M 478.08 167.33 L 490.03 167.33 M 537.84 131.47 L 525.89 131.47 M 537.84 167.33 L 525.89 167.33 M 537.84 167.33 L 549.79 167.33 L 549.79 179.28 M 537.84 131.47 L 585.65 131.47 L 585.65 179.28 M 47.81 239.04 L 47.81 191.23 L 11.95 191.23 L 11.95 239.04 M 71.71 179.28 L 71.71 239.04 M 119.52 191.23 L 107.57 191.23 L 107.57 179.28 M 119.52 227.09 L 107.57 227.09 L 107.57 239.04 M 119.52 227.09 L 167.33 227.09 L 167.33 191.23 L 119.52 191.23 M 191.23 179.28 L 191.23 239.04 M 227.09 179.28 L 227.09 239.04 M 298.8 227.09 L 250.99 227.09 L 250.99 191.23 L 298.8 191.23 M 310.75 179.28 L 310.75 239.04 M 346.61 179.28 L 346.61 239.04 M 298.8 191.23 L 310.75 191.23 M 298.8 227.09 L 310.75 227.09 M 358.56 191.23 L 346.61 191.23 M 358.56 227.09 L 346.61 227.09 M 358.56 227.09 L 418.32 227.09 M 370.51 179.28 L 370.51 191.23 L 358.56 191.23 M 418.32 191.23 L 406.37 191.23 L 406.37 179.28 M 418.32 191.23 L 478.08 191.23 M 418.32 227.09 L 478.08 227.09 M 430.27 179.28 L 430.27 191.23 M 466.13 179.28 L 466.13 191.23 M 430.27 227.09 L 430.27 239.04 M 466.13 227.09 L 466.13 239.04 M 478.08 227.09 L 537.84 227.09 M 490.03 179.28 L 490.03 191.23 L 478.08 191.23 M 537.84 191.23 L 525.89 191.23 L 525.89 179.28 M 549.79 179.28 L 549.79 191.23 L 537.84 191.23 M 585.65 179.28 L 585.65 227.09 L 537.84 227.09 M 59.76 250.99 L 47.81 250.99 L 47.81 239.04 M 59.76 286.85 L 11.95 286.85 L 11.95 239.04 M 71.71 239.04 L 71.71 298.8 M 107.57 239.04 L 107.57 298.8 M 59.76 250.99 L 71.71 250.99 M 59.76 286.85 L 71.71 286.85 M 119.52 250.99 L 107.57 250.99 M 119.52 286.85 L 107.57 286.85 M 119.52 250.99 L 179.28 250.99 M 119.52 286.85 L 131.47 286.85 L 131.47 298.8 M 179.28 286.85 L 167.33 286.85 L 167.33 298.8 M 191.23 239.04 L 191.23 298.8 M 227.09 239.04 L 227.09 298.8 M 179.28 250.99 L 191.23 250.99 M 179.28 286.85 L 191.23 286.85 M 239.04 250.99 L 227.09 250.99 M 239.04 286.85 L 227.09 286.85 M 239.04 286.85 L 250.99 286.85 L 250.99 298.8 M 239.04 250.99 L 286.85 250.99 L 286.85 298.8 M 346.61 239.04 L 346.61 245.78 L 346.61 286.85 L 310.75 286.85 L 310.75 239.04 M 418.32 286.85 L 370.51 286.85 L 370.51 250.99 L 418.32 250.99 M 418.32 286.85 L 478.08 286.85 M 430.27 239.04 L 430.27 250.99 L 418.32 250.99 M 478.08 250.99 L 466.13 250.99 L 466.13 239.04 M 478.08 250.99 L 537.84 250.99 M 478.08 286.85 L 490.03 286.85 L 490.03 298.8 M 537.84 286.85 L 525.89 286.85 L 525.89 298.8 M 537.84 286.85 L 585.65 286.85 L 585.65 250.99 L 537.84 250.99 M 59.76 346.61 L 47.81 346.61 L 47.81 358.56 M 59.76 310.75 L 11.95 310.75 L 11.95 358.56 M 59.76 346.61 L 119.52 346.61 M 71.71 298.8 L 71.71 310.75 L 59.76 310.75 M 119.52 310.75 L 107.57 310.75 L 107.57 298.8 M 119.52 310.75 L 179.28 310.75 M 119.52 346.61 L 179.28 346.61 M 131.47 298.8 L 131.47 310.75 M 167.33 298.8 L 167.33 310.75 M 131.47 346.61 L 131.47 358.56 M 167.33 346.61 L 167.33 358.56 M 179.28 346.61 L 239.04 346.61 M 191.23 298.8 L 191.23 310.75 L 179.28 310.75 M 239.04 310.75 L 227.09 310.75 L 227.09 298.8 M 239.04 310.75 L 298.8 310.75 M 239.04 346.61 L 298.8 346.61 M 250.99 298.8 L 250.99 310.75 M 286.85 298.8 L 286.85 310.75 M 250.99 346.61 L 250.99 358.56 M 286.85 346.61 L 286.85 358.56 M 298.8 346.61 L 310.75 346.61 L 310.75 358.56 M 298.8 310.75 L 346.61 310.75 L 346.61 358.56 M 418.32 346.61 L 406.37 346.61 L 406.37 358.56 M 418.32 310.75 L 370.51 310.75 L 370.51 358.56 M 418.32 310.75 L 478.08 310.75 M 418.32 346.61 L 478.08 346.61 M 478.08 310.75 L 537.84 310.75 M 478.08 346.61 L 537.84 346.61 M 490.03 298.8 L 490.03 310.75 M 525.89 298.8 L 525.89 310.75 M 490.03 346.61 L 490.03 358.56 M 525.89 346.61 L 525.89 358.56 M 537.84 346.61 L 585.65 346.61 L 585.65 310.75 L 537.84 310.75 M 11.95 358.56 L 11.95 418.32 M 47.81 358.56 L 47.81 418.32 M 107.57 418.32 L 107.57 370.51 L 71.71 370.51 L 71.71 418.32 M 179.28 370.51 L 167.33 370.51 L 167.33 358.56 M 179.28 406.37 L 131.47 406.37 L 131.47 358.56 M 179.28 406.37 L 191.23 406.37 L 191.23 418.32 M 179.28 370.51 L 227.09 370.51 L 227.09 418.32 M 298.8 370.51 L 286.85 370.51 L 286.85 358.56 M 298.8 406.37 L 250.99 406.37 L 250.99 358.56 M 298.8 370.51 L 358.56 370.51 M 298.8 406.37 L 358.56 406.37 M 310.75 358.56 L 310.75 370.51 M 346.61 358.56 L 346.61 370.51 M 310.75 406.37 L 310.75 418.32 M 346.61 406.37 L 346.61 418.32 M 370.51 358.56 L 370.51 370.51 L 358.56 370.51 M 358.56 406.37 L 370.51 406.37 L 370.51 418.32 M 418.32 370.51 L 406.37 370.51 L 406.37 358.56 M 418.32 406.37 L 406.37 406.37 L 406.37 418.32 M 418.32 406.37 L 466.13 406.37 L 466.13 370.51 L 418.32 370.51 M 490.03 358.56 L 490.03 418.32 M 525.89 358.56 L 525.89 418.32 M 585.65 418.32 L 585.65 370.51 L 549.79 370.51 L 549.79 418.32 M 11.95 418.32 L 11.95 478.08 M 59.76 430.27 L 47.81 430.27 L 47.81 418.32 M 59.76 466.13 L 47.81 466.13 L 47.81 478.08 M 59.76 430.27 L 119.52 430.27 M 59.76 466.13 L 119.52 466.13 M 71.71 418.32 L 71.71 430.27 M 107.57 418.32 L 107.57 430.27 M 71.71 466.13 L 71.71 478.08 M 107.57 466.13 L 107.57 478.08 M 119.52 430.27 L 179.28 430.27 M 119.52 466.13 L 131.47 466.13 L 131.47 478.08 M 179.28 466.13 L 167.33 466.13 L 167.33 478.08 M 191.23 418.32 L 191.23 478.08 M 227.09 418.32 L 227.09 478.08 M 179.28 430.27 L 191.23 430.27 M 179.28 466.13 L 191.23 466.13 M 239.04 430.27 L 227.09 430.27 M 239.04 466.13 L 227.09 466.13 M 239.04 466.13 L 286.85 466.13 L 286.85 430.27 L 239.04 430.27 M 310.75 418.32 L 310.75 478.08 M 358.56 430.27 L 346.61 430.27 L 346.61 418.32 M 358.56 466.13 L 346.61 466.13 L 346.61 478.08 M 358.56 430.27 L 418.32 430.27 M 358.56 466.13 L 418.32 466.13 M 370.51 418.32 L 370.51 430.27 M 406.37 418.32 L 406.37 430.27 M 370.51 466.13 L 370.51 478.08 M 406.37 466.13 L 406.37 478.08 M 418.32 430.27 L 478.08 430.27 M 418.32 466.13 L 430.27 466.13 L 430.27 478.08 M 478.08 466.13 L 466.13 466.13 L 466.13 478.08 M 478.08 430.27 L 537.84 430.27 M 478.08 466.13 L 537.84 466.13 M 490.03 418.32 L 490.03 430.27 M 525.89 418.32 L 525.89 430.27 M 490.03 466.13 L 490.03 478.08 M 525.89 466.13 L 525.89 478.08 M 585.65 418.32 L 585.65 478.08 M 549.79 418.32 L 549.79 430.27 L 537.84 430.27 M 537.84 466.13 L 549.79 466.13 L 549.79 478.08 M 11.95 478.08 L 11.95 537.84 M 47.81 478.08 L 47.81 537.84 M 71.71 478.08 L 71.71 537.84 M 119.52 490.03 L 107.57 490.03 L 107.57 478.08 M 119.52 525.89 L 107.57 525.89 L 107.57 537.84 M 131.47 478.08 L 131.47 537.84 M 167.33 478.08 L 167.33 537.84 M 119.52 490.03 L 131.47 490.03 M 119.52 525.89 L 131.47 525.89 M 179.28 490.03 L 167.33 490.03 M 179.28 525.89 L 167.33 525.89 M 227.09 478.08 L 227.09 537.84 M 191.23 478.08 L 191.23 490.03 L 179.28 490.03 M 179.28 525.89 L 191.23 525.89 L 191.23 537.84 M 298.8 525.89 L 286.85 525.89 L 286.85 537.84 M 298.8 490.03 L 250.99 490.03 L 250.99 537.84 M 298.8 490.03 L 358.56 490.03 M 298.8 525.89 L 358.56 525.89 M 310.75 478.08 L 310.75 490.03 M 346.61 478.08 L 346.61 490.03 M 310.75 525.89 L 310.75 537.84 M 346.61 525.89 L 346.61 537.84 M 358.56 525.89 L 418.32 525.89 M 370.51 478.08 L 370.51 490.03 L 358.56 490.03 M 418.32 490.03 L 406.37 490.03 L 406.37 478.08 M 418.32 490.03 L 478.08 490.03 M 418.32 525.89 L 478.08 525.89 M 430.27 478.08 L 430.27 490.03 M 466.13 478.08 L 466.13 490.03 M 430.27 525.89 L 430.27 537.84 M 466.13 525.89 L 466.13 537.84 M 525.89 478.08 L 525.89 537.84 M 490.03 478.08 L 490.03 490.03 L 478.08 490.03 M 478.08 525.89 L 490.03 525.89 L 490.03 537.84 M 585.65 478.08 L 585.65 484.82 L 585.65 525.89 L 549.79 525.89 L 549.79 478.08 M 47.81 537.84 L 47.81 544.58 L 47.81 585.65 L 11.95 585.65 L 11.95 537.84 M 107.57 537.84 L 107.57 544.58 L 107.57 585.65 L 71.71 585.65 L 71.71 537.84 M 167.33 537.84 L 167.33 544.58 L 167.33 585.65 L 131.47 585.65 L 131.47 537.84 M 227.09 537.84 L 227.09 544.58 L 227.09 585.65 L 191.23 585.65 L 191.23 537.84 M 298.8 549.79 L 286.85 549.79 L 286.85 537.84 M 298.8 585.65 L 250.99 585.65 L 250.99 537.84 M 310.75 537.84 L 310.75 549.79 L 298.8 549.79 M 346.61 537.84 L 346.61 585.65 L 298.8 585.65 M 418.32 585.65 L 370.51 585.65 L 370.51 549.79 L 418.32 549.79 M 430.27 537.84 L 430.27 549.79 L 418.32 549.79 M 466.13 537.84 L 466.13 585.65 L 418.32 585.65 M 537.84 549.79 L 525.89 549.79 L 525.89 537.84 M 537.84 585.65 L 490.03 585.65 L 490.03 537.84 " /> <circle cx="29.88" cy="29.88" r="19.92" fill-opacity="1.0" stroke-opacity="0" fill="#E51919" /><circle cx="567.72" cy="567.72" r="19.92" fill-opacity="1.0" stroke-opacity="0" fill="#E51919" /> <path stroke-opacity="1.0" stroke-width="5" stroke="#E51919" d="M 29.88 29.88 L 59.76 29.88 M 59.76 29.88 L 89.64 29.88 L 89.64 59.76 M 89.64 119.52 L 89.64 179.28 M 89.64 59.76 L 89.64 71.71 M 89.64 119.52 L 89.64 107.57 M 89.64 179.28 L 89.64 239.04 M 119.52 328.68 L 89.64 328.68 L 89.64 298.8 M 89.64 239.04 L 89.64 298.8 M 179.28 328.68 L 239.04 328.68 M 119.52 328.68 L 179.28 328.68 M 298.8 328.68 L 328.68 328.68 L 328.68 358.56 M 239.04 328.68 L 298.8 328.68 M 328.68 418.32 L 328.68 478.08 M 328.68 358.56 L 328.68 370.51 M 328.68 418.32 L 328.68 406.37 M 328.68 537.84 L 328.68 567.72 L 298.8 567.72 M 328.68 478.08 L 328.68 490.03 M 328.68 537.84 L 328.68 525.89 M 298.8 567.72 L 268.92 567.72 L 268.92 537.84 M 298.8 507.96 L 268.92 507.96 L 268.92 537.84 M 358.56 507.96 L 418.32 507.96 M 298.8 507.96 L 358.56 507.96 M 478.08 507.96 L 507.96 507.96 L 507.96 537.84 M 418.32 507.96 L 478.08 507.96 M 567.72 567.72 L 537.84 567.72 M 537.84 567.72 L 507.96 567.72 L 507.96 537.84 " />  <path stroke-opacity="0.2" stroke-width="5" stroke="#E51919" d="M 29.88 29.88 L 59.76 29.88 M 89.64 71.71 L 89.64 89.64 M 89.64 107.57 L 89.64 89.64 M 328.68 370.51 L 328.68 388.44 M 328.68 406.37 L 328.68 388.44 M 328.68 490.03 L 328.68 507.96 M 328.68 525.89 L 328.68 507.96 M 567.72 567.72 L 537.84 567.72 " />   </svg>