<svg id="maze" xmlns="http://www.w3.org/2000/svg" viewBox="0 0 597.6 597.6"  width="597.6px" height="597.6px" stroke-width="2" fill-opacity="0.0" stroke="black"> <path stroke-opacity="1.0" stroke-width="2" stroke="#000000" d="M 59.76 47.81 L 71.71 47.81 L 71.71 59.76 M 59.76 11.95 L 107.57 11.95 L 107.57 59.76 M 167.33 59.76 L 167.33 11.95 L 131.47 11.95 L 131.47 59.76 M 227.09 59.76 L 227.09 11.95 L 191.23 11.95 L 191.23 59.76 M 298.8 47.81 L 286.85 47.81 L 286.85 59.76 M 298.8 11.95 L 250.99 11.95 L 250.99 59.76 M 298.8 47.81 L 310.75 47.81 L 310.75 59.76 M 298.8 11.95 L 346.61 11.95 L 346.61 59.76 M 406.37 59.76 L 406.37 11.95 L 370.51 11.95 L 370.51 59.76 M 466.13 59.76 L 466.13 11.95 L 430.27 11.95 L 430.27 59.76 M 537.84 47.81 L 525.89 47.81 L 525.89 59.76 M 537.84 11.95 L 490.03 11.95 L 490.03 59.76 M 537.84 47.81 L 585.65 47.81 L 585.65 11.95 L 537.84 11.95 M 11.95 59.76 L 11.95 119.52 M 59.76 71.71 L 47.81 71.71 L 47.81 59.76 M 59.76 107.57 L 47.81 107.57 L 47.81 119.52 M 59.76 71.71 L 119.52 71.71 M 59.76 107.57 L 119.52 107.57 M 71.71 59.76 L 71.71 71.71 M 107.57 59.76 L 107.57 71.71 M 71.71 107.57 L 71.71 119.52 M 107.57 107.57 L 107.57 119.52 M 131.47 59.76 L 131.47 71.71 L 119.52 71.71 M 119.52 107.57 L 131.47 107.57 L 131.47 119.52 M 179.28 71.71 L 167.33 71.71 L 167.33 59.76 M 179.28 107.57 L 167.33 107.57 L 167.33 119.52 M 191.23 59.76 L 191.23 119.52 M 227.09 59.76 L 227.09 119.52 M 179.28 71.71 L 191.23 71.71 M 179.28 107.57 L 191.23 107.57 M 239.04 71.71 L 227.09 71.71 M 239.04 107.57 L 227.09 107.57 M 239.04 107.57 L 298.8 107.57 M 250.99 59.76 L 250.99 71.71 L 239.04 71.71 M 298.8 71.71 L 286.85 71.71 L 286.85 59.76 M 298.8 71.71 L 358.56 71.71 M 298.8 107.57 L 358.56 107.57 M 310.75 59.76 L 310.75 71.71 M 346.61 59.76 L 346.61 71.71 M 310.75 107.57 L 310.75 119.52 M 346.61 107.57 L 346.61 119.52 M 370.51 59.76 L 370.51 71.71 L 358.56 71.71 M 358.56 107.57 L 370.51 107.57 L 370.51 119.52 M 418.32 71.71 L 406.37 71.71 L 406.37 59.76 M 418.32 107.57 L 406.37 107.57 L 406.37 119.52 M 418.32 71.71 L 478.08 71.71 M 418.32 107.57 L 478.08 107.57 M 430.27 59.76 L 430.27 71.71 M 466.13 59.76 L 466.13 71.71 M 430.27 107.57 L 430.27 119.52 M 466.13 107.57 L 466.13 119.52 M 478.08 107.57 L 537.84 107.57 M 490.03 59.76 L 490.03 71.71 L 478.08 71.71 M 537.84 71.71 L 525.89 71.71 L 525.89 59.76 M 537.84 107.57 L 585.65 107.57 L 585.65 71.71 L 537.84 71.71 M 47.81 119.52 L 47.81 126.26 L 47.81 167.33 L 11.95 167.33 L 11.95 119.52 M 71.71 119.52 L 71.71 179.28 M 119.52 131.47 L 107.57 131.47 L 107.57 119.52 M 119.52 167.33 L 107.57 167.33 L 107.57 179.28 M 119.52 131.47 L 179.28 131.47 M 119.52 167.33 L 179.28 167.33 M 131.47 119.52 L 131.47 131.47 M 167.33 119.52 L 167.33 131.47 M 131.47 167.33 L 131.47 179.28 M 167.33 167.33 L 167.33 179.28 M 191.23 119.52 L 191.23 131.47 L 179.28 131.47 M 227.09 119.52 L 227.09 167.33 L 179.28 167.33 M 286.85 179.28 L 286.85 131.47 L 250.99 131.47 L 250.99 179.28 M 358.56 131.47 L 346.61 131.47 L 346.61 119.52 M 358.56 167.33 L 310.75 167.33 L 310.75 119.52 M 370.51 119.52 L 370.51 179.28 M 406.37 119.52 L 406.37 179.28 M 358.56 131.47 L 370.51 131.47 M 358.56 167.33 L 370.51 167.33 M 418.32 131.47 L 406.37 131.47 M 418.32 167.33 L 406.37 167.33 M 418.32 167.33 L 478.08 167.33 M 430.27 119.52 L 430.27 131.47 L 418.32 131.47 M 478.08 131.47 L 466.13 131.47 L 466.13 119.52 M 478.08 131.47 L 537.84 131.47 M 478.08 167.33 L 537.84 167.33 M 537.84 167.33 L 549.79 167.33 L 549.79 179.28 M 537.84 131.47 L 585.65 131.47 L 585.65 179.28 M 59.76 227.09 L 47.81 227.09 L 47.81 239.04 M 59.76 191.23 L 11.95 191.23 L 11.95 239.04 M 59.76 191.23 L 119.52 191.23 M 59.76 227.09 L 119.52 227.09 M 71.71 179.28 L 71.71 191.23 M 107.57 179.28 L 107.57 191.23 M 71.71 227.09 L 71.71 239.04 M 107.57 227.09 L 107.57 239.04 M 131.47 179.28 L 131.47 191.23 L 119.52 191.23 M 167.33 179.28 L 167.33 227.09 L 119.52 227.09 M 239.04 227.09 L 227.09 227.09 L 227.09 239.04 M 239.04 191.23 L 191.23 191.23 L 191.23 239.04 M 250.99 179.28 L 250.99 239.04 M 286.85 179.28 L 286.85 239.04 M 239.04 191.23 L 250.99 191.23 M 239.04 227.09 L 250.99 227.09 M 298.8 191.23 L 286.85 191.23 M 298.8 227.09 L 286.85 227.09 M 298.8 191.23 L 358.56 191.23 M 298.8 227.09 L 358.56 227.09 M 406.37 179.28 L 406.37 239.04 M 370.51 179.28 L 370.51 191.23 L 358.56 191.23 M 358.56 227.09 L 370.51 227.09 L 370.51 239.04 M 466.13 239.04 L 466.13 191.23 L 430.27 191.23 L 430.27 239.04 M 537.84 227.09 L 490.03 227.09 L 490.03 191.23 L 537.84 191.23 M 549.79 179.28 L 549.79 191.23 L 537.84 191.23 M 585.65 179.28 L 585.65 227.09 L 537.84 227.09 M 47.81 239.04 L 47.81 245.78 L 47.81 286.85 L 11.95 286.85 L 11.95 239.04 M 119.52 250.99 L 107.57 250.99 L 107.57 239.04 M 119.52 286.85 L 71.71 286.85 L 71.71 239.04 M 119.52 250.99 L 179.28 250.99 M 119.52 286.85 L 179.28 286.85 M 179.28 250.99 L 239.04 250.99 M 179.28 286.85 L 239.04 286.85 M 191.23 239.04 L 191.23 250.99 M 227.09 239.04 L 227.09 250.99 M 191.23 286.85 L 191.23 298.8 M 227.09 286.85 L 227.09 298.8 M 286.85 239.04 L 286.85 298.8 M 250.99 239.04 L 250.99 250.99 L 239.04 250.99 M 239.04 286.85 L 250.99 286.85 L 250.99 298.8 M 358.56 286.85 L 310.75 286.85 L 310.75 250.99 L 358.56 250.99 M 358.56 250.99 L 418.32 250.99 M 358.56 286.85 L 418.32 286.85 M 370.51 239.04 L 370.51 250.99 M 406.37 239.04 L 406.37 250.99 M 370.51 286.85 L 370.51 298.8 M 406.37 286.85 L 406.37 298.8 M 430.27 239.04 L 430.27 250.99 L 418.32 250.99 M 418.32 286.85 L 430.27 286.85 L 430.27 298.8 M 478.08 250.99 L 466.13 250.99 L 466.13 239.04 M 478.08 286.85 L 466.13 286.85 L 466.13 298.8 M 478.08 250.99 L 537.84 250.99 M 478.08 286.85 L 537.84 286.85 M 537.84 286.85 L 585.65 286.85 L 585.65 250.99 L 537.84 250.99 M 47.81 358.56 L 47.81 310.75 L 11.95 310.75 L 11.95 358.56 M 107.57 358.56 L 107.57 310.75 L 71.71 310.75 L 71.71 358.56 M 179.28 346.61 L 131.47 346.61 L 131.47 310.75 L 179.28 310.75 M 179.28 346.61 L 239.04 346.61 M 191.23 298.8 L 191.23 310.75 L 179.28 310.75 M 239.04 310.75 L 227.09 310.75 L 227.09 298.8 M 239.04 310.75 L 298.8 310.75 M 239.04 346.61 L 298.8 346.61 M 250.99 298.8 L 250.99 310.75 M 286.85 298.8 L 286.85 310.75 M 250.99 346.61 L 250.99 358.56 M 286.85 346.61 L 286.85 358.56 M 298.8 346.61 L 310.75 346.61 L 310.75 358.56 M 298.8 310.75 L 346.61 310.75 L 346.61 358.56 M 418.32 310.75 L 406.37 310.75 L 406.37 298.8 M 418.32 346.61 L 370.51 346.61 L 370.51 298.8 M 418.32 310.75 L 478.08 310.75 M 418.32 346.61 L 478.08 346.61 M 430.27 298.8 L 430.27 310.75 M 466.13 298.8 L 466.13 310.75 M 430.27 346.61 L 430.27 358.56 M 466.13 346.61 L 466.13 358.56 M 478.08 310.75 L 537.84 310.75 M 478.08 346.61 L 490.03 346.61 L 490.03 358.56 M 537.84 346.61 L 525.89 346.61 L 525.89 358.56 M 537.84 346.61 L 585.65 346.61 L 585.65 310.75 L 537.84 310.75 M 11.95 358.56 L 11.95 418.32 M 59.76 370.51 L 47.81 370.51 L 47.81 358.56 M 59.76 406.37 L 47.81 406.37 L 47.81 418.32 M 59.76 370.51 L 119.52 370.51 M 59.76 406.37 L 119.52 406.37 M 71.71 358.56 L 71.71 370.51 M 107.57 358.56 L 107.57 370.51 M 71.71 406.37 L 71.71 418.32 M 107.57 406.37 L 107.57 418.32 M 119.52 370.51 L 179.28 370.51 M 119.52 406.37 L 179.28 406.37 M 179.28 406.37 L 191.23 406.37 L 191.23 418.32 M 179.28 370.51 L 227.09 370.51 L 227.09 418.32 M 250.99 358.56 L 250.99 418.32 M 298.8 370.51 L 286.85 370.51 L 286.85 358.56 M 298.8 406.37 L 286.85 406.37 L 286.85 418.32 M 298.8 370.51 L 358.56 370.51 M 298.8 406.37 L 358.56 406.37 M 310.75 358.56 L 310.75 370.51 M 346.61 358.56 L 346.61 370.51 M 310.75 406.37 L 310.75 418.32 M 346.61 406.37 L 346.61 418.32 M 358.56 406.37 L 370.51 406.37 L 370.51 418.32 M 358.56 370.51 L 406.37 370.51 L 406.37 418.32 M 478.08 370.51 L 466.13 370.51 L 466.13 358.56 M 478.08 406.37 L 430.27 406.37 L 430.27 358.56 M 478.08 370.51 L 537.84 370.51 M 478.08 406.37 L 537.84 406.37 M 490.03 358.56 L 490.03 370.51 M 525.89 358.56 L 525.89 370.51 M 490.03 406.37 L 490.03 418.32 M 525.89 406.37 L 525.89 418.32 M 537.84 406.37 L 549.79 406.37 L 549.79 418.32 M 537.84 370.51 L 585.65 370.51 L 585.65 418.32 M 11.95 418.32 L 11.95 478.08 M 59.76 430.27 L 47.81 430.27 L 47.81 418.32 M 59.76 466.13 L 47.81 466.13 L 47.81 478.08 M 71.71 418.32 L 71.71 430.27 L 59.76 430.27 M 59.76 466.13 L 71.71 466.13 L 71.71 478.08 M 119.52 430.27 L 107.57 430.27 L 107.57 418.32 M 119.52 466.13 L 107.57 466.13 L 107.57 478.08 M 119.52 466.13 L 131.47 466.13 L 131.47 478.08 M 119.52 430.27 L 167.33 430.27 L 167.33 478.08 M 191.23 418.32 L 191.23 478.08 M 227.09 418.32 L 227.09 478.08 M 286.85 418.32 L 286.85 425.06 L 286.85 466.13 L 250.99 466.13 L 250.99 418.32 M 310.75 418.32 L 310.75 478.08 M 358.56 430.27 L 346.61 430.27 L 346.61 418.32 M 358.56 466.13 L 346.61 466.13 L 346.61 478.08 M 358.56 430.27 L 418.32 430.27 M 358.56 466.13 L 418.32 466.13 M 370.51 418.32 L 370.51 430.27 M 406.37 418.32 L 406.37 430.27 M 370.51 466.13 L 370.51 478.08 M 406.37 466.13 L 406.37 478.08 M 418.32 466.13 L 430.27 466.13 L 430.27 478.08 M 418.32 430.27 L 466.13 430.27 L 466.13 478.08 M 537.84 430.27 L 525.89 430.27 L 525.89 418.32 M 537.84 466.13 L 490.03 466.13 L 490.03 418.32 M 549.79 418.32 L 549.79 430.27 L 537.84 430.27 M 585.65 418.32 L 585.65 466.13 L 537.84 466.13 M 11.95 478.08 L 11.95 537.84 M 47.81 478.08 L 47.81 537.84 M 71.71 478.08 L 71.71 537.84 M 107.57 478.08 L 107.57 537.84 M 179.28 490.03 L 167.33 490.03 L 167.33 478.08 M 179.28 525.89 L 131.47 525.89 L 131.47 478.08 M 179.28 490.03 L 239.04 490.03 M 179.28 525.89 L 239.04 525.89 M 191.23 478.08 L 191.23 490.03 M 227.09 478.08 L 227.09 490.03 M 191.23 525.89 L 191.23 537.84 M 227.09 525.89 L 227.09 537.84 M 239.04 490.03 L 298.8 490.03 M 239.04 525.89 L 250.99 525.89 L 250.99 537.84 M 298.8 525.89 L 286.85 525.89 L 286.85 537.84 M 298.8 490.03 L 358.56 490.03 M 298.8 525.89 L 358.56 525.89 M 310.75 478.08 L 310.75 490.03 M 346.61 478.08 L 346.61 490.03 M 310.75 525.89 L 310.75 537.84 M 346.61 525.89 L 346.61 537.84 M 358.56 525.89 L 418.32 525.89 M 370.51 478.08 L 370.51 490.03 L 358.56 490.03 M 418.32 490.03 L 406.37 490.03 L 406.37 478.08 M 430.27 478.08 L 430.27 537.84 M 466.13 478.08 L 466.13 537.84 M 418.32 490.03 L 430.27 490.03 M 418.32 525.89 L 430.27 525.89 M 478.08 490.03 L 466.13 490.03 M 478.08 525.89 L 466.13 525.89 M 478.08 490.03 L 537.84 490.03 M 478.08 525.89 L 490.03 525.89 L 490.03 537.84 M 537.84 525.89 L 525.89 525.89 L 525.89 537.84 M 537.84 525.89 L 585.65 525.89 L 585.65 490.03 L 537.84 490.03 M 47.81 537.84 L 47.81 544.58 L 47.81 585.65 L 11.95 585.65 L 11.95 537.84 M 107.57 537.84 L 107.57 544.58 L 107.57 585.65 L 71.71 585.65 L 71.71 537.84 M 179.28 585.65 L 131.47 585.65 L 131.47 549.79 L 179.28 549.79 M 191.23 537.84 L 191.23 549.79 L 179.28 549.79 M 227.09 537.84 L 227.09 585.65 L 179.28 585.65 M 286.85 537.84 L 286.85 544.58 L 286.85 585.65 L 250.99 585.65 L 250.99 537.84 M 358.56 549.79 L 346.61 549.79 L 346.61 537.84 M 358.56 585.65 L 310.75 585.65 L 310.75 537.84 M 358.56 585.65 L 406.37 585.65 L 406.37 549.79 L 358.56 549.79 M 466.13 537.84 L 466.13 544.58 L 466.13 585.65 L 430.27 585.65 L 430.27 537.84 M 537.84 549.79 L 525.89 549.79 L 525.89 537.84 M 537.84 585.65 L 490.03 585.65 L 490.03 537.84 " /> <circle cx="29.88" cy="29.88" r="19.92" fill-opacity="1.0" stroke-opacity="0" fill="#E51919" /><circle cx="567.72" cy="567.72" r="19.92" fill-opacity="1.0" stroke-opacity="0" fill="#E51919" /> <path stroke-opacity="1.0" stroke-width="5" stroke="#E51919" d="M 29.88 29.88 L 59.76 29.88 M 59.76 29.88 L 89.64 29.88 L 89.64 59.76 M 89.64 119.52 L 89.64 179.28 M 89.64 59.76 L 89.64 71.71 M 89.64 119.52 L 89.64 107.57 M 119.52 268.92 L 89.64 268.92 L 89.64 239.04 M 89.64 179.28 L 89.64 191.23 M 89.64 239.04 L 89.64 227.09 M 119.52 268.92 L 179.28 268.92 M 239.04 268.92 L 268.92 268.92 L 268.92 298.8 M 179.28 268.92 L 239.04 268.92 M 298.8 388.44 L 268.92 388.44 L 268.92 358.56 M 268.92 298.8 L 268.92 310.75 M 268.92 358.56 L 268.92 346.61 M 358.56 388.44 L 388.44 388.44 L 388.44 418.32 M 298.8 388.44 L 358.56 388.44 M 418.32 507.96 L 388.44 507.96 L 388.44 478.08 M 388.44 418.32 L 388.44 430.27 M 388.44 478.08 L 388.44 466.13 M 478.08 507.96 L 507.96 507.96 L 507.96 537.84 M 418.32 507.96 L 430.27 507.96 M 478.08 507.96 L 466.13 507.96 M 567.72 567.72 L 537.84 567.72 M 537.84 567.72 L 507.96 567.72 L 507.96 537.84 " />  <path stroke-opacity="0.2" stroke-width="5" stroke="#E51919" d="M 29.88 29.88 L 59.76 29.88 M 89.64 71.71 L 89.64 89.64 M 89.64 107.57 L 89.64 89.64 M 89.64 191.23 L 89.64 209.16 M 89.64 227.09 L 89.64 209.16 M 268.92 310.75 L 268.92 328.68 M 268.92 346.61 L 268.92 328.68 M 388.44 430.27 L 388.44 448.2 M 388.44 466.13 L 388.44 448.2 M 430.27 507.96 L 448.2 507.96 M 466.13 507.96 L 448.2 507.96 M 567.72 567.72 L 537.84 567.72 " />   </svg>