<svg id="maze" xmlns="http://www.w3.org/2000/svg" viewBox="0 0 597.6 597.6"  width="597.6px" height="597.6px" stroke-width="2" fill-opacity="0.0" stroke="black"> <path stroke-opacity="1.0" stroke-width="2" stroke="#000000" d="M 119.52 47.81 L 107.57 47.81 L 107.57 59.76 M 119.52 11.95 L 71.71 11.95 L 71.71 59.76 M 119.52 47.81 L 167.33 47.81 L 167.33 11.95 L 119.52 11.95 M 239.04 47.81 L 227.09 47.81 L 227.09 59.76 M 239.04 11.95 L 191.23 11.95 L 191.23 59.76 M 239.04 11.95 L 298.8 11.95 M 239.04 47.81 L 250.99 47.81 L 250.99 59.76 M 298.8 47.81 L 286.85 47.81 L 286.85 59.76 M 298.8 47.81 L 346.61 47.81 L 346.61 11.95 L 298.8 11.95 M 418.32 47.81 L 406.37 47.81 L 406.37 59.76 M 418.32 11.95 L 370.51 11.95 L 370.51 59.76 M 418.32 11.95 L 478.08 11.95 M 418.32 47.81 L 430.27 47.81 L 430.27 59.76 M 478.08 47.81 L 466.13 47.81 L 466.13 59.76 M 478.08 11.95 L 537.84 11.95 M 478.08 47.81 L 537.84 47.81 M 537.84 47.81 L 585.65 47.81 L 585.65 11.95 L 537.84 11.95 M 59.76 71.71 L 47.81 71.71 L 47.81 59.76 M 59.76 107.57 L 11.95 107.57 L 11.95 59.76 M 59.76 107.57 L 119.52 107.57 M 71.71 59.76 L 71.71 71.71 L 59.76 71.71 M 119.52 71.71 L 107.57 71.71 L 107.57 59.76 M 119.52 71.71 L 179.28 71.71 M 119.52 107.57 L 131.47 107.57 L 131.47 119.52 M 179.28 107.57 L 167.33 107.57 L 167.33 119.52 M 191.23 59.76 L 191.23 119.52 M 227.09 59.76 L 227.09 119.52 M 179.28 71.71 L 191.23 71.71 M 179.28 107.57 L 191.23 107.57 M 239.04 71.71 L 227.09 71.71 M 239.04 107.57 L 227.09 107.57 M 250.99 59.76 L 250.99 71.71 L 239.04 71.71 M 286.85 59.76 L 286.85 107.57 L 239.04 107.57 M 346.61 119.52 L 346.61 71.71 L 310.75 71.71 L 310.75 119.52 M 406.37 59.76 L 406.37 66.5 L 406.37 107.57 L 370.51 107.57 L 370.51 59.76 M 430.27 59.76 L 430.27 119.52 M 478.08 71.71 L 466.13 71.71 L 466.13 59.76 M 478.08 107.57 L 466.13 107.57 L 466.13 119.52 M 478.08 71.71 L 537.84 71.71 M 478.08 107.57 L 537.84 107.57 M 537.84 107.57 L 549.79 107.57 L 549.79 119.52 M 537.84 71.71 L 585.65 71.71 L 585.65 119.52 M 59.76 167.33 L 11.95 167.33 L 11.95 131.47 L 59.76 131.47 M 59.76 131.47 L 119.52 131.47 M 59.76 167.33 L 119.52 167.33 M 119.52 131.47 L 179.28 131.47 M 119.52 167.33 L 179.28 167.33 M 131.47 119.52 L 131.47 131.47 M 167.33 119.52 L 167.33 131.47 M 131.47 167.33 L 131.47 179.28 M 167.33 167.33 L 167.33 179.28 M 191.23 119.52 L 191.23 131.47 L 179.28 131.47 M 179.28 167.33 L 191.23 167.33 L 191.23 179.28 M 239.04 131.47 L 227.09 131.47 L 227.09 119.52 M 239.04 167.33 L 227.09 167.33 L 227.09 179.28 M 239.04 131.47 L 298.8 131.47 M 239.04 167.33 L 298.8 167.33 M 310.75 119.52 L 310.75 131.47 L 298.8 131.47 M 346.61 119.52 L 346.61 167.33 L 298.8 167.33 M 418.32 167.33 L 406.37 167.33 L 406.37 179.28 M 418.32 131.47 L 370.51 131.47 L 370.51 179.28 M 430.27 119.52 L 430.27 179.28 M 466.13 119.52 L 466.13 179.28 M 418.32 131.47 L 430.27 131.47 M 418.32 167.33 L 430.27 167.33 M 478.08 131.47 L 466.13 131.47 M 478.08 167.33 L 466.13 167.33 M 478.08 167.33 L 490.03 167.33 L 490.03 179.28 M 478.08 131.47 L 525.89 131.47 L 525.89 179.28 M 585.65 119.52 L 585.65 126.26 L 585.65 167.33 L 549.79 167.33 L 549.79 119.52 M 47.81 239.04 L 47.81 191.23 L 11.95 191.23 L 11.95 239.04 M 107.57 239.04 L 107.57 191.23 L 71.71 191.23 L 71.71 239.04 M 131.47 179.28 L 131.47 239.04 M 167.33 179.28 L 167.33 239.04 M 227.09 179.28 L 227.09 186.02 L 227.09 227.09 L 191.23 227.09 L 191.23 179.28 M 286.85 239.04 L 286.85 191.23 L 250.99 191.23 L 250.99 239.04 M 358.56 227.09 L 346.61 227.09 L 346.61 239.04 M 358.56 191.23 L 310.75 191.23 L 310.75 239.04 M 358.56 191.23 L 418.32 191.23 M 358.56 227.09 L 418.32 227.09 M 370.51 179.28 L 370.51 191.23 M 406.37 179.28 L 406.37 191.23 M 370.51 227.09 L 370.51 239.04 M 406.37 227.09 L 406.37 239.04 M 418.32 227.09 L 478.08 227.09 M 430.27 179.28 L 430.27 191.23 L 418.32 191.23 M 478.08 191.23 L 466.13 191.23 L 466.13 179.28 M 490.03 179.28 L 490.03 239.04 M 525.89 179.28 L 525.89 239.04 M 478.08 191.23 L 490.03 191.23 M 478.08 227.09 L 490.03 227.09 M 537.84 191.23 L 525.89 191.23 M 537.84 227.09 L 525.89 227.09 M 537.84 227.09 L 585.65 227.09 L 585.65 191.23 L 537.84 191.23 M 59.76 250.99 L 47.81 250.99 L 47.81 239.04 M 59.76 286.85 L 11.95 286.85 L 11.95 239.04 M 59.76 250.99 L 119.52 250.99 M 59.76 286.85 L 119.52 286.85 M 71.71 239.04 L 71.71 250.99 M 107.57 239.04 L 107.57 250.99 M 71.71 286.85 L 71.71 298.8 M 107.57 286.85 L 107.57 298.8 M 167.33 239.04 L 167.33 298.8 M 131.47 239.04 L 131.47 250.99 L 119.52 250.99 M 119.52 286.85 L 131.47 286.85 L 131.47 298.8 M 227.09 298.8 L 227.09 250.99 L 191.23 250.99 L 191.23 298.8 M 250.99 239.04 L 250.99 298.8 M 298.8 250.99 L 286.85 250.99 L 286.85 239.04 M 298.8 286.85 L 286.85 286.85 L 286.85 298.8 M 298.8 250.99 L 358.56 250.99 M 298.8 286.85 L 358.56 286.85 M 310.75 239.04 L 310.75 250.99 M 346.61 239.04 L 346.61 250.99 M 310.75 286.85 L 310.75 298.8 M 346.61 286.85 L 346.61 298.8 M 406.37 239.04 L 406.37 298.8 M 370.51 239.04 L 370.51 250.99 L 358.56 250.99 M 358.56 286.85 L 370.51 286.85 L 370.51 298.8 M 466.13 298.8 L 466.13 250.99 L 430.27 250.99 L 430.27 298.8 M 525.89 239.04 L 525.89 245.78 L 525.89 286.85 L 490.03 286.85 L 490.03 239.04 M 585.65 298.8 L 585.65 250.99 L 549.79 250.99 L 549.79 298.8 M 47.81 358.56 L 47.81 310.75 L 11.95 310.75 L 11.95 358.56 M 119.52 310.75 L 107.57 310.75 L 107.57 298.8 M 119.52 346.61 L 71.71 346.61 L 71.71 298.8 M 131.47 298.8 L 131.47 358.56 M 167.33 298.8 L 167.33 358.56 M 119.52 310.75 L 131.47 310.75 M 119.52 346.61 L 131.47 346.61 M 179.28 310.75 L 167.33 310.75 M 179.28 346.61 L 167.33 346.61 M 191.23 298.8 L 191.23 310.75 L 179.28 310.75 M 179.28 346.61 L 191.23 346.61 L 191.23 358.56 M 239.04 310.75 L 227.09 310.75 L 227.09 298.8 M 239.04 346.61 L 227.09 346.61 L 227.09 358.56 M 239.04 310.75 L 298.8 310.75 M 239.04 346.61 L 298.8 346.61 M 250.99 298.8 L 250.99 310.75 M 286.85 298.8 L 286.85 310.75 M 250.99 346.61 L 250.99 358.56 M 286.85 346.61 L 286.85 358.56 M 346.61 298.8 L 346.61 358.56 M 310.75 298.8 L 310.75 310.75 L 298.8 310.75 M 298.8 346.61 L 310.75 346.61 L 310.75 358.56 M 418.32 310.75 L 406.37 310.75 L 406.37 298.8 M 418.32 346.61 L 370.51 346.61 L 370.51 298.8 M 418.32 310.75 L 478.08 310.75 M 418.32 346.61 L 478.08 346.61 M 430.27 298.8 L 430.27 310.75 M 466.13 298.8 L 466.13 310.75 M 430.27 346.61 L 430.27 358.56 M 466.13 346.61 L 466.13 358.56 M 478.08 310.75 L 537.84 310.75 M 478.08 346.61 L 490.03 346.61 L 490.03 358.56 M 537.84 346.61 L 525.89 346.61 L 525.89 358.56 M 549.79 298.8 L 549.79 310.75 L 537.84 310.75 M 585.65 298.8 L 585.65 346.61 L 537.84 346.61 M 59.76 370.51 L 47.81 370.51 L 47.81 358.56 M 59.76 406.37 L 11.95 406.37 L 11.95 358.56 M 59.76 406.37 L 71.71 406.37 L 71.71 418.32 M 59.76 370.51 L 107.57 370.51 L 107.57 418.32 M 179.28 370.51 L 167.33 370.51 L 167.33 358.56 M 179.28 406.37 L 131.47 406.37 L 131.47 358.56 M 191.23 358.56 L 191.23 418.32 M 227.09 358.56 L 227.09 418.32 M 179.28 370.51 L 191.23 370.51 M 179.28 406.37 L 191.23 406.37 M 239.04 370.51 L 227.09 370.51 M 239.04 406.37 L 227.09 406.37 M 239.04 406.37 L 298.8 406.37 M 250.99 358.56 L 250.99 370.51 L 239.04 370.51 M 298.8 370.51 L 286.85 370.51 L 286.85 358.56 M 346.61 358.56 L 346.61 418.32 M 310.75 358.56 L 310.75 370.51 L 298.8 370.51 M 298.8 406.37 L 310.75 406.37 L 310.75 418.32 M 406.37 418.32 L 406.37 370.51 L 370.51 370.51 L 370.51 418.32 M 430.27 358.56 L 430.27 418.32 M 478.08 370.51 L 466.13 370.51 L 466.13 358.56 M 478.08 406.37 L 466.13 406.37 L 466.13 418.32 M 478.08 370.51 L 537.84 370.51 M 478.08 406.37 L 537.84 406.37 M 490.03 358.56 L 490.03 370.51 M 525.89 358.56 L 525.89 370.51 M 490.03 406.37 L 490.03 418.32 M 525.89 406.37 L 525.89 418.32 M 537.84 406.37 L 585.65 406.37 L 585.65 370.51 L 537.84 370.51 M 59.76 466.13 L 11.95 466.13 L 11.95 430.27 L 59.76 430.27 M 71.71 418.32 L 71.71 478.08 M 107.57 418.32 L 107.57 478.08 M 59.76 430.27 L 71.71 430.27 M 59.76 466.13 L 71.71 466.13 M 119.52 430.27 L 107.57 430.27 M 119.52 466.13 L 107.57 466.13 M 119.52 430.27 L 179.28 430.27 M 119.52 466.13 L 131.47 466.13 L 131.47 478.08 M 179.28 466.13 L 167.33 466.13 L 167.33 478.08 M 191.23 418.32 L 191.23 430.27 L 179.28 430.27 M 227.09 418.32 L 227.09 466.13 L 179.28 466.13 M 298.8 466.13 L 250.99 466.13 L 250.99 430.27 L 298.8 430.27 M 310.75 418.32 L 310.75 478.08 M 346.61 418.32 L 346.61 478.08 M 298.8 430.27 L 310.75 430.27 M 298.8 466.13 L 310.75 466.13 M 358.56 430.27 L 346.61 430.27 M 358.56 466.13 L 346.61 466.13 M 358.56 466.13 L 418.32 466.13 M 370.51 418.32 L 370.51 430.27 L 358.56 430.27 M 418.32 430.27 L 406.37 430.27 L 406.37 418.32 M 430.27 418.32 L 430.27 430.27 L 418.32 430.27 M 418.32 466.13 L 430.27 466.13 L 430.27 478.08 M 478.08 430.27 L 466.13 430.27 L 466.13 418.32 M 478.08 466.13 L 466.13 466.13 L 466.13 478.08 M 490.03 418.32 L 490.03 430.27 L 478.08 430.27 M 478.08 466.13 L 490.03 466.13 L 490.03 478.08 M 537.84 430.27 L 525.89 430.27 L 525.89 418.32 M 537.84 466.13 L 525.89 466.13 L 525.89 478.08 M 537.84 466.13 L 585.65 466.13 L 585.65 430.27 L 537.84 430.27 M 59.76 525.89 L 47.81 525.89 L 47.81 537.84 M 59.76 490.03 L 11.95 490.03 L 11.95 537.84 M 59.76 525.89 L 119.52 525.89 M 71.71 478.08 L 71.71 490.03 L 59.76 490.03 M 119.52 490.03 L 107.57 490.03 L 107.57 478.08 M 131.47 478.08 L 131.47 537.84 M 167.33 478.08 L 167.33 537.84 M 119.52 490.03 L 131.47 490.03 M 119.52 525.89 L 131.47 525.89 M 179.28 490.03 L 167.33 490.03 M 179.28 525.89 L 167.33 525.89 M 179.28 490.03 L 239.04 490.03 M 179.28 525.89 L 191.23 525.89 L 191.23 537.84 M 239.04 525.89 L 227.09 525.89 L 227.09 537.84 M 239.04 525.89 L 250.99 525.89 L 250.99 537.84 M 239.04 490.03 L 286.85 490.03 L 286.85 537.84 M 346.61 478.08 L 346.61 484.82 L 346.61 525.89 L 310.75 525.89 L 310.75 478.08 M 418.32 525.89 L 406.37 525.89 L 406.37 537.84 M 418.32 490.03 L 370.51 490.03 L 370.51 537.84 M 418.32 525.89 L 478.08 525.89 M 430.27 478.08 L 430.27 490.03 L 418.32 490.03 M 478.08 490.03 L 466.13 490.03 L 466.13 478.08 M 478.08 490.03 L 537.84 490.03 M 478.08 525.89 L 537.84 525.89 M 490.03 478.08 L 490.03 490.03 M 525.89 478.08 L 525.89 490.03 M 490.03 525.89 L 490.03 537.84 M 525.89 525.89 L 525.89 537.84 M 537.84 525.89 L 585.65 525.89 L 585.65 490.03 L 537.84 490.03 M 47.81 537.84 L 47.81 544.58 L 47.81 585.65 L 11.95 585.65 L 11.95 537.84 M 119.52 585.65 L 71.71 585.65 L 71.71 549.79 L 119.52 549.79 M 119.52 585.65 L 179.28 585.65 M 131.47 537.84 L 131.47 549.79 L 119.52 549.79 M 179.28 549.79 L 167.33 549.79 L 167.33 537.84 M 191.23 537.84 L 191.23 549.79 L 179.28 549.79 M 227.09 537.84 L 227.09 585.65 L 179.28 585.65 M 286.85 537.84 L 286.85 544.58 L 286.85 585.65 L 250.99 585.65 L 250.99 537.84 M 358.56 585.65 L 310.75 585.65 L 310.75 549.79 L 358.56 549.79 M 358.56 585.65 L 418.32 585.65 M 370.51 537.84 L 370.51 549.79 L 358.56 549.79 M 418.32 549.79 L 406.37 549.79 L 406.37 537.84 M 418.32 585.65 L 466.13 585.65 L 466.13 549.79 L 418.32 549.79 M 537.84 549.79 L 525.89 549.79 L 525.89 537.84 M 537.84 585.65 L 490.03 585.65 L 490.03 537.84 " /> <circle cx="29.88" cy="29.88" r="19.92" fill-opacity="1.0" stroke-opacity="0" fill="#E51919" /><circle cx="567.72" cy="567.72" r="19.92" fill-opacity="1.0" stroke-opacity="0" fill="#E51919" /> <path stroke-opacity="1.0" stroke-width="5" stroke="#E51919" d="M 29.88 59.76 L 29.88 29.88 M 59.76 89.64 L 29.88 89.64 L 29.88 59.76 M 59.76 89.64 L 119.52 89.64 M 119.52 89.64 L 149.4 89.64 L 149.4 119.52 M 149.4 179.28 L 149.4 239.04 M 149.4 119.52 L 149.4 131.47 M 149.4 179.28 L 149.4 167.33 M 149.4 239.04 L 149.4 298.8 M 179.28 388.44 L 149.4 388.44 L 149.4 358.56 M 149.4 298.8 L 149.4 358.56 M 268.92 358.56 L 268.92 388.44 L 239.04 388.44 M 179.28 388.44 L 191.23 388.44 M 239.04 388.44 L 227.09 388.44 M 298.8 268.92 L 268.92 268.92 L 268.92 298.8 M 268.92 298.8 L 268.92 310.75 M 268.92 358.56 L 268.92 346.61 M 358.56 268.92 L 388.44 268.92 L 388.44 298.8 M 298.8 268.92 L 358.56 268.92 M 418.32 328.68 L 388.44 328.68 L 388.44 298.8 M 478.08 328.68 L 507.96 328.68 L 507.96 358.56 M 418.32 328.68 L 478.08 328.68 M 507.96 418.32 L 507.96 478.08 M 507.96 358.56 L 507.96 370.51 M 507.96 418.32 L 507.96 406.37 M 567.72 567.72 L 537.84 567.72 M 537.84 567.72 L 507.96 567.72 L 507.96 537.84 M 507.96 478.08 L 507.96 490.03 M 507.96 537.84 L 507.96 525.89 " />  <path stroke-opacity="0.2" stroke-width="5" stroke="#E51919" d="M 29.88 59.76 L 29.88 29.88 M 149.4 131.47 L 149.4 149.4 M 149.4 167.33 L 149.4 149.4 M 191.23 388.44 L 209.16 388.44 M 227.09 388.44 L 209.16 388.44 M 268.92 310.75 L 268.92 328.68 M 268.92 346.61 L 268.92 328.68 M 507.96 370.51 L 507.96 388.44 M 507.96 406.37 L 507.96 388.44 M 567.72 567.72 L 537.84 567.72 M 507.96 490.03 L 507.96 507.96 M 507.96 525.89 L 507.96 507.96 " />   </svg>