<svg id="maze" xmlns="http://www.w3.org/2000/svg" viewBox="0 0 597.6 597.6"  width="597.6px" height="597.6px" stroke-width="2" fill-opacity="0.0" stroke="black"> <path stroke-opacity="1.0" stroke-width="2" stroke="#000000" d="M 59.76 11.95 L 119.52 11.95 M 59.76 47.81 L 119.52 47.81 M 119.52 47.81 L 131.47 47.81 L 131.47 59.76 M 119.52 11.95 L 167.33 11.95 L 167.33 59.76 M 227.09 59.76 L 227.09 11.95 L 191.23 11.95 L 191.23 59.76 M 298.8 47.81 L 286.85 47.81 L 286.85 59.76 M 298.8 11.95 L 250.99 11.95 L 250.99 59.76 M 298.8 47.81 L 346.61 47.81 L 346.61 11.95 L 298.8 11.95 M 418.32 47.81 L 406.37 47.81 L 406.37 59.76 M 418.32 11.95 L 370.51 11.95 L 370.51 59.76 M 418.32 47.81 L 466.13 47.81 L 466.13 11.95 L 418.32 11.95 M 525.89 59.76 L 525.89 11.95 L 490.03 11.95 L 490.03 59.76 M 585.65 59.76 L 585.65 11.95 L 549.79 11.95 L 549.79 59.76 M 47.81 59.76 L 47.81 66.5 L 47.81 107.57 L 11.95 107.57 L 11.95 59.76 M 119.52 107.57 L 107.57 107.57 L 107.57 119.52 M 119.52 71.71 L 71.71 71.71 L 71.71 119.52 M 131.47 59.76 L 131.47 119.52 M 167.33 59.76 L 167.33 119.52 M 119.52 71.71 L 131.47 71.71 M 119.52 107.57 L 131.47 107.57 M 179.28 71.71 L 167.33 71.71 M 179.28 107.57 L 167.33 107.57 M 191.23 59.76 L 191.23 71.71 L 179.28 71.71 M 179.28 107.57 L 191.23 107.57 L 191.23 119.52 M 239.04 71.71 L 227.09 71.71 L 227.09 59.76 M 239.04 107.57 L 227.09 107.57 L 227.09 119.52 M 250.99 59.76 L 250.99 119.52 M 286.85 59.76 L 286.85 119.52 M 239.04 71.71 L 250.99 71.71 M 239.04 107.57 L 250.99 107.57 M 298.8 71.71 L 286.85 71.71 M 298.8 107.57 L 286.85 107.57 M 298.8 71.71 L 358.56 71.71 M 298.8 107.57 L 310.75 107.57 L 310.75 119.52 M 358.56 107.57 L 346.61 107.57 L 346.61 119.52 M 370.51 59.76 L 370.51 119.52 M 406.37 59.76 L 406.37 119.52 M 358.56 71.71 L 370.51 71.71 M 358.56 107.57 L 370.51 107.57 M 418.32 71.71 L 406.37 71.71 M 418.32 107.57 L 406.37 107.57 M 418.32 71.71 L 478.08 71.71 M 418.32 107.57 L 430.27 107.57 L 430.27 119.52 M 478.08 107.57 L 466.13 107.57 L 466.13 119.52 M 525.89 59.76 L 525.89 119.52 M 490.03 59.76 L 490.03 71.71 L 478.08 71.71 M 478.08 107.57 L 490.03 107.57 L 490.03 119.52 M 549.79 59.76 L 549.79 119.52 M 585.65 59.76 L 585.65 119.52 M 59.76 167.33 L 11.95 167.33 L 11.95 131.47 L 59.76 131.47 M 71.71 119.52 L 71.71 131.47 L 59.76 131.47 M 107.57 119.52 L 107.57 167.33 L 59.76 167.33 M 131.47 119.52 L 131.47 179.28 M 179.28 131.47 L 167.33 131.47 L 167.33 119.52 M 179.28 167.33 L 167.33 167.33 L 167.33 179.28 M 191.23 119.52 L 191.23 179.28 M 227.09 119.52 L 227.09 179.28 M 179.28 131.47 L 191.23 131.47 M 179.28 167.33 L 191.23 167.33 M 239.04 131.47 L 227.09 131.47 M 239.04 167.33 L 227.09 167.33 M 239.04 167.33 L 298.8 167.33 M 250.99 119.52 L 250.99 131.47 L 239.04 131.47 M 298.8 131.47 L 286.85 131.47 L 286.85 119.52 M 298.8 131.47 L 358.56 131.47 M 298.8 167.33 L 358.56 167.33 M 310.75 119.52 L 310.75 131.47 M 346.61 119.52 L 346.61 131.47 M 310.75 167.33 L 310.75 179.28 M 346.61 167.33 L 346.61 179.28 M 358.56 167.33 L 418.32 167.33 M 370.51 119.52 L 370.51 131.47 L 358.56 131.47 M 418.32 131.47 L 406.37 131.47 L 406.37 119.52 M 418.32 131.47 L 478.08 131.47 M 418.32 167.33 L 478.08 167.33 M 430.27 119.52 L 430.27 131.47 M 466.13 119.52 L 466.13 131.47 M 430.27 167.33 L 430.27 179.28 M 466.13 167.33 L 466.13 179.28 M 525.89 119.52 L 525.89 179.28 M 490.03 119.52 L 490.03 131.47 L 478.08 131.47 M 478.08 167.33 L 490.03 167.33 L 490.03 179.28 M 549.79 119.52 L 549.79 179.28 M 585.65 119.52 L 585.65 179.28 M 59.76 227.09 L 11.95 227.09 L 11.95 191.23 L 59.76 191.23 M 59.76 227.09 L 71.71 227.09 L 71.71 239.04 M 59.76 191.23 L 107.57 191.23 L 107.57 239.04 M 167.33 179.28 L 167.33 186.02 L 167.33 227.09 L 131.47 227.09 L 131.47 179.28 M 227.09 179.28 L 227.09 186.02 L 227.09 227.09 L 191.23 227.09 L 191.23 179.28 M 286.85 239.04 L 286.85 191.23 L 250.99 191.23 L 250.99 239.04 M 358.56 191.23 L 346.61 191.23 L 346.61 179.28 M 358.56 227.09 L 310.75 227.09 L 310.75 179.28 M 358.56 227.09 L 406.37 227.09 L 406.37 191.23 L 358.56 191.23 M 430.27 179.28 L 430.27 239.04 M 478.08 191.23 L 466.13 191.23 L 466.13 179.28 M 478.08 227.09 L 466.13 227.09 L 466.13 239.04 M 490.03 179.28 L 490.03 239.04 M 525.89 179.28 L 525.89 239.04 M 478.08 191.23 L 490.03 191.23 M 478.08 227.09 L 490.03 227.09 M 537.84 191.23 L 525.89 191.23 M 537.84 227.09 L 525.89 227.09 M 549.79 179.28 L 549.79 191.23 L 537.84 191.23 M 585.65 179.28 L 585.65 227.09 L 537.84 227.09 M 59.76 286.85 L 11.95 286.85 L 11.95 250.99 L 59.76 250.99 M 71.71 239.04 L 71.71 298.8 M 107.57 239.04 L 107.57 298.8 M 59.76 250.99 L 71.71 250.99 M 59.76 286.85 L 71.71 286.85 M 119.52 250.99 L 107.57 250.99 M 119.52 286.85 L 107.57 286.85 M 119.52 250.99 L 179.28 250.99 M 119.52 286.85 L 131.47 286.85 L 131.47 298.8 M 179.28 286.85 L 167.33 286.85 L 167.33 298.8 M 179.28 250.99 L 239.04 250.99 M 179.28 286.85 L 191.23 286.85 L 191.23 298.8 M 239.04 286.85 L 227.09 286.85 L 227.09 298.8 M 239.04 250.99 L 298.8 250.99 M 239.04 286.85 L 298.8 286.85 M 250.99 239.04 L 250.99 250.99 M 286.85 239.04 L 286.85 250.99 M 250.99 286.85 L 250.99 298.8 M 286.85 286.85 L 286.85 298.8 M 298.8 286.85 L 346.61 286.85 L 346.61 250.99 L 298.8 250.99 M 418.32 286.85 L 370.51 286.85 L 370.51 250.99 L 418.32 250.99 M 466.13 239.04 L 466.13 298.8 M 430.27 239.04 L 430.27 250.99 L 418.32 250.99 M 418.32 286.85 L 430.27 286.85 L 430.27 298.8 M 537.84 250.99 L 525.89 250.99 L 525.89 239.04 M 537.84 286.85 L 490.03 286.85 L 490.03 239.04 M 537.84 286.85 L 549.79 286.85 L 549.79 298.8 M 537.84 250.99 L 585.65 250.99 L 585.65 298.8 M 59.76 346.61 L 11.95 346.61 L 11.95 310.75 L 59.76 310.75 M 71.71 298.8 L 71.71 310.75 L 59.76 310.75 M 59.76 346.61 L 71.71 346.61 L 71.71 358.56 M 119.52 310.75 L 107.57 310.75 L 107.57 298.8 M 119.52 346.61 L 107.57 346.61 L 107.57 358.56 M 131.47 298.8 L 131.47 310.75 L 119.52 310.75 M 167.33 298.8 L 167.33 346.61 L 119.52 346.61 M 239.04 310.75 L 227.09 310.75 L 227.09 298.8 M 239.04 346.61 L 191.23 346.61 L 191.23 298.8 M 250.99 298.8 L 250.99 310.75 L 239.04 310.75 M 286.85 298.8 L 286.85 346.61 L 239.04 346.61 M 346.61 358.56 L 346.61 310.75 L 310.75 310.75 L 310.75 358.56 M 418.32 346.61 L 406.37 346.61 L 406.37 358.56 M 418.32 310.75 L 370.51 310.75 L 370.51 358.56 M 418.32 310.75 L 478.08 310.75 M 418.32 346.61 L 478.08 346.61 M 430.27 298.8 L 430.27 310.75 M 466.13 298.8 L 466.13 310.75 M 430.27 346.61 L 430.27 358.56 M 466.13 346.61 L 466.13 358.56 M 478.08 346.61 L 490.03 346.61 L 490.03 358.56 M 478.08 310.75 L 525.89 310.75 L 525.89 358.56 M 585.65 298.8 L 585.65 305.54 L 585.65 346.61 L 549.79 346.61 L 549.79 298.8 M 59.76 406.37 L 11.95 406.37 L 11.95 370.51 L 59.76 370.51 M 71.71 358.56 L 71.71 418.32 M 107.57 358.56 L 107.57 418.32 M 59.76 370.51 L 71.71 370.51 M 59.76 406.37 L 71.71 406.37 M 119.52 370.51 L 107.57 370.51 M 119.52 406.37 L 107.57 406.37 M 119.52 370.51 L 179.28 370.51 M 119.52 406.37 L 131.47 406.37 L 131.47 418.32 M 179.28 406.37 L 167.33 406.37 L 167.33 418.32 M 179.28 406.37 L 191.23 406.37 L 191.23 418.32 M 179.28 370.51 L 227.09 370.51 L 227.09 418.32 M 298.8 406.37 L 286.85 406.37 L 286.85 418.32 M 298.8 370.51 L 250.99 370.51 L 250.99 418.32 M 310.75 358.56 L 310.75 418.32 M 346.61 358.56 L 346.61 418.32 M 298.8 370.51 L 310.75 370.51 M 298.8 406.37 L 310.75 406.37 M 358.56 370.51 L 346.61 370.51 M 358.56 406.37 L 346.61 406.37 M 370.51 358.56 L 370.51 370.51 L 358.56 370.51 M 358.56 406.37 L 370.51 406.37 L 370.51 418.32 M 418.32 370.51 L 406.37 370.51 L 406.37 358.56 M 418.32 406.37 L 406.37 406.37 L 406.37 418.32 M 418.32 406.37 L 478.08 406.37 M 430.27 358.56 L 430.27 370.51 L 418.32 370.51 M 478.08 370.51 L 466.13 370.51 L 466.13 358.56 M 490.03 358.56 L 490.03 418.32 M 525.89 358.56 L 525.89 418.32 M 478.08 370.51 L 490.03 370.51 M 478.08 406.37 L 490.03 406.37 M 537.84 370.51 L 525.89 370.51 M 537.84 406.37 L 525.89 406.37 M 537.84 406.37 L 585.65 406.37 L 585.65 370.51 L 537.84 370.51 M 47.81 478.08 L 47.81 430.27 L 11.95 430.27 L 11.95 478.08 M 71.71 418.32 L 71.71 478.08 M 107.57 418.32 L 107.57 478.08 M 179.28 430.27 L 167.33 430.27 L 167.33 418.32 M 179.28 466.13 L 131.47 466.13 L 131.47 418.32 M 191.23 418.32 L 191.23 478.08 M 227.09 418.32 L 227.09 478.08 M 179.28 430.27 L 191.23 430.27 M 179.28 466.13 L 191.23 466.13 M 239.04 430.27 L 227.09 430.27 M 239.04 466.13 L 227.09 466.13 M 286.85 418.32 L 286.85 478.08 M 250.99 418.32 L 250.99 430.27 L 239.04 430.27 M 239.04 466.13 L 250.99 466.13 L 250.99 478.08 M 310.75 418.32 L 310.75 478.08 M 358.56 430.27 L 346.61 430.27 L 346.61 418.32 M 358.56 466.13 L 346.61 466.13 L 346.61 478.08 M 370.51 418.32 L 370.51 478.08 M 406.37 418.32 L 406.37 478.08 M 358.56 430.27 L 370.51 430.27 M 358.56 466.13 L 370.51 466.13 M 418.32 430.27 L 406.37 430.27 M 418.32 466.13 L 406.37 466.13 M 418.32 466.13 L 466.13 466.13 L 466.13 430.27 L 418.32 430.27 M 537.84 430.27 L 525.89 430.27 L 525.89 418.32 M 537.84 466.13 L 490.03 466.13 L 490.03 418.32 M 537.84 466.13 L 549.79 466.13 L 549.79 478.08 M 537.84 430.27 L 585.65 430.27 L 585.65 478.08 M 11.95 478.08 L 11.95 537.84 M 59.76 490.03 L 47.81 490.03 L 47.81 478.08 M 59.76 525.89 L 47.81 525.89 L 47.81 537.84 M 71.71 478.08 L 71.71 537.84 M 107.57 478.08 L 107.57 537.84 M 59.76 490.03 L 71.71 490.03 M 59.76 525.89 L 71.71 525.89 M 119.52 490.03 L 107.57 490.03 M 119.52 525.89 L 107.57 525.89 M 119.52 490.03 L 179.28 490.03 M 119.52 525.89 L 179.28 525.89 M 227.09 478.08 L 227.09 537.84 M 191.23 478.08 L 191.23 490.03 L 179.28 490.03 M 179.28 525.89 L 191.23 525.89 L 191.23 537.84 M 298.8 490.03 L 286.85 490.03 L 286.85 478.08 M 298.8 525.89 L 250.99 525.89 L 250.99 478.08 M 310.75 478.08 L 310.75 490.03 L 298.8 490.03 M 346.61 478.08 L 346.61 525.89 L 298.8 525.89 M 370.51 478.08 L 370.51 537.84 M 418.32 490.03 L 406.37 490.03 L 406.37 478.08 M 418.32 525.89 L 406.37 525.89 L 406.37 537.84 M 418.32 525.89 L 430.27 525.89 L 430.27 537.84 M 418.32 490.03 L 466.13 490.03 L 466.13 537.84 M 537.84 525.89 L 525.89 525.89 L 525.89 537.84 M 537.84 490.03 L 490.03 490.03 L 490.03 537.84 M 585.65 478.08 L 585.65 537.84 M 549.79 478.08 L 549.79 490.03 L 537.84 490.03 M 537.84 525.89 L 549.79 525.89 L 549.79 537.84 M 59.76 549.79 L 47.81 549.79 L 47.81 537.84 M 59.76 585.65 L 11.95 585.65 L 11.95 537.84 M 59.76 585.65 L 119.52 585.65 M 71.71 537.84 L 71.71 549.79 L 59.76 549.79 M 119.52 549.79 L 107.57 549.79 L 107.57 537.84 M 119.52 585.65 L 167.33 585.65 L 167.33 549.79 L 119.52 549.79 M 227.09 537.84 L 227.09 544.58 L 227.09 585.65 L 191.23 585.65 L 191.23 537.84 M 298.8 585.65 L 250.99 585.65 L 250.99 549.79 L 298.8 549.79 M 298.8 549.79 L 358.56 549.79 M 298.8 585.65 L 358.56 585.65 M 370.51 537.84 L 370.51 549.79 L 358.56 549.79 M 406.37 537.84 L 406.37 585.65 L 358.56 585.65 M 466.13 537.84 L 466.13 544.58 L 466.13 585.65 L 430.27 585.65 L 430.27 537.84 M 525.89 537.84 L 525.89 544.58 L 525.89 585.65 L 490.03 585.65 L 490.03 537.84 " /> <circle cx="29.88" cy="29.88" r="19.92" fill-opacity="1.0" stroke-opacity="0" fill="#E51919" /><circle cx="567.72" cy="567.72" r="19.92" fill-opacity="1.0" stroke-opacity="0" fill="#E51919" /> <path stroke-opacity="1.0" stroke-width="5" stroke="#E51919" d="M 29.88 29.88 L 59.76 29.88 M 59.76 29.88 L 119.52 29.88 M 119.52 29.88 L 149.4 29.88 L 149.4 59.76 M 179.28 149.4 L 149.4 149.4 L 149.4 119.52 M 149.4 59.76 L 149.4 119.52 M 239.04 149.4 L 298.8 149.4 M 179.28 149.4 L 191.23 149.4 M 239.04 149.4 L 227.09 149.4 M 358.56 149.4 L 418.32 149.4 M 298.8 149.4 L 358.56 149.4 M 507.96 119.52 L 507.96 149.4 L 478.08 149.4 M 418.32 149.4 L 478.08 149.4 M 478.08 89.64 L 507.96 89.64 L 507.96 119.52 M 478.08 89.64 L 448.2 89.64 L 448.2 119.52 M 448.2 179.28 L 448.2 239.04 M 448.2 119.52 L 448.2 131.47 M 448.2 179.28 L 448.2 167.33 M 448.2 239.04 L 448.2 298.8 M 448.2 358.56 L 448.2 388.44 L 418.32 388.44 M 448.2 298.8 L 448.2 310.75 M 448.2 358.56 L 448.2 346.61 M 418.32 388.44 L 388.44 388.44 L 388.44 358.56 M 418.32 328.68 L 388.44 328.68 L 388.44 358.56 M 478.08 328.68 L 507.96 328.68 L 507.96 358.56 M 418.32 328.68 L 478.08 328.68 M 537.84 448.2 L 507.96 448.2 L 507.96 418.32 M 507.96 358.56 L 507.96 418.32 M 537.84 448.2 L 567.72 448.2 L 567.72 478.08 M 567.72 537.84 L 567.72 567.72 M 567.72 478.08 L 567.72 537.84 " />  <path stroke-opacity="0.2" stroke-width="5" stroke="#E51919" d="M 29.88 29.88 L 59.76 29.88 M 191.23 149.4 L 209.16 149.4 M 227.09 149.4 L 209.16 149.4 M 448.2 131.47 L 448.2 149.4 M 448.2 167.33 L 448.2 149.4 M 448.2 310.75 L 448.2 328.68 M 448.2 346.61 L 448.2 328.68 M 567.72 537.84 L 567.72 567.72 " />   </svg>