<svg id="maze" xmlns="http://www.w3.org/2000/svg" viewBox="0 0 597.6 597.6"  width="597.6px" height="597.6px" stroke-width="2" fill-opacity="0.0" stroke="black"> <path stroke-opacity="1.0" stroke-width="2" stroke="#000000" d="M 107.57 59.76 L 107.57 11.95 L 71.71 11.95 L 71.71 59.76 M 179.28 47.81 L 131.47 47.81 L 131.47 11.95 L 179.28 11.95 M 179.28 47.81 L 191.23 47.81 L 191.23 59.76 M 179.28 11.95 L 227.09 11.95 L 227.09 59.76 M 286.85 59.76 L 286.85 11.95 L 250.99 11.95 L 250.99 59.76 M 346.61 59.76 L 346.61 11.95 L 310.75 11.95 L 310.75 59.76 M 418.32 47.81 L 406.37 47.81 L 406.37 59.76 M 418.32 11.95 L 370.51 11.95 L 370.51 59.76 M 418.32 47.81 L 430.27 47.81 L 430.27 59.76 M 418.32 11.95 L 466.13 11.95 L 466.13 59.76 M 537.84 47.81 L 525.89 47.81 L 525.89 59.76 M 537.84 11.95 L 490.03 11.95 L 490.03 59.76 M 537.84 47.81 L 585.65 47.81 L 585.65 11.95 L 537.84 11.95 M 59.76 71.71 L 47.81 71.71 L 47.81 59.76 M 59.76 107.57 L 11.95 107.57 L 11.95 59.76 M 71.71 59.76 L 71.71 119.52 M 107.57 59.76 L 107.57 119.52 M 59.76 71.71 L 71.71 71.71 M 59.76 107.57 L 71.71 107.57 M 119.52 71.71 L 107.57 71.71 M 119.52 107.57 L 107.57 107.57 M 119.52 71.71 L 179.28 71.71 M 119.52 107.57 L 179.28 107.57 M 191.23 59.76 L 191.23 119.52 M 227.09 59.76 L 227.09 119.52 M 179.28 71.71 L 191.23 71.71 M 179.28 107.57 L 191.23 107.57 M 239.04 71.71 L 227.09 71.71 M 239.04 107.57 L 227.09 107.57 M 250.99 59.76 L 250.99 71.71 L 239.04 71.71 M 239.04 107.57 L 250.99 107.57 L 250.99 119.52 M 298.8 71.71 L 286.85 71.71 L 286.85 59.76 M 298.8 107.57 L 286.85 107.57 L 286.85 119.52 M 298.8 107.57 L 358.56 107.57 M 310.75 59.76 L 310.75 71.71 L 298.8 71.71 M 358.56 71.71 L 346.61 71.71 L 346.61 59.76 M 358.56 71.71 L 418.32 71.71 M 358.56 107.57 L 418.32 107.57 M 370.51 59.76 L 370.51 71.71 M 406.37 59.76 L 406.37 71.71 M 370.51 107.57 L 370.51 119.52 M 406.37 107.57 L 406.37 119.52 M 418.32 107.57 L 478.08 107.57 M 430.27 59.76 L 430.27 71.71 L 418.32 71.71 M 478.08 71.71 L 466.13 71.71 L 466.13 59.76 M 525.89 59.76 L 525.89 119.52 M 490.03 59.76 L 490.03 71.71 L 478.08 71.71 M 478.08 107.57 L 490.03 107.57 L 490.03 119.52 M 585.65 119.52 L 585.65 71.71 L 549.79 71.71 L 549.79 119.52 M 59.76 167.33 L 47.81 167.33 L 47.81 179.28 M 59.76 131.47 L 11.95 131.47 L 11.95 179.28 M 71.71 119.52 L 71.71 131.47 L 59.76 131.47 M 107.57 119.52 L 107.57 167.33 L 59.76 167.33 M 167.33 179.28 L 167.33 131.47 L 131.47 131.47 L 131.47 179.28 M 191.23 119.52 L 191.23 179.28 M 239.04 131.47 L 227.09 131.47 L 227.09 119.52 M 239.04 167.33 L 227.09 167.33 L 227.09 179.28 M 250.99 119.52 L 250.99 131.47 L 239.04 131.47 M 286.85 119.52 L 286.85 167.33 L 239.04 167.33 M 346.61 179.28 L 346.61 131.47 L 310.75 131.47 L 310.75 179.28 M 418.32 131.47 L 406.37 131.47 L 406.37 119.52 M 418.32 167.33 L 370.51 167.33 L 370.51 119.52 M 418.32 131.47 L 478.08 131.47 M 418.32 167.33 L 430.27 167.33 L 430.27 179.28 M 478.08 167.33 L 466.13 167.33 L 466.13 179.28 M 478.08 131.47 L 537.84 131.47 M 478.08 167.33 L 537.84 167.33 M 490.03 119.52 L 490.03 131.47 M 525.89 119.52 L 525.89 131.47 M 490.03 167.33 L 490.03 179.28 M 525.89 167.33 L 525.89 179.28 M 585.65 119.52 L 585.65 179.28 M 549.79 119.52 L 549.79 131.47 L 537.84 131.47 M 537.84 167.33 L 549.79 167.33 L 549.79 179.28 M 11.95 179.28 L 11.95 239.04 M 59.76 191.23 L 47.81 191.23 L 47.81 179.28 M 59.76 227.09 L 47.81 227.09 L 47.81 239.04 M 59.76 191.23 L 119.52 191.23 M 59.76 227.09 L 71.71 227.09 L 71.71 239.04 M 119.52 227.09 L 107.57 227.09 L 107.57 239.04 M 119.52 227.09 L 179.28 227.09 M 131.47 179.28 L 131.47 191.23 L 119.52 191.23 M 179.28 191.23 L 167.33 191.23 L 167.33 179.28 M 179.28 191.23 L 239.04 191.23 M 179.28 227.09 L 239.04 227.09 M 191.23 179.28 L 191.23 191.23 M 227.09 179.28 L 227.09 191.23 M 191.23 227.09 L 191.23 239.04 M 227.09 227.09 L 227.09 239.04 M 239.04 191.23 L 298.8 191.23 M 239.04 227.09 L 250.99 227.09 L 250.99 239.04 M 298.8 227.09 L 286.85 227.09 L 286.85 239.04 M 298.8 191.23 L 358.56 191.23 M 298.8 227.09 L 358.56 227.09 M 310.75 179.28 L 310.75 191.23 M 346.61 179.28 L 346.61 191.23 M 310.75 227.09 L 310.75 239.04 M 346.61 227.09 L 346.61 239.04 M 358.56 227.09 L 370.51 227.09 L 370.51 239.04 M 358.56 191.23 L 406.37 191.23 L 406.37 239.04 M 430.27 179.28 L 430.27 239.04 M 466.13 179.28 L 466.13 239.04 M 525.89 179.28 L 525.89 186.02 L 525.89 227.09 L 490.03 227.09 L 490.03 179.28 M 549.79 179.28 L 549.79 239.04 M 585.65 179.28 L 585.65 239.04 M 47.81 239.04 L 47.81 245.78 L 47.81 286.85 L 11.95 286.85 L 11.95 239.04 M 107.57 239.04 L 107.57 245.78 L 107.57 286.85 L 71.71 286.85 L 71.71 239.04 M 167.33 298.8 L 167.33 250.99 L 131.47 250.99 L 131.47 298.8 M 227.09 239.04 L 227.09 245.78 L 227.09 286.85 L 191.23 286.85 L 191.23 239.04 M 286.85 239.04 L 286.85 245.78 L 286.85 286.85 L 250.99 286.85 L 250.99 239.04 M 310.75 239.04 L 310.75 298.8 M 358.56 250.99 L 346.61 250.99 L 346.61 239.04 M 358.56 286.85 L 346.61 286.85 L 346.61 298.8 M 370.51 239.04 L 370.51 250.99 L 358.56 250.99 M 358.56 286.85 L 370.51 286.85 L 370.51 298.8 M 418.32 250.99 L 406.37 250.99 L 406.37 239.04 M 418.32 286.85 L 406.37 286.85 L 406.37 298.8 M 430.27 239.04 L 430.27 298.8 M 466.13 239.04 L 466.13 298.8 M 418.32 250.99 L 430.27 250.99 M 418.32 286.85 L 430.27 286.85 M 478.08 250.99 L 466.13 250.99 M 478.08 286.85 L 466.13 286.85 M 478.08 286.85 L 490.03 286.85 L 490.03 298.8 M 478.08 250.99 L 525.89 250.99 L 525.89 298.8 M 585.65 239.04 L 585.65 245.78 L 585.65 286.85 L 549.79 286.85 L 549.79 239.04 M 59.76 346.61 L 11.95 346.61 L 11.95 310.75 L 59.76 310.75 M 59.76 310.75 L 119.52 310.75 M 59.76 346.61 L 71.71 346.61 L 71.71 358.56 M 119.52 346.61 L 107.57 346.61 L 107.57 358.56 M 119.52 310.75 L 179.28 310.75 M 119.52 346.61 L 179.28 346.61 M 131.47 298.8 L 131.47 310.75 M 167.33 298.8 L 167.33 310.75 M 131.47 346.61 L 131.47 358.56 M 167.33 346.61 L 167.33 358.56 M 179.28 346.61 L 227.09 346.61 L 227.09 310.75 L 179.28 310.75 M 298.8 346.61 L 286.85 346.61 L 286.85 358.56 M 298.8 310.75 L 250.99 310.75 L 250.99 358.56 M 298.8 346.61 L 358.56 346.61 M 310.75 298.8 L 310.75 310.75 L 298.8 310.75 M 358.56 310.75 L 346.61 310.75 L 346.61 298.8 M 358.56 310.75 L 418.32 310.75 M 358.56 346.61 L 418.32 346.61 M 370.51 298.8 L 370.51 310.75 M 406.37 298.8 L 406.37 310.75 M 370.51 346.61 L 370.51 358.56 M 406.37 346.61 L 406.37 358.56 M 430.27 298.8 L 430.27 310.75 L 418.32 310.75 M 466.13 298.8 L 466.13 346.61 L 418.32 346.61 M 490.03 298.8 L 490.03 358.56 M 525.89 298.8 L 525.89 358.56 M 585.65 358.56 L 585.65 310.75 L 549.79 310.75 L 549.79 358.56 M 59.76 406.37 L 11.95 406.37 L 11.95 370.51 L 59.76 370.51 M 71.71 358.56 L 71.71 418.32 M 107.57 358.56 L 107.57 418.32 M 59.76 370.51 L 71.71 370.51 M 59.76 406.37 L 71.71 406.37 M 119.52 370.51 L 107.57 370.51 M 119.52 406.37 L 107.57 406.37 M 167.33 358.56 L 167.33 418.32 M 131.47 358.56 L 131.47 370.51 L 119.52 370.51 M 119.52 406.37 L 131.47 406.37 L 131.47 418.32 M 239.04 406.37 L 191.23 406.37 L 191.23 370.51 L 239.04 370.51 M 250.99 358.56 L 250.99 370.51 L 239.04 370.51 M 286.85 358.56 L 286.85 406.37 L 239.04 406.37 M 358.56 406.37 L 310.75 406.37 L 310.75 370.51 L 358.56 370.51 M 370.51 358.56 L 370.51 370.51 L 358.56 370.51 M 358.56 406.37 L 370.51 406.37 L 370.51 418.32 M 418.32 370.51 L 406.37 370.51 L 406.37 358.56 M 418.32 406.37 L 406.37 406.37 L 406.37 418.32 M 418.32 406.37 L 466.13 406.37 L 466.13 370.51 L 418.32 370.51 M 490.03 358.56 L 490.03 418.32 M 537.84 370.51 L 525.89 370.51 L 525.89 358.56 M 537.84 406.37 L 525.89 406.37 L 525.89 418.32 M 585.65 358.56 L 585.65 418.32 M 549.79 358.56 L 549.79 370.51 L 537.84 370.51 M 537.84 406.37 L 549.79 406.37 L 549.79 418.32 M 47.81 478.08 L 47.81 430.27 L 11.95 430.27 L 11.95 478.08 M 71.71 418.32 L 71.71 478.08 M 119.52 430.27 L 107.57 430.27 L 107.57 418.32 M 119.52 466.13 L 107.57 466.13 L 107.57 478.08 M 131.47 418.32 L 131.47 478.08 M 167.33 418.32 L 167.33 478.08 M 119.52 430.27 L 131.47 430.27 M 119.52 466.13 L 131.47 466.13 M 179.28 430.27 L 167.33 430.27 M 179.28 466.13 L 167.33 466.13 M 179.28 430.27 L 239.04 430.27 M 179.28 466.13 L 191.23 466.13 L 191.23 478.08 M 239.04 466.13 L 227.09 466.13 L 227.09 478.08 M 239.04 466.13 L 286.85 466.13 L 286.85 430.27 L 239.04 430.27 M 358.56 466.13 L 310.75 466.13 L 310.75 430.27 L 358.56 430.27 M 370.51 418.32 L 370.51 478.08 M 406.37 418.32 L 406.37 478.08 M 358.56 430.27 L 370.51 430.27 M 358.56 466.13 L 370.51 466.13 M 418.32 430.27 L 406.37 430.27 M 418.32 466.13 L 406.37 466.13 M 418.32 466.13 L 430.27 466.13 L 430.27 478.08 M 418.32 430.27 L 466.13 430.27 L 466.13 478.08 M 490.03 418.32 L 490.03 478.08 M 525.89 418.32 L 525.89 478.08 M 585.65 418.32 L 585.65 425.06 L 585.65 466.13 L 549.79 466.13 L 549.79 418.32 M 11.95 478.08 L 11.95 537.84 M 59.76 490.03 L 47.81 490.03 L 47.81 478.08 M 59.76 525.89 L 47.81 525.89 L 47.81 537.84 M 71.71 478.08 L 71.71 537.84 M 107.57 478.08 L 107.57 537.84 M 59.76 490.03 L 71.71 490.03 M 59.76 525.89 L 71.71 525.89 M 119.52 490.03 L 107.57 490.03 M 119.52 525.89 L 107.57 525.89 M 131.47 478.08 L 131.47 490.03 L 119.52 490.03 M 119.52 525.89 L 131.47 525.89 L 131.47 537.84 M 179.28 490.03 L 167.33 490.03 L 167.33 478.08 M 179.28 525.89 L 167.33 525.89 L 167.33 537.84 M 179.28 490.03 L 239.04 490.03 M 179.28 525.89 L 239.04 525.89 M 191.23 478.08 L 191.23 490.03 M 227.09 478.08 L 227.09 490.03 M 191.23 525.89 L 191.23 537.84 M 227.09 525.89 L 227.09 537.84 M 239.04 490.03 L 298.8 490.03 M 239.04 525.89 L 298.8 525.89 M 298.8 490.03 L 358.56 490.03 M 298.8 525.89 L 310.75 525.89 L 310.75 537.84 M 358.56 525.89 L 346.61 525.89 L 346.61 537.84 M 370.51 478.08 L 370.51 490.03 L 358.56 490.03 M 358.56 525.89 L 370.51 525.89 L 370.51 537.84 M 418.32 490.03 L 406.37 490.03 L 406.37 478.08 M 418.32 525.89 L 406.37 525.89 L 406.37 537.84 M 430.27 478.08 L 430.27 490.03 L 418.32 490.03 M 418.32 525.89 L 430.27 525.89 L 430.27 537.84 M 478.08 490.03 L 466.13 490.03 L 466.13 478.08 M 478.08 525.89 L 466.13 525.89 L 466.13 537.84 M 490.03 478.08 L 490.03 537.84 M 525.89 478.08 L 525.89 537.84 M 478.08 490.03 L 490.03 490.03 M 478.08 525.89 L 490.03 525.89 M 537.84 490.03 L 525.89 490.03 M 537.84 525.89 L 525.89 525.89 M 537.84 525.89 L 585.65 525.89 L 585.65 490.03 L 537.84 490.03 M 59.76 549.79 L 47.81 549.79 L 47.81 537.84 M 59.76 585.65 L 11.95 585.65 L 11.95 537.84 M 71.71 537.84 L 71.71 549.79 L 59.76 549.79 M 107.57 537.84 L 107.57 585.65 L 59.76 585.65 M 167.33 537.84 L 167.33 544.58 L 167.33 585.65 L 131.47 585.65 L 131.47 537.84 M 239.04 549.79 L 227.09 549.79 L 227.09 537.84 M 239.04 585.65 L 191.23 585.65 L 191.23 537.84 M 239.04 585.65 L 286.85 585.65 L 286.85 549.79 L 239.04 549.79 M 346.61 537.84 L 346.61 544.58 L 346.61 585.65 L 310.75 585.65 L 310.75 537.84 M 406.37 537.84 L 406.37 544.58 L 406.37 585.65 L 370.51 585.65 L 370.51 537.84 M 466.13 537.84 L 466.13 544.58 L 466.13 585.65 L 430.27 585.65 L 430.27 537.84 M 537.84 549.79 L 525.89 549.79 L 525.89 537.84 M 537.84 585.65 L 490.03 585.65 L 490.03 537.84 " /> <circle cx="29.88" cy="29.88" r="19.92" fill-opacity="1.0" stroke-opacity="0" fill="#E51919" /><circle cx="567.72" cy="567.72" r="19.92" fill-opacity="1.0" stroke-opacity="0" fill="#E51919" />  </svg>