<svg id="maze" xmlns="http://www.w3.org/2000/svg" viewBox="0 0 597.6 597.6"  width="597.6px" height="597.6px" stroke-width="2" fill-opacity="0.0" stroke="black"> <path stroke-opacity="1.0" stroke-width="2" stroke="#000000" d="M 119.52 47.81 L 71.71 47.81 L 71.71 11.95 L 119.52 11.95 M 119.52 47.81 L 131.47 47.81 L 131.47 59.76 M 119.52 11.95 L 167.33 11.95 L 167.33 59.76 M 239.04 47.81 L 191.23 47.81 L 191.23 11.95 L 239.04 11.95 M 239.04 11.95 L 298.8 11.95 M 239.04 47.81 L 250.99 47.81 L 250.99 59.76 M 298.8 47.81 L 286.85 47.81 L 286.85 59.76 M 298.8 47.81 L 346.61 47.81 L 346.61 11.95 L 298.8 11.95 M 418.32 47.81 L 406.37 47.81 L 406.37 59.76 M 418.32 11.95 L 370.51 11.95 L 370.51 59.76 M 418.32 47.81 L 466.13 47.81 L 466.13 11.95 L 418.32 11.95 M 525.89 59.76 L 525.89 11.95 L 490.03 11.95 L 490.03 59.76 M 585.65 59.76 L 585.65 11.95 L 549.79 11.95 L 549.79 59.76 M 11.95 59.76 L 11.95 119.52 M 47.81 59.76 L 47.81 119.52 M 119.52 107.57 L 107.57 107.57 L 107.57 119.52 M 119.52 71.71 L 71.71 71.71 L 71.71 119.52 M 119.52 71.71 L 179.28 71.71 M 119.52 107.57 L 179.28 107.57 M 131.47 59.76 L 131.47 71.71 M 167.33 59.76 L 167.33 71.71 M 131.47 107.57 L 131.47 119.52 M 167.33 107.57 L 167.33 119.52 M 179.28 71.71 L 239.04 71.71 M 179.28 107.57 L 191.23 107.57 L 191.23 119.52 M 239.04 107.57 L 227.09 107.57 L 227.09 119.52 M 239.04 71.71 L 298.8 71.71 M 239.04 107.57 L 298.8 107.57 M 250.99 59.76 L 250.99 71.71 M 286.85 59.76 L 286.85 71.71 M 250.99 107.57 L 250.99 119.52 M 286.85 107.57 L 286.85 119.52 M 298.8 71.71 L 358.56 71.71 M 298.8 107.57 L 310.75 107.57 L 310.75 119.52 M 358.56 107.57 L 346.61 107.57 L 346.61 119.52 M 358.56 71.71 L 418.32 71.71 M 358.56 107.57 L 418.32 107.57 M 370.51 59.76 L 370.51 71.71 M 406.37 59.76 L 406.37 71.71 M 370.51 107.57 L 370.51 119.52 M 406.37 107.57 L 406.37 119.52 M 418.32 107.57 L 430.27 107.57 L 430.27 119.52 M 418.32 71.71 L 466.13 71.71 L 466.13 119.52 M 490.03 59.76 L 490.03 119.52 M 537.84 71.71 L 525.89 71.71 L 525.89 59.76 M 537.84 107.57 L 525.89 107.57 L 525.89 119.52 M 549.79 59.76 L 549.79 71.71 L 537.84 71.71 M 585.65 59.76 L 585.65 107.57 L 537.84 107.57 M 11.95 119.52 L 11.95 179.28 M 59.76 131.47 L 47.81 131.47 L 47.81 119.52 M 59.76 167.33 L 47.81 167.33 L 47.81 179.28 M 59.76 131.47 L 119.52 131.47 M 59.76 167.33 L 119.52 167.33 M 71.71 119.52 L 71.71 131.47 M 107.57 119.52 L 107.57 131.47 M 71.71 167.33 L 71.71 179.28 M 107.57 167.33 L 107.57 179.28 M 119.52 167.33 L 179.28 167.33 M 131.47 119.52 L 131.47 131.47 L 119.52 131.47 M 179.28 131.47 L 167.33 131.47 L 167.33 119.52 M 191.23 119.52 L 191.23 179.28 M 227.09 119.52 L 227.09 179.28 M 179.28 131.47 L 191.23 131.47 M 179.28 167.33 L 191.23 167.33 M 239.04 131.47 L 227.09 131.47 M 239.04 167.33 L 227.09 167.33 M 239.04 167.33 L 298.8 167.33 M 250.99 119.52 L 250.99 131.47 L 239.04 131.47 M 298.8 131.47 L 286.85 131.47 L 286.85 119.52 M 310.75 119.52 L 310.75 179.28 M 346.61 119.52 L 346.61 179.28 M 298.8 131.47 L 310.75 131.47 M 298.8 167.33 L 310.75 167.33 M 358.56 131.47 L 346.61 131.47 M 358.56 167.33 L 346.61 167.33 M 358.56 167.33 L 418.32 167.33 M 370.51 119.52 L 370.51 131.47 L 358.56 131.47 M 418.32 131.47 L 406.37 131.47 L 406.37 119.52 M 430.27 119.52 L 430.27 179.28 M 466.13 119.52 L 466.13 179.28 M 418.32 131.47 L 430.27 131.47 M 418.32 167.33 L 430.27 167.33 M 478.08 131.47 L 466.13 131.47 M 478.08 167.33 L 466.13 167.33 M 525.89 119.52 L 525.89 179.28 M 490.03 119.52 L 490.03 131.47 L 478.08 131.47 M 478.08 167.33 L 490.03 167.33 L 490.03 179.28 M 585.65 179.28 L 585.65 131.47 L 549.79 131.47 L 549.79 179.28 M 11.95 179.28 L 11.95 239.04 M 47.81 179.28 L 47.81 239.04 M 119.52 191.23 L 107.57 191.23 L 107.57 179.28 M 119.52 227.09 L 71.71 227.09 L 71.71 179.28 M 119.52 227.09 L 167.33 227.09 L 167.33 191.23 L 119.52 191.23 M 227.09 179.28 L 227.09 186.02 L 227.09 227.09 L 191.23 227.09 L 191.23 179.28 M 298.8 227.09 L 250.99 227.09 L 250.99 191.23 L 298.8 191.23 M 310.75 179.28 L 310.75 191.23 L 298.8 191.23 M 346.61 179.28 L 346.61 227.09 L 298.8 227.09 M 418.32 227.09 L 406.37 227.09 L 406.37 239.04 M 418.32 191.23 L 370.51 191.23 L 370.51 239.04 M 418.32 227.09 L 478.08 227.09 M 430.27 179.28 L 430.27 191.23 L 418.32 191.23 M 478.08 191.23 L 466.13 191.23 L 466.13 179.28 M 525.89 179.28 L 525.89 239.04 M 490.03 179.28 L 490.03 191.23 L 478.08 191.23 M 478.08 227.09 L 490.03 227.09 L 490.03 239.04 M 549.79 179.28 L 549.79 239.04 M 585.65 179.28 L 585.65 239.04 M 47.81 239.04 L 47.81 245.78 L 47.81 286.85 L 11.95 286.85 L 11.95 239.04 M 119.52 286.85 L 107.57 286.85 L 107.57 298.8 M 119.52 250.99 L 71.71 250.99 L 71.71 298.8 M 119.52 286.85 L 167.33 286.85 L 167.33 250.99 L 119.52 250.99 M 239.04 286.85 L 227.09 286.85 L 227.09 298.8 M 239.04 250.99 L 191.23 250.99 L 191.23 298.8 M 239.04 286.85 L 286.85 286.85 L 286.85 250.99 L 239.04 250.99 M 358.56 286.85 L 346.61 286.85 L 346.61 298.8 M 358.56 250.99 L 310.75 250.99 L 310.75 298.8 M 370.51 239.04 L 370.51 298.8 M 406.37 239.04 L 406.37 298.8 M 358.56 250.99 L 370.51 250.99 M 358.56 286.85 L 370.51 286.85 M 418.32 250.99 L 406.37 250.99 M 418.32 286.85 L 406.37 286.85 M 418.32 250.99 L 478.08 250.99 M 418.32 286.85 L 430.27 286.85 L 430.27 298.8 M 478.08 286.85 L 466.13 286.85 L 466.13 298.8 M 478.08 250.99 L 537.84 250.99 M 478.08 286.85 L 537.84 286.85 M 490.03 239.04 L 490.03 250.99 M 525.89 239.04 L 525.89 250.99 M 490.03 286.85 L 490.03 298.8 M 525.89 286.85 L 525.89 298.8 M 549.79 239.04 L 549.79 250.99 L 537.84 250.99 M 585.65 239.04 L 585.65 286.85 L 537.84 286.85 M 59.76 346.61 L 47.81 346.61 L 47.81 358.56 M 59.76 310.75 L 11.95 310.75 L 11.95 358.56 M 59.76 310.75 L 119.52 310.75 M 59.76 346.61 L 119.52 346.61 M 71.71 298.8 L 71.71 310.75 M 107.57 298.8 L 107.57 310.75 M 71.71 346.61 L 71.71 358.56 M 107.57 346.61 L 107.57 358.56 M 119.52 310.75 L 179.28 310.75 M 119.52 346.61 L 131.47 346.61 L 131.47 358.56 M 179.28 346.61 L 167.33 346.61 L 167.33 358.56 M 179.28 310.75 L 239.04 310.75 M 179.28 346.61 L 239.04 346.61 M 191.23 298.8 L 191.23 310.75 M 227.09 298.8 L 227.09 310.75 M 191.23 346.61 L 191.23 358.56 M 227.09 346.61 L 227.09 358.56 M 239.04 310.75 L 298.8 310.75 M 239.04 346.61 L 250.99 346.61 L 250.99 358.56 M 298.8 346.61 L 286.85 346.61 L 286.85 358.56 M 298.8 310.75 L 358.56 310.75 M 298.8 346.61 L 358.56 346.61 M 310.75 298.8 L 310.75 310.75 M 346.61 298.8 L 346.61 310.75 M 310.75 346.61 L 310.75 358.56 M 346.61 346.61 L 346.61 358.56 M 370.51 298.8 L 370.51 310.75 L 358.56 310.75 M 406.37 298.8 L 406.37 346.61 L 358.56 346.61 M 478.08 310.75 L 466.13 310.75 L 466.13 298.8 M 478.08 346.61 L 430.27 346.61 L 430.27 298.8 M 490.03 298.8 L 490.03 310.75 L 478.08 310.75 M 478.08 346.61 L 490.03 346.61 L 490.03 358.56 M 537.84 310.75 L 525.89 310.75 L 525.89 298.8 M 537.84 346.61 L 525.89 346.61 L 525.89 358.56 M 537.84 346.61 L 585.65 346.61 L 585.65 310.75 L 537.84 310.75 M 47.81 358.56 L 47.81 365.3 L 47.81 406.37 L 11.95 406.37 L 11.95 358.56 M 71.71 358.56 L 71.71 418.32 M 119.52 370.51 L 107.57 370.51 L 107.57 358.56 M 119.52 406.37 L 107.57 406.37 L 107.57 418.32 M 131.47 358.56 L 131.47 370.51 L 119.52 370.51 M 167.33 358.56 L 167.33 406.37 L 119.52 406.37 M 239.04 370.51 L 227.09 370.51 L 227.09 358.56 M 239.04 406.37 L 191.23 406.37 L 191.23 358.56 M 239.04 370.51 L 298.8 370.51 M 239.04 406.37 L 298.8 406.37 M 250.99 358.56 L 250.99 370.51 M 286.85 358.56 L 286.85 370.51 M 250.99 406.37 L 250.99 418.32 M 286.85 406.37 L 286.85 418.32 M 310.75 358.56 L 310.75 370.51 L 298.8 370.51 M 346.61 358.56 L 346.61 406.37 L 298.8 406.37 M 406.37 418.32 L 406.37 370.51 L 370.51 370.51 L 370.51 418.32 M 466.13 418.32 L 466.13 370.51 L 430.27 370.51 L 430.27 418.32 M 490.03 358.56 L 490.03 418.32 M 537.84 370.51 L 525.89 370.51 L 525.89 358.56 M 537.84 406.37 L 525.89 406.37 L 525.89 418.32 M 537.84 406.37 L 549.79 406.37 L 549.79 418.32 M 537.84 370.51 L 585.65 370.51 L 585.65 418.32 M 59.76 466.13 L 11.95 466.13 L 11.95 430.27 L 59.76 430.27 M 59.76 430.27 L 119.52 430.27 M 59.76 466.13 L 119.52 466.13 M 71.71 418.32 L 71.71 430.27 M 107.57 418.32 L 107.57 430.27 M 71.71 466.13 L 71.71 478.08 M 107.57 466.13 L 107.57 478.08 M 119.52 466.13 L 131.47 466.13 L 131.47 478.08 M 119.52 430.27 L 167.33 430.27 L 167.33 478.08 M 239.04 466.13 L 227.09 466.13 L 227.09 478.08 M 239.04 430.27 L 191.23 430.27 L 191.23 478.08 M 286.85 418.32 L 286.85 478.08 M 250.99 418.32 L 250.99 430.27 L 239.04 430.27 M 239.04 466.13 L 250.99 466.13 L 250.99 478.08 M 358.56 466.13 L 310.75 466.13 L 310.75 430.27 L 358.56 430.27 M 370.51 418.32 L 370.51 478.08 M 406.37 418.32 L 406.37 478.08 M 358.56 430.27 L 370.51 430.27 M 358.56 466.13 L 370.51 466.13 M 418.32 430.27 L 406.37 430.27 M 418.32 466.13 L 406.37 466.13 M 430.27 418.32 L 430.27 430.27 L 418.32 430.27 M 418.32 466.13 L 430.27 466.13 L 430.27 478.08 M 478.08 430.27 L 466.13 430.27 L 466.13 418.32 M 478.08 466.13 L 466.13 466.13 L 466.13 478.08 M 478.08 430.27 L 537.84 430.27 M 478.08 466.13 L 537.84 466.13 M 490.03 418.32 L 490.03 430.27 M 525.89 418.32 L 525.89 430.27 M 490.03 466.13 L 490.03 478.08 M 525.89 466.13 L 525.89 478.08 M 549.79 418.32 L 549.79 430.27 L 537.84 430.27 M 585.65 418.32 L 585.65 466.13 L 537.84 466.13 M 59.76 525.89 L 47.81 525.89 L 47.81 537.84 M 59.76 490.03 L 11.95 490.03 L 11.95 537.84 M 71.71 478.08 L 71.71 490.03 L 59.76 490.03 M 107.57 478.08 L 107.57 525.89 L 59.76 525.89 M 131.47 478.08 L 131.47 537.84 M 179.28 490.03 L 167.33 490.03 L 167.33 478.08 M 179.28 525.89 L 167.33 525.89 L 167.33 537.84 M 179.28 490.03 L 239.04 490.03 M 179.28 525.89 L 239.04 525.89 M 191.23 478.08 L 191.23 490.03 M 227.09 478.08 L 227.09 490.03 M 191.23 525.89 L 191.23 537.84 M 227.09 525.89 L 227.09 537.84 M 250.99 478.08 L 250.99 490.03 L 239.04 490.03 M 239.04 525.89 L 250.99 525.89 L 250.99 537.84 M 298.8 490.03 L 286.85 490.03 L 286.85 478.08 M 298.8 525.89 L 286.85 525.89 L 286.85 537.84 M 298.8 525.89 L 346.61 525.89 L 346.61 490.03 L 298.8 490.03 M 418.32 490.03 L 406.37 490.03 L 406.37 478.08 M 418.32 525.89 L 370.51 525.89 L 370.51 478.08 M 430.27 478.08 L 430.27 537.84 M 466.13 478.08 L 466.13 537.84 M 418.32 490.03 L 430.27 490.03 M 418.32 525.89 L 430.27 525.89 M 478.08 490.03 L 466.13 490.03 M 478.08 525.89 L 466.13 525.89 M 490.03 478.08 L 490.03 490.03 L 478.08 490.03 M 478.08 525.89 L 490.03 525.89 L 490.03 537.84 M 537.84 490.03 L 525.89 490.03 L 525.89 478.08 M 537.84 525.89 L 525.89 525.89 L 525.89 537.84 M 537.84 525.89 L 585.65 525.89 L 585.65 490.03 L 537.84 490.03 M 47.81 537.84 L 47.81 544.58 L 47.81 585.65 L 11.95 585.65 L 11.95 537.84 M 119.52 585.65 L 71.71 585.65 L 71.71 549.79 L 119.52 549.79 M 131.47 537.84 L 131.47 549.79 L 119.52 549.79 M 167.33 537.84 L 167.33 585.65 L 119.52 585.65 M 227.09 537.84 L 227.09 544.58 L 227.09 585.65 L 191.23 585.65 L 191.23 537.84 M 298.8 549.79 L 286.85 549.79 L 286.85 537.84 M 298.8 585.65 L 250.99 585.65 L 250.99 537.84 M 298.8 549.79 L 358.56 549.79 M 298.8 585.65 L 358.56 585.65 M 358.56 585.65 L 406.37 585.65 L 406.37 549.79 L 358.56 549.79 M 466.13 537.84 L 466.13 544.58 L 466.13 585.65 L 430.27 585.65 L 430.27 537.84 M 537.84 549.79 L 525.89 549.79 L 525.89 537.84 M 537.84 585.65 L 490.03 585.65 L 490.03 537.84 " /> <circle cx="29.88" cy="29.88" r="19.92" fill-opacity="1.0" stroke-opacity="0" fill="#E51919" /><circle cx="567.72" cy="567.72" r="19.92" fill-opacity="1.0" stroke-opacity="0" fill="#E51919" />  </svg>