<svg id="maze" xmlns="http://www.w3.org/2000/svg" viewBox="0 0 597.6 597.6"  width="597.6px" height="597.6px" stroke-width="2" fill-opacity="0.0" stroke="black"> <path stroke-opacity="1.0" stroke-width="2" stroke="#000000" d="M 59.76 47.81 L 71.71 47.81 L 71.71 59.76 M 59.76 11.95 L 107.57 11.95 L 107.57 59.76 M 179.28 47.81 L 131.47 47.81 L 131.47 11.95 L 179.28 11.95 M 179.28 11.95 L 239.04 11.95 M 179.28 47.81 L 191.23 47.81 L 191.23 59.76 M 239.04 47.81 L 227.09 47.81 L 227.09 59.76 M 239.04 47.81 L 286.85 47.81 L 286.85 11.95 L 239.04 11.95 M 346.61 59.76 L 346.61 11.95 L 310.75 11.95 L 310.75 59.76 M 418.32 47.81 L 370.51 47.81 L 370.51 11.95 L 418.32 11.95 M 418.32 11.95 L 478.08 11.95 M 418.32 47.81 L 478.08 47.81 M 478.08 47.81 L 490.03 47.81 L 490.03 59.76 M 478.08 11.95 L 525.89 11.95 L 525.89 59.76 M 585.65 59.76 L 585.65 11.95 L 549.79 11.95 L 549.79 59.76 M 59.76 107.57 L 11.95 107.57 L 11.95 71.71 L 59.76 71.71 M 59.76 71.71 L 119.52 71.71 M 59.76 107.57 L 119.52 107.57 M 71.71 59.76 L 71.71 71.71 M 107.57 59.76 L 107.57 71.71 M 71.71 107.57 L 71.71 119.52 M 107.57 107.57 L 107.57 119.52 M 119.52 71.71 L 179.28 71.71 M 119.52 107.57 L 131.47 107.57 L 131.47 119.52 M 179.28 107.57 L 167.33 107.57 L 167.33 119.52 M 191.23 59.76 L 191.23 119.52 M 227.09 59.76 L 227.09 119.52 M 179.28 71.71 L 191.23 71.71 M 179.28 107.57 L 191.23 107.57 M 239.04 71.71 L 227.09 71.71 M 239.04 107.57 L 227.09 107.57 M 239.04 71.71 L 298.8 71.71 M 239.04 107.57 L 298.8 107.57 M 346.61 59.76 L 346.61 119.52 M 310.75 59.76 L 310.75 71.71 L 298.8 71.71 M 298.8 107.57 L 310.75 107.57 L 310.75 119.52 M 406.37 119.52 L 406.37 71.71 L 370.51 71.71 L 370.51 119.52 M 478.08 107.57 L 466.13 107.57 L 466.13 119.52 M 478.08 71.71 L 430.27 71.71 L 430.27 119.52 M 478.08 71.71 L 537.84 71.71 M 478.08 107.57 L 537.84 107.57 M 490.03 59.76 L 490.03 71.71 M 525.89 59.76 L 525.89 71.71 M 490.03 107.57 L 490.03 119.52 M 525.89 107.57 L 525.89 119.52 M 585.65 59.76 L 585.65 119.52 M 549.79 59.76 L 549.79 71.71 L 537.84 71.71 M 537.84 107.57 L 549.79 107.57 L 549.79 119.52 M 59.76 167.33 L 47.81 167.33 L 47.81 179.28 M 59.76 131.47 L 11.95 131.47 L 11.95 179.28 M 107.57 119.52 L 107.57 179.28 M 71.71 119.52 L 71.71 131.47 L 59.76 131.47 M 59.76 167.33 L 71.71 167.33 L 71.71 179.28 M 131.47 119.52 L 131.47 179.28 M 179.28 131.47 L 167.33 131.47 L 167.33 119.52 M 179.28 167.33 L 167.33 167.33 L 167.33 179.28 M 227.09 119.52 L 227.09 179.28 M 191.23 119.52 L 191.23 131.47 L 179.28 131.47 M 179.28 167.33 L 191.23 167.33 L 191.23 179.28 M 298.8 167.33 L 286.85 167.33 L 286.85 179.28 M 298.8 131.47 L 250.99 131.47 L 250.99 179.28 M 310.75 119.52 L 310.75 131.47 L 298.8 131.47 M 346.61 119.52 L 346.61 167.33 L 298.8 167.33 M 370.51 119.52 L 370.51 179.28 M 406.37 119.52 L 406.37 179.28 M 466.13 119.52 L 466.13 126.26 L 466.13 167.33 L 430.27 167.33 L 430.27 119.52 M 490.03 119.52 L 490.03 179.28 M 525.89 119.52 L 525.89 179.28 M 549.79 119.52 L 549.79 179.28 M 585.65 119.52 L 585.65 179.28 M 11.95 179.28 L 11.95 239.04 M 47.81 179.28 L 47.81 239.04 M 119.52 191.23 L 107.57 191.23 L 107.57 179.28 M 119.52 227.09 L 71.71 227.09 L 71.71 179.28 M 167.33 179.28 L 167.33 239.04 M 131.47 179.28 L 131.47 191.23 L 119.52 191.23 M 119.52 227.09 L 131.47 227.09 L 131.47 239.04 M 239.04 191.23 L 227.09 191.23 L 227.09 179.28 M 239.04 227.09 L 191.23 227.09 L 191.23 179.28 M 250.99 179.28 L 250.99 239.04 M 286.85 179.28 L 286.85 239.04 M 239.04 191.23 L 250.99 191.23 M 239.04 227.09 L 250.99 227.09 M 298.8 191.23 L 286.85 191.23 M 298.8 227.09 L 286.85 227.09 M 298.8 191.23 L 358.56 191.23 M 298.8 227.09 L 358.56 227.09 M 358.56 191.23 L 418.32 191.23 M 358.56 227.09 L 418.32 227.09 M 370.51 179.28 L 370.51 191.23 M 406.37 179.28 L 406.37 191.23 M 370.51 227.09 L 370.51 239.04 M 406.37 227.09 L 406.37 239.04 M 418.32 191.23 L 478.08 191.23 M 418.32 227.09 L 430.27 227.09 L 430.27 239.04 M 478.08 227.09 L 466.13 227.09 L 466.13 239.04 M 490.03 179.28 L 490.03 191.23 L 478.08 191.23 M 525.89 179.28 L 525.89 227.09 L 478.08 227.09 M 549.79 179.28 L 549.79 239.04 M 585.65 179.28 L 585.65 239.04 M 47.81 239.04 L 47.81 245.78 L 47.81 286.85 L 11.95 286.85 L 11.95 239.04 M 107.57 298.8 L 107.57 250.99 L 71.71 250.99 L 71.71 298.8 M 167.33 239.04 L 167.33 245.78 L 167.33 286.85 L 131.47 286.85 L 131.47 239.04 M 239.04 286.85 L 191.23 286.85 L 191.23 250.99 L 239.04 250.99 M 250.99 239.04 L 250.99 250.99 L 239.04 250.99 M 286.85 239.04 L 286.85 286.85 L 239.04 286.85 M 346.61 298.8 L 346.61 250.99 L 310.75 250.99 L 310.75 298.8 M 370.51 239.04 L 370.51 298.8 M 418.32 250.99 L 406.37 250.99 L 406.37 239.04 M 418.32 286.85 L 406.37 286.85 L 406.37 298.8 M 430.27 239.04 L 430.27 298.8 M 466.13 239.04 L 466.13 298.8 M 418.32 250.99 L 430.27 250.99 M 418.32 286.85 L 430.27 286.85 M 478.08 250.99 L 466.13 250.99 M 478.08 286.85 L 466.13 286.85 M 478.08 250.99 L 537.84 250.99 M 478.08 286.85 L 537.84 286.85 M 549.79 239.04 L 549.79 250.99 L 537.84 250.99 M 585.65 239.04 L 585.65 286.85 L 537.84 286.85 M 59.76 346.61 L 11.95 346.61 L 11.95 310.75 L 59.76 310.75 M 59.76 310.75 L 119.52 310.75 M 59.76 346.61 L 119.52 346.61 M 71.71 298.8 L 71.71 310.75 M 107.57 298.8 L 107.57 310.75 M 71.71 346.61 L 71.71 358.56 M 107.57 346.61 L 107.57 358.56 M 119.52 346.61 L 131.47 346.61 L 131.47 358.56 M 119.52 310.75 L 167.33 310.75 L 167.33 358.56 M 227.09 358.56 L 227.09 310.75 L 191.23 310.75 L 191.23 358.56 M 298.8 346.61 L 286.85 346.61 L 286.85 358.56 M 298.8 310.75 L 250.99 310.75 L 250.99 358.56 M 298.8 346.61 L 358.56 346.61 M 310.75 298.8 L 310.75 310.75 L 298.8 310.75 M 358.56 310.75 L 346.61 310.75 L 346.61 298.8 M 358.56 310.75 L 418.32 310.75 M 358.56 346.61 L 418.32 346.61 M 370.51 298.8 L 370.51 310.75 M 406.37 298.8 L 406.37 310.75 M 370.51 346.61 L 370.51 358.56 M 406.37 346.61 L 406.37 358.56 M 430.27 298.8 L 430.27 310.75 L 418.32 310.75 M 466.13 298.8 L 466.13 346.61 L 418.32 346.61 M 525.89 358.56 L 525.89 310.75 L 490.03 310.75 L 490.03 358.56 M 585.65 358.56 L 585.65 310.75 L 549.79 310.75 L 549.79 358.56 M 59.76 406.37 L 11.95 406.37 L 11.95 370.51 L 59.76 370.51 M 71.71 358.56 L 71.71 370.51 L 59.76 370.51 M 59.76 406.37 L 71.71 406.37 L 71.71 418.32 M 119.52 370.51 L 107.57 370.51 L 107.57 358.56 M 119.52 406.37 L 107.57 406.37 L 107.57 418.32 M 119.52 370.51 L 179.28 370.51 M 119.52 406.37 L 179.28 406.37 M 131.47 358.56 L 131.47 370.51 M 167.33 358.56 L 167.33 370.51 M 131.47 406.37 L 131.47 418.32 M 167.33 406.37 L 167.33 418.32 M 191.23 358.56 L 191.23 370.51 L 179.28 370.51 M 179.28 406.37 L 191.23 406.37 L 191.23 418.32 M 239.04 370.51 L 227.09 370.51 L 227.09 358.56 M 239.04 406.37 L 227.09 406.37 L 227.09 418.32 M 239.04 370.51 L 298.8 370.51 M 239.04 406.37 L 298.8 406.37 M 250.99 358.56 L 250.99 370.51 M 286.85 358.56 L 286.85 370.51 M 250.99 406.37 L 250.99 418.32 M 286.85 406.37 L 286.85 418.32 M 298.8 406.37 L 310.75 406.37 L 310.75 418.32 M 298.8 370.51 L 346.61 370.51 L 346.61 418.32 M 370.51 358.56 L 370.51 418.32 M 418.32 370.51 L 406.37 370.51 L 406.37 358.56 M 418.32 406.37 L 406.37 406.37 L 406.37 418.32 M 418.32 370.51 L 478.08 370.51 M 418.32 406.37 L 478.08 406.37 M 478.08 370.51 L 537.84 370.51 M 478.08 406.37 L 537.84 406.37 M 490.03 358.56 L 490.03 370.51 M 525.89 358.56 L 525.89 370.51 M 490.03 406.37 L 490.03 418.32 M 525.89 406.37 L 525.89 418.32 M 549.79 358.56 L 549.79 370.51 L 537.84 370.51 M 585.65 358.56 L 585.65 406.37 L 537.84 406.37 M 59.76 466.13 L 11.95 466.13 L 11.95 430.27 L 59.76 430.27 M 71.71 418.32 L 71.71 478.08 M 107.57 418.32 L 107.57 478.08 M 59.76 430.27 L 71.71 430.27 M 59.76 466.13 L 71.71 466.13 M 119.52 430.27 L 107.57 430.27 M 119.52 466.13 L 107.57 466.13 M 131.47 418.32 L 131.47 430.27 L 119.52 430.27 M 119.52 466.13 L 131.47 466.13 L 131.47 478.08 M 179.28 430.27 L 167.33 430.27 L 167.33 418.32 M 179.28 466.13 L 167.33 466.13 L 167.33 478.08 M 191.23 418.32 L 191.23 430.27 L 179.28 430.27 M 227.09 418.32 L 227.09 466.13 L 179.28 466.13 M 298.8 430.27 L 286.85 430.27 L 286.85 418.32 M 298.8 466.13 L 250.99 466.13 L 250.99 418.32 M 310.75 418.32 L 310.75 478.08 M 346.61 418.32 L 346.61 478.08 M 298.8 430.27 L 310.75 430.27 M 298.8 466.13 L 310.75 466.13 M 358.56 430.27 L 346.61 430.27 M 358.56 466.13 L 346.61 466.13 M 406.37 418.32 L 406.37 478.08 M 370.51 418.32 L 370.51 430.27 L 358.56 430.27 M 358.56 466.13 L 370.51 466.13 L 370.51 478.08 M 478.08 466.13 L 430.27 466.13 L 430.27 430.27 L 478.08 430.27 M 525.89 418.32 L 525.89 478.08 M 490.03 418.32 L 490.03 430.27 L 478.08 430.27 M 478.08 466.13 L 490.03 466.13 L 490.03 478.08 M 585.65 478.08 L 585.65 430.27 L 549.79 430.27 L 549.79 478.08 M 59.76 525.89 L 47.81 525.89 L 47.81 537.84 M 59.76 490.03 L 11.95 490.03 L 11.95 537.84 M 59.76 525.89 L 119.52 525.89 M 71.71 478.08 L 71.71 490.03 L 59.76 490.03 M 119.52 490.03 L 107.57 490.03 L 107.57 478.08 M 131.47 478.08 L 131.47 537.84 M 167.33 478.08 L 167.33 537.84 M 119.52 490.03 L 131.47 490.03 M 119.52 525.89 L 131.47 525.89 M 179.28 490.03 L 167.33 490.03 M 179.28 525.89 L 167.33 525.89 M 179.28 525.89 L 227.09 525.89 L 227.09 490.03 L 179.28 490.03 M 286.85 537.84 L 286.85 490.03 L 250.99 490.03 L 250.99 537.84 M 310.75 478.08 L 310.75 537.84 M 358.56 490.03 L 346.61 490.03 L 346.61 478.08 M 358.56 525.89 L 346.61 525.89 L 346.61 537.84 M 370.51 478.08 L 370.51 537.84 M 406.37 478.08 L 406.37 537.84 M 358.56 490.03 L 370.51 490.03 M 358.56 525.89 L 370.51 525.89 M 418.32 490.03 L 406.37 490.03 M 418.32 525.89 L 406.37 525.89 M 418.32 490.03 L 478.08 490.03 M 418.32 525.89 L 430.27 525.89 L 430.27 537.84 M 478.08 525.89 L 466.13 525.89 L 466.13 537.84 M 478.08 490.03 L 537.84 490.03 M 478.08 525.89 L 537.84 525.89 M 490.03 478.08 L 490.03 490.03 M 525.89 478.08 L 525.89 490.03 M 490.03 525.89 L 490.03 537.84 M 525.89 525.89 L 525.89 537.84 M 585.65 478.08 L 585.65 537.84 M 549.79 478.08 L 549.79 490.03 L 537.84 490.03 M 537.84 525.89 L 549.79 525.89 L 549.79 537.84 M 59.76 549.79 L 47.81 549.79 L 47.81 537.84 M 59.76 585.65 L 11.95 585.65 L 11.95 537.84 M 59.76 585.65 L 107.57 585.65 L 107.57 549.79 L 59.76 549.79 M 179.28 549.79 L 167.33 549.79 L 167.33 537.84 M 179.28 585.65 L 131.47 585.65 L 131.47 537.84 M 179.28 585.65 L 227.09 585.65 L 227.09 549.79 L 179.28 549.79 M 298.8 549.79 L 286.85 549.79 L 286.85 537.84 M 298.8 585.65 L 250.99 585.65 L 250.99 537.84 M 310.75 537.84 L 310.75 549.79 L 298.8 549.79 M 346.61 537.84 L 346.61 585.65 L 298.8 585.65 M 418.32 549.79 L 406.37 549.79 L 406.37 537.84 M 418.32 585.65 L 370.51 585.65 L 370.51 537.84 M 430.27 537.84 L 430.27 549.79 L 418.32 549.79 M 466.13 537.84 L 466.13 585.65 L 418.32 585.65 M 537.84 549.79 L 525.89 549.79 L 525.89 537.84 M 537.84 585.65 L 490.03 585.65 L 490.03 537.84 " /> <circle cx="29.88" cy="29.88" r="19.92" fill-opacity="1.0" stroke-opacity="0" fill="#E51919" /><circle cx="567.72" cy="567.72" r="19.92" fill-opacity="1.0" stroke-opacity="0" fill="#E51919" />  </svg>