<svg id="maze" xmlns="http://www.w3.org/2000/svg" viewBox="0 0 597.6 597.6"  width="597.6px" height="597.6px" stroke-width="2" fill-opacity="0.0" stroke="black"> <path stroke-opacity="1.0" stroke-width="2" stroke="#000000" d="M 119.52 47.81 L 107.57 47.81 L 107.57 59.76 M 119.52 11.95 L 71.71 11.95 L 71.71 59.76 M 119.52 11.95 L 179.28 11.95 M 119.52 47.81 L 131.47 47.81 L 131.47 59.76 M 179.28 47.81 L 167.33 47.81 L 167.33 59.76 M 179.28 47.81 L 227.09 47.81 L 227.09 11.95 L 179.28 11.95 M 298.8 47.81 L 286.85 47.81 L 286.85 59.76 M 298.8 11.95 L 250.99 11.95 L 250.99 59.76 M 298.8 11.95 L 358.56 11.95 M 298.8 47.81 L 358.56 47.81 M 358.56 11.95 L 418.32 11.95 M 358.56 47.81 L 418.32 47.81 M 418.32 47.81 L 430.27 47.81 L 430.27 59.76 M 418.32 11.95 L 466.13 11.95 L 466.13 59.76 M 537.84 47.81 L 525.89 47.81 L 525.89 59.76 M 537.84 11.95 L 490.03 11.95 L 490.03 59.76 M 537.84 47.81 L 585.65 47.81 L 585.65 11.95 L 537.84 11.95 M 59.76 71.71 L 47.81 71.71 L 47.81 59.76 M 59.76 107.57 L 11.95 107.57 L 11.95 59.76 M 59.76 71.71 L 119.52 71.71 M 59.76 107.57 L 119.52 107.57 M 71.71 59.76 L 71.71 71.71 M 107.57 59.76 L 107.57 71.71 M 71.71 107.57 L 71.71 119.52 M 107.57 107.57 L 107.57 119.52 M 167.33 59.76 L 167.33 119.52 M 131.47 59.76 L 131.47 71.71 L 119.52 71.71 M 119.52 107.57 L 131.47 107.57 L 131.47 119.52 M 239.04 107.57 L 227.09 107.57 L 227.09 119.52 M 239.04 71.71 L 191.23 71.71 L 191.23 119.52 M 239.04 71.71 L 298.8 71.71 M 239.04 107.57 L 298.8 107.57 M 250.99 59.76 L 250.99 71.71 M 286.85 59.76 L 286.85 71.71 M 250.99 107.57 L 250.99 119.52 M 286.85 107.57 L 286.85 119.52 M 298.8 71.71 L 358.56 71.71 M 298.8 107.57 L 358.56 107.57 M 358.56 71.71 L 418.32 71.71 M 358.56 107.57 L 370.51 107.57 L 370.51 119.52 M 418.32 107.57 L 406.37 107.57 L 406.37 119.52 M 430.27 59.76 L 430.27 119.52 M 466.13 59.76 L 466.13 119.52 M 418.32 71.71 L 430.27 71.71 M 418.32 107.57 L 430.27 107.57 M 478.08 71.71 L 466.13 71.71 M 478.08 107.57 L 466.13 107.57 M 490.03 59.76 L 490.03 71.71 L 478.08 71.71 M 478.08 107.57 L 490.03 107.57 L 490.03 119.52 M 537.84 71.71 L 525.89 71.71 L 525.89 59.76 M 537.84 107.57 L 525.89 107.57 L 525.89 119.52 M 537.84 107.57 L 549.79 107.57 L 549.79 119.52 M 537.84 71.71 L 585.65 71.71 L 585.65 119.52 M 59.76 167.33 L 11.95 167.33 L 11.95 131.47 L 59.76 131.47 M 71.71 119.52 L 71.71 131.47 L 59.76 131.47 M 107.57 119.52 L 107.57 167.33 L 59.76 167.33 M 179.28 131.47 L 167.33 131.47 L 167.33 119.52 M 179.28 167.33 L 131.47 167.33 L 131.47 119.52 M 191.23 119.52 L 191.23 179.28 M 227.09 119.52 L 227.09 179.28 M 179.28 131.47 L 191.23 131.47 M 179.28 167.33 L 191.23 167.33 M 239.04 131.47 L 227.09 131.47 M 239.04 167.33 L 227.09 167.33 M 250.99 119.52 L 250.99 131.47 L 239.04 131.47 M 286.85 119.52 L 286.85 167.33 L 239.04 167.33 M 358.56 167.33 L 346.61 167.33 L 346.61 179.28 M 358.56 131.47 L 310.75 131.47 L 310.75 179.28 M 358.56 131.47 L 418.32 131.47 M 358.56 167.33 L 418.32 167.33 M 370.51 119.52 L 370.51 131.47 M 406.37 119.52 L 406.37 131.47 M 370.51 167.33 L 370.51 179.28 M 406.37 167.33 L 406.37 179.28 M 418.32 167.33 L 478.08 167.33 M 430.27 119.52 L 430.27 131.47 L 418.32 131.47 M 478.08 131.47 L 466.13 131.47 L 466.13 119.52 M 490.03 119.52 L 490.03 179.28 M 525.89 119.52 L 525.89 179.28 M 478.08 131.47 L 490.03 131.47 M 478.08 167.33 L 490.03 167.33 M 537.84 131.47 L 525.89 131.47 M 537.84 167.33 L 525.89 167.33 M 585.65 119.52 L 585.65 179.28 M 549.79 119.52 L 549.79 131.47 L 537.84 131.47 M 537.84 167.33 L 549.79 167.33 L 549.79 179.28 M 59.76 227.09 L 11.95 227.09 L 11.95 191.23 L 59.76 191.23 M 59.76 227.09 L 71.71 227.09 L 71.71 239.04 M 59.76 191.23 L 107.57 191.23 L 107.57 239.04 M 167.33 239.04 L 167.33 191.23 L 131.47 191.23 L 131.47 239.04 M 191.23 179.28 L 191.23 239.04 M 227.09 179.28 L 227.09 239.04 M 286.85 239.04 L 286.85 191.23 L 250.99 191.23 L 250.99 239.04 M 346.61 179.28 L 346.61 186.02 L 346.61 227.09 L 310.75 227.09 L 310.75 179.28 M 370.51 179.28 L 370.51 239.04 M 406.37 179.28 L 406.37 239.04 M 466.13 239.04 L 466.13 191.23 L 430.27 191.23 L 430.27 239.04 M 490.03 179.28 L 490.03 239.04 M 525.89 179.28 L 525.89 239.04 M 585.65 179.28 L 585.65 186.02 L 585.65 227.09 L 549.79 227.09 L 549.79 179.28 M 59.76 286.85 L 11.95 286.85 L 11.95 250.99 L 59.76 250.99 M 59.76 286.85 L 119.52 286.85 M 71.71 239.04 L 71.71 250.99 L 59.76 250.99 M 119.52 250.99 L 107.57 250.99 L 107.57 239.04 M 131.47 239.04 L 131.47 298.8 M 167.33 239.04 L 167.33 298.8 M 119.52 250.99 L 131.47 250.99 M 119.52 286.85 L 131.47 286.85 M 179.28 250.99 L 167.33 250.99 M 179.28 286.85 L 167.33 286.85 M 179.28 286.85 L 239.04 286.85 M 191.23 239.04 L 191.23 250.99 L 179.28 250.99 M 239.04 250.99 L 227.09 250.99 L 227.09 239.04 M 250.99 239.04 L 250.99 298.8 M 286.85 239.04 L 286.85 298.8 M 239.04 250.99 L 250.99 250.99 M 239.04 286.85 L 250.99 286.85 M 298.8 250.99 L 286.85 250.99 M 298.8 286.85 L 286.85 286.85 M 298.8 250.99 L 358.56 250.99 M 298.8 286.85 L 310.75 286.85 L 310.75 298.8 M 358.56 286.85 L 346.61 286.85 L 346.61 298.8 M 370.51 239.04 L 370.51 298.8 M 406.37 239.04 L 406.37 298.8 M 358.56 250.99 L 370.51 250.99 M 358.56 286.85 L 370.51 286.85 M 418.32 250.99 L 406.37 250.99 M 418.32 286.85 L 406.37 286.85 M 418.32 286.85 L 478.08 286.85 M 430.27 239.04 L 430.27 250.99 L 418.32 250.99 M 478.08 250.99 L 466.13 250.99 L 466.13 239.04 M 478.08 250.99 L 537.84 250.99 M 478.08 286.85 L 537.84 286.85 M 490.03 239.04 L 490.03 250.99 M 525.89 239.04 L 525.89 250.99 M 490.03 286.85 L 490.03 298.8 M 525.89 286.85 L 525.89 298.8 M 537.84 286.85 L 549.79 286.85 L 549.79 298.8 M 537.84 250.99 L 585.65 250.99 L 585.65 298.8 M 47.81 358.56 L 47.81 310.75 L 11.95 310.75 L 11.95 358.56 M 107.57 358.56 L 107.57 310.75 L 71.71 310.75 L 71.71 358.56 M 179.28 310.75 L 167.33 310.75 L 167.33 298.8 M 179.28 346.61 L 131.47 346.61 L 131.47 298.8 M 179.28 310.75 L 239.04 310.75 M 179.28 346.61 L 239.04 346.61 M 250.99 298.8 L 250.99 310.75 L 239.04 310.75 M 239.04 346.61 L 250.99 346.61 L 250.99 358.56 M 298.8 310.75 L 286.85 310.75 L 286.85 298.8 M 298.8 346.61 L 286.85 346.61 L 286.85 358.56 M 298.8 310.75 L 358.56 310.75 M 298.8 346.61 L 358.56 346.61 M 310.75 298.8 L 310.75 310.75 M 346.61 298.8 L 346.61 310.75 M 310.75 346.61 L 310.75 358.56 M 346.61 346.61 L 346.61 358.56 M 406.37 298.8 L 406.37 358.56 M 370.51 298.8 L 370.51 310.75 L 358.56 310.75 M 358.56 346.61 L 370.51 346.61 L 370.51 358.56 M 478.08 346.61 L 430.27 346.61 L 430.27 310.75 L 478.08 310.75 M 525.89 298.8 L 525.89 358.56 M 490.03 298.8 L 490.03 310.75 L 478.08 310.75 M 478.08 346.61 L 490.03 346.61 L 490.03 358.56 M 585.65 298.8 L 585.65 305.54 L 585.65 346.61 L 549.79 346.61 L 549.79 298.8 M 59.76 370.51 L 47.81 370.51 L 47.81 358.56 M 59.76 406.37 L 11.95 406.37 L 11.95 358.56 M 107.57 358.56 L 107.57 418.32 M 71.71 358.56 L 71.71 370.51 L 59.76 370.51 M 59.76 406.37 L 71.71 406.37 L 71.71 418.32 M 179.28 406.37 L 167.33 406.37 L 167.33 418.32 M 179.28 370.51 L 131.47 370.51 L 131.47 418.32 M 179.28 370.51 L 239.04 370.51 M 179.28 406.37 L 239.04 406.37 M 239.04 370.51 L 298.8 370.51 M 239.04 406.37 L 298.8 406.37 M 250.99 358.56 L 250.99 370.51 M 286.85 358.56 L 286.85 370.51 M 250.99 406.37 L 250.99 418.32 M 286.85 406.37 L 286.85 418.32 M 298.8 406.37 L 358.56 406.37 M 310.75 358.56 L 310.75 370.51 L 298.8 370.51 M 358.56 370.51 L 346.61 370.51 L 346.61 358.56 M 358.56 370.51 L 418.32 370.51 M 358.56 406.37 L 418.32 406.37 M 370.51 358.56 L 370.51 370.51 M 406.37 358.56 L 406.37 370.51 M 370.51 406.37 L 370.51 418.32 M 406.37 406.37 L 406.37 418.32 M 418.32 370.51 L 478.08 370.51 M 418.32 406.37 L 430.27 406.37 L 430.27 418.32 M 478.08 406.37 L 466.13 406.37 L 466.13 418.32 M 490.03 358.56 L 490.03 418.32 M 525.89 358.56 L 525.89 418.32 M 478.08 370.51 L 490.03 370.51 M 478.08 406.37 L 490.03 406.37 M 537.84 370.51 L 525.89 370.51 M 537.84 406.37 L 525.89 406.37 M 537.84 406.37 L 585.65 406.37 L 585.65 370.51 L 537.84 370.51 M 59.76 466.13 L 11.95 466.13 L 11.95 430.27 L 59.76 430.27 M 59.76 466.13 L 119.52 466.13 M 71.71 418.32 L 71.71 430.27 L 59.76 430.27 M 119.52 430.27 L 107.57 430.27 L 107.57 418.32 M 167.33 418.32 L 167.33 478.08 M 131.47 418.32 L 131.47 430.27 L 119.52 430.27 M 119.52 466.13 L 131.47 466.13 L 131.47 478.08 M 239.04 466.13 L 191.23 466.13 L 191.23 430.27 L 239.04 430.27 M 250.99 418.32 L 250.99 430.27 L 239.04 430.27 M 286.85 418.32 L 286.85 466.13 L 239.04 466.13 M 346.61 478.08 L 346.61 430.27 L 310.75 430.27 L 310.75 478.08 M 370.51 418.32 L 370.51 478.08 M 406.37 418.32 L 406.37 478.08 M 430.27 418.32 L 430.27 478.08 M 466.13 418.32 L 466.13 478.08 M 525.89 418.32 L 525.89 425.06 L 525.89 466.13 L 490.03 466.13 L 490.03 418.32 M 585.65 478.08 L 585.65 430.27 L 549.79 430.27 L 549.79 478.08 M 59.76 525.89 L 47.81 525.89 L 47.81 537.84 M 59.76 490.03 L 11.95 490.03 L 11.95 537.84 M 59.76 490.03 L 119.52 490.03 M 59.76 525.89 L 119.52 525.89 M 119.52 490.03 L 179.28 490.03 M 119.52 525.89 L 179.28 525.89 M 131.47 478.08 L 131.47 490.03 M 167.33 478.08 L 167.33 490.03 M 131.47 525.89 L 131.47 537.84 M 167.33 525.89 L 167.33 537.84 M 179.28 490.03 L 239.04 490.03 M 179.28 525.89 L 239.04 525.89 M 239.04 490.03 L 298.8 490.03 M 239.04 525.89 L 298.8 525.89 M 298.8 490.03 L 358.56 490.03 M 298.8 525.89 L 358.56 525.89 M 310.75 478.08 L 310.75 490.03 M 346.61 478.08 L 346.61 490.03 M 310.75 525.89 L 310.75 537.84 M 346.61 525.89 L 346.61 537.84 M 370.51 478.08 L 370.51 490.03 L 358.56 490.03 M 358.56 525.89 L 370.51 525.89 L 370.51 537.84 M 418.32 490.03 L 406.37 490.03 L 406.37 478.08 M 418.32 525.89 L 406.37 525.89 L 406.37 537.84 M 430.27 478.08 L 430.27 537.84 M 466.13 478.08 L 466.13 537.84 M 418.32 490.03 L 430.27 490.03 M 418.32 525.89 L 430.27 525.89 M 478.08 490.03 L 466.13 490.03 M 478.08 525.89 L 466.13 525.89 M 478.08 490.03 L 537.84 490.03 M 478.08 525.89 L 537.84 525.89 M 549.79 478.08 L 549.79 490.03 L 537.84 490.03 M 585.65 478.08 L 585.65 525.89 L 537.84 525.89 M 47.81 537.84 L 47.81 544.58 L 47.81 585.65 L 11.95 585.65 L 11.95 537.84 M 119.52 585.65 L 71.71 585.65 L 71.71 549.79 L 119.52 549.79 M 119.52 585.65 L 179.28 585.65 M 131.47 537.84 L 131.47 549.79 L 119.52 549.79 M 179.28 549.79 L 167.33 549.79 L 167.33 537.84 M 179.28 549.79 L 239.04 549.79 M 179.28 585.65 L 239.04 585.65 M 239.04 549.79 L 298.8 549.79 M 239.04 585.65 L 298.8 585.65 M 310.75 537.84 L 310.75 549.79 L 298.8 549.79 M 346.61 537.84 L 346.61 585.65 L 298.8 585.65 M 406.37 537.84 L 406.37 544.58 L 406.37 585.65 L 370.51 585.65 L 370.51 537.84 M 478.08 549.79 L 466.13 549.79 L 466.13 537.84 M 478.08 585.65 L 430.27 585.65 L 430.27 537.84 M 478.08 549.79 L 537.84 549.79 M 478.08 585.65 L 537.84 585.65 " /> <circle cx="29.88" cy="29.88" r="19.92" fill-opacity="1.0" stroke-opacity="0" fill="#E51919" /><circle cx="567.72" cy="567.72" r="19.92" fill-opacity="1.0" stroke-opacity="0" fill="#E51919" />  </svg>