<svg id="maze" xmlns="http://www.w3.org/2000/svg" viewBox="0 0 597.6 597.6"  width="597.6px" height="597.6px" stroke-width="2" fill-opacity="0.0" stroke="black"> <path stroke-opacity="1.0" stroke-width="2" stroke="#000000" d="M 59.76 47.81 L 71.71 47.81 L 71.71 59.76 M 59.76 11.95 L 107.57 11.95 L 107.57 59.76 M 167.33 59.76 L 167.33 11.95 L 131.47 11.95 L 131.47 59.76 M 239.04 47.81 L 227.09 47.81 L 227.09 59.76 M 239.04 11.95 L 191.23 11.95 L 191.23 59.76 M 239.04 47.81 L 286.85 47.81 L 286.85 11.95 L 239.04 11.95 M 346.61 59.76 L 346.61 11.95 L 310.75 11.95 L 310.75 59.76 M 418.32 47.81 L 370.51 47.81 L 370.51 11.95 L 418.32 11.95 M 418.32 11.95 L 478.08 11.95 M 418.32 47.81 L 430.27 47.81 L 430.27 59.76 M 478.08 47.81 L 466.13 47.81 L 466.13 59.76 M 478.08 11.95 L 537.84 11.95 M 478.08 47.81 L 490.03 47.81 L 490.03 59.76 M 537.84 47.81 L 525.89 47.81 L 525.89 59.76 M 537.84 47.81 L 585.65 47.81 L 585.65 11.95 L 537.84 11.95 M 59.76 107.57 L 11.95 107.57 L 11.95 71.71 L 59.76 71.71 M 59.76 71.71 L 119.52 71.71 M 59.76 107.57 L 119.52 107.57 M 71.71 59.76 L 71.71 71.71 M 107.57 59.76 L 107.57 71.71 M 71.71 107.57 L 71.71 119.52 M 107.57 107.57 L 107.57 119.52 M 167.33 59.76 L 167.33 119.52 M 131.47 59.76 L 131.47 71.71 L 119.52 71.71 M 119.52 107.57 L 131.47 107.57 L 131.47 119.52 M 191.23 59.76 L 191.23 119.52 M 227.09 59.76 L 227.09 119.52 M 298.8 107.57 L 286.85 107.57 L 286.85 119.52 M 298.8 71.71 L 250.99 71.71 L 250.99 119.52 M 310.75 59.76 L 310.75 119.52 M 346.61 59.76 L 346.61 119.52 M 298.8 71.71 L 310.75 71.71 M 298.8 107.57 L 310.75 107.57 M 358.56 71.71 L 346.61 71.71 M 358.56 107.57 L 346.61 107.57 M 358.56 107.57 L 370.51 107.57 L 370.51 119.52 M 358.56 71.71 L 406.37 71.71 L 406.37 119.52 M 430.27 59.76 L 430.27 119.52 M 478.08 71.71 L 466.13 71.71 L 466.13 59.76 M 478.08 107.57 L 466.13 107.57 L 466.13 119.52 M 478.08 71.71 L 537.84 71.71 M 478.08 107.57 L 537.84 107.57 M 490.03 59.76 L 490.03 71.71 M 525.89 59.76 L 525.89 71.71 M 490.03 107.57 L 490.03 119.52 M 525.89 107.57 L 525.89 119.52 M 537.84 107.57 L 585.65 107.57 L 585.65 71.71 L 537.84 71.71 M 59.76 167.33 L 47.81 167.33 L 47.81 179.28 M 59.76 131.47 L 11.95 131.47 L 11.95 179.28 M 59.76 167.33 L 119.52 167.33 M 71.71 119.52 L 71.71 131.47 L 59.76 131.47 M 119.52 131.47 L 107.57 131.47 L 107.57 119.52 M 131.47 119.52 L 131.47 179.28 M 167.33 119.52 L 167.33 179.28 M 119.52 131.47 L 131.47 131.47 M 119.52 167.33 L 131.47 167.33 M 179.28 131.47 L 167.33 131.47 M 179.28 167.33 L 167.33 167.33 M 227.09 119.52 L 227.09 179.28 M 191.23 119.52 L 191.23 131.47 L 179.28 131.47 M 179.28 167.33 L 191.23 167.33 L 191.23 179.28 M 286.85 119.52 L 286.85 126.26 L 286.85 167.33 L 250.99 167.33 L 250.99 119.52 M 310.75 119.52 L 310.75 179.28 M 346.61 119.52 L 346.61 179.28 M 418.32 131.47 L 406.37 131.47 L 406.37 119.52 M 418.32 167.33 L 370.51 167.33 L 370.51 119.52 M 430.27 119.52 L 430.27 179.28 M 466.13 119.52 L 466.13 179.28 M 418.32 131.47 L 430.27 131.47 M 418.32 167.33 L 430.27 167.33 M 478.08 131.47 L 466.13 131.47 M 478.08 167.33 L 466.13 167.33 M 525.89 119.52 L 525.89 179.28 M 490.03 119.52 L 490.03 131.47 L 478.08 131.47 M 478.08 167.33 L 490.03 167.33 L 490.03 179.28 M 585.65 179.28 L 585.65 131.47 L 549.79 131.47 L 549.79 179.28 M 47.81 179.28 L 47.81 186.02 L 47.81 227.09 L 11.95 227.09 L 11.95 179.28 M 107.57 239.04 L 107.57 191.23 L 71.71 191.23 L 71.71 239.04 M 179.28 191.23 L 167.33 191.23 L 167.33 179.28 M 179.28 227.09 L 131.47 227.09 L 131.47 179.28 M 179.28 191.23 L 239.04 191.23 M 179.28 227.09 L 239.04 227.09 M 191.23 179.28 L 191.23 191.23 M 227.09 179.28 L 227.09 191.23 M 191.23 227.09 L 191.23 239.04 M 227.09 227.09 L 227.09 239.04 M 239.04 191.23 L 298.8 191.23 M 239.04 227.09 L 250.99 227.09 L 250.99 239.04 M 298.8 227.09 L 286.85 227.09 L 286.85 239.04 M 298.8 191.23 L 358.56 191.23 M 298.8 227.09 L 358.56 227.09 M 310.75 179.28 L 310.75 191.23 M 346.61 179.28 L 346.61 191.23 M 310.75 227.09 L 310.75 239.04 M 346.61 227.09 L 346.61 239.04 M 358.56 227.09 L 370.51 227.09 L 370.51 239.04 M 358.56 191.23 L 406.37 191.23 L 406.37 239.04 M 430.27 179.28 L 430.27 239.04 M 466.13 179.28 L 466.13 239.04 M 490.03 179.28 L 490.03 239.04 M 537.84 191.23 L 525.89 191.23 L 525.89 179.28 M 537.84 227.09 L 525.89 227.09 L 525.89 239.04 M 549.79 179.28 L 549.79 191.23 L 537.84 191.23 M 585.65 179.28 L 585.65 227.09 L 537.84 227.09 M 59.76 286.85 L 11.95 286.85 L 11.95 250.99 L 59.76 250.99 M 59.76 250.99 L 119.52 250.99 M 59.76 286.85 L 119.52 286.85 M 71.71 239.04 L 71.71 250.99 M 107.57 239.04 L 107.57 250.99 M 71.71 286.85 L 71.71 298.8 M 107.57 286.85 L 107.57 298.8 M 119.52 250.99 L 179.28 250.99 M 119.52 286.85 L 131.47 286.85 L 131.47 298.8 M 179.28 286.85 L 167.33 286.85 L 167.33 298.8 M 191.23 239.04 L 191.23 250.99 L 179.28 250.99 M 227.09 239.04 L 227.09 286.85 L 179.28 286.85 M 250.99 239.04 L 250.99 298.8 M 286.85 239.04 L 286.85 298.8 M 358.56 250.99 L 346.61 250.99 L 346.61 239.04 M 358.56 286.85 L 310.75 286.85 L 310.75 239.04 M 358.56 250.99 L 418.32 250.99 M 358.56 286.85 L 418.32 286.85 M 370.51 239.04 L 370.51 250.99 M 406.37 239.04 L 406.37 250.99 M 370.51 286.85 L 370.51 298.8 M 406.37 286.85 L 406.37 298.8 M 466.13 239.04 L 466.13 298.8 M 430.27 239.04 L 430.27 250.99 L 418.32 250.99 M 418.32 286.85 L 430.27 286.85 L 430.27 298.8 M 525.89 239.04 L 525.89 245.78 L 525.89 286.85 L 490.03 286.85 L 490.03 239.04 M 585.65 298.8 L 585.65 250.99 L 549.79 250.99 L 549.79 298.8 M 59.76 346.61 L 11.95 346.61 L 11.95 310.75 L 59.76 310.75 M 71.71 298.8 L 71.71 310.75 L 59.76 310.75 M 59.76 346.61 L 71.71 346.61 L 71.71 358.56 M 119.52 310.75 L 107.57 310.75 L 107.57 298.8 M 119.52 346.61 L 107.57 346.61 L 107.57 358.56 M 131.47 298.8 L 131.47 358.56 M 167.33 298.8 L 167.33 358.56 M 119.52 310.75 L 131.47 310.75 M 119.52 346.61 L 131.47 346.61 M 179.28 310.75 L 167.33 310.75 M 179.28 346.61 L 167.33 346.61 M 179.28 310.75 L 239.04 310.75 M 179.28 346.61 L 191.23 346.61 L 191.23 358.56 M 239.04 346.61 L 227.09 346.61 L 227.09 358.56 M 250.99 298.8 L 250.99 358.56 M 286.85 298.8 L 286.85 358.56 M 239.04 310.75 L 250.99 310.75 M 239.04 346.61 L 250.99 346.61 M 298.8 310.75 L 286.85 310.75 M 298.8 346.61 L 286.85 346.61 M 298.8 346.61 L 310.75 346.61 L 310.75 358.56 M 298.8 310.75 L 346.61 310.75 L 346.61 358.56 M 418.32 310.75 L 406.37 310.75 L 406.37 298.8 M 418.32 346.61 L 370.51 346.61 L 370.51 298.8 M 418.32 310.75 L 478.08 310.75 M 418.32 346.61 L 478.08 346.61 M 430.27 298.8 L 430.27 310.75 M 466.13 298.8 L 466.13 310.75 M 430.27 346.61 L 430.27 358.56 M 466.13 346.61 L 466.13 358.56 M 478.08 346.61 L 490.03 346.61 L 490.03 358.56 M 478.08 310.75 L 525.89 310.75 L 525.89 358.56 M 549.79 298.8 L 549.79 358.56 M 585.65 298.8 L 585.65 358.56 M 59.76 406.37 L 47.81 406.37 L 47.81 418.32 M 59.76 370.51 L 11.95 370.51 L 11.95 418.32 M 71.71 358.56 L 71.71 418.32 M 107.57 358.56 L 107.57 418.32 M 59.76 370.51 L 71.71 370.51 M 59.76 406.37 L 71.71 406.37 M 119.52 370.51 L 107.57 370.51 M 119.52 406.37 L 107.57 406.37 M 119.52 406.37 L 179.28 406.37 M 131.47 358.56 L 131.47 370.51 L 119.52 370.51 M 179.28 370.51 L 167.33 370.51 L 167.33 358.56 M 179.28 370.51 L 239.04 370.51 M 179.28 406.37 L 239.04 406.37 M 191.23 358.56 L 191.23 370.51 M 227.09 358.56 L 227.09 370.51 M 191.23 406.37 L 191.23 418.32 M 227.09 406.37 L 227.09 418.32 M 239.04 406.37 L 298.8 406.37 M 250.99 358.56 L 250.99 370.51 L 239.04 370.51 M 298.8 370.51 L 286.85 370.51 L 286.85 358.56 M 310.75 358.56 L 310.75 418.32 M 346.61 358.56 L 346.61 418.32 M 298.8 370.51 L 310.75 370.51 M 298.8 406.37 L 310.75 406.37 M 358.56 370.51 L 346.61 370.51 M 358.56 406.37 L 346.61 406.37 M 358.56 406.37 L 370.51 406.37 L 370.51 418.32 M 358.56 370.51 L 406.37 370.51 L 406.37 418.32 M 430.27 358.56 L 430.27 418.32 M 466.13 358.56 L 466.13 418.32 M 537.84 370.51 L 525.89 370.51 L 525.89 358.56 M 537.84 406.37 L 490.03 406.37 L 490.03 358.56 M 585.65 358.56 L 585.65 418.32 M 549.79 358.56 L 549.79 370.51 L 537.84 370.51 M 537.84 406.37 L 549.79 406.37 L 549.79 418.32 M 47.81 418.32 L 47.81 425.06 L 47.81 466.13 L 11.95 466.13 L 11.95 418.32 M 71.71 418.32 L 71.71 478.08 M 107.57 418.32 L 107.57 478.08 M 179.28 466.13 L 167.33 466.13 L 167.33 478.08 M 179.28 430.27 L 131.47 430.27 L 131.47 478.08 M 191.23 418.32 L 191.23 430.27 L 179.28 430.27 M 227.09 418.32 L 227.09 466.13 L 179.28 466.13 M 298.8 466.13 L 286.85 466.13 L 286.85 478.08 M 298.8 430.27 L 250.99 430.27 L 250.99 478.08 M 310.75 418.32 L 310.75 430.27 L 298.8 430.27 M 298.8 466.13 L 310.75 466.13 L 310.75 478.08 M 358.56 430.27 L 346.61 430.27 L 346.61 418.32 M 358.56 466.13 L 346.61 466.13 L 346.61 478.08 M 358.56 430.27 L 418.32 430.27 M 358.56 466.13 L 418.32 466.13 M 370.51 418.32 L 370.51 430.27 M 406.37 418.32 L 406.37 430.27 M 370.51 466.13 L 370.51 478.08 M 406.37 466.13 L 406.37 478.08 M 466.13 418.32 L 466.13 478.08 M 430.27 418.32 L 430.27 430.27 L 418.32 430.27 M 418.32 466.13 L 430.27 466.13 L 430.27 478.08 M 537.84 466.13 L 490.03 466.13 L 490.03 430.27 L 537.84 430.27 M 549.79 418.32 L 549.79 430.27 L 537.84 430.27 M 585.65 418.32 L 585.65 466.13 L 537.84 466.13 M 59.76 525.89 L 11.95 525.89 L 11.95 490.03 L 59.76 490.03 M 59.76 490.03 L 119.52 490.03 M 59.76 525.89 L 119.52 525.89 M 71.71 478.08 L 71.71 490.03 M 107.57 478.08 L 107.57 490.03 M 71.71 525.89 L 71.71 537.84 M 107.57 525.89 L 107.57 537.84 M 131.47 478.08 L 131.47 490.03 L 119.52 490.03 M 167.33 478.08 L 167.33 525.89 L 119.52 525.89 M 239.04 525.89 L 227.09 525.89 L 227.09 537.84 M 239.04 490.03 L 191.23 490.03 L 191.23 537.84 M 239.04 525.89 L 298.8 525.89 M 250.99 478.08 L 250.99 490.03 L 239.04 490.03 M 298.8 490.03 L 286.85 490.03 L 286.85 478.08 M 298.8 490.03 L 358.56 490.03 M 298.8 525.89 L 358.56 525.89 M 310.75 478.08 L 310.75 490.03 M 346.61 478.08 L 346.61 490.03 M 310.75 525.89 L 310.75 537.84 M 346.61 525.89 L 346.61 537.84 M 370.51 478.08 L 370.51 490.03 L 358.56 490.03 M 358.56 525.89 L 370.51 525.89 L 370.51 537.84 M 418.32 490.03 L 406.37 490.03 L 406.37 478.08 M 418.32 525.89 L 406.37 525.89 L 406.37 537.84 M 430.27 478.08 L 430.27 537.84 M 466.13 478.08 L 466.13 537.84 M 418.32 490.03 L 430.27 490.03 M 418.32 525.89 L 430.27 525.89 M 478.08 490.03 L 466.13 490.03 M 478.08 525.89 L 466.13 525.89 M 478.08 490.03 L 537.84 490.03 M 478.08 525.89 L 537.84 525.89 M 537.84 525.89 L 549.79 525.89 L 549.79 537.84 M 537.84 490.03 L 585.65 490.03 L 585.65 537.84 M 59.76 585.65 L 11.95 585.65 L 11.95 549.79 L 59.76 549.79 M 71.71 537.84 L 71.71 549.79 L 59.76 549.79 M 107.57 537.84 L 107.57 585.65 L 59.76 585.65 M 179.28 585.65 L 131.47 585.65 L 131.47 549.79 L 179.28 549.79 M 191.23 537.84 L 191.23 549.79 L 179.28 549.79 M 227.09 537.84 L 227.09 585.65 L 179.28 585.65 M 298.8 585.65 L 250.99 585.65 L 250.99 549.79 L 298.8 549.79 M 310.75 537.84 L 310.75 549.79 L 298.8 549.79 M 346.61 537.84 L 346.61 585.65 L 298.8 585.65 M 406.37 537.84 L 406.37 544.58 L 406.37 585.65 L 370.51 585.65 L 370.51 537.84 M 478.08 549.79 L 466.13 549.79 L 466.13 537.84 M 478.08 585.65 L 430.27 585.65 L 430.27 537.84 M 478.08 585.65 L 525.89 585.65 L 525.89 549.79 L 478.08 549.79 " /> <circle cx="29.88" cy="29.88" r="19.92" fill-opacity="1.0" stroke-opacity="0" fill="#E51919" /><circle cx="567.72" cy="567.72" r="19.92" fill-opacity="1.0" stroke-opacity="0" fill="#E51919" />  </svg>