<svg id="maze" xmlns="http://www.w3.org/2000/svg" viewBox="0 0 597.6 597.6"  width="597.6px" height="597.6px" stroke-width="2" fill-opacity="0.0" stroke="black"> <path stroke-opacity="1.0" stroke-width="2" stroke="#000000" d="M 59.76 47.81 L 71.71 47.81 L 71.71 59.76 M 59.76 11.95 L 107.57 11.95 L 107.57 59.76 M 167.33 59.76 L 167.33 11.95 L 131.47 11.95 L 131.47 59.76 M 239.04 47.81 L 191.23 47.81 L 191.23 11.95 L 239.04 11.95 M 239.04 47.81 L 250.99 47.81 L 250.99 59.76 M 239.04 11.95 L 286.85 11.95 L 286.85 59.76 M 358.56 47.81 L 310.75 47.81 L 310.75 11.95 L 358.56 11.95 M 358.56 47.81 L 370.51 47.81 L 370.51 59.76 M 358.56 11.95 L 406.37 11.95 L 406.37 59.76 M 478.08 47.81 L 466.13 47.81 L 466.13 59.76 M 478.08 11.95 L 430.27 11.95 L 430.27 59.76 M 478.08 47.81 L 525.89 47.81 L 525.89 11.95 L 478.08 11.95 M 585.65 59.76 L 585.65 11.95 L 549.79 11.95 L 549.79 59.76 M 59.76 71.71 L 47.81 71.71 L 47.81 59.76 M 59.76 107.57 L 11.95 107.57 L 11.95 59.76 M 71.71 59.76 L 71.71 119.52 M 107.57 59.76 L 107.57 119.52 M 59.76 71.71 L 71.71 71.71 M 59.76 107.57 L 71.71 107.57 M 119.52 71.71 L 107.57 71.71 M 119.52 107.57 L 107.57 107.57 M 131.47 59.76 L 131.47 71.71 L 119.52 71.71 M 119.52 107.57 L 131.47 107.57 L 131.47 119.52 M 179.28 71.71 L 167.33 71.71 L 167.33 59.76 M 179.28 107.57 L 167.33 107.57 L 167.33 119.52 M 179.28 71.71 L 239.04 71.71 M 179.28 107.57 L 239.04 107.57 M 250.99 59.76 L 250.99 119.52 M 286.85 59.76 L 286.85 119.52 M 239.04 71.71 L 250.99 71.71 M 239.04 107.57 L 250.99 107.57 M 298.8 71.71 L 286.85 71.71 M 298.8 107.57 L 286.85 107.57 M 298.8 107.57 L 346.61 107.57 L 346.61 71.71 L 298.8 71.71 M 370.51 59.76 L 370.51 119.52 M 418.32 71.71 L 406.37 71.71 L 406.37 59.76 M 418.32 107.57 L 406.37 107.57 L 406.37 119.52 M 418.32 71.71 L 478.08 71.71 M 418.32 107.57 L 478.08 107.57 M 430.27 59.76 L 430.27 71.71 M 466.13 59.76 L 466.13 71.71 M 430.27 107.57 L 430.27 119.52 M 466.13 107.57 L 466.13 119.52 M 478.08 107.57 L 525.89 107.57 L 525.89 71.71 L 478.08 71.71 M 549.79 59.76 L 549.79 119.52 M 585.65 59.76 L 585.65 119.52 M 47.81 179.28 L 47.81 131.47 L 11.95 131.47 L 11.95 179.28 M 71.71 119.52 L 71.71 179.28 M 119.52 131.47 L 107.57 131.47 L 107.57 119.52 M 119.52 167.33 L 107.57 167.33 L 107.57 179.28 M 119.52 131.47 L 179.28 131.47 M 119.52 167.33 L 179.28 167.33 M 131.47 119.52 L 131.47 131.47 M 167.33 119.52 L 167.33 131.47 M 131.47 167.33 L 131.47 179.28 M 167.33 167.33 L 167.33 179.28 M 179.28 167.33 L 227.09 167.33 L 227.09 131.47 L 179.28 131.47 M 250.99 119.52 L 250.99 179.28 M 286.85 119.52 L 286.85 179.28 M 346.61 179.28 L 346.61 131.47 L 310.75 131.47 L 310.75 179.28 M 418.32 131.47 L 406.37 131.47 L 406.37 119.52 M 418.32 167.33 L 370.51 167.33 L 370.51 119.52 M 418.32 167.33 L 478.08 167.33 M 430.27 119.52 L 430.27 131.47 L 418.32 131.47 M 478.08 131.47 L 466.13 131.47 L 466.13 119.52 M 478.08 131.47 L 537.84 131.47 M 478.08 167.33 L 490.03 167.33 L 490.03 179.28 M 537.84 167.33 L 525.89 167.33 L 525.89 179.28 M 549.79 119.52 L 549.79 131.47 L 537.84 131.47 M 585.65 119.52 L 585.65 167.33 L 537.84 167.33 M 11.95 179.28 L 11.95 239.04 M 47.81 179.28 L 47.81 239.04 M 107.57 179.28 L 107.57 186.02 L 107.57 227.09 L 71.71 227.09 L 71.71 179.28 M 131.47 179.28 L 131.47 239.04 M 167.33 179.28 L 167.33 239.04 M 239.04 227.09 L 227.09 227.09 L 227.09 239.04 M 239.04 191.23 L 191.23 191.23 L 191.23 239.04 M 250.99 179.28 L 250.99 239.04 M 286.85 179.28 L 286.85 239.04 M 239.04 191.23 L 250.99 191.23 M 239.04 227.09 L 250.99 227.09 M 298.8 191.23 L 286.85 191.23 M 298.8 227.09 L 286.85 227.09 M 298.8 227.09 L 358.56 227.09 M 310.75 179.28 L 310.75 191.23 L 298.8 191.23 M 358.56 191.23 L 346.61 191.23 L 346.61 179.28 M 358.56 191.23 L 418.32 191.23 M 358.56 227.09 L 418.32 227.09 M 418.32 191.23 L 478.08 191.23 M 418.32 227.09 L 478.08 227.09 M 525.89 179.28 L 525.89 239.04 M 490.03 179.28 L 490.03 191.23 L 478.08 191.23 M 478.08 227.09 L 490.03 227.09 L 490.03 239.04 M 585.65 239.04 L 585.65 191.23 L 549.79 191.23 L 549.79 239.04 M 11.95 239.04 L 11.95 298.8 M 47.81 239.04 L 47.81 298.8 M 107.57 298.8 L 107.57 250.99 L 71.71 250.99 L 71.71 298.8 M 131.47 239.04 L 131.47 298.8 M 179.28 250.99 L 167.33 250.99 L 167.33 239.04 M 179.28 286.85 L 167.33 286.85 L 167.33 298.8 M 191.23 239.04 L 191.23 298.8 M 227.09 239.04 L 227.09 298.8 M 179.28 250.99 L 191.23 250.99 M 179.28 286.85 L 191.23 286.85 M 239.04 250.99 L 227.09 250.99 M 239.04 286.85 L 227.09 286.85 M 286.85 239.04 L 286.85 298.8 M 250.99 239.04 L 250.99 250.99 L 239.04 250.99 M 239.04 286.85 L 250.99 286.85 L 250.99 298.8 M 346.61 298.8 L 346.61 250.99 L 310.75 250.99 L 310.75 298.8 M 406.37 298.8 L 406.37 250.99 L 370.51 250.99 L 370.51 298.8 M 478.08 286.85 L 466.13 286.85 L 466.13 298.8 M 478.08 250.99 L 430.27 250.99 L 430.27 298.8 M 490.03 239.04 L 490.03 250.99 L 478.08 250.99 M 525.89 239.04 L 525.89 286.85 L 478.08 286.85 M 549.79 239.04 L 549.79 298.8 M 585.65 239.04 L 585.65 298.8 M 59.76 310.75 L 47.81 310.75 L 47.81 298.8 M 59.76 346.61 L 11.95 346.61 L 11.95 298.8 M 71.71 298.8 L 71.71 310.75 L 59.76 310.75 M 59.76 346.61 L 71.71 346.61 L 71.71 358.56 M 119.52 310.75 L 107.57 310.75 L 107.57 298.8 M 119.52 346.61 L 107.57 346.61 L 107.57 358.56 M 131.47 298.8 L 131.47 358.56 M 167.33 298.8 L 167.33 358.56 M 119.52 310.75 L 131.47 310.75 M 119.52 346.61 L 131.47 346.61 M 179.28 310.75 L 167.33 310.75 M 179.28 346.61 L 167.33 346.61 M 191.23 298.8 L 191.23 310.75 L 179.28 310.75 M 179.28 346.61 L 191.23 346.61 L 191.23 358.56 M 239.04 310.75 L 227.09 310.75 L 227.09 298.8 M 239.04 346.61 L 227.09 346.61 L 227.09 358.56 M 239.04 310.75 L 298.8 310.75 M 239.04 346.61 L 298.8 346.61 M 250.99 298.8 L 250.99 310.75 M 286.85 298.8 L 286.85 310.75 M 250.99 346.61 L 250.99 358.56 M 286.85 346.61 L 286.85 358.56 M 310.75 298.8 L 310.75 310.75 L 298.8 310.75 M 298.8 346.61 L 310.75 346.61 L 310.75 358.56 M 358.56 310.75 L 346.61 310.75 L 346.61 298.8 M 358.56 346.61 L 346.61 346.61 L 346.61 358.56 M 406.37 298.8 L 406.37 358.56 M 370.51 298.8 L 370.51 310.75 L 358.56 310.75 M 358.56 346.61 L 370.51 346.61 L 370.51 358.56 M 466.13 298.8 L 466.13 305.54 L 466.13 346.61 L 430.27 346.61 L 430.27 298.8 M 537.84 346.61 L 525.89 346.61 L 525.89 358.56 M 537.84 310.75 L 490.03 310.75 L 490.03 358.56 M 585.65 298.8 L 585.65 358.56 M 549.79 298.8 L 549.79 310.75 L 537.84 310.75 M 537.84 346.61 L 549.79 346.61 L 549.79 358.56 M 59.76 406.37 L 11.95 406.37 L 11.95 370.51 L 59.76 370.51 M 59.76 370.51 L 119.52 370.51 M 59.76 406.37 L 119.52 406.37 M 71.71 358.56 L 71.71 370.51 M 107.57 358.56 L 107.57 370.51 M 71.71 406.37 L 71.71 418.32 M 107.57 406.37 L 107.57 418.32 M 167.33 358.56 L 167.33 418.32 M 131.47 358.56 L 131.47 370.51 L 119.52 370.51 M 119.52 406.37 L 131.47 406.37 L 131.47 418.32 M 227.09 358.56 L 227.09 365.3 L 227.09 406.37 L 191.23 406.37 L 191.23 358.56 M 298.8 370.51 L 286.85 370.51 L 286.85 358.56 M 298.8 406.37 L 250.99 406.37 L 250.99 358.56 M 310.75 358.56 L 310.75 418.32 M 346.61 358.56 L 346.61 418.32 M 298.8 370.51 L 310.75 370.51 M 298.8 406.37 L 310.75 406.37 M 358.56 370.51 L 346.61 370.51 M 358.56 406.37 L 346.61 406.37 M 370.51 358.56 L 370.51 370.51 L 358.56 370.51 M 406.37 358.56 L 406.37 406.37 L 358.56 406.37 M 478.08 406.37 L 466.13 406.37 L 466.13 418.32 M 478.08 370.51 L 430.27 370.51 L 430.27 418.32 M 478.08 370.51 L 537.84 370.51 M 478.08 406.37 L 537.84 406.37 M 490.03 358.56 L 490.03 370.51 M 525.89 358.56 L 525.89 370.51 M 490.03 406.37 L 490.03 418.32 M 525.89 406.37 L 525.89 418.32 M 585.65 358.56 L 585.65 418.32 M 549.79 358.56 L 549.79 370.51 L 537.84 370.51 M 537.84 406.37 L 549.79 406.37 L 549.79 418.32 M 59.76 466.13 L 11.95 466.13 L 11.95 430.27 L 59.76 430.27 M 59.76 466.13 L 119.52 466.13 M 71.71 418.32 L 71.71 430.27 L 59.76 430.27 M 119.52 430.27 L 107.57 430.27 L 107.57 418.32 M 119.52 430.27 L 179.28 430.27 M 119.52 466.13 L 179.28 466.13 M 131.47 418.32 L 131.47 430.27 M 167.33 418.32 L 167.33 430.27 M 131.47 466.13 L 131.47 478.08 M 167.33 466.13 L 167.33 478.08 M 179.28 466.13 L 191.23 466.13 L 191.23 478.08 M 179.28 430.27 L 227.09 430.27 L 227.09 478.08 M 286.85 478.08 L 286.85 430.27 L 250.99 430.27 L 250.99 478.08 M 310.75 418.32 L 310.75 478.08 M 346.61 418.32 L 346.61 478.08 M 418.32 466.13 L 370.51 466.13 L 370.51 430.27 L 418.32 430.27 M 430.27 418.32 L 430.27 478.08 M 466.13 418.32 L 466.13 478.08 M 418.32 430.27 L 430.27 430.27 M 418.32 466.13 L 430.27 466.13 M 478.08 430.27 L 466.13 430.27 M 478.08 466.13 L 466.13 466.13 M 525.89 418.32 L 525.89 478.08 M 490.03 418.32 L 490.03 430.27 L 478.08 430.27 M 478.08 466.13 L 490.03 466.13 L 490.03 478.08 M 585.65 418.32 L 585.65 425.06 L 585.65 466.13 L 549.79 466.13 L 549.79 418.32 M 59.76 525.89 L 11.95 525.89 L 11.95 490.03 L 59.76 490.03 M 59.76 490.03 L 119.52 490.03 M 59.76 525.89 L 71.71 525.89 L 71.71 537.84 M 119.52 525.89 L 107.57 525.89 L 107.57 537.84 M 119.52 525.89 L 179.28 525.89 M 131.47 478.08 L 131.47 490.03 L 119.52 490.03 M 179.28 490.03 L 167.33 490.03 L 167.33 478.08 M 179.28 490.03 L 239.04 490.03 M 179.28 525.89 L 239.04 525.89 M 191.23 478.08 L 191.23 490.03 M 227.09 478.08 L 227.09 490.03 M 191.23 525.89 L 191.23 537.84 M 227.09 525.89 L 227.09 537.84 M 239.04 525.89 L 298.8 525.89 M 250.99 478.08 L 250.99 490.03 L 239.04 490.03 M 298.8 490.03 L 286.85 490.03 L 286.85 478.08 M 310.75 478.08 L 310.75 537.84 M 346.61 478.08 L 346.61 537.84 M 298.8 490.03 L 310.75 490.03 M 298.8 525.89 L 310.75 525.89 M 358.56 490.03 L 346.61 490.03 M 358.56 525.89 L 346.61 525.89 M 358.56 490.03 L 418.32 490.03 M 358.56 525.89 L 418.32 525.89 M 418.32 525.89 L 478.08 525.89 M 430.27 478.08 L 430.27 490.03 L 418.32 490.03 M 478.08 490.03 L 466.13 490.03 L 466.13 478.08 M 478.08 490.03 L 537.84 490.03 M 478.08 525.89 L 537.84 525.89 M 490.03 478.08 L 490.03 490.03 M 525.89 478.08 L 525.89 490.03 M 490.03 525.89 L 490.03 537.84 M 525.89 525.89 L 525.89 537.84 M 537.84 525.89 L 549.79 525.89 L 549.79 537.84 M 537.84 490.03 L 585.65 490.03 L 585.65 537.84 M 59.76 585.65 L 11.95 585.65 L 11.95 549.79 L 59.76 549.79 M 59.76 585.65 L 119.52 585.65 M 71.71 537.84 L 71.71 549.79 L 59.76 549.79 M 119.52 549.79 L 107.57 549.79 L 107.57 537.84 M 119.52 585.65 L 167.33 585.65 L 167.33 549.79 L 119.52 549.79 M 239.04 549.79 L 227.09 549.79 L 227.09 537.84 M 239.04 585.65 L 191.23 585.65 L 191.23 537.84 M 239.04 585.65 L 286.85 585.65 L 286.85 549.79 L 239.04 549.79 M 358.56 549.79 L 346.61 549.79 L 346.61 537.84 M 358.56 585.65 L 310.75 585.65 L 310.75 537.84 M 358.56 549.79 L 418.32 549.79 M 358.56 585.65 L 418.32 585.65 M 418.32 585.65 L 466.13 585.65 L 466.13 549.79 L 418.32 549.79 M 525.89 537.84 L 525.89 544.58 L 525.89 585.65 L 490.03 585.65 L 490.03 537.84 " /> <circle cx="29.88" cy="29.88" r="19.92" fill-opacity="1.0" stroke-opacity="0" fill="#E51919" /><circle cx="567.72" cy="567.72" r="19.92" fill-opacity="1.0" stroke-opacity="0" fill="#E51919" />  </svg>