<svg id="maze" xmlns="http://www.w3.org/2000/svg" viewBox="0 0 597.6 597.6"  width="597.6px" height="597.6px" stroke-width="2" fill-opacity="0.0" stroke="black"> <path stroke-opacity="1.0" stroke-width="2" stroke="#000000" d="M 59.76 47.81 L 71.71 47.81 L 71.71 59.76 M 59.76 11.95 L 107.57 11.95 L 107.57 59.76 M 167.33 59.76 L 167.33 11.95 L 131.47 11.95 L 131.47 59.76 M 239.04 47.81 L 191.23 47.81 L 191.23 11.95 L 239.04 11.95 M 239.04 11.95 L 298.8 11.95 M 239.04 47.81 L 298.8 47.81 M 298.8 47.81 L 310.75 47.81 L 310.75 59.76 M 298.8 11.95 L 346.61 11.95 L 346.61 59.76 M 406.37 59.76 L 406.37 11.95 L 370.51 11.95 L 370.51 59.76 M 478.08 47.81 L 430.27 47.81 L 430.27 11.95 L 478.08 11.95 M 478.08 47.81 L 490.03 47.81 L 490.03 59.76 M 478.08 11.95 L 525.89 11.95 L 525.89 59.76 M 585.65 59.76 L 585.65 11.95 L 549.79 11.95 L 549.79 59.76 M 47.81 59.76 L 47.81 66.5 L 47.81 107.57 L 11.95 107.57 L 11.95 59.76 M 71.71 59.76 L 71.71 119.52 M 107.57 59.76 L 107.57 119.52 M 131.47 59.76 L 131.47 119.52 M 167.33 59.76 L 167.33 119.52 M 239.04 107.57 L 227.09 107.57 L 227.09 119.52 M 239.04 71.71 L 191.23 71.71 L 191.23 119.52 M 239.04 71.71 L 298.8 71.71 M 239.04 107.57 L 298.8 107.57 M 298.8 71.71 L 358.56 71.71 M 298.8 107.57 L 358.56 107.57 M 310.75 59.76 L 310.75 71.71 M 346.61 59.76 L 346.61 71.71 M 310.75 107.57 L 310.75 119.52 M 346.61 107.57 L 346.61 119.52 M 370.51 59.76 L 370.51 71.71 L 358.56 71.71 M 406.37 59.76 L 406.37 107.57 L 358.56 107.57 M 478.08 107.57 L 466.13 107.57 L 466.13 119.52 M 478.08 71.71 L 430.27 71.71 L 430.27 119.52 M 490.03 59.76 L 490.03 119.52 M 525.89 59.76 L 525.89 119.52 M 478.08 71.71 L 490.03 71.71 M 478.08 107.57 L 490.03 107.57 M 537.84 71.71 L 525.89 71.71 M 537.84 107.57 L 525.89 107.57 M 549.79 59.76 L 549.79 71.71 L 537.84 71.71 M 585.65 59.76 L 585.65 107.57 L 537.84 107.57 M 59.76 167.33 L 11.95 167.33 L 11.95 131.47 L 59.76 131.47 M 71.71 119.52 L 71.71 179.28 M 107.57 119.52 L 107.57 179.28 M 59.76 131.47 L 71.71 131.47 M 59.76 167.33 L 71.71 167.33 M 119.52 131.47 L 107.57 131.47 M 119.52 167.33 L 107.57 167.33 M 131.47 119.52 L 131.47 131.47 L 119.52 131.47 M 119.52 167.33 L 131.47 167.33 L 131.47 179.28 M 179.28 131.47 L 167.33 131.47 L 167.33 119.52 M 179.28 167.33 L 167.33 167.33 L 167.33 179.28 M 191.23 119.52 L 191.23 179.28 M 227.09 119.52 L 227.09 179.28 M 179.28 131.47 L 191.23 131.47 M 179.28 167.33 L 191.23 167.33 M 239.04 131.47 L 227.09 131.47 M 239.04 167.33 L 227.09 167.33 M 239.04 167.33 L 286.85 167.33 L 286.85 131.47 L 239.04 131.47 M 310.75 119.52 L 310.75 179.28 M 346.61 119.52 L 346.61 179.28 M 418.32 167.33 L 370.51 167.33 L 370.51 131.47 L 418.32 131.47 M 430.27 119.52 L 430.27 179.28 M 466.13 119.52 L 466.13 179.28 M 418.32 131.47 L 430.27 131.47 M 418.32 167.33 L 430.27 167.33 M 478.08 131.47 L 466.13 131.47 M 478.08 167.33 L 466.13 167.33 M 490.03 119.52 L 490.03 131.47 L 478.08 131.47 M 478.08 167.33 L 490.03 167.33 L 490.03 179.28 M 537.84 131.47 L 525.89 131.47 L 525.89 119.52 M 537.84 167.33 L 525.89 167.33 L 525.89 179.28 M 537.84 167.33 L 549.79 167.33 L 549.79 179.28 M 537.84 131.47 L 585.65 131.47 L 585.65 179.28 M 59.76 227.09 L 11.95 227.09 L 11.95 191.23 L 59.76 191.23 M 107.57 179.28 L 107.57 239.04 M 71.71 179.28 L 71.71 191.23 L 59.76 191.23 M 59.76 227.09 L 71.71 227.09 L 71.71 239.04 M 131.47 179.28 L 131.47 239.04 M 179.28 191.23 L 167.33 191.23 L 167.33 179.28 M 179.28 227.09 L 167.33 227.09 L 167.33 239.04 M 227.09 179.28 L 227.09 239.04 M 191.23 179.28 L 191.23 191.23 L 179.28 191.23 M 179.28 227.09 L 191.23 227.09 L 191.23 239.04 M 298.8 227.09 L 286.85 227.09 L 286.85 239.04 M 298.8 191.23 L 250.99 191.23 L 250.99 239.04 M 298.8 191.23 L 358.56 191.23 M 298.8 227.09 L 358.56 227.09 M 310.75 179.28 L 310.75 191.23 M 346.61 179.28 L 346.61 191.23 M 310.75 227.09 L 310.75 239.04 M 346.61 227.09 L 346.61 239.04 M 358.56 191.23 L 418.32 191.23 M 358.56 227.09 L 370.51 227.09 L 370.51 239.04 M 418.32 227.09 L 406.37 227.09 L 406.37 239.04 M 418.32 227.09 L 478.08 227.09 M 430.27 179.28 L 430.27 191.23 L 418.32 191.23 M 478.08 191.23 L 466.13 191.23 L 466.13 179.28 M 490.03 179.28 L 490.03 239.04 M 525.89 179.28 L 525.89 239.04 M 478.08 191.23 L 490.03 191.23 M 478.08 227.09 L 490.03 227.09 M 537.84 191.23 L 525.89 191.23 M 537.84 227.09 L 525.89 227.09 M 585.65 179.28 L 585.65 239.04 M 549.79 179.28 L 549.79 191.23 L 537.84 191.23 M 537.84 227.09 L 549.79 227.09 L 549.79 239.04 M 59.76 286.85 L 47.81 286.85 L 47.81 298.8 M 59.76 250.99 L 11.95 250.99 L 11.95 298.8 M 71.71 239.04 L 71.71 298.8 M 107.57 239.04 L 107.57 298.8 M 59.76 250.99 L 71.71 250.99 M 59.76 286.85 L 71.71 286.85 M 119.52 250.99 L 107.57 250.99 M 119.52 286.85 L 107.57 286.85 M 167.33 239.04 L 167.33 298.8 M 131.47 239.04 L 131.47 250.99 L 119.52 250.99 M 119.52 286.85 L 131.47 286.85 L 131.47 298.8 M 239.04 250.99 L 227.09 250.99 L 227.09 239.04 M 239.04 286.85 L 191.23 286.85 L 191.23 239.04 M 250.99 239.04 L 250.99 298.8 M 286.85 239.04 L 286.85 298.8 M 239.04 250.99 L 250.99 250.99 M 239.04 286.85 L 250.99 286.85 M 298.8 250.99 L 286.85 250.99 M 298.8 286.85 L 286.85 286.85 M 298.8 286.85 L 358.56 286.85 M 310.75 239.04 L 310.75 250.99 L 298.8 250.99 M 358.56 250.99 L 346.61 250.99 L 346.61 239.04 M 358.56 250.99 L 418.32 250.99 M 358.56 286.85 L 418.32 286.85 M 370.51 239.04 L 370.51 250.99 M 406.37 239.04 L 406.37 250.99 M 370.51 286.85 L 370.51 298.8 M 406.37 286.85 L 406.37 298.8 M 418.32 286.85 L 466.13 286.85 L 466.13 250.99 L 418.32 250.99 M 490.03 239.04 L 490.03 298.8 M 525.89 239.04 L 525.89 298.8 M 585.65 239.04 L 585.65 245.78 L 585.65 286.85 L 549.79 286.85 L 549.79 239.04 M 11.95 298.8 L 11.95 358.56 M 47.81 298.8 L 47.81 358.56 M 71.71 298.8 L 71.71 358.56 M 119.52 310.75 L 107.57 310.75 L 107.57 298.8 M 119.52 346.61 L 107.57 346.61 L 107.57 358.56 M 131.47 298.8 L 131.47 358.56 M 167.33 298.8 L 167.33 358.56 M 119.52 310.75 L 131.47 310.75 M 119.52 346.61 L 131.47 346.61 M 179.28 310.75 L 167.33 310.75 M 179.28 346.61 L 167.33 346.61 M 179.28 310.75 L 239.04 310.75 M 179.28 346.61 L 191.23 346.61 L 191.23 358.56 M 239.04 346.61 L 227.09 346.61 L 227.09 358.56 M 250.99 298.8 L 250.99 310.75 L 239.04 310.75 M 286.85 298.8 L 286.85 346.61 L 239.04 346.61 M 346.61 358.56 L 346.61 310.75 L 310.75 310.75 L 310.75 358.56 M 418.32 310.75 L 406.37 310.75 L 406.37 298.8 M 418.32 346.61 L 370.51 346.61 L 370.51 298.8 M 418.32 310.75 L 478.08 310.75 M 418.32 346.61 L 430.27 346.61 L 430.27 358.56 M 478.08 346.61 L 466.13 346.61 L 466.13 358.56 M 478.08 310.75 L 537.84 310.75 M 478.08 346.61 L 537.84 346.61 M 490.03 298.8 L 490.03 310.75 M 525.89 298.8 L 525.89 310.75 M 490.03 346.61 L 490.03 358.56 M 525.89 346.61 L 525.89 358.56 M 537.84 346.61 L 585.65 346.61 L 585.65 310.75 L 537.84 310.75 M 11.95 358.56 L 11.95 418.32 M 47.81 358.56 L 47.81 418.32 M 107.57 358.56 L 107.57 365.3 L 107.57 406.37 L 71.71 406.37 L 71.71 358.56 M 131.47 358.56 L 131.47 418.32 M 179.28 370.51 L 167.33 370.51 L 167.33 358.56 M 179.28 406.37 L 167.33 406.37 L 167.33 418.32 M 191.23 358.56 L 191.23 418.32 M 227.09 358.56 L 227.09 418.32 M 179.28 370.51 L 191.23 370.51 M 179.28 406.37 L 191.23 406.37 M 239.04 370.51 L 227.09 370.51 M 239.04 406.37 L 227.09 406.37 M 239.04 370.51 L 298.8 370.51 M 239.04 406.37 L 250.99 406.37 L 250.99 418.32 M 298.8 406.37 L 286.85 406.37 L 286.85 418.32 M 310.75 358.56 L 310.75 418.32 M 346.61 358.56 L 346.61 418.32 M 298.8 370.51 L 310.75 370.51 M 298.8 406.37 L 310.75 406.37 M 358.56 370.51 L 346.61 370.51 M 358.56 406.37 L 346.61 406.37 M 358.56 370.51 L 418.32 370.51 M 358.56 406.37 L 418.32 406.37 M 418.32 370.51 L 478.08 370.51 M 418.32 406.37 L 478.08 406.37 M 430.27 358.56 L 430.27 370.51 M 466.13 358.56 L 466.13 370.51 M 430.27 406.37 L 430.27 418.32 M 466.13 406.37 L 466.13 418.32 M 490.03 358.56 L 490.03 370.51 L 478.08 370.51 M 478.08 406.37 L 490.03 406.37 L 490.03 418.32 M 537.84 370.51 L 525.89 370.51 L 525.89 358.56 M 537.84 406.37 L 525.89 406.37 L 525.89 418.32 M 537.84 406.37 L 585.65 406.37 L 585.65 370.51 L 537.84 370.51 M 11.95 418.32 L 11.95 478.08 M 47.81 418.32 L 47.81 478.08 M 119.52 466.13 L 71.71 466.13 L 71.71 430.27 L 119.52 430.27 M 119.52 430.27 L 179.28 430.27 M 119.52 466.13 L 179.28 466.13 M 131.47 418.32 L 131.47 430.27 M 167.33 418.32 L 167.33 430.27 M 131.47 466.13 L 131.47 478.08 M 167.33 466.13 L 167.33 478.08 M 191.23 418.32 L 191.23 430.27 L 179.28 430.27 M 179.28 466.13 L 191.23 466.13 L 191.23 478.08 M 239.04 430.27 L 227.09 430.27 L 227.09 418.32 M 239.04 466.13 L 227.09 466.13 L 227.09 478.08 M 250.99 418.32 L 250.99 478.08 M 286.85 418.32 L 286.85 478.08 M 239.04 430.27 L 250.99 430.27 M 239.04 466.13 L 250.99 466.13 M 298.8 430.27 L 286.85 430.27 M 298.8 466.13 L 286.85 466.13 M 310.75 418.32 L 310.75 430.27 L 298.8 430.27 M 298.8 466.13 L 310.75 466.13 L 310.75 478.08 M 358.56 430.27 L 346.61 430.27 L 346.61 418.32 M 358.56 466.13 L 346.61 466.13 L 346.61 478.08 M 358.56 466.13 L 406.37 466.13 L 406.37 430.27 L 358.56 430.27 M 478.08 430.27 L 466.13 430.27 L 466.13 418.32 M 478.08 466.13 L 430.27 466.13 L 430.27 418.32 M 490.03 418.32 L 490.03 478.08 M 525.89 418.32 L 525.89 478.08 M 478.08 430.27 L 490.03 430.27 M 478.08 466.13 L 490.03 466.13 M 537.84 430.27 L 525.89 430.27 M 537.84 466.13 L 525.89 466.13 M 537.84 466.13 L 585.65 466.13 L 585.65 430.27 L 537.84 430.27 M 11.95 478.08 L 11.95 537.84 M 47.81 478.08 L 47.81 537.84 M 119.52 525.89 L 107.57 525.89 L 107.57 537.84 M 119.52 490.03 L 71.71 490.03 L 71.71 537.84 M 131.47 478.08 L 131.47 490.03 L 119.52 490.03 M 167.33 478.08 L 167.33 525.89 L 119.52 525.89 M 191.23 478.08 L 191.23 537.84 M 227.09 478.08 L 227.09 537.84 M 298.8 490.03 L 286.85 490.03 L 286.85 478.08 M 298.8 525.89 L 250.99 525.89 L 250.99 478.08 M 310.75 478.08 L 310.75 537.84 M 346.61 478.08 L 346.61 537.84 M 298.8 490.03 L 310.75 490.03 M 298.8 525.89 L 310.75 525.89 M 358.56 490.03 L 346.61 490.03 M 358.56 525.89 L 346.61 525.89 M 358.56 490.03 L 418.32 490.03 M 358.56 525.89 L 418.32 525.89 M 418.32 525.89 L 430.27 525.89 L 430.27 537.84 M 418.32 490.03 L 466.13 490.03 L 466.13 537.84 M 490.03 478.08 L 490.03 537.84 M 537.84 490.03 L 525.89 490.03 L 525.89 478.08 M 537.84 525.89 L 525.89 525.89 L 525.89 537.84 M 537.84 525.89 L 549.79 525.89 L 549.79 537.84 M 537.84 490.03 L 585.65 490.03 L 585.65 537.84 M 47.81 537.84 L 47.81 544.58 L 47.81 585.65 L 11.95 585.65 L 11.95 537.84 M 119.52 549.79 L 107.57 549.79 L 107.57 537.84 M 119.52 585.65 L 71.71 585.65 L 71.71 537.84 M 119.52 585.65 L 167.33 585.65 L 167.33 549.79 L 119.52 549.79 M 239.04 549.79 L 227.09 549.79 L 227.09 537.84 M 239.04 585.65 L 191.23 585.65 L 191.23 537.84 M 239.04 585.65 L 286.85 585.65 L 286.85 549.79 L 239.04 549.79 M 346.61 537.84 L 346.61 544.58 L 346.61 585.65 L 310.75 585.65 L 310.75 537.84 M 418.32 585.65 L 370.51 585.65 L 370.51 549.79 L 418.32 549.79 M 430.27 537.84 L 430.27 549.79 L 418.32 549.79 M 466.13 537.84 L 466.13 585.65 L 418.32 585.65 M 525.89 537.84 L 525.89 544.58 L 525.89 585.65 L 490.03 585.65 L 490.03 537.84 " /> <circle cx="29.88" cy="29.88" r="19.92" fill-opacity="1.0" stroke-opacity="0" fill="#E51919" /><circle cx="567.72" cy="567.72" r="19.92" fill-opacity="1.0" stroke-opacity="0" fill="#E51919" /> <path stroke-opacity="1.0" stroke-width="5" stroke="#E51919" d="M 29.88 29.88 L 59.76 29.88 M 59.76 29.88 L 89.64 29.88 L 89.64 59.76 M 89.64 59.76 L 89.64 119.52 M 89.64 179.28 L 89.64 239.04 M 89.64 119.52 L 89.64 179.28 M 119.52 328.68 L 89.64 328.68 L 89.64 298.8 M 89.64 239.04 L 89.64 298.8 M 179.28 328.68 L 239.04 328.68 M 119.52 328.68 L 131.47 328.68 M 179.28 328.68 L 167.33 328.68 M 268.92 298.8 L 268.92 328.68 L 239.04 328.68 M 298.8 209.16 L 268.92 209.16 L 268.92 239.04 M 268.92 239.04 L 268.92 298.8 M 358.56 209.16 L 418.32 209.16 M 298.8 209.16 L 358.56 209.16 M 418.32 209.16 L 478.08 209.16 M 567.72 179.28 L 567.72 209.16 L 537.84 209.16 M 478.08 209.16 L 490.03 209.16 M 537.84 209.16 L 525.89 209.16 M 537.84 149.4 L 567.72 149.4 L 567.72 179.28 M 537.84 149.4 L 507.96 149.4 L 507.96 179.28 M 507.96 239.04 L 507.96 298.8 M 507.96 179.28 L 507.96 239.04 M 507.96 358.56 L 507.96 418.32 M 507.96 298.8 L 507.96 310.75 M 507.96 358.56 L 507.96 346.61 M 537.84 507.96 L 507.96 507.96 L 507.96 478.08 M 507.96 418.32 L 507.96 478.08 M 567.72 537.84 L 567.72 567.72 M 537.84 507.96 L 567.72 507.96 L 567.72 537.84 " />  <path stroke-opacity="0.2" stroke-width="5" stroke="#E51919" d="M 29.88 29.88 L 59.76 29.88 M 131.47 328.68 L 149.4 328.68 M 167.33 328.68 L 149.4 328.68 M 490.03 209.16 L 507.96 209.16 M 525.89 209.16 L 507.96 209.16 M 507.96 310.75 L 507.96 328.68 M 507.96 346.61 L 507.96 328.68 M 567.72 537.84 L 567.72 567.72 " />   </svg>