<svg id="maze" xmlns="http://www.w3.org/2000/svg" viewBox="0 0 597.6 597.6"  width="597.6px" height="597.6px" stroke-width="2" fill-opacity="0.0" stroke="black"> <path stroke-opacity="1.0" stroke-width="2" stroke="#000000" d="M 59.76 47.81 L 107.57 47.81 L 107.57 11.95 L 59.76 11.95 M 167.33 59.76 L 167.33 11.95 L 131.47 11.95 L 131.47 59.76 M 227.09 59.76 L 227.09 11.95 L 191.23 11.95 L 191.23 59.76 M 286.85 59.76 L 286.85 11.95 L 250.99 11.95 L 250.99 59.76 M 358.56 47.81 L 310.75 47.81 L 310.75 11.95 L 358.56 11.95 M 358.56 47.81 L 370.51 47.81 L 370.51 59.76 M 358.56 11.95 L 406.37 11.95 L 406.37 59.76 M 478.08 47.81 L 466.13 47.81 L 466.13 59.76 M 478.08 11.95 L 430.27 11.95 L 430.27 59.76 M 478.08 47.81 L 525.89 47.81 L 525.89 11.95 L 478.08 11.95 M 585.65 59.76 L 585.65 11.95 L 549.79 11.95 L 549.79 59.76 M 11.95 59.76 L 11.95 119.52 M 47.81 59.76 L 47.81 119.52 M 119.52 107.57 L 71.71 107.57 L 71.71 71.71 L 119.52 71.71 M 131.47 59.76 L 131.47 119.52 M 167.33 59.76 L 167.33 119.52 M 119.52 71.71 L 131.47 71.71 M 119.52 107.57 L 131.47 107.57 M 179.28 71.71 L 167.33 71.71 M 179.28 107.57 L 167.33 107.57 M 191.23 59.76 L 191.23 71.71 L 179.28 71.71 M 179.28 107.57 L 191.23 107.57 L 191.23 119.52 M 239.04 71.71 L 227.09 71.71 L 227.09 59.76 M 239.04 107.57 L 227.09 107.57 L 227.09 119.52 M 239.04 71.71 L 298.8 71.71 M 239.04 107.57 L 298.8 107.57 M 250.99 59.76 L 250.99 71.71 M 286.85 59.76 L 286.85 71.71 M 250.99 107.57 L 250.99 119.52 M 286.85 107.57 L 286.85 119.52 M 298.8 107.57 L 346.61 107.57 L 346.61 71.71 L 298.8 71.71 M 370.51 59.76 L 370.51 119.52 M 418.32 71.71 L 406.37 71.71 L 406.37 59.76 M 418.32 107.57 L 406.37 107.57 L 406.37 119.52 M 430.27 59.76 L 430.27 119.52 M 466.13 59.76 L 466.13 119.52 M 418.32 71.71 L 430.27 71.71 M 418.32 107.57 L 430.27 107.57 M 478.08 71.71 L 466.13 71.71 M 478.08 107.57 L 466.13 107.57 M 478.08 71.71 L 537.84 71.71 M 478.08 107.57 L 490.03 107.57 L 490.03 119.52 M 537.84 107.57 L 525.89 107.57 L 525.89 119.52 M 549.79 59.76 L 549.79 71.71 L 537.84 71.71 M 585.65 59.76 L 585.65 107.57 L 537.84 107.57 M 59.76 131.47 L 47.81 131.47 L 47.81 119.52 M 59.76 167.33 L 11.95 167.33 L 11.95 119.52 M 59.76 167.33 L 71.71 167.33 L 71.71 179.28 M 59.76 131.47 L 107.57 131.47 L 107.57 179.28 M 179.28 131.47 L 167.33 131.47 L 167.33 119.52 M 179.28 167.33 L 131.47 167.33 L 131.47 119.52 M 191.23 119.52 L 191.23 179.28 M 227.09 119.52 L 227.09 179.28 M 179.28 131.47 L 191.23 131.47 M 179.28 167.33 L 191.23 167.33 M 239.04 131.47 L 227.09 131.47 M 239.04 167.33 L 227.09 167.33 M 239.04 167.33 L 298.8 167.33 M 250.99 119.52 L 250.99 131.47 L 239.04 131.47 M 298.8 131.47 L 286.85 131.47 L 286.85 119.52 M 298.8 131.47 L 358.56 131.47 M 298.8 167.33 L 310.75 167.33 L 310.75 179.28 M 358.56 167.33 L 346.61 167.33 L 346.61 179.28 M 358.56 131.47 L 418.32 131.47 M 358.56 167.33 L 418.32 167.33 M 370.51 119.52 L 370.51 131.47 M 406.37 119.52 L 406.37 131.47 M 370.51 167.33 L 370.51 179.28 M 406.37 167.33 L 406.37 179.28 M 418.32 167.33 L 478.08 167.33 M 430.27 119.52 L 430.27 131.47 L 418.32 131.47 M 478.08 131.47 L 466.13 131.47 L 466.13 119.52 M 478.08 131.47 L 537.84 131.47 M 478.08 167.33 L 537.84 167.33 M 490.03 119.52 L 490.03 131.47 M 525.89 119.52 L 525.89 131.47 M 490.03 167.33 L 490.03 179.28 M 525.89 167.33 L 525.89 179.28 M 537.84 167.33 L 585.65 167.33 L 585.65 131.47 L 537.84 131.47 M 59.76 227.09 L 11.95 227.09 L 11.95 191.23 L 59.76 191.23 M 71.71 179.28 L 71.71 239.04 M 107.57 179.28 L 107.57 239.04 M 59.76 191.23 L 71.71 191.23 M 59.76 227.09 L 71.71 227.09 M 119.52 191.23 L 107.57 191.23 M 119.52 227.09 L 107.57 227.09 M 119.52 191.23 L 179.28 191.23 M 119.52 227.09 L 131.47 227.09 L 131.47 239.04 M 179.28 227.09 L 167.33 227.09 L 167.33 239.04 M 227.09 179.28 L 227.09 239.04 M 191.23 179.28 L 191.23 191.23 L 179.28 191.23 M 179.28 227.09 L 191.23 227.09 L 191.23 239.04 M 298.8 227.09 L 286.85 227.09 L 286.85 239.04 M 298.8 191.23 L 250.99 191.23 L 250.99 239.04 M 310.75 179.28 L 310.75 239.04 M 346.61 179.28 L 346.61 239.04 M 298.8 191.23 L 310.75 191.23 M 298.8 227.09 L 310.75 227.09 M 358.56 191.23 L 346.61 191.23 M 358.56 227.09 L 346.61 227.09 M 358.56 227.09 L 418.32 227.09 M 370.51 179.28 L 370.51 191.23 L 358.56 191.23 M 418.32 191.23 L 406.37 191.23 L 406.37 179.28 M 418.32 227.09 L 466.13 227.09 L 466.13 191.23 L 418.32 191.23 M 490.03 179.28 L 490.03 239.04 M 537.84 191.23 L 525.89 191.23 L 525.89 179.28 M 537.84 227.09 L 525.89 227.09 L 525.89 239.04 M 537.84 227.09 L 585.65 227.09 L 585.65 191.23 L 537.84 191.23 M 59.76 286.85 L 11.95 286.85 L 11.95 250.99 L 59.76 250.99 M 71.71 239.04 L 71.71 250.99 L 59.76 250.99 M 59.76 286.85 L 71.71 286.85 L 71.71 298.8 M 119.52 250.99 L 107.57 250.99 L 107.57 239.04 M 119.52 286.85 L 107.57 286.85 L 107.57 298.8 M 119.52 250.99 L 179.28 250.99 M 119.52 286.85 L 179.28 286.85 M 131.47 239.04 L 131.47 250.99 M 167.33 239.04 L 167.33 250.99 M 131.47 286.85 L 131.47 298.8 M 167.33 286.85 L 167.33 298.8 M 191.23 239.04 L 191.23 250.99 L 179.28 250.99 M 179.28 286.85 L 191.23 286.85 L 191.23 298.8 M 239.04 250.99 L 227.09 250.99 L 227.09 239.04 M 239.04 286.85 L 227.09 286.85 L 227.09 298.8 M 250.99 239.04 L 250.99 298.8 M 286.85 239.04 L 286.85 298.8 M 239.04 250.99 L 250.99 250.99 M 239.04 286.85 L 250.99 286.85 M 298.8 250.99 L 286.85 250.99 M 298.8 286.85 L 286.85 286.85 M 346.61 239.04 L 346.61 298.8 M 310.75 239.04 L 310.75 250.99 L 298.8 250.99 M 298.8 286.85 L 310.75 286.85 L 310.75 298.8 M 418.32 286.85 L 406.37 286.85 L 406.37 298.8 M 418.32 250.99 L 370.51 250.99 L 370.51 298.8 M 418.32 250.99 L 478.08 250.99 M 418.32 286.85 L 478.08 286.85 M 490.03 239.04 L 490.03 298.8 M 525.89 239.04 L 525.89 298.8 M 478.08 250.99 L 490.03 250.99 M 478.08 286.85 L 490.03 286.85 M 537.84 250.99 L 525.89 250.99 M 537.84 286.85 L 525.89 286.85 M 537.84 286.85 L 585.65 286.85 L 585.65 250.99 L 537.84 250.99 M 59.76 346.61 L 47.81 346.61 L 47.81 358.56 M 59.76 310.75 L 11.95 310.75 L 11.95 358.56 M 59.76 310.75 L 119.52 310.75 M 59.76 346.61 L 119.52 346.61 M 71.71 298.8 L 71.71 310.75 M 107.57 298.8 L 107.57 310.75 M 71.71 346.61 L 71.71 358.56 M 107.57 346.61 L 107.57 358.56 M 119.52 346.61 L 179.28 346.61 M 131.47 298.8 L 131.47 310.75 L 119.52 310.75 M 179.28 310.75 L 167.33 310.75 L 167.33 298.8 M 179.28 310.75 L 239.04 310.75 M 179.28 346.61 L 239.04 346.61 M 191.23 298.8 L 191.23 310.75 M 227.09 298.8 L 227.09 310.75 M 191.23 346.61 L 191.23 358.56 M 227.09 346.61 L 227.09 358.56 M 250.99 298.8 L 250.99 310.75 L 239.04 310.75 M 239.04 346.61 L 250.99 346.61 L 250.99 358.56 M 298.8 310.75 L 286.85 310.75 L 286.85 298.8 M 298.8 346.61 L 286.85 346.61 L 286.85 358.56 M 310.75 298.8 L 310.75 358.56 M 346.61 298.8 L 346.61 358.56 M 298.8 310.75 L 310.75 310.75 M 298.8 346.61 L 310.75 346.61 M 358.56 310.75 L 346.61 310.75 M 358.56 346.61 L 346.61 346.61 M 370.51 298.8 L 370.51 310.75 L 358.56 310.75 M 406.37 298.8 L 406.37 346.61 L 358.56 346.61 M 478.08 346.61 L 466.13 346.61 L 466.13 358.56 M 478.08 310.75 L 430.27 310.75 L 430.27 358.56 M 478.08 346.61 L 537.84 346.61 M 490.03 298.8 L 490.03 310.75 L 478.08 310.75 M 537.84 310.75 L 525.89 310.75 L 525.89 298.8 M 537.84 346.61 L 585.65 346.61 L 585.65 310.75 L 537.84 310.75 M 47.81 358.56 L 47.81 365.3 L 47.81 406.37 L 11.95 406.37 L 11.95 358.56 M 107.57 358.56 L 107.57 365.3 L 107.57 406.37 L 71.71 406.37 L 71.71 358.56 M 167.33 418.32 L 167.33 370.51 L 131.47 370.51 L 131.47 418.32 M 227.09 358.56 L 227.09 365.3 L 227.09 406.37 L 191.23 406.37 L 191.23 358.56 M 250.99 358.56 L 250.99 418.32 M 286.85 358.56 L 286.85 418.32 M 346.61 358.56 L 346.61 365.3 L 346.61 406.37 L 310.75 406.37 L 310.75 358.56 M 418.32 406.37 L 406.37 406.37 L 406.37 418.32 M 418.32 370.51 L 370.51 370.51 L 370.51 418.32 M 430.27 358.56 L 430.27 418.32 M 466.13 358.56 L 466.13 418.32 M 418.32 370.51 L 430.27 370.51 M 418.32 406.37 L 430.27 406.37 M 478.08 370.51 L 466.13 370.51 M 478.08 406.37 L 466.13 406.37 M 478.08 370.51 L 537.84 370.51 M 478.08 406.37 L 490.03 406.37 L 490.03 418.32 M 537.84 406.37 L 525.89 406.37 L 525.89 418.32 M 537.84 406.37 L 549.79 406.37 L 549.79 418.32 M 537.84 370.51 L 585.65 370.51 L 585.65 418.32 M 47.81 478.08 L 47.81 430.27 L 11.95 430.27 L 11.95 478.08 M 119.52 466.13 L 107.57 466.13 L 107.57 478.08 M 119.52 430.27 L 71.71 430.27 L 71.71 478.08 M 119.52 430.27 L 179.28 430.27 M 119.52 466.13 L 179.28 466.13 M 131.47 418.32 L 131.47 430.27 M 167.33 418.32 L 167.33 430.27 M 131.47 466.13 L 131.47 478.08 M 167.33 466.13 L 167.33 478.08 M 179.28 430.27 L 239.04 430.27 M 179.28 466.13 L 191.23 466.13 L 191.23 478.08 M 239.04 466.13 L 227.09 466.13 L 227.09 478.08 M 250.99 418.32 L 250.99 478.08 M 286.85 418.32 L 286.85 478.08 M 239.04 430.27 L 250.99 430.27 M 239.04 466.13 L 250.99 466.13 M 298.8 430.27 L 286.85 430.27 M 298.8 466.13 L 286.85 466.13 M 298.8 430.27 L 358.56 430.27 M 298.8 466.13 L 310.75 466.13 L 310.75 478.08 M 358.56 466.13 L 346.61 466.13 L 346.61 478.08 M 370.51 418.32 L 370.51 478.08 M 406.37 418.32 L 406.37 478.08 M 358.56 430.27 L 370.51 430.27 M 358.56 466.13 L 370.51 466.13 M 418.32 430.27 L 406.37 430.27 M 418.32 466.13 L 406.37 466.13 M 466.13 418.32 L 466.13 478.08 M 430.27 418.32 L 430.27 430.27 L 418.32 430.27 M 418.32 466.13 L 430.27 466.13 L 430.27 478.08 M 525.89 418.32 L 525.89 425.06 L 525.89 466.13 L 490.03 466.13 L 490.03 418.32 M 585.65 418.32 L 585.65 425.06 L 585.65 466.13 L 549.79 466.13 L 549.79 418.32 M 11.95 478.08 L 11.95 537.84 M 59.76 490.03 L 47.81 490.03 L 47.81 478.08 M 59.76 525.89 L 47.81 525.89 L 47.81 537.84 M 71.71 478.08 L 71.71 537.84 M 107.57 478.08 L 107.57 537.84 M 59.76 490.03 L 71.71 490.03 M 59.76 525.89 L 71.71 525.89 M 119.52 490.03 L 107.57 490.03 M 119.52 525.89 L 107.57 525.89 M 119.52 525.89 L 179.28 525.89 M 131.47 478.08 L 131.47 490.03 L 119.52 490.03 M 179.28 490.03 L 167.33 490.03 L 167.33 478.08 M 179.28 490.03 L 239.04 490.03 M 179.28 525.89 L 239.04 525.89 M 191.23 478.08 L 191.23 490.03 M 227.09 478.08 L 227.09 490.03 M 191.23 525.89 L 191.23 537.84 M 227.09 525.89 L 227.09 537.84 M 239.04 525.89 L 298.8 525.89 M 250.99 478.08 L 250.99 490.03 L 239.04 490.03 M 298.8 490.03 L 286.85 490.03 L 286.85 478.08 M 298.8 490.03 L 358.56 490.03 M 298.8 525.89 L 358.56 525.89 M 310.75 478.08 L 310.75 490.03 M 346.61 478.08 L 346.61 490.03 M 310.75 525.89 L 310.75 537.84 M 346.61 525.89 L 346.61 537.84 M 358.56 525.89 L 418.32 525.89 M 370.51 478.08 L 370.51 490.03 L 358.56 490.03 M 418.32 490.03 L 406.37 490.03 L 406.37 478.08 M 418.32 490.03 L 478.08 490.03 M 418.32 525.89 L 478.08 525.89 M 430.27 478.08 L 430.27 490.03 M 466.13 478.08 L 466.13 490.03 M 430.27 525.89 L 430.27 537.84 M 466.13 525.89 L 466.13 537.84 M 478.08 490.03 L 537.84 490.03 M 478.08 525.89 L 537.84 525.89 M 537.84 525.89 L 549.79 525.89 L 549.79 537.84 M 537.84 490.03 L 585.65 490.03 L 585.65 537.84 M 47.81 537.84 L 47.81 544.58 L 47.81 585.65 L 11.95 585.65 L 11.95 537.84 M 119.52 549.79 L 107.57 549.79 L 107.57 537.84 M 119.52 585.65 L 71.71 585.65 L 71.71 537.84 M 119.52 585.65 L 167.33 585.65 L 167.33 549.79 L 119.52 549.79 M 239.04 549.79 L 227.09 549.79 L 227.09 537.84 M 239.04 585.65 L 191.23 585.65 L 191.23 537.84 M 239.04 585.65 L 286.85 585.65 L 286.85 549.79 L 239.04 549.79 M 346.61 537.84 L 346.61 544.58 L 346.61 585.65 L 310.75 585.65 L 310.75 537.84 M 418.32 585.65 L 370.51 585.65 L 370.51 549.79 L 418.32 549.79 M 430.27 537.84 L 430.27 549.79 L 418.32 549.79 M 466.13 537.84 L 466.13 585.65 L 418.32 585.65 M 537.84 585.65 L 490.03 585.65 L 490.03 549.79 L 537.84 549.79 " /> <circle cx="29.88" cy="29.88" r="19.92" fill-opacity="1.0" stroke-opacity="0" fill="#E51919" /><circle cx="567.72" cy="567.72" r="19.92" fill-opacity="1.0" stroke-opacity="0" fill="#E51919" /> <path stroke-opacity="1.0" stroke-width="5" stroke="#E51919" d="M 29.88 59.76 L 29.88 29.88 M 29.88 59.76 L 29.88 119.52 M 59.76 149.4 L 29.88 149.4 L 29.88 119.52 M 59.76 149.4 L 89.64 149.4 L 89.64 179.28 M 119.52 268.92 L 89.64 268.92 L 89.64 239.04 M 89.64 179.28 L 89.64 239.04 M 209.16 239.04 L 209.16 268.92 L 179.28 268.92 M 119.52 268.92 L 179.28 268.92 M 179.28 209.16 L 209.16 209.16 L 209.16 239.04 M 179.28 209.16 L 149.4 209.16 L 149.4 239.04 M 179.28 328.68 L 149.4 328.68 L 149.4 298.8 M 149.4 239.04 L 149.4 250.99 M 149.4 298.8 L 149.4 286.85 M 239.04 328.68 L 268.92 328.68 L 268.92 358.56 M 179.28 328.68 L 239.04 328.68 M 268.92 358.56 L 268.92 418.32 M 298.8 507.96 L 268.92 507.96 L 268.92 478.08 M 268.92 418.32 L 268.92 478.08 M 358.56 507.96 L 418.32 507.96 M 298.8 507.96 L 358.56 507.96 M 478.08 507.96 L 537.84 507.96 M 418.32 507.96 L 478.08 507.96 M 567.72 537.84 L 567.72 567.72 M 537.84 507.96 L 567.72 507.96 L 567.72 537.84 " />  <path stroke-opacity="0.2" stroke-width="5" stroke="#E51919" d="M 29.88 59.76 L 29.88 29.88 M 149.4 250.99 L 149.4 268.92 M 149.4 286.85 L 149.4 268.92 M 567.72 537.84 L 567.72 567.72 " />   </svg>