<svg id="maze" xmlns="http://www.w3.org/2000/svg" viewBox="0 0 597.6 597.6"  width="597.6px" height="597.6px" stroke-width="2" fill-opacity="0.0" stroke="black"> <path stroke-opacity="1.0" stroke-width="2" stroke="#000000" d="M 59.76 47.81 L 71.71 47.81 L 71.71 59.76 M 59.76 11.95 L 107.57 11.95 L 107.57 59.76 M 179.28 47.81 L 167.33 47.81 L 167.33 59.76 M 179.28 11.95 L 131.47 11.95 L 131.47 59.76 M 179.28 47.81 L 191.23 47.81 L 191.23 59.76 M 179.28 11.95 L 227.09 11.95 L 227.09 59.76 M 286.85 59.76 L 286.85 11.95 L 250.99 11.95 L 250.99 59.76 M 346.61 59.76 L 346.61 11.95 L 310.75 11.95 L 310.75 59.76 M 406.37 59.76 L 406.37 11.95 L 370.51 11.95 L 370.51 59.76 M 466.13 59.76 L 466.13 11.95 L 430.27 11.95 L 430.27 59.76 M 525.89 59.76 L 525.89 11.95 L 490.03 11.95 L 490.03 59.76 M 585.65 59.76 L 585.65 11.95 L 549.79 11.95 L 549.79 59.76 M 59.76 107.57 L 11.95 107.57 L 11.95 71.71 L 59.76 71.71 M 71.71 59.76 L 71.71 119.52 M 107.57 59.76 L 107.57 119.52 M 59.76 71.71 L 71.71 71.71 M 59.76 107.57 L 71.71 107.57 M 119.52 71.71 L 107.57 71.71 M 119.52 107.57 L 107.57 107.57 M 119.52 107.57 L 179.28 107.57 M 131.47 59.76 L 131.47 71.71 L 119.52 71.71 M 179.28 71.71 L 167.33 71.71 L 167.33 59.76 M 179.28 71.71 L 239.04 71.71 M 179.28 107.57 L 239.04 107.57 M 191.23 59.76 L 191.23 71.71 M 227.09 59.76 L 227.09 71.71 M 191.23 107.57 L 191.23 119.52 M 227.09 107.57 L 227.09 119.52 M 286.85 59.76 L 286.85 119.52 M 250.99 59.76 L 250.99 71.71 L 239.04 71.71 M 239.04 107.57 L 250.99 107.57 L 250.99 119.52 M 310.75 59.76 L 310.75 119.52 M 358.56 71.71 L 346.61 71.71 L 346.61 59.76 M 358.56 107.57 L 346.61 107.57 L 346.61 119.52 M 358.56 71.71 L 418.32 71.71 M 358.56 107.57 L 418.32 107.57 M 370.51 59.76 L 370.51 71.71 M 406.37 59.76 L 406.37 71.71 M 370.51 107.57 L 370.51 119.52 M 406.37 107.57 L 406.37 119.52 M 430.27 59.76 L 430.27 71.71 L 418.32 71.71 M 418.32 107.57 L 430.27 107.57 L 430.27 119.52 M 478.08 71.71 L 466.13 71.71 L 466.13 59.76 M 478.08 107.57 L 466.13 107.57 L 466.13 119.52 M 478.08 107.57 L 537.84 107.57 M 490.03 59.76 L 490.03 71.71 L 478.08 71.71 M 537.84 71.71 L 525.89 71.71 L 525.89 59.76 M 585.65 59.76 L 585.65 119.52 M 549.79 59.76 L 549.79 71.71 L 537.84 71.71 M 537.84 107.57 L 549.79 107.57 L 549.79 119.52 M 59.76 167.33 L 11.95 167.33 L 11.95 131.47 L 59.76 131.47 M 107.57 119.52 L 107.57 179.28 M 71.71 119.52 L 71.71 131.47 L 59.76 131.47 M 59.76 167.33 L 71.71 167.33 L 71.71 179.28 M 179.28 167.33 L 131.47 167.33 L 131.47 131.47 L 179.28 131.47 M 227.09 119.52 L 227.09 179.28 M 191.23 119.52 L 191.23 131.47 L 179.28 131.47 M 179.28 167.33 L 191.23 167.33 L 191.23 179.28 M 298.8 131.47 L 286.85 131.47 L 286.85 119.52 M 298.8 167.33 L 250.99 167.33 L 250.99 119.52 M 298.8 131.47 L 358.56 131.47 M 298.8 167.33 L 358.56 167.33 M 310.75 119.52 L 310.75 131.47 M 346.61 119.52 L 346.61 131.47 M 310.75 167.33 L 310.75 179.28 M 346.61 167.33 L 346.61 179.28 M 370.51 119.52 L 370.51 131.47 L 358.56 131.47 M 358.56 167.33 L 370.51 167.33 L 370.51 179.28 M 418.32 131.47 L 406.37 131.47 L 406.37 119.52 M 418.32 167.33 L 406.37 167.33 L 406.37 179.28 M 466.13 119.52 L 466.13 179.28 M 430.27 119.52 L 430.27 131.47 L 418.32 131.47 M 418.32 167.33 L 430.27 167.33 L 430.27 179.28 M 537.84 167.33 L 490.03 167.33 L 490.03 131.47 L 537.84 131.47 M 549.79 119.52 L 549.79 131.47 L 537.84 131.47 M 585.65 119.52 L 585.65 167.33 L 537.84 167.33 M 59.76 227.09 L 47.81 227.09 L 47.81 239.04 M 59.76 191.23 L 11.95 191.23 L 11.95 239.04 M 71.71 179.28 L 71.71 239.04 M 107.57 179.28 L 107.57 239.04 M 59.76 191.23 L 71.71 191.23 M 59.76 227.09 L 71.71 227.09 M 119.52 191.23 L 107.57 191.23 M 119.52 227.09 L 107.57 227.09 M 119.52 191.23 L 179.28 191.23 M 119.52 227.09 L 179.28 227.09 M 191.23 179.28 L 191.23 239.04 M 227.09 179.28 L 227.09 239.04 M 179.28 191.23 L 191.23 191.23 M 179.28 227.09 L 191.23 227.09 M 239.04 191.23 L 227.09 191.23 M 239.04 227.09 L 227.09 227.09 M 239.04 227.09 L 286.85 227.09 L 286.85 191.23 L 239.04 191.23 M 310.75 179.28 L 310.75 239.04 M 346.61 179.28 L 346.61 239.04 M 370.51 179.28 L 370.51 239.04 M 418.32 191.23 L 406.37 191.23 L 406.37 179.28 M 418.32 227.09 L 406.37 227.09 L 406.37 239.04 M 430.27 179.28 L 430.27 239.04 M 466.13 179.28 L 466.13 239.04 M 418.32 191.23 L 430.27 191.23 M 418.32 227.09 L 430.27 227.09 M 478.08 191.23 L 466.13 191.23 M 478.08 227.09 L 466.13 227.09 M 478.08 191.23 L 537.84 191.23 M 478.08 227.09 L 490.03 227.09 L 490.03 239.04 M 537.84 227.09 L 525.89 227.09 L 525.89 239.04 M 537.84 227.09 L 549.79 227.09 L 549.79 239.04 M 537.84 191.23 L 585.65 191.23 L 585.65 239.04 M 59.76 250.99 L 47.81 250.99 L 47.81 239.04 M 59.76 286.85 L 11.95 286.85 L 11.95 239.04 M 71.71 239.04 L 71.71 250.99 L 59.76 250.99 M 59.76 286.85 L 71.71 286.85 L 71.71 298.8 M 119.52 250.99 L 107.57 250.99 L 107.57 239.04 M 119.52 286.85 L 107.57 286.85 L 107.57 298.8 M 119.52 250.99 L 179.28 250.99 M 119.52 286.85 L 131.47 286.85 L 131.47 298.8 M 179.28 286.85 L 167.33 286.85 L 167.33 298.8 M 227.09 239.04 L 227.09 298.8 M 191.23 239.04 L 191.23 250.99 L 179.28 250.99 M 179.28 286.85 L 191.23 286.85 L 191.23 298.8 M 298.8 286.85 L 250.99 286.85 L 250.99 250.99 L 298.8 250.99 M 310.75 239.04 L 310.75 298.8 M 346.61 239.04 L 346.61 298.8 M 298.8 250.99 L 310.75 250.99 M 298.8 286.85 L 310.75 286.85 M 358.56 250.99 L 346.61 250.99 M 358.56 286.85 L 346.61 286.85 M 370.51 239.04 L 370.51 250.99 L 358.56 250.99 M 406.37 239.04 L 406.37 286.85 L 358.56 286.85 M 430.27 239.04 L 430.27 298.8 M 466.13 239.04 L 466.13 298.8 M 525.89 239.04 L 525.89 245.78 L 525.89 286.85 L 490.03 286.85 L 490.03 239.04 M 549.79 239.04 L 549.79 298.8 M 585.65 239.04 L 585.65 298.8 M 59.76 346.61 L 47.81 346.61 L 47.81 358.56 M 59.76 310.75 L 11.95 310.75 L 11.95 358.56 M 71.71 298.8 L 71.71 358.56 M 107.57 298.8 L 107.57 358.56 M 59.76 310.75 L 71.71 310.75 M 59.76 346.61 L 71.71 346.61 M 119.52 310.75 L 107.57 310.75 M 119.52 346.61 L 107.57 346.61 M 167.33 298.8 L 167.33 358.56 M 131.47 298.8 L 131.47 310.75 L 119.52 310.75 M 119.52 346.61 L 131.47 346.61 L 131.47 358.56 M 239.04 310.75 L 227.09 310.75 L 227.09 298.8 M 239.04 346.61 L 191.23 346.61 L 191.23 298.8 M 239.04 346.61 L 250.99 346.61 L 250.99 358.56 M 239.04 310.75 L 286.85 310.75 L 286.85 358.56 M 310.75 298.8 L 310.75 358.56 M 346.61 298.8 L 346.61 358.56 M 418.32 346.61 L 406.37 346.61 L 406.37 358.56 M 418.32 310.75 L 370.51 310.75 L 370.51 358.56 M 430.27 298.8 L 430.27 358.56 M 466.13 298.8 L 466.13 358.56 M 418.32 310.75 L 430.27 310.75 M 418.32 346.61 L 430.27 346.61 M 478.08 310.75 L 466.13 310.75 M 478.08 346.61 L 466.13 346.61 M 478.08 346.61 L 490.03 346.61 L 490.03 358.56 M 478.08 310.75 L 525.89 310.75 L 525.89 358.56 M 585.65 298.8 L 585.65 305.54 L 585.65 346.61 L 549.79 346.61 L 549.79 298.8 M 47.81 358.56 L 47.81 365.3 L 47.81 406.37 L 11.95 406.37 L 11.95 358.56 M 71.71 358.56 L 71.71 418.32 M 119.52 370.51 L 107.57 370.51 L 107.57 358.56 M 119.52 406.37 L 107.57 406.37 L 107.57 418.32 M 131.47 358.56 L 131.47 418.32 M 167.33 358.56 L 167.33 418.32 M 119.52 370.51 L 131.47 370.51 M 119.52 406.37 L 131.47 406.37 M 179.28 370.51 L 167.33 370.51 M 179.28 406.37 L 167.33 406.37 M 179.28 406.37 L 191.23 406.37 L 191.23 418.32 M 179.28 370.51 L 227.09 370.51 L 227.09 418.32 M 298.8 370.51 L 286.85 370.51 L 286.85 358.56 M 298.8 406.37 L 250.99 406.37 L 250.99 358.56 M 298.8 370.51 L 358.56 370.51 M 298.8 406.37 L 358.56 406.37 M 310.75 358.56 L 310.75 370.51 M 346.61 358.56 L 346.61 370.51 M 310.75 406.37 L 310.75 418.32 M 346.61 406.37 L 346.61 418.32 M 406.37 358.56 L 406.37 418.32 M 370.51 358.56 L 370.51 370.51 L 358.56 370.51 M 358.56 406.37 L 370.51 406.37 L 370.51 418.32 M 478.08 370.51 L 466.13 370.51 L 466.13 358.56 M 478.08 406.37 L 430.27 406.37 L 430.27 358.56 M 490.03 358.56 L 490.03 418.32 M 525.89 358.56 L 525.89 418.32 M 478.08 370.51 L 490.03 370.51 M 478.08 406.37 L 490.03 406.37 M 537.84 370.51 L 525.89 370.51 M 537.84 406.37 L 525.89 406.37 M 537.84 406.37 L 585.65 406.37 L 585.65 370.51 L 537.84 370.51 M 59.76 466.13 L 47.81 466.13 L 47.81 478.08 M 59.76 430.27 L 11.95 430.27 L 11.95 478.08 M 71.71 418.32 L 71.71 478.08 M 107.57 418.32 L 107.57 478.08 M 59.76 430.27 L 71.71 430.27 M 59.76 466.13 L 71.71 466.13 M 119.52 430.27 L 107.57 430.27 M 119.52 466.13 L 107.57 466.13 M 131.47 418.32 L 131.47 430.27 L 119.52 430.27 M 119.52 466.13 L 131.47 466.13 L 131.47 478.08 M 179.28 430.27 L 167.33 430.27 L 167.33 418.32 M 179.28 466.13 L 167.33 466.13 L 167.33 478.08 M 191.23 418.32 L 191.23 478.08 M 227.09 418.32 L 227.09 478.08 M 179.28 430.27 L 191.23 430.27 M 179.28 466.13 L 191.23 466.13 M 239.04 430.27 L 227.09 430.27 M 239.04 466.13 L 227.09 466.13 M 239.04 466.13 L 250.99 466.13 L 250.99 478.08 M 239.04 430.27 L 286.85 430.27 L 286.85 478.08 M 346.61 418.32 L 346.61 425.06 L 346.61 466.13 L 310.75 466.13 L 310.75 418.32 M 418.32 430.27 L 406.37 430.27 L 406.37 418.32 M 418.32 466.13 L 370.51 466.13 L 370.51 418.32 M 418.32 466.13 L 430.27 466.13 L 430.27 478.08 M 418.32 430.27 L 466.13 430.27 L 466.13 478.08 M 490.03 418.32 L 490.03 478.08 M 525.89 418.32 L 525.89 478.08 M 585.65 478.08 L 585.65 430.27 L 549.79 430.27 L 549.79 478.08 M 47.81 478.08 L 47.81 484.82 L 47.81 525.89 L 11.95 525.89 L 11.95 478.08 M 107.57 478.08 L 107.57 484.82 L 107.57 525.89 L 71.71 525.89 L 71.71 478.08 M 167.33 478.08 L 167.33 484.82 L 167.33 525.89 L 131.47 525.89 L 131.47 478.08 M 227.09 478.08 L 227.09 484.82 L 227.09 525.89 L 191.23 525.89 L 191.23 478.08 M 250.99 478.08 L 250.99 537.84 M 298.8 490.03 L 286.85 490.03 L 286.85 478.08 M 298.8 525.89 L 286.85 525.89 L 286.85 537.84 M 298.8 525.89 L 346.61 525.89 L 346.61 490.03 L 298.8 490.03 M 418.32 525.89 L 370.51 525.89 L 370.51 490.03 L 418.32 490.03 M 466.13 478.08 L 466.13 537.84 M 430.27 478.08 L 430.27 490.03 L 418.32 490.03 M 418.32 525.89 L 430.27 525.89 L 430.27 537.84 M 490.03 478.08 L 490.03 537.84 M 525.89 478.08 L 525.89 537.84 M 549.79 478.08 L 549.79 537.84 M 585.65 478.08 L 585.65 537.84 M 59.76 585.65 L 11.95 585.65 L 11.95 549.79 L 59.76 549.79 M 59.76 549.79 L 119.52 549.79 M 59.76 585.65 L 119.52 585.65 M 119.52 549.79 L 179.28 549.79 M 119.52 585.65 L 179.28 585.65 M 179.28 549.79 L 239.04 549.79 M 179.28 585.65 L 239.04 585.65 M 239.04 585.65 L 298.8 585.65 M 250.99 537.84 L 250.99 549.79 L 239.04 549.79 M 298.8 549.79 L 286.85 549.79 L 286.85 537.84 M 298.8 585.65 L 346.61 585.65 L 346.61 549.79 L 298.8 549.79 M 418.32 585.65 L 370.51 585.65 L 370.51 549.79 L 418.32 549.79 M 430.27 537.84 L 430.27 549.79 L 418.32 549.79 M 466.13 537.84 L 466.13 585.65 L 418.32 585.65 M 537.84 549.79 L 525.89 549.79 L 525.89 537.84 M 537.84 585.65 L 490.03 585.65 L 490.03 537.84 " /> <circle cx="29.88" cy="29.88" r="19.92" fill-opacity="1.0" stroke-opacity="0" fill="#E51919" /><circle cx="567.72" cy="567.72" r="19.92" fill-opacity="1.0" stroke-opacity="0" fill="#E51919" /> <path stroke-opacity="1.0" stroke-width="5" stroke="#E51919" d="M 29.88 29.88 L 59.76 29.88 M 59.76 29.88 L 89.64 29.88 L 89.64 59.76 M 89.64 119.52 L 89.64 179.28 M 89.64 59.76 L 89.64 119.52 M 119.52 268.92 L 89.64 268.92 L 89.64 239.04 M 89.64 179.28 L 89.64 239.04 M 119.52 268.92 L 179.28 268.92 M 179.28 268.92 L 209.16 268.92 L 209.16 298.8 M 239.04 328.68 L 209.16 328.68 L 209.16 298.8 M 239.04 328.68 L 268.92 328.68 L 268.92 358.56 M 298.8 388.44 L 268.92 388.44 L 268.92 358.56 M 388.44 358.56 L 388.44 388.44 L 358.56 388.44 M 298.8 388.44 L 358.56 388.44 M 418.32 328.68 L 388.44 328.68 L 388.44 358.56 M 478.08 328.68 L 507.96 328.68 L 507.96 358.56 M 418.32 328.68 L 430.27 328.68 M 478.08 328.68 L 466.13 328.68 M 507.96 418.32 L 507.96 478.08 M 507.96 358.56 L 507.96 418.32 M 507.96 478.08 L 507.96 537.84 M 567.72 567.72 L 537.84 567.72 M 537.84 567.72 L 507.96 567.72 L 507.96 537.84 " />  <path stroke-opacity="0.2" stroke-width="5" stroke="#E51919" d="M 29.88 29.88 L 59.76 29.88 M 430.27 328.68 L 448.2 328.68 M 466.13 328.68 L 448.2 328.68 M 567.72 567.72 L 537.84 567.72 " />   </svg>