<svg id="maze" xmlns="http://www.w3.org/2000/svg" viewBox="0 0 597.6 597.6"  width="597.6px" height="597.6px" stroke-width="2" fill-opacity="0.0" stroke="black"> <path stroke-opacity="1.0" stroke-width="2" stroke="#000000" d="M 107.57 59.76 L 107.57 11.95 L 71.71 11.95 L 71.71 59.76 M 179.28 47.81 L 167.33 47.81 L 167.33 59.76 M 179.28 11.95 L 131.47 11.95 L 131.47 59.76 M 179.28 11.95 L 239.04 11.95 M 179.28 47.81 L 191.23 47.81 L 191.23 59.76 M 239.04 47.81 L 227.09 47.81 L 227.09 59.76 M 239.04 47.81 L 250.99 47.81 L 250.99 59.76 M 239.04 11.95 L 286.85 11.95 L 286.85 59.76 M 358.56 47.81 L 346.61 47.81 L 346.61 59.76 M 358.56 11.95 L 310.75 11.95 L 310.75 59.76 M 358.56 47.81 L 406.37 47.81 L 406.37 11.95 L 358.56 11.95 M 478.08 47.81 L 430.27 47.81 L 430.27 11.95 L 478.08 11.95 M 478.08 47.81 L 490.03 47.81 L 490.03 59.76 M 478.08 11.95 L 525.89 11.95 L 525.89 59.76 M 585.65 59.76 L 585.65 11.95 L 549.79 11.95 L 549.79 59.76 M 59.76 71.71 L 47.81 71.71 L 47.81 59.76 M 59.76 107.57 L 11.95 107.57 L 11.95 59.76 M 59.76 71.71 L 119.52 71.71 M 59.76 107.57 L 119.52 107.57 M 71.71 59.76 L 71.71 71.71 M 107.57 59.76 L 107.57 71.71 M 71.71 107.57 L 71.71 119.52 M 107.57 107.57 L 107.57 119.52 M 167.33 59.76 L 167.33 119.52 M 131.47 59.76 L 131.47 71.71 L 119.52 71.71 M 119.52 107.57 L 131.47 107.57 L 131.47 119.52 M 239.04 71.71 L 227.09 71.71 L 227.09 59.76 M 239.04 107.57 L 191.23 107.57 L 191.23 59.76 M 250.99 59.76 L 250.99 119.52 M 286.85 59.76 L 286.85 119.52 M 239.04 71.71 L 250.99 71.71 M 239.04 107.57 L 250.99 107.57 M 298.8 71.71 L 286.85 71.71 M 298.8 107.57 L 286.85 107.57 M 310.75 59.76 L 310.75 71.71 L 298.8 71.71 M 346.61 59.76 L 346.61 107.57 L 298.8 107.57 M 418.32 107.57 L 370.51 107.57 L 370.51 71.71 L 418.32 71.71 M 418.32 71.71 L 478.08 71.71 M 418.32 107.57 L 430.27 107.57 L 430.27 119.52 M 478.08 107.57 L 466.13 107.57 L 466.13 119.52 M 490.03 59.76 L 490.03 119.52 M 525.89 59.76 L 525.89 119.52 M 478.08 71.71 L 490.03 71.71 M 478.08 107.57 L 490.03 107.57 M 537.84 71.71 L 525.89 71.71 M 537.84 107.57 L 525.89 107.57 M 585.65 59.76 L 585.65 119.52 M 549.79 59.76 L 549.79 71.71 L 537.84 71.71 M 537.84 107.57 L 549.79 107.57 L 549.79 119.52 M 59.76 167.33 L 11.95 167.33 L 11.95 131.47 L 59.76 131.47 M 71.71 119.52 L 71.71 131.47 L 59.76 131.47 M 59.76 167.33 L 71.71 167.33 L 71.71 179.28 M 119.52 131.47 L 107.57 131.47 L 107.57 119.52 M 119.52 167.33 L 107.57 167.33 L 107.57 179.28 M 131.47 119.52 L 131.47 179.28 M 167.33 119.52 L 167.33 179.28 M 119.52 131.47 L 131.47 131.47 M 119.52 167.33 L 131.47 167.33 M 179.28 131.47 L 167.33 131.47 M 179.28 167.33 L 167.33 167.33 M 179.28 167.33 L 227.09 167.33 L 227.09 131.47 L 179.28 131.47 M 298.8 131.47 L 286.85 131.47 L 286.85 119.52 M 298.8 167.33 L 250.99 167.33 L 250.99 119.52 M 298.8 167.33 L 310.75 167.33 L 310.75 179.28 M 298.8 131.47 L 346.61 131.47 L 346.61 179.28 M 418.32 167.33 L 406.37 167.33 L 406.37 179.28 M 418.32 131.47 L 370.51 131.47 L 370.51 179.28 M 430.27 119.52 L 430.27 179.28 M 466.13 119.52 L 466.13 179.28 M 418.32 131.47 L 430.27 131.47 M 418.32 167.33 L 430.27 167.33 M 478.08 131.47 L 466.13 131.47 M 478.08 167.33 L 466.13 167.33 M 478.08 167.33 L 537.84 167.33 M 490.03 119.52 L 490.03 131.47 L 478.08 131.47 M 537.84 131.47 L 525.89 131.47 L 525.89 119.52 M 549.79 119.52 L 549.79 131.47 L 537.84 131.47 M 585.65 119.52 L 585.65 167.33 L 537.84 167.33 M 59.76 227.09 L 47.81 227.09 L 47.81 239.04 M 59.76 191.23 L 11.95 191.23 L 11.95 239.04 M 59.76 191.23 L 119.52 191.23 M 59.76 227.09 L 119.52 227.09 M 71.71 179.28 L 71.71 191.23 M 107.57 179.28 L 107.57 191.23 M 71.71 227.09 L 71.71 239.04 M 107.57 227.09 L 107.57 239.04 M 119.52 227.09 L 179.28 227.09 M 131.47 179.28 L 131.47 191.23 L 119.52 191.23 M 179.28 191.23 L 167.33 191.23 L 167.33 179.28 M 179.28 191.23 L 239.04 191.23 M 179.28 227.09 L 191.23 227.09 L 191.23 239.04 M 239.04 227.09 L 227.09 227.09 L 227.09 239.04 M 239.04 191.23 L 298.8 191.23 M 239.04 227.09 L 298.8 227.09 M 310.75 179.28 L 310.75 239.04 M 346.61 179.28 L 346.61 239.04 M 298.8 191.23 L 310.75 191.23 M 298.8 227.09 L 310.75 227.09 M 358.56 191.23 L 346.61 191.23 M 358.56 227.09 L 346.61 227.09 M 406.37 179.28 L 406.37 239.04 M 370.51 179.28 L 370.51 191.23 L 358.56 191.23 M 358.56 227.09 L 370.51 227.09 L 370.51 239.04 M 466.13 179.28 L 466.13 186.02 L 466.13 227.09 L 430.27 227.09 L 430.27 179.28 M 537.84 227.09 L 525.89 227.09 L 525.89 239.04 M 537.84 191.23 L 490.03 191.23 L 490.03 239.04 M 537.84 227.09 L 585.65 227.09 L 585.65 191.23 L 537.84 191.23 M 47.81 239.04 L 47.81 245.78 L 47.81 286.85 L 11.95 286.85 L 11.95 239.04 M 71.71 239.04 L 71.71 298.8 M 107.57 239.04 L 107.57 298.8 M 167.33 298.8 L 167.33 250.99 L 131.47 250.99 L 131.47 298.8 M 191.23 239.04 L 191.23 298.8 M 227.09 239.04 L 227.09 298.8 M 298.8 286.85 L 286.85 286.85 L 286.85 298.8 M 298.8 250.99 L 250.99 250.99 L 250.99 298.8 M 310.75 239.04 L 310.75 250.99 L 298.8 250.99 M 346.61 239.04 L 346.61 286.85 L 298.8 286.85 M 370.51 239.04 L 370.51 298.8 M 406.37 239.04 L 406.37 298.8 M 478.08 286.85 L 466.13 286.85 L 466.13 298.8 M 478.08 250.99 L 430.27 250.99 L 430.27 298.8 M 478.08 250.99 L 537.84 250.99 M 478.08 286.85 L 537.84 286.85 M 490.03 239.04 L 490.03 250.99 M 525.89 239.04 L 525.89 250.99 M 490.03 286.85 L 490.03 298.8 M 525.89 286.85 L 525.89 298.8 M 537.84 286.85 L 549.79 286.85 L 549.79 298.8 M 537.84 250.99 L 585.65 250.99 L 585.65 298.8 M 59.76 346.61 L 11.95 346.61 L 11.95 310.75 L 59.76 310.75 M 59.76 346.61 L 119.52 346.61 M 71.71 298.8 L 71.71 310.75 L 59.76 310.75 M 119.52 310.75 L 107.57 310.75 L 107.57 298.8 M 131.47 298.8 L 131.47 358.56 M 167.33 298.8 L 167.33 358.56 M 119.52 310.75 L 131.47 310.75 M 119.52 346.61 L 131.47 346.61 M 179.28 310.75 L 167.33 310.75 M 179.28 346.61 L 167.33 346.61 M 227.09 298.8 L 227.09 358.56 M 191.23 298.8 L 191.23 310.75 L 179.28 310.75 M 179.28 346.61 L 191.23 346.61 L 191.23 358.56 M 286.85 298.8 L 286.85 305.54 L 286.85 346.61 L 250.99 346.61 L 250.99 298.8 M 346.61 358.56 L 346.61 310.75 L 310.75 310.75 L 310.75 358.56 M 418.32 310.75 L 406.37 310.75 L 406.37 298.8 M 418.32 346.61 L 370.51 346.61 L 370.51 298.8 M 430.27 298.8 L 430.27 358.56 M 466.13 298.8 L 466.13 358.56 M 418.32 310.75 L 430.27 310.75 M 418.32 346.61 L 430.27 346.61 M 478.08 310.75 L 466.13 310.75 M 478.08 346.61 L 466.13 346.61 M 525.89 298.8 L 525.89 358.56 M 490.03 298.8 L 490.03 310.75 L 478.08 310.75 M 478.08 346.61 L 490.03 346.61 L 490.03 358.56 M 585.65 298.8 L 585.65 305.54 L 585.65 346.61 L 549.79 346.61 L 549.79 298.8 M 59.76 406.37 L 11.95 406.37 L 11.95 370.51 L 59.76 370.51 M 59.76 406.37 L 71.71 406.37 L 71.71 418.32 M 59.76 370.51 L 107.57 370.51 L 107.57 418.32 M 179.28 370.51 L 167.33 370.51 L 167.33 358.56 M 179.28 406.37 L 131.47 406.37 L 131.47 358.56 M 191.23 358.56 L 191.23 418.32 M 227.09 358.56 L 227.09 418.32 M 179.28 370.51 L 191.23 370.51 M 179.28 406.37 L 191.23 406.37 M 239.04 370.51 L 227.09 370.51 M 239.04 406.37 L 227.09 406.37 M 239.04 370.51 L 298.8 370.51 M 239.04 406.37 L 250.99 406.37 L 250.99 418.32 M 298.8 406.37 L 286.85 406.37 L 286.85 418.32 M 298.8 370.51 L 358.56 370.51 M 298.8 406.37 L 358.56 406.37 M 310.75 358.56 L 310.75 370.51 M 346.61 358.56 L 346.61 370.51 M 310.75 406.37 L 310.75 418.32 M 346.61 406.37 L 346.61 418.32 M 358.56 406.37 L 370.51 406.37 L 370.51 418.32 M 358.56 370.51 L 406.37 370.51 L 406.37 418.32 M 430.27 358.56 L 430.27 418.32 M 466.13 358.56 L 466.13 418.32 M 525.89 358.56 L 525.89 365.3 L 525.89 406.37 L 490.03 406.37 L 490.03 358.56 M 585.65 418.32 L 585.65 370.51 L 549.79 370.51 L 549.79 418.32 M 59.76 466.13 L 11.95 466.13 L 11.95 430.27 L 59.76 430.27 M 59.76 430.27 L 119.52 430.27 M 59.76 466.13 L 119.52 466.13 M 71.71 418.32 L 71.71 430.27 M 107.57 418.32 L 107.57 430.27 M 71.71 466.13 L 71.71 478.08 M 107.57 466.13 L 107.57 478.08 M 119.52 430.27 L 179.28 430.27 M 119.52 466.13 L 179.28 466.13 M 227.09 418.32 L 227.09 478.08 M 191.23 418.32 L 191.23 430.27 L 179.28 430.27 M 179.28 466.13 L 191.23 466.13 L 191.23 478.08 M 298.8 430.27 L 286.85 430.27 L 286.85 418.32 M 298.8 466.13 L 250.99 466.13 L 250.99 418.32 M 346.61 418.32 L 346.61 478.08 M 310.75 418.32 L 310.75 430.27 L 298.8 430.27 M 298.8 466.13 L 310.75 466.13 L 310.75 478.08 M 370.51 418.32 L 370.51 478.08 M 418.32 430.27 L 406.37 430.27 L 406.37 418.32 M 418.32 466.13 L 406.37 466.13 L 406.37 478.08 M 418.32 430.27 L 478.08 430.27 M 418.32 466.13 L 478.08 466.13 M 430.27 418.32 L 430.27 430.27 M 466.13 418.32 L 466.13 430.27 M 430.27 466.13 L 430.27 478.08 M 466.13 466.13 L 466.13 478.08 M 478.08 466.13 L 490.03 466.13 L 490.03 478.08 M 478.08 430.27 L 525.89 430.27 L 525.89 478.08 M 549.79 418.32 L 549.79 478.08 M 585.65 418.32 L 585.65 478.08 M 59.76 525.89 L 11.95 525.89 L 11.95 490.03 L 59.76 490.03 M 71.71 478.08 L 71.71 490.03 L 59.76 490.03 M 59.76 525.89 L 71.71 525.89 L 71.71 537.84 M 119.52 490.03 L 107.57 490.03 L 107.57 478.08 M 119.52 525.89 L 107.57 525.89 L 107.57 537.84 M 119.52 490.03 L 179.28 490.03 M 119.52 525.89 L 131.47 525.89 L 131.47 537.84 M 179.28 525.89 L 167.33 525.89 L 167.33 537.84 M 191.23 478.08 L 191.23 537.84 M 227.09 478.08 L 227.09 537.84 M 179.28 490.03 L 191.23 490.03 M 179.28 525.89 L 191.23 525.89 M 239.04 490.03 L 227.09 490.03 M 239.04 525.89 L 227.09 525.89 M 239.04 490.03 L 298.8 490.03 M 239.04 525.89 L 250.99 525.89 L 250.99 537.84 M 298.8 525.89 L 286.85 525.89 L 286.85 537.84 M 298.8 490.03 L 358.56 490.03 M 298.8 525.89 L 358.56 525.89 M 310.75 478.08 L 310.75 490.03 M 346.61 478.08 L 346.61 490.03 M 310.75 525.89 L 310.75 537.84 M 346.61 525.89 L 346.61 537.84 M 370.51 478.08 L 370.51 490.03 L 358.56 490.03 M 406.37 478.08 L 406.37 525.89 L 358.56 525.89 M 430.27 478.08 L 430.27 537.84 M 478.08 490.03 L 466.13 490.03 L 466.13 478.08 M 478.08 525.89 L 466.13 525.89 L 466.13 537.84 M 478.08 490.03 L 537.84 490.03 M 478.08 525.89 L 537.84 525.89 M 490.03 478.08 L 490.03 490.03 M 525.89 478.08 L 525.89 490.03 M 490.03 525.89 L 490.03 537.84 M 525.89 525.89 L 525.89 537.84 M 585.65 478.08 L 585.65 537.84 M 549.79 478.08 L 549.79 490.03 L 537.84 490.03 M 537.84 525.89 L 549.79 525.89 L 549.79 537.84 M 59.76 585.65 L 11.95 585.65 L 11.95 549.79 L 59.76 549.79 M 71.71 537.84 L 71.71 549.79 L 59.76 549.79 M 107.57 537.84 L 107.57 585.65 L 59.76 585.65 M 167.33 537.84 L 167.33 544.58 L 167.33 585.65 L 131.47 585.65 L 131.47 537.84 M 239.04 549.79 L 227.09 549.79 L 227.09 537.84 M 239.04 585.65 L 191.23 585.65 L 191.23 537.84 M 250.99 537.84 L 250.99 549.79 L 239.04 549.79 M 286.85 537.84 L 286.85 585.65 L 239.04 585.65 M 346.61 537.84 L 346.61 544.58 L 346.61 585.65 L 310.75 585.65 L 310.75 537.84 M 418.32 585.65 L 370.51 585.65 L 370.51 549.79 L 418.32 549.79 M 418.32 585.65 L 478.08 585.65 M 430.27 537.84 L 430.27 549.79 L 418.32 549.79 M 478.08 549.79 L 466.13 549.79 L 466.13 537.84 M 490.03 537.84 L 490.03 549.79 L 478.08 549.79 M 525.89 537.84 L 525.89 585.65 L 478.08 585.65 " /> <circle cx="29.88" cy="29.88" r="19.92" fill-opacity="1.0" stroke-opacity="0" fill="#E51919" /><circle cx="567.72" cy="567.72" r="19.92" fill-opacity="1.0" stroke-opacity="0" fill="#E51919" /> <path stroke-opacity="1.0" stroke-width="5" stroke="#E51919" d="M 29.88 59.76 L 29.88 29.88 M 59.76 89.64 L 29.88 89.64 L 29.88 59.76 M 119.52 89.64 L 149.4 89.64 L 149.4 119.52 M 59.76 89.64 L 119.52 89.64 M 179.28 209.16 L 149.4 209.16 L 149.4 179.28 M 149.4 119.52 L 149.4 179.28 M 179.28 209.16 L 209.16 209.16 L 209.16 239.04 M 209.16 239.04 L 209.16 298.8 M 209.16 298.8 L 209.16 358.56 M 209.16 418.32 L 209.16 478.08 M 209.16 358.56 L 209.16 418.32 M 239.04 567.72 L 209.16 567.72 L 209.16 537.84 M 209.16 478.08 L 209.16 537.84 M 268.92 537.84 L 268.92 567.72 L 239.04 567.72 M 298.8 507.96 L 268.92 507.96 L 268.92 537.84 M 388.44 478.08 L 388.44 507.96 L 358.56 507.96 M 298.8 507.96 L 358.56 507.96 M 418.32 448.2 L 388.44 448.2 L 388.44 478.08 M 478.08 448.2 L 507.96 448.2 L 507.96 478.08 M 418.32 448.2 L 478.08 448.2 M 507.96 537.84 L 507.96 567.72 L 478.08 567.72 M 507.96 478.08 L 507.96 490.03 M 507.96 537.84 L 507.96 525.89 M 478.08 567.72 L 448.2 567.72 L 448.2 537.84 M 478.08 507.96 L 448.2 507.96 L 448.2 537.84 M 567.72 537.84 L 567.72 567.72 M 537.84 507.96 L 567.72 507.96 L 567.72 537.84 M 478.08 507.96 L 537.84 507.96 " />  <path stroke-opacity="0.2" stroke-width="5" stroke="#E51919" d="M 29.88 59.76 L 29.88 29.88 M 507.96 490.03 L 507.96 507.96 M 507.96 525.89 L 507.96 507.96 M 567.72 537.84 L 567.72 567.72 " />   </svg>