<svg id="maze" xmlns="http://www.w3.org/2000/svg" viewBox="0 0 597.6 597.6"  width="597.6px" height="597.6px" stroke-width="2" fill-opacity="0.0" stroke="black"> <path stroke-opacity="1.0" stroke-width="2" stroke="#000000" d="M 59.76 11.95 L 119.52 11.95 M 59.76 47.81 L 71.71 47.81 L 71.71 59.76 M 119.52 47.81 L 107.57 47.81 L 107.57 59.76 M 119.52 11.95 L 179.28 11.95 M 119.52 47.81 L 179.28 47.81 M 179.28 11.95 L 239.04 11.95 M 179.28 47.81 L 239.04 47.81 M 239.04 47.81 L 250.99 47.81 L 250.99 59.76 M 239.04 11.95 L 286.85 11.95 L 286.85 59.76 M 346.61 59.76 L 346.61 11.95 L 310.75 11.95 L 310.75 59.76 M 418.32 47.81 L 370.51 47.81 L 370.51 11.95 L 418.32 11.95 M 418.32 11.95 L 478.08 11.95 M 418.32 47.81 L 478.08 47.81 M 478.08 11.95 L 537.84 11.95 M 478.08 47.81 L 490.03 47.81 L 490.03 59.76 M 537.84 47.81 L 525.89 47.81 L 525.89 59.76 M 537.84 47.81 L 549.79 47.81 L 549.79 59.76 M 537.84 11.95 L 585.65 11.95 L 585.65 59.76 M 59.76 107.57 L 11.95 107.57 L 11.95 71.71 L 59.76 71.71 M 71.71 59.76 L 71.71 119.52 M 107.57 59.76 L 107.57 119.52 M 59.76 71.71 L 71.71 71.71 M 59.76 107.57 L 71.71 107.57 M 119.52 71.71 L 107.57 71.71 M 119.52 107.57 L 107.57 107.57 M 119.52 71.71 L 179.28 71.71 M 119.52 107.57 L 131.47 107.57 L 131.47 119.52 M 179.28 107.57 L 167.33 107.57 L 167.33 119.52 M 179.28 107.57 L 227.09 107.57 L 227.09 71.71 L 179.28 71.71 M 250.99 59.76 L 250.99 119.52 M 298.8 71.71 L 286.85 71.71 L 286.85 59.76 M 298.8 107.57 L 286.85 107.57 L 286.85 119.52 M 298.8 71.71 L 358.56 71.71 M 298.8 107.57 L 358.56 107.57 M 310.75 59.76 L 310.75 71.71 M 346.61 59.76 L 346.61 71.71 M 310.75 107.57 L 310.75 119.52 M 346.61 107.57 L 346.61 119.52 M 358.56 71.71 L 418.32 71.71 M 358.56 107.57 L 370.51 107.57 L 370.51 119.52 M 418.32 107.57 L 406.37 107.57 L 406.37 119.52 M 418.32 107.57 L 466.13 107.57 L 466.13 71.71 L 418.32 71.71 M 490.03 59.76 L 490.03 119.52 M 525.89 59.76 L 525.89 119.52 M 585.65 59.76 L 585.65 66.5 L 585.65 107.57 L 549.79 107.57 L 549.79 59.76 M 47.81 179.28 L 47.81 131.47 L 11.95 131.47 L 11.95 179.28 M 107.57 119.52 L 107.57 126.26 L 107.57 167.33 L 71.71 167.33 L 71.71 119.52 M 179.28 131.47 L 167.33 131.47 L 167.33 119.52 M 179.28 167.33 L 131.47 167.33 L 131.47 119.52 M 179.28 131.47 L 239.04 131.47 M 179.28 167.33 L 239.04 167.33 M 250.99 119.52 L 250.99 179.28 M 286.85 119.52 L 286.85 179.28 M 239.04 131.47 L 250.99 131.47 M 239.04 167.33 L 250.99 167.33 M 298.8 131.47 L 286.85 131.47 M 298.8 167.33 L 286.85 167.33 M 298.8 167.33 L 358.56 167.33 M 310.75 119.52 L 310.75 131.47 L 298.8 131.47 M 358.56 131.47 L 346.61 131.47 L 346.61 119.52 M 358.56 131.47 L 418.32 131.47 M 358.56 167.33 L 418.32 167.33 M 370.51 119.52 L 370.51 131.47 M 406.37 119.52 L 406.37 131.47 M 370.51 167.33 L 370.51 179.28 M 406.37 167.33 L 406.37 179.28 M 418.32 131.47 L 478.08 131.47 M 418.32 167.33 L 478.08 167.33 M 490.03 119.52 L 490.03 131.47 L 478.08 131.47 M 478.08 167.33 L 490.03 167.33 L 490.03 179.28 M 537.84 131.47 L 525.89 131.47 L 525.89 119.52 M 537.84 167.33 L 525.89 167.33 L 525.89 179.28 M 537.84 167.33 L 549.79 167.33 L 549.79 179.28 M 537.84 131.47 L 585.65 131.47 L 585.65 179.28 M 59.76 191.23 L 47.81 191.23 L 47.81 179.28 M 59.76 227.09 L 11.95 227.09 L 11.95 179.28 M 59.76 227.09 L 71.71 227.09 L 71.71 239.04 M 59.76 191.23 L 107.57 191.23 L 107.57 239.04 M 167.33 239.04 L 167.33 191.23 L 131.47 191.23 L 131.47 239.04 M 227.09 239.04 L 227.09 191.23 L 191.23 191.23 L 191.23 239.04 M 286.85 179.28 L 286.85 186.02 L 286.85 227.09 L 250.99 227.09 L 250.99 179.28 M 358.56 227.09 L 346.61 227.09 L 346.61 239.04 M 358.56 191.23 L 310.75 191.23 L 310.75 239.04 M 358.56 227.09 L 418.32 227.09 M 370.51 179.28 L 370.51 191.23 L 358.56 191.23 M 418.32 191.23 L 406.37 191.23 L 406.37 179.28 M 418.32 191.23 L 478.08 191.23 M 418.32 227.09 L 478.08 227.09 M 490.03 179.28 L 490.03 191.23 L 478.08 191.23 M 525.89 179.28 L 525.89 227.09 L 478.08 227.09 M 549.79 179.28 L 549.79 239.04 M 585.65 179.28 L 585.65 239.04 M 47.81 298.8 L 47.81 250.99 L 11.95 250.99 L 11.95 298.8 M 119.52 250.99 L 107.57 250.99 L 107.57 239.04 M 119.52 286.85 L 71.71 286.85 L 71.71 239.04 M 119.52 250.99 L 179.28 250.99 M 119.52 286.85 L 179.28 286.85 M 131.47 239.04 L 131.47 250.99 M 167.33 239.04 L 167.33 250.99 M 131.47 286.85 L 131.47 298.8 M 167.33 286.85 L 167.33 298.8 M 227.09 239.04 L 227.09 298.8 M 191.23 239.04 L 191.23 250.99 L 179.28 250.99 M 179.28 286.85 L 191.23 286.85 L 191.23 298.8 M 298.8 286.85 L 250.99 286.85 L 250.99 250.99 L 298.8 250.99 M 310.75 239.04 L 310.75 298.8 M 346.61 239.04 L 346.61 298.8 M 298.8 250.99 L 310.75 250.99 M 298.8 286.85 L 310.75 286.85 M 358.56 250.99 L 346.61 250.99 M 358.56 286.85 L 346.61 286.85 M 358.56 286.85 L 370.51 286.85 L 370.51 298.8 M 358.56 250.99 L 406.37 250.99 L 406.37 298.8 M 466.13 298.8 L 466.13 250.99 L 430.27 250.99 L 430.27 298.8 M 525.89 298.8 L 525.89 250.99 L 490.03 250.99 L 490.03 298.8 M 585.65 239.04 L 585.65 245.78 L 585.65 286.85 L 549.79 286.85 L 549.79 239.04 M 11.95 298.8 L 11.95 358.56 M 47.81 298.8 L 47.81 358.56 M 119.52 346.61 L 71.71 346.61 L 71.71 310.75 L 119.52 310.75 M 131.47 298.8 L 131.47 310.75 L 119.52 310.75 M 119.52 346.61 L 131.47 346.61 L 131.47 358.56 M 179.28 310.75 L 167.33 310.75 L 167.33 298.8 M 179.28 346.61 L 167.33 346.61 L 167.33 358.56 M 179.28 310.75 L 239.04 310.75 M 179.28 346.61 L 239.04 346.61 M 191.23 298.8 L 191.23 310.75 M 227.09 298.8 L 227.09 310.75 M 191.23 346.61 L 191.23 358.56 M 227.09 346.61 L 227.09 358.56 M 239.04 310.75 L 298.8 310.75 M 239.04 346.61 L 298.8 346.61 M 310.75 298.8 L 310.75 310.75 L 298.8 310.75 M 298.8 346.61 L 310.75 346.61 L 310.75 358.56 M 358.56 310.75 L 346.61 310.75 L 346.61 298.8 M 358.56 346.61 L 346.61 346.61 L 346.61 358.56 M 358.56 310.75 L 418.32 310.75 M 358.56 346.61 L 418.32 346.61 M 370.51 298.8 L 370.51 310.75 M 406.37 298.8 L 406.37 310.75 M 370.51 346.61 L 370.51 358.56 M 406.37 346.61 L 406.37 358.56 M 466.13 298.8 L 466.13 358.56 M 430.27 298.8 L 430.27 310.75 L 418.32 310.75 M 418.32 346.61 L 430.27 346.61 L 430.27 358.56 M 490.03 298.8 L 490.03 358.56 M 525.89 298.8 L 525.89 358.56 M 585.65 358.56 L 585.65 310.75 L 549.79 310.75 L 549.79 358.56 M 11.95 358.56 L 11.95 418.32 M 59.76 370.51 L 47.81 370.51 L 47.81 358.56 M 59.76 406.37 L 47.81 406.37 L 47.81 418.32 M 59.76 370.51 L 119.52 370.51 M 59.76 406.37 L 71.71 406.37 L 71.71 418.32 M 119.52 406.37 L 107.57 406.37 L 107.57 418.32 M 131.47 358.56 L 131.47 418.32 M 167.33 358.56 L 167.33 418.32 M 119.52 370.51 L 131.47 370.51 M 119.52 406.37 L 131.47 406.37 M 179.28 370.51 L 167.33 370.51 M 179.28 406.37 L 167.33 406.37 M 191.23 358.56 L 191.23 370.51 L 179.28 370.51 M 227.09 358.56 L 227.09 406.37 L 179.28 406.37 M 298.8 406.37 L 250.99 406.37 L 250.99 370.51 L 298.8 370.51 M 298.8 370.51 L 358.56 370.51 M 298.8 406.37 L 358.56 406.37 M 310.75 358.56 L 310.75 370.51 M 346.61 358.56 L 346.61 370.51 M 310.75 406.37 L 310.75 418.32 M 346.61 406.37 L 346.61 418.32 M 406.37 358.56 L 406.37 418.32 M 370.51 358.56 L 370.51 370.51 L 358.56 370.51 M 358.56 406.37 L 370.51 406.37 L 370.51 418.32 M 430.27 358.56 L 430.27 418.32 M 478.08 370.51 L 466.13 370.51 L 466.13 358.56 M 478.08 406.37 L 466.13 406.37 L 466.13 418.32 M 478.08 370.51 L 537.84 370.51 M 478.08 406.37 L 537.84 406.37 M 490.03 358.56 L 490.03 370.51 M 525.89 358.56 L 525.89 370.51 M 490.03 406.37 L 490.03 418.32 M 525.89 406.37 L 525.89 418.32 M 549.79 358.56 L 549.79 370.51 L 537.84 370.51 M 585.65 358.56 L 585.65 406.37 L 537.84 406.37 M 59.76 430.27 L 47.81 430.27 L 47.81 418.32 M 59.76 466.13 L 11.95 466.13 L 11.95 418.32 M 59.76 430.27 L 119.52 430.27 M 59.76 466.13 L 119.52 466.13 M 71.71 418.32 L 71.71 430.27 M 107.57 418.32 L 107.57 430.27 M 71.71 466.13 L 71.71 478.08 M 107.57 466.13 L 107.57 478.08 M 131.47 418.32 L 131.47 430.27 L 119.52 430.27 M 119.52 466.13 L 131.47 466.13 L 131.47 478.08 M 179.28 430.27 L 167.33 430.27 L 167.33 418.32 M 179.28 466.13 L 167.33 466.13 L 167.33 478.08 M 179.28 466.13 L 227.09 466.13 L 227.09 430.27 L 179.28 430.27 M 286.85 478.08 L 286.85 430.27 L 250.99 430.27 L 250.99 478.08 M 310.75 418.32 L 310.75 478.08 M 346.61 418.32 L 346.61 478.08 M 370.51 418.32 L 370.51 478.08 M 418.32 430.27 L 406.37 430.27 L 406.37 418.32 M 418.32 466.13 L 406.37 466.13 L 406.37 478.08 M 430.27 418.32 L 430.27 430.27 L 418.32 430.27 M 418.32 466.13 L 430.27 466.13 L 430.27 478.08 M 478.08 430.27 L 466.13 430.27 L 466.13 418.32 M 478.08 466.13 L 466.13 466.13 L 466.13 478.08 M 490.03 418.32 L 490.03 430.27 L 478.08 430.27 M 525.89 418.32 L 525.89 466.13 L 478.08 466.13 M 585.65 478.08 L 585.65 430.27 L 549.79 430.27 L 549.79 478.08 M 47.81 537.84 L 47.81 490.03 L 11.95 490.03 L 11.95 537.84 M 71.71 478.08 L 71.71 537.84 M 119.52 490.03 L 107.57 490.03 L 107.57 478.08 M 119.52 525.89 L 107.57 525.89 L 107.57 537.84 M 131.47 478.08 L 131.47 537.84 M 167.33 478.08 L 167.33 537.84 M 119.52 490.03 L 131.47 490.03 M 119.52 525.89 L 131.47 525.89 M 179.28 490.03 L 167.33 490.03 M 179.28 525.89 L 167.33 525.89 M 179.28 525.89 L 191.23 525.89 L 191.23 537.84 M 179.28 490.03 L 227.09 490.03 L 227.09 537.84 M 298.8 490.03 L 286.85 490.03 L 286.85 478.08 M 298.8 525.89 L 250.99 525.89 L 250.99 478.08 M 298.8 490.03 L 358.56 490.03 M 298.8 525.89 L 358.56 525.89 M 310.75 478.08 L 310.75 490.03 M 346.61 478.08 L 346.61 490.03 M 310.75 525.89 L 310.75 537.84 M 346.61 525.89 L 346.61 537.84 M 358.56 525.89 L 418.32 525.89 M 370.51 478.08 L 370.51 490.03 L 358.56 490.03 M 418.32 490.03 L 406.37 490.03 L 406.37 478.08 M 430.27 478.08 L 430.27 537.84 M 466.13 478.08 L 466.13 537.84 M 418.32 490.03 L 430.27 490.03 M 418.32 525.89 L 430.27 525.89 M 478.08 490.03 L 466.13 490.03 M 478.08 525.89 L 466.13 525.89 M 478.08 490.03 L 537.84 490.03 M 478.08 525.89 L 537.84 525.89 M 585.65 478.08 L 585.65 537.84 M 549.79 478.08 L 549.79 490.03 L 537.84 490.03 M 537.84 525.89 L 549.79 525.89 L 549.79 537.84 M 59.76 549.79 L 47.81 549.79 L 47.81 537.84 M 59.76 585.65 L 11.95 585.65 L 11.95 537.84 M 71.71 537.84 L 71.71 549.79 L 59.76 549.79 M 107.57 537.84 L 107.57 585.65 L 59.76 585.65 M 167.33 537.84 L 167.33 544.58 L 167.33 585.65 L 131.47 585.65 L 131.47 537.84 M 227.09 537.84 L 227.09 544.58 L 227.09 585.65 L 191.23 585.65 L 191.23 537.84 M 298.8 585.65 L 250.99 585.65 L 250.99 549.79 L 298.8 549.79 M 298.8 585.65 L 358.56 585.65 M 310.75 537.84 L 310.75 549.79 L 298.8 549.79 M 358.56 549.79 L 346.61 549.79 L 346.61 537.84 M 358.56 585.65 L 406.37 585.65 L 406.37 549.79 L 358.56 549.79 M 466.13 537.84 L 466.13 544.58 L 466.13 585.65 L 430.27 585.65 L 430.27 537.84 M 537.84 585.65 L 490.03 585.65 L 490.03 549.79 L 537.84 549.79 " /> <circle cx="29.88" cy="29.88" r="19.92" fill-opacity="1.0" stroke-opacity="0" fill="#E51919" /><circle cx="567.72" cy="567.72" r="19.92" fill-opacity="1.0" stroke-opacity="0" fill="#E51919" /> <path stroke-opacity="1.0" stroke-width="5" stroke="#E51919" d="M 29.88 29.88 L 59.76 29.88 M 59.76 29.88 L 119.52 29.88 M 119.52 29.88 L 179.28 29.88 M 179.28 29.88 L 239.04 29.88 M 239.04 29.88 L 268.92 29.88 L 268.92 59.76 M 298.8 89.64 L 268.92 89.64 L 268.92 59.76 M 358.56 89.64 L 388.44 89.64 L 388.44 119.52 M 298.8 89.64 L 358.56 89.64 M 388.44 179.28 L 388.44 209.16 L 358.56 209.16 M 388.44 119.52 L 388.44 131.47 M 388.44 179.28 L 388.44 167.33 M 358.56 209.16 L 328.68 209.16 L 328.68 239.04 M 358.56 328.68 L 328.68 328.68 L 328.68 298.8 M 328.68 239.04 L 328.68 298.8 M 418.32 328.68 L 448.2 328.68 L 448.2 358.56 M 358.56 328.68 L 418.32 328.68 M 448.2 358.56 L 448.2 418.32 M 448.2 418.32 L 448.2 448.2 L 418.32 448.2 M 418.32 448.2 L 388.44 448.2 L 388.44 478.08 M 418.32 507.96 L 388.44 507.96 L 388.44 478.08 M 478.08 507.96 L 537.84 507.96 M 418.32 507.96 L 430.27 507.96 M 478.08 507.96 L 466.13 507.96 M 567.72 537.84 L 567.72 567.72 M 537.84 507.96 L 567.72 507.96 L 567.72 537.84 " />  <path stroke-opacity="0.2" stroke-width="5" stroke="#E51919" d="M 29.88 29.88 L 59.76 29.88 M 388.44 131.47 L 388.44 149.4 M 388.44 167.33 L 388.44 149.4 M 430.27 507.96 L 448.2 507.96 M 466.13 507.96 L 448.2 507.96 M 567.72 537.84 L 567.72 567.72 " />   </svg>