<svg id="maze" xmlns="http://www.w3.org/2000/svg" viewBox="0 0 597.6 597.6"  width="597.6px" height="597.6px" stroke-width="2" fill-opacity="0.0" stroke="black"> <path stroke-opacity="1.0" stroke-width="2" stroke="#000000" d="M 119.52 47.81 L 107.57 47.81 L 107.57 59.76 M 119.52 11.95 L 71.71 11.95 L 71.71 59.76 M 119.52 47.81 L 167.33 47.81 L 167.33 11.95 L 119.52 11.95 M 227.09 59.76 L 227.09 11.95 L 191.23 11.95 L 191.23 59.76 M 286.85 59.76 L 286.85 11.95 L 250.99 11.95 L 250.99 59.76 M 358.56 47.81 L 346.61 47.81 L 346.61 59.76 M 358.56 11.95 L 310.75 11.95 L 310.75 59.76 M 358.56 47.81 L 406.37 47.81 L 406.37 11.95 L 358.56 11.95 M 466.13 59.76 L 466.13 11.95 L 430.27 11.95 L 430.27 59.76 M 537.84 47.81 L 525.89 47.81 L 525.89 59.76 M 537.84 11.95 L 490.03 11.95 L 490.03 59.76 M 537.84 47.81 L 549.79 47.81 L 549.79 59.76 M 537.84 11.95 L 585.65 11.95 L 585.65 59.76 M 59.76 71.71 L 47.81 71.71 L 47.81 59.76 M 59.76 107.57 L 11.95 107.57 L 11.95 59.76 M 59.76 71.71 L 119.52 71.71 M 59.76 107.57 L 119.52 107.57 M 71.71 59.76 L 71.71 71.71 M 107.57 59.76 L 107.57 71.71 M 71.71 107.57 L 71.71 119.52 M 107.57 107.57 L 107.57 119.52 M 119.52 71.71 L 179.28 71.71 M 119.52 107.57 L 179.28 107.57 M 179.28 71.71 L 239.04 71.71 M 179.28 107.57 L 239.04 107.57 M 191.23 59.76 L 191.23 71.71 M 227.09 59.76 L 227.09 71.71 M 191.23 107.57 L 191.23 119.52 M 227.09 107.57 L 227.09 119.52 M 250.99 59.76 L 250.99 71.71 L 239.04 71.71 M 239.04 107.57 L 250.99 107.57 L 250.99 119.52 M 298.8 71.71 L 286.85 71.71 L 286.85 59.76 M 298.8 107.57 L 286.85 107.57 L 286.85 119.52 M 310.75 59.76 L 310.75 119.52 M 346.61 59.76 L 346.61 119.52 M 298.8 71.71 L 310.75 71.71 M 298.8 107.57 L 310.75 107.57 M 358.56 71.71 L 346.61 71.71 M 358.56 107.57 L 346.61 107.57 M 358.56 71.71 L 418.32 71.71 M 358.56 107.57 L 370.51 107.57 L 370.51 119.52 M 418.32 107.57 L 406.37 107.57 L 406.37 119.52 M 430.27 59.76 L 430.27 119.52 M 466.13 59.76 L 466.13 119.52 M 418.32 71.71 L 430.27 71.71 M 418.32 107.57 L 430.27 107.57 M 478.08 71.71 L 466.13 71.71 M 478.08 107.57 L 466.13 107.57 M 490.03 59.76 L 490.03 71.71 L 478.08 71.71 M 525.89 59.76 L 525.89 107.57 L 478.08 107.57 M 549.79 59.76 L 549.79 119.52 M 585.65 59.76 L 585.65 119.52 M 59.76 167.33 L 11.95 167.33 L 11.95 131.47 L 59.76 131.47 M 107.57 119.52 L 107.57 179.28 M 71.71 119.52 L 71.71 131.47 L 59.76 131.47 M 59.76 167.33 L 71.71 167.33 L 71.71 179.28 M 167.33 179.28 L 167.33 131.47 L 131.47 131.47 L 131.47 179.28 M 191.23 119.52 L 191.23 179.28 M 239.04 131.47 L 227.09 131.47 L 227.09 119.52 M 239.04 167.33 L 227.09 167.33 L 227.09 179.28 M 239.04 131.47 L 298.8 131.47 M 239.04 167.33 L 298.8 167.33 M 250.99 119.52 L 250.99 131.47 M 286.85 119.52 L 286.85 131.47 M 250.99 167.33 L 250.99 179.28 M 286.85 167.33 L 286.85 179.28 M 298.8 167.33 L 358.56 167.33 M 310.75 119.52 L 310.75 131.47 L 298.8 131.47 M 358.56 131.47 L 346.61 131.47 L 346.61 119.52 M 358.56 131.47 L 418.32 131.47 M 358.56 167.33 L 418.32 167.33 M 370.51 119.52 L 370.51 131.47 M 406.37 119.52 L 406.37 131.47 M 370.51 167.33 L 370.51 179.28 M 406.37 167.33 L 406.37 179.28 M 466.13 119.52 L 466.13 179.28 M 430.27 119.52 L 430.27 131.47 L 418.32 131.47 M 418.32 167.33 L 430.27 167.33 L 430.27 179.28 M 537.84 167.33 L 490.03 167.33 L 490.03 131.47 L 537.84 131.47 M 549.79 119.52 L 549.79 131.47 L 537.84 131.47 M 585.65 119.52 L 585.65 167.33 L 537.84 167.33 M 59.76 227.09 L 11.95 227.09 L 11.95 191.23 L 59.76 191.23 M 59.76 191.23 L 119.52 191.23 M 59.76 227.09 L 119.52 227.09 M 71.71 179.28 L 71.71 191.23 M 107.57 179.28 L 107.57 191.23 M 71.71 227.09 L 71.71 239.04 M 107.57 227.09 L 107.57 239.04 M 131.47 179.28 L 131.47 191.23 L 119.52 191.23 M 119.52 227.09 L 131.47 227.09 L 131.47 239.04 M 179.28 191.23 L 167.33 191.23 L 167.33 179.28 M 179.28 227.09 L 167.33 227.09 L 167.33 239.04 M 179.28 191.23 L 239.04 191.23 M 179.28 227.09 L 239.04 227.09 M 191.23 179.28 L 191.23 191.23 M 227.09 179.28 L 227.09 191.23 M 191.23 227.09 L 191.23 239.04 M 227.09 227.09 L 227.09 239.04 M 286.85 179.28 L 286.85 239.04 M 250.99 179.28 L 250.99 191.23 L 239.04 191.23 M 239.04 227.09 L 250.99 227.09 L 250.99 239.04 M 346.61 239.04 L 346.61 191.23 L 310.75 191.23 L 310.75 239.04 M 418.32 191.23 L 406.37 191.23 L 406.37 179.28 M 418.32 227.09 L 370.51 227.09 L 370.51 179.28 M 418.32 191.23 L 478.08 191.23 M 418.32 227.09 L 478.08 227.09 M 430.27 179.28 L 430.27 191.23 M 466.13 179.28 L 466.13 191.23 M 430.27 227.09 L 430.27 239.04 M 466.13 227.09 L 466.13 239.04 M 478.08 191.23 L 537.84 191.23 M 478.08 227.09 L 490.03 227.09 L 490.03 239.04 M 537.84 227.09 L 525.89 227.09 L 525.89 239.04 M 537.84 227.09 L 585.65 227.09 L 585.65 191.23 L 537.84 191.23 M 47.81 298.8 L 47.81 250.99 L 11.95 250.99 L 11.95 298.8 M 119.52 250.99 L 107.57 250.99 L 107.57 239.04 M 119.52 286.85 L 71.71 286.85 L 71.71 239.04 M 131.47 239.04 L 131.47 298.8 M 167.33 239.04 L 167.33 298.8 M 119.52 250.99 L 131.47 250.99 M 119.52 286.85 L 131.47 286.85 M 179.28 250.99 L 167.33 250.99 M 179.28 286.85 L 167.33 286.85 M 179.28 286.85 L 239.04 286.85 M 191.23 239.04 L 191.23 250.99 L 179.28 250.99 M 239.04 250.99 L 227.09 250.99 L 227.09 239.04 M 239.04 250.99 L 298.8 250.99 M 239.04 286.85 L 298.8 286.85 M 250.99 239.04 L 250.99 250.99 M 286.85 239.04 L 286.85 250.99 M 250.99 286.85 L 250.99 298.8 M 286.85 286.85 L 286.85 298.8 M 298.8 286.85 L 358.56 286.85 M 310.75 239.04 L 310.75 250.99 L 298.8 250.99 M 358.56 250.99 L 346.61 250.99 L 346.61 239.04 M 358.56 286.85 L 370.51 286.85 L 370.51 298.8 M 358.56 250.99 L 406.37 250.99 L 406.37 298.8 M 478.08 250.99 L 466.13 250.99 L 466.13 239.04 M 478.08 286.85 L 430.27 286.85 L 430.27 239.04 M 478.08 250.99 L 537.84 250.99 M 478.08 286.85 L 537.84 286.85 M 490.03 239.04 L 490.03 250.99 M 525.89 239.04 L 525.89 250.99 M 490.03 286.85 L 490.03 298.8 M 525.89 286.85 L 525.89 298.8 M 537.84 286.85 L 549.79 286.85 L 549.79 298.8 M 537.84 250.99 L 585.65 250.99 L 585.65 298.8 M 11.95 298.8 L 11.95 358.56 M 59.76 310.75 L 47.81 310.75 L 47.81 298.8 M 59.76 346.61 L 47.81 346.61 L 47.81 358.56 M 59.76 346.61 L 71.71 346.61 L 71.71 358.56 M 59.76 310.75 L 107.57 310.75 L 107.57 358.56 M 167.33 298.8 L 167.33 305.54 L 167.33 346.61 L 131.47 346.61 L 131.47 298.8 M 239.04 346.61 L 191.23 346.61 L 191.23 310.75 L 239.04 310.75 M 286.85 298.8 L 286.85 358.56 M 250.99 298.8 L 250.99 310.75 L 239.04 310.75 M 239.04 346.61 L 250.99 346.61 L 250.99 358.56 M 358.56 346.61 L 310.75 346.61 L 310.75 310.75 L 358.56 310.75 M 358.56 310.75 L 418.32 310.75 M 358.56 346.61 L 418.32 346.61 M 370.51 298.8 L 370.51 310.75 M 406.37 298.8 L 406.37 310.75 M 370.51 346.61 L 370.51 358.56 M 406.37 346.61 L 406.37 358.56 M 418.32 346.61 L 430.27 346.61 L 430.27 358.56 M 418.32 310.75 L 466.13 310.75 L 466.13 358.56 M 525.89 298.8 L 525.89 305.54 L 525.89 346.61 L 490.03 346.61 L 490.03 298.8 M 549.79 298.8 L 549.79 358.56 M 585.65 298.8 L 585.65 358.56 M 11.95 358.56 L 11.95 418.32 M 59.76 370.51 L 47.81 370.51 L 47.81 358.56 M 59.76 406.37 L 47.81 406.37 L 47.81 418.32 M 59.76 370.51 L 119.52 370.51 M 59.76 406.37 L 119.52 406.37 M 71.71 358.56 L 71.71 370.51 M 107.57 358.56 L 107.57 370.51 M 71.71 406.37 L 71.71 418.32 M 107.57 406.37 L 107.57 418.32 M 119.52 406.37 L 131.47 406.37 L 131.47 418.32 M 119.52 370.51 L 167.33 370.51 L 167.33 418.32 M 239.04 406.37 L 227.09 406.37 L 227.09 418.32 M 239.04 370.51 L 191.23 370.51 L 191.23 418.32 M 239.04 370.51 L 298.8 370.51 M 239.04 406.37 L 298.8 406.37 M 250.99 358.56 L 250.99 370.51 M 286.85 358.56 L 286.85 370.51 M 250.99 406.37 L 250.99 418.32 M 286.85 406.37 L 286.85 418.32 M 298.8 406.37 L 310.75 406.37 L 310.75 418.32 M 298.8 370.51 L 346.61 370.51 L 346.61 418.32 M 370.51 358.56 L 370.51 418.32 M 418.32 370.51 L 406.37 370.51 L 406.37 358.56 M 418.32 406.37 L 406.37 406.37 L 406.37 418.32 M 418.32 370.51 L 478.08 370.51 M 418.32 406.37 L 478.08 406.37 M 430.27 358.56 L 430.27 370.51 M 466.13 358.56 L 466.13 370.51 M 430.27 406.37 L 430.27 418.32 M 466.13 406.37 L 466.13 418.32 M 478.08 406.37 L 490.03 406.37 L 490.03 418.32 M 478.08 370.51 L 525.89 370.51 L 525.89 418.32 M 585.65 358.56 L 585.65 365.3 L 585.65 406.37 L 549.79 406.37 L 549.79 358.56 M 47.81 418.32 L 47.81 425.06 L 47.81 466.13 L 11.95 466.13 L 11.95 418.32 M 71.71 418.32 L 71.71 478.08 M 107.57 418.32 L 107.57 478.08 M 179.28 430.27 L 167.33 430.27 L 167.33 418.32 M 179.28 466.13 L 131.47 466.13 L 131.47 418.32 M 179.28 430.27 L 239.04 430.27 M 179.28 466.13 L 239.04 466.13 M 191.23 418.32 L 191.23 430.27 M 227.09 418.32 L 227.09 430.27 M 191.23 466.13 L 191.23 478.08 M 227.09 466.13 L 227.09 478.08 M 239.04 466.13 L 298.8 466.13 M 250.99 418.32 L 250.99 430.27 L 239.04 430.27 M 298.8 430.27 L 286.85 430.27 L 286.85 418.32 M 298.8 466.13 L 358.56 466.13 M 310.75 418.32 L 310.75 430.27 L 298.8 430.27 M 358.56 430.27 L 346.61 430.27 L 346.61 418.32 M 370.51 418.32 L 370.51 478.08 M 406.37 418.32 L 406.37 478.08 M 358.56 430.27 L 370.51 430.27 M 358.56 466.13 L 370.51 466.13 M 418.32 430.27 L 406.37 430.27 M 418.32 466.13 L 406.37 466.13 M 430.27 418.32 L 430.27 430.27 L 418.32 430.27 M 418.32 466.13 L 430.27 466.13 L 430.27 478.08 M 478.08 430.27 L 466.13 430.27 L 466.13 418.32 M 478.08 466.13 L 466.13 466.13 L 466.13 478.08 M 490.03 418.32 L 490.03 478.08 M 525.89 418.32 L 525.89 478.08 M 478.08 430.27 L 490.03 430.27 M 478.08 466.13 L 490.03 466.13 M 537.84 430.27 L 525.89 430.27 M 537.84 466.13 L 525.89 466.13 M 537.84 466.13 L 585.65 466.13 L 585.65 430.27 L 537.84 430.27 M 59.76 525.89 L 11.95 525.89 L 11.95 490.03 L 59.76 490.03 M 71.71 478.08 L 71.71 537.84 M 107.57 478.08 L 107.57 537.84 M 59.76 490.03 L 71.71 490.03 M 59.76 525.89 L 71.71 525.89 M 119.52 490.03 L 107.57 490.03 M 119.52 525.89 L 107.57 525.89 M 119.52 490.03 L 179.28 490.03 M 119.52 525.89 L 179.28 525.89 M 191.23 478.08 L 191.23 490.03 L 179.28 490.03 M 227.09 478.08 L 227.09 525.89 L 179.28 525.89 M 286.85 537.84 L 286.85 490.03 L 250.99 490.03 L 250.99 537.84 M 346.61 537.84 L 346.61 490.03 L 310.75 490.03 L 310.75 537.84 M 370.51 478.08 L 370.51 537.84 M 406.37 478.08 L 406.37 537.84 M 478.08 490.03 L 466.13 490.03 L 466.13 478.08 M 478.08 525.89 L 430.27 525.89 L 430.27 478.08 M 490.03 478.08 L 490.03 490.03 L 478.08 490.03 M 478.08 525.89 L 490.03 525.89 L 490.03 537.84 M 537.84 490.03 L 525.89 490.03 L 525.89 478.08 M 537.84 525.89 L 525.89 525.89 L 525.89 537.84 M 537.84 525.89 L 549.79 525.89 L 549.79 537.84 M 537.84 490.03 L 585.65 490.03 L 585.65 537.84 M 59.76 585.65 L 11.95 585.65 L 11.95 549.79 L 59.76 549.79 M 59.76 585.65 L 119.52 585.65 M 71.71 537.84 L 71.71 549.79 L 59.76 549.79 M 119.52 549.79 L 107.57 549.79 L 107.57 537.84 M 119.52 549.79 L 179.28 549.79 M 119.52 585.65 L 179.28 585.65 M 179.28 549.79 L 239.04 549.79 M 179.28 585.65 L 239.04 585.65 M 250.99 537.84 L 250.99 549.79 L 239.04 549.79 M 286.85 537.84 L 286.85 585.65 L 239.04 585.65 M 358.56 549.79 L 346.61 549.79 L 346.61 537.84 M 358.56 585.65 L 310.75 585.65 L 310.75 537.84 M 358.56 585.65 L 418.32 585.65 M 370.51 537.84 L 370.51 549.79 L 358.56 549.79 M 418.32 549.79 L 406.37 549.79 L 406.37 537.84 M 418.32 585.65 L 466.13 585.65 L 466.13 549.79 L 418.32 549.79 M 525.89 537.84 L 525.89 544.58 L 525.89 585.65 L 490.03 585.65 L 490.03 537.84 " /> <circle cx="29.88" cy="29.88" r="19.92" fill-opacity="1.0" stroke-opacity="0" fill="#E51919" /><circle cx="567.72" cy="567.72" r="19.92" fill-opacity="1.0" stroke-opacity="0" fill="#E51919" />  </svg>