<svg id="maze" xmlns="http://www.w3.org/2000/svg" viewBox="0 0 597.6 597.6"  width="597.6px" height="597.6px" stroke-width="2" fill-opacity="0.0" stroke="black"> <path stroke-opacity="1.0" stroke-width="2" stroke="#000000" d="M 107.57 59.76 L 107.57 11.95 L 71.71 11.95 L 71.71 59.76 M 179.28 47.81 L 131.47 47.81 L 131.47 11.95 L 179.28 11.95 M 179.28 11.95 L 239.04 11.95 M 179.28 47.81 L 191.23 47.81 L 191.23 59.76 M 239.04 47.81 L 227.09 47.81 L 227.09 59.76 M 239.04 47.81 L 286.85 47.81 L 286.85 11.95 L 239.04 11.95 M 358.56 47.81 L 346.61 47.81 L 346.61 59.76 M 358.56 11.95 L 310.75 11.95 L 310.75 59.76 M 358.56 47.81 L 406.37 47.81 L 406.37 11.95 L 358.56 11.95 M 478.08 47.81 L 466.13 47.81 L 466.13 59.76 M 478.08 11.95 L 430.27 11.95 L 430.27 59.76 M 478.08 47.81 L 490.03 47.81 L 490.03 59.76 M 478.08 11.95 L 525.89 11.95 L 525.89 59.76 M 585.65 59.76 L 585.65 11.95 L 549.79 11.95 L 549.79 59.76 M 59.76 71.71 L 47.81 71.71 L 47.81 59.76 M 59.76 107.57 L 11.95 107.57 L 11.95 59.76 M 71.71 59.76 L 71.71 119.52 M 107.57 59.76 L 107.57 119.52 M 59.76 71.71 L 71.71 71.71 M 59.76 107.57 L 71.71 107.57 M 119.52 71.71 L 107.57 71.71 M 119.52 107.57 L 107.57 107.57 M 119.52 71.71 L 179.28 71.71 M 119.52 107.57 L 131.47 107.57 L 131.47 119.52 M 179.28 107.57 L 167.33 107.57 L 167.33 119.52 M 179.28 71.71 L 239.04 71.71 M 179.28 107.57 L 239.04 107.57 M 191.23 59.76 L 191.23 71.71 M 227.09 59.76 L 227.09 71.71 M 191.23 107.57 L 191.23 119.52 M 227.09 107.57 L 227.09 119.52 M 239.04 71.71 L 298.8 71.71 M 239.04 107.57 L 250.99 107.57 L 250.99 119.52 M 298.8 107.57 L 286.85 107.57 L 286.85 119.52 M 310.75 59.76 L 310.75 119.52 M 346.61 59.76 L 346.61 119.52 M 298.8 71.71 L 310.75 71.71 M 298.8 107.57 L 310.75 107.57 M 358.56 71.71 L 346.61 71.71 M 358.56 107.57 L 346.61 107.57 M 358.56 71.71 L 418.32 71.71 M 358.56 107.57 L 370.51 107.57 L 370.51 119.52 M 418.32 107.57 L 406.37 107.57 L 406.37 119.52 M 430.27 59.76 L 430.27 119.52 M 466.13 59.76 L 466.13 119.52 M 418.32 71.71 L 430.27 71.71 M 418.32 107.57 L 430.27 107.57 M 478.08 71.71 L 466.13 71.71 M 478.08 107.57 L 466.13 107.57 M 490.03 59.76 L 490.03 71.71 L 478.08 71.71 M 525.89 59.76 L 525.89 107.57 L 478.08 107.57 M 549.79 59.76 L 549.79 119.52 M 585.65 59.76 L 585.65 119.52 M 47.81 179.28 L 47.81 131.47 L 11.95 131.47 L 11.95 179.28 M 119.52 131.47 L 107.57 131.47 L 107.57 119.52 M 119.52 167.33 L 71.71 167.33 L 71.71 119.52 M 119.52 131.47 L 179.28 131.47 M 119.52 167.33 L 179.28 167.33 M 131.47 119.52 L 131.47 131.47 M 167.33 119.52 L 167.33 131.47 M 131.47 167.33 L 131.47 179.28 M 167.33 167.33 L 167.33 179.28 M 227.09 119.52 L 227.09 179.28 M 191.23 119.52 L 191.23 131.47 L 179.28 131.47 M 179.28 167.33 L 191.23 167.33 L 191.23 179.28 M 286.85 119.52 L 286.85 126.26 L 286.85 167.33 L 250.99 167.33 L 250.99 119.52 M 358.56 131.47 L 346.61 131.47 L 346.61 119.52 M 358.56 167.33 L 310.75 167.33 L 310.75 119.52 M 370.51 119.52 L 370.51 179.28 M 406.37 119.52 L 406.37 179.28 M 358.56 131.47 L 370.51 131.47 M 358.56 167.33 L 370.51 167.33 M 418.32 131.47 L 406.37 131.47 M 418.32 167.33 L 406.37 167.33 M 430.27 119.52 L 430.27 131.47 L 418.32 131.47 M 466.13 119.52 L 466.13 167.33 L 418.32 167.33 M 537.84 167.33 L 525.89 167.33 L 525.89 179.28 M 537.84 131.47 L 490.03 131.47 L 490.03 179.28 M 585.65 119.52 L 585.65 179.28 M 549.79 119.52 L 549.79 131.47 L 537.84 131.47 M 537.84 167.33 L 549.79 167.33 L 549.79 179.28 M 59.76 191.23 L 47.81 191.23 L 47.81 179.28 M 59.76 227.09 L 11.95 227.09 L 11.95 179.28 M 59.76 227.09 L 71.71 227.09 L 71.71 239.04 M 59.76 191.23 L 107.57 191.23 L 107.57 239.04 M 179.28 191.23 L 167.33 191.23 L 167.33 179.28 M 179.28 227.09 L 131.47 227.09 L 131.47 179.28 M 179.28 191.23 L 239.04 191.23 M 179.28 227.09 L 239.04 227.09 M 191.23 179.28 L 191.23 191.23 M 227.09 179.28 L 227.09 191.23 M 191.23 227.09 L 191.23 239.04 M 227.09 227.09 L 227.09 239.04 M 239.04 227.09 L 250.99 227.09 L 250.99 239.04 M 239.04 191.23 L 286.85 191.23 L 286.85 239.04 M 358.56 227.09 L 310.75 227.09 L 310.75 191.23 L 358.56 191.23 M 406.37 179.28 L 406.37 239.04 M 370.51 179.28 L 370.51 191.23 L 358.56 191.23 M 358.56 227.09 L 370.51 227.09 L 370.51 239.04 M 478.08 227.09 L 430.27 227.09 L 430.27 191.23 L 478.08 191.23 M 490.03 179.28 L 490.03 239.04 M 525.89 179.28 L 525.89 239.04 M 478.08 191.23 L 490.03 191.23 M 478.08 227.09 L 490.03 227.09 M 537.84 191.23 L 525.89 191.23 M 537.84 227.09 L 525.89 227.09 M 549.79 179.28 L 549.79 191.23 L 537.84 191.23 M 585.65 179.28 L 585.65 227.09 L 537.84 227.09 M 47.81 298.8 L 47.81 250.99 L 11.95 250.99 L 11.95 298.8 M 71.71 239.04 L 71.71 298.8 M 119.52 250.99 L 107.57 250.99 L 107.57 239.04 M 119.52 286.85 L 107.57 286.85 L 107.57 298.8 M 119.52 250.99 L 179.28 250.99 M 119.52 286.85 L 131.47 286.85 L 131.47 298.8 M 179.28 286.85 L 167.33 286.85 L 167.33 298.8 M 179.28 286.85 L 239.04 286.85 M 191.23 239.04 L 191.23 250.99 L 179.28 250.99 M 239.04 250.99 L 227.09 250.99 L 227.09 239.04 M 239.04 250.99 L 298.8 250.99 M 239.04 286.85 L 298.8 286.85 M 250.99 239.04 L 250.99 250.99 M 286.85 239.04 L 286.85 250.99 M 250.99 286.85 L 250.99 298.8 M 286.85 286.85 L 286.85 298.8 M 298.8 250.99 L 358.56 250.99 M 298.8 286.85 L 358.56 286.85 M 370.51 239.04 L 370.51 298.8 M 406.37 239.04 L 406.37 298.8 M 358.56 250.99 L 370.51 250.99 M 358.56 286.85 L 370.51 286.85 M 418.32 250.99 L 406.37 250.99 M 418.32 286.85 L 406.37 286.85 M 418.32 250.99 L 478.08 250.99 M 418.32 286.85 L 430.27 286.85 L 430.27 298.8 M 478.08 286.85 L 466.13 286.85 L 466.13 298.8 M 478.08 286.85 L 537.84 286.85 M 490.03 239.04 L 490.03 250.99 L 478.08 250.99 M 537.84 250.99 L 525.89 250.99 L 525.89 239.04 M 537.84 286.85 L 585.65 286.85 L 585.65 250.99 L 537.84 250.99 M 11.95 298.8 L 11.95 358.56 M 59.76 310.75 L 47.81 310.75 L 47.81 298.8 M 59.76 346.61 L 47.81 346.61 L 47.81 358.56 M 71.71 298.8 L 71.71 358.56 M 107.57 298.8 L 107.57 358.56 M 59.76 310.75 L 71.71 310.75 M 59.76 346.61 L 71.71 346.61 M 119.52 310.75 L 107.57 310.75 M 119.52 346.61 L 107.57 346.61 M 131.47 298.8 L 131.47 310.75 L 119.52 310.75 M 119.52 346.61 L 131.47 346.61 L 131.47 358.56 M 179.28 310.75 L 167.33 310.75 L 167.33 298.8 M 179.28 346.61 L 167.33 346.61 L 167.33 358.56 M 179.28 310.75 L 239.04 310.75 M 179.28 346.61 L 239.04 346.61 M 239.04 346.61 L 298.8 346.61 M 250.99 298.8 L 250.99 310.75 L 239.04 310.75 M 298.8 310.75 L 286.85 310.75 L 286.85 298.8 M 298.8 346.61 L 310.75 346.61 L 310.75 358.56 M 298.8 310.75 L 346.61 310.75 L 346.61 358.56 M 418.32 310.75 L 406.37 310.75 L 406.37 298.8 M 418.32 346.61 L 370.51 346.61 L 370.51 298.8 M 430.27 298.8 L 430.27 358.56 M 466.13 298.8 L 466.13 358.56 M 418.32 310.75 L 430.27 310.75 M 418.32 346.61 L 430.27 346.61 M 478.08 310.75 L 466.13 310.75 M 478.08 346.61 L 466.13 346.61 M 478.08 346.61 L 490.03 346.61 L 490.03 358.56 M 478.08 310.75 L 525.89 310.75 L 525.89 358.56 M 585.65 358.56 L 585.65 310.75 L 549.79 310.75 L 549.79 358.56 M 47.81 358.56 L 47.81 365.3 L 47.81 406.37 L 11.95 406.37 L 11.95 358.56 M 71.71 358.56 L 71.71 418.32 M 119.52 370.51 L 107.57 370.51 L 107.57 358.56 M 119.52 406.37 L 107.57 406.37 L 107.57 418.32 M 119.52 370.51 L 179.28 370.51 M 119.52 406.37 L 179.28 406.37 M 131.47 358.56 L 131.47 370.51 M 167.33 358.56 L 167.33 370.51 M 131.47 406.37 L 131.47 418.32 M 167.33 406.37 L 167.33 418.32 M 179.28 406.37 L 191.23 406.37 L 191.23 418.32 M 179.28 370.51 L 227.09 370.51 L 227.09 418.32 M 298.8 406.37 L 250.99 406.37 L 250.99 370.51 L 298.8 370.51 M 298.8 370.51 L 358.56 370.51 M 298.8 406.37 L 358.56 406.37 M 310.75 358.56 L 310.75 370.51 M 346.61 358.56 L 346.61 370.51 M 310.75 406.37 L 310.75 418.32 M 346.61 406.37 L 346.61 418.32 M 358.56 406.37 L 370.51 406.37 L 370.51 418.32 M 358.56 370.51 L 406.37 370.51 L 406.37 418.32 M 430.27 358.56 L 430.27 418.32 M 478.08 370.51 L 466.13 370.51 L 466.13 358.56 M 478.08 406.37 L 466.13 406.37 L 466.13 418.32 M 490.03 358.56 L 490.03 418.32 M 525.89 358.56 L 525.89 418.32 M 478.08 370.51 L 490.03 370.51 M 478.08 406.37 L 490.03 406.37 M 537.84 370.51 L 525.89 370.51 M 537.84 406.37 L 525.89 406.37 M 549.79 358.56 L 549.79 370.51 L 537.84 370.51 M 585.65 358.56 L 585.65 406.37 L 537.84 406.37 M 59.76 466.13 L 47.81 466.13 L 47.81 478.08 M 59.76 430.27 L 11.95 430.27 L 11.95 478.08 M 71.71 418.32 L 71.71 478.08 M 107.57 418.32 L 107.57 478.08 M 59.76 430.27 L 71.71 430.27 M 59.76 466.13 L 71.71 466.13 M 119.52 430.27 L 107.57 430.27 M 119.52 466.13 L 107.57 466.13 M 131.47 418.32 L 131.47 430.27 L 119.52 430.27 M 119.52 466.13 L 131.47 466.13 L 131.47 478.08 M 179.28 430.27 L 167.33 430.27 L 167.33 418.32 M 179.28 466.13 L 167.33 466.13 L 167.33 478.08 M 191.23 418.32 L 191.23 478.08 M 227.09 418.32 L 227.09 478.08 M 179.28 430.27 L 191.23 430.27 M 179.28 466.13 L 191.23 466.13 M 239.04 430.27 L 227.09 430.27 M 239.04 466.13 L 227.09 466.13 M 239.04 466.13 L 250.99 466.13 L 250.99 478.08 M 239.04 430.27 L 286.85 430.27 L 286.85 478.08 M 346.61 418.32 L 346.61 425.06 L 346.61 466.13 L 310.75 466.13 L 310.75 418.32 M 370.51 418.32 L 370.51 478.08 M 418.32 430.27 L 406.37 430.27 L 406.37 418.32 M 418.32 466.13 L 406.37 466.13 L 406.37 478.08 M 430.27 418.32 L 430.27 430.27 L 418.32 430.27 M 466.13 418.32 L 466.13 466.13 L 418.32 466.13 M 490.03 418.32 L 490.03 478.08 M 525.89 418.32 L 525.89 478.08 M 585.65 478.08 L 585.65 430.27 L 549.79 430.27 L 549.79 478.08 M 11.95 478.08 L 11.95 537.84 M 47.81 478.08 L 47.81 537.84 M 71.71 478.08 L 71.71 537.84 M 107.57 478.08 L 107.57 537.84 M 167.33 478.08 L 167.33 484.82 L 167.33 525.89 L 131.47 525.89 L 131.47 478.08 M 239.04 490.03 L 227.09 490.03 L 227.09 478.08 M 239.04 525.89 L 191.23 525.89 L 191.23 478.08 M 239.04 490.03 L 298.8 490.03 M 239.04 525.89 L 298.8 525.89 M 250.99 478.08 L 250.99 490.03 M 286.85 478.08 L 286.85 490.03 M 250.99 525.89 L 250.99 537.84 M 286.85 525.89 L 286.85 537.84 M 298.8 490.03 L 358.56 490.03 M 298.8 525.89 L 358.56 525.89 M 358.56 490.03 L 418.32 490.03 M 358.56 525.89 L 418.32 525.89 M 370.51 478.08 L 370.51 490.03 M 406.37 478.08 L 406.37 490.03 M 370.51 525.89 L 370.51 537.84 M 406.37 525.89 L 406.37 537.84 M 418.32 490.03 L 478.08 490.03 M 418.32 525.89 L 478.08 525.89 M 478.08 490.03 L 537.84 490.03 M 478.08 525.89 L 537.84 525.89 M 490.03 478.08 L 490.03 490.03 M 525.89 478.08 L 525.89 490.03 M 490.03 525.89 L 490.03 537.84 M 525.89 525.89 L 525.89 537.84 M 585.65 478.08 L 585.65 537.84 M 549.79 478.08 L 549.79 490.03 L 537.84 490.03 M 537.84 525.89 L 549.79 525.89 L 549.79 537.84 M 47.81 537.84 L 47.81 544.58 L 47.81 585.65 L 11.95 585.65 L 11.95 537.84 M 119.52 549.79 L 107.57 549.79 L 107.57 537.84 M 119.52 585.65 L 71.71 585.65 L 71.71 537.84 M 119.52 549.79 L 179.28 549.79 M 119.52 585.65 L 179.28 585.65 M 179.28 585.65 L 227.09 585.65 L 227.09 549.79 L 179.28 549.79 M 298.8 549.79 L 286.85 549.79 L 286.85 537.84 M 298.8 585.65 L 250.99 585.65 L 250.99 537.84 M 298.8 585.65 L 346.61 585.65 L 346.61 549.79 L 298.8 549.79 M 406.37 537.84 L 406.37 544.58 L 406.37 585.65 L 370.51 585.65 L 370.51 537.84 M 478.08 585.65 L 430.27 585.65 L 430.27 549.79 L 478.08 549.79 M 490.03 537.84 L 490.03 549.79 L 478.08 549.79 M 525.89 537.84 L 525.89 585.65 L 478.08 585.65 " /> <circle cx="29.88" cy="29.88" r="19.92" fill-opacity="1.0" stroke-opacity="0" fill="#E51919" /><circle cx="567.72" cy="567.72" r="19.92" fill-opacity="1.0" stroke-opacity="0" fill="#E51919" /> <path stroke-opacity="1.0" stroke-width="5" stroke="#E51919" d="M 29.88 59.76 L 29.88 29.88 M 59.76 89.64 L 29.88 89.64 L 29.88 59.76 M 119.52 89.64 L 149.4 89.64 L 149.4 119.52 M 59.76 89.64 L 71.71 89.64 M 119.52 89.64 L 107.57 89.64 M 179.28 209.16 L 149.4 209.16 L 149.4 179.28 M 149.4 119.52 L 149.4 131.47 M 149.4 179.28 L 149.4 167.33 M 239.04 209.16 L 268.92 209.16 L 268.92 239.04 M 179.28 209.16 L 239.04 209.16 M 268.92 298.8 L 268.92 328.68 L 239.04 328.68 M 268.92 239.04 L 268.92 250.99 M 268.92 298.8 L 268.92 286.85 M 179.28 328.68 L 239.04 328.68 M 179.28 328.68 L 149.4 328.68 L 149.4 298.8 M 119.52 268.92 L 149.4 268.92 L 149.4 298.8 M 119.52 268.92 L 89.64 268.92 L 89.64 298.8 M 119.52 388.44 L 89.64 388.44 L 89.64 358.56 M 89.64 298.8 L 89.64 358.56 M 179.28 388.44 L 209.16 388.44 L 209.16 418.32 M 119.52 388.44 L 179.28 388.44 M 239.04 507.96 L 209.16 507.96 L 209.16 478.08 M 209.16 418.32 L 209.16 478.08 M 298.8 507.96 L 358.56 507.96 M 239.04 507.96 L 298.8 507.96 M 418.32 507.96 L 478.08 507.96 M 358.56 507.96 L 418.32 507.96 M 567.72 537.84 L 567.72 567.72 M 537.84 507.96 L 567.72 507.96 L 567.72 537.84 M 478.08 507.96 L 537.84 507.96 " />  <path stroke-opacity="0.2" stroke-width="5" stroke="#E51919" d="M 29.88 59.76 L 29.88 29.88 M 71.71 89.64 L 89.64 89.64 M 107.57 89.64 L 89.64 89.64 M 149.4 131.47 L 149.4 149.4 M 149.4 167.33 L 149.4 149.4 M 268.92 250.99 L 268.92 268.92 M 268.92 286.85 L 268.92 268.92 M 567.72 537.84 L 567.72 567.72 " />   </svg>