<svg id="maze" xmlns="http://www.w3.org/2000/svg" viewBox="0 0 597.6 597.6"  width="597.6px" height="597.6px" stroke-width="2" fill-opacity="0.0" stroke="black"> <path stroke-opacity="1.0" stroke-width="2" stroke="#000000" d="M 59.76 47.81 L 71.71 47.81 L 71.71 59.76 M 59.76 11.95 L 107.57 11.95 L 107.57 59.76 M 179.28 47.81 L 167.33 47.81 L 167.33 59.76 M 179.28 11.95 L 131.47 11.95 L 131.47 59.76 M 179.28 11.95 L 239.04 11.95 M 179.28 47.81 L 191.23 47.81 L 191.23 59.76 M 239.04 47.81 L 227.09 47.81 L 227.09 59.76 M 239.04 47.81 L 286.85 47.81 L 286.85 11.95 L 239.04 11.95 M 358.56 47.81 L 310.75 47.81 L 310.75 11.95 L 358.56 11.95 M 358.56 47.81 L 370.51 47.81 L 370.51 59.76 M 358.56 11.95 L 406.37 11.95 L 406.37 59.76 M 466.13 59.76 L 466.13 11.95 L 430.27 11.95 L 430.27 59.76 M 537.84 47.81 L 525.89 47.81 L 525.89 59.76 M 537.84 11.95 L 490.03 11.95 L 490.03 59.76 M 537.84 47.81 L 585.65 47.81 L 585.65 11.95 L 537.84 11.95 M 59.76 107.57 L 11.95 107.57 L 11.95 71.71 L 59.76 71.71 M 59.76 71.71 L 119.52 71.71 M 59.76 107.57 L 119.52 107.57 M 71.71 59.76 L 71.71 71.71 M 107.57 59.76 L 107.57 71.71 M 71.71 107.57 L 71.71 119.52 M 107.57 107.57 L 107.57 119.52 M 131.47 59.76 L 131.47 71.71 L 119.52 71.71 M 167.33 59.76 L 167.33 107.57 L 119.52 107.57 M 191.23 59.76 L 191.23 119.52 M 227.09 59.76 L 227.09 119.52 M 286.85 119.52 L 286.85 71.71 L 250.99 71.71 L 250.99 119.52 M 358.56 107.57 L 346.61 107.57 L 346.61 119.52 M 358.56 71.71 L 310.75 71.71 L 310.75 119.52 M 358.56 71.71 L 418.32 71.71 M 358.56 107.57 L 418.32 107.57 M 370.51 59.76 L 370.51 71.71 M 406.37 59.76 L 406.37 71.71 M 370.51 107.57 L 370.51 119.52 M 406.37 107.57 L 406.37 119.52 M 430.27 59.76 L 430.27 71.71 L 418.32 71.71 M 418.32 107.57 L 430.27 107.57 L 430.27 119.52 M 478.08 71.71 L 466.13 71.71 L 466.13 59.76 M 478.08 107.57 L 466.13 107.57 L 466.13 119.52 M 490.03 59.76 L 490.03 119.52 M 525.89 59.76 L 525.89 119.52 M 478.08 71.71 L 490.03 71.71 M 478.08 107.57 L 490.03 107.57 M 537.84 71.71 L 525.89 71.71 M 537.84 107.57 L 525.89 107.57 M 537.84 107.57 L 549.79 107.57 L 549.79 119.52 M 537.84 71.71 L 585.65 71.71 L 585.65 119.52 M 59.76 167.33 L 11.95 167.33 L 11.95 131.47 L 59.76 131.47 M 71.71 119.52 L 71.71 131.47 L 59.76 131.47 M 59.76 167.33 L 71.71 167.33 L 71.71 179.28 M 119.52 131.47 L 107.57 131.47 L 107.57 119.52 M 119.52 167.33 L 107.57 167.33 L 107.57 179.28 M 119.52 131.47 L 179.28 131.47 M 119.52 167.33 L 131.47 167.33 L 131.47 179.28 M 179.28 167.33 L 167.33 167.33 L 167.33 179.28 M 179.28 131.47 L 239.04 131.47 M 179.28 167.33 L 239.04 167.33 M 191.23 119.52 L 191.23 131.47 M 227.09 119.52 L 227.09 131.47 M 191.23 167.33 L 191.23 179.28 M 227.09 167.33 L 227.09 179.28 M 250.99 119.52 L 250.99 131.47 L 239.04 131.47 M 239.04 167.33 L 250.99 167.33 L 250.99 179.28 M 298.8 131.47 L 286.85 131.47 L 286.85 119.52 M 298.8 167.33 L 286.85 167.33 L 286.85 179.28 M 298.8 131.47 L 358.56 131.47 M 298.8 167.33 L 358.56 167.33 M 310.75 119.52 L 310.75 131.47 M 346.61 119.52 L 346.61 131.47 M 310.75 167.33 L 310.75 179.28 M 346.61 167.33 L 346.61 179.28 M 370.51 119.52 L 370.51 131.47 L 358.56 131.47 M 406.37 119.52 L 406.37 167.33 L 358.56 167.33 M 430.27 119.52 L 430.27 179.28 M 478.08 131.47 L 466.13 131.47 L 466.13 119.52 M 478.08 167.33 L 466.13 167.33 L 466.13 179.28 M 490.03 119.52 L 490.03 131.47 L 478.08 131.47 M 525.89 119.52 L 525.89 167.33 L 478.08 167.33 M 585.65 119.52 L 585.65 126.26 L 585.65 167.33 L 549.79 167.33 L 549.79 119.52 M 59.76 227.09 L 11.95 227.09 L 11.95 191.23 L 59.76 191.23 M 71.71 179.28 L 71.71 191.23 L 59.76 191.23 M 59.76 227.09 L 71.71 227.09 L 71.71 239.04 M 119.52 191.23 L 107.57 191.23 L 107.57 179.28 M 119.52 227.09 L 107.57 227.09 L 107.57 239.04 M 119.52 191.23 L 179.28 191.23 M 119.52 227.09 L 179.28 227.09 M 131.47 179.28 L 131.47 191.23 M 167.33 179.28 L 167.33 191.23 M 131.47 227.09 L 131.47 239.04 M 167.33 227.09 L 167.33 239.04 M 179.28 227.09 L 239.04 227.09 M 191.23 179.28 L 191.23 191.23 L 179.28 191.23 M 239.04 191.23 L 227.09 191.23 L 227.09 179.28 M 250.99 179.28 L 250.99 239.04 M 286.85 179.28 L 286.85 239.04 M 239.04 191.23 L 250.99 191.23 M 239.04 227.09 L 250.99 227.09 M 298.8 191.23 L 286.85 191.23 M 298.8 227.09 L 286.85 227.09 M 346.61 179.28 L 346.61 239.04 M 310.75 179.28 L 310.75 191.23 L 298.8 191.23 M 298.8 227.09 L 310.75 227.09 L 310.75 239.04 M 406.37 239.04 L 406.37 191.23 L 370.51 191.23 L 370.51 239.04 M 430.27 179.28 L 430.27 239.04 M 478.08 191.23 L 466.13 191.23 L 466.13 179.28 M 478.08 227.09 L 466.13 227.09 L 466.13 239.04 M 478.08 191.23 L 537.84 191.23 M 478.08 227.09 L 537.84 227.09 M 537.84 227.09 L 549.79 227.09 L 549.79 239.04 M 537.84 191.23 L 585.65 191.23 L 585.65 239.04 M 59.76 286.85 L 11.95 286.85 L 11.95 250.99 L 59.76 250.99 M 71.71 239.04 L 71.71 298.8 M 107.57 239.04 L 107.57 298.8 M 59.76 250.99 L 71.71 250.99 M 59.76 286.85 L 71.71 286.85 M 119.52 250.99 L 107.57 250.99 M 119.52 286.85 L 107.57 286.85 M 131.47 239.04 L 131.47 250.99 L 119.52 250.99 M 119.52 286.85 L 131.47 286.85 L 131.47 298.8 M 179.28 250.99 L 167.33 250.99 L 167.33 239.04 M 179.28 286.85 L 167.33 286.85 L 167.33 298.8 M 179.28 286.85 L 227.09 286.85 L 227.09 250.99 L 179.28 250.99 M 286.85 239.04 L 286.85 245.78 L 286.85 286.85 L 250.99 286.85 L 250.99 239.04 M 358.56 250.99 L 346.61 250.99 L 346.61 239.04 M 358.56 286.85 L 310.75 286.85 L 310.75 239.04 M 370.51 239.04 L 370.51 250.99 L 358.56 250.99 M 358.56 286.85 L 370.51 286.85 L 370.51 298.8 M 418.32 250.99 L 406.37 250.99 L 406.37 239.04 M 418.32 286.85 L 406.37 286.85 L 406.37 298.8 M 418.32 250.99 L 478.08 250.99 M 418.32 286.85 L 478.08 286.85 M 430.27 239.04 L 430.27 250.99 M 466.13 239.04 L 466.13 250.99 M 430.27 286.85 L 430.27 298.8 M 466.13 286.85 L 466.13 298.8 M 478.08 286.85 L 525.89 286.85 L 525.89 250.99 L 478.08 250.99 M 585.65 239.04 L 585.65 245.78 L 585.65 286.85 L 549.79 286.85 L 549.79 239.04 M 59.76 346.61 L 11.95 346.61 L 11.95 310.75 L 59.76 310.75 M 71.71 298.8 L 71.71 310.75 L 59.76 310.75 M 59.76 346.61 L 71.71 346.61 L 71.71 358.56 M 119.52 310.75 L 107.57 310.75 L 107.57 298.8 M 119.52 346.61 L 107.57 346.61 L 107.57 358.56 M 119.52 310.75 L 179.28 310.75 M 119.52 346.61 L 179.28 346.61 M 131.47 298.8 L 131.47 310.75 M 167.33 298.8 L 167.33 310.75 M 131.47 346.61 L 131.47 358.56 M 167.33 346.61 L 167.33 358.56 M 179.28 346.61 L 227.09 346.61 L 227.09 310.75 L 179.28 310.75 M 286.85 358.56 L 286.85 310.75 L 250.99 310.75 L 250.99 358.56 M 358.56 346.61 L 310.75 346.61 L 310.75 310.75 L 358.56 310.75 M 370.51 298.8 L 370.51 358.56 M 406.37 298.8 L 406.37 358.56 M 358.56 310.75 L 370.51 310.75 M 358.56 346.61 L 370.51 346.61 M 418.32 310.75 L 406.37 310.75 M 418.32 346.61 L 406.37 346.61 M 466.13 298.8 L 466.13 358.56 M 430.27 298.8 L 430.27 310.75 L 418.32 310.75 M 418.32 346.61 L 430.27 346.61 L 430.27 358.56 M 525.89 358.56 L 525.89 310.75 L 490.03 310.75 L 490.03 358.56 M 585.65 358.56 L 585.65 310.75 L 549.79 310.75 L 549.79 358.56 M 47.81 418.32 L 47.81 370.51 L 11.95 370.51 L 11.95 418.32 M 107.57 358.56 L 107.57 365.3 L 107.57 406.37 L 71.71 406.37 L 71.71 358.56 M 131.47 358.56 L 131.47 418.32 M 179.28 370.51 L 167.33 370.51 L 167.33 358.56 M 179.28 406.37 L 167.33 406.37 L 167.33 418.32 M 179.28 406.37 L 227.09 406.37 L 227.09 370.51 L 179.28 370.51 M 250.99 358.56 L 250.99 418.32 M 298.8 370.51 L 286.85 370.51 L 286.85 358.56 M 298.8 406.37 L 286.85 406.37 L 286.85 418.32 M 298.8 406.37 L 346.61 406.37 L 346.61 370.51 L 298.8 370.51 M 370.51 358.56 L 370.51 418.32 M 418.32 370.51 L 406.37 370.51 L 406.37 358.56 M 418.32 406.37 L 406.37 406.37 L 406.37 418.32 M 418.32 370.51 L 478.08 370.51 M 418.32 406.37 L 478.08 406.37 M 430.27 358.56 L 430.27 370.51 M 466.13 358.56 L 466.13 370.51 M 430.27 406.37 L 430.27 418.32 M 466.13 406.37 L 466.13 418.32 M 478.08 406.37 L 537.84 406.37 M 490.03 358.56 L 490.03 370.51 L 478.08 370.51 M 537.84 370.51 L 525.89 370.51 L 525.89 358.56 M 585.65 358.56 L 585.65 418.32 M 549.79 358.56 L 549.79 370.51 L 537.84 370.51 M 537.84 406.37 L 549.79 406.37 L 549.79 418.32 M 11.95 418.32 L 11.95 478.08 M 47.81 418.32 L 47.81 478.08 M 119.52 466.13 L 107.57 466.13 L 107.57 478.08 M 119.52 430.27 L 71.71 430.27 L 71.71 478.08 M 131.47 418.32 L 131.47 478.08 M 167.33 418.32 L 167.33 478.08 M 119.52 430.27 L 131.47 430.27 M 119.52 466.13 L 131.47 466.13 M 179.28 430.27 L 167.33 430.27 M 179.28 466.13 L 167.33 466.13 M 179.28 466.13 L 191.23 466.13 L 191.23 478.08 M 179.28 430.27 L 227.09 430.27 L 227.09 478.08 M 298.8 430.27 L 286.85 430.27 L 286.85 418.32 M 298.8 466.13 L 250.99 466.13 L 250.99 418.32 M 298.8 430.27 L 358.56 430.27 M 298.8 466.13 L 358.56 466.13 M 358.56 430.27 L 418.32 430.27 M 358.56 466.13 L 418.32 466.13 M 370.51 418.32 L 370.51 430.27 M 406.37 418.32 L 406.37 430.27 M 370.51 466.13 L 370.51 478.08 M 406.37 466.13 L 406.37 478.08 M 430.27 418.32 L 430.27 430.27 L 418.32 430.27 M 418.32 466.13 L 430.27 466.13 L 430.27 478.08 M 478.08 430.27 L 466.13 430.27 L 466.13 418.32 M 478.08 466.13 L 466.13 466.13 L 466.13 478.08 M 478.08 466.13 L 525.89 466.13 L 525.89 430.27 L 478.08 430.27 M 549.79 418.32 L 549.79 478.08 M 585.65 418.32 L 585.65 478.08 M 59.76 490.03 L 47.81 490.03 L 47.81 478.08 M 59.76 525.89 L 11.95 525.89 L 11.95 478.08 M 71.71 478.08 L 71.71 537.84 M 107.57 478.08 L 107.57 537.84 M 59.76 490.03 L 71.71 490.03 M 59.76 525.89 L 71.71 525.89 M 119.52 490.03 L 107.57 490.03 M 119.52 525.89 L 107.57 525.89 M 131.47 478.08 L 131.47 490.03 L 119.52 490.03 M 119.52 525.89 L 131.47 525.89 L 131.47 537.84 M 179.28 490.03 L 167.33 490.03 L 167.33 478.08 M 179.28 525.89 L 167.33 525.89 L 167.33 537.84 M 179.28 490.03 L 239.04 490.03 M 179.28 525.89 L 239.04 525.89 M 191.23 478.08 L 191.23 490.03 M 227.09 478.08 L 227.09 490.03 M 191.23 525.89 L 191.23 537.84 M 227.09 525.89 L 227.09 537.84 M 239.04 525.89 L 250.99 525.89 L 250.99 537.84 M 239.04 490.03 L 286.85 490.03 L 286.85 537.84 M 358.56 525.89 L 346.61 525.89 L 346.61 537.84 M 358.56 490.03 L 310.75 490.03 L 310.75 537.84 M 358.56 525.89 L 418.32 525.89 M 370.51 478.08 L 370.51 490.03 L 358.56 490.03 M 418.32 490.03 L 406.37 490.03 L 406.37 478.08 M 418.32 490.03 L 478.08 490.03 M 418.32 525.89 L 478.08 525.89 M 430.27 478.08 L 430.27 490.03 M 466.13 478.08 L 466.13 490.03 M 430.27 525.89 L 430.27 537.84 M 466.13 525.89 L 466.13 537.84 M 478.08 525.89 L 525.89 525.89 L 525.89 490.03 L 478.08 490.03 M 585.65 478.08 L 585.65 484.82 L 585.65 525.89 L 549.79 525.89 L 549.79 478.08 M 59.76 585.65 L 11.95 585.65 L 11.95 549.79 L 59.76 549.79 M 71.71 537.84 L 71.71 549.79 L 59.76 549.79 M 107.57 537.84 L 107.57 585.65 L 59.76 585.65 M 179.28 549.79 L 167.33 549.79 L 167.33 537.84 M 179.28 585.65 L 131.47 585.65 L 131.47 537.84 M 191.23 537.84 L 191.23 549.79 L 179.28 549.79 M 227.09 537.84 L 227.09 585.65 L 179.28 585.65 M 286.85 537.84 L 286.85 544.58 L 286.85 585.65 L 250.99 585.65 L 250.99 537.84 M 358.56 549.79 L 346.61 549.79 L 346.61 537.84 M 358.56 585.65 L 310.75 585.65 L 310.75 537.84 M 358.56 585.65 L 406.37 585.65 L 406.37 549.79 L 358.56 549.79 M 478.08 549.79 L 466.13 549.79 L 466.13 537.84 M 478.08 585.65 L 430.27 585.65 L 430.27 537.84 M 478.08 549.79 L 537.84 549.79 M 478.08 585.65 L 537.84 585.65 " /> <circle cx="29.88" cy="29.88" r="19.92" fill-opacity="1.0" stroke-opacity="0" fill="#E51919" /><circle cx="567.72" cy="567.72" r="19.92" fill-opacity="1.0" stroke-opacity="0" fill="#E51919" /> <path stroke-opacity="1.0" stroke-width="5" stroke="#E51919" d="M 29.88 29.88 L 59.76 29.88 M 59.76 29.88 L 89.64 29.88 L 89.64 59.76 M 89.64 119.52 L 89.64 179.28 M 89.64 59.76 L 89.64 71.71 M 89.64 119.52 L 89.64 107.57 M 119.52 209.16 L 89.64 209.16 L 89.64 179.28 M 179.28 209.16 L 239.04 209.16 M 119.52 209.16 L 179.28 209.16 M 328.68 179.28 L 328.68 209.16 L 298.8 209.16 M 239.04 209.16 L 250.99 209.16 M 298.8 209.16 L 286.85 209.16 M 358.56 89.64 L 328.68 89.64 L 328.68 119.52 M 328.68 119.52 L 328.68 131.47 M 328.68 179.28 L 328.68 167.33 M 418.32 89.64 L 448.2 89.64 L 448.2 119.52 M 358.56 89.64 L 418.32 89.64 M 448.2 119.52 L 448.2 179.28 M 448.2 179.28 L 448.2 239.04 M 448.2 298.8 L 448.2 358.56 M 448.2 239.04 L 448.2 250.99 M 448.2 298.8 L 448.2 286.85 M 448.2 418.32 L 448.2 478.08 M 448.2 358.56 L 448.2 370.51 M 448.2 418.32 L 448.2 406.37 M 478.08 567.72 L 448.2 567.72 L 448.2 537.84 M 448.2 478.08 L 448.2 490.03 M 448.2 537.84 L 448.2 525.89 M 567.72 567.72 L 537.84 567.72 M 478.08 567.72 L 537.84 567.72 " />  <path stroke-opacity="0.2" stroke-width="5" stroke="#E51919" d="M 29.88 29.88 L 59.76 29.88 M 89.64 71.71 L 89.64 89.64 M 89.64 107.57 L 89.64 89.64 M 250.99 209.16 L 268.92 209.16 M 286.85 209.16 L 268.92 209.16 M 328.68 131.47 L 328.68 149.4 M 328.68 167.33 L 328.68 149.4 M 448.2 250.99 L 448.2 268.92 M 448.2 286.85 L 448.2 268.92 M 448.2 370.51 L 448.2 388.44 M 448.2 406.37 L 448.2 388.44 M 448.2 490.03 L 448.2 507.96 M 448.2 525.89 L 448.2 507.96 M 567.72 567.72 L 537.84 567.72 " />   </svg>