<svg id="maze" xmlns="http://www.w3.org/2000/svg" viewBox="0 0 597.6 597.6"  width="597.6px" height="597.6px" stroke-width="2" fill-opacity="0.0" stroke="black"> <path stroke-opacity="1.0" stroke-width="2" stroke="#000000" d="M 59.76 47.81 L 71.71 47.81 L 71.71 59.76 M 59.76 11.95 L 107.57 11.95 L 107.57 59.76 M 167.33 59.76 L 167.33 11.95 L 131.47 11.95 L 131.47 59.76 M 239.04 47.81 L 227.09 47.81 L 227.09 59.76 M 239.04 11.95 L 191.23 11.95 L 191.23 59.76 M 239.04 47.81 L 286.85 47.81 L 286.85 11.95 L 239.04 11.95 M 358.56 47.81 L 346.61 47.81 L 346.61 59.76 M 358.56 11.95 L 310.75 11.95 L 310.75 59.76 M 358.56 47.81 L 406.37 47.81 L 406.37 11.95 L 358.56 11.95 M 478.08 47.81 L 466.13 47.81 L 466.13 59.76 M 478.08 11.95 L 430.27 11.95 L 430.27 59.76 M 478.08 47.81 L 525.89 47.81 L 525.89 11.95 L 478.08 11.95 M 585.65 59.76 L 585.65 11.95 L 549.79 11.95 L 549.79 59.76 M 59.76 107.57 L 11.95 107.57 L 11.95 71.71 L 59.76 71.71 M 71.71 59.76 L 71.71 119.52 M 107.57 59.76 L 107.57 119.52 M 59.76 71.71 L 71.71 71.71 M 59.76 107.57 L 71.71 107.57 M 119.52 71.71 L 107.57 71.71 M 119.52 107.57 L 107.57 107.57 M 131.47 59.76 L 131.47 71.71 L 119.52 71.71 M 119.52 107.57 L 131.47 107.57 L 131.47 119.52 M 179.28 71.71 L 167.33 71.71 L 167.33 59.76 M 179.28 107.57 L 167.33 107.57 L 167.33 119.52 M 191.23 59.76 L 191.23 71.71 L 179.28 71.71 M 227.09 59.76 L 227.09 107.57 L 179.28 107.57 M 298.8 107.57 L 286.85 107.57 L 286.85 119.52 M 298.8 71.71 L 250.99 71.71 L 250.99 119.52 M 298.8 71.71 L 358.56 71.71 M 298.8 107.57 L 358.56 107.57 M 310.75 59.76 L 310.75 71.71 M 346.61 59.76 L 346.61 71.71 M 310.75 107.57 L 310.75 119.52 M 346.61 107.57 L 346.61 119.52 M 358.56 71.71 L 418.32 71.71 M 358.56 107.57 L 418.32 107.57 M 418.32 71.71 L 478.08 71.71 M 418.32 107.57 L 478.08 107.57 M 430.27 59.76 L 430.27 71.71 M 466.13 59.76 L 466.13 71.71 M 430.27 107.57 L 430.27 119.52 M 466.13 107.57 L 466.13 119.52 M 478.08 71.71 L 537.84 71.71 M 478.08 107.57 L 490.03 107.57 L 490.03 119.52 M 537.84 107.57 L 525.89 107.57 L 525.89 119.52 M 585.65 59.76 L 585.65 119.52 M 549.79 59.76 L 549.79 71.71 L 537.84 71.71 M 537.84 107.57 L 549.79 107.57 L 549.79 119.52 M 59.76 167.33 L 11.95 167.33 L 11.95 131.47 L 59.76 131.47 M 71.71 119.52 L 71.71 131.47 L 59.76 131.47 M 59.76 167.33 L 71.71 167.33 L 71.71 179.28 M 119.52 131.47 L 107.57 131.47 L 107.57 119.52 M 119.52 167.33 L 107.57 167.33 L 107.57 179.28 M 131.47 119.52 L 131.47 179.28 M 167.33 119.52 L 167.33 179.28 M 119.52 131.47 L 131.47 131.47 M 119.52 167.33 L 131.47 167.33 M 179.28 131.47 L 167.33 131.47 M 179.28 167.33 L 167.33 167.33 M 179.28 131.47 L 239.04 131.47 M 179.28 167.33 L 191.23 167.33 L 191.23 179.28 M 239.04 167.33 L 227.09 167.33 L 227.09 179.28 M 250.99 119.52 L 250.99 179.28 M 286.85 119.52 L 286.85 179.28 M 239.04 131.47 L 250.99 131.47 M 239.04 167.33 L 250.99 167.33 M 298.8 131.47 L 286.85 131.47 M 298.8 167.33 L 286.85 167.33 M 298.8 167.33 L 358.56 167.33 M 310.75 119.52 L 310.75 131.47 L 298.8 131.47 M 358.56 131.47 L 346.61 131.47 L 346.61 119.52 M 358.56 167.33 L 370.51 167.33 L 370.51 179.28 M 358.56 131.47 L 406.37 131.47 L 406.37 179.28 M 478.08 131.47 L 466.13 131.47 L 466.13 119.52 M 478.08 167.33 L 430.27 167.33 L 430.27 119.52 M 490.03 119.52 L 490.03 179.28 M 525.89 119.52 L 525.89 179.28 M 478.08 131.47 L 490.03 131.47 M 478.08 167.33 L 490.03 167.33 M 537.84 131.47 L 525.89 131.47 M 537.84 167.33 L 525.89 167.33 M 549.79 119.52 L 549.79 131.47 L 537.84 131.47 M 585.65 119.52 L 585.65 167.33 L 537.84 167.33 M 59.76 227.09 L 47.81 227.09 L 47.81 239.04 M 59.76 191.23 L 11.95 191.23 L 11.95 239.04 M 59.76 191.23 L 119.52 191.23 M 59.76 227.09 L 119.52 227.09 M 71.71 179.28 L 71.71 191.23 M 107.57 179.28 L 107.57 191.23 M 71.71 227.09 L 71.71 239.04 M 107.57 227.09 L 107.57 239.04 M 119.52 227.09 L 179.28 227.09 M 131.47 179.28 L 131.47 191.23 L 119.52 191.23 M 179.28 191.23 L 167.33 191.23 L 167.33 179.28 M 191.23 179.28 L 191.23 239.04 M 227.09 179.28 L 227.09 239.04 M 179.28 191.23 L 191.23 191.23 M 179.28 227.09 L 191.23 227.09 M 239.04 191.23 L 227.09 191.23 M 239.04 227.09 L 227.09 227.09 M 250.99 179.28 L 250.99 191.23 L 239.04 191.23 M 286.85 179.28 L 286.85 227.09 L 239.04 227.09 M 358.56 227.09 L 346.61 227.09 L 346.61 239.04 M 358.56 191.23 L 310.75 191.23 L 310.75 239.04 M 358.56 191.23 L 418.32 191.23 M 358.56 227.09 L 418.32 227.09 M 370.51 179.28 L 370.51 191.23 M 406.37 179.28 L 406.37 191.23 M 370.51 227.09 L 370.51 239.04 M 406.37 227.09 L 406.37 239.04 M 418.32 227.09 L 430.27 227.09 L 430.27 239.04 M 418.32 191.23 L 466.13 191.23 L 466.13 239.04 M 490.03 179.28 L 490.03 239.04 M 537.84 191.23 L 525.89 191.23 L 525.89 179.28 M 537.84 227.09 L 525.89 227.09 L 525.89 239.04 M 537.84 227.09 L 585.65 227.09 L 585.65 191.23 L 537.84 191.23 M 11.95 239.04 L 11.95 298.8 M 47.81 239.04 L 47.81 298.8 M 71.71 239.04 L 71.71 298.8 M 107.57 239.04 L 107.57 298.8 M 179.28 286.85 L 167.33 286.85 L 167.33 298.8 M 179.28 250.99 L 131.47 250.99 L 131.47 298.8 M 191.23 239.04 L 191.23 250.99 L 179.28 250.99 M 227.09 239.04 L 227.09 286.85 L 179.28 286.85 M 298.8 286.85 L 286.85 286.85 L 286.85 298.8 M 298.8 250.99 L 250.99 250.99 L 250.99 298.8 M 298.8 250.99 L 358.56 250.99 M 298.8 286.85 L 358.56 286.85 M 310.75 239.04 L 310.75 250.99 M 346.61 239.04 L 346.61 250.99 M 310.75 286.85 L 310.75 298.8 M 346.61 286.85 L 346.61 298.8 M 370.51 239.04 L 370.51 250.99 L 358.56 250.99 M 358.56 286.85 L 370.51 286.85 L 370.51 298.8 M 418.32 250.99 L 406.37 250.99 L 406.37 239.04 M 418.32 286.85 L 406.37 286.85 L 406.37 298.8 M 418.32 250.99 L 478.08 250.99 M 418.32 286.85 L 478.08 286.85 M 430.27 239.04 L 430.27 250.99 M 466.13 239.04 L 466.13 250.99 M 430.27 286.85 L 430.27 298.8 M 466.13 286.85 L 466.13 298.8 M 490.03 239.04 L 490.03 250.99 L 478.08 250.99 M 478.08 286.85 L 490.03 286.85 L 490.03 298.8 M 537.84 250.99 L 525.89 250.99 L 525.89 239.04 M 537.84 286.85 L 525.89 286.85 L 525.89 298.8 M 537.84 286.85 L 585.65 286.85 L 585.65 250.99 L 537.84 250.99 M 47.81 298.8 L 47.81 305.54 L 47.81 346.61 L 11.95 346.61 L 11.95 298.8 M 71.71 298.8 L 71.71 358.56 M 119.52 310.75 L 107.57 310.75 L 107.57 298.8 M 119.52 346.61 L 107.57 346.61 L 107.57 358.56 M 119.52 310.75 L 179.28 310.75 M 119.52 346.61 L 179.28 346.61 M 131.47 298.8 L 131.47 310.75 M 167.33 298.8 L 167.33 310.75 M 131.47 346.61 L 131.47 358.56 M 167.33 346.61 L 167.33 358.56 M 179.28 346.61 L 227.09 346.61 L 227.09 310.75 L 179.28 310.75 M 250.99 298.8 L 250.99 358.56 M 286.85 298.8 L 286.85 358.56 M 346.61 298.8 L 346.61 305.54 L 346.61 346.61 L 310.75 346.61 L 310.75 298.8 M 418.32 310.75 L 406.37 310.75 L 406.37 298.8 M 418.32 346.61 L 370.51 346.61 L 370.51 298.8 M 430.27 298.8 L 430.27 310.75 L 418.32 310.75 M 418.32 346.61 L 430.27 346.61 L 430.27 358.56 M 478.08 310.75 L 466.13 310.75 L 466.13 298.8 M 478.08 346.61 L 466.13 346.61 L 466.13 358.56 M 478.08 310.75 L 537.84 310.75 M 478.08 346.61 L 537.84 346.61 M 490.03 298.8 L 490.03 310.75 M 525.89 298.8 L 525.89 310.75 M 490.03 346.61 L 490.03 358.56 M 525.89 346.61 L 525.89 358.56 M 537.84 346.61 L 549.79 346.61 L 549.79 358.56 M 537.84 310.75 L 585.65 310.75 L 585.65 358.56 M 59.76 406.37 L 11.95 406.37 L 11.95 370.51 L 59.76 370.51 M 71.71 358.56 L 71.71 418.32 M 107.57 358.56 L 107.57 418.32 M 59.76 370.51 L 71.71 370.51 M 59.76 406.37 L 71.71 406.37 M 119.52 370.51 L 107.57 370.51 M 119.52 406.37 L 107.57 406.37 M 131.47 358.56 L 131.47 370.51 L 119.52 370.51 M 167.33 358.56 L 167.33 406.37 L 119.52 406.37 M 239.04 406.37 L 191.23 406.37 L 191.23 370.51 L 239.04 370.51 M 239.04 370.51 L 298.8 370.51 M 239.04 406.37 L 298.8 406.37 M 250.99 358.56 L 250.99 370.51 M 286.85 358.56 L 286.85 370.51 M 250.99 406.37 L 250.99 418.32 M 286.85 406.37 L 286.85 418.32 M 298.8 406.37 L 310.75 406.37 L 310.75 418.32 M 298.8 370.51 L 346.61 370.51 L 346.61 418.32 M 418.32 406.37 L 370.51 406.37 L 370.51 370.51 L 418.32 370.51 M 466.13 358.56 L 466.13 418.32 M 430.27 358.56 L 430.27 370.51 L 418.32 370.51 M 418.32 406.37 L 430.27 406.37 L 430.27 418.32 M 525.89 358.56 L 525.89 365.3 L 525.89 406.37 L 490.03 406.37 L 490.03 358.56 M 585.65 358.56 L 585.65 365.3 L 585.65 406.37 L 549.79 406.37 L 549.79 358.56 M 59.76 466.13 L 11.95 466.13 L 11.95 430.27 L 59.76 430.27 M 71.71 418.32 L 71.71 430.27 L 59.76 430.27 M 59.76 466.13 L 71.71 466.13 L 71.71 478.08 M 119.52 430.27 L 107.57 430.27 L 107.57 418.32 M 119.52 466.13 L 107.57 466.13 L 107.57 478.08 M 119.52 466.13 L 167.33 466.13 L 167.33 430.27 L 119.52 430.27 M 239.04 466.13 L 227.09 466.13 L 227.09 478.08 M 239.04 430.27 L 191.23 430.27 L 191.23 478.08 M 250.99 418.32 L 250.99 430.27 L 239.04 430.27 M 239.04 466.13 L 250.99 466.13 L 250.99 478.08 M 298.8 430.27 L 286.85 430.27 L 286.85 418.32 M 298.8 466.13 L 286.85 466.13 L 286.85 478.08 M 310.75 418.32 L 310.75 478.08 M 346.61 418.32 L 346.61 478.08 M 298.8 430.27 L 310.75 430.27 M 298.8 466.13 L 310.75 466.13 M 358.56 430.27 L 346.61 430.27 M 358.56 466.13 L 346.61 466.13 M 358.56 430.27 L 418.32 430.27 M 358.56 466.13 L 418.32 466.13 M 418.32 430.27 L 478.08 430.27 M 418.32 466.13 L 478.08 466.13 M 430.27 418.32 L 430.27 430.27 M 466.13 418.32 L 466.13 430.27 M 430.27 466.13 L 430.27 478.08 M 466.13 466.13 L 466.13 478.08 M 478.08 430.27 L 537.84 430.27 M 478.08 466.13 L 537.84 466.13 M 537.84 466.13 L 585.65 466.13 L 585.65 430.27 L 537.84 430.27 M 59.76 525.89 L 47.81 525.89 L 47.81 537.84 M 59.76 490.03 L 11.95 490.03 L 11.95 537.84 M 59.76 490.03 L 119.52 490.03 M 59.76 525.89 L 119.52 525.89 M 71.71 478.08 L 71.71 490.03 M 107.57 478.08 L 107.57 490.03 M 71.71 525.89 L 71.71 537.84 M 107.57 525.89 L 107.57 537.84 M 119.52 490.03 L 179.28 490.03 M 119.52 525.89 L 179.28 525.89 M 191.23 478.08 L 191.23 537.84 M 227.09 478.08 L 227.09 537.84 M 179.28 490.03 L 191.23 490.03 M 179.28 525.89 L 191.23 525.89 M 239.04 490.03 L 227.09 490.03 M 239.04 525.89 L 227.09 525.89 M 239.04 525.89 L 298.8 525.89 M 250.99 478.08 L 250.99 490.03 L 239.04 490.03 M 298.8 490.03 L 286.85 490.03 L 286.85 478.08 M 310.75 478.08 L 310.75 490.03 L 298.8 490.03 M 346.61 478.08 L 346.61 525.89 L 298.8 525.89 M 418.32 525.89 L 370.51 525.89 L 370.51 490.03 L 418.32 490.03 M 466.13 478.08 L 466.13 537.84 M 430.27 478.08 L 430.27 490.03 L 418.32 490.03 M 418.32 525.89 L 430.27 525.89 L 430.27 537.84 M 537.84 525.89 L 525.89 525.89 L 525.89 537.84 M 537.84 490.03 L 490.03 490.03 L 490.03 537.84 M 537.84 525.89 L 585.65 525.89 L 585.65 490.03 L 537.84 490.03 M 47.81 537.84 L 47.81 544.58 L 47.81 585.65 L 11.95 585.65 L 11.95 537.84 M 107.57 537.84 L 107.57 544.58 L 107.57 585.65 L 71.71 585.65 L 71.71 537.84 M 179.28 585.65 L 131.47 585.65 L 131.47 549.79 L 179.28 549.79 M 179.28 585.65 L 239.04 585.65 M 191.23 537.84 L 191.23 549.79 L 179.28 549.79 M 239.04 549.79 L 227.09 549.79 L 227.09 537.84 M 239.04 549.79 L 298.8 549.79 M 239.04 585.65 L 298.8 585.65 M 298.8 585.65 L 346.61 585.65 L 346.61 549.79 L 298.8 549.79 M 418.32 585.65 L 370.51 585.65 L 370.51 549.79 L 418.32 549.79 M 418.32 585.65 L 478.08 585.65 M 430.27 537.84 L 430.27 549.79 L 418.32 549.79 M 478.08 549.79 L 466.13 549.79 L 466.13 537.84 M 478.08 585.65 L 537.84 585.65 M 490.03 537.84 L 490.03 549.79 L 478.08 549.79 M 537.84 549.79 L 525.89 549.79 L 525.89 537.84 " /> <circle cx="29.88" cy="29.88" r="19.92" fill-opacity="1.0" stroke-opacity="0" fill="#E51919" /><circle cx="567.72" cy="567.72" r="19.92" fill-opacity="1.0" stroke-opacity="0" fill="#E51919" /> <path stroke-opacity="1.0" stroke-width="5" stroke="#E51919" d="M 29.88 29.88 L 59.76 29.88 M 59.76 29.88 L 89.64 29.88 L 89.64 59.76 M 119.52 149.4 L 89.64 149.4 L 89.64 119.52 M 89.64 59.76 L 89.64 119.52 M 179.28 149.4 L 239.04 149.4 M 119.52 149.4 L 131.47 149.4 M 179.28 149.4 L 167.33 149.4 M 298.8 149.4 L 358.56 149.4 M 239.04 149.4 L 250.99 149.4 M 298.8 149.4 L 286.85 149.4 M 358.56 149.4 L 388.44 149.4 L 388.44 179.28 M 388.44 239.04 L 388.44 298.8 M 388.44 179.28 L 388.44 191.23 M 388.44 239.04 L 388.44 227.09 M 418.32 328.68 L 388.44 328.68 L 388.44 298.8 M 418.32 328.68 L 448.2 328.68 L 448.2 358.56 M 448.2 358.56 L 448.2 418.32 M 448.2 478.08 L 448.2 537.84 M 448.2 418.32 L 448.2 430.27 M 448.2 478.08 L 448.2 466.13 M 478.08 567.72 L 448.2 567.72 L 448.2 537.84 M 567.72 567.72 L 537.84 567.72 M 478.08 567.72 L 537.84 567.72 " />  <path stroke-opacity="0.2" stroke-width="5" stroke="#E51919" d="M 29.88 29.88 L 59.76 29.88 M 131.47 149.4 L 149.4 149.4 M 167.33 149.4 L 149.4 149.4 M 250.99 149.4 L 268.92 149.4 M 286.85 149.4 L 268.92 149.4 M 388.44 191.23 L 388.44 209.16 M 388.44 227.09 L 388.44 209.16 M 448.2 430.27 L 448.2 448.2 M 448.2 466.13 L 448.2 448.2 M 567.72 567.72 L 537.84 567.72 " />   </svg>