<svg id="maze" xmlns="http://www.w3.org/2000/svg" viewBox="0 0 597.6 597.6"  width="597.6px" height="597.6px" stroke-width="2" fill-opacity="0.0" stroke="black"> <path stroke-opacity="1.0" stroke-width="2" stroke="#000000" d="M 59.76 47.81 L 71.71 47.81 L 71.71 59.76 M 59.76 11.95 L 107.57 11.95 L 107.57 59.76 M 179.28 47.81 L 167.33 47.81 L 167.33 59.76 M 179.28 11.95 L 131.47 11.95 L 131.47 59.76 M 179.28 47.81 L 227.09 47.81 L 227.09 11.95 L 179.28 11.95 M 286.85 59.76 L 286.85 11.95 L 250.99 11.95 L 250.99 59.76 M 346.61 59.76 L 346.61 11.95 L 310.75 11.95 L 310.75 59.76 M 406.37 59.76 L 406.37 11.95 L 370.51 11.95 L 370.51 59.76 M 466.13 59.76 L 466.13 11.95 L 430.27 11.95 L 430.27 59.76 M 537.84 47.81 L 525.89 47.81 L 525.89 59.76 M 537.84 11.95 L 490.03 11.95 L 490.03 59.76 M 537.84 47.81 L 585.65 47.81 L 585.65 11.95 L 537.84 11.95 M 47.81 119.52 L 47.81 71.71 L 11.95 71.71 L 11.95 119.52 M 71.71 59.76 L 71.71 119.52 M 119.52 71.71 L 107.57 71.71 L 107.57 59.76 M 119.52 107.57 L 107.57 107.57 L 107.57 119.52 M 131.47 59.76 L 131.47 119.52 M 167.33 59.76 L 167.33 119.52 M 119.52 71.71 L 131.47 71.71 M 119.52 107.57 L 131.47 107.57 M 179.28 71.71 L 167.33 71.71 M 179.28 107.57 L 167.33 107.57 M 179.28 71.71 L 239.04 71.71 M 179.28 107.57 L 191.23 107.57 L 191.23 119.52 M 239.04 107.57 L 227.09 107.57 L 227.09 119.52 M 239.04 71.71 L 298.8 71.71 M 239.04 107.57 L 298.8 107.57 M 250.99 59.76 L 250.99 71.71 M 286.85 59.76 L 286.85 71.71 M 250.99 107.57 L 250.99 119.52 M 286.85 107.57 L 286.85 119.52 M 346.61 59.76 L 346.61 119.52 M 310.75 59.76 L 310.75 71.71 L 298.8 71.71 M 298.8 107.57 L 310.75 107.57 L 310.75 119.52 M 418.32 71.71 L 406.37 71.71 L 406.37 59.76 M 418.32 107.57 L 370.51 107.57 L 370.51 59.76 M 430.27 59.76 L 430.27 71.71 L 418.32 71.71 M 418.32 107.57 L 430.27 107.57 L 430.27 119.52 M 478.08 71.71 L 466.13 71.71 L 466.13 59.76 M 478.08 107.57 L 466.13 107.57 L 466.13 119.52 M 478.08 71.71 L 537.84 71.71 M 478.08 107.57 L 537.84 107.57 M 490.03 59.76 L 490.03 71.71 M 525.89 59.76 L 525.89 71.71 M 490.03 107.57 L 490.03 119.52 M 525.89 107.57 L 525.89 119.52 M 537.84 107.57 L 549.79 107.57 L 549.79 119.52 M 537.84 71.71 L 585.65 71.71 L 585.65 119.52 M 59.76 131.47 L 47.81 131.47 L 47.81 119.52 M 59.76 167.33 L 11.95 167.33 L 11.95 119.52 M 71.71 119.52 L 71.71 179.28 M 107.57 119.52 L 107.57 179.28 M 59.76 131.47 L 71.71 131.47 M 59.76 167.33 L 71.71 167.33 M 119.52 131.47 L 107.57 131.47 M 119.52 167.33 L 107.57 167.33 M 131.47 119.52 L 131.47 131.47 L 119.52 131.47 M 119.52 167.33 L 131.47 167.33 L 131.47 179.28 M 179.28 131.47 L 167.33 131.47 L 167.33 119.52 M 179.28 167.33 L 167.33 167.33 L 167.33 179.28 M 179.28 131.47 L 239.04 131.47 M 179.28 167.33 L 239.04 167.33 M 191.23 119.52 L 191.23 131.47 M 227.09 119.52 L 227.09 131.47 M 191.23 167.33 L 191.23 179.28 M 227.09 167.33 L 227.09 179.28 M 250.99 119.52 L 250.99 131.47 L 239.04 131.47 M 239.04 167.33 L 250.99 167.33 L 250.99 179.28 M 298.8 131.47 L 286.85 131.47 L 286.85 119.52 M 298.8 167.33 L 286.85 167.33 L 286.85 179.28 M 310.75 119.52 L 310.75 179.28 M 346.61 119.52 L 346.61 179.28 M 298.8 131.47 L 310.75 131.47 M 298.8 167.33 L 310.75 167.33 M 358.56 131.47 L 346.61 131.47 M 358.56 167.33 L 346.61 167.33 M 358.56 131.47 L 418.32 131.47 M 358.56 167.33 L 370.51 167.33 L 370.51 179.28 M 418.32 167.33 L 406.37 167.33 L 406.37 179.28 M 418.32 131.47 L 478.08 131.47 M 418.32 167.33 L 478.08 167.33 M 430.27 119.52 L 430.27 131.47 M 466.13 119.52 L 466.13 131.47 M 430.27 167.33 L 430.27 179.28 M 466.13 167.33 L 466.13 179.28 M 490.03 119.52 L 490.03 131.47 L 478.08 131.47 M 525.89 119.52 L 525.89 167.33 L 478.08 167.33 M 585.65 119.52 L 585.65 126.26 L 585.65 167.33 L 549.79 167.33 L 549.79 119.52 M 47.81 239.04 L 47.81 191.23 L 11.95 191.23 L 11.95 239.04 M 71.71 179.28 L 71.71 239.04 M 107.57 179.28 L 107.57 239.04 M 167.33 179.28 L 167.33 186.02 L 167.33 227.09 L 131.47 227.09 L 131.47 179.28 M 227.09 179.28 L 227.09 186.02 L 227.09 227.09 L 191.23 227.09 L 191.23 179.28 M 286.85 179.28 L 286.85 186.02 L 286.85 227.09 L 250.99 227.09 L 250.99 179.28 M 310.75 179.28 L 310.75 239.04 M 358.56 191.23 L 346.61 191.23 L 346.61 179.28 M 358.56 227.09 L 346.61 227.09 L 346.61 239.04 M 358.56 191.23 L 418.32 191.23 M 358.56 227.09 L 418.32 227.09 M 370.51 179.28 L 370.51 191.23 M 406.37 179.28 L 406.37 191.23 M 370.51 227.09 L 370.51 239.04 M 406.37 227.09 L 406.37 239.04 M 430.27 179.28 L 430.27 191.23 L 418.32 191.23 M 466.13 179.28 L 466.13 227.09 L 418.32 227.09 M 537.84 227.09 L 525.89 227.09 L 525.89 239.04 M 537.84 191.23 L 490.03 191.23 L 490.03 239.04 M 537.84 227.09 L 585.65 227.09 L 585.65 191.23 L 537.84 191.23 M 59.76 250.99 L 47.81 250.99 L 47.81 239.04 M 59.76 286.85 L 11.95 286.85 L 11.95 239.04 M 59.76 250.99 L 119.52 250.99 M 59.76 286.85 L 119.52 286.85 M 71.71 239.04 L 71.71 250.99 M 107.57 239.04 L 107.57 250.99 M 71.71 286.85 L 71.71 298.8 M 107.57 286.85 L 107.57 298.8 M 119.52 286.85 L 131.47 286.85 L 131.47 298.8 M 119.52 250.99 L 167.33 250.99 L 167.33 298.8 M 227.09 298.8 L 227.09 250.99 L 191.23 250.99 L 191.23 298.8 M 286.85 298.8 L 286.85 250.99 L 250.99 250.99 L 250.99 298.8 M 346.61 239.04 L 346.61 245.78 L 346.61 286.85 L 310.75 286.85 L 310.75 239.04 M 418.32 250.99 L 406.37 250.99 L 406.37 239.04 M 418.32 286.85 L 370.51 286.85 L 370.51 239.04 M 418.32 250.99 L 478.08 250.99 M 418.32 286.85 L 430.27 286.85 L 430.27 298.8 M 478.08 286.85 L 466.13 286.85 L 466.13 298.8 M 478.08 250.99 L 537.84 250.99 M 478.08 286.85 L 537.84 286.85 M 490.03 239.04 L 490.03 250.99 M 525.89 239.04 L 525.89 250.99 M 490.03 286.85 L 490.03 298.8 M 525.89 286.85 L 525.89 298.8 M 537.84 286.85 L 549.79 286.85 L 549.79 298.8 M 537.84 250.99 L 585.65 250.99 L 585.65 298.8 M 47.81 358.56 L 47.81 310.75 L 11.95 310.75 L 11.95 358.56 M 71.71 298.8 L 71.71 358.56 M 107.57 298.8 L 107.57 358.56 M 179.28 310.75 L 167.33 310.75 L 167.33 298.8 M 179.28 346.61 L 131.47 346.61 L 131.47 298.8 M 191.23 298.8 L 191.23 310.75 L 179.28 310.75 M 179.28 346.61 L 191.23 346.61 L 191.23 358.56 M 239.04 310.75 L 227.09 310.75 L 227.09 298.8 M 239.04 346.61 L 227.09 346.61 L 227.09 358.56 M 250.99 298.8 L 250.99 358.56 M 286.85 298.8 L 286.85 358.56 M 239.04 310.75 L 250.99 310.75 M 239.04 346.61 L 250.99 346.61 M 298.8 310.75 L 286.85 310.75 M 298.8 346.61 L 286.85 346.61 M 298.8 346.61 L 310.75 346.61 L 310.75 358.56 M 298.8 310.75 L 346.61 310.75 L 346.61 358.56 M 418.32 346.61 L 406.37 346.61 L 406.37 358.56 M 418.32 310.75 L 370.51 310.75 L 370.51 358.56 M 418.32 310.75 L 478.08 310.75 M 418.32 346.61 L 478.08 346.61 M 430.27 298.8 L 430.27 310.75 M 466.13 298.8 L 466.13 310.75 M 430.27 346.61 L 430.27 358.56 M 466.13 346.61 L 466.13 358.56 M 490.03 298.8 L 490.03 310.75 L 478.08 310.75 M 525.89 298.8 L 525.89 346.61 L 478.08 346.61 M 585.65 298.8 L 585.65 305.54 L 585.65 346.61 L 549.79 346.61 L 549.79 298.8 M 11.95 358.56 L 11.95 418.32 M 59.76 370.51 L 47.81 370.51 L 47.81 358.56 M 59.76 406.37 L 47.81 406.37 L 47.81 418.32 M 59.76 370.51 L 119.52 370.51 M 59.76 406.37 L 119.52 406.37 M 71.71 358.56 L 71.71 370.51 M 107.57 358.56 L 107.57 370.51 M 71.71 406.37 L 71.71 418.32 M 107.57 406.37 L 107.57 418.32 M 119.52 370.51 L 179.28 370.51 M 119.52 406.37 L 131.47 406.37 L 131.47 418.32 M 179.28 406.37 L 167.33 406.37 L 167.33 418.32 M 191.23 358.56 L 191.23 418.32 M 227.09 358.56 L 227.09 418.32 M 179.28 370.51 L 191.23 370.51 M 179.28 406.37 L 191.23 406.37 M 239.04 370.51 L 227.09 370.51 M 239.04 406.37 L 227.09 406.37 M 286.85 358.56 L 286.85 418.32 M 250.99 358.56 L 250.99 370.51 L 239.04 370.51 M 239.04 406.37 L 250.99 406.37 L 250.99 418.32 M 358.56 370.51 L 346.61 370.51 L 346.61 358.56 M 358.56 406.37 L 310.75 406.37 L 310.75 358.56 M 358.56 370.51 L 418.32 370.51 M 358.56 406.37 L 418.32 406.37 M 370.51 358.56 L 370.51 370.51 M 406.37 358.56 L 406.37 370.51 M 370.51 406.37 L 370.51 418.32 M 406.37 406.37 L 406.37 418.32 M 466.13 358.56 L 466.13 418.32 M 430.27 358.56 L 430.27 370.51 L 418.32 370.51 M 418.32 406.37 L 430.27 406.37 L 430.27 418.32 M 537.84 406.37 L 525.89 406.37 L 525.89 418.32 M 537.84 370.51 L 490.03 370.51 L 490.03 418.32 M 537.84 406.37 L 585.65 406.37 L 585.65 370.51 L 537.84 370.51 M 11.95 418.32 L 11.95 478.08 M 47.81 418.32 L 47.81 478.08 M 119.52 430.27 L 107.57 430.27 L 107.57 418.32 M 119.52 466.13 L 71.71 466.13 L 71.71 418.32 M 131.47 418.32 L 131.47 478.08 M 167.33 418.32 L 167.33 478.08 M 119.52 430.27 L 131.47 430.27 M 119.52 466.13 L 131.47 466.13 M 179.28 430.27 L 167.33 430.27 M 179.28 466.13 L 167.33 466.13 M 179.28 466.13 L 239.04 466.13 M 191.23 418.32 L 191.23 430.27 L 179.28 430.27 M 239.04 430.27 L 227.09 430.27 L 227.09 418.32 M 250.99 418.32 L 250.99 478.08 M 286.85 418.32 L 286.85 478.08 M 239.04 430.27 L 250.99 430.27 M 239.04 466.13 L 250.99 466.13 M 298.8 430.27 L 286.85 430.27 M 298.8 466.13 L 286.85 466.13 M 298.8 430.27 L 358.56 430.27 M 298.8 466.13 L 310.75 466.13 L 310.75 478.08 M 358.56 466.13 L 346.61 466.13 L 346.61 478.08 M 358.56 466.13 L 418.32 466.13 M 370.51 418.32 L 370.51 430.27 L 358.56 430.27 M 418.32 430.27 L 406.37 430.27 L 406.37 418.32 M 430.27 418.32 L 430.27 478.08 M 466.13 418.32 L 466.13 478.08 M 418.32 430.27 L 430.27 430.27 M 418.32 466.13 L 430.27 466.13 M 478.08 430.27 L 466.13 430.27 M 478.08 466.13 L 466.13 466.13 M 490.03 418.32 L 490.03 430.27 L 478.08 430.27 M 525.89 418.32 L 525.89 466.13 L 478.08 466.13 M 585.65 478.08 L 585.65 430.27 L 549.79 430.27 L 549.79 478.08 M 11.95 478.08 L 11.95 537.84 M 47.81 478.08 L 47.81 537.84 M 107.57 537.84 L 107.57 490.03 L 71.71 490.03 L 71.71 537.84 M 131.47 478.08 L 131.47 537.84 M 167.33 478.08 L 167.33 537.84 M 239.04 525.89 L 227.09 525.89 L 227.09 537.84 M 239.04 490.03 L 191.23 490.03 L 191.23 537.84 M 250.99 478.08 L 250.99 490.03 L 239.04 490.03 M 239.04 525.89 L 250.99 525.89 L 250.99 537.84 M 298.8 490.03 L 286.85 490.03 L 286.85 478.08 M 298.8 525.89 L 286.85 525.89 L 286.85 537.84 M 298.8 490.03 L 358.56 490.03 M 298.8 525.89 L 358.56 525.89 M 310.75 478.08 L 310.75 490.03 M 346.61 478.08 L 346.61 490.03 M 310.75 525.89 L 310.75 537.84 M 346.61 525.89 L 346.61 537.84 M 358.56 525.89 L 370.51 525.89 L 370.51 537.84 M 358.56 490.03 L 406.37 490.03 L 406.37 537.84 M 430.27 478.08 L 430.27 537.84 M 478.08 490.03 L 466.13 490.03 L 466.13 478.08 M 478.08 525.89 L 466.13 525.89 L 466.13 537.84 M 478.08 490.03 L 537.84 490.03 M 478.08 525.89 L 490.03 525.89 L 490.03 537.84 M 537.84 525.89 L 525.89 525.89 L 525.89 537.84 M 585.65 478.08 L 585.65 537.84 M 549.79 478.08 L 549.79 490.03 L 537.84 490.03 M 537.84 525.89 L 549.79 525.89 L 549.79 537.84 M 59.76 549.79 L 47.81 549.79 L 47.81 537.84 M 59.76 585.65 L 11.95 585.65 L 11.95 537.84 M 71.71 537.84 L 71.71 549.79 L 59.76 549.79 M 107.57 537.84 L 107.57 585.65 L 59.76 585.65 M 167.33 537.84 L 167.33 544.58 L 167.33 585.65 L 131.47 585.65 L 131.47 537.84 M 227.09 537.84 L 227.09 544.58 L 227.09 585.65 L 191.23 585.65 L 191.23 537.84 M 286.85 537.84 L 286.85 544.58 L 286.85 585.65 L 250.99 585.65 L 250.99 537.84 M 346.61 537.84 L 346.61 544.58 L 346.61 585.65 L 310.75 585.65 L 310.75 537.84 M 418.32 549.79 L 406.37 549.79 L 406.37 537.84 M 418.32 585.65 L 370.51 585.65 L 370.51 537.84 M 430.27 537.84 L 430.27 549.79 L 418.32 549.79 M 466.13 537.84 L 466.13 585.65 L 418.32 585.65 M 525.89 537.84 L 525.89 544.58 L 525.89 585.65 L 490.03 585.65 L 490.03 537.84 " /> <circle cx="29.88" cy="29.88" r="19.92" fill-opacity="1.0" stroke-opacity="0" fill="#E51919" /><circle cx="567.72" cy="567.72" r="19.92" fill-opacity="1.0" stroke-opacity="0" fill="#E51919" />  </svg>