<svg id="maze" xmlns="http://www.w3.org/2000/svg" viewBox="0 0 597.6 597.6"  width="597.6px" height="597.6px" stroke-width="2" fill-opacity="0.0" stroke="black"> <path stroke-opacity="1.0" stroke-width="2" stroke="#000000" d="M 107.57 59.76 L 107.57 11.95 L 71.71 11.95 L 71.71 59.76 M 179.28 47.81 L 131.47 47.81 L 131.47 11.95 L 179.28 11.95 M 179.28 11.95 L 239.04 11.95 M 179.28 47.81 L 191.23 47.81 L 191.23 59.76 M 239.04 47.81 L 227.09 47.81 L 227.09 59.76 M 239.04 47.81 L 286.85 47.81 L 286.85 11.95 L 239.04 11.95 M 358.56 47.81 L 346.61 47.81 L 346.61 59.76 M 358.56 11.95 L 310.75 11.95 L 310.75 59.76 M 358.56 47.81 L 370.51 47.81 L 370.51 59.76 M 358.56 11.95 L 406.37 11.95 L 406.37 59.76 M 466.13 59.76 L 466.13 11.95 L 430.27 11.95 L 430.27 59.76 M 537.84 47.81 L 525.89 47.81 L 525.89 59.76 M 537.84 11.95 L 490.03 11.95 L 490.03 59.76 M 537.84 47.81 L 585.65 47.81 L 585.65 11.95 L 537.84 11.95 M 59.76 71.71 L 47.81 71.71 L 47.81 59.76 M 59.76 107.57 L 11.95 107.57 L 11.95 59.76 M 71.71 59.76 L 71.71 119.52 M 107.57 59.76 L 107.57 119.52 M 59.76 71.71 L 71.71 71.71 M 59.76 107.57 L 71.71 107.57 M 119.52 71.71 L 107.57 71.71 M 119.52 107.57 L 107.57 107.57 M 119.52 71.71 L 179.28 71.71 M 119.52 107.57 L 131.47 107.57 L 131.47 119.52 M 179.28 107.57 L 167.33 107.57 L 167.33 119.52 M 191.23 59.76 L 191.23 119.52 M 227.09 59.76 L 227.09 119.52 M 179.28 71.71 L 191.23 71.71 M 179.28 107.57 L 191.23 107.57 M 239.04 71.71 L 227.09 71.71 M 239.04 107.57 L 227.09 107.57 M 239.04 71.71 L 298.8 71.71 M 239.04 107.57 L 298.8 107.57 M 298.8 71.71 L 358.56 71.71 M 298.8 107.57 L 358.56 107.57 M 310.75 59.76 L 310.75 71.71 M 346.61 59.76 L 346.61 71.71 M 310.75 107.57 L 310.75 119.52 M 346.61 107.57 L 346.61 119.52 M 370.51 59.76 L 370.51 71.71 L 358.56 71.71 M 406.37 59.76 L 406.37 107.57 L 358.56 107.57 M 430.27 59.76 L 430.27 119.52 M 478.08 71.71 L 466.13 71.71 L 466.13 59.76 M 478.08 107.57 L 466.13 107.57 L 466.13 119.52 M 478.08 71.71 L 537.84 71.71 M 478.08 107.57 L 537.84 107.57 M 490.03 59.76 L 490.03 71.71 M 525.89 59.76 L 525.89 71.71 M 490.03 107.57 L 490.03 119.52 M 525.89 107.57 L 525.89 119.52 M 537.84 107.57 L 585.65 107.57 L 585.65 71.71 L 537.84 71.71 M 59.76 167.33 L 11.95 167.33 L 11.95 131.47 L 59.76 131.47 M 71.71 119.52 L 71.71 131.47 L 59.76 131.47 M 59.76 167.33 L 71.71 167.33 L 71.71 179.28 M 119.52 131.47 L 107.57 131.47 L 107.57 119.52 M 119.52 167.33 L 107.57 167.33 L 107.57 179.28 M 119.52 131.47 L 179.28 131.47 M 119.52 167.33 L 179.28 167.33 M 131.47 119.52 L 131.47 131.47 M 167.33 119.52 L 167.33 131.47 M 131.47 167.33 L 131.47 179.28 M 167.33 167.33 L 167.33 179.28 M 227.09 119.52 L 227.09 179.28 M 191.23 119.52 L 191.23 131.47 L 179.28 131.47 M 179.28 167.33 L 191.23 167.33 L 191.23 179.28 M 286.85 179.28 L 286.85 131.47 L 250.99 131.47 L 250.99 179.28 M 346.61 119.52 L 346.61 126.26 L 346.61 167.33 L 310.75 167.33 L 310.75 119.52 M 418.32 167.33 L 406.37 167.33 L 406.37 179.28 M 418.32 131.47 L 370.51 131.47 L 370.51 179.28 M 418.32 131.47 L 478.08 131.47 M 418.32 167.33 L 478.08 167.33 M 430.27 119.52 L 430.27 131.47 M 466.13 119.52 L 466.13 131.47 M 430.27 167.33 L 430.27 179.28 M 466.13 167.33 L 466.13 179.28 M 525.89 119.52 L 525.89 179.28 M 490.03 119.52 L 490.03 131.47 L 478.08 131.47 M 478.08 167.33 L 490.03 167.33 L 490.03 179.28 M 585.65 179.28 L 585.65 131.47 L 549.79 131.47 L 549.79 179.28 M 59.76 227.09 L 11.95 227.09 L 11.95 191.23 L 59.76 191.23 M 71.71 179.28 L 71.71 239.04 M 107.57 179.28 L 107.57 239.04 M 59.76 191.23 L 71.71 191.23 M 59.76 227.09 L 71.71 227.09 M 119.52 191.23 L 107.57 191.23 M 119.52 227.09 L 107.57 227.09 M 167.33 179.28 L 167.33 239.04 M 131.47 179.28 L 131.47 191.23 L 119.52 191.23 M 119.52 227.09 L 131.47 227.09 L 131.47 239.04 M 191.23 179.28 L 191.23 239.04 M 239.04 191.23 L 227.09 191.23 L 227.09 179.28 M 239.04 227.09 L 227.09 227.09 L 227.09 239.04 M 239.04 191.23 L 298.8 191.23 M 239.04 227.09 L 298.8 227.09 M 250.99 179.28 L 250.99 191.23 M 286.85 179.28 L 286.85 191.23 M 250.99 227.09 L 250.99 239.04 M 286.85 227.09 L 286.85 239.04 M 298.8 191.23 L 358.56 191.23 M 298.8 227.09 L 310.75 227.09 L 310.75 239.04 M 358.56 227.09 L 346.61 227.09 L 346.61 239.04 M 358.56 191.23 L 418.32 191.23 M 358.56 227.09 L 418.32 227.09 M 370.51 179.28 L 370.51 191.23 M 406.37 179.28 L 406.37 191.23 M 370.51 227.09 L 370.51 239.04 M 406.37 227.09 L 406.37 239.04 M 418.32 227.09 L 478.08 227.09 M 430.27 179.28 L 430.27 191.23 L 418.32 191.23 M 478.08 191.23 L 466.13 191.23 L 466.13 179.28 M 478.08 191.23 L 537.84 191.23 M 478.08 227.09 L 537.84 227.09 M 490.03 179.28 L 490.03 191.23 M 525.89 179.28 L 525.89 191.23 M 490.03 227.09 L 490.03 239.04 M 525.89 227.09 L 525.89 239.04 M 549.79 179.28 L 549.79 191.23 L 537.84 191.23 M 585.65 179.28 L 585.65 227.09 L 537.84 227.09 M 47.81 298.8 L 47.81 250.99 L 11.95 250.99 L 11.95 298.8 M 71.71 239.04 L 71.71 298.8 M 107.57 239.04 L 107.57 298.8 M 179.28 250.99 L 167.33 250.99 L 167.33 239.04 M 179.28 286.85 L 131.47 286.85 L 131.47 239.04 M 179.28 250.99 L 239.04 250.99 M 179.28 286.85 L 239.04 286.85 M 191.23 239.04 L 191.23 250.99 M 227.09 239.04 L 227.09 250.99 M 191.23 286.85 L 191.23 298.8 M 227.09 286.85 L 227.09 298.8 M 250.99 239.04 L 250.99 250.99 L 239.04 250.99 M 239.04 286.85 L 250.99 286.85 L 250.99 298.8 M 298.8 250.99 L 286.85 250.99 L 286.85 239.04 M 298.8 286.85 L 286.85 286.85 L 286.85 298.8 M 310.75 239.04 L 310.75 298.8 M 346.61 239.04 L 346.61 298.8 M 298.8 250.99 L 310.75 250.99 M 298.8 286.85 L 310.75 286.85 M 358.56 250.99 L 346.61 250.99 M 358.56 286.85 L 346.61 286.85 M 370.51 239.04 L 370.51 250.99 L 358.56 250.99 M 406.37 239.04 L 406.37 286.85 L 358.56 286.85 M 478.08 286.85 L 466.13 286.85 L 466.13 298.8 M 478.08 250.99 L 430.27 250.99 L 430.27 298.8 M 478.08 286.85 L 537.84 286.85 M 490.03 239.04 L 490.03 250.99 L 478.08 250.99 M 537.84 250.99 L 525.89 250.99 L 525.89 239.04 M 537.84 286.85 L 549.79 286.85 L 549.79 298.8 M 537.84 250.99 L 585.65 250.99 L 585.65 298.8 M 11.95 298.8 L 11.95 358.56 M 59.76 310.75 L 47.81 310.75 L 47.81 298.8 M 59.76 346.61 L 47.81 346.61 L 47.81 358.56 M 59.76 310.75 L 119.52 310.75 M 59.76 346.61 L 119.52 346.61 M 71.71 298.8 L 71.71 310.75 M 107.57 298.8 L 107.57 310.75 M 71.71 346.61 L 71.71 358.56 M 107.57 346.61 L 107.57 358.56 M 119.52 346.61 L 167.33 346.61 L 167.33 310.75 L 119.52 310.75 M 191.23 298.8 L 191.23 358.56 M 227.09 298.8 L 227.09 358.56 M 298.8 310.75 L 286.85 310.75 L 286.85 298.8 M 298.8 346.61 L 250.99 346.61 L 250.99 298.8 M 310.75 298.8 L 310.75 310.75 L 298.8 310.75 M 298.8 346.61 L 310.75 346.61 L 310.75 358.56 M 358.56 310.75 L 346.61 310.75 L 346.61 298.8 M 358.56 346.61 L 346.61 346.61 L 346.61 358.56 M 358.56 346.61 L 406.37 346.61 L 406.37 310.75 L 358.56 310.75 M 430.27 298.8 L 430.27 358.56 M 466.13 298.8 L 466.13 358.56 M 537.84 346.61 L 490.03 346.61 L 490.03 310.75 L 537.84 310.75 M 585.65 298.8 L 585.65 358.56 M 549.79 298.8 L 549.79 310.75 L 537.84 310.75 M 537.84 346.61 L 549.79 346.61 L 549.79 358.56 M 59.76 370.51 L 47.81 370.51 L 47.81 358.56 M 59.76 406.37 L 11.95 406.37 L 11.95 358.56 M 71.71 358.56 L 71.71 370.51 L 59.76 370.51 M 107.57 358.56 L 107.57 406.37 L 59.76 406.37 M 179.28 406.37 L 167.33 406.37 L 167.33 418.32 M 179.28 370.51 L 131.47 370.51 L 131.47 418.32 M 179.28 370.51 L 239.04 370.51 M 179.28 406.37 L 239.04 406.37 M 191.23 358.56 L 191.23 370.51 M 227.09 358.56 L 227.09 370.51 M 191.23 406.37 L 191.23 418.32 M 227.09 406.37 L 227.09 418.32 M 239.04 370.51 L 298.8 370.51 M 239.04 406.37 L 250.99 406.37 L 250.99 418.32 M 298.8 406.37 L 286.85 406.37 L 286.85 418.32 M 310.75 358.56 L 310.75 418.32 M 346.61 358.56 L 346.61 418.32 M 298.8 370.51 L 310.75 370.51 M 298.8 406.37 L 310.75 406.37 M 358.56 370.51 L 346.61 370.51 M 358.56 406.37 L 346.61 406.37 M 358.56 406.37 L 370.51 406.37 L 370.51 418.32 M 358.56 370.51 L 406.37 370.51 L 406.37 418.32 M 466.13 358.56 L 466.13 365.3 L 466.13 406.37 L 430.27 406.37 L 430.27 358.56 M 537.84 406.37 L 490.03 406.37 L 490.03 370.51 L 537.84 370.51 M 549.79 358.56 L 549.79 370.51 L 537.84 370.51 M 585.65 358.56 L 585.65 406.37 L 537.84 406.37 M 59.76 466.13 L 47.81 466.13 L 47.81 478.08 M 59.76 430.27 L 11.95 430.27 L 11.95 478.08 M 59.76 430.27 L 119.52 430.27 M 59.76 466.13 L 71.71 466.13 L 71.71 478.08 M 119.52 466.13 L 107.57 466.13 L 107.57 478.08 M 119.52 430.27 L 179.28 430.27 M 119.52 466.13 L 179.28 466.13 M 131.47 418.32 L 131.47 430.27 M 167.33 418.32 L 167.33 430.27 M 131.47 466.13 L 131.47 478.08 M 167.33 466.13 L 167.33 478.08 M 191.23 418.32 L 191.23 430.27 L 179.28 430.27 M 179.28 466.13 L 191.23 466.13 L 191.23 478.08 M 239.04 430.27 L 227.09 430.27 L 227.09 418.32 M 239.04 466.13 L 227.09 466.13 L 227.09 478.08 M 250.99 418.32 L 250.99 430.27 L 239.04 430.27 M 286.85 418.32 L 286.85 466.13 L 239.04 466.13 M 358.56 430.27 L 346.61 430.27 L 346.61 418.32 M 358.56 466.13 L 310.75 466.13 L 310.75 418.32 M 370.51 418.32 L 370.51 478.08 M 406.37 418.32 L 406.37 478.08 M 358.56 430.27 L 370.51 430.27 M 358.56 466.13 L 370.51 466.13 M 418.32 430.27 L 406.37 430.27 M 418.32 466.13 L 406.37 466.13 M 418.32 430.27 L 478.08 430.27 M 418.32 466.13 L 430.27 466.13 L 430.27 478.08 M 478.08 466.13 L 466.13 466.13 L 466.13 478.08 M 478.08 430.27 L 537.84 430.27 M 478.08 466.13 L 537.84 466.13 M 537.84 466.13 L 549.79 466.13 L 549.79 478.08 M 537.84 430.27 L 585.65 430.27 L 585.65 478.08 M 11.95 478.08 L 11.95 537.84 M 47.81 478.08 L 47.81 537.84 M 107.57 478.08 L 107.57 484.82 L 107.57 525.89 L 71.71 525.89 L 71.71 478.08 M 167.33 478.08 L 167.33 484.82 L 167.33 525.89 L 131.47 525.89 L 131.47 478.08 M 191.23 478.08 L 191.23 537.84 M 227.09 478.08 L 227.09 537.84 M 286.85 537.84 L 286.85 490.03 L 250.99 490.03 L 250.99 537.84 M 346.61 537.84 L 346.61 490.03 L 310.75 490.03 L 310.75 537.84 M 370.51 478.08 L 370.51 537.84 M 418.32 490.03 L 406.37 490.03 L 406.37 478.08 M 418.32 525.89 L 406.37 525.89 L 406.37 537.84 M 430.27 478.08 L 430.27 537.84 M 466.13 478.08 L 466.13 537.84 M 418.32 490.03 L 430.27 490.03 M 418.32 525.89 L 430.27 525.89 M 478.08 490.03 L 466.13 490.03 M 478.08 525.89 L 466.13 525.89 M 478.08 525.89 L 490.03 525.89 L 490.03 537.84 M 478.08 490.03 L 525.89 490.03 L 525.89 537.84 M 585.65 478.08 L 585.65 484.82 L 585.65 525.89 L 549.79 525.89 L 549.79 478.08 M 59.76 549.79 L 47.81 549.79 L 47.81 537.84 M 59.76 585.65 L 11.95 585.65 L 11.95 537.84 M 59.76 549.79 L 119.52 549.79 M 59.76 585.65 L 119.52 585.65 M 119.52 585.65 L 167.33 585.65 L 167.33 549.79 L 119.52 549.79 M 239.04 549.79 L 227.09 549.79 L 227.09 537.84 M 239.04 585.65 L 191.23 585.65 L 191.23 537.84 M 250.99 537.84 L 250.99 549.79 L 239.04 549.79 M 286.85 537.84 L 286.85 585.65 L 239.04 585.65 M 358.56 549.79 L 346.61 549.79 L 346.61 537.84 M 358.56 585.65 L 310.75 585.65 L 310.75 537.84 M 370.51 537.84 L 370.51 549.79 L 358.56 549.79 M 406.37 537.84 L 406.37 585.65 L 358.56 585.65 M 466.13 537.84 L 466.13 544.58 L 466.13 585.65 L 430.27 585.65 L 430.27 537.84 M 537.84 549.79 L 525.89 549.79 L 525.89 537.84 M 537.84 585.65 L 490.03 585.65 L 490.03 537.84 " /> <circle cx="29.88" cy="29.88" r="19.92" fill-opacity="1.0" stroke-opacity="0" fill="#E51919" /><circle cx="567.72" cy="567.72" r="19.92" fill-opacity="1.0" stroke-opacity="0" fill="#E51919" /> <path stroke-opacity="1.0" stroke-width="5" stroke="#E51919" d="M 29.88 59.76 L 29.88 29.88 M 59.76 89.64 L 29.88 89.64 L 29.88 59.76 M 119.52 89.64 L 149.4 89.64 L 149.4 119.52 M 59.76 89.64 L 71.71 89.64 M 119.52 89.64 L 107.57 89.64 M 149.4 179.28 L 149.4 239.04 M 149.4 119.52 L 149.4 131.47 M 149.4 179.28 L 149.4 167.33 M 179.28 268.92 L 149.4 268.92 L 149.4 239.04 M 239.04 268.92 L 268.92 268.92 L 268.92 298.8 M 179.28 268.92 L 239.04 268.92 M 298.8 328.68 L 268.92 328.68 L 268.92 298.8 M 328.68 298.8 L 328.68 328.68 L 298.8 328.68 M 298.8 209.16 L 328.68 209.16 L 328.68 239.04 M 328.68 239.04 L 328.68 298.8 M 239.04 209.16 L 209.16 209.16 L 209.16 239.04 M 239.04 209.16 L 298.8 209.16 M 209.16 298.8 L 209.16 358.56 M 209.16 239.04 L 209.16 250.99 M 209.16 298.8 L 209.16 286.85 M 239.04 448.2 L 209.16 448.2 L 209.16 418.32 M 209.16 358.56 L 209.16 370.51 M 209.16 418.32 L 209.16 406.37 M 268.92 418.32 L 268.92 448.2 L 239.04 448.2 M 298.8 388.44 L 268.92 388.44 L 268.92 418.32 M 358.56 388.44 L 388.44 388.44 L 388.44 418.32 M 298.8 388.44 L 310.75 388.44 M 358.56 388.44 L 346.61 388.44 M 418.32 507.96 L 388.44 507.96 L 388.44 478.08 M 388.44 418.32 L 388.44 478.08 M 478.08 507.96 L 507.96 507.96 L 507.96 537.84 M 418.32 507.96 L 430.27 507.96 M 478.08 507.96 L 466.13 507.96 M 567.72 567.72 L 537.84 567.72 M 537.84 567.72 L 507.96 567.72 L 507.96 537.84 " />  <path stroke-opacity="0.2" stroke-width="5" stroke="#E51919" d="M 29.88 59.76 L 29.88 29.88 M 71.71 89.64 L 89.64 89.64 M 107.57 89.64 L 89.64 89.64 M 149.4 131.47 L 149.4 149.4 M 149.4 167.33 L 149.4 149.4 M 209.16 250.99 L 209.16 268.92 M 209.16 286.85 L 209.16 268.92 M 209.16 370.51 L 209.16 388.44 M 209.16 406.37 L 209.16 388.44 M 310.75 388.44 L 328.68 388.44 M 346.61 388.44 L 328.68 388.44 M 430.27 507.96 L 448.2 507.96 M 466.13 507.96 L 448.2 507.96 M 567.72 567.72 L 537.84 567.72 " />   </svg>