<svg id="maze" width="800" height="800" stroke-width="3" fill-opacity="0.0" stroke="#000">
          <path stroke-linecap="round" 
            d="M78 62.4
L62.4 62.4
L62.4 78
M78 15.6
L15.6 15.6
L15.6 78
M78 62.4
L93.6 62.4
L93.6 78
M78 15.6
L140.4 15.6
L140.4 78
M234 62.4
L218.4 62.4
L218.4 78
M234 15.6
L171.6 15.6
L171.6 78
M234 62.4
L296.4 62.4
L296.4 15.6
L234 15.6
M390 62.4
L327.6 62.4
L327.6 15.6
L390 15.6
M390 62.4
L405.6 62.4
L405.6 78
M390 15.6
L452.4 15.6
L452.4 78
M546 62.4
L530.4 62.4
L530.4 78
M546 15.6
L483.6 15.6
L483.6 78
M546 62.4
L608.4 62.4
L608.4 15.6
L546 15.6
M702 62.4
L686.4 62.4
L686.4 78
M702 15.6
L639.6 15.6
L639.6 78
M62.4 78
L62.4 140.4
L15.6 140.4
L15.6 78
M156 93.6
L140.4 93.6
L140.4 78
M156 140.4
L93.6 140.4
L93.6 78
M171.6 156
L171.6 78
M218.4 156
L218.4 78
M156 93.6
L171.6 93.6
M156 140.4
L171.6 140.4
M234 93.6
L218.4 93.6
M234 140.4
L218.4 140.4
M234 140.4
L249.6 140.4
L249.6 156
M234 93.6
L296.4 93.6
L296.4 156
M390 140.4
L327.6 140.4
L327.6 93.6
L390 93.6
M390 140.4
L468 140.4
M390 93.6
L468 93.6
M405.6 93.6
L405.6 78
M405.6 140.4
L405.6 156
M452.4 93.6
L452.4 78
M452.4 140.4
L452.4 156
M530.4 156
L530.4 78
M483.6 78
L483.6 93.6
L468 93.6
M468 140.4
L483.6 140.4
L483.6 156
M624 140.4
L561.6 140.4
L561.6 93.6
L624 93.6
M639.6 78
L639.6 93.6
L624 93.6
M624 140.4
L639.6 140.4
L639.6 156
M702 93.6
L686.4 93.6
L686.4 78
M702 140.4
L686.4 140.4
L686.4 156
M702 140.4
L764.4 140.4
L764.4 93.6
L702 93.6
M62.4 234
L62.4 171.6
L15.6 171.6
L15.6 234
M140.4 234
L140.4 171.6
L93.6 171.6
L93.6 234
M234 171.6
L218.4 171.6
L218.4 156
M234 218.4
L171.6 218.4
L171.6 156
M234 218.4
L312 218.4
M234 171.6
L312 171.6
M249.6 171.6
L249.6 156
M249.6 218.4
L249.6 234
M296.4 171.6
L296.4 156
M296.4 218.4
L296.4 234
M312 218.4
L327.6 218.4
L327.6 234
M312 171.6
L374.4 171.6
L374.4 234
M468 171.6
L452.4 171.6
L452.4 156
M468 218.4
L405.6 218.4
L405.6 156
M468 218.4
L546 218.4
M468 171.6
L546 171.6
M483.6 171.6
L483.6 156
M483.6 218.4
L483.6 234
M530.4 171.6
L530.4 156
M530.4 218.4
L530.4 234
M546 171.6
L624 171.6
M546 218.4
L561.6 218.4
L561.6 234
M624 218.4
L608.4 218.4
L608.4 234
M639.6 234
L639.6 156
M686.4 234
L686.4 156
M624 171.6
L639.6 171.6
M624 218.4
L639.6 218.4
M702 171.6
L686.4 171.6
M702 218.4
L686.4 218.4
M702 218.4
L717.6 218.4
L717.6 234
M702 171.6
L764.4 171.6
L764.4 234
M15.6 312
L15.6 234
M78 249.6
L62.4 249.6
L62.4 234
M78 296.4
L62.4 296.4
L62.4 312
M78 296.4
L156 296.4
M78 249.6
L156 249.6
M93.6 249.6
L93.6 234
M93.6 296.4
L93.6 312
M140.4 249.6
L140.4 234
M140.4 296.4
L140.4 312
M156 296.4
L171.6 296.4
L171.6 312
M156 249.6
L218.4 249.6
L218.4 312
M249.6 312
L249.6 234
M312 249.6
L296.4 249.6
L296.4 234
M312 296.4
L296.4 296.4
L296.4 312
M312 296.4
L390 296.4
M312 249.6
L390 249.6
M327.6 249.6
L327.6 234
M327.6 296.4
L327.6 312
M374.4 249.6
L374.4 234
M374.4 296.4
L374.4 312
M390 296.4
L405.6 296.4
L405.6 312
M390 249.6
L452.4 249.6
L452.4 312
M546 249.6
L530.4 249.6
L530.4 234
M546 296.4
L483.6 296.4
L483.6 234
M561.6 312
L561.6 234
M608.4 312
L608.4 234
M546 249.6
L561.6 249.6
M546 296.4
L561.6 296.4
M624 249.6
L608.4 249.6
M624 296.4
L608.4 296.4
M686.4 312
L686.4 234
M639.6 234
L639.6 249.6
L624 249.6
M624 296.4
L639.6 296.4
L639.6 312
M764.4 234
L764.4 296.4
L717.6 296.4
L717.6 234
M15.6 390
L15.6 312
M62.4 390
L62.4 312
M156 327.6
L140.4 327.6
L140.4 312
M156 374.4
L93.6 374.4
L93.6 312
M156 374.4
L234 374.4
M171.6 312
L171.6 327.6
L156 327.6
M234 327.6
L218.4 327.6
L218.4 312
M249.6 390
L249.6 312
M296.4 390
L296.4 312
M234 327.6
L249.6 327.6
M234 374.4
L249.6 374.4
M312 327.6
L296.4 327.6
M312 374.4
L296.4 374.4
M327.6 312
L327.6 327.6
L312 327.6
M312 374.4
L327.6 374.4
L327.6 390
M390 327.6
L374.4 327.6
L374.4 312
M390 374.4
L374.4 374.4
L374.4 390
M405.6 390
L405.6 312
M452.4 390
L452.4 312
M390 327.6
L405.6 327.6
M390 374.4
L405.6 374.4
M468 327.6
L452.4 327.6
M468 374.4
L452.4 374.4
M468 374.4
L483.6 374.4
L483.6 390
M468 327.6
L530.4 327.6
L530.4 390
M561.6 390
L561.6 312
M624 327.6
L608.4 327.6
L608.4 312
M624 374.4
L608.4 374.4
L608.4 390
M639.6 390
L639.6 312
M686.4 390
L686.4 312
M624 327.6
L639.6 327.6
M624 374.4
L639.6 374.4
M702 327.6
L686.4 327.6
M702 374.4
L686.4 374.4
M702 374.4
L764.4 374.4
L764.4 327.6
L702 327.6
M62.4 390
L62.4 452.4
L15.6 452.4
L15.6 390
M156 452.4
L93.6 452.4
L93.6 405.6
L156 405.6
M156 452.4
L234 452.4
M156 405.6
L234 405.6
M249.6 390
L249.6 405.6
L234 405.6
M296.4 390
L296.4 452.4
L234 452.4
M327.6 468
L327.6 390
M374.4 468
L374.4 390
M468 405.6
L452.4 405.6
L452.4 390
M468 452.4
L405.6 452.4
L405.6 390
M483.6 468
L483.6 390
M530.4 468
L530.4 390
M468 405.6
L483.6 405.6
M468 452.4
L483.6 452.4
M546 405.6
L530.4 405.6
M546 452.4
L530.4 452.4
M608.4 468
L608.4 390
M561.6 390
L561.6 405.6
L546 405.6
M546 452.4
L561.6 452.4
L561.6 468
M639.6 468
L639.6 390
M686.4 468
L686.4 390
M764.4 468
L764.4 405.6
L717.6 405.6
L717.6 468
M78 530.4
L15.6 530.4
L15.6 483.6
L78 483.6
M78 530.4
L93.6 530.4
L93.6 546
M78 483.6
L140.4 483.6
L140.4 546
M218.4 546
L218.4 483.6
L171.6 483.6
L171.6 546
M312 530.4
L296.4 530.4
L296.4 546
M312 483.6
L249.6 483.6
L249.6 546
M327.6 546
L327.6 468
M374.4 546
L374.4 468
M312 483.6
L327.6 483.6
M312 530.4
L327.6 530.4
M390 483.6
L374.4 483.6
M390 530.4
L374.4 530.4
M390 530.4
L405.6 530.4
L405.6 546
M390 483.6
L452.4 483.6
L452.4 546
M546 483.6
L530.4 483.6
L530.4 468
M546 530.4
L483.6 530.4
L483.6 468
M546 530.4
L624 530.4
M546 483.6
L624 483.6
M561.6 483.6
L561.6 468
M561.6 530.4
L561.6 546
M608.4 483.6
L608.4 468
M608.4 530.4
L608.4 546
M686.4 546
L686.4 468
M639.6 468
L639.6 483.6
L624 483.6
M624 530.4
L639.6 530.4
L639.6 546
M717.6 546
L717.6 468
M764.4 546
L764.4 468
M78 608.4
L15.6 608.4
L15.6 561.6
L78 561.6
M93.6 624
L93.6 546
M140.4 624
L140.4 546
M78 561.6
L93.6 561.6
M78 608.4
L93.6 608.4
M156 561.6
L140.4 561.6
M156 608.4
L140.4 608.4
M171.6 546
L171.6 561.6
L156 561.6
M156 608.4
L171.6 608.4
L171.6 624
M234 561.6
L218.4 561.6
L218.4 546
M234 608.4
L218.4 608.4
L218.4 624
M234 608.4
L312 608.4
M234 561.6
L312 561.6
M249.6 561.6
L249.6 546
M249.6 608.4
L249.6 624
M296.4 561.6
L296.4 546
M296.4 608.4
L296.4 624
M312 608.4
L390 608.4
M327.6 546
L327.6 561.6
L312 561.6
M390 561.6
L374.4 561.6
L374.4 546
M390 608.4
L468 608.4
M390 561.6
L468 561.6
M405.6 561.6
L405.6 546
M405.6 608.4
L405.6 624
M452.4 561.6
L452.4 546
M452.4 608.4
L452.4 624
M468 608.4
L546 608.4
M468 561.6
L546 561.6
M546 608.4
L624 608.4
M561.6 546
L561.6 561.6
L546 561.6
M624 561.6
L608.4 561.6
L608.4 546
M639.6 624
L639.6 546
M686.4 624
L686.4 546
M624 561.6
L639.6 561.6
M624 608.4
L639.6 608.4
M702 561.6
L686.4 561.6
M702 608.4
L686.4 608.4
M764.4 624
L764.4 546
M717.6 546
L717.6 561.6
L702 561.6
M702 608.4
L717.6 608.4
L717.6 624
M78 686.4
L62.4 686.4
L62.4 702
M78 639.6
L15.6 639.6
L15.6 702
M78 686.4
L156 686.4
M93.6 624
L93.6 639.6
L78 639.6
M156 639.6
L140.4 639.6
L140.4 624
M156 686.4
L234 686.4
M156 639.6
L234 639.6
M171.6 639.6
L171.6 624
M171.6 686.4
L171.6 702
M218.4 639.6
L218.4 624
M218.4 686.4
L218.4 702
M249.6 624
L249.6 639.6
L234 639.6
M296.4 624
L296.4 686.4
L234 686.4
M374.4 702
L374.4 639.6
L327.6 639.6
L327.6 702
M452.4 624
L452.4 686.4
L405.6 686.4
L405.6 624
M530.4 702
L530.4 639.6
L483.6 639.6
L483.6 702
M624 686.4
L561.6 686.4
L561.6 639.6
L624 639.6
M686.4 702
L686.4 624
M639.6 624
L639.6 639.6
L624 639.6
M624 686.4
L639.6 686.4
L639.6 702
M717.6 702
L717.6 624
M764.4 702
L764.4 624
M78 764.4
L156 764.4
M78 717.6
L156 717.6
M156 764.4
L234 764.4
M171.6 702
L171.6 717.6
L156 717.6
M234 717.6
L218.4 717.6
L218.4 702
M234 764.4
L296.4 764.4
L296.4 717.6
L234 717.6
M390 717.6
L374.4 717.6
L374.4 702
M390 764.4
L327.6 764.4
L327.6 702
M390 764.4
L468 764.4
M390 717.6
L468 717.6
M468 764.4
L546 764.4
M483.6 702
L483.6 717.6
L468 717.6
M546 717.6
L530.4 717.6
L530.4 702
M546 764.4
L624 764.4
M546 717.6
L624 717.6
M639.6 702
L639.6 717.6
L624 717.6
M686.4 702
L686.4 764.4
L624 764.4
M764.4 702
L764.4 764.4
L717.6 764.4
L717.6 702
"></path>
            <circle cx="741" cy="39" r="26" fill-opacity="1.0" stroke-opacity="0" fill="#E51919" /><circle cx="39" cy="741" r="26" fill-opacity="1.0" stroke-opacity="0" fill="#E51919" />
         </svg>