<svg id="maze" xmlns="http://www.w3.org/2000/svg" viewBox="0 0 597.6 597.6"  width="597.6px" height="597.6px" stroke-width="2" fill-opacity="0.0" stroke="black"> <path stroke-opacity="1.0" stroke-width="2" stroke="#000000" d="M 59.76 11.95 L 119.52 11.95 M 59.76 47.81 L 119.52 47.81 M 119.52 47.81 L 131.47 47.81 L 131.47 59.76 M 119.52 11.95 L 167.33 11.95 L 167.33 59.76 M 239.04 47.81 L 227.09 47.81 L 227.09 59.76 M 239.04 11.95 L 191.23 11.95 L 191.23 59.76 M 239.04 47.81 L 286.85 47.81 L 286.85 11.95 L 239.04 11.95 M 358.56 47.81 L 346.61 47.81 L 346.61 59.76 M 358.56 11.95 L 310.75 11.95 L 310.75 59.76 M 358.56 11.95 L 418.32 11.95 M 358.56 47.81 L 418.32 47.81 M 418.32 47.81 L 466.13 47.81 L 466.13 11.95 L 418.32 11.95 M 537.84 47.81 L 490.03 47.81 L 490.03 11.95 L 537.84 11.95 M 537.84 47.81 L 549.79 47.81 L 549.79 59.76 M 537.84 11.95 L 585.65 11.95 L 585.65 59.76 M 59.76 107.57 L 47.81 107.57 L 47.81 119.52 M 59.76 71.71 L 11.95 71.71 L 11.95 119.52 M 59.76 107.57 L 71.71 107.57 L 71.71 119.52 M 59.76 71.71 L 107.57 71.71 L 107.57 119.52 M 179.28 71.71 L 167.33 71.71 L 167.33 59.76 M 179.28 107.57 L 131.47 107.57 L 131.47 59.76 M 179.28 71.71 L 239.04 71.71 M 179.28 107.57 L 239.04 107.57 M 191.23 59.76 L 191.23 71.71 M 227.09 59.76 L 227.09 71.71 M 191.23 107.57 L 191.23 119.52 M 227.09 107.57 L 227.09 119.52 M 239.04 71.71 L 298.8 71.71 M 239.04 107.57 L 250.99 107.57 L 250.99 119.52 M 298.8 107.57 L 286.85 107.57 L 286.85 119.52 M 298.8 71.71 L 358.56 71.71 M 298.8 107.57 L 358.56 107.57 M 310.75 59.76 L 310.75 71.71 M 346.61 59.76 L 346.61 71.71 M 310.75 107.57 L 310.75 119.52 M 346.61 107.57 L 346.61 119.52 M 358.56 107.57 L 370.51 107.57 L 370.51 119.52 M 358.56 71.71 L 406.37 71.71 L 406.37 119.52 M 478.08 107.57 L 430.27 107.57 L 430.27 71.71 L 478.08 71.71 M 478.08 71.71 L 537.84 71.71 M 478.08 107.57 L 490.03 107.57 L 490.03 119.52 M 537.84 107.57 L 525.89 107.57 L 525.89 119.52 M 585.65 59.76 L 585.65 119.52 M 549.79 59.76 L 549.79 71.71 L 537.84 71.71 M 537.84 107.57 L 549.79 107.57 L 549.79 119.52 M 47.81 119.52 L 47.81 126.26 L 47.81 167.33 L 11.95 167.33 L 11.95 119.52 M 71.71 119.52 L 71.71 179.28 M 107.57 119.52 L 107.57 179.28 M 179.28 167.33 L 131.47 167.33 L 131.47 131.47 L 179.28 131.47 M 191.23 119.52 L 191.23 131.47 L 179.28 131.47 M 179.28 167.33 L 191.23 167.33 L 191.23 179.28 M 239.04 131.47 L 227.09 131.47 L 227.09 119.52 M 239.04 167.33 L 227.09 167.33 L 227.09 179.28 M 250.99 119.52 L 250.99 179.28 M 286.85 119.52 L 286.85 179.28 M 239.04 131.47 L 250.99 131.47 M 239.04 167.33 L 250.99 167.33 M 298.8 131.47 L 286.85 131.47 M 298.8 167.33 L 286.85 167.33 M 298.8 167.33 L 358.56 167.33 M 310.75 119.52 L 310.75 131.47 L 298.8 131.47 M 358.56 131.47 L 346.61 131.47 L 346.61 119.52 M 370.51 119.52 L 370.51 179.28 M 406.37 119.52 L 406.37 179.28 M 358.56 131.47 L 370.51 131.47 M 358.56 167.33 L 370.51 167.33 M 418.32 131.47 L 406.37 131.47 M 418.32 167.33 L 406.37 167.33 M 418.32 131.47 L 478.08 131.47 M 418.32 167.33 L 430.27 167.33 L 430.27 179.28 M 478.08 167.33 L 466.13 167.33 L 466.13 179.28 M 525.89 119.52 L 525.89 179.28 M 490.03 119.52 L 490.03 131.47 L 478.08 131.47 M 478.08 167.33 L 490.03 167.33 L 490.03 179.28 M 585.65 119.52 L 585.65 126.26 L 585.65 167.33 L 549.79 167.33 L 549.79 119.52 M 59.76 227.09 L 47.81 227.09 L 47.81 239.04 M 59.76 191.23 L 11.95 191.23 L 11.95 239.04 M 59.76 191.23 L 119.52 191.23 M 59.76 227.09 L 119.52 227.09 M 71.71 179.28 L 71.71 191.23 M 107.57 179.28 L 107.57 191.23 M 71.71 227.09 L 71.71 239.04 M 107.57 227.09 L 107.57 239.04 M 119.52 227.09 L 131.47 227.09 L 131.47 239.04 M 119.52 191.23 L 167.33 191.23 L 167.33 239.04 M 239.04 191.23 L 227.09 191.23 L 227.09 179.28 M 239.04 227.09 L 191.23 227.09 L 191.23 179.28 M 250.99 179.28 L 250.99 191.23 L 239.04 191.23 M 239.04 227.09 L 250.99 227.09 L 250.99 239.04 M 298.8 191.23 L 286.85 191.23 L 286.85 179.28 M 298.8 227.09 L 286.85 227.09 L 286.85 239.04 M 298.8 227.09 L 346.61 227.09 L 346.61 191.23 L 298.8 191.23 M 370.51 179.28 L 370.51 239.04 M 406.37 179.28 L 406.37 239.04 M 478.08 191.23 L 466.13 191.23 L 466.13 179.28 M 478.08 227.09 L 430.27 227.09 L 430.27 179.28 M 478.08 191.23 L 537.84 191.23 M 478.08 227.09 L 537.84 227.09 M 490.03 179.28 L 490.03 191.23 M 525.89 179.28 L 525.89 191.23 M 490.03 227.09 L 490.03 239.04 M 525.89 227.09 L 525.89 239.04 M 537.84 227.09 L 549.79 227.09 L 549.79 239.04 M 537.84 191.23 L 585.65 191.23 L 585.65 239.04 M 47.81 239.04 L 47.81 245.78 L 47.81 286.85 L 11.95 286.85 L 11.95 239.04 M 71.71 239.04 L 71.71 298.8 M 119.52 250.99 L 107.57 250.99 L 107.57 239.04 M 119.52 286.85 L 107.57 286.85 L 107.57 298.8 M 119.52 250.99 L 179.28 250.99 M 119.52 286.85 L 179.28 286.85 M 131.47 239.04 L 131.47 250.99 M 167.33 239.04 L 167.33 250.99 M 131.47 286.85 L 131.47 298.8 M 167.33 286.85 L 167.33 298.8 M 179.28 250.99 L 239.04 250.99 M 179.28 286.85 L 239.04 286.85 M 239.04 250.99 L 298.8 250.99 M 239.04 286.85 L 298.8 286.85 M 250.99 239.04 L 250.99 250.99 M 286.85 239.04 L 286.85 250.99 M 250.99 286.85 L 250.99 298.8 M 286.85 286.85 L 286.85 298.8 M 298.8 250.99 L 358.56 250.99 M 298.8 286.85 L 310.75 286.85 L 310.75 298.8 M 358.56 286.85 L 346.61 286.85 L 346.61 298.8 M 358.56 250.99 L 418.32 250.99 M 358.56 286.85 L 418.32 286.85 M 370.51 239.04 L 370.51 250.99 M 406.37 239.04 L 406.37 250.99 M 370.51 286.85 L 370.51 298.8 M 406.37 286.85 L 406.37 298.8 M 418.32 286.85 L 430.27 286.85 L 430.27 298.8 M 418.32 250.99 L 466.13 250.99 L 466.13 298.8 M 525.89 239.04 L 525.89 245.78 L 525.89 286.85 L 490.03 286.85 L 490.03 239.04 M 585.65 239.04 L 585.65 245.78 L 585.65 286.85 L 549.79 286.85 L 549.79 239.04 M 59.76 346.61 L 11.95 346.61 L 11.95 310.75 L 59.76 310.75 M 59.76 310.75 L 119.52 310.75 M 59.76 346.61 L 119.52 346.61 M 71.71 298.8 L 71.71 310.75 M 107.57 298.8 L 107.57 310.75 M 71.71 346.61 L 71.71 358.56 M 107.57 346.61 L 107.57 358.56 M 167.33 298.8 L 167.33 358.56 M 131.47 298.8 L 131.47 310.75 L 119.52 310.75 M 119.52 346.61 L 131.47 346.61 L 131.47 358.56 M 239.04 346.61 L 227.09 346.61 L 227.09 358.56 M 239.04 310.75 L 191.23 310.75 L 191.23 358.56 M 239.04 346.61 L 298.8 346.61 M 250.99 298.8 L 250.99 310.75 L 239.04 310.75 M 298.8 310.75 L 286.85 310.75 L 286.85 298.8 M 310.75 298.8 L 310.75 310.75 L 298.8 310.75 M 346.61 298.8 L 346.61 346.61 L 298.8 346.61 M 370.51 298.8 L 370.51 358.56 M 406.37 298.8 L 406.37 358.56 M 478.08 310.75 L 466.13 310.75 L 466.13 298.8 M 478.08 346.61 L 430.27 346.61 L 430.27 298.8 M 478.08 346.61 L 490.03 346.61 L 490.03 358.56 M 478.08 310.75 L 525.89 310.75 L 525.89 358.56 M 585.65 358.56 L 585.65 310.75 L 549.79 310.75 L 549.79 358.56 M 59.76 406.37 L 11.95 406.37 L 11.95 370.51 L 59.76 370.51 M 71.71 358.56 L 71.71 370.51 L 59.76 370.51 M 59.76 406.37 L 71.71 406.37 L 71.71 418.32 M 119.52 370.51 L 107.57 370.51 L 107.57 358.56 M 119.52 406.37 L 107.57 406.37 L 107.57 418.32 M 119.52 406.37 L 179.28 406.37 M 131.47 358.56 L 131.47 370.51 L 119.52 370.51 M 179.28 370.51 L 167.33 370.51 L 167.33 358.56 M 179.28 370.51 L 239.04 370.51 M 179.28 406.37 L 239.04 406.37 M 191.23 358.56 L 191.23 370.51 M 227.09 358.56 L 227.09 370.51 M 191.23 406.37 L 191.23 418.32 M 227.09 406.37 L 227.09 418.32 M 239.04 370.51 L 298.8 370.51 M 239.04 406.37 L 298.8 406.37 M 298.8 370.51 L 358.56 370.51 M 298.8 406.37 L 310.75 406.37 L 310.75 418.32 M 358.56 406.37 L 346.61 406.37 L 346.61 418.32 M 370.51 358.56 L 370.51 418.32 M 406.37 358.56 L 406.37 418.32 M 358.56 370.51 L 370.51 370.51 M 358.56 406.37 L 370.51 406.37 M 418.32 370.51 L 406.37 370.51 M 418.32 406.37 L 406.37 406.37 M 418.32 370.51 L 478.08 370.51 M 418.32 406.37 L 478.08 406.37 M 490.03 358.56 L 490.03 418.32 M 525.89 358.56 L 525.89 418.32 M 478.08 370.51 L 490.03 370.51 M 478.08 406.37 L 490.03 406.37 M 537.84 370.51 L 525.89 370.51 M 537.84 406.37 L 525.89 406.37 M 585.65 358.56 L 585.65 418.32 M 549.79 358.56 L 549.79 370.51 L 537.84 370.51 M 537.84 406.37 L 549.79 406.37 L 549.79 418.32 M 59.76 466.13 L 11.95 466.13 L 11.95 430.27 L 59.76 430.27 M 71.71 418.32 L 71.71 478.08 M 107.57 418.32 L 107.57 478.08 M 59.76 430.27 L 71.71 430.27 M 59.76 466.13 L 71.71 466.13 M 119.52 430.27 L 107.57 430.27 M 119.52 466.13 L 107.57 466.13 M 119.52 430.27 L 179.28 430.27 M 119.52 466.13 L 179.28 466.13 M 227.09 418.32 L 227.09 478.08 M 191.23 418.32 L 191.23 430.27 L 179.28 430.27 M 179.28 466.13 L 191.23 466.13 L 191.23 478.08 M 298.8 466.13 L 286.85 466.13 L 286.85 478.08 M 298.8 430.27 L 250.99 430.27 L 250.99 478.08 M 310.75 418.32 L 310.75 430.27 L 298.8 430.27 M 346.61 418.32 L 346.61 466.13 L 298.8 466.13 M 370.51 418.32 L 370.51 478.08 M 406.37 418.32 L 406.37 478.08 M 466.13 478.08 L 466.13 430.27 L 430.27 430.27 L 430.27 478.08 M 525.89 418.32 L 525.89 425.06 L 525.89 466.13 L 490.03 466.13 L 490.03 418.32 M 585.65 418.32 L 585.65 425.06 L 585.65 466.13 L 549.79 466.13 L 549.79 418.32 M 59.76 525.89 L 47.81 525.89 L 47.81 537.84 M 59.76 490.03 L 11.95 490.03 L 11.95 537.84 M 71.71 478.08 L 71.71 490.03 L 59.76 490.03 M 59.76 525.89 L 71.71 525.89 L 71.71 537.84 M 119.52 490.03 L 107.57 490.03 L 107.57 478.08 M 119.52 525.89 L 107.57 525.89 L 107.57 537.84 M 119.52 525.89 L 131.47 525.89 L 131.47 537.84 M 119.52 490.03 L 167.33 490.03 L 167.33 537.84 M 191.23 478.08 L 191.23 537.84 M 239.04 490.03 L 227.09 490.03 L 227.09 478.08 M 239.04 525.89 L 227.09 525.89 L 227.09 537.84 M 250.99 478.08 L 250.99 537.84 M 286.85 478.08 L 286.85 537.84 M 239.04 490.03 L 250.99 490.03 M 239.04 525.89 L 250.99 525.89 M 298.8 490.03 L 286.85 490.03 M 298.8 525.89 L 286.85 525.89 M 298.8 525.89 L 346.61 525.89 L 346.61 490.03 L 298.8 490.03 M 370.51 478.08 L 370.51 537.84 M 418.32 490.03 L 406.37 490.03 L 406.37 478.08 M 418.32 525.89 L 406.37 525.89 L 406.37 537.84 M 418.32 490.03 L 478.08 490.03 M 418.32 525.89 L 478.08 525.89 M 430.27 478.08 L 430.27 490.03 M 466.13 478.08 L 466.13 490.03 M 430.27 525.89 L 430.27 537.84 M 466.13 525.89 L 466.13 537.84 M 478.08 490.03 L 537.84 490.03 M 478.08 525.89 L 537.84 525.89 M 537.84 525.89 L 585.65 525.89 L 585.65 490.03 L 537.84 490.03 M 47.81 537.84 L 47.81 544.58 L 47.81 585.65 L 11.95 585.65 L 11.95 537.84 M 107.57 537.84 L 107.57 544.58 L 107.57 585.65 L 71.71 585.65 L 71.71 537.84 M 167.33 537.84 L 167.33 544.58 L 167.33 585.65 L 131.47 585.65 L 131.47 537.84 M 227.09 537.84 L 227.09 544.58 L 227.09 585.65 L 191.23 585.65 L 191.23 537.84 M 298.8 549.79 L 286.85 549.79 L 286.85 537.84 M 298.8 585.65 L 250.99 585.65 L 250.99 537.84 M 298.8 585.65 L 346.61 585.65 L 346.61 549.79 L 298.8 549.79 M 418.32 549.79 L 406.37 549.79 L 406.37 537.84 M 418.32 585.65 L 370.51 585.65 L 370.51 537.84 M 418.32 585.65 L 478.08 585.65 M 430.27 537.84 L 430.27 549.79 L 418.32 549.79 M 478.08 549.79 L 466.13 549.79 L 466.13 537.84 M 478.08 549.79 L 537.84 549.79 M 478.08 585.65 L 537.84 585.65 " /> <circle cx="29.88" cy="29.88" r="19.92" fill-opacity="1.0" stroke-opacity="0" fill="#E51919" /><circle cx="567.72" cy="567.72" r="19.92" fill-opacity="1.0" stroke-opacity="0" fill="#E51919" /> <path stroke-opacity="1.0" stroke-width="5" stroke="#E51919" d="M 29.88 29.88 L 59.76 29.88 M 59.76 29.88 L 119.52 29.88 M 119.52 29.88 L 149.4 29.88 L 149.4 59.76 M 179.28 89.64 L 149.4 89.64 L 149.4 59.76 M 239.04 89.64 L 298.8 89.64 M 179.28 89.64 L 239.04 89.64 M 358.56 89.64 L 388.44 89.64 L 388.44 119.52 M 298.8 89.64 L 358.56 89.64 M 388.44 179.28 L 388.44 239.04 M 388.44 119.52 L 388.44 179.28 M 388.44 298.8 L 388.44 358.56 M 388.44 239.04 L 388.44 250.99 M 388.44 298.8 L 388.44 286.85 M 388.44 418.32 L 388.44 478.08 M 388.44 358.56 L 388.44 418.32 M 388.44 478.08 L 388.44 537.84 M 418.32 567.72 L 388.44 567.72 L 388.44 537.84 M 418.32 567.72 L 478.08 567.72 M 567.72 567.72 L 537.84 567.72 M 478.08 567.72 L 537.84 567.72 " />  <path stroke-opacity="0.2" stroke-width="5" stroke="#E51919" d="M 29.88 29.88 L 59.76 29.88 M 388.44 250.99 L 388.44 268.92 M 388.44 286.85 L 388.44 268.92 M 567.72 567.72 L 537.84 567.72 " />   </svg>