<svg id="maze" xmlns="http://www.w3.org/2000/svg" viewBox="0 0 597.6 597.6"  width="597.6px" height="597.6px" stroke-width="2" fill-opacity="0.0" stroke="black"> <path stroke-opacity="1.0" stroke-width="2" stroke="#000000" d="M 59.76 11.95 L 119.52 11.95 M 59.76 47.81 L 119.52 47.81 M 119.52 47.81 L 167.33 47.81 L 167.33 11.95 L 119.52 11.95 M 227.09 59.76 L 227.09 11.95 L 191.23 11.95 L 191.23 59.76 M 286.85 59.76 L 286.85 11.95 L 250.99 11.95 L 250.99 59.76 M 358.56 47.81 L 346.61 47.81 L 346.61 59.76 M 358.56 11.95 L 310.75 11.95 L 310.75 59.76 M 358.56 47.81 L 370.51 47.81 L 370.51 59.76 M 358.56 11.95 L 406.37 11.95 L 406.37 59.76 M 478.08 47.81 L 430.27 47.81 L 430.27 11.95 L 478.08 11.95 M 478.08 11.95 L 537.84 11.95 M 478.08 47.81 L 490.03 47.81 L 490.03 59.76 M 537.84 47.81 L 525.89 47.81 L 525.89 59.76 M 537.84 47.81 L 585.65 47.81 L 585.65 11.95 L 537.84 11.95 M 11.95 59.76 L 11.95 119.52 M 47.81 59.76 L 47.81 119.52 M 119.52 107.57 L 107.57 107.57 L 107.57 119.52 M 119.52 71.71 L 71.71 71.71 L 71.71 119.52 M 119.52 71.71 L 179.28 71.71 M 119.52 107.57 L 179.28 107.57 M 179.28 71.71 L 239.04 71.71 M 179.28 107.57 L 239.04 107.57 M 191.23 59.76 L 191.23 71.71 M 227.09 59.76 L 227.09 71.71 M 191.23 107.57 L 191.23 119.52 M 227.09 107.57 L 227.09 119.52 M 286.85 59.76 L 286.85 119.52 M 250.99 59.76 L 250.99 71.71 L 239.04 71.71 M 239.04 107.57 L 250.99 107.57 L 250.99 119.52 M 358.56 71.71 L 346.61 71.71 L 346.61 59.76 M 358.56 107.57 L 310.75 107.57 L 310.75 59.76 M 358.56 71.71 L 418.32 71.71 M 358.56 107.57 L 418.32 107.57 M 370.51 59.76 L 370.51 71.71 M 406.37 59.76 L 406.37 71.71 M 370.51 107.57 L 370.51 119.52 M 406.37 107.57 L 406.37 119.52 M 418.32 71.71 L 478.08 71.71 M 418.32 107.57 L 430.27 107.57 L 430.27 119.52 M 478.08 107.57 L 466.13 107.57 L 466.13 119.52 M 490.03 59.76 L 490.03 71.71 L 478.08 71.71 M 525.89 59.76 L 525.89 107.57 L 478.08 107.57 M 585.65 119.52 L 585.65 71.71 L 549.79 71.71 L 549.79 119.52 M 11.95 119.52 L 11.95 179.28 M 59.76 131.47 L 47.81 131.47 L 47.81 119.52 M 59.76 167.33 L 47.81 167.33 L 47.81 179.28 M 59.76 131.47 L 119.52 131.47 M 59.76 167.33 L 119.52 167.33 M 71.71 119.52 L 71.71 131.47 M 107.57 119.52 L 107.57 131.47 M 71.71 167.33 L 71.71 179.28 M 107.57 167.33 L 107.57 179.28 M 119.52 167.33 L 167.33 167.33 L 167.33 131.47 L 119.52 131.47 M 191.23 119.52 L 191.23 179.28 M 227.09 119.52 L 227.09 179.28 M 250.99 119.52 L 250.99 179.28 M 286.85 119.52 L 286.85 179.28 M 358.56 167.33 L 310.75 167.33 L 310.75 131.47 L 358.56 131.47 M 370.51 119.52 L 370.51 131.47 L 358.56 131.47 M 358.56 167.33 L 370.51 167.33 L 370.51 179.28 M 418.32 131.47 L 406.37 131.47 L 406.37 119.52 M 418.32 167.33 L 406.37 167.33 L 406.37 179.28 M 430.27 119.52 L 430.27 179.28 M 466.13 119.52 L 466.13 179.28 M 418.32 131.47 L 430.27 131.47 M 418.32 167.33 L 430.27 167.33 M 478.08 131.47 L 466.13 131.47 M 478.08 167.33 L 466.13 167.33 M 478.08 131.47 L 537.84 131.47 M 478.08 167.33 L 537.84 167.33 M 549.79 119.52 L 549.79 131.47 L 537.84 131.47 M 585.65 119.52 L 585.65 167.33 L 537.84 167.33 M 59.76 191.23 L 47.81 191.23 L 47.81 179.28 M 59.76 227.09 L 11.95 227.09 L 11.95 179.28 M 71.71 179.28 L 71.71 191.23 L 59.76 191.23 M 107.57 179.28 L 107.57 227.09 L 59.76 227.09 M 167.33 239.04 L 167.33 191.23 L 131.47 191.23 L 131.47 239.04 M 191.23 179.28 L 191.23 239.04 M 239.04 191.23 L 227.09 191.23 L 227.09 179.28 M 239.04 227.09 L 227.09 227.09 L 227.09 239.04 M 239.04 191.23 L 298.8 191.23 M 239.04 227.09 L 298.8 227.09 M 250.99 179.28 L 250.99 191.23 M 286.85 179.28 L 286.85 191.23 M 250.99 227.09 L 250.99 239.04 M 286.85 227.09 L 286.85 239.04 M 298.8 227.09 L 310.75 227.09 L 310.75 239.04 M 298.8 191.23 L 346.61 191.23 L 346.61 239.04 M 370.51 179.28 L 370.51 239.04 M 406.37 179.28 L 406.37 239.04 M 430.27 179.28 L 430.27 239.04 M 466.13 179.28 L 466.13 239.04 M 537.84 227.09 L 525.89 227.09 L 525.89 239.04 M 537.84 191.23 L 490.03 191.23 L 490.03 239.04 M 537.84 227.09 L 585.65 227.09 L 585.65 191.23 L 537.84 191.23 M 59.76 286.85 L 47.81 286.85 L 47.81 298.8 M 59.76 250.99 L 11.95 250.99 L 11.95 298.8 M 59.76 250.99 L 119.52 250.99 M 59.76 286.85 L 71.71 286.85 L 71.71 298.8 M 119.52 286.85 L 107.57 286.85 L 107.57 298.8 M 131.47 239.04 L 131.47 298.8 M 167.33 239.04 L 167.33 298.8 M 119.52 250.99 L 131.47 250.99 M 119.52 286.85 L 131.47 286.85 M 179.28 250.99 L 167.33 250.99 M 179.28 286.85 L 167.33 286.85 M 191.23 239.04 L 191.23 250.99 L 179.28 250.99 M 227.09 239.04 L 227.09 286.85 L 179.28 286.85 M 250.99 239.04 L 250.99 298.8 M 298.8 250.99 L 286.85 250.99 L 286.85 239.04 M 298.8 286.85 L 286.85 286.85 L 286.85 298.8 M 298.8 250.99 L 358.56 250.99 M 298.8 286.85 L 358.56 286.85 M 310.75 239.04 L 310.75 250.99 M 346.61 239.04 L 346.61 250.99 M 310.75 286.85 L 310.75 298.8 M 346.61 286.85 L 346.61 298.8 M 370.51 239.04 L 370.51 250.99 L 358.56 250.99 M 358.56 286.85 L 370.51 286.85 L 370.51 298.8 M 418.32 250.99 L 406.37 250.99 L 406.37 239.04 M 418.32 286.85 L 406.37 286.85 L 406.37 298.8 M 418.32 250.99 L 478.08 250.99 M 418.32 286.85 L 478.08 286.85 M 430.27 239.04 L 430.27 250.99 M 466.13 239.04 L 466.13 250.99 M 430.27 286.85 L 430.27 298.8 M 466.13 286.85 L 466.13 298.8 M 525.89 239.04 L 525.89 298.8 M 490.03 239.04 L 490.03 250.99 L 478.08 250.99 M 478.08 286.85 L 490.03 286.85 L 490.03 298.8 M 585.65 298.8 L 585.65 250.99 L 549.79 250.99 L 549.79 298.8 M 59.76 310.75 L 47.81 310.75 L 47.81 298.8 M 59.76 346.61 L 11.95 346.61 L 11.95 298.8 M 71.71 298.8 L 71.71 358.56 M 107.57 298.8 L 107.57 358.56 M 59.76 310.75 L 71.71 310.75 M 59.76 346.61 L 71.71 346.61 M 119.52 310.75 L 107.57 310.75 M 119.52 346.61 L 107.57 346.61 M 131.47 298.8 L 131.47 310.75 L 119.52 310.75 M 167.33 298.8 L 167.33 346.61 L 119.52 346.61 M 239.04 346.61 L 227.09 346.61 L 227.09 358.56 M 239.04 310.75 L 191.23 310.75 L 191.23 358.56 M 239.04 310.75 L 298.8 310.75 M 239.04 346.61 L 298.8 346.61 M 250.99 298.8 L 250.99 310.75 M 286.85 298.8 L 286.85 310.75 M 250.99 346.61 L 250.99 358.56 M 286.85 346.61 L 286.85 358.56 M 298.8 346.61 L 358.56 346.61 M 310.75 298.8 L 310.75 310.75 L 298.8 310.75 M 358.56 310.75 L 346.61 310.75 L 346.61 298.8 M 370.51 298.8 L 370.51 358.56 M 406.37 298.8 L 406.37 358.56 M 358.56 310.75 L 370.51 310.75 M 358.56 346.61 L 370.51 346.61 M 418.32 310.75 L 406.37 310.75 M 418.32 346.61 L 406.37 346.61 M 418.32 346.61 L 478.08 346.61 M 430.27 298.8 L 430.27 310.75 L 418.32 310.75 M 478.08 310.75 L 466.13 310.75 L 466.13 298.8 M 478.08 310.75 L 537.84 310.75 M 478.08 346.61 L 537.84 346.61 M 490.03 298.8 L 490.03 310.75 M 525.89 298.8 L 525.89 310.75 M 490.03 346.61 L 490.03 358.56 M 525.89 346.61 L 525.89 358.56 M 585.65 298.8 L 585.65 358.56 M 549.79 298.8 L 549.79 310.75 L 537.84 310.75 M 537.84 346.61 L 549.79 346.61 L 549.79 358.56 M 59.76 406.37 L 11.95 406.37 L 11.95 370.51 L 59.76 370.51 M 107.57 358.56 L 107.57 418.32 M 71.71 358.56 L 71.71 370.51 L 59.76 370.51 M 59.76 406.37 L 71.71 406.37 L 71.71 418.32 M 167.33 418.32 L 167.33 370.51 L 131.47 370.51 L 131.47 418.32 M 227.09 358.56 L 227.09 365.3 L 227.09 406.37 L 191.23 406.37 L 191.23 358.56 M 286.85 358.56 L 286.85 365.3 L 286.85 406.37 L 250.99 406.37 L 250.99 358.56 M 346.61 418.32 L 346.61 370.51 L 310.75 370.51 L 310.75 418.32 M 370.51 358.56 L 370.51 418.32 M 406.37 358.56 L 406.37 418.32 M 478.08 406.37 L 430.27 406.37 L 430.27 370.51 L 478.08 370.51 M 490.03 358.56 L 490.03 370.51 L 478.08 370.51 M 525.89 358.56 L 525.89 406.37 L 478.08 406.37 M 549.79 358.56 L 549.79 418.32 M 585.65 358.56 L 585.65 418.32 M 59.76 466.13 L 11.95 466.13 L 11.95 430.27 L 59.76 430.27 M 71.71 418.32 L 71.71 430.27 L 59.76 430.27 M 59.76 466.13 L 71.71 466.13 L 71.71 478.08 M 119.52 430.27 L 107.57 430.27 L 107.57 418.32 M 119.52 466.13 L 107.57 466.13 L 107.57 478.08 M 119.52 430.27 L 179.28 430.27 M 119.52 466.13 L 179.28 466.13 M 131.47 418.32 L 131.47 430.27 M 167.33 418.32 L 167.33 430.27 M 131.47 466.13 L 131.47 478.08 M 167.33 466.13 L 167.33 478.08 M 179.28 466.13 L 191.23 466.13 L 191.23 478.08 M 179.28 430.27 L 227.09 430.27 L 227.09 478.08 M 298.8 466.13 L 286.85 466.13 L 286.85 478.08 M 298.8 430.27 L 250.99 430.27 L 250.99 478.08 M 298.8 430.27 L 358.56 430.27 M 298.8 466.13 L 358.56 466.13 M 310.75 418.32 L 310.75 430.27 M 346.61 418.32 L 346.61 430.27 M 310.75 466.13 L 310.75 478.08 M 346.61 466.13 L 346.61 478.08 M 358.56 466.13 L 418.32 466.13 M 370.51 418.32 L 370.51 430.27 L 358.56 430.27 M 418.32 430.27 L 406.37 430.27 L 406.37 418.32 M 418.32 466.13 L 430.27 466.13 L 430.27 478.08 M 418.32 430.27 L 466.13 430.27 L 466.13 478.08 M 537.84 466.13 L 525.89 466.13 L 525.89 478.08 M 537.84 430.27 L 490.03 430.27 L 490.03 478.08 M 549.79 418.32 L 549.79 430.27 L 537.84 430.27 M 585.65 418.32 L 585.65 466.13 L 537.84 466.13 M 59.76 525.89 L 11.95 525.89 L 11.95 490.03 L 59.76 490.03 M 71.71 478.08 L 71.71 537.84 M 107.57 478.08 L 107.57 537.84 M 59.76 490.03 L 71.71 490.03 M 59.76 525.89 L 71.71 525.89 M 119.52 490.03 L 107.57 490.03 M 119.52 525.89 L 107.57 525.89 M 131.47 478.08 L 131.47 490.03 L 119.52 490.03 M 119.52 525.89 L 131.47 525.89 L 131.47 537.84 M 179.28 490.03 L 167.33 490.03 L 167.33 478.08 M 179.28 525.89 L 167.33 525.89 L 167.33 537.84 M 191.23 478.08 L 191.23 537.84 M 227.09 478.08 L 227.09 537.84 M 179.28 490.03 L 191.23 490.03 M 179.28 525.89 L 191.23 525.89 M 239.04 490.03 L 227.09 490.03 M 239.04 525.89 L 227.09 525.89 M 250.99 478.08 L 250.99 490.03 L 239.04 490.03 M 239.04 525.89 L 250.99 525.89 L 250.99 537.84 M 298.8 490.03 L 286.85 490.03 L 286.85 478.08 M 298.8 525.89 L 286.85 525.89 L 286.85 537.84 M 310.75 478.08 L 310.75 490.03 L 298.8 490.03 M 346.61 478.08 L 346.61 525.89 L 298.8 525.89 M 418.32 525.89 L 406.37 525.89 L 406.37 537.84 M 418.32 490.03 L 370.51 490.03 L 370.51 537.84 M 430.27 478.08 L 430.27 537.84 M 466.13 478.08 L 466.13 537.84 M 418.32 490.03 L 430.27 490.03 M 418.32 525.89 L 430.27 525.89 M 478.08 490.03 L 466.13 490.03 M 478.08 525.89 L 466.13 525.89 M 478.08 525.89 L 537.84 525.89 M 490.03 478.08 L 490.03 490.03 L 478.08 490.03 M 537.84 490.03 L 525.89 490.03 L 525.89 478.08 M 537.84 525.89 L 549.79 525.89 L 549.79 537.84 M 537.84 490.03 L 585.65 490.03 L 585.65 537.84 M 59.76 585.65 L 11.95 585.65 L 11.95 549.79 L 59.76 549.79 M 71.71 537.84 L 71.71 549.79 L 59.76 549.79 M 107.57 537.84 L 107.57 585.65 L 59.76 585.65 M 167.33 537.84 L 167.33 544.58 L 167.33 585.65 L 131.47 585.65 L 131.47 537.84 M 227.09 537.84 L 227.09 544.58 L 227.09 585.65 L 191.23 585.65 L 191.23 537.84 M 286.85 537.84 L 286.85 544.58 L 286.85 585.65 L 250.99 585.65 L 250.99 537.84 M 358.56 585.65 L 310.75 585.65 L 310.75 549.79 L 358.56 549.79 M 370.51 537.84 L 370.51 549.79 L 358.56 549.79 M 406.37 537.84 L 406.37 585.65 L 358.56 585.65 M 478.08 549.79 L 466.13 549.79 L 466.13 537.84 M 478.08 585.65 L 430.27 585.65 L 430.27 537.84 M 478.08 585.65 L 525.89 585.65 L 525.89 549.79 L 478.08 549.79 " /> <circle cx="29.88" cy="29.88" r="19.92" fill-opacity="1.0" stroke-opacity="0" fill="#E51919" /><circle cx="567.72" cy="567.72" r="19.92" fill-opacity="1.0" stroke-opacity="0" fill="#E51919" /> <path stroke-opacity="1.0" stroke-width="5" stroke="#E51919" d="M 29.88 59.76 L 29.88 29.88 M 29.88 59.76 L 29.88 119.52 M 29.88 119.52 L 29.88 179.28 M 59.76 209.16 L 29.88 209.16 L 29.88 179.28 M 89.64 179.28 L 89.64 209.16 L 59.76 209.16 M 119.52 89.64 L 89.64 89.64 L 89.64 119.52 M 89.64 119.52 L 89.64 131.47 M 89.64 179.28 L 89.64 167.33 M 119.52 89.64 L 179.28 89.64 M 239.04 89.64 L 268.92 89.64 L 268.92 119.52 M 179.28 89.64 L 239.04 89.64 M 268.92 119.52 L 268.92 179.28 M 298.8 268.92 L 268.92 268.92 L 268.92 239.04 M 268.92 179.28 L 268.92 191.23 M 268.92 239.04 L 268.92 227.09 M 388.44 239.04 L 388.44 268.92 L 358.56 268.92 M 298.8 268.92 L 358.56 268.92 M 388.44 179.28 L 388.44 239.04 M 388.44 119.52 L 388.44 179.28 M 358.56 29.88 L 388.44 29.88 L 388.44 59.76 M 388.44 59.76 L 388.44 71.71 M 388.44 119.52 L 388.44 107.57 M 358.56 29.88 L 328.68 29.88 L 328.68 59.76 M 358.56 89.64 L 328.68 89.64 L 328.68 59.76 M 418.32 89.64 L 448.2 89.64 L 448.2 119.52 M 358.56 89.64 L 418.32 89.64 M 448.2 179.28 L 448.2 239.04 M 448.2 119.52 L 448.2 179.28 M 478.08 328.68 L 448.2 328.68 L 448.2 298.8 M 448.2 239.04 L 448.2 250.99 M 448.2 298.8 L 448.2 286.85 M 537.84 328.68 L 567.72 328.68 L 567.72 358.56 M 478.08 328.68 L 537.84 328.68 M 567.72 358.56 L 567.72 418.32 M 567.72 418.32 L 567.72 448.2 L 537.84 448.2 M 537.84 448.2 L 507.96 448.2 L 507.96 478.08 M 537.84 507.96 L 507.96 507.96 L 507.96 478.08 M 567.72 537.84 L 567.72 567.72 M 537.84 507.96 L 567.72 507.96 L 567.72 537.84 " />  <path stroke-opacity="0.2" stroke-width="5" stroke="#E51919" d="M 29.88 59.76 L 29.88 29.88 M 89.64 131.47 L 89.64 149.4 M 89.64 167.33 L 89.64 149.4 M 268.92 191.23 L 268.92 209.16 M 268.92 227.09 L 268.92 209.16 M 388.44 71.71 L 388.44 89.64 M 388.44 107.57 L 388.44 89.64 M 448.2 250.99 L 448.2 268.92 M 448.2 286.85 L 448.2 268.92 M 567.72 537.84 L 567.72 567.72 " />   </svg>