<svg id="maze" xmlns="http://www.w3.org/2000/svg" viewBox="0 0 597.6 597.6"  width="597.6px" height="597.6px" stroke-width="2" fill-opacity="0.0" stroke="black"> <path stroke-opacity="1.0" stroke-width="2" stroke="#000000" d="M 59.76 11.95 L 119.52 11.95 M 59.76 47.81 L 119.52 47.81 M 119.52 11.95 L 179.28 11.95 M 119.52 47.81 L 131.47 47.81 L 131.47 59.76 M 179.28 47.81 L 167.33 47.81 L 167.33 59.76 M 179.28 47.81 L 191.23 47.81 L 191.23 59.76 M 179.28 11.95 L 227.09 11.95 L 227.09 59.76 M 286.85 59.76 L 286.85 11.95 L 250.99 11.95 L 250.99 59.76 M 358.56 47.81 L 346.61 47.81 L 346.61 59.76 M 358.56 11.95 L 310.75 11.95 L 310.75 59.76 M 358.56 11.95 L 418.32 11.95 M 358.56 47.81 L 418.32 47.81 M 418.32 11.95 L 478.08 11.95 M 418.32 47.81 L 478.08 47.81 M 478.08 11.95 L 537.84 11.95 M 478.08 47.81 L 537.84 47.81 M 537.84 47.81 L 585.65 47.81 L 585.65 11.95 L 537.84 11.95 M 47.81 119.52 L 47.81 71.71 L 11.95 71.71 L 11.95 119.52 M 107.57 119.52 L 107.57 71.71 L 71.71 71.71 L 71.71 119.52 M 131.47 59.76 L 131.47 119.52 M 179.28 71.71 L 167.33 71.71 L 167.33 59.76 M 179.28 107.57 L 167.33 107.57 L 167.33 119.52 M 191.23 59.76 L 191.23 119.52 M 227.09 59.76 L 227.09 119.52 M 179.28 71.71 L 191.23 71.71 M 179.28 107.57 L 191.23 107.57 M 239.04 71.71 L 227.09 71.71 M 239.04 107.57 L 227.09 107.57 M 250.99 59.76 L 250.99 71.71 L 239.04 71.71 M 286.85 59.76 L 286.85 107.57 L 239.04 107.57 M 310.75 59.76 L 310.75 119.52 M 358.56 71.71 L 346.61 71.71 L 346.61 59.76 M 358.56 107.57 L 346.61 107.57 L 346.61 119.52 M 358.56 71.71 L 418.32 71.71 M 358.56 107.57 L 418.32 107.57 M 418.32 107.57 L 466.13 107.57 L 466.13 71.71 L 418.32 71.71 M 537.84 107.57 L 525.89 107.57 L 525.89 119.52 M 537.84 71.71 L 490.03 71.71 L 490.03 119.52 M 537.84 107.57 L 585.65 107.57 L 585.65 71.71 L 537.84 71.71 M 11.95 119.52 L 11.95 179.28 M 59.76 131.47 L 47.81 131.47 L 47.81 119.52 M 59.76 167.33 L 47.81 167.33 L 47.81 179.28 M 71.71 119.52 L 71.71 179.28 M 107.57 119.52 L 107.57 179.28 M 59.76 131.47 L 71.71 131.47 M 59.76 167.33 L 71.71 167.33 M 119.52 131.47 L 107.57 131.47 M 119.52 167.33 L 107.57 167.33 M 167.33 119.52 L 167.33 179.28 M 131.47 119.52 L 131.47 131.47 L 119.52 131.47 M 119.52 167.33 L 131.47 167.33 L 131.47 179.28 M 239.04 131.47 L 227.09 131.47 L 227.09 119.52 M 239.04 167.33 L 191.23 167.33 L 191.23 119.52 M 239.04 167.33 L 286.85 167.33 L 286.85 131.47 L 239.04 131.47 M 310.75 119.52 L 310.75 179.28 M 346.61 119.52 L 346.61 179.28 M 406.37 179.28 L 406.37 131.47 L 370.51 131.47 L 370.51 179.28 M 478.08 167.33 L 430.27 167.33 L 430.27 131.47 L 478.08 131.47 M 478.08 131.47 L 537.84 131.47 M 478.08 167.33 L 537.84 167.33 M 490.03 119.52 L 490.03 131.47 M 525.89 119.52 L 525.89 131.47 M 490.03 167.33 L 490.03 179.28 M 525.89 167.33 L 525.89 179.28 M 537.84 167.33 L 549.79 167.33 L 549.79 179.28 M 537.84 131.47 L 585.65 131.47 L 585.65 179.28 M 47.81 179.28 L 47.81 186.02 L 47.81 227.09 L 11.95 227.09 L 11.95 179.28 M 119.52 191.23 L 107.57 191.23 L 107.57 179.28 M 119.52 227.09 L 71.71 227.09 L 71.71 179.28 M 131.47 179.28 L 131.47 239.04 M 167.33 179.28 L 167.33 239.04 M 119.52 191.23 L 131.47 191.23 M 119.52 227.09 L 131.47 227.09 M 179.28 191.23 L 167.33 191.23 M 179.28 227.09 L 167.33 227.09 M 179.28 191.23 L 239.04 191.23 M 179.28 227.09 L 239.04 227.09 M 239.04 227.09 L 250.99 227.09 L 250.99 239.04 M 239.04 191.23 L 286.85 191.23 L 286.85 239.04 M 358.56 191.23 L 346.61 191.23 L 346.61 179.28 M 358.56 227.09 L 310.75 227.09 L 310.75 179.28 M 358.56 191.23 L 418.32 191.23 M 358.56 227.09 L 418.32 227.09 M 370.51 179.28 L 370.51 191.23 M 406.37 179.28 L 406.37 191.23 M 370.51 227.09 L 370.51 239.04 M 406.37 227.09 L 406.37 239.04 M 418.32 227.09 L 430.27 227.09 L 430.27 239.04 M 418.32 191.23 L 466.13 191.23 L 466.13 239.04 M 490.03 179.28 L 490.03 239.04 M 525.89 179.28 L 525.89 239.04 M 549.79 179.28 L 549.79 239.04 M 585.65 179.28 L 585.65 239.04 M 59.76 286.85 L 11.95 286.85 L 11.95 250.99 L 59.76 250.99 M 59.76 250.99 L 119.52 250.99 M 59.76 286.85 L 119.52 286.85 M 131.47 239.04 L 131.47 250.99 L 119.52 250.99 M 119.52 286.85 L 131.47 286.85 L 131.47 298.8 M 179.28 250.99 L 167.33 250.99 L 167.33 239.04 M 179.28 286.85 L 167.33 286.85 L 167.33 298.8 M 179.28 286.85 L 227.09 286.85 L 227.09 250.99 L 179.28 250.99 M 298.8 250.99 L 286.85 250.99 L 286.85 239.04 M 298.8 286.85 L 250.99 286.85 L 250.99 239.04 M 298.8 250.99 L 358.56 250.99 M 298.8 286.85 L 310.75 286.85 L 310.75 298.8 M 358.56 286.85 L 346.61 286.85 L 346.61 298.8 M 358.56 286.85 L 418.32 286.85 M 370.51 239.04 L 370.51 250.99 L 358.56 250.99 M 418.32 250.99 L 406.37 250.99 L 406.37 239.04 M 430.27 239.04 L 430.27 298.8 M 466.13 239.04 L 466.13 298.8 M 418.32 250.99 L 430.27 250.99 M 418.32 286.85 L 430.27 286.85 M 478.08 250.99 L 466.13 250.99 M 478.08 286.85 L 466.13 286.85 M 490.03 239.04 L 490.03 250.99 L 478.08 250.99 M 478.08 286.85 L 490.03 286.85 L 490.03 298.8 M 537.84 250.99 L 525.89 250.99 L 525.89 239.04 M 537.84 286.85 L 525.89 286.85 L 525.89 298.8 M 585.65 239.04 L 585.65 298.8 M 549.79 239.04 L 549.79 250.99 L 537.84 250.99 M 537.84 286.85 L 549.79 286.85 L 549.79 298.8 M 59.76 346.61 L 11.95 346.61 L 11.95 310.75 L 59.76 310.75 M 59.76 310.75 L 119.52 310.75 M 59.76 346.61 L 71.71 346.61 L 71.71 358.56 M 119.52 346.61 L 107.57 346.61 L 107.57 358.56 M 119.52 310.75 L 179.28 310.75 M 119.52 346.61 L 179.28 346.61 M 131.47 298.8 L 131.47 310.75 M 167.33 298.8 L 167.33 310.75 M 131.47 346.61 L 131.47 358.56 M 167.33 346.61 L 167.33 358.56 M 179.28 310.75 L 239.04 310.75 M 179.28 346.61 L 191.23 346.61 L 191.23 358.56 M 239.04 346.61 L 227.09 346.61 L 227.09 358.56 M 239.04 310.75 L 298.8 310.75 M 239.04 346.61 L 298.8 346.61 M 310.75 298.8 L 310.75 358.56 M 346.61 298.8 L 346.61 358.56 M 298.8 310.75 L 310.75 310.75 M 298.8 346.61 L 310.75 346.61 M 358.56 310.75 L 346.61 310.75 M 358.56 346.61 L 346.61 346.61 M 358.56 346.61 L 406.37 346.61 L 406.37 310.75 L 358.56 310.75 M 430.27 298.8 L 430.27 358.56 M 478.08 310.75 L 466.13 310.75 L 466.13 298.8 M 478.08 346.61 L 466.13 346.61 L 466.13 358.56 M 490.03 298.8 L 490.03 358.56 M 525.89 298.8 L 525.89 358.56 M 478.08 310.75 L 490.03 310.75 M 478.08 346.61 L 490.03 346.61 M 537.84 310.75 L 525.89 310.75 M 537.84 346.61 L 525.89 346.61 M 585.65 298.8 L 585.65 358.56 M 549.79 298.8 L 549.79 310.75 L 537.84 310.75 M 537.84 346.61 L 549.79 346.61 L 549.79 358.56 M 59.76 406.37 L 47.81 406.37 L 47.81 418.32 M 59.76 370.51 L 11.95 370.51 L 11.95 418.32 M 71.71 358.56 L 71.71 418.32 M 107.57 358.56 L 107.57 418.32 M 59.76 370.51 L 71.71 370.51 M 59.76 406.37 L 71.71 406.37 M 119.52 370.51 L 107.57 370.51 M 119.52 406.37 L 107.57 406.37 M 167.33 358.56 L 167.33 418.32 M 131.47 358.56 L 131.47 370.51 L 119.52 370.51 M 119.52 406.37 L 131.47 406.37 L 131.47 418.32 M 227.09 358.56 L 227.09 365.3 L 227.09 406.37 L 191.23 406.37 L 191.23 358.56 M 286.85 418.32 L 286.85 370.51 L 250.99 370.51 L 250.99 418.32 M 310.75 358.56 L 310.75 418.32 M 346.61 358.56 L 346.61 418.32 M 418.32 406.37 L 370.51 406.37 L 370.51 370.51 L 418.32 370.51 M 418.32 370.51 L 478.08 370.51 M 418.32 406.37 L 478.08 406.37 M 430.27 358.56 L 430.27 370.51 M 466.13 358.56 L 466.13 370.51 M 430.27 406.37 L 430.27 418.32 M 466.13 406.37 L 466.13 418.32 M 490.03 358.56 L 490.03 370.51 L 478.08 370.51 M 525.89 358.56 L 525.89 406.37 L 478.08 406.37 M 585.65 358.56 L 585.65 365.3 L 585.65 406.37 L 549.79 406.37 L 549.79 358.56 M 47.81 418.32 L 47.81 425.06 L 47.81 466.13 L 11.95 466.13 L 11.95 418.32 M 71.71 418.32 L 71.71 478.08 M 119.52 430.27 L 107.57 430.27 L 107.57 418.32 M 119.52 466.13 L 107.57 466.13 L 107.57 478.08 M 131.47 418.32 L 131.47 478.08 M 167.33 418.32 L 167.33 478.08 M 119.52 430.27 L 131.47 430.27 M 119.52 466.13 L 131.47 466.13 M 179.28 430.27 L 167.33 430.27 M 179.28 466.13 L 167.33 466.13 M 179.28 430.27 L 239.04 430.27 M 179.28 466.13 L 191.23 466.13 L 191.23 478.08 M 239.04 466.13 L 227.09 466.13 L 227.09 478.08 M 239.04 466.13 L 298.8 466.13 M 250.99 418.32 L 250.99 430.27 L 239.04 430.27 M 298.8 430.27 L 286.85 430.27 L 286.85 418.32 M 310.75 418.32 L 310.75 478.08 M 346.61 418.32 L 346.61 478.08 M 298.8 430.27 L 310.75 430.27 M 298.8 466.13 L 310.75 466.13 M 358.56 430.27 L 346.61 430.27 M 358.56 466.13 L 346.61 466.13 M 358.56 430.27 L 418.32 430.27 M 358.56 466.13 L 370.51 466.13 L 370.51 478.08 M 418.32 466.13 L 406.37 466.13 L 406.37 478.08 M 418.32 466.13 L 478.08 466.13 M 430.27 418.32 L 430.27 430.27 L 418.32 430.27 M 478.08 430.27 L 466.13 430.27 L 466.13 418.32 M 478.08 466.13 L 490.03 466.13 L 490.03 478.08 M 478.08 430.27 L 525.89 430.27 L 525.89 478.08 M 585.65 478.08 L 585.65 430.27 L 549.79 430.27 L 549.79 478.08 M 59.76 525.89 L 47.81 525.89 L 47.81 537.84 M 59.76 490.03 L 11.95 490.03 L 11.95 537.84 M 59.76 490.03 L 119.52 490.03 M 59.76 525.89 L 119.52 525.89 M 71.71 478.08 L 71.71 490.03 M 107.57 478.08 L 107.57 490.03 M 71.71 525.89 L 71.71 537.84 M 107.57 525.89 L 107.57 537.84 M 131.47 478.08 L 131.47 490.03 L 119.52 490.03 M 119.52 525.89 L 131.47 525.89 L 131.47 537.84 M 179.28 490.03 L 167.33 490.03 L 167.33 478.08 M 179.28 525.89 L 167.33 525.89 L 167.33 537.84 M 191.23 478.08 L 191.23 537.84 M 227.09 478.08 L 227.09 537.84 M 179.28 490.03 L 191.23 490.03 M 179.28 525.89 L 191.23 525.89 M 239.04 490.03 L 227.09 490.03 M 239.04 525.89 L 227.09 525.89 M 239.04 525.89 L 286.85 525.89 L 286.85 490.03 L 239.04 490.03 M 310.75 478.08 L 310.75 537.84 M 358.56 490.03 L 346.61 490.03 L 346.61 478.08 M 358.56 525.89 L 346.61 525.89 L 346.61 537.84 M 358.56 490.03 L 418.32 490.03 M 358.56 525.89 L 418.32 525.89 M 370.51 478.08 L 370.51 490.03 M 406.37 478.08 L 406.37 490.03 M 370.51 525.89 L 370.51 537.84 M 406.37 525.89 L 406.37 537.84 M 418.32 525.89 L 430.27 525.89 L 430.27 537.84 M 418.32 490.03 L 466.13 490.03 L 466.13 537.84 M 490.03 478.08 L 490.03 537.84 M 525.89 478.08 L 525.89 537.84 M 549.79 478.08 L 549.79 537.84 M 585.65 478.08 L 585.65 537.84 M 47.81 537.84 L 47.81 544.58 L 47.81 585.65 L 11.95 585.65 L 11.95 537.84 M 119.52 549.79 L 107.57 549.79 L 107.57 537.84 M 119.52 585.65 L 71.71 585.65 L 71.71 537.84 M 131.47 537.84 L 131.47 549.79 L 119.52 549.79 M 167.33 537.84 L 167.33 585.65 L 119.52 585.65 M 239.04 549.79 L 227.09 549.79 L 227.09 537.84 M 239.04 585.65 L 191.23 585.65 L 191.23 537.84 M 239.04 585.65 L 286.85 585.65 L 286.85 549.79 L 239.04 549.79 M 346.61 537.84 L 346.61 544.58 L 346.61 585.65 L 310.75 585.65 L 310.75 537.84 M 406.37 537.84 L 406.37 544.58 L 406.37 585.65 L 370.51 585.65 L 370.51 537.84 M 466.13 537.84 L 466.13 544.58 L 466.13 585.65 L 430.27 585.65 L 430.27 537.84 M 537.84 549.79 L 525.89 549.79 L 525.89 537.84 M 537.84 585.65 L 490.03 585.65 L 490.03 537.84 " /> <circle cx="29.88" cy="29.88" r="19.92" fill-opacity="1.0" stroke-opacity="0" fill="#E51919" /><circle cx="567.72" cy="567.72" r="19.92" fill-opacity="1.0" stroke-opacity="0" fill="#E51919" />  </svg>