<?xml version="1.0" encoding="utf-8" standalone="no"?>
<!DOCTYPE svg PUBLIC "-//W3C//DTD SVG 1.1//EN"
  "http://www.w3.org/Graphics/SVG/1.1/DTD/svg11.dtd">
<svg xmlns:xlink="http://www.w3.org/1999/xlink" width="504pt" height="504pt" viewBox="0 0 504 504" xmlns="http://www.w3.org/2000/svg" version="1.1">
 <metadata>
  <rdf:RDF xmlns:dc="http://purl.org/dc/elements/1.1/" xmlns:cc="http://creativecommons.org/ns#" xmlns:rdf="http://www.w3.org/1999/02/22-rdf-syntax-ns#">
   <cc:Work>
    <dc:type rdf:resource="http://purl.org/dc/dcmitype/StillImage"/>
    <dc:date>2022-03-20T09:17:41.820590</dc:date>
    <dc:format>image/svg+xml</dc:format>
    <dc:creator>
     <cc:Agent>
      <dc:title>Matplotlib v3.5.1, https://matplotlib.org/</dc:title>
     </cc:Agent>
    </dc:creator>
   </cc:Work>
  </rdf:RDF>
 </metadata>
 <defs>
  <style type="text/css">*{stroke-linejoin: round; stroke-linecap: butt}</style>
 </defs>
 <g id="figure_1">
  <g id="patch_1">
   <path d="M 0 504 
L 504 504 
L 504 0 
L 0 0 
z
" style="fill: #ffffff"/>
  </g>
  <g id="axes_1">
   <g id="patch_2">
    <path d="M 64.26 448.56 
L 452.34 448.56 
L 452.34 60.48 
L 64.26 60.48 
z
" style="fill: #ffffff"/>
   </g>
   <g id="line2d_1">
    <path d="M 81.9 430.92 
L 117.18 430.92 
" clip-path="url(#p9402ad1baa)" style="fill: none; stroke: #000000; stroke-width: 1.5; stroke-linecap: square"/>
   </g>
   <g id="line2d_2">
    <path d="M 117.18 395.64 
L 81.9 395.64 
" clip-path="url(#p9402ad1baa)" style="fill: none; stroke: #000000; stroke-width: 1.5; stroke-linecap: square"/>
   </g>
   <g id="line2d_3">
    <path d="M 81.9 395.64 
L 81.9 430.92 
" clip-path="url(#p9402ad1baa)" style="fill: none; stroke: #000000; stroke-width: 1.5; stroke-linecap: square"/>
   </g>
   <g id="line2d_4">
    <path d="M 117.18 430.92 
L 152.46 430.92 
" clip-path="url(#p9402ad1baa)" style="fill: none; stroke: #000000; stroke-width: 1.5; stroke-linecap: square"/>
   </g>
   <g id="line2d_5">
    <path d="M 152.46 395.64 
L 117.18 395.64 
" clip-path="url(#p9402ad1baa)" style="fill: none; stroke: #000000; stroke-width: 1.5; stroke-linecap: square"/>
   </g>
   <g id="line2d_6">
    <path d="M 152.46 430.92 
L 187.74 430.92 
" clip-path="url(#p9402ad1baa)" style="fill: none; stroke: #000000; stroke-width: 1.5; stroke-linecap: square"/>
   </g>
   <g id="line2d_7">
    <path d="M 187.74 395.64 
L 152.46 395.64 
" clip-path="url(#p9402ad1baa)" style="fill: none; stroke: #000000; stroke-width: 1.5; stroke-linecap: square"/>
   </g>
   <g id="line2d_8">
    <path d="M 223.02 395.64 
L 187.74 395.64 
" clip-path="url(#p9402ad1baa)" style="fill: none; stroke: #000000; stroke-width: 1.5; stroke-linecap: square"/>
   </g>
   <g id="line2d_9">
    <path d="M 223.02 430.92 
L 258.3 430.92 
" clip-path="url(#p9402ad1baa)" style="fill: none; stroke: #000000; stroke-width: 1.5; stroke-linecap: square"/>
   </g>
   <g id="line2d_10">
    <path d="M 258.3 430.92 
L 258.3 395.64 
" clip-path="url(#p9402ad1baa)" style="fill: none; stroke: #000000; stroke-width: 1.5; stroke-linecap: square"/>
   </g>
   <g id="line2d_11">
    <path d="M 258.3 430.92 
L 293.58 430.92 
" clip-path="url(#p9402ad1baa)" style="fill: none; stroke: #000000; stroke-width: 1.5; stroke-linecap: square"/>
   </g>
   <g id="line2d_12">
    <path d="M 293.58 395.64 
L 258.3 395.64 
" clip-path="url(#p9402ad1baa)" style="fill: none; stroke: #000000; stroke-width: 1.5; stroke-linecap: square"/>
   </g>
   <g id="line2d_13">
    <path d="M 258.3 395.64 
L 258.3 430.92 
" clip-path="url(#p9402ad1baa)" style="fill: none; stroke: #000000; stroke-width: 1.5; stroke-linecap: square"/>
   </g>
   <g id="line2d_14">
    <path d="M 293.58 430.92 
L 328.86 430.92 
" clip-path="url(#p9402ad1baa)" style="fill: none; stroke: #000000; stroke-width: 1.5; stroke-linecap: square"/>
   </g>
   <g id="line2d_15">
    <path d="M 328.86 395.64 
L 293.58 395.64 
" clip-path="url(#p9402ad1baa)" style="fill: none; stroke: #000000; stroke-width: 1.5; stroke-linecap: square"/>
   </g>
   <g id="line2d_16">
    <path d="M 328.86 430.92 
L 364.14 430.92 
" clip-path="url(#p9402ad1baa)" style="fill: none; stroke: #000000; stroke-width: 1.5; stroke-linecap: square"/>
   </g>
   <g id="line2d_17">
    <path d="M 364.14 395.64 
L 328.86 395.64 
" clip-path="url(#p9402ad1baa)" style="fill: none; stroke: #000000; stroke-width: 1.5; stroke-linecap: square"/>
   </g>
   <g id="line2d_18">
    <path d="M 364.14 430.92 
L 399.42 430.92 
" clip-path="url(#p9402ad1baa)" style="fill: none; stroke: #000000; stroke-width: 1.5; stroke-linecap: square"/>
   </g>
   <g id="line2d_19">
    <path d="M 399.42 430.92 
L 434.7 430.92 
" clip-path="url(#p9402ad1baa)" style="fill: none; stroke: #000000; stroke-width: 1.5; stroke-linecap: square"/>
   </g>
   <g id="line2d_20">
    <path d="M 434.7 430.92 
L 434.7 395.64 
" clip-path="url(#p9402ad1baa)" style="fill: none; stroke: #000000; stroke-width: 1.5; stroke-linecap: square"/>
   </g>
   <g id="line2d_21">
    <path d="M 81.9 395.64 
L 117.18 395.64 
" clip-path="url(#p9402ad1baa)" style="fill: none; stroke: #000000; stroke-width: 1.5; stroke-linecap: square"/>
   </g>
   <g id="line2d_22">
    <path d="M 81.9 360.36 
L 81.9 395.64 
" clip-path="url(#p9402ad1baa)" style="fill: none; stroke: #000000; stroke-width: 1.5; stroke-linecap: square"/>
   </g>
   <g id="line2d_23">
    <path d="M 117.18 395.64 
L 152.46 395.64 
" clip-path="url(#p9402ad1baa)" style="fill: none; stroke: #000000; stroke-width: 1.5; stroke-linecap: square"/>
   </g>
   <g id="line2d_24">
    <path d="M 152.46 395.64 
L 187.74 395.64 
" clip-path="url(#p9402ad1baa)" style="fill: none; stroke: #000000; stroke-width: 1.5; stroke-linecap: square"/>
   </g>
   <g id="line2d_25">
    <path d="M 187.74 395.64 
L 187.74 360.36 
" clip-path="url(#p9402ad1baa)" style="fill: none; stroke: #000000; stroke-width: 1.5; stroke-linecap: square"/>
   </g>
   <g id="line2d_26">
    <path d="M 187.74 395.64 
L 223.02 395.64 
" clip-path="url(#p9402ad1baa)" style="fill: none; stroke: #000000; stroke-width: 1.5; stroke-linecap: square"/>
   </g>
   <g id="line2d_27">
    <path d="M 223.02 395.64 
L 223.02 360.36 
" clip-path="url(#p9402ad1baa)" style="fill: none; stroke: #000000; stroke-width: 1.5; stroke-linecap: square"/>
   </g>
   <g id="line2d_28">
    <path d="M 187.74 360.36 
L 187.74 395.64 
" clip-path="url(#p9402ad1baa)" style="fill: none; stroke: #000000; stroke-width: 1.5; stroke-linecap: square"/>
   </g>
   <g id="line2d_29">
    <path d="M 258.3 360.36 
L 223.02 360.36 
" clip-path="url(#p9402ad1baa)" style="fill: none; stroke: #000000; stroke-width: 1.5; stroke-linecap: square"/>
   </g>
   <g id="line2d_30">
    <path d="M 223.02 360.36 
L 223.02 395.64 
" clip-path="url(#p9402ad1baa)" style="fill: none; stroke: #000000; stroke-width: 1.5; stroke-linecap: square"/>
   </g>
   <g id="line2d_31">
    <path d="M 258.3 395.64 
L 293.58 395.64 
" clip-path="url(#p9402ad1baa)" style="fill: none; stroke: #000000; stroke-width: 1.5; stroke-linecap: square"/>
   </g>
   <g id="line2d_32">
    <path d="M 293.58 360.36 
L 258.3 360.36 
" clip-path="url(#p9402ad1baa)" style="fill: none; stroke: #000000; stroke-width: 1.5; stroke-linecap: square"/>
   </g>
   <g id="line2d_33">
    <path d="M 293.58 395.64 
L 328.86 395.64 
" clip-path="url(#p9402ad1baa)" style="fill: none; stroke: #000000; stroke-width: 1.5; stroke-linecap: square"/>
   </g>
   <g id="line2d_34">
    <path d="M 328.86 360.36 
L 293.58 360.36 
" clip-path="url(#p9402ad1baa)" style="fill: none; stroke: #000000; stroke-width: 1.5; stroke-linecap: square"/>
   </g>
   <g id="line2d_35">
    <path d="M 328.86 395.64 
L 364.14 395.64 
" clip-path="url(#p9402ad1baa)" style="fill: none; stroke: #000000; stroke-width: 1.5; stroke-linecap: square"/>
   </g>
   <g id="line2d_36">
    <path d="M 364.14 395.64 
L 364.14 360.36 
" clip-path="url(#p9402ad1baa)" style="fill: none; stroke: #000000; stroke-width: 1.5; stroke-linecap: square"/>
   </g>
   <g id="line2d_37">
    <path d="M 399.42 395.64 
L 399.42 360.36 
" clip-path="url(#p9402ad1baa)" style="fill: none; stroke: #000000; stroke-width: 1.5; stroke-linecap: square"/>
   </g>
   <g id="line2d_38">
    <path d="M 399.42 360.36 
L 364.14 360.36 
" clip-path="url(#p9402ad1baa)" style="fill: none; stroke: #000000; stroke-width: 1.5; stroke-linecap: square"/>
   </g>
   <g id="line2d_39">
    <path d="M 364.14 360.36 
L 364.14 395.64 
" clip-path="url(#p9402ad1baa)" style="fill: none; stroke: #000000; stroke-width: 1.5; stroke-linecap: square"/>
   </g>
   <g id="line2d_40">
    <path d="M 434.7 395.64 
L 434.7 360.36 
" clip-path="url(#p9402ad1baa)" style="fill: none; stroke: #000000; stroke-width: 1.5; stroke-linecap: square"/>
   </g>
   <g id="line2d_41">
    <path d="M 399.42 360.36 
L 399.42 395.64 
" clip-path="url(#p9402ad1baa)" style="fill: none; stroke: #000000; stroke-width: 1.5; stroke-linecap: square"/>
   </g>
   <g id="line2d_42">
    <path d="M 117.18 360.36 
L 117.18 325.08 
" clip-path="url(#p9402ad1baa)" style="fill: none; stroke: #000000; stroke-width: 1.5; stroke-linecap: square"/>
   </g>
   <g id="line2d_43">
    <path d="M 117.18 325.08 
L 81.9 325.08 
" clip-path="url(#p9402ad1baa)" style="fill: none; stroke: #000000; stroke-width: 1.5; stroke-linecap: square"/>
   </g>
   <g id="line2d_44">
    <path d="M 81.9 325.08 
L 81.9 360.36 
" clip-path="url(#p9402ad1baa)" style="fill: none; stroke: #000000; stroke-width: 1.5; stroke-linecap: square"/>
   </g>
   <g id="line2d_45">
    <path d="M 152.46 360.36 
L 152.46 325.08 
" clip-path="url(#p9402ad1baa)" style="fill: none; stroke: #000000; stroke-width: 1.5; stroke-linecap: square"/>
   </g>
   <g id="line2d_46">
    <path d="M 117.18 325.08 
L 117.18 360.36 
" clip-path="url(#p9402ad1baa)" style="fill: none; stroke: #000000; stroke-width: 1.5; stroke-linecap: square"/>
   </g>
   <g id="line2d_47">
    <path d="M 187.74 325.08 
L 152.46 325.08 
" clip-path="url(#p9402ad1baa)" style="fill: none; stroke: #000000; stroke-width: 1.5; stroke-linecap: square"/>
   </g>
   <g id="line2d_48">
    <path d="M 152.46 325.08 
L 152.46 360.36 
" clip-path="url(#p9402ad1baa)" style="fill: none; stroke: #000000; stroke-width: 1.5; stroke-linecap: square"/>
   </g>
   <g id="line2d_49">
    <path d="M 223.02 360.36 
L 223.02 325.08 
" clip-path="url(#p9402ad1baa)" style="fill: none; stroke: #000000; stroke-width: 1.5; stroke-linecap: square"/>
   </g>
   <g id="line2d_50">
    <path d="M 223.02 325.08 
L 187.74 325.08 
" clip-path="url(#p9402ad1baa)" style="fill: none; stroke: #000000; stroke-width: 1.5; stroke-linecap: square"/>
   </g>
   <g id="line2d_51">
    <path d="M 223.02 360.36 
L 258.3 360.36 
" clip-path="url(#p9402ad1baa)" style="fill: none; stroke: #000000; stroke-width: 1.5; stroke-linecap: square"/>
   </g>
   <g id="line2d_52">
    <path d="M 223.02 325.08 
L 223.02 360.36 
" clip-path="url(#p9402ad1baa)" style="fill: none; stroke: #000000; stroke-width: 1.5; stroke-linecap: square"/>
   </g>
   <g id="line2d_53">
    <path d="M 258.3 360.36 
L 293.58 360.36 
" clip-path="url(#p9402ad1baa)" style="fill: none; stroke: #000000; stroke-width: 1.5; stroke-linecap: square"/>
   </g>
   <g id="line2d_54">
    <path d="M 293.58 325.08 
L 258.3 325.08 
" clip-path="url(#p9402ad1baa)" style="fill: none; stroke: #000000; stroke-width: 1.5; stroke-linecap: square"/>
   </g>
   <g id="line2d_55">
    <path d="M 293.58 360.36 
L 328.86 360.36 
" clip-path="url(#p9402ad1baa)" style="fill: none; stroke: #000000; stroke-width: 1.5; stroke-linecap: square"/>
   </g>
   <g id="line2d_56">
    <path d="M 328.86 325.08 
L 293.58 325.08 
" clip-path="url(#p9402ad1baa)" style="fill: none; stroke: #000000; stroke-width: 1.5; stroke-linecap: square"/>
   </g>
   <g id="line2d_57">
    <path d="M 364.14 360.36 
L 364.14 325.08 
" clip-path="url(#p9402ad1baa)" style="fill: none; stroke: #000000; stroke-width: 1.5; stroke-linecap: square"/>
   </g>
   <g id="line2d_58">
    <path d="M 364.14 325.08 
L 328.86 325.08 
" clip-path="url(#p9402ad1baa)" style="fill: none; stroke: #000000; stroke-width: 1.5; stroke-linecap: square"/>
   </g>
   <g id="line2d_59">
    <path d="M 364.14 360.36 
L 399.42 360.36 
" clip-path="url(#p9402ad1baa)" style="fill: none; stroke: #000000; stroke-width: 1.5; stroke-linecap: square"/>
   </g>
   <g id="line2d_60">
    <path d="M 364.14 325.08 
L 364.14 360.36 
" clip-path="url(#p9402ad1baa)" style="fill: none; stroke: #000000; stroke-width: 1.5; stroke-linecap: square"/>
   </g>
   <g id="line2d_61">
    <path d="M 434.7 360.36 
L 434.7 325.08 
" clip-path="url(#p9402ad1baa)" style="fill: none; stroke: #000000; stroke-width: 1.5; stroke-linecap: square"/>
   </g>
   <g id="line2d_62">
    <path d="M 81.9 325.08 
L 117.18 325.08 
" clip-path="url(#p9402ad1baa)" style="fill: none; stroke: #000000; stroke-width: 1.5; stroke-linecap: square"/>
   </g>
   <g id="line2d_63">
    <path d="M 81.9 289.8 
L 81.9 325.08 
" clip-path="url(#p9402ad1baa)" style="fill: none; stroke: #000000; stroke-width: 1.5; stroke-linecap: square"/>
   </g>
   <g id="line2d_64">
    <path d="M 152.46 325.08 
L 152.46 289.8 
" clip-path="url(#p9402ad1baa)" style="fill: none; stroke: #000000; stroke-width: 1.5; stroke-linecap: square"/>
   </g>
   <g id="line2d_65">
    <path d="M 152.46 325.08 
L 187.74 325.08 
" clip-path="url(#p9402ad1baa)" style="fill: none; stroke: #000000; stroke-width: 1.5; stroke-linecap: square"/>
   </g>
   <g id="line2d_66">
    <path d="M 152.46 289.8 
L 152.46 325.08 
" clip-path="url(#p9402ad1baa)" style="fill: none; stroke: #000000; stroke-width: 1.5; stroke-linecap: square"/>
   </g>
   <g id="line2d_67">
    <path d="M 187.74 325.08 
L 223.02 325.08 
" clip-path="url(#p9402ad1baa)" style="fill: none; stroke: #000000; stroke-width: 1.5; stroke-linecap: square"/>
   </g>
   <g id="line2d_68">
    <path d="M 223.02 325.08 
L 223.02 289.8 
" clip-path="url(#p9402ad1baa)" style="fill: none; stroke: #000000; stroke-width: 1.5; stroke-linecap: square"/>
   </g>
   <g id="line2d_69">
    <path d="M 258.3 289.8 
L 223.02 289.8 
" clip-path="url(#p9402ad1baa)" style="fill: none; stroke: #000000; stroke-width: 1.5; stroke-linecap: square"/>
   </g>
   <g id="line2d_70">
    <path d="M 223.02 289.8 
L 223.02 325.08 
" clip-path="url(#p9402ad1baa)" style="fill: none; stroke: #000000; stroke-width: 1.5; stroke-linecap: square"/>
   </g>
   <g id="line2d_71">
    <path d="M 258.3 325.08 
L 293.58 325.08 
" clip-path="url(#p9402ad1baa)" style="fill: none; stroke: #000000; stroke-width: 1.5; stroke-linecap: square"/>
   </g>
   <g id="line2d_72">
    <path d="M 293.58 289.8 
L 258.3 289.8 
" clip-path="url(#p9402ad1baa)" style="fill: none; stroke: #000000; stroke-width: 1.5; stroke-linecap: square"/>
   </g>
   <g id="line2d_73">
    <path d="M 293.58 325.08 
L 328.86 325.08 
" clip-path="url(#p9402ad1baa)" style="fill: none; stroke: #000000; stroke-width: 1.5; stroke-linecap: square"/>
   </g>
   <g id="line2d_74">
    <path d="M 328.86 325.08 
L 328.86 289.8 
" clip-path="url(#p9402ad1baa)" style="fill: none; stroke: #000000; stroke-width: 1.5; stroke-linecap: square"/>
   </g>
   <g id="line2d_75">
    <path d="M 328.86 325.08 
L 364.14 325.08 
" clip-path="url(#p9402ad1baa)" style="fill: none; stroke: #000000; stroke-width: 1.5; stroke-linecap: square"/>
   </g>
   <g id="line2d_76">
    <path d="M 328.86 289.8 
L 328.86 325.08 
" clip-path="url(#p9402ad1baa)" style="fill: none; stroke: #000000; stroke-width: 1.5; stroke-linecap: square"/>
   </g>
   <g id="line2d_77">
    <path d="M 399.42 325.08 
L 399.42 289.8 
" clip-path="url(#p9402ad1baa)" style="fill: none; stroke: #000000; stroke-width: 1.5; stroke-linecap: square"/>
   </g>
   <g id="line2d_78">
    <path d="M 399.42 289.8 
L 364.14 289.8 
" clip-path="url(#p9402ad1baa)" style="fill: none; stroke: #000000; stroke-width: 1.5; stroke-linecap: square"/>
   </g>
   <g id="line2d_79">
    <path d="M 434.7 325.08 
L 434.7 289.8 
" clip-path="url(#p9402ad1baa)" style="fill: none; stroke: #000000; stroke-width: 1.5; stroke-linecap: square"/>
   </g>
   <g id="line2d_80">
    <path d="M 399.42 289.8 
L 399.42 325.08 
" clip-path="url(#p9402ad1baa)" style="fill: none; stroke: #000000; stroke-width: 1.5; stroke-linecap: square"/>
   </g>
   <g id="line2d_81">
    <path d="M 117.18 289.8 
L 117.18 254.52 
" clip-path="url(#p9402ad1baa)" style="fill: none; stroke: #000000; stroke-width: 1.5; stroke-linecap: square"/>
   </g>
   <g id="line2d_82">
    <path d="M 81.9 254.52 
L 81.9 289.8 
" clip-path="url(#p9402ad1baa)" style="fill: none; stroke: #000000; stroke-width: 1.5; stroke-linecap: square"/>
   </g>
   <g id="line2d_83">
    <path d="M 152.46 289.8 
L 152.46 254.52 
" clip-path="url(#p9402ad1baa)" style="fill: none; stroke: #000000; stroke-width: 1.5; stroke-linecap: square"/>
   </g>
   <g id="line2d_84">
    <path d="M 152.46 254.52 
L 117.18 254.52 
" clip-path="url(#p9402ad1baa)" style="fill: none; stroke: #000000; stroke-width: 1.5; stroke-linecap: square"/>
   </g>
   <g id="line2d_85">
    <path d="M 117.18 254.52 
L 117.18 289.8 
" clip-path="url(#p9402ad1baa)" style="fill: none; stroke: #000000; stroke-width: 1.5; stroke-linecap: square"/>
   </g>
   <g id="line2d_86">
    <path d="M 187.74 289.8 
L 187.74 254.52 
" clip-path="url(#p9402ad1baa)" style="fill: none; stroke: #000000; stroke-width: 1.5; stroke-linecap: square"/>
   </g>
   <g id="line2d_87">
    <path d="M 152.46 254.52 
L 152.46 289.8 
" clip-path="url(#p9402ad1baa)" style="fill: none; stroke: #000000; stroke-width: 1.5; stroke-linecap: square"/>
   </g>
   <g id="line2d_88">
    <path d="M 223.02 254.52 
L 187.74 254.52 
" clip-path="url(#p9402ad1baa)" style="fill: none; stroke: #000000; stroke-width: 1.5; stroke-linecap: square"/>
   </g>
   <g id="line2d_89">
    <path d="M 187.74 254.52 
L 187.74 289.8 
" clip-path="url(#p9402ad1baa)" style="fill: none; stroke: #000000; stroke-width: 1.5; stroke-linecap: square"/>
   </g>
   <g id="line2d_90">
    <path d="M 223.02 289.8 
L 258.3 289.8 
" clip-path="url(#p9402ad1baa)" style="fill: none; stroke: #000000; stroke-width: 1.5; stroke-linecap: square"/>
   </g>
   <g id="line2d_91">
    <path d="M 258.3 254.52 
L 223.02 254.52 
" clip-path="url(#p9402ad1baa)" style="fill: none; stroke: #000000; stroke-width: 1.5; stroke-linecap: square"/>
   </g>
   <g id="line2d_92">
    <path d="M 258.3 289.8 
L 293.58 289.8 
" clip-path="url(#p9402ad1baa)" style="fill: none; stroke: #000000; stroke-width: 1.5; stroke-linecap: square"/>
   </g>
   <g id="line2d_93">
    <path d="M 293.58 289.8 
L 293.58 254.52 
" clip-path="url(#p9402ad1baa)" style="fill: none; stroke: #000000; stroke-width: 1.5; stroke-linecap: square"/>
   </g>
   <g id="line2d_94">
    <path d="M 328.86 289.8 
L 328.86 254.52 
" clip-path="url(#p9402ad1baa)" style="fill: none; stroke: #000000; stroke-width: 1.5; stroke-linecap: square"/>
   </g>
   <g id="line2d_95">
    <path d="M 293.58 254.52 
L 293.58 289.8 
" clip-path="url(#p9402ad1baa)" style="fill: none; stroke: #000000; stroke-width: 1.5; stroke-linecap: square"/>
   </g>
   <g id="line2d_96">
    <path d="M 364.14 254.52 
L 328.86 254.52 
" clip-path="url(#p9402ad1baa)" style="fill: none; stroke: #000000; stroke-width: 1.5; stroke-linecap: square"/>
   </g>
   <g id="line2d_97">
    <path d="M 328.86 254.52 
L 328.86 289.8 
" clip-path="url(#p9402ad1baa)" style="fill: none; stroke: #000000; stroke-width: 1.5; stroke-linecap: square"/>
   </g>
   <g id="line2d_98">
    <path d="M 364.14 289.8 
L 399.42 289.8 
" clip-path="url(#p9402ad1baa)" style="fill: none; stroke: #000000; stroke-width: 1.5; stroke-linecap: square"/>
   </g>
   <g id="line2d_99">
    <path d="M 399.42 289.8 
L 399.42 254.52 
" clip-path="url(#p9402ad1baa)" style="fill: none; stroke: #000000; stroke-width: 1.5; stroke-linecap: square"/>
   </g>
   <g id="line2d_100">
    <path d="M 434.7 289.8 
L 434.7 254.52 
" clip-path="url(#p9402ad1baa)" style="fill: none; stroke: #000000; stroke-width: 1.5; stroke-linecap: square"/>
   </g>
   <g id="line2d_101">
    <path d="M 399.42 254.52 
L 399.42 289.8 
" clip-path="url(#p9402ad1baa)" style="fill: none; stroke: #000000; stroke-width: 1.5; stroke-linecap: square"/>
   </g>
   <g id="line2d_102">
    <path d="M 81.9 219.24 
L 81.9 254.52 
" clip-path="url(#p9402ad1baa)" style="fill: none; stroke: #000000; stroke-width: 1.5; stroke-linecap: square"/>
   </g>
   <g id="line2d_103">
    <path d="M 117.18 254.52 
L 152.46 254.52 
" clip-path="url(#p9402ad1baa)" style="fill: none; stroke: #000000; stroke-width: 1.5; stroke-linecap: square"/>
   </g>
   <g id="line2d_104">
    <path d="M 152.46 219.24 
L 117.18 219.24 
" clip-path="url(#p9402ad1baa)" style="fill: none; stroke: #000000; stroke-width: 1.5; stroke-linecap: square"/>
   </g>
   <g id="line2d_105">
    <path d="M 187.74 254.52 
L 187.74 219.24 
" clip-path="url(#p9402ad1baa)" style="fill: none; stroke: #000000; stroke-width: 1.5; stroke-linecap: square"/>
   </g>
   <g id="line2d_106">
    <path d="M 187.74 219.24 
L 152.46 219.24 
" clip-path="url(#p9402ad1baa)" style="fill: none; stroke: #000000; stroke-width: 1.5; stroke-linecap: square"/>
   </g>
   <g id="line2d_107">
    <path d="M 187.74 254.52 
L 223.02 254.52 
" clip-path="url(#p9402ad1baa)" style="fill: none; stroke: #000000; stroke-width: 1.5; stroke-linecap: square"/>
   </g>
   <g id="line2d_108">
    <path d="M 187.74 219.24 
L 187.74 254.52 
" clip-path="url(#p9402ad1baa)" style="fill: none; stroke: #000000; stroke-width: 1.5; stroke-linecap: square"/>
   </g>
   <g id="line2d_109">
    <path d="M 223.02 254.52 
L 258.3 254.52 
" clip-path="url(#p9402ad1baa)" style="fill: none; stroke: #000000; stroke-width: 1.5; stroke-linecap: square"/>
   </g>
   <g id="line2d_110">
    <path d="M 258.3 254.52 
L 258.3 219.24 
" clip-path="url(#p9402ad1baa)" style="fill: none; stroke: #000000; stroke-width: 1.5; stroke-linecap: square"/>
   </g>
   <g id="line2d_111">
    <path d="M 293.58 254.52 
L 293.58 219.24 
" clip-path="url(#p9402ad1baa)" style="fill: none; stroke: #000000; stroke-width: 1.5; stroke-linecap: square"/>
   </g>
   <g id="line2d_112">
    <path d="M 258.3 219.24 
L 258.3 254.52 
" clip-path="url(#p9402ad1baa)" style="fill: none; stroke: #000000; stroke-width: 1.5; stroke-linecap: square"/>
   </g>
   <g id="line2d_113">
    <path d="M 328.86 219.24 
L 293.58 219.24 
" clip-path="url(#p9402ad1baa)" style="fill: none; stroke: #000000; stroke-width: 1.5; stroke-linecap: square"/>
   </g>
   <g id="line2d_114">
    <path d="M 293.58 219.24 
L 293.58 254.52 
" clip-path="url(#p9402ad1baa)" style="fill: none; stroke: #000000; stroke-width: 1.5; stroke-linecap: square"/>
   </g>
   <g id="line2d_115">
    <path d="M 328.86 254.52 
L 364.14 254.52 
" clip-path="url(#p9402ad1baa)" style="fill: none; stroke: #000000; stroke-width: 1.5; stroke-linecap: square"/>
   </g>
   <g id="line2d_116">
    <path d="M 364.14 254.52 
L 364.14 219.24 
" clip-path="url(#p9402ad1baa)" style="fill: none; stroke: #000000; stroke-width: 1.5; stroke-linecap: square"/>
   </g>
   <g id="line2d_117">
    <path d="M 399.42 254.52 
L 399.42 219.24 
" clip-path="url(#p9402ad1baa)" style="fill: none; stroke: #000000; stroke-width: 1.5; stroke-linecap: square"/>
   </g>
   <g id="line2d_118">
    <path d="M 364.14 219.24 
L 364.14 254.52 
" clip-path="url(#p9402ad1baa)" style="fill: none; stroke: #000000; stroke-width: 1.5; stroke-linecap: square"/>
   </g>
   <g id="line2d_119">
    <path d="M 434.7 254.52 
L 434.7 219.24 
" clip-path="url(#p9402ad1baa)" style="fill: none; stroke: #000000; stroke-width: 1.5; stroke-linecap: square"/>
   </g>
   <g id="line2d_120">
    <path d="M 399.42 219.24 
L 399.42 254.52 
" clip-path="url(#p9402ad1baa)" style="fill: none; stroke: #000000; stroke-width: 1.5; stroke-linecap: square"/>
   </g>
   <g id="line2d_121">
    <path d="M 117.18 219.24 
L 117.18 183.96 
" clip-path="url(#p9402ad1baa)" style="fill: none; stroke: #000000; stroke-width: 1.5; stroke-linecap: square"/>
   </g>
   <g id="line2d_122">
    <path d="M 81.9 183.96 
L 81.9 219.24 
" clip-path="url(#p9402ad1baa)" style="fill: none; stroke: #000000; stroke-width: 1.5; stroke-linecap: square"/>
   </g>
   <g id="line2d_123">
    <path d="M 117.18 219.24 
L 152.46 219.24 
" clip-path="url(#p9402ad1baa)" style="fill: none; stroke: #000000; stroke-width: 1.5; stroke-linecap: square"/>
   </g>
   <g id="line2d_124">
    <path d="M 117.18 183.96 
L 117.18 219.24 
" clip-path="url(#p9402ad1baa)" style="fill: none; stroke: #000000; stroke-width: 1.5; stroke-linecap: square"/>
   </g>
   <g id="line2d_125">
    <path d="M 152.46 219.24 
L 187.74 219.24 
" clip-path="url(#p9402ad1baa)" style="fill: none; stroke: #000000; stroke-width: 1.5; stroke-linecap: square"/>
   </g>
   <g id="line2d_126">
    <path d="M 187.74 183.96 
L 152.46 183.96 
" clip-path="url(#p9402ad1baa)" style="fill: none; stroke: #000000; stroke-width: 1.5; stroke-linecap: square"/>
   </g>
   <g id="line2d_127">
    <path d="M 223.02 219.24 
L 223.02 183.96 
" clip-path="url(#p9402ad1baa)" style="fill: none; stroke: #000000; stroke-width: 1.5; stroke-linecap: square"/>
   </g>
   <g id="line2d_128">
    <path d="M 223.02 183.96 
L 187.74 183.96 
" clip-path="url(#p9402ad1baa)" style="fill: none; stroke: #000000; stroke-width: 1.5; stroke-linecap: square"/>
   </g>
   <g id="line2d_129">
    <path d="M 258.3 219.24 
L 258.3 183.96 
" clip-path="url(#p9402ad1baa)" style="fill: none; stroke: #000000; stroke-width: 1.5; stroke-linecap: square"/>
   </g>
   <g id="line2d_130">
    <path d="M 223.02 183.96 
L 223.02 219.24 
" clip-path="url(#p9402ad1baa)" style="fill: none; stroke: #000000; stroke-width: 1.5; stroke-linecap: square"/>
   </g>
   <g id="line2d_131">
    <path d="M 293.58 183.96 
L 258.3 183.96 
" clip-path="url(#p9402ad1baa)" style="fill: none; stroke: #000000; stroke-width: 1.5; stroke-linecap: square"/>
   </g>
   <g id="line2d_132">
    <path d="M 258.3 183.96 
L 258.3 219.24 
" clip-path="url(#p9402ad1baa)" style="fill: none; stroke: #000000; stroke-width: 1.5; stroke-linecap: square"/>
   </g>
   <g id="line2d_133">
    <path d="M 293.58 219.24 
L 328.86 219.24 
" clip-path="url(#p9402ad1baa)" style="fill: none; stroke: #000000; stroke-width: 1.5; stroke-linecap: square"/>
   </g>
   <g id="line2d_134">
    <path d="M 328.86 219.24 
L 328.86 183.96 
" clip-path="url(#p9402ad1baa)" style="fill: none; stroke: #000000; stroke-width: 1.5; stroke-linecap: square"/>
   </g>
   <g id="line2d_135">
    <path d="M 364.14 183.96 
L 328.86 183.96 
" clip-path="url(#p9402ad1baa)" style="fill: none; stroke: #000000; stroke-width: 1.5; stroke-linecap: square"/>
   </g>
   <g id="line2d_136">
    <path d="M 328.86 183.96 
L 328.86 219.24 
" clip-path="url(#p9402ad1baa)" style="fill: none; stroke: #000000; stroke-width: 1.5; stroke-linecap: square"/>
   </g>
   <g id="line2d_137">
    <path d="M 399.42 219.24 
L 399.42 183.96 
" clip-path="url(#p9402ad1baa)" style="fill: none; stroke: #000000; stroke-width: 1.5; stroke-linecap: square"/>
   </g>
   <g id="line2d_138">
    <path d="M 399.42 183.96 
L 364.14 183.96 
" clip-path="url(#p9402ad1baa)" style="fill: none; stroke: #000000; stroke-width: 1.5; stroke-linecap: square"/>
   </g>
   <g id="line2d_139">
    <path d="M 434.7 219.24 
L 434.7 183.96 
" clip-path="url(#p9402ad1baa)" style="fill: none; stroke: #000000; stroke-width: 1.5; stroke-linecap: square"/>
   </g>
   <g id="line2d_140">
    <path d="M 399.42 183.96 
L 399.42 219.24 
" clip-path="url(#p9402ad1baa)" style="fill: none; stroke: #000000; stroke-width: 1.5; stroke-linecap: square"/>
   </g>
   <g id="line2d_141">
    <path d="M 117.18 183.96 
L 117.18 148.68 
" clip-path="url(#p9402ad1baa)" style="fill: none; stroke: #000000; stroke-width: 1.5; stroke-linecap: square"/>
   </g>
   <g id="line2d_142">
    <path d="M 81.9 148.68 
L 81.9 183.96 
" clip-path="url(#p9402ad1baa)" style="fill: none; stroke: #000000; stroke-width: 1.5; stroke-linecap: square"/>
   </g>
   <g id="line2d_143">
    <path d="M 117.18 148.68 
L 117.18 183.96 
" clip-path="url(#p9402ad1baa)" style="fill: none; stroke: #000000; stroke-width: 1.5; stroke-linecap: square"/>
   </g>
   <g id="line2d_144">
    <path d="M 152.46 183.96 
L 187.74 183.96 
" clip-path="url(#p9402ad1baa)" style="fill: none; stroke: #000000; stroke-width: 1.5; stroke-linecap: square"/>
   </g>
   <g id="line2d_145">
    <path d="M 187.74 183.96 
L 187.74 148.68 
" clip-path="url(#p9402ad1baa)" style="fill: none; stroke: #000000; stroke-width: 1.5; stroke-linecap: square"/>
   </g>
   <g id="line2d_146">
    <path d="M 187.74 183.96 
L 223.02 183.96 
" clip-path="url(#p9402ad1baa)" style="fill: none; stroke: #000000; stroke-width: 1.5; stroke-linecap: square"/>
   </g>
   <g id="line2d_147">
    <path d="M 223.02 183.96 
L 223.02 148.68 
" clip-path="url(#p9402ad1baa)" style="fill: none; stroke: #000000; stroke-width: 1.5; stroke-linecap: square"/>
   </g>
   <g id="line2d_148">
    <path d="M 187.74 148.68 
L 187.74 183.96 
" clip-path="url(#p9402ad1baa)" style="fill: none; stroke: #000000; stroke-width: 1.5; stroke-linecap: square"/>
   </g>
   <g id="line2d_149">
    <path d="M 258.3 183.96 
L 258.3 148.68 
" clip-path="url(#p9402ad1baa)" style="fill: none; stroke: #000000; stroke-width: 1.5; stroke-linecap: square"/>
   </g>
   <g id="line2d_150">
    <path d="M 223.02 148.68 
L 223.02 183.96 
" clip-path="url(#p9402ad1baa)" style="fill: none; stroke: #000000; stroke-width: 1.5; stroke-linecap: square"/>
   </g>
   <g id="line2d_151">
    <path d="M 258.3 183.96 
L 293.58 183.96 
" clip-path="url(#p9402ad1baa)" style="fill: none; stroke: #000000; stroke-width: 1.5; stroke-linecap: square"/>
   </g>
   <g id="line2d_152">
    <path d="M 258.3 148.68 
L 258.3 183.96 
" clip-path="url(#p9402ad1baa)" style="fill: none; stroke: #000000; stroke-width: 1.5; stroke-linecap: square"/>
   </g>
   <g id="line2d_153">
    <path d="M 328.86 148.68 
L 293.58 148.68 
" clip-path="url(#p9402ad1baa)" style="fill: none; stroke: #000000; stroke-width: 1.5; stroke-linecap: square"/>
   </g>
   <g id="line2d_154">
    <path d="M 328.86 183.96 
L 364.14 183.96 
" clip-path="url(#p9402ad1baa)" style="fill: none; stroke: #000000; stroke-width: 1.5; stroke-linecap: square"/>
   </g>
   <g id="line2d_155">
    <path d="M 364.14 183.96 
L 399.42 183.96 
" clip-path="url(#p9402ad1baa)" style="fill: none; stroke: #000000; stroke-width: 1.5; stroke-linecap: square"/>
   </g>
   <g id="line2d_156">
    <path d="M 399.42 183.96 
L 399.42 148.68 
" clip-path="url(#p9402ad1baa)" style="fill: none; stroke: #000000; stroke-width: 1.5; stroke-linecap: square"/>
   </g>
   <g id="line2d_157">
    <path d="M 399.42 148.68 
L 364.14 148.68 
" clip-path="url(#p9402ad1baa)" style="fill: none; stroke: #000000; stroke-width: 1.5; stroke-linecap: square"/>
   </g>
   <g id="line2d_158">
    <path d="M 434.7 183.96 
L 434.7 148.68 
" clip-path="url(#p9402ad1baa)" style="fill: none; stroke: #000000; stroke-width: 1.5; stroke-linecap: square"/>
   </g>
   <g id="line2d_159">
    <path d="M 399.42 148.68 
L 399.42 183.96 
" clip-path="url(#p9402ad1baa)" style="fill: none; stroke: #000000; stroke-width: 1.5; stroke-linecap: square"/>
   </g>
   <g id="line2d_160">
    <path d="M 117.18 148.68 
L 117.18 113.4 
" clip-path="url(#p9402ad1baa)" style="fill: none; stroke: #000000; stroke-width: 1.5; stroke-linecap: square"/>
   </g>
   <g id="line2d_161">
    <path d="M 152.46 148.68 
L 152.46 113.4 
" clip-path="url(#p9402ad1baa)" style="fill: none; stroke: #000000; stroke-width: 1.5; stroke-linecap: square"/>
   </g>
   <g id="line2d_162">
    <path d="M 152.46 113.4 
L 117.18 113.4 
" clip-path="url(#p9402ad1baa)" style="fill: none; stroke: #000000; stroke-width: 1.5; stroke-linecap: square"/>
   </g>
   <g id="line2d_163">
    <path d="M 117.18 113.4 
L 117.18 148.68 
" clip-path="url(#p9402ad1baa)" style="fill: none; stroke: #000000; stroke-width: 1.5; stroke-linecap: square"/>
   </g>
   <g id="line2d_164">
    <path d="M 187.74 148.68 
L 187.74 113.4 
" clip-path="url(#p9402ad1baa)" style="fill: none; stroke: #000000; stroke-width: 1.5; stroke-linecap: square"/>
   </g>
   <g id="line2d_165">
    <path d="M 152.46 113.4 
L 152.46 148.68 
" clip-path="url(#p9402ad1baa)" style="fill: none; stroke: #000000; stroke-width: 1.5; stroke-linecap: square"/>
   </g>
   <g id="line2d_166">
    <path d="M 223.02 148.68 
L 223.02 113.4 
" clip-path="url(#p9402ad1baa)" style="fill: none; stroke: #000000; stroke-width: 1.5; stroke-linecap: square"/>
   </g>
   <g id="line2d_167">
    <path d="M 187.74 113.4 
L 187.74 148.68 
" clip-path="url(#p9402ad1baa)" style="fill: none; stroke: #000000; stroke-width: 1.5; stroke-linecap: square"/>
   </g>
   <g id="line2d_168">
    <path d="M 258.3 148.68 
L 258.3 113.4 
" clip-path="url(#p9402ad1baa)" style="fill: none; stroke: #000000; stroke-width: 1.5; stroke-linecap: square"/>
   </g>
   <g id="line2d_169">
    <path d="M 223.02 113.4 
L 223.02 148.68 
" clip-path="url(#p9402ad1baa)" style="fill: none; stroke: #000000; stroke-width: 1.5; stroke-linecap: square"/>
   </g>
   <g id="line2d_170">
    <path d="M 293.58 148.68 
L 293.58 113.4 
" clip-path="url(#p9402ad1baa)" style="fill: none; stroke: #000000; stroke-width: 1.5; stroke-linecap: square"/>
   </g>
   <g id="line2d_171">
    <path d="M 258.3 113.4 
L 258.3 148.68 
" clip-path="url(#p9402ad1baa)" style="fill: none; stroke: #000000; stroke-width: 1.5; stroke-linecap: square"/>
   </g>
   <g id="line2d_172">
    <path d="M 293.58 148.68 
L 328.86 148.68 
" clip-path="url(#p9402ad1baa)" style="fill: none; stroke: #000000; stroke-width: 1.5; stroke-linecap: square"/>
   </g>
   <g id="line2d_173">
    <path d="M 328.86 113.4 
L 293.58 113.4 
" clip-path="url(#p9402ad1baa)" style="fill: none; stroke: #000000; stroke-width: 1.5; stroke-linecap: square"/>
   </g>
   <g id="line2d_174">
    <path d="M 293.58 113.4 
L 293.58 148.68 
" clip-path="url(#p9402ad1baa)" style="fill: none; stroke: #000000; stroke-width: 1.5; stroke-linecap: square"/>
   </g>
   <g id="line2d_175">
    <path d="M 364.14 148.68 
L 364.14 113.4 
" clip-path="url(#p9402ad1baa)" style="fill: none; stroke: #000000; stroke-width: 1.5; stroke-linecap: square"/>
   </g>
   <g id="line2d_176">
    <path d="M 364.14 113.4 
L 328.86 113.4 
" clip-path="url(#p9402ad1baa)" style="fill: none; stroke: #000000; stroke-width: 1.5; stroke-linecap: square"/>
   </g>
   <g id="line2d_177">
    <path d="M 364.14 148.68 
L 399.42 148.68 
" clip-path="url(#p9402ad1baa)" style="fill: none; stroke: #000000; stroke-width: 1.5; stroke-linecap: square"/>
   </g>
   <g id="line2d_178">
    <path d="M 364.14 113.4 
L 364.14 148.68 
" clip-path="url(#p9402ad1baa)" style="fill: none; stroke: #000000; stroke-width: 1.5; stroke-linecap: square"/>
   </g>
   <g id="line2d_179">
    <path d="M 434.7 148.68 
L 434.7 113.4 
" clip-path="url(#p9402ad1baa)" style="fill: none; stroke: #000000; stroke-width: 1.5; stroke-linecap: square"/>
   </g>
   <g id="line2d_180">
    <path d="M 434.7 113.4 
L 399.42 113.4 
" clip-path="url(#p9402ad1baa)" style="fill: none; stroke: #000000; stroke-width: 1.5; stroke-linecap: square"/>
   </g>
   <g id="line2d_181">
    <path d="M 117.18 78.12 
L 81.9 78.12 
" clip-path="url(#p9402ad1baa)" style="fill: none; stroke: #000000; stroke-width: 1.5; stroke-linecap: square"/>
   </g>
   <g id="line2d_182">
    <path d="M 81.9 78.12 
L 81.9 113.4 
" clip-path="url(#p9402ad1baa)" style="fill: none; stroke: #000000; stroke-width: 1.5; stroke-linecap: square"/>
   </g>
   <g id="line2d_183">
    <path d="M 117.18 113.4 
L 152.46 113.4 
" clip-path="url(#p9402ad1baa)" style="fill: none; stroke: #000000; stroke-width: 1.5; stroke-linecap: square"/>
   </g>
   <g id="line2d_184">
    <path d="M 152.46 78.12 
L 117.18 78.12 
" clip-path="url(#p9402ad1baa)" style="fill: none; stroke: #000000; stroke-width: 1.5; stroke-linecap: square"/>
   </g>
   <g id="line2d_185">
    <path d="M 187.74 113.4 
L 187.74 78.12 
" clip-path="url(#p9402ad1baa)" style="fill: none; stroke: #000000; stroke-width: 1.5; stroke-linecap: square"/>
   </g>
   <g id="line2d_186">
    <path d="M 187.74 78.12 
L 152.46 78.12 
" clip-path="url(#p9402ad1baa)" style="fill: none; stroke: #000000; stroke-width: 1.5; stroke-linecap: square"/>
   </g>
   <g id="line2d_187">
    <path d="M 223.02 78.12 
L 187.74 78.12 
" clip-path="url(#p9402ad1baa)" style="fill: none; stroke: #000000; stroke-width: 1.5; stroke-linecap: square"/>
   </g>
   <g id="line2d_188">
    <path d="M 187.74 78.12 
L 187.74 113.4 
" clip-path="url(#p9402ad1baa)" style="fill: none; stroke: #000000; stroke-width: 1.5; stroke-linecap: square"/>
   </g>
   <g id="line2d_189">
    <path d="M 258.3 113.4 
L 258.3 78.12 
" clip-path="url(#p9402ad1baa)" style="fill: none; stroke: #000000; stroke-width: 1.5; stroke-linecap: square"/>
   </g>
   <g id="line2d_190">
    <path d="M 258.3 78.12 
L 223.02 78.12 
" clip-path="url(#p9402ad1baa)" style="fill: none; stroke: #000000; stroke-width: 1.5; stroke-linecap: square"/>
   </g>
   <g id="line2d_191">
    <path d="M 293.58 78.12 
L 258.3 78.12 
" clip-path="url(#p9402ad1baa)" style="fill: none; stroke: #000000; stroke-width: 1.5; stroke-linecap: square"/>
   </g>
   <g id="line2d_192">
    <path d="M 258.3 78.12 
L 258.3 113.4 
" clip-path="url(#p9402ad1baa)" style="fill: none; stroke: #000000; stroke-width: 1.5; stroke-linecap: square"/>
   </g>
   <g id="line2d_193">
    <path d="M 293.58 113.4 
L 328.86 113.4 
" clip-path="url(#p9402ad1baa)" style="fill: none; stroke: #000000; stroke-width: 1.5; stroke-linecap: square"/>
   </g>
   <g id="line2d_194">
    <path d="M 328.86 78.12 
L 293.58 78.12 
" clip-path="url(#p9402ad1baa)" style="fill: none; stroke: #000000; stroke-width: 1.5; stroke-linecap: square"/>
   </g>
   <g id="line2d_195">
    <path d="M 328.86 113.4 
L 364.14 113.4 
" clip-path="url(#p9402ad1baa)" style="fill: none; stroke: #000000; stroke-width: 1.5; stroke-linecap: square"/>
   </g>
   <g id="line2d_196">
    <path d="M 364.14 78.12 
L 328.86 78.12 
" clip-path="url(#p9402ad1baa)" style="fill: none; stroke: #000000; stroke-width: 1.5; stroke-linecap: square"/>
   </g>
   <g id="line2d_197">
    <path d="M 399.42 78.12 
L 364.14 78.12 
" clip-path="url(#p9402ad1baa)" style="fill: none; stroke: #000000; stroke-width: 1.5; stroke-linecap: square"/>
   </g>
   <g id="line2d_198">
    <path d="M 399.42 113.4 
L 434.7 113.4 
" clip-path="url(#p9402ad1baa)" style="fill: none; stroke: #000000; stroke-width: 1.5; stroke-linecap: square"/>
   </g>
   <g id="line2d_199">
    <path d="M 434.7 113.4 
L 434.7 78.12 
" clip-path="url(#p9402ad1baa)" style="fill: none; stroke: #000000; stroke-width: 1.5; stroke-linecap: square"/>
   </g>
   <g id="line2d_200">
    <path d="M 434.7 78.12 
L 399.42 78.12 
" clip-path="url(#p9402ad1baa)" style="fill: none; stroke: #000000; stroke-width: 1.5; stroke-linecap: square"/>
   </g>
   <g id="patch_3">
    <path d="M 64.26 448.56 
L 64.26 60.48 
" style="fill: none; stroke: #000000; stroke-width: 0.8; stroke-linejoin: miter; stroke-linecap: square"/>
   </g>
   <g id="patch_4">
    <path d="M 452.34 448.56 
L 452.34 60.48 
" style="fill: none; stroke: #000000; stroke-width: 0.8; stroke-linejoin: miter; stroke-linecap: square"/>
   </g>
   <g id="patch_5">
    <path d="M 64.26 448.56 
L 452.34 448.56 
" style="fill: none; stroke: #000000; stroke-width: 0.8; stroke-linejoin: miter; stroke-linecap: square"/>
   </g>
   <g id="patch_6">
    <path d="M 64.26 60.48 
L 452.34 60.48 
" style="fill: none; stroke: #000000; stroke-width: 0.8; stroke-linejoin: miter; stroke-linecap: square"/>
   </g>
   <g id="text_1">
    <!-- END -->
    <g transform="translate(187.74 430.92)scale(0.07 -0.07)">
     <defs>
      <path id="DejaVuSans-Bold-45" d="M 588 4666 
L 3834 4666 
L 3834 3756 
L 1791 3756 
L 1791 2888 
L 3713 2888 
L 3713 1978 
L 1791 1978 
L 1791 909 
L 3903 909 
L 3903 0 
L 588 0 
L 588 4666 
z
" transform="scale(0.015625)"/>
      <path id="DejaVuSans-Bold-4e" d="M 588 4666 
L 1931 4666 
L 3628 1466 
L 3628 4666 
L 4769 4666 
L 4769 0 
L 3425 0 
L 1728 3200 
L 1728 0 
L 588 0 
L 588 4666 
z
" transform="scale(0.015625)"/>
      <path id="DejaVuSans-Bold-44" d="M 1791 3756 
L 1791 909 
L 2222 909 
Q 2959 909 3348 1275 
Q 3738 1641 3738 2338 
Q 3738 3031 3350 3393 
Q 2963 3756 2222 3756 
L 1791 3756 
z
M 588 4666 
L 1856 4666 
Q 2919 4666 3439 4514 
Q 3959 4363 4331 4000 
Q 4659 3684 4818 3271 
Q 4978 2859 4978 2338 
Q 4978 1809 4818 1395 
Q 4659 981 4331 666 
Q 3956 303 3431 151 
Q 2906 0 1856 0 
L 588 0 
L 588 4666 
z
" transform="scale(0.015625)"/>
     </defs>
     <use xlink:href="#DejaVuSans-Bold-45"/>
     <use xlink:href="#DejaVuSans-Bold-4e" x="68.310547"/>
     <use xlink:href="#DejaVuSans-Bold-44" x="152.001953"/>
    </g>
   </g>
   <g id="text_2">
    <!-- START -->
    <g transform="translate(81.9 148.68)scale(0.07 -0.07)">
     <defs>
      <path id="DejaVuSans-Bold-53" d="M 3834 4519 
L 3834 3531 
Q 3450 3703 3084 3790 
Q 2719 3878 2394 3878 
Q 1963 3878 1756 3759 
Q 1550 3641 1550 3391 
Q 1550 3203 1689 3098 
Q 1828 2994 2194 2919 
L 2706 2816 
Q 3484 2659 3812 2340 
Q 4141 2022 4141 1434 
Q 4141 663 3683 286 
Q 3225 -91 2284 -91 
Q 1841 -91 1394 -6 
Q 947 78 500 244 
L 500 1259 
Q 947 1022 1364 901 
Q 1781 781 2169 781 
Q 2563 781 2772 912 
Q 2981 1044 2981 1288 
Q 2981 1506 2839 1625 
Q 2697 1744 2272 1838 
L 1806 1941 
Q 1106 2091 782 2419 
Q 459 2747 459 3303 
Q 459 4000 909 4375 
Q 1359 4750 2203 4750 
Q 2588 4750 2994 4692 
Q 3400 4634 3834 4519 
z
" transform="scale(0.015625)"/>
      <path id="DejaVuSans-Bold-54" d="M 31 4666 
L 4331 4666 
L 4331 3756 
L 2784 3756 
L 2784 0 
L 1581 0 
L 1581 3756 
L 31 3756 
L 31 4666 
z
" transform="scale(0.015625)"/>
      <path id="DejaVuSans-Bold-41" d="M 3419 850 
L 1538 850 
L 1241 0 
L 31 0 
L 1759 4666 
L 3194 4666 
L 4922 0 
L 3713 0 
L 3419 850 
z
M 1838 1716 
L 3116 1716 
L 2478 3572 
L 1838 1716 
z
" transform="scale(0.015625)"/>
      <path id="DejaVuSans-Bold-52" d="M 2297 2597 
Q 2675 2597 2839 2737 
Q 3003 2878 3003 3200 
Q 3003 3519 2839 3656 
Q 2675 3794 2297 3794 
L 1791 3794 
L 1791 2597 
L 2297 2597 
z
M 1791 1766 
L 1791 0 
L 588 0 
L 588 4666 
L 2425 4666 
Q 3347 4666 3776 4356 
Q 4206 4047 4206 3378 
Q 4206 2916 3982 2619 
Q 3759 2322 3309 2181 
Q 3556 2125 3751 1926 
Q 3947 1728 4147 1325 
L 4800 0 
L 3519 0 
L 2950 1159 
Q 2778 1509 2601 1637 
Q 2425 1766 2131 1766 
L 1791 1766 
z
" transform="scale(0.015625)"/>
     </defs>
     <use xlink:href="#DejaVuSans-Bold-53"/>
     <use xlink:href="#DejaVuSans-Bold-54" x="72.021484"/>
     <use xlink:href="#DejaVuSans-Bold-41" x="132.484375"/>
     <use xlink:href="#DejaVuSans-Bold-52" x="209.876953"/>
     <use xlink:href="#DejaVuSans-Bold-54" x="282.378906"/>
    </g>
   </g>
  </g>
 </g>
 <defs>
  <clipPath id="p9402ad1baa">
   <rect x="64.26" y="60.48" width="388.08" height="388.08"/>
  </clipPath>
 </defs>
</svg>
