<?xml version="1.0" encoding="utf-8" standalone="no"?>
<!DOCTYPE svg PUBLIC "-//W3C//DTD SVG 1.1//EN"
  "http://www.w3.org/Graphics/SVG/1.1/DTD/svg11.dtd">
<svg xmlns:xlink="http://www.w3.org/1999/xlink" width="504pt" height="504pt" viewBox="0 0 504 504" xmlns="http://www.w3.org/2000/svg" version="1.1">
 <metadata>
  <rdf:RDF xmlns:dc="http://purl.org/dc/elements/1.1/" xmlns:cc="http://creativecommons.org/ns#" xmlns:rdf="http://www.w3.org/1999/02/22-rdf-syntax-ns#">
   <cc:Work>
    <dc:type rdf:resource="http://purl.org/dc/dcmitype/StillImage"/>
    <dc:date>2022-03-26T00:03:06.006717</dc:date>
    <dc:format>image/svg+xml</dc:format>
    <dc:creator>
     <cc:Agent>
      <dc:title>Matplotlib v3.5.1, https://matplotlib.org/</dc:title>
     </cc:Agent>
    </dc:creator>
   </cc:Work>
  </rdf:RDF>
 </metadata>
 <defs>
  <style type="text/css">*{stroke-linejoin: round; stroke-linecap: butt}</style>
 </defs>
 <g id="figure_1">
  <g id="patch_1">
   <path d="M 0 504 
L 504 504 
L 504 0 
L 0 0 
z
" style="fill: #ffffff"/>
  </g>
  <g id="axes_1">
   <g id="patch_2">
    <path d="M 64.26 448.56 
L 452.34 448.56 
L 452.34 60.48 
L 64.26 60.48 
z
" style="fill: #ffffff"/>
   </g>
   <g id="patch_3">
    <path d="M 417.06 208.656 
C 418.931273 208.656 420.726156 207.912535 422.049345 206.589345 
C 423.372535 205.266156 424.116 203.471273 424.116 201.6 
C 424.116 199.728727 423.372535 197.933844 422.049345 196.610655 
C 420.726156 195.287465 418.931273 194.544 417.06 194.544 
C 415.188727 194.544 413.393844 195.287465 412.070655 196.610655 
C 410.747465 197.933844 410.004 199.728727 410.004 201.6 
C 410.004 203.471273 410.747465 205.266156 412.070655 206.589345 
C 413.393844 207.912535 415.188727 208.656 417.06 208.656 
z
" clip-path="url(#pff0c036380)" style="opacity: 0.4"/>
   </g>
   <g id="patch_4">
    <path d="M 417.06 173.376 
C 418.931273 173.376 420.726156 172.632535 422.049345 171.309345 
C 423.372535 169.986156 424.116 168.191273 424.116 166.32 
C 424.116 164.448727 423.372535 162.653844 422.049345 161.330655 
C 420.726156 160.007465 418.931273 159.264 417.06 159.264 
C 415.188727 159.264 413.393844 160.007465 412.070655 161.330655 
C 410.747465 162.653844 410.004 164.448727 410.004 166.32 
C 410.004 168.191273 410.747465 169.986156 412.070655 171.309345 
C 413.393844 172.632535 415.188727 173.376 417.06 173.376 
z
" clip-path="url(#pff0c036380)" style="fill: #000500; opacity: 0.4"/>
   </g>
   <g id="patch_5">
    <path d="M 381.78 173.376 
C 383.651273 173.376 385.446156 172.632535 386.769345 171.309345 
C 388.092535 169.986156 388.836 168.191273 388.836 166.32 
C 388.836 164.448727 388.092535 162.653844 386.769345 161.330655 
C 385.446156 160.007465 383.651273 159.264 381.78 159.264 
C 379.908727 159.264 378.113844 160.007465 376.790655 161.330655 
C 375.467465 162.653844 374.724 164.448727 374.724 166.32 
C 374.724 168.191273 375.467465 169.986156 376.790655 171.309345 
C 378.113844 172.632535 379.908727 173.376 381.78 173.376 
z
" clip-path="url(#pff0c036380)" style="fill: #000b00; opacity: 0.4"/>
   </g>
   <g id="patch_6">
    <path d="M 346.5 173.376 
C 348.371273 173.376 350.166156 172.632535 351.489345 171.309345 
C 352.812535 169.986156 353.556 168.191273 353.556 166.32 
C 353.556 164.448727 352.812535 162.653844 351.489345 161.330655 
C 350.166156 160.007465 348.371273 159.264 346.5 159.264 
C 344.628727 159.264 342.833844 160.007465 341.510655 161.330655 
C 340.187465 162.653844 339.444 164.448727 339.444 166.32 
C 339.444 168.191273 340.187465 169.986156 341.510655 171.309345 
C 342.833844 172.632535 344.628727 173.376 346.5 173.376 
z
" clip-path="url(#pff0c036380)" style="fill: #001000; opacity: 0.4"/>
   </g>
   <g id="patch_7">
    <path d="M 346.5 208.656 
C 348.371273 208.656 350.166156 207.912535 351.489345 206.589345 
C 352.812535 205.266156 353.556 203.471273 353.556 201.6 
C 353.556 199.728727 352.812535 197.933844 351.489345 196.610655 
C 350.166156 195.287465 348.371273 194.544 346.5 194.544 
C 344.628727 194.544 342.833844 195.287465 341.510655 196.610655 
C 340.187465 197.933844 339.444 199.728727 339.444 201.6 
C 339.444 203.471273 340.187465 205.266156 341.510655 206.589345 
C 342.833844 207.912535 344.628727 208.656 346.5 208.656 
z
" clip-path="url(#pff0c036380)" style="fill: #001600; opacity: 0.4"/>
   </g>
   <g id="patch_8">
    <path d="M 311.22 208.656 
C 313.091273 208.656 314.886156 207.912535 316.209345 206.589345 
C 317.532535 205.266156 318.276 203.471273 318.276 201.6 
C 318.276 199.728727 317.532535 197.933844 316.209345 196.610655 
C 314.886156 195.287465 313.091273 194.544 311.22 194.544 
C 309.348727 194.544 307.553844 195.287465 306.230655 196.610655 
C 304.907465 197.933844 304.164 199.728727 304.164 201.6 
C 304.164 203.471273 304.907465 205.266156 306.230655 206.589345 
C 307.553844 207.912535 309.348727 208.656 311.22 208.656 
z
" clip-path="url(#pff0c036380)" style="fill: #001b00; opacity: 0.4"/>
   </g>
   <g id="patch_9">
    <path d="M 311.22 243.936 
C 313.091273 243.936 314.886156 243.192535 316.209345 241.869345 
C 317.532535 240.546156 318.276 238.751273 318.276 236.88 
C 318.276 235.008727 317.532535 233.213844 316.209345 231.890655 
C 314.886156 230.567465 313.091273 229.824 311.22 229.824 
C 309.348727 229.824 307.553844 230.567465 306.230655 231.890655 
C 304.907465 233.213844 304.164 235.008727 304.164 236.88 
C 304.164 238.751273 304.907465 240.546156 306.230655 241.869345 
C 307.553844 243.192535 309.348727 243.936 311.22 243.936 
z
" clip-path="url(#pff0c036380)" style="fill: #002100; opacity: 0.4"/>
   </g>
   <g id="patch_10">
    <path d="M 311.22 279.216 
C 313.091273 279.216 314.886156 278.472535 316.209345 277.149345 
C 317.532535 275.826156 318.276 274.031273 318.276 272.16 
C 318.276 270.288727 317.532535 268.493844 316.209345 267.170655 
C 314.886156 265.847465 313.091273 265.104 311.22 265.104 
C 309.348727 265.104 307.553844 265.847465 306.230655 267.170655 
C 304.907465 268.493844 304.164 270.288727 304.164 272.16 
C 304.164 274.031273 304.907465 275.826156 306.230655 277.149345 
C 307.553844 278.472535 309.348727 279.216 311.22 279.216 
z
" clip-path="url(#pff0c036380)" style="fill: #002600; opacity: 0.4"/>
   </g>
   <g id="patch_11">
    <path d="M 311.22 314.496 
C 313.091273 314.496 314.886156 313.752535 316.209345 312.429345 
C 317.532535 311.106156 318.276 309.311273 318.276 307.44 
C 318.276 305.568727 317.532535 303.773844 316.209345 302.450655 
C 314.886156 301.127465 313.091273 300.384 311.22 300.384 
C 309.348727 300.384 307.553844 301.127465 306.230655 302.450655 
C 304.907465 303.773844 304.164 305.568727 304.164 307.44 
C 304.164 309.311273 304.907465 311.106156 306.230655 312.429345 
C 307.553844 313.752535 309.348727 314.496 311.22 314.496 
z
" clip-path="url(#pff0c036380)" style="fill: #002b00; opacity: 0.4"/>
   </g>
   <g id="patch_12">
    <path d="M 346.5 314.496 
C 348.371273 314.496 350.166156 313.752535 351.489345 312.429345 
C 352.812535 311.106156 353.556 309.311273 353.556 307.44 
C 353.556 305.568727 352.812535 303.773844 351.489345 302.450655 
C 350.166156 301.127465 348.371273 300.384 346.5 300.384 
C 344.628727 300.384 342.833844 301.127465 341.510655 302.450655 
C 340.187465 303.773844 339.444 305.568727 339.444 307.44 
C 339.444 309.311273 340.187465 311.106156 341.510655 312.429345 
C 342.833844 313.752535 344.628727 314.496 346.5 314.496 
z
" clip-path="url(#pff0c036380)" style="fill: #003100; opacity: 0.4"/>
   </g>
   <g id="patch_13">
    <path d="M 381.78 314.496 
C 383.651273 314.496 385.446156 313.752535 386.769345 312.429345 
C 388.092535 311.106156 388.836 309.311273 388.836 307.44 
C 388.836 305.568727 388.092535 303.773844 386.769345 302.450655 
C 385.446156 301.127465 383.651273 300.384 381.78 300.384 
C 379.908727 300.384 378.113844 301.127465 376.790655 302.450655 
C 375.467465 303.773844 374.724 305.568727 374.724 307.44 
C 374.724 309.311273 375.467465 311.106156 376.790655 312.429345 
C 378.113844 313.752535 379.908727 314.496 381.78 314.496 
z
" clip-path="url(#pff0c036380)" style="fill: #003600; opacity: 0.4"/>
   </g>
   <g id="patch_14">
    <path d="M 417.06 314.496 
C 418.931273 314.496 420.726156 313.752535 422.049345 312.429345 
C 423.372535 311.106156 424.116 309.311273 424.116 307.44 
C 424.116 305.568727 423.372535 303.773844 422.049345 302.450655 
C 420.726156 301.127465 418.931273 300.384 417.06 300.384 
C 415.188727 300.384 413.393844 301.127465 412.070655 302.450655 
C 410.747465 303.773844 410.004 305.568727 410.004 307.44 
C 410.004 309.311273 410.747465 311.106156 412.070655 312.429345 
C 413.393844 313.752535 415.188727 314.496 417.06 314.496 
z
" clip-path="url(#pff0c036380)" style="fill: #003c00; opacity: 0.4"/>
   </g>
   <g id="patch_15">
    <path d="M 417.06 349.776 
C 418.931273 349.776 420.726156 349.032535 422.049345 347.709345 
C 423.372535 346.386156 424.116 344.591273 424.116 342.72 
C 424.116 340.848727 423.372535 339.053844 422.049345 337.730655 
C 420.726156 336.407465 418.931273 335.664 417.06 335.664 
C 415.188727 335.664 413.393844 336.407465 412.070655 337.730655 
C 410.747465 339.053844 410.004 340.848727 410.004 342.72 
C 410.004 344.591273 410.747465 346.386156 412.070655 347.709345 
C 413.393844 349.032535 415.188727 349.776 417.06 349.776 
z
" clip-path="url(#pff0c036380)" style="fill: #004100; opacity: 0.4"/>
   </g>
   <g id="patch_16">
    <path d="M 381.78 349.776 
C 383.651273 349.776 385.446156 349.032535 386.769345 347.709345 
C 388.092535 346.386156 388.836 344.591273 388.836 342.72 
C 388.836 340.848727 388.092535 339.053844 386.769345 337.730655 
C 385.446156 336.407465 383.651273 335.664 381.78 335.664 
C 379.908727 335.664 378.113844 336.407465 376.790655 337.730655 
C 375.467465 339.053844 374.724 340.848727 374.724 342.72 
C 374.724 344.591273 375.467465 346.386156 376.790655 347.709345 
C 378.113844 349.032535 379.908727 349.776 381.78 349.776 
z
" clip-path="url(#pff0c036380)" style="fill: #004700; opacity: 0.4"/>
   </g>
   <g id="patch_17">
    <path d="M 346.5 349.776 
C 348.371273 349.776 350.166156 349.032535 351.489345 347.709345 
C 352.812535 346.386156 353.556 344.591273 353.556 342.72 
C 353.556 340.848727 352.812535 339.053844 351.489345 337.730655 
C 350.166156 336.407465 348.371273 335.664 346.5 335.664 
C 344.628727 335.664 342.833844 336.407465 341.510655 337.730655 
C 340.187465 339.053844 339.444 340.848727 339.444 342.72 
C 339.444 344.591273 340.187465 346.386156 341.510655 347.709345 
C 342.833844 349.032535 344.628727 349.776 346.5 349.776 
z
" clip-path="url(#pff0c036380)" style="fill: #004c00; opacity: 0.4"/>
   </g>
   <g id="patch_18">
    <path d="M 311.22 349.776 
C 313.091273 349.776 314.886156 349.032535 316.209345 347.709345 
C 317.532535 346.386156 318.276 344.591273 318.276 342.72 
C 318.276 340.848727 317.532535 339.053844 316.209345 337.730655 
C 314.886156 336.407465 313.091273 335.664 311.22 335.664 
C 309.348727 335.664 307.553844 336.407465 306.230655 337.730655 
C 304.907465 339.053844 304.164 340.848727 304.164 342.72 
C 304.164 344.591273 304.907465 346.386156 306.230655 347.709345 
C 307.553844 349.032535 309.348727 349.776 311.22 349.776 
z
" clip-path="url(#pff0c036380)" style="fill: #005100; opacity: 0.4"/>
   </g>
   <g id="patch_19">
    <path d="M 275.94 349.776 
C 277.811273 349.776 279.606156 349.032535 280.929345 347.709345 
C 282.252535 346.386156 282.996 344.591273 282.996 342.72 
C 282.996 340.848727 282.252535 339.053844 280.929345 337.730655 
C 279.606156 336.407465 277.811273 335.664 275.94 335.664 
C 274.068727 335.664 272.273844 336.407465 270.950655 337.730655 
C 269.627465 339.053844 268.884 340.848727 268.884 342.72 
C 268.884 344.591273 269.627465 346.386156 270.950655 347.709345 
C 272.273844 349.032535 274.068727 349.776 275.94 349.776 
z
" clip-path="url(#pff0c036380)" style="fill: #005700; opacity: 0.4"/>
   </g>
   <g id="patch_20">
    <path d="M 275.94 385.056 
C 277.811273 385.056 279.606156 384.312535 280.929345 382.989345 
C 282.252535 381.666156 282.996 379.871273 282.996 378 
C 282.996 376.128727 282.252535 374.333844 280.929345 373.010655 
C 279.606156 371.687465 277.811273 370.944 275.94 370.944 
C 274.068727 370.944 272.273844 371.687465 270.950655 373.010655 
C 269.627465 374.333844 268.884 376.128727 268.884 378 
C 268.884 379.871273 269.627465 381.666156 270.950655 382.989345 
C 272.273844 384.312535 274.068727 385.056 275.94 385.056 
z
" clip-path="url(#pff0c036380)" style="fill: #005c00; opacity: 0.4"/>
   </g>
   <g id="patch_21">
    <path d="M 240.66 385.056 
C 242.531273 385.056 244.326156 384.312535 245.649345 382.989345 
C 246.972535 381.666156 247.716 379.871273 247.716 378 
C 247.716 376.128727 246.972535 374.333844 245.649345 373.010655 
C 244.326156 371.687465 242.531273 370.944 240.66 370.944 
C 238.788727 370.944 236.993844 371.687465 235.670655 373.010655 
C 234.347465 374.333844 233.604 376.128727 233.604 378 
C 233.604 379.871273 234.347465 381.666156 235.670655 382.989345 
C 236.993844 384.312535 238.788727 385.056 240.66 385.056 
z
" clip-path="url(#pff0c036380)" style="fill: #006200; opacity: 0.4"/>
   </g>
   <g id="patch_22">
    <path d="M 205.38 385.056 
C 207.251273 385.056 209.046156 384.312535 210.369345 382.989345 
C 211.692535 381.666156 212.436 379.871273 212.436 378 
C 212.436 376.128727 211.692535 374.333844 210.369345 373.010655 
C 209.046156 371.687465 207.251273 370.944 205.38 370.944 
C 203.508727 370.944 201.713844 371.687465 200.390655 373.010655 
C 199.067465 374.333844 198.324 376.128727 198.324 378 
C 198.324 379.871273 199.067465 381.666156 200.390655 382.989345 
C 201.713844 384.312535 203.508727 385.056 205.38 385.056 
z
" clip-path="url(#pff0c036380)" style="fill: #006700; opacity: 0.4"/>
   </g>
   <g id="patch_23">
    <path d="M 205.38 420.336 
C 207.251273 420.336 209.046156 419.592535 210.369345 418.269345 
C 211.692535 416.946156 212.436 415.151273 212.436 413.28 
C 212.436 411.408727 211.692535 409.613844 210.369345 408.290655 
C 209.046156 406.967465 207.251273 406.224 205.38 406.224 
C 203.508727 406.224 201.713844 406.967465 200.390655 408.290655 
C 199.067465 409.613844 198.324 411.408727 198.324 413.28 
C 198.324 415.151273 199.067465 416.946156 200.390655 418.269345 
C 201.713844 419.592535 203.508727 420.336 205.38 420.336 
z
" clip-path="url(#pff0c036380)" style="fill: #006d00; opacity: 0.4"/>
   </g>
   <g id="patch_24">
    <path d="M 170.1 420.336 
C 171.971273 420.336 173.766156 419.592535 175.089345 418.269345 
C 176.412535 416.946156 177.156 415.151273 177.156 413.28 
C 177.156 411.408727 176.412535 409.613844 175.089345 408.290655 
C 173.766156 406.967465 171.971273 406.224 170.1 406.224 
C 168.228727 406.224 166.433844 406.967465 165.110655 408.290655 
C 163.787465 409.613844 163.044 411.408727 163.044 413.28 
C 163.044 415.151273 163.787465 416.946156 165.110655 418.269345 
C 166.433844 419.592535 168.228727 420.336 170.1 420.336 
z
" clip-path="url(#pff0c036380)" style="fill: #007200; opacity: 0.4"/>
   </g>
   <g id="patch_25">
    <path d="M 170.1 385.056 
C 171.971273 385.056 173.766156 384.312535 175.089345 382.989345 
C 176.412535 381.666156 177.156 379.871273 177.156 378 
C 177.156 376.128727 176.412535 374.333844 175.089345 373.010655 
C 173.766156 371.687465 171.971273 370.944 170.1 370.944 
C 168.228727 370.944 166.433844 371.687465 165.110655 373.010655 
C 163.787465 374.333844 163.044 376.128727 163.044 378 
C 163.044 379.871273 163.787465 381.666156 165.110655 382.989345 
C 166.433844 384.312535 168.228727 385.056 170.1 385.056 
z
" clip-path="url(#pff0c036380)" style="fill: #007700; opacity: 0.4"/>
   </g>
   <g id="patch_26">
    <path d="M 170.1 349.776 
C 171.971273 349.776 173.766156 349.032535 175.089345 347.709345 
C 176.412535 346.386156 177.156 344.591273 177.156 342.72 
C 177.156 340.848727 176.412535 339.053844 175.089345 337.730655 
C 173.766156 336.407465 171.971273 335.664 170.1 335.664 
C 168.228727 335.664 166.433844 336.407465 165.110655 337.730655 
C 163.787465 339.053844 163.044 340.848727 163.044 342.72 
C 163.044 344.591273 163.787465 346.386156 165.110655 347.709345 
C 166.433844 349.032535 168.228727 349.776 170.1 349.776 
z
" clip-path="url(#pff0c036380)" style="fill: #007d00; opacity: 0.4"/>
   </g>
   <g id="patch_27">
    <path d="M 205.38 349.776 
C 207.251273 349.776 209.046156 349.032535 210.369345 347.709345 
C 211.692535 346.386156 212.436 344.591273 212.436 342.72 
C 212.436 340.848727 211.692535 339.053844 210.369345 337.730655 
C 209.046156 336.407465 207.251273 335.664 205.38 335.664 
C 203.508727 335.664 201.713844 336.407465 200.390655 337.730655 
C 199.067465 339.053844 198.324 340.848727 198.324 342.72 
C 198.324 344.591273 199.067465 346.386156 200.390655 347.709345 
C 201.713844 349.032535 203.508727 349.776 205.38 349.776 
z
" clip-path="url(#pff0c036380)" style="fill: #008200; opacity: 0.4"/>
   </g>
   <g id="patch_28">
    <path d="M 240.66 349.776 
C 242.531273 349.776 244.326156 349.032535 245.649345 347.709345 
C 246.972535 346.386156 247.716 344.591273 247.716 342.72 
C 247.716 340.848727 246.972535 339.053844 245.649345 337.730655 
C 244.326156 336.407465 242.531273 335.664 240.66 335.664 
C 238.788727 335.664 236.993844 336.407465 235.670655 337.730655 
C 234.347465 339.053844 233.604 340.848727 233.604 342.72 
C 233.604 344.591273 234.347465 346.386156 235.670655 347.709345 
C 236.993844 349.032535 238.788727 349.776 240.66 349.776 
z
" clip-path="url(#pff0c036380)" style="fill: #008800; opacity: 0.4"/>
   </g>
   <g id="patch_29">
    <path d="M 240.66 314.496 
C 242.531273 314.496 244.326156 313.752535 245.649345 312.429345 
C 246.972535 311.106156 247.716 309.311273 247.716 307.44 
C 247.716 305.568727 246.972535 303.773844 245.649345 302.450655 
C 244.326156 301.127465 242.531273 300.384 240.66 300.384 
C 238.788727 300.384 236.993844 301.127465 235.670655 302.450655 
C 234.347465 303.773844 233.604 305.568727 233.604 307.44 
C 233.604 309.311273 234.347465 311.106156 235.670655 312.429345 
C 236.993844 313.752535 238.788727 314.496 240.66 314.496 
z
" clip-path="url(#pff0c036380)" style="fill: #008d00; opacity: 0.4"/>
   </g>
   <g id="patch_30">
    <path d="M 240.66 279.216 
C 242.531273 279.216 244.326156 278.472535 245.649345 277.149345 
C 246.972535 275.826156 247.716 274.031273 247.716 272.16 
C 247.716 270.288727 246.972535 268.493844 245.649345 267.170655 
C 244.326156 265.847465 242.531273 265.104 240.66 265.104 
C 238.788727 265.104 236.993844 265.847465 235.670655 267.170655 
C 234.347465 268.493844 233.604 270.288727 233.604 272.16 
C 233.604 274.031273 234.347465 275.826156 235.670655 277.149345 
C 236.993844 278.472535 238.788727 279.216 240.66 279.216 
z
" clip-path="url(#pff0c036380)" style="fill: #009200; opacity: 0.4"/>
   </g>
   <g id="patch_31">
    <path d="M 240.66 243.936 
C 242.531273 243.936 244.326156 243.192535 245.649345 241.869345 
C 246.972535 240.546156 247.716 238.751273 247.716 236.88 
C 247.716 235.008727 246.972535 233.213844 245.649345 231.890655 
C 244.326156 230.567465 242.531273 229.824 240.66 229.824 
C 238.788727 229.824 236.993844 230.567465 235.670655 231.890655 
C 234.347465 233.213844 233.604 235.008727 233.604 236.88 
C 233.604 238.751273 234.347465 240.546156 235.670655 241.869345 
C 236.993844 243.192535 238.788727 243.936 240.66 243.936 
z
" clip-path="url(#pff0c036380)" style="fill: #009800; opacity: 0.4"/>
   </g>
   <g id="patch_32">
    <path d="M 275.94 243.936 
C 277.811273 243.936 279.606156 243.192535 280.929345 241.869345 
C 282.252535 240.546156 282.996 238.751273 282.996 236.88 
C 282.996 235.008727 282.252535 233.213844 280.929345 231.890655 
C 279.606156 230.567465 277.811273 229.824 275.94 229.824 
C 274.068727 229.824 272.273844 230.567465 270.950655 231.890655 
C 269.627465 233.213844 268.884 235.008727 268.884 236.88 
C 268.884 238.751273 269.627465 240.546156 270.950655 241.869345 
C 272.273844 243.192535 274.068727 243.936 275.94 243.936 
z
" clip-path="url(#pff0c036380)" style="fill: #009d00; opacity: 0.4"/>
   </g>
   <g id="patch_33">
    <path d="M 275.94 208.656 
C 277.811273 208.656 279.606156 207.912535 280.929345 206.589345 
C 282.252535 205.266156 282.996 203.471273 282.996 201.6 
C 282.996 199.728727 282.252535 197.933844 280.929345 196.610655 
C 279.606156 195.287465 277.811273 194.544 275.94 194.544 
C 274.068727 194.544 272.273844 195.287465 270.950655 196.610655 
C 269.627465 197.933844 268.884 199.728727 268.884 201.6 
C 268.884 203.471273 269.627465 205.266156 270.950655 206.589345 
C 272.273844 207.912535 274.068727 208.656 275.94 208.656 
z
" clip-path="url(#pff0c036380)" style="fill: #00a300; opacity: 0.4"/>
   </g>
   <g id="patch_34">
    <path d="M 275.94 173.376 
C 277.811273 173.376 279.606156 172.632535 280.929345 171.309345 
C 282.252535 169.986156 282.996 168.191273 282.996 166.32 
C 282.996 164.448727 282.252535 162.653844 280.929345 161.330655 
C 279.606156 160.007465 277.811273 159.264 275.94 159.264 
C 274.068727 159.264 272.273844 160.007465 270.950655 161.330655 
C 269.627465 162.653844 268.884 164.448727 268.884 166.32 
C 268.884 168.191273 269.627465 169.986156 270.950655 171.309345 
C 272.273844 172.632535 274.068727 173.376 275.94 173.376 
z
" clip-path="url(#pff0c036380)" style="fill: #00a800; opacity: 0.4"/>
   </g>
   <g id="patch_35">
    <path d="M 240.66 173.376 
C 242.531273 173.376 244.326156 172.632535 245.649345 171.309345 
C 246.972535 169.986156 247.716 168.191273 247.716 166.32 
C 247.716 164.448727 246.972535 162.653844 245.649345 161.330655 
C 244.326156 160.007465 242.531273 159.264 240.66 159.264 
C 238.788727 159.264 236.993844 160.007465 235.670655 161.330655 
C 234.347465 162.653844 233.604 164.448727 233.604 166.32 
C 233.604 168.191273 234.347465 169.986156 235.670655 171.309345 
C 236.993844 172.632535 238.788727 173.376 240.66 173.376 
z
" clip-path="url(#pff0c036380)" style="fill: #00ae00; opacity: 0.4"/>
   </g>
   <g id="patch_36">
    <path d="M 240.66 208.656 
C 242.531273 208.656 244.326156 207.912535 245.649345 206.589345 
C 246.972535 205.266156 247.716 203.471273 247.716 201.6 
C 247.716 199.728727 246.972535 197.933844 245.649345 196.610655 
C 244.326156 195.287465 242.531273 194.544 240.66 194.544 
C 238.788727 194.544 236.993844 195.287465 235.670655 196.610655 
C 234.347465 197.933844 233.604 199.728727 233.604 201.6 
C 233.604 203.471273 234.347465 205.266156 235.670655 206.589345 
C 236.993844 207.912535 238.788727 208.656 240.66 208.656 
z
" clip-path="url(#pff0c036380)" style="fill: #00b300; opacity: 0.4"/>
   </g>
   <g id="patch_37">
    <path d="M 205.38 208.656 
C 207.251273 208.656 209.046156 207.912535 210.369345 206.589345 
C 211.692535 205.266156 212.436 203.471273 212.436 201.6 
C 212.436 199.728727 211.692535 197.933844 210.369345 196.610655 
C 209.046156 195.287465 207.251273 194.544 205.38 194.544 
C 203.508727 194.544 201.713844 195.287465 200.390655 196.610655 
C 199.067465 197.933844 198.324 199.728727 198.324 201.6 
C 198.324 203.471273 199.067465 205.266156 200.390655 206.589345 
C 201.713844 207.912535 203.508727 208.656 205.38 208.656 
z
" clip-path="url(#pff0c036380)" style="fill: #00b800; opacity: 0.4"/>
   </g>
   <g id="patch_38">
    <path d="M 170.1 208.656 
C 171.971273 208.656 173.766156 207.912535 175.089345 206.589345 
C 176.412535 205.266156 177.156 203.471273 177.156 201.6 
C 177.156 199.728727 176.412535 197.933844 175.089345 196.610655 
C 173.766156 195.287465 171.971273 194.544 170.1 194.544 
C 168.228727 194.544 166.433844 195.287465 165.110655 196.610655 
C 163.787465 197.933844 163.044 199.728727 163.044 201.6 
C 163.044 203.471273 163.787465 205.266156 165.110655 206.589345 
C 166.433844 207.912535 168.228727 208.656 170.1 208.656 
z
" clip-path="url(#pff0c036380)" style="fill: #00be00; opacity: 0.4"/>
   </g>
   <g id="patch_39">
    <path d="M 170.1 243.936 
C 171.971273 243.936 173.766156 243.192535 175.089345 241.869345 
C 176.412535 240.546156 177.156 238.751273 177.156 236.88 
C 177.156 235.008727 176.412535 233.213844 175.089345 231.890655 
C 173.766156 230.567465 171.971273 229.824 170.1 229.824 
C 168.228727 229.824 166.433844 230.567465 165.110655 231.890655 
C 163.787465 233.213844 163.044 235.008727 163.044 236.88 
C 163.044 238.751273 163.787465 240.546156 165.110655 241.869345 
C 166.433844 243.192535 168.228727 243.936 170.1 243.936 
z
" clip-path="url(#pff0c036380)" style="fill: #00c300; opacity: 0.4"/>
   </g>
   <g id="patch_40">
    <path d="M 134.82 243.936 
C 136.691273 243.936 138.486156 243.192535 139.809345 241.869345 
C 141.132535 240.546156 141.876 238.751273 141.876 236.88 
C 141.876 235.008727 141.132535 233.213844 139.809345 231.890655 
C 138.486156 230.567465 136.691273 229.824 134.82 229.824 
C 132.948727 229.824 131.153844 230.567465 129.830655 231.890655 
C 128.507465 233.213844 127.764 235.008727 127.764 236.88 
C 127.764 238.751273 128.507465 240.546156 129.830655 241.869345 
C 131.153844 243.192535 132.948727 243.936 134.82 243.936 
z
" clip-path="url(#pff0c036380)" style="fill: #00c900; opacity: 0.4"/>
   </g>
   <g id="patch_41">
    <path d="M 134.82 279.216 
C 136.691273 279.216 138.486156 278.472535 139.809345 277.149345 
C 141.132535 275.826156 141.876 274.031273 141.876 272.16 
C 141.876 270.288727 141.132535 268.493844 139.809345 267.170655 
C 138.486156 265.847465 136.691273 265.104 134.82 265.104 
C 132.948727 265.104 131.153844 265.847465 129.830655 267.170655 
C 128.507465 268.493844 127.764 270.288727 127.764 272.16 
C 127.764 274.031273 128.507465 275.826156 129.830655 277.149345 
C 131.153844 278.472535 132.948727 279.216 134.82 279.216 
z
" clip-path="url(#pff0c036380)" style="fill: #00ce00; opacity: 0.4"/>
   </g>
   <g id="patch_42">
    <path d="M 99.54 279.216 
C 101.411273 279.216 103.206156 278.472535 104.529345 277.149345 
C 105.852535 275.826156 106.596 274.031273 106.596 272.16 
C 106.596 270.288727 105.852535 268.493844 104.529345 267.170655 
C 103.206156 265.847465 101.411273 265.104 99.54 265.104 
C 97.668727 265.104 95.873844 265.847465 94.550655 267.170655 
C 93.227465 268.493844 92.484 270.288727 92.484 272.16 
C 92.484 274.031273 93.227465 275.826156 94.550655 277.149345 
C 95.873844 278.472535 97.668727 279.216 99.54 279.216 
z
" clip-path="url(#pff0c036380)" style="fill: #00d400; opacity: 0.4"/>
   </g>
   <g id="patch_43">
    <path d="M 99.54 314.496 
C 101.411273 314.496 103.206156 313.752535 104.529345 312.429345 
C 105.852535 311.106156 106.596 309.311273 106.596 307.44 
C 106.596 305.568727 105.852535 303.773844 104.529345 302.450655 
C 103.206156 301.127465 101.411273 300.384 99.54 300.384 
C 97.668727 300.384 95.873844 301.127465 94.550655 302.450655 
C 93.227465 303.773844 92.484 305.568727 92.484 307.44 
C 92.484 309.311273 93.227465 311.106156 94.550655 312.429345 
C 95.873844 313.752535 97.668727 314.496 99.54 314.496 
z
" clip-path="url(#pff0c036380)" style="fill: #00d900; opacity: 0.4"/>
   </g>
   <g id="patch_44">
    <path d="M 134.82 314.496 
C 136.691273 314.496 138.486156 313.752535 139.809345 312.429345 
C 141.132535 311.106156 141.876 309.311273 141.876 307.44 
C 141.876 305.568727 141.132535 303.773844 139.809345 302.450655 
C 138.486156 301.127465 136.691273 300.384 134.82 300.384 
C 132.948727 300.384 131.153844 301.127465 129.830655 302.450655 
C 128.507465 303.773844 127.764 305.568727 127.764 307.44 
C 127.764 309.311273 128.507465 311.106156 129.830655 312.429345 
C 131.153844 313.752535 132.948727 314.496 134.82 314.496 
z
" clip-path="url(#pff0c036380)" style="fill: #00de00; opacity: 0.4"/>
   </g>
   <g id="patch_45">
    <path d="M 134.82 349.776 
C 136.691273 349.776 138.486156 349.032535 139.809345 347.709345 
C 141.132535 346.386156 141.876 344.591273 141.876 342.72 
C 141.876 340.848727 141.132535 339.053844 139.809345 337.730655 
C 138.486156 336.407465 136.691273 335.664 134.82 335.664 
C 132.948727 335.664 131.153844 336.407465 129.830655 337.730655 
C 128.507465 339.053844 127.764 340.848727 127.764 342.72 
C 127.764 344.591273 128.507465 346.386156 129.830655 347.709345 
C 131.153844 349.032535 132.948727 349.776 134.82 349.776 
z
" clip-path="url(#pff0c036380)" style="fill: #00e400; opacity: 0.4"/>
   </g>
   <g id="patch_46">
    <path d="M 99.54 349.776 
C 101.411273 349.776 103.206156 349.032535 104.529345 347.709345 
C 105.852535 346.386156 106.596 344.591273 106.596 342.72 
C 106.596 340.848727 105.852535 339.053844 104.529345 337.730655 
C 103.206156 336.407465 101.411273 335.664 99.54 335.664 
C 97.668727 335.664 95.873844 336.407465 94.550655 337.730655 
C 93.227465 339.053844 92.484 340.848727 92.484 342.72 
C 92.484 344.591273 93.227465 346.386156 94.550655 347.709345 
C 95.873844 349.032535 97.668727 349.776 99.54 349.776 
z
" clip-path="url(#pff0c036380)" style="fill: #00e900; opacity: 0.4"/>
   </g>
   <g id="patch_47">
    <path d="M 99.54 385.056 
C 101.411273 385.056 103.206156 384.312535 104.529345 382.989345 
C 105.852535 381.666156 106.596 379.871273 106.596 378 
C 106.596 376.128727 105.852535 374.333844 104.529345 373.010655 
C 103.206156 371.687465 101.411273 370.944 99.54 370.944 
C 97.668727 370.944 95.873844 371.687465 94.550655 373.010655 
C 93.227465 374.333844 92.484 376.128727 92.484 378 
C 92.484 379.871273 93.227465 381.666156 94.550655 382.989345 
C 95.873844 384.312535 97.668727 385.056 99.54 385.056 
z
" clip-path="url(#pff0c036380)" style="fill: #00ef00; opacity: 0.4"/>
   </g>
   <g id="patch_48">
    <path d="M 134.82 385.056 
C 136.691273 385.056 138.486156 384.312535 139.809345 382.989345 
C 141.132535 381.666156 141.876 379.871273 141.876 378 
C 141.876 376.128727 141.132535 374.333844 139.809345 373.010655 
C 138.486156 371.687465 136.691273 370.944 134.82 370.944 
C 132.948727 370.944 131.153844 371.687465 129.830655 373.010655 
C 128.507465 374.333844 127.764 376.128727 127.764 378 
C 127.764 379.871273 128.507465 381.666156 129.830655 382.989345 
C 131.153844 384.312535 132.948727 385.056 134.82 385.056 
z
" clip-path="url(#pff0c036380)" style="fill: #00f400; opacity: 0.4"/>
   </g>
   <g id="patch_49">
    <path d="M 134.82 420.336 
C 136.691273 420.336 138.486156 419.592535 139.809345 418.269345 
C 141.132535 416.946156 141.876 415.151273 141.876 413.28 
C 141.876 411.408727 141.132535 409.613844 139.809345 408.290655 
C 138.486156 406.967465 136.691273 406.224 134.82 406.224 
C 132.948727 406.224 131.153844 406.967465 129.830655 408.290655 
C 128.507465 409.613844 127.764 411.408727 127.764 413.28 
C 127.764 415.151273 128.507465 416.946156 129.830655 418.269345 
C 131.153844 419.592535 132.948727 420.336 134.82 420.336 
z
" clip-path="url(#pff0c036380)" style="fill: #00fa00; opacity: 0.4"/>
   </g>
   <g id="line2d_1">
    <path d="M 81.9 430.92 
L 117.18 430.92 
" clip-path="url(#pff0c036380)" style="fill: none; stroke: #000000; stroke-width: 1.5; stroke-linecap: square"/>
   </g>
   <g id="line2d_2">
    <path d="M 117.18 395.64 
L 81.9 395.64 
" clip-path="url(#pff0c036380)" style="fill: none; stroke: #000000; stroke-width: 1.5; stroke-linecap: square"/>
   </g>
   <g id="line2d_3">
    <path d="M 81.9 395.64 
L 81.9 430.92 
" clip-path="url(#pff0c036380)" style="fill: none; stroke: #000000; stroke-width: 1.5; stroke-linecap: square"/>
   </g>
   <g id="line2d_4">
    <path d="M 152.46 430.92 
L 152.46 395.64 
" clip-path="url(#pff0c036380)" style="fill: none; stroke: #000000; stroke-width: 1.5; stroke-linecap: square"/>
   </g>
   <g id="line2d_5">
    <path d="M 152.46 430.92 
L 187.74 430.92 
" clip-path="url(#pff0c036380)" style="fill: none; stroke: #000000; stroke-width: 1.5; stroke-linecap: square"/>
   </g>
   <g id="line2d_6">
    <path d="M 152.46 395.64 
L 152.46 430.92 
" clip-path="url(#pff0c036380)" style="fill: none; stroke: #000000; stroke-width: 1.5; stroke-linecap: square"/>
   </g>
   <g id="line2d_7">
    <path d="M 187.74 430.92 
L 223.02 430.92 
" clip-path="url(#pff0c036380)" style="fill: none; stroke: #000000; stroke-width: 1.5; stroke-linecap: square"/>
   </g>
   <g id="line2d_8">
    <path d="M 223.02 430.92 
L 223.02 395.64 
" clip-path="url(#pff0c036380)" style="fill: none; stroke: #000000; stroke-width: 1.5; stroke-linecap: square"/>
   </g>
   <g id="line2d_9">
    <path d="M 223.02 430.92 
L 258.3 430.92 
" clip-path="url(#pff0c036380)" style="fill: none; stroke: #000000; stroke-width: 1.5; stroke-linecap: square"/>
   </g>
   <g id="line2d_10">
    <path d="M 258.3 395.64 
L 223.02 395.64 
" clip-path="url(#pff0c036380)" style="fill: none; stroke: #000000; stroke-width: 1.5; stroke-linecap: square"/>
   </g>
   <g id="line2d_11">
    <path d="M 223.02 395.64 
L 223.02 430.92 
" clip-path="url(#pff0c036380)" style="fill: none; stroke: #000000; stroke-width: 1.5; stroke-linecap: square"/>
   </g>
   <g id="line2d_12">
    <path d="M 258.3 430.92 
L 293.58 430.92 
" clip-path="url(#pff0c036380)" style="fill: none; stroke: #000000; stroke-width: 1.5; stroke-linecap: square"/>
   </g>
   <g id="line2d_13">
    <path d="M 293.58 395.64 
L 258.3 395.64 
" clip-path="url(#pff0c036380)" style="fill: none; stroke: #000000; stroke-width: 1.5; stroke-linecap: square"/>
   </g>
   <g id="line2d_14">
    <path d="M 293.58 430.92 
L 328.86 430.92 
" clip-path="url(#pff0c036380)" style="fill: none; stroke: #000000; stroke-width: 1.5; stroke-linecap: square"/>
   </g>
   <g id="line2d_15">
    <path d="M 328.86 430.92 
L 364.14 430.92 
" clip-path="url(#pff0c036380)" style="fill: none; stroke: #000000; stroke-width: 1.5; stroke-linecap: square"/>
   </g>
   <g id="line2d_16">
    <path d="M 364.14 395.64 
L 328.86 395.64 
" clip-path="url(#pff0c036380)" style="fill: none; stroke: #000000; stroke-width: 1.5; stroke-linecap: square"/>
   </g>
   <g id="line2d_17">
    <path d="M 364.14 430.92 
L 399.42 430.92 
" clip-path="url(#pff0c036380)" style="fill: none; stroke: #000000; stroke-width: 1.5; stroke-linecap: square"/>
   </g>
   <g id="line2d_18">
    <path d="M 399.42 430.92 
L 434.7 430.92 
" clip-path="url(#pff0c036380)" style="fill: none; stroke: #000000; stroke-width: 1.5; stroke-linecap: square"/>
   </g>
   <g id="line2d_19">
    <path d="M 434.7 430.92 
L 434.7 395.64 
" clip-path="url(#pff0c036380)" style="fill: none; stroke: #000000; stroke-width: 1.5; stroke-linecap: square"/>
   </g>
   <g id="line2d_20">
    <path d="M 434.7 395.64 
L 399.42 395.64 
" clip-path="url(#pff0c036380)" style="fill: none; stroke: #000000; stroke-width: 1.5; stroke-linecap: square"/>
   </g>
   <g id="line2d_21">
    <path d="M 81.9 395.64 
L 117.18 395.64 
" clip-path="url(#pff0c036380)" style="fill: none; stroke: #000000; stroke-width: 1.5; stroke-linecap: square"/>
   </g>
   <g id="line2d_22">
    <path d="M 81.9 360.36 
L 81.9 395.64 
" clip-path="url(#pff0c036380)" style="fill: none; stroke: #000000; stroke-width: 1.5; stroke-linecap: square"/>
   </g>
   <g id="line2d_23">
    <path d="M 152.46 395.64 
L 152.46 360.36 
" clip-path="url(#pff0c036380)" style="fill: none; stroke: #000000; stroke-width: 1.5; stroke-linecap: square"/>
   </g>
   <g id="line2d_24">
    <path d="M 152.46 360.36 
L 117.18 360.36 
" clip-path="url(#pff0c036380)" style="fill: none; stroke: #000000; stroke-width: 1.5; stroke-linecap: square"/>
   </g>
   <g id="line2d_25">
    <path d="M 187.74 395.64 
L 187.74 360.36 
" clip-path="url(#pff0c036380)" style="fill: none; stroke: #000000; stroke-width: 1.5; stroke-linecap: square"/>
   </g>
   <g id="line2d_26">
    <path d="M 152.46 360.36 
L 152.46 395.64 
" clip-path="url(#pff0c036380)" style="fill: none; stroke: #000000; stroke-width: 1.5; stroke-linecap: square"/>
   </g>
   <g id="line2d_27">
    <path d="M 223.02 360.36 
L 187.74 360.36 
" clip-path="url(#pff0c036380)" style="fill: none; stroke: #000000; stroke-width: 1.5; stroke-linecap: square"/>
   </g>
   <g id="line2d_28">
    <path d="M 187.74 360.36 
L 187.74 395.64 
" clip-path="url(#pff0c036380)" style="fill: none; stroke: #000000; stroke-width: 1.5; stroke-linecap: square"/>
   </g>
   <g id="line2d_29">
    <path d="M 223.02 395.64 
L 258.3 395.64 
" clip-path="url(#pff0c036380)" style="fill: none; stroke: #000000; stroke-width: 1.5; stroke-linecap: square"/>
   </g>
   <g id="line2d_30">
    <path d="M 258.3 360.36 
L 223.02 360.36 
" clip-path="url(#pff0c036380)" style="fill: none; stroke: #000000; stroke-width: 1.5; stroke-linecap: square"/>
   </g>
   <g id="line2d_31">
    <path d="M 258.3 395.64 
L 293.58 395.64 
" clip-path="url(#pff0c036380)" style="fill: none; stroke: #000000; stroke-width: 1.5; stroke-linecap: square"/>
   </g>
   <g id="line2d_32">
    <path d="M 293.58 395.64 
L 293.58 360.36 
" clip-path="url(#pff0c036380)" style="fill: none; stroke: #000000; stroke-width: 1.5; stroke-linecap: square"/>
   </g>
   <g id="line2d_33">
    <path d="M 328.86 360.36 
L 293.58 360.36 
" clip-path="url(#pff0c036380)" style="fill: none; stroke: #000000; stroke-width: 1.5; stroke-linecap: square"/>
   </g>
   <g id="line2d_34">
    <path d="M 293.58 360.36 
L 293.58 395.64 
" clip-path="url(#pff0c036380)" style="fill: none; stroke: #000000; stroke-width: 1.5; stroke-linecap: square"/>
   </g>
   <g id="line2d_35">
    <path d="M 328.86 395.64 
L 364.14 395.64 
" clip-path="url(#pff0c036380)" style="fill: none; stroke: #000000; stroke-width: 1.5; stroke-linecap: square"/>
   </g>
   <g id="line2d_36">
    <path d="M 364.14 395.64 
L 364.14 360.36 
" clip-path="url(#pff0c036380)" style="fill: none; stroke: #000000; stroke-width: 1.5; stroke-linecap: square"/>
   </g>
   <g id="line2d_37">
    <path d="M 364.14 360.36 
L 328.86 360.36 
" clip-path="url(#pff0c036380)" style="fill: none; stroke: #000000; stroke-width: 1.5; stroke-linecap: square"/>
   </g>
   <g id="line2d_38">
    <path d="M 399.42 360.36 
L 364.14 360.36 
" clip-path="url(#pff0c036380)" style="fill: none; stroke: #000000; stroke-width: 1.5; stroke-linecap: square"/>
   </g>
   <g id="line2d_39">
    <path d="M 364.14 360.36 
L 364.14 395.64 
" clip-path="url(#pff0c036380)" style="fill: none; stroke: #000000; stroke-width: 1.5; stroke-linecap: square"/>
   </g>
   <g id="line2d_40">
    <path d="M 399.42 395.64 
L 434.7 395.64 
" clip-path="url(#pff0c036380)" style="fill: none; stroke: #000000; stroke-width: 1.5; stroke-linecap: square"/>
   </g>
   <g id="line2d_41">
    <path d="M 434.7 395.64 
L 434.7 360.36 
" clip-path="url(#pff0c036380)" style="fill: none; stroke: #000000; stroke-width: 1.5; stroke-linecap: square"/>
   </g>
   <g id="line2d_42">
    <path d="M 117.18 325.08 
L 81.9 325.08 
" clip-path="url(#pff0c036380)" style="fill: none; stroke: #000000; stroke-width: 1.5; stroke-linecap: square"/>
   </g>
   <g id="line2d_43">
    <path d="M 81.9 325.08 
L 81.9 360.36 
" clip-path="url(#pff0c036380)" style="fill: none; stroke: #000000; stroke-width: 1.5; stroke-linecap: square"/>
   </g>
   <g id="line2d_44">
    <path d="M 117.18 360.36 
L 152.46 360.36 
" clip-path="url(#pff0c036380)" style="fill: none; stroke: #000000; stroke-width: 1.5; stroke-linecap: square"/>
   </g>
   <g id="line2d_45">
    <path d="M 152.46 360.36 
L 152.46 325.08 
" clip-path="url(#pff0c036380)" style="fill: none; stroke: #000000; stroke-width: 1.5; stroke-linecap: square"/>
   </g>
   <g id="line2d_46">
    <path d="M 152.46 325.08 
L 152.46 360.36 
" clip-path="url(#pff0c036380)" style="fill: none; stroke: #000000; stroke-width: 1.5; stroke-linecap: square"/>
   </g>
   <g id="line2d_47">
    <path d="M 187.74 360.36 
L 223.02 360.36 
" clip-path="url(#pff0c036380)" style="fill: none; stroke: #000000; stroke-width: 1.5; stroke-linecap: square"/>
   </g>
   <g id="line2d_48">
    <path d="M 223.02 325.08 
L 187.74 325.08 
" clip-path="url(#pff0c036380)" style="fill: none; stroke: #000000; stroke-width: 1.5; stroke-linecap: square"/>
   </g>
   <g id="line2d_49">
    <path d="M 223.02 360.36 
L 258.3 360.36 
" clip-path="url(#pff0c036380)" style="fill: none; stroke: #000000; stroke-width: 1.5; stroke-linecap: square"/>
   </g>
   <g id="line2d_50">
    <path d="M 258.3 360.36 
L 258.3 325.08 
" clip-path="url(#pff0c036380)" style="fill: none; stroke: #000000; stroke-width: 1.5; stroke-linecap: square"/>
   </g>
   <g id="line2d_51">
    <path d="M 293.58 325.08 
L 258.3 325.08 
" clip-path="url(#pff0c036380)" style="fill: none; stroke: #000000; stroke-width: 1.5; stroke-linecap: square"/>
   </g>
   <g id="line2d_52">
    <path d="M 258.3 325.08 
L 258.3 360.36 
" clip-path="url(#pff0c036380)" style="fill: none; stroke: #000000; stroke-width: 1.5; stroke-linecap: square"/>
   </g>
   <g id="line2d_53">
    <path d="M 293.58 360.36 
L 328.86 360.36 
" clip-path="url(#pff0c036380)" style="fill: none; stroke: #000000; stroke-width: 1.5; stroke-linecap: square"/>
   </g>
   <g id="line2d_54">
    <path d="M 328.86 325.08 
L 293.58 325.08 
" clip-path="url(#pff0c036380)" style="fill: none; stroke: #000000; stroke-width: 1.5; stroke-linecap: square"/>
   </g>
   <g id="line2d_55">
    <path d="M 328.86 360.36 
L 364.14 360.36 
" clip-path="url(#pff0c036380)" style="fill: none; stroke: #000000; stroke-width: 1.5; stroke-linecap: square"/>
   </g>
   <g id="line2d_56">
    <path d="M 364.14 325.08 
L 328.86 325.08 
" clip-path="url(#pff0c036380)" style="fill: none; stroke: #000000; stroke-width: 1.5; stroke-linecap: square"/>
   </g>
   <g id="line2d_57">
    <path d="M 364.14 360.36 
L 399.42 360.36 
" clip-path="url(#pff0c036380)" style="fill: none; stroke: #000000; stroke-width: 1.5; stroke-linecap: square"/>
   </g>
   <g id="line2d_58">
    <path d="M 399.42 325.08 
L 364.14 325.08 
" clip-path="url(#pff0c036380)" style="fill: none; stroke: #000000; stroke-width: 1.5; stroke-linecap: square"/>
   </g>
   <g id="line2d_59">
    <path d="M 434.7 360.36 
L 434.7 325.08 
" clip-path="url(#pff0c036380)" style="fill: none; stroke: #000000; stroke-width: 1.5; stroke-linecap: square"/>
   </g>
   <g id="line2d_60">
    <path d="M 81.9 325.08 
L 117.18 325.08 
" clip-path="url(#pff0c036380)" style="fill: none; stroke: #000000; stroke-width: 1.5; stroke-linecap: square"/>
   </g>
   <g id="line2d_61">
    <path d="M 81.9 289.8 
L 81.9 325.08 
" clip-path="url(#pff0c036380)" style="fill: none; stroke: #000000; stroke-width: 1.5; stroke-linecap: square"/>
   </g>
   <g id="line2d_62">
    <path d="M 152.46 325.08 
L 152.46 289.8 
" clip-path="url(#pff0c036380)" style="fill: none; stroke: #000000; stroke-width: 1.5; stroke-linecap: square"/>
   </g>
   <g id="line2d_63">
    <path d="M 152.46 289.8 
L 117.18 289.8 
" clip-path="url(#pff0c036380)" style="fill: none; stroke: #000000; stroke-width: 1.5; stroke-linecap: square"/>
   </g>
   <g id="line2d_64">
    <path d="M 187.74 289.8 
L 152.46 289.8 
" clip-path="url(#pff0c036380)" style="fill: none; stroke: #000000; stroke-width: 1.5; stroke-linecap: square"/>
   </g>
   <g id="line2d_65">
    <path d="M 152.46 289.8 
L 152.46 325.08 
" clip-path="url(#pff0c036380)" style="fill: none; stroke: #000000; stroke-width: 1.5; stroke-linecap: square"/>
   </g>
   <g id="line2d_66">
    <path d="M 187.74 325.08 
L 223.02 325.08 
" clip-path="url(#pff0c036380)" style="fill: none; stroke: #000000; stroke-width: 1.5; stroke-linecap: square"/>
   </g>
   <g id="line2d_67">
    <path d="M 223.02 325.08 
L 223.02 289.8 
" clip-path="url(#pff0c036380)" style="fill: none; stroke: #000000; stroke-width: 1.5; stroke-linecap: square"/>
   </g>
   <g id="line2d_68">
    <path d="M 258.3 325.08 
L 258.3 289.8 
" clip-path="url(#pff0c036380)" style="fill: none; stroke: #000000; stroke-width: 1.5; stroke-linecap: square"/>
   </g>
   <g id="line2d_69">
    <path d="M 223.02 289.8 
L 223.02 325.08 
" clip-path="url(#pff0c036380)" style="fill: none; stroke: #000000; stroke-width: 1.5; stroke-linecap: square"/>
   </g>
   <g id="line2d_70">
    <path d="M 258.3 325.08 
L 293.58 325.08 
" clip-path="url(#pff0c036380)" style="fill: none; stroke: #000000; stroke-width: 1.5; stroke-linecap: square"/>
   </g>
   <g id="line2d_71">
    <path d="M 293.58 325.08 
L 293.58 289.8 
" clip-path="url(#pff0c036380)" style="fill: none; stroke: #000000; stroke-width: 1.5; stroke-linecap: square"/>
   </g>
   <g id="line2d_72">
    <path d="M 258.3 289.8 
L 258.3 325.08 
" clip-path="url(#pff0c036380)" style="fill: none; stroke: #000000; stroke-width: 1.5; stroke-linecap: square"/>
   </g>
   <g id="line2d_73">
    <path d="M 293.58 325.08 
L 328.86 325.08 
" clip-path="url(#pff0c036380)" style="fill: none; stroke: #000000; stroke-width: 1.5; stroke-linecap: square"/>
   </g>
   <g id="line2d_74">
    <path d="M 293.58 289.8 
L 293.58 325.08 
" clip-path="url(#pff0c036380)" style="fill: none; stroke: #000000; stroke-width: 1.5; stroke-linecap: square"/>
   </g>
   <g id="line2d_75">
    <path d="M 328.86 325.08 
L 364.14 325.08 
" clip-path="url(#pff0c036380)" style="fill: none; stroke: #000000; stroke-width: 1.5; stroke-linecap: square"/>
   </g>
   <g id="line2d_76">
    <path d="M 364.14 289.8 
L 328.86 289.8 
" clip-path="url(#pff0c036380)" style="fill: none; stroke: #000000; stroke-width: 1.5; stroke-linecap: square"/>
   </g>
   <g id="line2d_77">
    <path d="M 364.14 325.08 
L 399.42 325.08 
" clip-path="url(#pff0c036380)" style="fill: none; stroke: #000000; stroke-width: 1.5; stroke-linecap: square"/>
   </g>
   <g id="line2d_78">
    <path d="M 399.42 289.8 
L 364.14 289.8 
" clip-path="url(#pff0c036380)" style="fill: none; stroke: #000000; stroke-width: 1.5; stroke-linecap: square"/>
   </g>
   <g id="line2d_79">
    <path d="M 434.7 325.08 
L 434.7 289.8 
" clip-path="url(#pff0c036380)" style="fill: none; stroke: #000000; stroke-width: 1.5; stroke-linecap: square"/>
   </g>
   <g id="line2d_80">
    <path d="M 434.7 289.8 
L 399.42 289.8 
" clip-path="url(#pff0c036380)" style="fill: none; stroke: #000000; stroke-width: 1.5; stroke-linecap: square"/>
   </g>
   <g id="line2d_81">
    <path d="M 117.18 254.52 
L 81.9 254.52 
" clip-path="url(#pff0c036380)" style="fill: none; stroke: #000000; stroke-width: 1.5; stroke-linecap: square"/>
   </g>
   <g id="line2d_82">
    <path d="M 81.9 254.52 
L 81.9 289.8 
" clip-path="url(#pff0c036380)" style="fill: none; stroke: #000000; stroke-width: 1.5; stroke-linecap: square"/>
   </g>
   <g id="line2d_83">
    <path d="M 117.18 289.8 
L 152.46 289.8 
" clip-path="url(#pff0c036380)" style="fill: none; stroke: #000000; stroke-width: 1.5; stroke-linecap: square"/>
   </g>
   <g id="line2d_84">
    <path d="M 152.46 289.8 
L 152.46 254.52 
" clip-path="url(#pff0c036380)" style="fill: none; stroke: #000000; stroke-width: 1.5; stroke-linecap: square"/>
   </g>
   <g id="line2d_85">
    <path d="M 152.46 289.8 
L 187.74 289.8 
" clip-path="url(#pff0c036380)" style="fill: none; stroke: #000000; stroke-width: 1.5; stroke-linecap: square"/>
   </g>
   <g id="line2d_86">
    <path d="M 187.74 254.52 
L 152.46 254.52 
" clip-path="url(#pff0c036380)" style="fill: none; stroke: #000000; stroke-width: 1.5; stroke-linecap: square"/>
   </g>
   <g id="line2d_87">
    <path d="M 152.46 254.52 
L 152.46 289.8 
" clip-path="url(#pff0c036380)" style="fill: none; stroke: #000000; stroke-width: 1.5; stroke-linecap: square"/>
   </g>
   <g id="line2d_88">
    <path d="M 223.02 289.8 
L 223.02 254.52 
" clip-path="url(#pff0c036380)" style="fill: none; stroke: #000000; stroke-width: 1.5; stroke-linecap: square"/>
   </g>
   <g id="line2d_89">
    <path d="M 258.3 289.8 
L 258.3 254.52 
" clip-path="url(#pff0c036380)" style="fill: none; stroke: #000000; stroke-width: 1.5; stroke-linecap: square"/>
   </g>
   <g id="line2d_90">
    <path d="M 223.02 254.52 
L 223.02 289.8 
" clip-path="url(#pff0c036380)" style="fill: none; stroke: #000000; stroke-width: 1.5; stroke-linecap: square"/>
   </g>
   <g id="line2d_91">
    <path d="M 293.58 254.52 
L 258.3 254.52 
" clip-path="url(#pff0c036380)" style="fill: none; stroke: #000000; stroke-width: 1.5; stroke-linecap: square"/>
   </g>
   <g id="line2d_92">
    <path d="M 258.3 254.52 
L 258.3 289.8 
" clip-path="url(#pff0c036380)" style="fill: none; stroke: #000000; stroke-width: 1.5; stroke-linecap: square"/>
   </g>
   <g id="line2d_93">
    <path d="M 328.86 289.8 
L 328.86 254.52 
" clip-path="url(#pff0c036380)" style="fill: none; stroke: #000000; stroke-width: 1.5; stroke-linecap: square"/>
   </g>
   <g id="line2d_94">
    <path d="M 328.86 289.8 
L 364.14 289.8 
" clip-path="url(#pff0c036380)" style="fill: none; stroke: #000000; stroke-width: 1.5; stroke-linecap: square"/>
   </g>
   <g id="line2d_95">
    <path d="M 328.86 254.52 
L 328.86 289.8 
" clip-path="url(#pff0c036380)" style="fill: none; stroke: #000000; stroke-width: 1.5; stroke-linecap: square"/>
   </g>
   <g id="line2d_96">
    <path d="M 364.14 289.8 
L 399.42 289.8 
" clip-path="url(#pff0c036380)" style="fill: none; stroke: #000000; stroke-width: 1.5; stroke-linecap: square"/>
   </g>
   <g id="line2d_97">
    <path d="M 399.42 289.8 
L 434.7 289.8 
" clip-path="url(#pff0c036380)" style="fill: none; stroke: #000000; stroke-width: 1.5; stroke-linecap: square"/>
   </g>
   <g id="line2d_98">
    <path d="M 434.7 289.8 
L 434.7 254.52 
" clip-path="url(#pff0c036380)" style="fill: none; stroke: #000000; stroke-width: 1.5; stroke-linecap: square"/>
   </g>
   <g id="line2d_99">
    <path d="M 81.9 254.52 
L 117.18 254.52 
" clip-path="url(#pff0c036380)" style="fill: none; stroke: #000000; stroke-width: 1.5; stroke-linecap: square"/>
   </g>
   <g id="line2d_100">
    <path d="M 117.18 254.52 
L 117.18 219.24 
" clip-path="url(#pff0c036380)" style="fill: none; stroke: #000000; stroke-width: 1.5; stroke-linecap: square"/>
   </g>
   <g id="line2d_101">
    <path d="M 81.9 219.24 
L 81.9 254.52 
" clip-path="url(#pff0c036380)" style="fill: none; stroke: #000000; stroke-width: 1.5; stroke-linecap: square"/>
   </g>
   <g id="line2d_102">
    <path d="M 152.46 219.24 
L 117.18 219.24 
" clip-path="url(#pff0c036380)" style="fill: none; stroke: #000000; stroke-width: 1.5; stroke-linecap: square"/>
   </g>
   <g id="line2d_103">
    <path d="M 117.18 219.24 
L 117.18 254.52 
" clip-path="url(#pff0c036380)" style="fill: none; stroke: #000000; stroke-width: 1.5; stroke-linecap: square"/>
   </g>
   <g id="line2d_104">
    <path d="M 152.46 254.52 
L 187.74 254.52 
" clip-path="url(#pff0c036380)" style="fill: none; stroke: #000000; stroke-width: 1.5; stroke-linecap: square"/>
   </g>
   <g id="line2d_105">
    <path d="M 187.74 254.52 
L 187.74 219.24 
" clip-path="url(#pff0c036380)" style="fill: none; stroke: #000000; stroke-width: 1.5; stroke-linecap: square"/>
   </g>
   <g id="line2d_106">
    <path d="M 223.02 254.52 
L 223.02 219.24 
" clip-path="url(#pff0c036380)" style="fill: none; stroke: #000000; stroke-width: 1.5; stroke-linecap: square"/>
   </g>
   <g id="line2d_107">
    <path d="M 223.02 219.24 
L 187.74 219.24 
" clip-path="url(#pff0c036380)" style="fill: none; stroke: #000000; stroke-width: 1.5; stroke-linecap: square"/>
   </g>
   <g id="line2d_108">
    <path d="M 187.74 219.24 
L 187.74 254.52 
" clip-path="url(#pff0c036380)" style="fill: none; stroke: #000000; stroke-width: 1.5; stroke-linecap: square"/>
   </g>
   <g id="line2d_109">
    <path d="M 258.3 219.24 
L 223.02 219.24 
" clip-path="url(#pff0c036380)" style="fill: none; stroke: #000000; stroke-width: 1.5; stroke-linecap: square"/>
   </g>
   <g id="line2d_110">
    <path d="M 223.02 219.24 
L 223.02 254.52 
" clip-path="url(#pff0c036380)" style="fill: none; stroke: #000000; stroke-width: 1.5; stroke-linecap: square"/>
   </g>
   <g id="line2d_111">
    <path d="M 258.3 254.52 
L 293.58 254.52 
" clip-path="url(#pff0c036380)" style="fill: none; stroke: #000000; stroke-width: 1.5; stroke-linecap: square"/>
   </g>
   <g id="line2d_112">
    <path d="M 293.58 254.52 
L 293.58 219.24 
" clip-path="url(#pff0c036380)" style="fill: none; stroke: #000000; stroke-width: 1.5; stroke-linecap: square"/>
   </g>
   <g id="line2d_113">
    <path d="M 328.86 254.52 
L 328.86 219.24 
" clip-path="url(#pff0c036380)" style="fill: none; stroke: #000000; stroke-width: 1.5; stroke-linecap: square"/>
   </g>
   <g id="line2d_114">
    <path d="M 293.58 219.24 
L 293.58 254.52 
" clip-path="url(#pff0c036380)" style="fill: none; stroke: #000000; stroke-width: 1.5; stroke-linecap: square"/>
   </g>
   <g id="line2d_115">
    <path d="M 364.14 254.52 
L 364.14 219.24 
" clip-path="url(#pff0c036380)" style="fill: none; stroke: #000000; stroke-width: 1.5; stroke-linecap: square"/>
   </g>
   <g id="line2d_116">
    <path d="M 364.14 219.24 
L 328.86 219.24 
" clip-path="url(#pff0c036380)" style="fill: none; stroke: #000000; stroke-width: 1.5; stroke-linecap: square"/>
   </g>
   <g id="line2d_117">
    <path d="M 328.86 219.24 
L 328.86 254.52 
" clip-path="url(#pff0c036380)" style="fill: none; stroke: #000000; stroke-width: 1.5; stroke-linecap: square"/>
   </g>
   <g id="line2d_118">
    <path d="M 399.42 254.52 
L 399.42 219.24 
" clip-path="url(#pff0c036380)" style="fill: none; stroke: #000000; stroke-width: 1.5; stroke-linecap: square"/>
   </g>
   <g id="line2d_119">
    <path d="M 364.14 219.24 
L 364.14 254.52 
" clip-path="url(#pff0c036380)" style="fill: none; stroke: #000000; stroke-width: 1.5; stroke-linecap: square"/>
   </g>
   <g id="line2d_120">
    <path d="M 434.7 254.52 
L 434.7 219.24 
" clip-path="url(#pff0c036380)" style="fill: none; stroke: #000000; stroke-width: 1.5; stroke-linecap: square"/>
   </g>
   <g id="line2d_121">
    <path d="M 434.7 219.24 
L 399.42 219.24 
" clip-path="url(#pff0c036380)" style="fill: none; stroke: #000000; stroke-width: 1.5; stroke-linecap: square"/>
   </g>
   <g id="line2d_122">
    <path d="M 399.42 219.24 
L 399.42 254.52 
" clip-path="url(#pff0c036380)" style="fill: none; stroke: #000000; stroke-width: 1.5; stroke-linecap: square"/>
   </g>
   <g id="line2d_123">
    <path d="M 81.9 183.96 
L 81.9 219.24 
" clip-path="url(#pff0c036380)" style="fill: none; stroke: #000000; stroke-width: 1.5; stroke-linecap: square"/>
   </g>
   <g id="line2d_124">
    <path d="M 117.18 219.24 
L 152.46 219.24 
" clip-path="url(#pff0c036380)" style="fill: none; stroke: #000000; stroke-width: 1.5; stroke-linecap: square"/>
   </g>
   <g id="line2d_125">
    <path d="M 152.46 219.24 
L 152.46 183.96 
" clip-path="url(#pff0c036380)" style="fill: none; stroke: #000000; stroke-width: 1.5; stroke-linecap: square"/>
   </g>
   <g id="line2d_126">
    <path d="M 187.74 183.96 
L 152.46 183.96 
" clip-path="url(#pff0c036380)" style="fill: none; stroke: #000000; stroke-width: 1.5; stroke-linecap: square"/>
   </g>
   <g id="line2d_127">
    <path d="M 152.46 183.96 
L 152.46 219.24 
" clip-path="url(#pff0c036380)" style="fill: none; stroke: #000000; stroke-width: 1.5; stroke-linecap: square"/>
   </g>
   <g id="line2d_128">
    <path d="M 187.74 219.24 
L 223.02 219.24 
" clip-path="url(#pff0c036380)" style="fill: none; stroke: #000000; stroke-width: 1.5; stroke-linecap: square"/>
   </g>
   <g id="line2d_129">
    <path d="M 223.02 183.96 
L 187.74 183.96 
" clip-path="url(#pff0c036380)" style="fill: none; stroke: #000000; stroke-width: 1.5; stroke-linecap: square"/>
   </g>
   <g id="line2d_130">
    <path d="M 223.02 219.24 
L 258.3 219.24 
" clip-path="url(#pff0c036380)" style="fill: none; stroke: #000000; stroke-width: 1.5; stroke-linecap: square"/>
   </g>
   <g id="line2d_131">
    <path d="M 258.3 219.24 
L 258.3 183.96 
" clip-path="url(#pff0c036380)" style="fill: none; stroke: #000000; stroke-width: 1.5; stroke-linecap: square"/>
   </g>
   <g id="line2d_132">
    <path d="M 293.58 219.24 
L 293.58 183.96 
" clip-path="url(#pff0c036380)" style="fill: none; stroke: #000000; stroke-width: 1.5; stroke-linecap: square"/>
   </g>
   <g id="line2d_133">
    <path d="M 258.3 183.96 
L 258.3 219.24 
" clip-path="url(#pff0c036380)" style="fill: none; stroke: #000000; stroke-width: 1.5; stroke-linecap: square"/>
   </g>
   <g id="line2d_134">
    <path d="M 328.86 183.96 
L 293.58 183.96 
" clip-path="url(#pff0c036380)" style="fill: none; stroke: #000000; stroke-width: 1.5; stroke-linecap: square"/>
   </g>
   <g id="line2d_135">
    <path d="M 293.58 183.96 
L 293.58 219.24 
" clip-path="url(#pff0c036380)" style="fill: none; stroke: #000000; stroke-width: 1.5; stroke-linecap: square"/>
   </g>
   <g id="line2d_136">
    <path d="M 328.86 219.24 
L 364.14 219.24 
" clip-path="url(#pff0c036380)" style="fill: none; stroke: #000000; stroke-width: 1.5; stroke-linecap: square"/>
   </g>
   <g id="line2d_137">
    <path d="M 364.14 219.24 
L 364.14 183.96 
" clip-path="url(#pff0c036380)" style="fill: none; stroke: #000000; stroke-width: 1.5; stroke-linecap: square"/>
   </g>
   <g id="line2d_138">
    <path d="M 399.42 183.96 
L 364.14 183.96 
" clip-path="url(#pff0c036380)" style="fill: none; stroke: #000000; stroke-width: 1.5; stroke-linecap: square"/>
   </g>
   <g id="line2d_139">
    <path d="M 364.14 183.96 
L 364.14 219.24 
" clip-path="url(#pff0c036380)" style="fill: none; stroke: #000000; stroke-width: 1.5; stroke-linecap: square"/>
   </g>
   <g id="line2d_140">
    <path d="M 399.42 219.24 
L 434.7 219.24 
" clip-path="url(#pff0c036380)" style="fill: none; stroke: #000000; stroke-width: 1.5; stroke-linecap: square"/>
   </g>
   <g id="line2d_141">
    <path d="M 117.18 183.96 
L 117.18 148.68 
" clip-path="url(#pff0c036380)" style="fill: none; stroke: #000000; stroke-width: 1.5; stroke-linecap: square"/>
   </g>
   <g id="line2d_142">
    <path d="M 81.9 148.68 
L 81.9 183.96 
" clip-path="url(#pff0c036380)" style="fill: none; stroke: #000000; stroke-width: 1.5; stroke-linecap: square"/>
   </g>
   <g id="line2d_143">
    <path d="M 152.46 148.68 
L 117.18 148.68 
" clip-path="url(#pff0c036380)" style="fill: none; stroke: #000000; stroke-width: 1.5; stroke-linecap: square"/>
   </g>
   <g id="line2d_144">
    <path d="M 117.18 148.68 
L 117.18 183.96 
" clip-path="url(#pff0c036380)" style="fill: none; stroke: #000000; stroke-width: 1.5; stroke-linecap: square"/>
   </g>
   <g id="line2d_145">
    <path d="M 152.46 183.96 
L 187.74 183.96 
" clip-path="url(#pff0c036380)" style="fill: none; stroke: #000000; stroke-width: 1.5; stroke-linecap: square"/>
   </g>
   <g id="line2d_146">
    <path d="M 187.74 148.68 
L 152.46 148.68 
" clip-path="url(#pff0c036380)" style="fill: none; stroke: #000000; stroke-width: 1.5; stroke-linecap: square"/>
   </g>
   <g id="line2d_147">
    <path d="M 187.74 183.96 
L 223.02 183.96 
" clip-path="url(#pff0c036380)" style="fill: none; stroke: #000000; stroke-width: 1.5; stroke-linecap: square"/>
   </g>
   <g id="line2d_148">
    <path d="M 223.02 183.96 
L 223.02 148.68 
" clip-path="url(#pff0c036380)" style="fill: none; stroke: #000000; stroke-width: 1.5; stroke-linecap: square"/>
   </g>
   <g id="line2d_149">
    <path d="M 258.3 148.68 
L 223.02 148.68 
" clip-path="url(#pff0c036380)" style="fill: none; stroke: #000000; stroke-width: 1.5; stroke-linecap: square"/>
   </g>
   <g id="line2d_150">
    <path d="M 223.02 148.68 
L 223.02 183.96 
" clip-path="url(#pff0c036380)" style="fill: none; stroke: #000000; stroke-width: 1.5; stroke-linecap: square"/>
   </g>
   <g id="line2d_151">
    <path d="M 293.58 183.96 
L 293.58 148.68 
" clip-path="url(#pff0c036380)" style="fill: none; stroke: #000000; stroke-width: 1.5; stroke-linecap: square"/>
   </g>
   <g id="line2d_152">
    <path d="M 293.58 148.68 
L 258.3 148.68 
" clip-path="url(#pff0c036380)" style="fill: none; stroke: #000000; stroke-width: 1.5; stroke-linecap: square"/>
   </g>
   <g id="line2d_153">
    <path d="M 293.58 183.96 
L 328.86 183.96 
" clip-path="url(#pff0c036380)" style="fill: none; stroke: #000000; stroke-width: 1.5; stroke-linecap: square"/>
   </g>
   <g id="line2d_154">
    <path d="M 328.86 183.96 
L 328.86 148.68 
" clip-path="url(#pff0c036380)" style="fill: none; stroke: #000000; stroke-width: 1.5; stroke-linecap: square"/>
   </g>
   <g id="line2d_155">
    <path d="M 293.58 148.68 
L 293.58 183.96 
" clip-path="url(#pff0c036380)" style="fill: none; stroke: #000000; stroke-width: 1.5; stroke-linecap: square"/>
   </g>
   <g id="line2d_156">
    <path d="M 364.14 148.68 
L 328.86 148.68 
" clip-path="url(#pff0c036380)" style="fill: none; stroke: #000000; stroke-width: 1.5; stroke-linecap: square"/>
   </g>
   <g id="line2d_157">
    <path d="M 328.86 148.68 
L 328.86 183.96 
" clip-path="url(#pff0c036380)" style="fill: none; stroke: #000000; stroke-width: 1.5; stroke-linecap: square"/>
   </g>
   <g id="line2d_158">
    <path d="M 364.14 183.96 
L 399.42 183.96 
" clip-path="url(#pff0c036380)" style="fill: none; stroke: #000000; stroke-width: 1.5; stroke-linecap: square"/>
   </g>
   <g id="line2d_159">
    <path d="M 399.42 148.68 
L 364.14 148.68 
" clip-path="url(#pff0c036380)" style="fill: none; stroke: #000000; stroke-width: 1.5; stroke-linecap: square"/>
   </g>
   <g id="line2d_160">
    <path d="M 434.7 183.96 
L 434.7 148.68 
" clip-path="url(#pff0c036380)" style="fill: none; stroke: #000000; stroke-width: 1.5; stroke-linecap: square"/>
   </g>
   <g id="line2d_161">
    <path d="M 117.18 113.4 
L 81.9 113.4 
" clip-path="url(#pff0c036380)" style="fill: none; stroke: #000000; stroke-width: 1.5; stroke-linecap: square"/>
   </g>
   <g id="line2d_162">
    <path d="M 81.9 113.4 
L 81.9 148.68 
" clip-path="url(#pff0c036380)" style="fill: none; stroke: #000000; stroke-width: 1.5; stroke-linecap: square"/>
   </g>
   <g id="line2d_163">
    <path d="M 117.18 148.68 
L 152.46 148.68 
" clip-path="url(#pff0c036380)" style="fill: none; stroke: #000000; stroke-width: 1.5; stroke-linecap: square"/>
   </g>
   <g id="line2d_164">
    <path d="M 152.46 148.68 
L 152.46 113.4 
" clip-path="url(#pff0c036380)" style="fill: none; stroke: #000000; stroke-width: 1.5; stroke-linecap: square"/>
   </g>
   <g id="line2d_165">
    <path d="M 152.46 148.68 
L 187.74 148.68 
" clip-path="url(#pff0c036380)" style="fill: none; stroke: #000000; stroke-width: 1.5; stroke-linecap: square"/>
   </g>
   <g id="line2d_166">
    <path d="M 187.74 148.68 
L 187.74 113.4 
" clip-path="url(#pff0c036380)" style="fill: none; stroke: #000000; stroke-width: 1.5; stroke-linecap: square"/>
   </g>
   <g id="line2d_167">
    <path d="M 152.46 113.4 
L 152.46 148.68 
" clip-path="url(#pff0c036380)" style="fill: none; stroke: #000000; stroke-width: 1.5; stroke-linecap: square"/>
   </g>
   <g id="line2d_168">
    <path d="M 223.02 113.4 
L 187.74 113.4 
" clip-path="url(#pff0c036380)" style="fill: none; stroke: #000000; stroke-width: 1.5; stroke-linecap: square"/>
   </g>
   <g id="line2d_169">
    <path d="M 187.74 113.4 
L 187.74 148.68 
" clip-path="url(#pff0c036380)" style="fill: none; stroke: #000000; stroke-width: 1.5; stroke-linecap: square"/>
   </g>
   <g id="line2d_170">
    <path d="M 223.02 148.68 
L 258.3 148.68 
" clip-path="url(#pff0c036380)" style="fill: none; stroke: #000000; stroke-width: 1.5; stroke-linecap: square"/>
   </g>
   <g id="line2d_171">
    <path d="M 258.3 148.68 
L 293.58 148.68 
" clip-path="url(#pff0c036380)" style="fill: none; stroke: #000000; stroke-width: 1.5; stroke-linecap: square"/>
   </g>
   <g id="line2d_172">
    <path d="M 293.58 148.68 
L 293.58 113.4 
" clip-path="url(#pff0c036380)" style="fill: none; stroke: #000000; stroke-width: 1.5; stroke-linecap: square"/>
   </g>
   <g id="line2d_173">
    <path d="M 293.58 113.4 
L 258.3 113.4 
" clip-path="url(#pff0c036380)" style="fill: none; stroke: #000000; stroke-width: 1.5; stroke-linecap: square"/>
   </g>
   <g id="line2d_174">
    <path d="M 293.58 113.4 
L 293.58 148.68 
" clip-path="url(#pff0c036380)" style="fill: none; stroke: #000000; stroke-width: 1.5; stroke-linecap: square"/>
   </g>
   <g id="line2d_175">
    <path d="M 328.86 148.68 
L 364.14 148.68 
" clip-path="url(#pff0c036380)" style="fill: none; stroke: #000000; stroke-width: 1.5; stroke-linecap: square"/>
   </g>
   <g id="line2d_176">
    <path d="M 364.14 113.4 
L 328.86 113.4 
" clip-path="url(#pff0c036380)" style="fill: none; stroke: #000000; stroke-width: 1.5; stroke-linecap: square"/>
   </g>
   <g id="line2d_177">
    <path d="M 364.14 148.68 
L 399.42 148.68 
" clip-path="url(#pff0c036380)" style="fill: none; stroke: #000000; stroke-width: 1.5; stroke-linecap: square"/>
   </g>
   <g id="line2d_178">
    <path d="M 399.42 148.68 
L 399.42 113.4 
" clip-path="url(#pff0c036380)" style="fill: none; stroke: #000000; stroke-width: 1.5; stroke-linecap: square"/>
   </g>
   <g id="line2d_179">
    <path d="M 434.7 148.68 
L 434.7 113.4 
" clip-path="url(#pff0c036380)" style="fill: none; stroke: #000000; stroke-width: 1.5; stroke-linecap: square"/>
   </g>
   <g id="line2d_180">
    <path d="M 399.42 113.4 
L 399.42 148.68 
" clip-path="url(#pff0c036380)" style="fill: none; stroke: #000000; stroke-width: 1.5; stroke-linecap: square"/>
   </g>
   <g id="line2d_181">
    <path d="M 81.9 113.4 
L 117.18 113.4 
" clip-path="url(#pff0c036380)" style="fill: none; stroke: #000000; stroke-width: 1.5; stroke-linecap: square"/>
   </g>
   <g id="line2d_182">
    <path d="M 117.18 78.12 
L 81.9 78.12 
" clip-path="url(#pff0c036380)" style="fill: none; stroke: #000000; stroke-width: 1.5; stroke-linecap: square"/>
   </g>
   <g id="line2d_183">
    <path d="M 81.9 78.12 
L 81.9 113.4 
" clip-path="url(#pff0c036380)" style="fill: none; stroke: #000000; stroke-width: 1.5; stroke-linecap: square"/>
   </g>
   <g id="line2d_184">
    <path d="M 152.46 78.12 
L 117.18 78.12 
" clip-path="url(#pff0c036380)" style="fill: none; stroke: #000000; stroke-width: 1.5; stroke-linecap: square"/>
   </g>
   <g id="line2d_185">
    <path d="M 187.74 78.12 
L 152.46 78.12 
" clip-path="url(#pff0c036380)" style="fill: none; stroke: #000000; stroke-width: 1.5; stroke-linecap: square"/>
   </g>
   <g id="line2d_186">
    <path d="M 187.74 113.4 
L 223.02 113.4 
" clip-path="url(#pff0c036380)" style="fill: none; stroke: #000000; stroke-width: 1.5; stroke-linecap: square"/>
   </g>
   <g id="line2d_187">
    <path d="M 223.02 113.4 
L 223.02 78.12 
" clip-path="url(#pff0c036380)" style="fill: none; stroke: #000000; stroke-width: 1.5; stroke-linecap: square"/>
   </g>
   <g id="line2d_188">
    <path d="M 223.02 78.12 
L 187.74 78.12 
" clip-path="url(#pff0c036380)" style="fill: none; stroke: #000000; stroke-width: 1.5; stroke-linecap: square"/>
   </g>
   <g id="line2d_189">
    <path d="M 258.3 78.12 
L 223.02 78.12 
" clip-path="url(#pff0c036380)" style="fill: none; stroke: #000000; stroke-width: 1.5; stroke-linecap: square"/>
   </g>
   <g id="line2d_190">
    <path d="M 223.02 78.12 
L 223.02 113.4 
" clip-path="url(#pff0c036380)" style="fill: none; stroke: #000000; stroke-width: 1.5; stroke-linecap: square"/>
   </g>
   <g id="line2d_191">
    <path d="M 258.3 113.4 
L 293.58 113.4 
" clip-path="url(#pff0c036380)" style="fill: none; stroke: #000000; stroke-width: 1.5; stroke-linecap: square"/>
   </g>
   <g id="line2d_192">
    <path d="M 293.58 78.12 
L 258.3 78.12 
" clip-path="url(#pff0c036380)" style="fill: none; stroke: #000000; stroke-width: 1.5; stroke-linecap: square"/>
   </g>
   <g id="line2d_193">
    <path d="M 328.86 78.12 
L 293.58 78.12 
" clip-path="url(#pff0c036380)" style="fill: none; stroke: #000000; stroke-width: 1.5; stroke-linecap: square"/>
   </g>
   <g id="line2d_194">
    <path d="M 328.86 113.4 
L 364.14 113.4 
" clip-path="url(#pff0c036380)" style="fill: none; stroke: #000000; stroke-width: 1.5; stroke-linecap: square"/>
   </g>
   <g id="line2d_195">
    <path d="M 364.14 113.4 
L 364.14 78.12 
" clip-path="url(#pff0c036380)" style="fill: none; stroke: #000000; stroke-width: 1.5; stroke-linecap: square"/>
   </g>
   <g id="line2d_196">
    <path d="M 364.14 78.12 
L 328.86 78.12 
" clip-path="url(#pff0c036380)" style="fill: none; stroke: #000000; stroke-width: 1.5; stroke-linecap: square"/>
   </g>
   <g id="line2d_197">
    <path d="M 399.42 78.12 
L 364.14 78.12 
" clip-path="url(#pff0c036380)" style="fill: none; stroke: #000000; stroke-width: 1.5; stroke-linecap: square"/>
   </g>
   <g id="line2d_198">
    <path d="M 364.14 78.12 
L 364.14 113.4 
" clip-path="url(#pff0c036380)" style="fill: none; stroke: #000000; stroke-width: 1.5; stroke-linecap: square"/>
   </g>
   <g id="line2d_199">
    <path d="M 434.7 113.4 
L 434.7 78.12 
" clip-path="url(#pff0c036380)" style="fill: none; stroke: #000000; stroke-width: 1.5; stroke-linecap: square"/>
   </g>
   <g id="line2d_200">
    <path d="M 434.7 78.12 
L 399.42 78.12 
" clip-path="url(#pff0c036380)" style="fill: none; stroke: #000000; stroke-width: 1.5; stroke-linecap: square"/>
   </g>
   <g id="patch_50">
    <path d="M 64.26 448.56 
L 64.26 60.48 
" style="fill: none; stroke: #000000; stroke-width: 0.8; stroke-linejoin: miter; stroke-linecap: square"/>
   </g>
   <g id="patch_51">
    <path d="M 452.34 448.56 
L 452.34 60.48 
" style="fill: none; stroke: #000000; stroke-width: 0.8; stroke-linejoin: miter; stroke-linecap: square"/>
   </g>
   <g id="patch_52">
    <path d="M 64.26 448.56 
L 452.34 448.56 
" style="fill: none; stroke: #000000; stroke-width: 0.8; stroke-linejoin: miter; stroke-linecap: square"/>
   </g>
   <g id="patch_53">
    <path d="M 64.26 60.48 
L 452.34 60.48 
" style="fill: none; stroke: #000000; stroke-width: 0.8; stroke-linejoin: miter; stroke-linecap: square"/>
   </g>
   <g id="text_1">
    <!-- END -->
    <g transform="translate(117.18 430.92)scale(0.07 -0.07)">
     <defs>
      <path id="DejaVuSans-Bold-45" d="M 588 4666 
L 3834 4666 
L 3834 3756 
L 1791 3756 
L 1791 2888 
L 3713 2888 
L 3713 1978 
L 1791 1978 
L 1791 909 
L 3903 909 
L 3903 0 
L 588 0 
L 588 4666 
z
" transform="scale(0.015625)"/>
      <path id="DejaVuSans-Bold-4e" d="M 588 4666 
L 1931 4666 
L 3628 1466 
L 3628 4666 
L 4769 4666 
L 4769 0 
L 3425 0 
L 1728 3200 
L 1728 0 
L 588 0 
L 588 4666 
z
" transform="scale(0.015625)"/>
      <path id="DejaVuSans-Bold-44" d="M 1791 3756 
L 1791 909 
L 2222 909 
Q 2959 909 3348 1275 
Q 3738 1641 3738 2338 
Q 3738 3031 3350 3393 
Q 2963 3756 2222 3756 
L 1791 3756 
z
M 588 4666 
L 1856 4666 
Q 2919 4666 3439 4514 
Q 3959 4363 4331 4000 
Q 4659 3684 4818 3271 
Q 4978 2859 4978 2338 
Q 4978 1809 4818 1395 
Q 4659 981 4331 666 
Q 3956 303 3431 151 
Q 2906 0 1856 0 
L 588 0 
L 588 4666 
z
" transform="scale(0.015625)"/>
     </defs>
     <use xlink:href="#DejaVuSans-Bold-45"/>
     <use xlink:href="#DejaVuSans-Bold-4e" x="68.310547"/>
     <use xlink:href="#DejaVuSans-Bold-44" x="152.001953"/>
    </g>
   </g>
   <g id="text_2">
    <!-- START -->
    <g transform="translate(399.42 219.24)scale(0.07 -0.07)">
     <defs>
      <path id="DejaVuSans-Bold-53" d="M 3834 4519 
L 3834 3531 
Q 3450 3703 3084 3790 
Q 2719 3878 2394 3878 
Q 1963 3878 1756 3759 
Q 1550 3641 1550 3391 
Q 1550 3203 1689 3098 
Q 1828 2994 2194 2919 
L 2706 2816 
Q 3484 2659 3812 2340 
Q 4141 2022 4141 1434 
Q 4141 663 3683 286 
Q 3225 -91 2284 -91 
Q 1841 -91 1394 -6 
Q 947 78 500 244 
L 500 1259 
Q 947 1022 1364 901 
Q 1781 781 2169 781 
Q 2563 781 2772 912 
Q 2981 1044 2981 1288 
Q 2981 1506 2839 1625 
Q 2697 1744 2272 1838 
L 1806 1941 
Q 1106 2091 782 2419 
Q 459 2747 459 3303 
Q 459 4000 909 4375 
Q 1359 4750 2203 4750 
Q 2588 4750 2994 4692 
Q 3400 4634 3834 4519 
z
" transform="scale(0.015625)"/>
      <path id="DejaVuSans-Bold-54" d="M 31 4666 
L 4331 4666 
L 4331 3756 
L 2784 3756 
L 2784 0 
L 1581 0 
L 1581 3756 
L 31 3756 
L 31 4666 
z
" transform="scale(0.015625)"/>
      <path id="DejaVuSans-Bold-41" d="M 3419 850 
L 1538 850 
L 1241 0 
L 31 0 
L 1759 4666 
L 3194 4666 
L 4922 0 
L 3713 0 
L 3419 850 
z
M 1838 1716 
L 3116 1716 
L 2478 3572 
L 1838 1716 
z
" transform="scale(0.015625)"/>
      <path id="DejaVuSans-Bold-52" d="M 2297 2597 
Q 2675 2597 2839 2737 
Q 3003 2878 3003 3200 
Q 3003 3519 2839 3656 
Q 2675 3794 2297 3794 
L 1791 3794 
L 1791 2597 
L 2297 2597 
z
M 1791 1766 
L 1791 0 
L 588 0 
L 588 4666 
L 2425 4666 
Q 3347 4666 3776 4356 
Q 4206 4047 4206 3378 
Q 4206 2916 3982 2619 
Q 3759 2322 3309 2181 
Q 3556 2125 3751 1926 
Q 3947 1728 4147 1325 
L 4800 0 
L 3519 0 
L 2950 1159 
Q 2778 1509 2601 1637 
Q 2425 1766 2131 1766 
L 1791 1766 
z
" transform="scale(0.015625)"/>
     </defs>
     <use xlink:href="#DejaVuSans-Bold-53"/>
     <use xlink:href="#DejaVuSans-Bold-54" x="72.021484"/>
     <use xlink:href="#DejaVuSans-Bold-41" x="132.484375"/>
     <use xlink:href="#DejaVuSans-Bold-52" x="209.876953"/>
     <use xlink:href="#DejaVuSans-Bold-54" x="282.378906"/>
    </g>
   </g>
  </g>
 </g>
 <defs>
  <clipPath id="pff0c036380">
   <rect x="64.26" y="60.48" width="388.08" height="388.08"/>
  </clipPath>
 </defs>
</svg>
