<?xml version="1.0" encoding="utf-8" standalone="no"?>
<!DOCTYPE svg PUBLIC "-//W3C//DTD SVG 1.1//EN"
  "http://www.w3.org/Graphics/SVG/1.1/DTD/svg11.dtd">
<svg xmlns:xlink="http://www.w3.org/1999/xlink" width="504pt" height="504pt" viewBox="0 0 504 504" xmlns="http://www.w3.org/2000/svg" version="1.1">
 <metadata>
  <rdf:RDF xmlns:dc="http://purl.org/dc/elements/1.1/" xmlns:cc="http://creativecommons.org/ns#" xmlns:rdf="http://www.w3.org/1999/02/22-rdf-syntax-ns#">
   <cc:Work>
    <dc:type rdf:resource="http://purl.org/dc/dcmitype/StillImage"/>
    <dc:date>2022-03-20T09:43:16.660995</dc:date>
    <dc:format>image/svg+xml</dc:format>
    <dc:creator>
     <cc:Agent>
      <dc:title>Matplotlib v3.5.1, https://matplotlib.org/</dc:title>
     </cc:Agent>
    </dc:creator>
   </cc:Work>
  </rdf:RDF>
 </metadata>
 <defs>
  <style type="text/css">*{stroke-linejoin: round; stroke-linecap: butt}</style>
 </defs>
 <g id="figure_1">
  <g id="patch_1">
   <path d="M 0 504 
L 504 504 
L 504 0 
L 0 0 
z
" style="fill: #ffffff"/>
  </g>
  <g id="axes_1">
   <g id="patch_2">
    <path d="M 64.26 448.56 
L 452.34 448.56 
L 452.34 60.48 
L 64.26 60.48 
z
" style="fill: #ffffff"/>
   </g>
   <g id="patch_3">
    <path d="M 417.06 138.096 
C 418.931273 138.096 420.726156 137.352535 422.049345 136.029345 
C 423.372535 134.706156 424.116 132.911273 424.116 131.04 
C 424.116 129.168727 423.372535 127.373844 422.049345 126.050655 
C 420.726156 124.727465 418.931273 123.984 417.06 123.984 
C 415.188727 123.984 413.393844 124.727465 412.070655 126.050655 
C 410.747465 127.373844 410.004 129.168727 410.004 131.04 
C 410.004 132.911273 410.747465 134.706156 412.070655 136.029345 
C 413.393844 137.352535 415.188727 138.096 417.06 138.096 
z
" clip-path="url(#p82c935bcab)" style="opacity: 0.4"/>
   </g>
   <g id="patch_4">
    <path d="M 417.06 173.376 
C 418.931273 173.376 420.726156 172.632535 422.049345 171.309345 
C 423.372535 169.986156 424.116 168.191273 424.116 166.32 
C 424.116 164.448727 423.372535 162.653844 422.049345 161.330655 
C 420.726156 160.007465 418.931273 159.264 417.06 159.264 
C 415.188727 159.264 413.393844 160.007465 412.070655 161.330655 
C 410.747465 162.653844 410.004 164.448727 410.004 166.32 
C 410.004 168.191273 410.747465 169.986156 412.070655 171.309345 
C 413.393844 172.632535 415.188727 173.376 417.06 173.376 
z
" clip-path="url(#p82c935bcab)" style="fill: #000800; opacity: 0.4"/>
   </g>
   <g id="patch_5">
    <path d="M 381.78 173.376 
C 383.651273 173.376 385.446156 172.632535 386.769345 171.309345 
C 388.092535 169.986156 388.836 168.191273 388.836 166.32 
C 388.836 164.448727 388.092535 162.653844 386.769345 161.330655 
C 385.446156 160.007465 383.651273 159.264 381.78 159.264 
C 379.908727 159.264 378.113844 160.007465 376.790655 161.330655 
C 375.467465 162.653844 374.724 164.448727 374.724 166.32 
C 374.724 168.191273 375.467465 169.986156 376.790655 171.309345 
C 378.113844 172.632535 379.908727 173.376 381.78 173.376 
z
" clip-path="url(#p82c935bcab)" style="fill: #000f00; opacity: 0.4"/>
   </g>
   <g id="patch_6">
    <path d="M 346.5 173.376 
C 348.371273 173.376 350.166156 172.632535 351.489345 171.309345 
C 352.812535 169.986156 353.556 168.191273 353.556 166.32 
C 353.556 164.448727 352.812535 162.653844 351.489345 161.330655 
C 350.166156 160.007465 348.371273 159.264 346.5 159.264 
C 344.628727 159.264 342.833844 160.007465 341.510655 161.330655 
C 340.187465 162.653844 339.444 164.448727 339.444 166.32 
C 339.444 168.191273 340.187465 169.986156 341.510655 171.309345 
C 342.833844 172.632535 344.628727 173.376 346.5 173.376 
z
" clip-path="url(#p82c935bcab)" style="fill: #001600; opacity: 0.4"/>
   </g>
   <g id="patch_7">
    <path d="M 346.5 138.096 
C 348.371273 138.096 350.166156 137.352535 351.489345 136.029345 
C 352.812535 134.706156 353.556 132.911273 353.556 131.04 
C 353.556 129.168727 352.812535 127.373844 351.489345 126.050655 
C 350.166156 124.727465 348.371273 123.984 346.5 123.984 
C 344.628727 123.984 342.833844 124.727465 341.510655 126.050655 
C 340.187465 127.373844 339.444 129.168727 339.444 131.04 
C 339.444 132.911273 340.187465 134.706156 341.510655 136.029345 
C 342.833844 137.352535 344.628727 138.096 346.5 138.096 
z
" clip-path="url(#p82c935bcab)" style="fill: #001e00; opacity: 0.4"/>
   </g>
   <g id="patch_8">
    <path d="M 381.78 138.096 
C 383.651273 138.096 385.446156 137.352535 386.769345 136.029345 
C 388.092535 134.706156 388.836 132.911273 388.836 131.04 
C 388.836 129.168727 388.092535 127.373844 386.769345 126.050655 
C 385.446156 124.727465 383.651273 123.984 381.78 123.984 
C 379.908727 123.984 378.113844 124.727465 376.790655 126.050655 
C 375.467465 127.373844 374.724 129.168727 374.724 131.04 
C 374.724 132.911273 375.467465 134.706156 376.790655 136.029345 
C 378.113844 137.352535 379.908727 138.096 381.78 138.096 
z
" clip-path="url(#p82c935bcab)" style="fill: #002600; opacity: 0.4"/>
   </g>
   <g id="patch_9">
    <path d="M 381.78 102.816 
C 383.651273 102.816 385.446156 102.072535 386.769345 100.749345 
C 388.092535 99.426156 388.836 97.631273 388.836 95.76 
C 388.836 93.888727 388.092535 92.093844 386.769345 90.770655 
C 385.446156 89.447465 383.651273 88.704 381.78 88.704 
C 379.908727 88.704 378.113844 89.447465 376.790655 90.770655 
C 375.467465 92.093844 374.724 93.888727 374.724 95.76 
C 374.724 97.631273 375.467465 99.426156 376.790655 100.749345 
C 378.113844 102.072535 379.908727 102.816 381.78 102.816 
z
" clip-path="url(#p82c935bcab)" style="fill: #002d00; opacity: 0.4"/>
   </g>
   <g id="patch_10">
    <path d="M 346.5 102.816 
C 348.371273 102.816 350.166156 102.072535 351.489345 100.749345 
C 352.812535 99.426156 353.556 97.631273 353.556 95.76 
C 353.556 93.888727 352.812535 92.093844 351.489345 90.770655 
C 350.166156 89.447465 348.371273 88.704 346.5 88.704 
C 344.628727 88.704 342.833844 89.447465 341.510655 90.770655 
C 340.187465 92.093844 339.444 93.888727 339.444 95.76 
C 339.444 97.631273 340.187465 99.426156 341.510655 100.749345 
C 342.833844 102.072535 344.628727 102.816 346.5 102.816 
z
" clip-path="url(#p82c935bcab)" style="fill: #003400; opacity: 0.4"/>
   </g>
   <g id="patch_11">
    <path d="M 311.22 102.816 
C 313.091273 102.816 314.886156 102.072535 316.209345 100.749345 
C 317.532535 99.426156 318.276 97.631273 318.276 95.76 
C 318.276 93.888727 317.532535 92.093844 316.209345 90.770655 
C 314.886156 89.447465 313.091273 88.704 311.22 88.704 
C 309.348727 88.704 307.553844 89.447465 306.230655 90.770655 
C 304.907465 92.093844 304.164 93.888727 304.164 95.76 
C 304.164 97.631273 304.907465 99.426156 306.230655 100.749345 
C 307.553844 102.072535 309.348727 102.816 311.22 102.816 
z
" clip-path="url(#p82c935bcab)" style="fill: #003c00; opacity: 0.4"/>
   </g>
   <g id="patch_12">
    <path d="M 311.22 138.096 
C 313.091273 138.096 314.886156 137.352535 316.209345 136.029345 
C 317.532535 134.706156 318.276 132.911273 318.276 131.04 
C 318.276 129.168727 317.532535 127.373844 316.209345 126.050655 
C 314.886156 124.727465 313.091273 123.984 311.22 123.984 
C 309.348727 123.984 307.553844 124.727465 306.230655 126.050655 
C 304.907465 127.373844 304.164 129.168727 304.164 131.04 
C 304.164 132.911273 304.907465 134.706156 306.230655 136.029345 
C 307.553844 137.352535 309.348727 138.096 311.22 138.096 
z
" clip-path="url(#p82c935bcab)" style="fill: #004400; opacity: 0.4"/>
   </g>
   <g id="patch_13">
    <path d="M 311.22 173.376 
C 313.091273 173.376 314.886156 172.632535 316.209345 171.309345 
C 317.532535 169.986156 318.276 168.191273 318.276 166.32 
C 318.276 164.448727 317.532535 162.653844 316.209345 161.330655 
C 314.886156 160.007465 313.091273 159.264 311.22 159.264 
C 309.348727 159.264 307.553844 160.007465 306.230655 161.330655 
C 304.907465 162.653844 304.164 164.448727 304.164 166.32 
C 304.164 168.191273 304.907465 169.986156 306.230655 171.309345 
C 307.553844 172.632535 309.348727 173.376 311.22 173.376 
z
" clip-path="url(#p82c935bcab)" style="fill: #004b00; opacity: 0.4"/>
   </g>
   <g id="patch_14">
    <path d="M 311.22 208.656 
C 313.091273 208.656 314.886156 207.912535 316.209345 206.589345 
C 317.532535 205.266156 318.276 203.471273 318.276 201.6 
C 318.276 199.728727 317.532535 197.933844 316.209345 196.610655 
C 314.886156 195.287465 313.091273 194.544 311.22 194.544 
C 309.348727 194.544 307.553844 195.287465 306.230655 196.610655 
C 304.907465 197.933844 304.164 199.728727 304.164 201.6 
C 304.164 203.471273 304.907465 205.266156 306.230655 206.589345 
C 307.553844 207.912535 309.348727 208.656 311.22 208.656 
z
" clip-path="url(#p82c935bcab)" style="fill: #005200; opacity: 0.4"/>
   </g>
   <g id="patch_15">
    <path d="M 346.5 208.656 
C 348.371273 208.656 350.166156 207.912535 351.489345 206.589345 
C 352.812535 205.266156 353.556 203.471273 353.556 201.6 
C 353.556 199.728727 352.812535 197.933844 351.489345 196.610655 
C 350.166156 195.287465 348.371273 194.544 346.5 194.544 
C 344.628727 194.544 342.833844 195.287465 341.510655 196.610655 
C 340.187465 197.933844 339.444 199.728727 339.444 201.6 
C 339.444 203.471273 340.187465 205.266156 341.510655 206.589345 
C 342.833844 207.912535 344.628727 208.656 346.5 208.656 
z
" clip-path="url(#p82c935bcab)" style="fill: #005a00; opacity: 0.4"/>
   </g>
   <g id="patch_16">
    <path d="M 381.78 208.656 
C 383.651273 208.656 385.446156 207.912535 386.769345 206.589345 
C 388.092535 205.266156 388.836 203.471273 388.836 201.6 
C 388.836 199.728727 388.092535 197.933844 386.769345 196.610655 
C 385.446156 195.287465 383.651273 194.544 381.78 194.544 
C 379.908727 194.544 378.113844 195.287465 376.790655 196.610655 
C 375.467465 197.933844 374.724 199.728727 374.724 201.6 
C 374.724 203.471273 375.467465 205.266156 376.790655 206.589345 
C 378.113844 207.912535 379.908727 208.656 381.78 208.656 
z
" clip-path="url(#p82c935bcab)" style="fill: #006200; opacity: 0.4"/>
   </g>
   <g id="patch_17">
    <path d="M 381.78 243.936 
C 383.651273 243.936 385.446156 243.192535 386.769345 241.869345 
C 388.092535 240.546156 388.836 238.751273 388.836 236.88 
C 388.836 235.008727 388.092535 233.213844 386.769345 231.890655 
C 385.446156 230.567465 383.651273 229.824 381.78 229.824 
C 379.908727 229.824 378.113844 230.567465 376.790655 231.890655 
C 375.467465 233.213844 374.724 235.008727 374.724 236.88 
C 374.724 238.751273 375.467465 240.546156 376.790655 241.869345 
C 378.113844 243.192535 379.908727 243.936 381.78 243.936 
z
" clip-path="url(#p82c935bcab)" style="fill: #006900; opacity: 0.4"/>
   </g>
   <g id="patch_18">
    <path d="M 417.06 243.936 
C 418.931273 243.936 420.726156 243.192535 422.049345 241.869345 
C 423.372535 240.546156 424.116 238.751273 424.116 236.88 
C 424.116 235.008727 423.372535 233.213844 422.049345 231.890655 
C 420.726156 230.567465 418.931273 229.824 417.06 229.824 
C 415.188727 229.824 413.393844 230.567465 412.070655 231.890655 
C 410.747465 233.213844 410.004 235.008727 410.004 236.88 
C 410.004 238.751273 410.747465 240.546156 412.070655 241.869345 
C 413.393844 243.192535 415.188727 243.936 417.06 243.936 
z
" clip-path="url(#p82c935bcab)" style="fill: #007000; opacity: 0.4"/>
   </g>
   <g id="patch_19">
    <path d="M 417.06 279.216 
C 418.931273 279.216 420.726156 278.472535 422.049345 277.149345 
C 423.372535 275.826156 424.116 274.031273 424.116 272.16 
C 424.116 270.288727 423.372535 268.493844 422.049345 267.170655 
C 420.726156 265.847465 418.931273 265.104 417.06 265.104 
C 415.188727 265.104 413.393844 265.847465 412.070655 267.170655 
C 410.747465 268.493844 410.004 270.288727 410.004 272.16 
C 410.004 274.031273 410.747465 275.826156 412.070655 277.149345 
C 413.393844 278.472535 415.188727 279.216 417.06 279.216 
z
" clip-path="url(#p82c935bcab)" style="fill: #007800; opacity: 0.4"/>
   </g>
   <g id="patch_20">
    <path d="M 381.78 279.216 
C 383.651273 279.216 385.446156 278.472535 386.769345 277.149345 
C 388.092535 275.826156 388.836 274.031273 388.836 272.16 
C 388.836 270.288727 388.092535 268.493844 386.769345 267.170655 
C 385.446156 265.847465 383.651273 265.104 381.78 265.104 
C 379.908727 265.104 378.113844 265.847465 376.790655 267.170655 
C 375.467465 268.493844 374.724 270.288727 374.724 272.16 
C 374.724 274.031273 375.467465 275.826156 376.790655 277.149345 
C 378.113844 278.472535 379.908727 279.216 381.78 279.216 
z
" clip-path="url(#p82c935bcab)" style="fill: #008000; opacity: 0.4"/>
   </g>
   <g id="patch_21">
    <path d="M 346.5 279.216 
C 348.371273 279.216 350.166156 278.472535 351.489345 277.149345 
C 352.812535 275.826156 353.556 274.031273 353.556 272.16 
C 353.556 270.288727 352.812535 268.493844 351.489345 267.170655 
C 350.166156 265.847465 348.371273 265.104 346.5 265.104 
C 344.628727 265.104 342.833844 265.847465 341.510655 267.170655 
C 340.187465 268.493844 339.444 270.288727 339.444 272.16 
C 339.444 274.031273 340.187465 275.826156 341.510655 277.149345 
C 342.833844 278.472535 344.628727 279.216 346.5 279.216 
z
" clip-path="url(#p82c935bcab)" style="fill: #008700; opacity: 0.4"/>
   </g>
   <g id="patch_22">
    <path d="M 311.22 279.216 
C 313.091273 279.216 314.886156 278.472535 316.209345 277.149345 
C 317.532535 275.826156 318.276 274.031273 318.276 272.16 
C 318.276 270.288727 317.532535 268.493844 316.209345 267.170655 
C 314.886156 265.847465 313.091273 265.104 311.22 265.104 
C 309.348727 265.104 307.553844 265.847465 306.230655 267.170655 
C 304.907465 268.493844 304.164 270.288727 304.164 272.16 
C 304.164 274.031273 304.907465 275.826156 306.230655 277.149345 
C 307.553844 278.472535 309.348727 279.216 311.22 279.216 
z
" clip-path="url(#p82c935bcab)" style="fill: #008e00; opacity: 0.4"/>
   </g>
   <g id="patch_23">
    <path d="M 311.22 243.936 
C 313.091273 243.936 314.886156 243.192535 316.209345 241.869345 
C 317.532535 240.546156 318.276 238.751273 318.276 236.88 
C 318.276 235.008727 317.532535 233.213844 316.209345 231.890655 
C 314.886156 230.567465 313.091273 229.824 311.22 229.824 
C 309.348727 229.824 307.553844 230.567465 306.230655 231.890655 
C 304.907465 233.213844 304.164 235.008727 304.164 236.88 
C 304.164 238.751273 304.907465 240.546156 306.230655 241.869345 
C 307.553844 243.192535 309.348727 243.936 311.22 243.936 
z
" clip-path="url(#p82c935bcab)" style="fill: #009600; opacity: 0.4"/>
   </g>
   <g id="patch_24">
    <path d="M 275.94 243.936 
C 277.811273 243.936 279.606156 243.192535 280.929345 241.869345 
C 282.252535 240.546156 282.996 238.751273 282.996 236.88 
C 282.996 235.008727 282.252535 233.213844 280.929345 231.890655 
C 279.606156 230.567465 277.811273 229.824 275.94 229.824 
C 274.068727 229.824 272.273844 230.567465 270.950655 231.890655 
C 269.627465 233.213844 268.884 235.008727 268.884 236.88 
C 268.884 238.751273 269.627465 240.546156 270.950655 241.869345 
C 272.273844 243.192535 274.068727 243.936 275.94 243.936 
z
" clip-path="url(#p82c935bcab)" style="fill: #009e00; opacity: 0.4"/>
   </g>
   <g id="patch_25">
    <path d="M 275.94 279.216 
C 277.811273 279.216 279.606156 278.472535 280.929345 277.149345 
C 282.252535 275.826156 282.996 274.031273 282.996 272.16 
C 282.996 270.288727 282.252535 268.493844 280.929345 267.170655 
C 279.606156 265.847465 277.811273 265.104 275.94 265.104 
C 274.068727 265.104 272.273844 265.847465 270.950655 267.170655 
C 269.627465 268.493844 268.884 270.288727 268.884 272.16 
C 268.884 274.031273 269.627465 275.826156 270.950655 277.149345 
C 272.273844 278.472535 274.068727 279.216 275.94 279.216 
z
" clip-path="url(#p82c935bcab)" style="fill: #00a500; opacity: 0.4"/>
   </g>
   <g id="patch_26">
    <path d="M 275.94 314.496 
C 277.811273 314.496 279.606156 313.752535 280.929345 312.429345 
C 282.252535 311.106156 282.996 309.311273 282.996 307.44 
C 282.996 305.568727 282.252535 303.773844 280.929345 302.450655 
C 279.606156 301.127465 277.811273 300.384 275.94 300.384 
C 274.068727 300.384 272.273844 301.127465 270.950655 302.450655 
C 269.627465 303.773844 268.884 305.568727 268.884 307.44 
C 268.884 309.311273 269.627465 311.106156 270.950655 312.429345 
C 272.273844 313.752535 274.068727 314.496 275.94 314.496 
z
" clip-path="url(#p82c935bcab)" style="fill: #00ac00; opacity: 0.4"/>
   </g>
   <g id="patch_27">
    <path d="M 240.66 314.496 
C 242.531273 314.496 244.326156 313.752535 245.649345 312.429345 
C 246.972535 311.106156 247.716 309.311273 247.716 307.44 
C 247.716 305.568727 246.972535 303.773844 245.649345 302.450655 
C 244.326156 301.127465 242.531273 300.384 240.66 300.384 
C 238.788727 300.384 236.993844 301.127465 235.670655 302.450655 
C 234.347465 303.773844 233.604 305.568727 233.604 307.44 
C 233.604 309.311273 234.347465 311.106156 235.670655 312.429345 
C 236.993844 313.752535 238.788727 314.496 240.66 314.496 
z
" clip-path="url(#p82c935bcab)" style="fill: #00b400; opacity: 0.4"/>
   </g>
   <g id="patch_28">
    <path d="M 240.66 279.216 
C 242.531273 279.216 244.326156 278.472535 245.649345 277.149345 
C 246.972535 275.826156 247.716 274.031273 247.716 272.16 
C 247.716 270.288727 246.972535 268.493844 245.649345 267.170655 
C 244.326156 265.847465 242.531273 265.104 240.66 265.104 
C 238.788727 265.104 236.993844 265.847465 235.670655 267.170655 
C 234.347465 268.493844 233.604 270.288727 233.604 272.16 
C 233.604 274.031273 234.347465 275.826156 235.670655 277.149345 
C 236.993844 278.472535 238.788727 279.216 240.66 279.216 
z
" clip-path="url(#p82c935bcab)" style="fill: #00bc00; opacity: 0.4"/>
   </g>
   <g id="patch_29">
    <path d="M 240.66 243.936 
C 242.531273 243.936 244.326156 243.192535 245.649345 241.869345 
C 246.972535 240.546156 247.716 238.751273 247.716 236.88 
C 247.716 235.008727 246.972535 233.213844 245.649345 231.890655 
C 244.326156 230.567465 242.531273 229.824 240.66 229.824 
C 238.788727 229.824 236.993844 230.567465 235.670655 231.890655 
C 234.347465 233.213844 233.604 235.008727 233.604 236.88 
C 233.604 238.751273 234.347465 240.546156 235.670655 241.869345 
C 236.993844 243.192535 238.788727 243.936 240.66 243.936 
z
" clip-path="url(#p82c935bcab)" style="fill: #00c300; opacity: 0.4"/>
   </g>
   <g id="patch_30">
    <path d="M 205.38 243.936 
C 207.251273 243.936 209.046156 243.192535 210.369345 241.869345 
C 211.692535 240.546156 212.436 238.751273 212.436 236.88 
C 212.436 235.008727 211.692535 233.213844 210.369345 231.890655 
C 209.046156 230.567465 207.251273 229.824 205.38 229.824 
C 203.508727 229.824 201.713844 230.567465 200.390655 231.890655 
C 199.067465 233.213844 198.324 235.008727 198.324 236.88 
C 198.324 238.751273 199.067465 240.546156 200.390655 241.869345 
C 201.713844 243.192535 203.508727 243.936 205.38 243.936 
z
" clip-path="url(#p82c935bcab)" style="fill: #00ca00; opacity: 0.4"/>
   </g>
   <g id="patch_31">
    <path d="M 205.38 208.656 
C 207.251273 208.656 209.046156 207.912535 210.369345 206.589345 
C 211.692535 205.266156 212.436 203.471273 212.436 201.6 
C 212.436 199.728727 211.692535 197.933844 210.369345 196.610655 
C 209.046156 195.287465 207.251273 194.544 205.38 194.544 
C 203.508727 194.544 201.713844 195.287465 200.390655 196.610655 
C 199.067465 197.933844 198.324 199.728727 198.324 201.6 
C 198.324 203.471273 199.067465 205.266156 200.390655 206.589345 
C 201.713844 207.912535 203.508727 208.656 205.38 208.656 
z
" clip-path="url(#p82c935bcab)" style="fill: #00d200; opacity: 0.4"/>
   </g>
   <g id="patch_32">
    <path d="M 240.66 208.656 
C 242.531273 208.656 244.326156 207.912535 245.649345 206.589345 
C 246.972535 205.266156 247.716 203.471273 247.716 201.6 
C 247.716 199.728727 246.972535 197.933844 245.649345 196.610655 
C 244.326156 195.287465 242.531273 194.544 240.66 194.544 
C 238.788727 194.544 236.993844 195.287465 235.670655 196.610655 
C 234.347465 197.933844 233.604 199.728727 233.604 201.6 
C 233.604 203.471273 234.347465 205.266156 235.670655 206.589345 
C 236.993844 207.912535 238.788727 208.656 240.66 208.656 
z
" clip-path="url(#p82c935bcab)" style="fill: #00da00; opacity: 0.4"/>
   </g>
   <g id="patch_33">
    <path d="M 240.66 173.376 
C 242.531273 173.376 244.326156 172.632535 245.649345 171.309345 
C 246.972535 169.986156 247.716 168.191273 247.716 166.32 
C 247.716 164.448727 246.972535 162.653844 245.649345 161.330655 
C 244.326156 160.007465 242.531273 159.264 240.66 159.264 
C 238.788727 159.264 236.993844 160.007465 235.670655 161.330655 
C 234.347465 162.653844 233.604 164.448727 233.604 166.32 
C 233.604 168.191273 234.347465 169.986156 235.670655 171.309345 
C 236.993844 172.632535 238.788727 173.376 240.66 173.376 
z
" clip-path="url(#p82c935bcab)" style="fill: #00e100; opacity: 0.4"/>
   </g>
   <g id="patch_34">
    <path d="M 275.94 173.376 
C 277.811273 173.376 279.606156 172.632535 280.929345 171.309345 
C 282.252535 169.986156 282.996 168.191273 282.996 166.32 
C 282.996 164.448727 282.252535 162.653844 280.929345 161.330655 
C 279.606156 160.007465 277.811273 159.264 275.94 159.264 
C 274.068727 159.264 272.273844 160.007465 270.950655 161.330655 
C 269.627465 162.653844 268.884 164.448727 268.884 166.32 
C 268.884 168.191273 269.627465 169.986156 270.950655 171.309345 
C 272.273844 172.632535 274.068727 173.376 275.94 173.376 
z
" clip-path="url(#p82c935bcab)" style="fill: #00e800; opacity: 0.4"/>
   </g>
   <g id="patch_35">
    <path d="M 275.94 138.096 
C 277.811273 138.096 279.606156 137.352535 280.929345 136.029345 
C 282.252535 134.706156 282.996 132.911273 282.996 131.04 
C 282.996 129.168727 282.252535 127.373844 280.929345 126.050655 
C 279.606156 124.727465 277.811273 123.984 275.94 123.984 
C 274.068727 123.984 272.273844 124.727465 270.950655 126.050655 
C 269.627465 127.373844 268.884 129.168727 268.884 131.04 
C 268.884 132.911273 269.627465 134.706156 270.950655 136.029345 
C 272.273844 137.352535 274.068727 138.096 275.94 138.096 
z
" clip-path="url(#p82c935bcab)" style="fill: #00f000; opacity: 0.4"/>
   </g>
   <g id="patch_36">
    <path d="M 275.94 102.816 
C 277.811273 102.816 279.606156 102.072535 280.929345 100.749345 
C 282.252535 99.426156 282.996 97.631273 282.996 95.76 
C 282.996 93.888727 282.252535 92.093844 280.929345 90.770655 
C 279.606156 89.447465 277.811273 88.704 275.94 88.704 
C 274.068727 88.704 272.273844 89.447465 270.950655 90.770655 
C 269.627465 92.093844 268.884 93.888727 268.884 95.76 
C 268.884 97.631273 269.627465 99.426156 270.950655 100.749345 
C 272.273844 102.072535 274.068727 102.816 275.94 102.816 
z
" clip-path="url(#p82c935bcab)" style="fill: #00f800; opacity: 0.4"/>
   </g>
   <g id="line2d_1">
    <path d="M 81.9 430.92 
L 117.18 430.92 
" clip-path="url(#p82c935bcab)" style="fill: none; stroke: #000000; stroke-width: 1.5; stroke-linecap: square"/>
   </g>
   <g id="line2d_2">
    <path d="M 117.18 395.64 
L 81.9 395.64 
" clip-path="url(#p82c935bcab)" style="fill: none; stroke: #000000; stroke-width: 1.5; stroke-linecap: square"/>
   </g>
   <g id="line2d_3">
    <path d="M 81.9 395.64 
L 81.9 430.92 
" clip-path="url(#p82c935bcab)" style="fill: none; stroke: #000000; stroke-width: 1.5; stroke-linecap: square"/>
   </g>
   <g id="line2d_4">
    <path d="M 117.18 430.92 
L 152.46 430.92 
" clip-path="url(#p82c935bcab)" style="fill: none; stroke: #000000; stroke-width: 1.5; stroke-linecap: square"/>
   </g>
   <g id="line2d_5">
    <path d="M 152.46 395.64 
L 117.18 395.64 
" clip-path="url(#p82c935bcab)" style="fill: none; stroke: #000000; stroke-width: 1.5; stroke-linecap: square"/>
   </g>
   <g id="line2d_6">
    <path d="M 152.46 430.92 
L 187.74 430.92 
" clip-path="url(#p82c935bcab)" style="fill: none; stroke: #000000; stroke-width: 1.5; stroke-linecap: square"/>
   </g>
   <g id="line2d_7">
    <path d="M 187.74 430.92 
L 187.74 395.64 
" clip-path="url(#p82c935bcab)" style="fill: none; stroke: #000000; stroke-width: 1.5; stroke-linecap: square"/>
   </g>
   <g id="line2d_8">
    <path d="M 187.74 430.92 
L 223.02 430.92 
" clip-path="url(#p82c935bcab)" style="fill: none; stroke: #000000; stroke-width: 1.5; stroke-linecap: square"/>
   </g>
   <g id="line2d_9">
    <path d="M 187.74 395.64 
L 187.74 430.92 
" clip-path="url(#p82c935bcab)" style="fill: none; stroke: #000000; stroke-width: 1.5; stroke-linecap: square"/>
   </g>
   <g id="line2d_10">
    <path d="M 223.02 430.92 
L 258.3 430.92 
" clip-path="url(#p82c935bcab)" style="fill: none; stroke: #000000; stroke-width: 1.5; stroke-linecap: square"/>
   </g>
   <g id="line2d_11">
    <path d="M 258.3 430.92 
L 258.3 395.64 
" clip-path="url(#p82c935bcab)" style="fill: none; stroke: #000000; stroke-width: 1.5; stroke-linecap: square"/>
   </g>
   <g id="line2d_12">
    <path d="M 258.3 430.92 
L 293.58 430.92 
" clip-path="url(#p82c935bcab)" style="fill: none; stroke: #000000; stroke-width: 1.5; stroke-linecap: square"/>
   </g>
   <g id="line2d_13">
    <path d="M 258.3 395.64 
L 258.3 430.92 
" clip-path="url(#p82c935bcab)" style="fill: none; stroke: #000000; stroke-width: 1.5; stroke-linecap: square"/>
   </g>
   <g id="line2d_14">
    <path d="M 293.58 430.92 
L 328.86 430.92 
" clip-path="url(#p82c935bcab)" style="fill: none; stroke: #000000; stroke-width: 1.5; stroke-linecap: square"/>
   </g>
   <g id="line2d_15">
    <path d="M 328.86 430.92 
L 328.86 395.64 
" clip-path="url(#p82c935bcab)" style="fill: none; stroke: #000000; stroke-width: 1.5; stroke-linecap: square"/>
   </g>
   <g id="line2d_16">
    <path d="M 328.86 430.92 
L 364.14 430.92 
" clip-path="url(#p82c935bcab)" style="fill: none; stroke: #000000; stroke-width: 1.5; stroke-linecap: square"/>
   </g>
   <g id="line2d_17">
    <path d="M 364.14 395.64 
L 328.86 395.64 
" clip-path="url(#p82c935bcab)" style="fill: none; stroke: #000000; stroke-width: 1.5; stroke-linecap: square"/>
   </g>
   <g id="line2d_18">
    <path d="M 328.86 395.64 
L 328.86 430.92 
" clip-path="url(#p82c935bcab)" style="fill: none; stroke: #000000; stroke-width: 1.5; stroke-linecap: square"/>
   </g>
   <g id="line2d_19">
    <path d="M 364.14 430.92 
L 399.42 430.92 
" clip-path="url(#p82c935bcab)" style="fill: none; stroke: #000000; stroke-width: 1.5; stroke-linecap: square"/>
   </g>
   <g id="line2d_20">
    <path d="M 399.42 430.92 
L 434.7 430.92 
" clip-path="url(#p82c935bcab)" style="fill: none; stroke: #000000; stroke-width: 1.5; stroke-linecap: square"/>
   </g>
   <g id="line2d_21">
    <path d="M 434.7 430.92 
L 434.7 395.64 
" clip-path="url(#p82c935bcab)" style="fill: none; stroke: #000000; stroke-width: 1.5; stroke-linecap: square"/>
   </g>
   <g id="line2d_22">
    <path d="M 81.9 395.64 
L 117.18 395.64 
" clip-path="url(#p82c935bcab)" style="fill: none; stroke: #000000; stroke-width: 1.5; stroke-linecap: square"/>
   </g>
   <g id="line2d_23">
    <path d="M 81.9 360.36 
L 81.9 395.64 
" clip-path="url(#p82c935bcab)" style="fill: none; stroke: #000000; stroke-width: 1.5; stroke-linecap: square"/>
   </g>
   <g id="line2d_24">
    <path d="M 117.18 395.64 
L 152.46 395.64 
" clip-path="url(#p82c935bcab)" style="fill: none; stroke: #000000; stroke-width: 1.5; stroke-linecap: square"/>
   </g>
   <g id="line2d_25">
    <path d="M 152.46 395.64 
L 152.46 360.36 
" clip-path="url(#p82c935bcab)" style="fill: none; stroke: #000000; stroke-width: 1.5; stroke-linecap: square"/>
   </g>
   <g id="line2d_26">
    <path d="M 187.74 360.36 
L 152.46 360.36 
" clip-path="url(#p82c935bcab)" style="fill: none; stroke: #000000; stroke-width: 1.5; stroke-linecap: square"/>
   </g>
   <g id="line2d_27">
    <path d="M 152.46 360.36 
L 152.46 395.64 
" clip-path="url(#p82c935bcab)" style="fill: none; stroke: #000000; stroke-width: 1.5; stroke-linecap: square"/>
   </g>
   <g id="line2d_28">
    <path d="M 223.02 395.64 
L 223.02 360.36 
" clip-path="url(#p82c935bcab)" style="fill: none; stroke: #000000; stroke-width: 1.5; stroke-linecap: square"/>
   </g>
   <g id="line2d_29">
    <path d="M 223.02 360.36 
L 187.74 360.36 
" clip-path="url(#p82c935bcab)" style="fill: none; stroke: #000000; stroke-width: 1.5; stroke-linecap: square"/>
   </g>
   <g id="line2d_30">
    <path d="M 258.3 360.36 
L 223.02 360.36 
" clip-path="url(#p82c935bcab)" style="fill: none; stroke: #000000; stroke-width: 1.5; stroke-linecap: square"/>
   </g>
   <g id="line2d_31">
    <path d="M 223.02 360.36 
L 223.02 395.64 
" clip-path="url(#p82c935bcab)" style="fill: none; stroke: #000000; stroke-width: 1.5; stroke-linecap: square"/>
   </g>
   <g id="line2d_32">
    <path d="M 293.58 395.64 
L 293.58 360.36 
" clip-path="url(#p82c935bcab)" style="fill: none; stroke: #000000; stroke-width: 1.5; stroke-linecap: square"/>
   </g>
   <g id="line2d_33">
    <path d="M 293.58 360.36 
L 258.3 360.36 
" clip-path="url(#p82c935bcab)" style="fill: none; stroke: #000000; stroke-width: 1.5; stroke-linecap: square"/>
   </g>
   <g id="line2d_34">
    <path d="M 328.86 360.36 
L 293.58 360.36 
" clip-path="url(#p82c935bcab)" style="fill: none; stroke: #000000; stroke-width: 1.5; stroke-linecap: square"/>
   </g>
   <g id="line2d_35">
    <path d="M 293.58 360.36 
L 293.58 395.64 
" clip-path="url(#p82c935bcab)" style="fill: none; stroke: #000000; stroke-width: 1.5; stroke-linecap: square"/>
   </g>
   <g id="line2d_36">
    <path d="M 328.86 395.64 
L 364.14 395.64 
" clip-path="url(#p82c935bcab)" style="fill: none; stroke: #000000; stroke-width: 1.5; stroke-linecap: square"/>
   </g>
   <g id="line2d_37">
    <path d="M 364.14 395.64 
L 364.14 360.36 
" clip-path="url(#p82c935bcab)" style="fill: none; stroke: #000000; stroke-width: 1.5; stroke-linecap: square"/>
   </g>
   <g id="line2d_38">
    <path d="M 399.42 395.64 
L 399.42 360.36 
" clip-path="url(#p82c935bcab)" style="fill: none; stroke: #000000; stroke-width: 1.5; stroke-linecap: square"/>
   </g>
   <g id="line2d_39">
    <path d="M 399.42 360.36 
L 364.14 360.36 
" clip-path="url(#p82c935bcab)" style="fill: none; stroke: #000000; stroke-width: 1.5; stroke-linecap: square"/>
   </g>
   <g id="line2d_40">
    <path d="M 364.14 360.36 
L 364.14 395.64 
" clip-path="url(#p82c935bcab)" style="fill: none; stroke: #000000; stroke-width: 1.5; stroke-linecap: square"/>
   </g>
   <g id="line2d_41">
    <path d="M 434.7 395.64 
L 434.7 360.36 
" clip-path="url(#p82c935bcab)" style="fill: none; stroke: #000000; stroke-width: 1.5; stroke-linecap: square"/>
   </g>
   <g id="line2d_42">
    <path d="M 399.42 360.36 
L 399.42 395.64 
" clip-path="url(#p82c935bcab)" style="fill: none; stroke: #000000; stroke-width: 1.5; stroke-linecap: square"/>
   </g>
   <g id="line2d_43">
    <path d="M 117.18 360.36 
L 117.18 325.08 
" clip-path="url(#p82c935bcab)" style="fill: none; stroke: #000000; stroke-width: 1.5; stroke-linecap: square"/>
   </g>
   <g id="line2d_44">
    <path d="M 81.9 325.08 
L 81.9 360.36 
" clip-path="url(#p82c935bcab)" style="fill: none; stroke: #000000; stroke-width: 1.5; stroke-linecap: square"/>
   </g>
   <g id="line2d_45">
    <path d="M 152.46 325.08 
L 117.18 325.08 
" clip-path="url(#p82c935bcab)" style="fill: none; stroke: #000000; stroke-width: 1.5; stroke-linecap: square"/>
   </g>
   <g id="line2d_46">
    <path d="M 117.18 325.08 
L 117.18 360.36 
" clip-path="url(#p82c935bcab)" style="fill: none; stroke: #000000; stroke-width: 1.5; stroke-linecap: square"/>
   </g>
   <g id="line2d_47">
    <path d="M 152.46 360.36 
L 187.74 360.36 
" clip-path="url(#p82c935bcab)" style="fill: none; stroke: #000000; stroke-width: 1.5; stroke-linecap: square"/>
   </g>
   <g id="line2d_48">
    <path d="M 187.74 360.36 
L 187.74 325.08 
" clip-path="url(#p82c935bcab)" style="fill: none; stroke: #000000; stroke-width: 1.5; stroke-linecap: square"/>
   </g>
   <g id="line2d_49">
    <path d="M 187.74 325.08 
L 152.46 325.08 
" clip-path="url(#p82c935bcab)" style="fill: none; stroke: #000000; stroke-width: 1.5; stroke-linecap: square"/>
   </g>
   <g id="line2d_50">
    <path d="M 187.74 360.36 
L 223.02 360.36 
" clip-path="url(#p82c935bcab)" style="fill: none; stroke: #000000; stroke-width: 1.5; stroke-linecap: square"/>
   </g>
   <g id="line2d_51">
    <path d="M 187.74 325.08 
L 187.74 360.36 
" clip-path="url(#p82c935bcab)" style="fill: none; stroke: #000000; stroke-width: 1.5; stroke-linecap: square"/>
   </g>
   <g id="line2d_52">
    <path d="M 223.02 360.36 
L 258.3 360.36 
" clip-path="url(#p82c935bcab)" style="fill: none; stroke: #000000; stroke-width: 1.5; stroke-linecap: square"/>
   </g>
   <g id="line2d_53">
    <path d="M 258.3 325.08 
L 223.02 325.08 
" clip-path="url(#p82c935bcab)" style="fill: none; stroke: #000000; stroke-width: 1.5; stroke-linecap: square"/>
   </g>
   <g id="line2d_54">
    <path d="M 258.3 360.36 
L 293.58 360.36 
" clip-path="url(#p82c935bcab)" style="fill: none; stroke: #000000; stroke-width: 1.5; stroke-linecap: square"/>
   </g>
   <g id="line2d_55">
    <path d="M 293.58 325.08 
L 258.3 325.08 
" clip-path="url(#p82c935bcab)" style="fill: none; stroke: #000000; stroke-width: 1.5; stroke-linecap: square"/>
   </g>
   <g id="line2d_56">
    <path d="M 293.58 360.36 
L 328.86 360.36 
" clip-path="url(#p82c935bcab)" style="fill: none; stroke: #000000; stroke-width: 1.5; stroke-linecap: square"/>
   </g>
   <g id="line2d_57">
    <path d="M 328.86 360.36 
L 328.86 325.08 
" clip-path="url(#p82c935bcab)" style="fill: none; stroke: #000000; stroke-width: 1.5; stroke-linecap: square"/>
   </g>
   <g id="line2d_58">
    <path d="M 364.14 360.36 
L 364.14 325.08 
" clip-path="url(#p82c935bcab)" style="fill: none; stroke: #000000; stroke-width: 1.5; stroke-linecap: square"/>
   </g>
   <g id="line2d_59">
    <path d="M 328.86 325.08 
L 328.86 360.36 
" clip-path="url(#p82c935bcab)" style="fill: none; stroke: #000000; stroke-width: 1.5; stroke-linecap: square"/>
   </g>
   <g id="line2d_60">
    <path d="M 364.14 360.36 
L 399.42 360.36 
" clip-path="url(#p82c935bcab)" style="fill: none; stroke: #000000; stroke-width: 1.5; stroke-linecap: square"/>
   </g>
   <g id="line2d_61">
    <path d="M 364.14 325.08 
L 364.14 360.36 
" clip-path="url(#p82c935bcab)" style="fill: none; stroke: #000000; stroke-width: 1.5; stroke-linecap: square"/>
   </g>
   <g id="line2d_62">
    <path d="M 434.7 360.36 
L 434.7 325.08 
" clip-path="url(#p82c935bcab)" style="fill: none; stroke: #000000; stroke-width: 1.5; stroke-linecap: square"/>
   </g>
   <g id="line2d_63">
    <path d="M 434.7 325.08 
L 399.42 325.08 
" clip-path="url(#p82c935bcab)" style="fill: none; stroke: #000000; stroke-width: 1.5; stroke-linecap: square"/>
   </g>
   <g id="line2d_64">
    <path d="M 81.9 289.8 
L 81.9 325.08 
" clip-path="url(#p82c935bcab)" style="fill: none; stroke: #000000; stroke-width: 1.5; stroke-linecap: square"/>
   </g>
   <g id="line2d_65">
    <path d="M 117.18 325.08 
L 152.46 325.08 
" clip-path="url(#p82c935bcab)" style="fill: none; stroke: #000000; stroke-width: 1.5; stroke-linecap: square"/>
   </g>
   <g id="line2d_66">
    <path d="M 152.46 289.8 
L 117.18 289.8 
" clip-path="url(#p82c935bcab)" style="fill: none; stroke: #000000; stroke-width: 1.5; stroke-linecap: square"/>
   </g>
   <g id="line2d_67">
    <path d="M 152.46 325.08 
L 187.74 325.08 
" clip-path="url(#p82c935bcab)" style="fill: none; stroke: #000000; stroke-width: 1.5; stroke-linecap: square"/>
   </g>
   <g id="line2d_68">
    <path d="M 187.74 325.08 
L 187.74 289.8 
" clip-path="url(#p82c935bcab)" style="fill: none; stroke: #000000; stroke-width: 1.5; stroke-linecap: square"/>
   </g>
   <g id="line2d_69">
    <path d="M 223.02 325.08 
L 223.02 289.8 
" clip-path="url(#p82c935bcab)" style="fill: none; stroke: #000000; stroke-width: 1.5; stroke-linecap: square"/>
   </g>
   <g id="line2d_70">
    <path d="M 187.74 289.8 
L 187.74 325.08 
" clip-path="url(#p82c935bcab)" style="fill: none; stroke: #000000; stroke-width: 1.5; stroke-linecap: square"/>
   </g>
   <g id="line2d_71">
    <path d="M 223.02 325.08 
L 258.3 325.08 
" clip-path="url(#p82c935bcab)" style="fill: none; stroke: #000000; stroke-width: 1.5; stroke-linecap: square"/>
   </g>
   <g id="line2d_72">
    <path d="M 223.02 289.8 
L 223.02 325.08 
" clip-path="url(#p82c935bcab)" style="fill: none; stroke: #000000; stroke-width: 1.5; stroke-linecap: square"/>
   </g>
   <g id="line2d_73">
    <path d="M 258.3 325.08 
L 293.58 325.08 
" clip-path="url(#p82c935bcab)" style="fill: none; stroke: #000000; stroke-width: 1.5; stroke-linecap: square"/>
   </g>
   <g id="line2d_74">
    <path d="M 293.58 325.08 
L 293.58 289.8 
" clip-path="url(#p82c935bcab)" style="fill: none; stroke: #000000; stroke-width: 1.5; stroke-linecap: square"/>
   </g>
   <g id="line2d_75">
    <path d="M 328.86 289.8 
L 293.58 289.8 
" clip-path="url(#p82c935bcab)" style="fill: none; stroke: #000000; stroke-width: 1.5; stroke-linecap: square"/>
   </g>
   <g id="line2d_76">
    <path d="M 293.58 289.8 
L 293.58 325.08 
" clip-path="url(#p82c935bcab)" style="fill: none; stroke: #000000; stroke-width: 1.5; stroke-linecap: square"/>
   </g>
   <g id="line2d_77">
    <path d="M 364.14 325.08 
L 364.14 289.8 
" clip-path="url(#p82c935bcab)" style="fill: none; stroke: #000000; stroke-width: 1.5; stroke-linecap: square"/>
   </g>
   <g id="line2d_78">
    <path d="M 364.14 289.8 
L 328.86 289.8 
" clip-path="url(#p82c935bcab)" style="fill: none; stroke: #000000; stroke-width: 1.5; stroke-linecap: square"/>
   </g>
   <g id="line2d_79">
    <path d="M 399.42 289.8 
L 364.14 289.8 
" clip-path="url(#p82c935bcab)" style="fill: none; stroke: #000000; stroke-width: 1.5; stroke-linecap: square"/>
   </g>
   <g id="line2d_80">
    <path d="M 364.14 289.8 
L 364.14 325.08 
" clip-path="url(#p82c935bcab)" style="fill: none; stroke: #000000; stroke-width: 1.5; stroke-linecap: square"/>
   </g>
   <g id="line2d_81">
    <path d="M 399.42 325.08 
L 434.7 325.08 
" clip-path="url(#p82c935bcab)" style="fill: none; stroke: #000000; stroke-width: 1.5; stroke-linecap: square"/>
   </g>
   <g id="line2d_82">
    <path d="M 434.7 325.08 
L 434.7 289.8 
" clip-path="url(#p82c935bcab)" style="fill: none; stroke: #000000; stroke-width: 1.5; stroke-linecap: square"/>
   </g>
   <g id="line2d_83">
    <path d="M 117.18 289.8 
L 117.18 254.52 
" clip-path="url(#p82c935bcab)" style="fill: none; stroke: #000000; stroke-width: 1.5; stroke-linecap: square"/>
   </g>
   <g id="line2d_84">
    <path d="M 81.9 254.52 
L 81.9 289.8 
" clip-path="url(#p82c935bcab)" style="fill: none; stroke: #000000; stroke-width: 1.5; stroke-linecap: square"/>
   </g>
   <g id="line2d_85">
    <path d="M 117.18 289.8 
L 152.46 289.8 
" clip-path="url(#p82c935bcab)" style="fill: none; stroke: #000000; stroke-width: 1.5; stroke-linecap: square"/>
   </g>
   <g id="line2d_86">
    <path d="M 152.46 289.8 
L 152.46 254.52 
" clip-path="url(#p82c935bcab)" style="fill: none; stroke: #000000; stroke-width: 1.5; stroke-linecap: square"/>
   </g>
   <g id="line2d_87">
    <path d="M 117.18 254.52 
L 117.18 289.8 
" clip-path="url(#p82c935bcab)" style="fill: none; stroke: #000000; stroke-width: 1.5; stroke-linecap: square"/>
   </g>
   <g id="line2d_88">
    <path d="M 187.74 254.52 
L 152.46 254.52 
" clip-path="url(#p82c935bcab)" style="fill: none; stroke: #000000; stroke-width: 1.5; stroke-linecap: square"/>
   </g>
   <g id="line2d_89">
    <path d="M 152.46 254.52 
L 152.46 289.8 
" clip-path="url(#p82c935bcab)" style="fill: none; stroke: #000000; stroke-width: 1.5; stroke-linecap: square"/>
   </g>
   <g id="line2d_90">
    <path d="M 223.02 289.8 
L 223.02 254.52 
" clip-path="url(#p82c935bcab)" style="fill: none; stroke: #000000; stroke-width: 1.5; stroke-linecap: square"/>
   </g>
   <g id="line2d_91">
    <path d="M 223.02 254.52 
L 187.74 254.52 
" clip-path="url(#p82c935bcab)" style="fill: none; stroke: #000000; stroke-width: 1.5; stroke-linecap: square"/>
   </g>
   <g id="line2d_92">
    <path d="M 258.3 289.8 
L 258.3 254.52 
" clip-path="url(#p82c935bcab)" style="fill: none; stroke: #000000; stroke-width: 1.5; stroke-linecap: square"/>
   </g>
   <g id="line2d_93">
    <path d="M 223.02 254.52 
L 223.02 289.8 
" clip-path="url(#p82c935bcab)" style="fill: none; stroke: #000000; stroke-width: 1.5; stroke-linecap: square"/>
   </g>
   <g id="line2d_94">
    <path d="M 293.58 289.8 
L 293.58 254.52 
" clip-path="url(#p82c935bcab)" style="fill: none; stroke: #000000; stroke-width: 1.5; stroke-linecap: square"/>
   </g>
   <g id="line2d_95">
    <path d="M 258.3 254.52 
L 258.3 289.8 
" clip-path="url(#p82c935bcab)" style="fill: none; stroke: #000000; stroke-width: 1.5; stroke-linecap: square"/>
   </g>
   <g id="line2d_96">
    <path d="M 293.58 289.8 
L 328.86 289.8 
" clip-path="url(#p82c935bcab)" style="fill: none; stroke: #000000; stroke-width: 1.5; stroke-linecap: square"/>
   </g>
   <g id="line2d_97">
    <path d="M 293.58 254.52 
L 293.58 289.8 
" clip-path="url(#p82c935bcab)" style="fill: none; stroke: #000000; stroke-width: 1.5; stroke-linecap: square"/>
   </g>
   <g id="line2d_98">
    <path d="M 328.86 289.8 
L 364.14 289.8 
" clip-path="url(#p82c935bcab)" style="fill: none; stroke: #000000; stroke-width: 1.5; stroke-linecap: square"/>
   </g>
   <g id="line2d_99">
    <path d="M 364.14 254.52 
L 328.86 254.52 
" clip-path="url(#p82c935bcab)" style="fill: none; stroke: #000000; stroke-width: 1.5; stroke-linecap: square"/>
   </g>
   <g id="line2d_100">
    <path d="M 364.14 289.8 
L 399.42 289.8 
" clip-path="url(#p82c935bcab)" style="fill: none; stroke: #000000; stroke-width: 1.5; stroke-linecap: square"/>
   </g>
   <g id="line2d_101">
    <path d="M 399.42 254.52 
L 364.14 254.52 
" clip-path="url(#p82c935bcab)" style="fill: none; stroke: #000000; stroke-width: 1.5; stroke-linecap: square"/>
   </g>
   <g id="line2d_102">
    <path d="M 434.7 289.8 
L 434.7 254.52 
" clip-path="url(#p82c935bcab)" style="fill: none; stroke: #000000; stroke-width: 1.5; stroke-linecap: square"/>
   </g>
   <g id="line2d_103">
    <path d="M 117.18 254.52 
L 117.18 219.24 
" clip-path="url(#p82c935bcab)" style="fill: none; stroke: #000000; stroke-width: 1.5; stroke-linecap: square"/>
   </g>
   <g id="line2d_104">
    <path d="M 81.9 219.24 
L 81.9 254.52 
" clip-path="url(#p82c935bcab)" style="fill: none; stroke: #000000; stroke-width: 1.5; stroke-linecap: square"/>
   </g>
   <g id="line2d_105">
    <path d="M 152.46 219.24 
L 117.18 219.24 
" clip-path="url(#p82c935bcab)" style="fill: none; stroke: #000000; stroke-width: 1.5; stroke-linecap: square"/>
   </g>
   <g id="line2d_106">
    <path d="M 117.18 219.24 
L 117.18 254.52 
" clip-path="url(#p82c935bcab)" style="fill: none; stroke: #000000; stroke-width: 1.5; stroke-linecap: square"/>
   </g>
   <g id="line2d_107">
    <path d="M 152.46 254.52 
L 187.74 254.52 
" clip-path="url(#p82c935bcab)" style="fill: none; stroke: #000000; stroke-width: 1.5; stroke-linecap: square"/>
   </g>
   <g id="line2d_108">
    <path d="M 187.74 219.24 
L 152.46 219.24 
" clip-path="url(#p82c935bcab)" style="fill: none; stroke: #000000; stroke-width: 1.5; stroke-linecap: square"/>
   </g>
   <g id="line2d_109">
    <path d="M 187.74 254.52 
L 223.02 254.52 
" clip-path="url(#p82c935bcab)" style="fill: none; stroke: #000000; stroke-width: 1.5; stroke-linecap: square"/>
   </g>
   <g id="line2d_110">
    <path d="M 258.3 254.52 
L 258.3 219.24 
" clip-path="url(#p82c935bcab)" style="fill: none; stroke: #000000; stroke-width: 1.5; stroke-linecap: square"/>
   </g>
   <g id="line2d_111">
    <path d="M 258.3 219.24 
L 223.02 219.24 
" clip-path="url(#p82c935bcab)" style="fill: none; stroke: #000000; stroke-width: 1.5; stroke-linecap: square"/>
   </g>
   <g id="line2d_112">
    <path d="M 293.58 219.24 
L 258.3 219.24 
" clip-path="url(#p82c935bcab)" style="fill: none; stroke: #000000; stroke-width: 1.5; stroke-linecap: square"/>
   </g>
   <g id="line2d_113">
    <path d="M 258.3 219.24 
L 258.3 254.52 
" clip-path="url(#p82c935bcab)" style="fill: none; stroke: #000000; stroke-width: 1.5; stroke-linecap: square"/>
   </g>
   <g id="line2d_114">
    <path d="M 328.86 254.52 
L 328.86 219.24 
" clip-path="url(#p82c935bcab)" style="fill: none; stroke: #000000; stroke-width: 1.5; stroke-linecap: square"/>
   </g>
   <g id="line2d_115">
    <path d="M 328.86 219.24 
L 293.58 219.24 
" clip-path="url(#p82c935bcab)" style="fill: none; stroke: #000000; stroke-width: 1.5; stroke-linecap: square"/>
   </g>
   <g id="line2d_116">
    <path d="M 328.86 254.52 
L 364.14 254.52 
" clip-path="url(#p82c935bcab)" style="fill: none; stroke: #000000; stroke-width: 1.5; stroke-linecap: square"/>
   </g>
   <g id="line2d_117">
    <path d="M 364.14 254.52 
L 364.14 219.24 
" clip-path="url(#p82c935bcab)" style="fill: none; stroke: #000000; stroke-width: 1.5; stroke-linecap: square"/>
   </g>
   <g id="line2d_118">
    <path d="M 328.86 219.24 
L 328.86 254.52 
" clip-path="url(#p82c935bcab)" style="fill: none; stroke: #000000; stroke-width: 1.5; stroke-linecap: square"/>
   </g>
   <g id="line2d_119">
    <path d="M 364.14 254.52 
L 399.42 254.52 
" clip-path="url(#p82c935bcab)" style="fill: none; stroke: #000000; stroke-width: 1.5; stroke-linecap: square"/>
   </g>
   <g id="line2d_120">
    <path d="M 364.14 219.24 
L 364.14 254.52 
" clip-path="url(#p82c935bcab)" style="fill: none; stroke: #000000; stroke-width: 1.5; stroke-linecap: square"/>
   </g>
   <g id="line2d_121">
    <path d="M 434.7 254.52 
L 434.7 219.24 
" clip-path="url(#p82c935bcab)" style="fill: none; stroke: #000000; stroke-width: 1.5; stroke-linecap: square"/>
   </g>
   <g id="line2d_122">
    <path d="M 434.7 219.24 
L 399.42 219.24 
" clip-path="url(#p82c935bcab)" style="fill: none; stroke: #000000; stroke-width: 1.5; stroke-linecap: square"/>
   </g>
   <g id="line2d_123">
    <path d="M 117.18 183.96 
L 81.9 183.96 
" clip-path="url(#p82c935bcab)" style="fill: none; stroke: #000000; stroke-width: 1.5; stroke-linecap: square"/>
   </g>
   <g id="line2d_124">
    <path d="M 81.9 183.96 
L 81.9 219.24 
" clip-path="url(#p82c935bcab)" style="fill: none; stroke: #000000; stroke-width: 1.5; stroke-linecap: square"/>
   </g>
   <g id="line2d_125">
    <path d="M 117.18 219.24 
L 152.46 219.24 
" clip-path="url(#p82c935bcab)" style="fill: none; stroke: #000000; stroke-width: 1.5; stroke-linecap: square"/>
   </g>
   <g id="line2d_126">
    <path d="M 152.46 183.96 
L 117.18 183.96 
" clip-path="url(#p82c935bcab)" style="fill: none; stroke: #000000; stroke-width: 1.5; stroke-linecap: square"/>
   </g>
   <g id="line2d_127">
    <path d="M 152.46 219.24 
L 187.74 219.24 
" clip-path="url(#p82c935bcab)" style="fill: none; stroke: #000000; stroke-width: 1.5; stroke-linecap: square"/>
   </g>
   <g id="line2d_128">
    <path d="M 187.74 219.24 
L 187.74 183.96 
" clip-path="url(#p82c935bcab)" style="fill: none; stroke: #000000; stroke-width: 1.5; stroke-linecap: square"/>
   </g>
   <g id="line2d_129">
    <path d="M 187.74 183.96 
L 187.74 219.24 
" clip-path="url(#p82c935bcab)" style="fill: none; stroke: #000000; stroke-width: 1.5; stroke-linecap: square"/>
   </g>
   <g id="line2d_130">
    <path d="M 223.02 219.24 
L 258.3 219.24 
" clip-path="url(#p82c935bcab)" style="fill: none; stroke: #000000; stroke-width: 1.5; stroke-linecap: square"/>
   </g>
   <g id="line2d_131">
    <path d="M 258.3 219.24 
L 258.3 183.96 
" clip-path="url(#p82c935bcab)" style="fill: none; stroke: #000000; stroke-width: 1.5; stroke-linecap: square"/>
   </g>
   <g id="line2d_132">
    <path d="M 258.3 219.24 
L 293.58 219.24 
" clip-path="url(#p82c935bcab)" style="fill: none; stroke: #000000; stroke-width: 1.5; stroke-linecap: square"/>
   </g>
   <g id="line2d_133">
    <path d="M 293.58 183.96 
L 258.3 183.96 
" clip-path="url(#p82c935bcab)" style="fill: none; stroke: #000000; stroke-width: 1.5; stroke-linecap: square"/>
   </g>
   <g id="line2d_134">
    <path d="M 258.3 183.96 
L 258.3 219.24 
" clip-path="url(#p82c935bcab)" style="fill: none; stroke: #000000; stroke-width: 1.5; stroke-linecap: square"/>
   </g>
   <g id="line2d_135">
    <path d="M 293.58 219.24 
L 328.86 219.24 
" clip-path="url(#p82c935bcab)" style="fill: none; stroke: #000000; stroke-width: 1.5; stroke-linecap: square"/>
   </g>
   <g id="line2d_136">
    <path d="M 364.14 183.96 
L 328.86 183.96 
" clip-path="url(#p82c935bcab)" style="fill: none; stroke: #000000; stroke-width: 1.5; stroke-linecap: square"/>
   </g>
   <g id="line2d_137">
    <path d="M 399.42 219.24 
L 399.42 183.96 
" clip-path="url(#p82c935bcab)" style="fill: none; stroke: #000000; stroke-width: 1.5; stroke-linecap: square"/>
   </g>
   <g id="line2d_138">
    <path d="M 399.42 183.96 
L 364.14 183.96 
" clip-path="url(#p82c935bcab)" style="fill: none; stroke: #000000; stroke-width: 1.5; stroke-linecap: square"/>
   </g>
   <g id="line2d_139">
    <path d="M 399.42 219.24 
L 434.7 219.24 
" clip-path="url(#p82c935bcab)" style="fill: none; stroke: #000000; stroke-width: 1.5; stroke-linecap: square"/>
   </g>
   <g id="line2d_140">
    <path d="M 434.7 219.24 
L 434.7 183.96 
" clip-path="url(#p82c935bcab)" style="fill: none; stroke: #000000; stroke-width: 1.5; stroke-linecap: square"/>
   </g>
   <g id="line2d_141">
    <path d="M 399.42 183.96 
L 399.42 219.24 
" clip-path="url(#p82c935bcab)" style="fill: none; stroke: #000000; stroke-width: 1.5; stroke-linecap: square"/>
   </g>
   <g id="line2d_142">
    <path d="M 81.9 183.96 
L 117.18 183.96 
" clip-path="url(#p82c935bcab)" style="fill: none; stroke: #000000; stroke-width: 1.5; stroke-linecap: square"/>
   </g>
   <g id="line2d_143">
    <path d="M 81.9 148.68 
L 81.9 183.96 
" clip-path="url(#p82c935bcab)" style="fill: none; stroke: #000000; stroke-width: 1.5; stroke-linecap: square"/>
   </g>
   <g id="line2d_144">
    <path d="M 117.18 183.96 
L 152.46 183.96 
" clip-path="url(#p82c935bcab)" style="fill: none; stroke: #000000; stroke-width: 1.5; stroke-linecap: square"/>
   </g>
   <g id="line2d_145">
    <path d="M 152.46 183.96 
L 152.46 148.68 
" clip-path="url(#p82c935bcab)" style="fill: none; stroke: #000000; stroke-width: 1.5; stroke-linecap: square"/>
   </g>
   <g id="line2d_146">
    <path d="M 152.46 148.68 
L 117.18 148.68 
" clip-path="url(#p82c935bcab)" style="fill: none; stroke: #000000; stroke-width: 1.5; stroke-linecap: square"/>
   </g>
   <g id="line2d_147">
    <path d="M 187.74 183.96 
L 187.74 148.68 
" clip-path="url(#p82c935bcab)" style="fill: none; stroke: #000000; stroke-width: 1.5; stroke-linecap: square"/>
   </g>
   <g id="line2d_148">
    <path d="M 152.46 148.68 
L 152.46 183.96 
" clip-path="url(#p82c935bcab)" style="fill: none; stroke: #000000; stroke-width: 1.5; stroke-linecap: square"/>
   </g>
   <g id="line2d_149">
    <path d="M 223.02 183.96 
L 223.02 148.68 
" clip-path="url(#p82c935bcab)" style="fill: none; stroke: #000000; stroke-width: 1.5; stroke-linecap: square"/>
   </g>
   <g id="line2d_150">
    <path d="M 223.02 148.68 
L 187.74 148.68 
" clip-path="url(#p82c935bcab)" style="fill: none; stroke: #000000; stroke-width: 1.5; stroke-linecap: square"/>
   </g>
   <g id="line2d_151">
    <path d="M 187.74 148.68 
L 187.74 183.96 
" clip-path="url(#p82c935bcab)" style="fill: none; stroke: #000000; stroke-width: 1.5; stroke-linecap: square"/>
   </g>
   <g id="line2d_152">
    <path d="M 258.3 148.68 
L 223.02 148.68 
" clip-path="url(#p82c935bcab)" style="fill: none; stroke: #000000; stroke-width: 1.5; stroke-linecap: square"/>
   </g>
   <g id="line2d_153">
    <path d="M 223.02 148.68 
L 223.02 183.96 
" clip-path="url(#p82c935bcab)" style="fill: none; stroke: #000000; stroke-width: 1.5; stroke-linecap: square"/>
   </g>
   <g id="line2d_154">
    <path d="M 258.3 183.96 
L 293.58 183.96 
" clip-path="url(#p82c935bcab)" style="fill: none; stroke: #000000; stroke-width: 1.5; stroke-linecap: square"/>
   </g>
   <g id="line2d_155">
    <path d="M 293.58 183.96 
L 293.58 148.68 
" clip-path="url(#p82c935bcab)" style="fill: none; stroke: #000000; stroke-width: 1.5; stroke-linecap: square"/>
   </g>
   <g id="line2d_156">
    <path d="M 328.86 183.96 
L 328.86 148.68 
" clip-path="url(#p82c935bcab)" style="fill: none; stroke: #000000; stroke-width: 1.5; stroke-linecap: square"/>
   </g>
   <g id="line2d_157">
    <path d="M 293.58 148.68 
L 293.58 183.96 
" clip-path="url(#p82c935bcab)" style="fill: none; stroke: #000000; stroke-width: 1.5; stroke-linecap: square"/>
   </g>
   <g id="line2d_158">
    <path d="M 328.86 183.96 
L 364.14 183.96 
" clip-path="url(#p82c935bcab)" style="fill: none; stroke: #000000; stroke-width: 1.5; stroke-linecap: square"/>
   </g>
   <g id="line2d_159">
    <path d="M 328.86 148.68 
L 328.86 183.96 
" clip-path="url(#p82c935bcab)" style="fill: none; stroke: #000000; stroke-width: 1.5; stroke-linecap: square"/>
   </g>
   <g id="line2d_160">
    <path d="M 364.14 183.96 
L 399.42 183.96 
" clip-path="url(#p82c935bcab)" style="fill: none; stroke: #000000; stroke-width: 1.5; stroke-linecap: square"/>
   </g>
   <g id="line2d_161">
    <path d="M 399.42 148.68 
L 364.14 148.68 
" clip-path="url(#p82c935bcab)" style="fill: none; stroke: #000000; stroke-width: 1.5; stroke-linecap: square"/>
   </g>
   <g id="line2d_162">
    <path d="M 434.7 183.96 
L 434.7 148.68 
" clip-path="url(#p82c935bcab)" style="fill: none; stroke: #000000; stroke-width: 1.5; stroke-linecap: square"/>
   </g>
   <g id="line2d_163">
    <path d="M 117.18 148.68 
L 117.18 113.4 
" clip-path="url(#p82c935bcab)" style="fill: none; stroke: #000000; stroke-width: 1.5; stroke-linecap: square"/>
   </g>
   <g id="line2d_164">
    <path d="M 81.9 113.4 
L 81.9 148.68 
" clip-path="url(#p82c935bcab)" style="fill: none; stroke: #000000; stroke-width: 1.5; stroke-linecap: square"/>
   </g>
   <g id="line2d_165">
    <path d="M 117.18 148.68 
L 152.46 148.68 
" clip-path="url(#p82c935bcab)" style="fill: none; stroke: #000000; stroke-width: 1.5; stroke-linecap: square"/>
   </g>
   <g id="line2d_166">
    <path d="M 117.18 113.4 
L 117.18 148.68 
" clip-path="url(#p82c935bcab)" style="fill: none; stroke: #000000; stroke-width: 1.5; stroke-linecap: square"/>
   </g>
   <g id="line2d_167">
    <path d="M 187.74 148.68 
L 187.74 113.4 
" clip-path="url(#p82c935bcab)" style="fill: none; stroke: #000000; stroke-width: 1.5; stroke-linecap: square"/>
   </g>
   <g id="line2d_168">
    <path d="M 187.74 113.4 
L 152.46 113.4 
" clip-path="url(#p82c935bcab)" style="fill: none; stroke: #000000; stroke-width: 1.5; stroke-linecap: square"/>
   </g>
   <g id="line2d_169">
    <path d="M 187.74 148.68 
L 223.02 148.68 
" clip-path="url(#p82c935bcab)" style="fill: none; stroke: #000000; stroke-width: 1.5; stroke-linecap: square"/>
   </g>
   <g id="line2d_170">
    <path d="M 187.74 113.4 
L 187.74 148.68 
" clip-path="url(#p82c935bcab)" style="fill: none; stroke: #000000; stroke-width: 1.5; stroke-linecap: square"/>
   </g>
   <g id="line2d_171">
    <path d="M 223.02 148.68 
L 258.3 148.68 
" clip-path="url(#p82c935bcab)" style="fill: none; stroke: #000000; stroke-width: 1.5; stroke-linecap: square"/>
   </g>
   <g id="line2d_172">
    <path d="M 258.3 148.68 
L 258.3 113.4 
" clip-path="url(#p82c935bcab)" style="fill: none; stroke: #000000; stroke-width: 1.5; stroke-linecap: square"/>
   </g>
   <g id="line2d_173">
    <path d="M 293.58 148.68 
L 293.58 113.4 
" clip-path="url(#p82c935bcab)" style="fill: none; stroke: #000000; stroke-width: 1.5; stroke-linecap: square"/>
   </g>
   <g id="line2d_174">
    <path d="M 258.3 113.4 
L 258.3 148.68 
" clip-path="url(#p82c935bcab)" style="fill: none; stroke: #000000; stroke-width: 1.5; stroke-linecap: square"/>
   </g>
   <g id="line2d_175">
    <path d="M 328.86 148.68 
L 328.86 113.4 
" clip-path="url(#p82c935bcab)" style="fill: none; stroke: #000000; stroke-width: 1.5; stroke-linecap: square"/>
   </g>
   <g id="line2d_176">
    <path d="M 293.58 113.4 
L 293.58 148.68 
" clip-path="url(#p82c935bcab)" style="fill: none; stroke: #000000; stroke-width: 1.5; stroke-linecap: square"/>
   </g>
   <g id="line2d_177">
    <path d="M 364.14 113.4 
L 328.86 113.4 
" clip-path="url(#p82c935bcab)" style="fill: none; stroke: #000000; stroke-width: 1.5; stroke-linecap: square"/>
   </g>
   <g id="line2d_178">
    <path d="M 328.86 113.4 
L 328.86 148.68 
" clip-path="url(#p82c935bcab)" style="fill: none; stroke: #000000; stroke-width: 1.5; stroke-linecap: square"/>
   </g>
   <g id="line2d_179">
    <path d="M 364.14 148.68 
L 399.42 148.68 
" clip-path="url(#p82c935bcab)" style="fill: none; stroke: #000000; stroke-width: 1.5; stroke-linecap: square"/>
   </g>
   <g id="line2d_180">
    <path d="M 399.42 148.68 
L 399.42 113.4 
" clip-path="url(#p82c935bcab)" style="fill: none; stroke: #000000; stroke-width: 1.5; stroke-linecap: square"/>
   </g>
   <g id="line2d_181">
    <path d="M 399.42 113.4 
L 399.42 148.68 
" clip-path="url(#p82c935bcab)" style="fill: none; stroke: #000000; stroke-width: 1.5; stroke-linecap: square"/>
   </g>
   <g id="line2d_182">
    <path d="M 117.18 78.12 
L 81.9 78.12 
" clip-path="url(#p82c935bcab)" style="fill: none; stroke: #000000; stroke-width: 1.5; stroke-linecap: square"/>
   </g>
   <g id="line2d_183">
    <path d="M 81.9 78.12 
L 81.9 113.4 
" clip-path="url(#p82c935bcab)" style="fill: none; stroke: #000000; stroke-width: 1.5; stroke-linecap: square"/>
   </g>
   <g id="line2d_184">
    <path d="M 152.46 78.12 
L 117.18 78.12 
" clip-path="url(#p82c935bcab)" style="fill: none; stroke: #000000; stroke-width: 1.5; stroke-linecap: square"/>
   </g>
   <g id="line2d_185">
    <path d="M 152.46 113.4 
L 187.74 113.4 
" clip-path="url(#p82c935bcab)" style="fill: none; stroke: #000000; stroke-width: 1.5; stroke-linecap: square"/>
   </g>
   <g id="line2d_186">
    <path d="M 187.74 78.12 
L 152.46 78.12 
" clip-path="url(#p82c935bcab)" style="fill: none; stroke: #000000; stroke-width: 1.5; stroke-linecap: square"/>
   </g>
   <g id="line2d_187">
    <path d="M 223.02 113.4 
L 223.02 78.12 
" clip-path="url(#p82c935bcab)" style="fill: none; stroke: #000000; stroke-width: 1.5; stroke-linecap: square"/>
   </g>
   <g id="line2d_188">
    <path d="M 223.02 78.12 
L 187.74 78.12 
" clip-path="url(#p82c935bcab)" style="fill: none; stroke: #000000; stroke-width: 1.5; stroke-linecap: square"/>
   </g>
   <g id="line2d_189">
    <path d="M 258.3 78.12 
L 223.02 78.12 
" clip-path="url(#p82c935bcab)" style="fill: none; stroke: #000000; stroke-width: 1.5; stroke-linecap: square"/>
   </g>
   <g id="line2d_190">
    <path d="M 223.02 78.12 
L 223.02 113.4 
" clip-path="url(#p82c935bcab)" style="fill: none; stroke: #000000; stroke-width: 1.5; stroke-linecap: square"/>
   </g>
   <g id="line2d_191">
    <path d="M 293.58 113.4 
L 293.58 78.12 
" clip-path="url(#p82c935bcab)" style="fill: none; stroke: #000000; stroke-width: 1.5; stroke-linecap: square"/>
   </g>
   <g id="line2d_192">
    <path d="M 328.86 78.12 
L 293.58 78.12 
" clip-path="url(#p82c935bcab)" style="fill: none; stroke: #000000; stroke-width: 1.5; stroke-linecap: square"/>
   </g>
   <g id="line2d_193">
    <path d="M 293.58 78.12 
L 293.58 113.4 
" clip-path="url(#p82c935bcab)" style="fill: none; stroke: #000000; stroke-width: 1.5; stroke-linecap: square"/>
   </g>
   <g id="line2d_194">
    <path d="M 328.86 113.4 
L 364.14 113.4 
" clip-path="url(#p82c935bcab)" style="fill: none; stroke: #000000; stroke-width: 1.5; stroke-linecap: square"/>
   </g>
   <g id="line2d_195">
    <path d="M 364.14 78.12 
L 328.86 78.12 
" clip-path="url(#p82c935bcab)" style="fill: none; stroke: #000000; stroke-width: 1.5; stroke-linecap: square"/>
   </g>
   <g id="line2d_196">
    <path d="M 399.42 113.4 
L 399.42 78.12 
" clip-path="url(#p82c935bcab)" style="fill: none; stroke: #000000; stroke-width: 1.5; stroke-linecap: square"/>
   </g>
   <g id="line2d_197">
    <path d="M 399.42 78.12 
L 364.14 78.12 
" clip-path="url(#p82c935bcab)" style="fill: none; stroke: #000000; stroke-width: 1.5; stroke-linecap: square"/>
   </g>
   <g id="line2d_198">
    <path d="M 434.7 113.4 
L 434.7 78.12 
" clip-path="url(#p82c935bcab)" style="fill: none; stroke: #000000; stroke-width: 1.5; stroke-linecap: square"/>
   </g>
   <g id="line2d_199">
    <path d="M 434.7 78.12 
L 399.42 78.12 
" clip-path="url(#p82c935bcab)" style="fill: none; stroke: #000000; stroke-width: 1.5; stroke-linecap: square"/>
   </g>
   <g id="line2d_200">
    <path d="M 399.42 78.12 
L 399.42 113.4 
" clip-path="url(#p82c935bcab)" style="fill: none; stroke: #000000; stroke-width: 1.5; stroke-linecap: square"/>
   </g>
   <g id="patch_37">
    <path d="M 64.26 448.56 
L 64.26 60.48 
" style="fill: none; stroke: #000000; stroke-width: 0.8; stroke-linejoin: miter; stroke-linecap: square"/>
   </g>
   <g id="patch_38">
    <path d="M 452.34 448.56 
L 452.34 60.48 
" style="fill: none; stroke: #000000; stroke-width: 0.8; stroke-linejoin: miter; stroke-linecap: square"/>
   </g>
   <g id="patch_39">
    <path d="M 64.26 448.56 
L 452.34 448.56 
" style="fill: none; stroke: #000000; stroke-width: 0.8; stroke-linejoin: miter; stroke-linecap: square"/>
   </g>
   <g id="patch_40">
    <path d="M 64.26 60.48 
L 452.34 60.48 
" style="fill: none; stroke: #000000; stroke-width: 0.8; stroke-linejoin: miter; stroke-linecap: square"/>
   </g>
   <g id="text_1">
    <!-- START -->
    <g transform="translate(399.42 148.68)scale(0.07 -0.07)">
     <defs>
      <path id="DejaVuSans-Bold-53" d="M 3834 4519 
L 3834 3531 
Q 3450 3703 3084 3790 
Q 2719 3878 2394 3878 
Q 1963 3878 1756 3759 
Q 1550 3641 1550 3391 
Q 1550 3203 1689 3098 
Q 1828 2994 2194 2919 
L 2706 2816 
Q 3484 2659 3812 2340 
Q 4141 2022 4141 1434 
Q 4141 663 3683 286 
Q 3225 -91 2284 -91 
Q 1841 -91 1394 -6 
Q 947 78 500 244 
L 500 1259 
Q 947 1022 1364 901 
Q 1781 781 2169 781 
Q 2563 781 2772 912 
Q 2981 1044 2981 1288 
Q 2981 1506 2839 1625 
Q 2697 1744 2272 1838 
L 1806 1941 
Q 1106 2091 782 2419 
Q 459 2747 459 3303 
Q 459 4000 909 4375 
Q 1359 4750 2203 4750 
Q 2588 4750 2994 4692 
Q 3400 4634 3834 4519 
z
" transform="scale(0.015625)"/>
      <path id="DejaVuSans-Bold-54" d="M 31 4666 
L 4331 4666 
L 4331 3756 
L 2784 3756 
L 2784 0 
L 1581 0 
L 1581 3756 
L 31 3756 
L 31 4666 
z
" transform="scale(0.015625)"/>
      <path id="DejaVuSans-Bold-41" d="M 3419 850 
L 1538 850 
L 1241 0 
L 31 0 
L 1759 4666 
L 3194 4666 
L 4922 0 
L 3713 0 
L 3419 850 
z
M 1838 1716 
L 3116 1716 
L 2478 3572 
L 1838 1716 
z
" transform="scale(0.015625)"/>
      <path id="DejaVuSans-Bold-52" d="M 2297 2597 
Q 2675 2597 2839 2737 
Q 3003 2878 3003 3200 
Q 3003 3519 2839 3656 
Q 2675 3794 2297 3794 
L 1791 3794 
L 1791 2597 
L 2297 2597 
z
M 1791 1766 
L 1791 0 
L 588 0 
L 588 4666 
L 2425 4666 
Q 3347 4666 3776 4356 
Q 4206 4047 4206 3378 
Q 4206 2916 3982 2619 
Q 3759 2322 3309 2181 
Q 3556 2125 3751 1926 
Q 3947 1728 4147 1325 
L 4800 0 
L 3519 0 
L 2950 1159 
Q 2778 1509 2601 1637 
Q 2425 1766 2131 1766 
L 1791 1766 
z
" transform="scale(0.015625)"/>
     </defs>
     <use xlink:href="#DejaVuSans-Bold-53"/>
     <use xlink:href="#DejaVuSans-Bold-54" x="72.021484"/>
     <use xlink:href="#DejaVuSans-Bold-41" x="132.484375"/>
     <use xlink:href="#DejaVuSans-Bold-52" x="209.876953"/>
     <use xlink:href="#DejaVuSans-Bold-54" x="282.378906"/>
    </g>
   </g>
   <g id="text_2">
    <!-- END -->
    <g transform="translate(258.3 113.4)scale(0.07 -0.07)">
     <defs>
      <path id="DejaVuSans-Bold-45" d="M 588 4666 
L 3834 4666 
L 3834 3756 
L 1791 3756 
L 1791 2888 
L 3713 2888 
L 3713 1978 
L 1791 1978 
L 1791 909 
L 3903 909 
L 3903 0 
L 588 0 
L 588 4666 
z
" transform="scale(0.015625)"/>
      <path id="DejaVuSans-Bold-4e" d="M 588 4666 
L 1931 4666 
L 3628 1466 
L 3628 4666 
L 4769 4666 
L 4769 0 
L 3425 0 
L 1728 3200 
L 1728 0 
L 588 0 
L 588 4666 
z
" transform="scale(0.015625)"/>
      <path id="DejaVuSans-Bold-44" d="M 1791 3756 
L 1791 909 
L 2222 909 
Q 2959 909 3348 1275 
Q 3738 1641 3738 2338 
Q 3738 3031 3350 3393 
Q 2963 3756 2222 3756 
L 1791 3756 
z
M 588 4666 
L 1856 4666 
Q 2919 4666 3439 4514 
Q 3959 4363 4331 4000 
Q 4659 3684 4818 3271 
Q 4978 2859 4978 2338 
Q 4978 1809 4818 1395 
Q 4659 981 4331 666 
Q 3956 303 3431 151 
Q 2906 0 1856 0 
L 588 0 
L 588 4666 
z
" transform="scale(0.015625)"/>
     </defs>
     <use xlink:href="#DejaVuSans-Bold-45"/>
     <use xlink:href="#DejaVuSans-Bold-4e" x="68.310547"/>
     <use xlink:href="#DejaVuSans-Bold-44" x="152.001953"/>
    </g>
   </g>
  </g>
 </g>
 <defs>
  <clipPath id="p82c935bcab">
   <rect x="64.26" y="60.48" width="388.08" height="388.08"/>
  </clipPath>
 </defs>
</svg>
