<?xml version="1.0" encoding="utf-8" standalone="no"?>
<!DOCTYPE svg PUBLIC "-//W3C//DTD SVG 1.1//EN"
  "http://www.w3.org/Graphics/SVG/1.1/DTD/svg11.dtd">
<svg xmlns:xlink="http://www.w3.org/1999/xlink" width="504pt" height="504pt" viewBox="0 0 504 504" xmlns="http://www.w3.org/2000/svg" version="1.1">
 <metadata>
  <rdf:RDF xmlns:dc="http://purl.org/dc/elements/1.1/" xmlns:cc="http://creativecommons.org/ns#" xmlns:rdf="http://www.w3.org/1999/02/22-rdf-syntax-ns#">
   <cc:Work>
    <dc:type rdf:resource="http://purl.org/dc/dcmitype/StillImage"/>
    <dc:date>2022-03-20T09:18:59.469249</dc:date>
    <dc:format>image/svg+xml</dc:format>
    <dc:creator>
     <cc:Agent>
      <dc:title>Matplotlib v3.5.1, https://matplotlib.org/</dc:title>
     </cc:Agent>
    </dc:creator>
   </cc:Work>
  </rdf:RDF>
 </metadata>
 <defs>
  <style type="text/css">*{stroke-linejoin: round; stroke-linecap: butt}</style>
 </defs>
 <g id="figure_1">
  <g id="patch_1">
   <path d="M 0 504 
L 504 504 
L 504 0 
L 0 0 
z
" style="fill: #ffffff"/>
  </g>
  <g id="axes_1">
   <g id="patch_2">
    <path d="M 64.26 448.56 
L 452.34 448.56 
L 452.34 60.48 
L 64.26 60.48 
z
" style="fill: #ffffff"/>
   </g>
   <g id="patch_3">
    <path d="M 311.22 420.336 
C 313.091273 420.336 314.886156 419.592535 316.209345 418.269345 
C 317.532535 416.946156 318.276 415.151273 318.276 413.28 
C 318.276 411.408727 317.532535 409.613844 316.209345 408.290655 
C 314.886156 406.967465 313.091273 406.224 311.22 406.224 
C 309.348727 406.224 307.553844 406.967465 306.230655 408.290655 
C 304.907465 409.613844 304.164 411.408727 304.164 413.28 
C 304.164 415.151273 304.907465 416.946156 306.230655 418.269345 
C 307.553844 419.592535 309.348727 420.336 311.22 420.336 
z
" clip-path="url(#p6ecae1138b)" style="opacity: 0.4"/>
   </g>
   <g id="patch_4">
    <path d="M 311.22 385.056 
C 313.091273 385.056 314.886156 384.312535 316.209345 382.989345 
C 317.532535 381.666156 318.276 379.871273 318.276 378 
C 318.276 376.128727 317.532535 374.333844 316.209345 373.010655 
C 314.886156 371.687465 313.091273 370.944 311.22 370.944 
C 309.348727 370.944 307.553844 371.687465 306.230655 373.010655 
C 304.907465 374.333844 304.164 376.128727 304.164 378 
C 304.164 379.871273 304.907465 381.666156 306.230655 382.989345 
C 307.553844 384.312535 309.348727 385.056 311.22 385.056 
z
" clip-path="url(#p6ecae1138b)" style="fill: #000700; opacity: 0.4"/>
   </g>
   <g id="patch_5">
    <path d="M 346.5 385.056 
C 348.371273 385.056 350.166156 384.312535 351.489345 382.989345 
C 352.812535 381.666156 353.556 379.871273 353.556 378 
C 353.556 376.128727 352.812535 374.333844 351.489345 373.010655 
C 350.166156 371.687465 348.371273 370.944 346.5 370.944 
C 344.628727 370.944 342.833844 371.687465 341.510655 373.010655 
C 340.187465 374.333844 339.444 376.128727 339.444 378 
C 339.444 379.871273 340.187465 381.666156 341.510655 382.989345 
C 342.833844 384.312535 344.628727 385.056 346.5 385.056 
z
" clip-path="url(#p6ecae1138b)" style="fill: #000d00; opacity: 0.4"/>
   </g>
   <g id="patch_6">
    <path d="M 346.5 349.776 
C 348.371273 349.776 350.166156 349.032535 351.489345 347.709345 
C 352.812535 346.386156 353.556 344.591273 353.556 342.72 
C 353.556 340.848727 352.812535 339.053844 351.489345 337.730655 
C 350.166156 336.407465 348.371273 335.664 346.5 335.664 
C 344.628727 335.664 342.833844 336.407465 341.510655 337.730655 
C 340.187465 339.053844 339.444 340.848727 339.444 342.72 
C 339.444 344.591273 340.187465 346.386156 341.510655 347.709345 
C 342.833844 349.032535 344.628727 349.776 346.5 349.776 
z
" clip-path="url(#p6ecae1138b)" style="fill: #001400; opacity: 0.4"/>
   </g>
   <g id="patch_7">
    <path d="M 381.78 349.776 
C 383.651273 349.776 385.446156 349.032535 386.769345 347.709345 
C 388.092535 346.386156 388.836 344.591273 388.836 342.72 
C 388.836 340.848727 388.092535 339.053844 386.769345 337.730655 
C 385.446156 336.407465 383.651273 335.664 381.78 335.664 
C 379.908727 335.664 378.113844 336.407465 376.790655 337.730655 
C 375.467465 339.053844 374.724 340.848727 374.724 342.72 
C 374.724 344.591273 375.467465 346.386156 376.790655 347.709345 
C 378.113844 349.032535 379.908727 349.776 381.78 349.776 
z
" clip-path="url(#p6ecae1138b)" style="fill: #001b00; opacity: 0.4"/>
   </g>
   <g id="patch_8">
    <path d="M 417.06 349.776 
C 418.931273 349.776 420.726156 349.032535 422.049345 347.709345 
C 423.372535 346.386156 424.116 344.591273 424.116 342.72 
C 424.116 340.848727 423.372535 339.053844 422.049345 337.730655 
C 420.726156 336.407465 418.931273 335.664 417.06 335.664 
C 415.188727 335.664 413.393844 336.407465 412.070655 337.730655 
C 410.747465 339.053844 410.004 340.848727 410.004 342.72 
C 410.004 344.591273 410.747465 346.386156 412.070655 347.709345 
C 413.393844 349.032535 415.188727 349.776 417.06 349.776 
z
" clip-path="url(#p6ecae1138b)" style="fill: #002200; opacity: 0.4"/>
   </g>
   <g id="patch_9">
    <path d="M 417.06 314.496 
C 418.931273 314.496 420.726156 313.752535 422.049345 312.429345 
C 423.372535 311.106156 424.116 309.311273 424.116 307.44 
C 424.116 305.568727 423.372535 303.773844 422.049345 302.450655 
C 420.726156 301.127465 418.931273 300.384 417.06 300.384 
C 415.188727 300.384 413.393844 301.127465 412.070655 302.450655 
C 410.747465 303.773844 410.004 305.568727 410.004 307.44 
C 410.004 309.311273 410.747465 311.106156 412.070655 312.429345 
C 413.393844 313.752535 415.188727 314.496 417.06 314.496 
z
" clip-path="url(#p6ecae1138b)" style="fill: #002800; opacity: 0.4"/>
   </g>
   <g id="patch_10">
    <path d="M 417.06 279.216 
C 418.931273 279.216 420.726156 278.472535 422.049345 277.149345 
C 423.372535 275.826156 424.116 274.031273 424.116 272.16 
C 424.116 270.288727 423.372535 268.493844 422.049345 267.170655 
C 420.726156 265.847465 418.931273 265.104 417.06 265.104 
C 415.188727 265.104 413.393844 265.847465 412.070655 267.170655 
C 410.747465 268.493844 410.004 270.288727 410.004 272.16 
C 410.004 274.031273 410.747465 275.826156 412.070655 277.149345 
C 413.393844 278.472535 415.188727 279.216 417.06 279.216 
z
" clip-path="url(#p6ecae1138b)" style="fill: #002f00; opacity: 0.4"/>
   </g>
   <g id="patch_11">
    <path d="M 381.78 279.216 
C 383.651273 279.216 385.446156 278.472535 386.769345 277.149345 
C 388.092535 275.826156 388.836 274.031273 388.836 272.16 
C 388.836 270.288727 388.092535 268.493844 386.769345 267.170655 
C 385.446156 265.847465 383.651273 265.104 381.78 265.104 
C 379.908727 265.104 378.113844 265.847465 376.790655 267.170655 
C 375.467465 268.493844 374.724 270.288727 374.724 272.16 
C 374.724 274.031273 375.467465 275.826156 376.790655 277.149345 
C 378.113844 278.472535 379.908727 279.216 381.78 279.216 
z
" clip-path="url(#p6ecae1138b)" style="fill: #003600; opacity: 0.4"/>
   </g>
   <g id="patch_12">
    <path d="M 381.78 243.936 
C 383.651273 243.936 385.446156 243.192535 386.769345 241.869345 
C 388.092535 240.546156 388.836 238.751273 388.836 236.88 
C 388.836 235.008727 388.092535 233.213844 386.769345 231.890655 
C 385.446156 230.567465 383.651273 229.824 381.78 229.824 
C 379.908727 229.824 378.113844 230.567465 376.790655 231.890655 
C 375.467465 233.213844 374.724 235.008727 374.724 236.88 
C 374.724 238.751273 375.467465 240.546156 376.790655 241.869345 
C 378.113844 243.192535 379.908727 243.936 381.78 243.936 
z
" clip-path="url(#p6ecae1138b)" style="fill: #003c00; opacity: 0.4"/>
   </g>
   <g id="patch_13">
    <path d="M 417.06 243.936 
C 418.931273 243.936 420.726156 243.192535 422.049345 241.869345 
C 423.372535 240.546156 424.116 238.751273 424.116 236.88 
C 424.116 235.008727 423.372535 233.213844 422.049345 231.890655 
C 420.726156 230.567465 418.931273 229.824 417.06 229.824 
C 415.188727 229.824 413.393844 230.567465 412.070655 231.890655 
C 410.747465 233.213844 410.004 235.008727 410.004 236.88 
C 410.004 238.751273 410.747465 240.546156 412.070655 241.869345 
C 413.393844 243.192535 415.188727 243.936 417.06 243.936 
z
" clip-path="url(#p6ecae1138b)" style="fill: #004300; opacity: 0.4"/>
   </g>
   <g id="patch_14">
    <path d="M 417.06 208.656 
C 418.931273 208.656 420.726156 207.912535 422.049345 206.589345 
C 423.372535 205.266156 424.116 203.471273 424.116 201.6 
C 424.116 199.728727 423.372535 197.933844 422.049345 196.610655 
C 420.726156 195.287465 418.931273 194.544 417.06 194.544 
C 415.188727 194.544 413.393844 195.287465 412.070655 196.610655 
C 410.747465 197.933844 410.004 199.728727 410.004 201.6 
C 410.004 203.471273 410.747465 205.266156 412.070655 206.589345 
C 413.393844 207.912535 415.188727 208.656 417.06 208.656 
z
" clip-path="url(#p6ecae1138b)" style="fill: #004a00; opacity: 0.4"/>
   </g>
   <g id="patch_15">
    <path d="M 417.06 173.376 
C 418.931273 173.376 420.726156 172.632535 422.049345 171.309345 
C 423.372535 169.986156 424.116 168.191273 424.116 166.32 
C 424.116 164.448727 423.372535 162.653844 422.049345 161.330655 
C 420.726156 160.007465 418.931273 159.264 417.06 159.264 
C 415.188727 159.264 413.393844 160.007465 412.070655 161.330655 
C 410.747465 162.653844 410.004 164.448727 410.004 166.32 
C 410.004 168.191273 410.747465 169.986156 412.070655 171.309345 
C 413.393844 172.632535 415.188727 173.376 417.06 173.376 
z
" clip-path="url(#p6ecae1138b)" style="fill: #005100; opacity: 0.4"/>
   </g>
   <g id="patch_16">
    <path d="M 417.06 138.096 
C 418.931273 138.096 420.726156 137.352535 422.049345 136.029345 
C 423.372535 134.706156 424.116 132.911273 424.116 131.04 
C 424.116 129.168727 423.372535 127.373844 422.049345 126.050655 
C 420.726156 124.727465 418.931273 123.984 417.06 123.984 
C 415.188727 123.984 413.393844 124.727465 412.070655 126.050655 
C 410.747465 127.373844 410.004 129.168727 410.004 131.04 
C 410.004 132.911273 410.747465 134.706156 412.070655 136.029345 
C 413.393844 137.352535 415.188727 138.096 417.06 138.096 
z
" clip-path="url(#p6ecae1138b)" style="fill: #005700; opacity: 0.4"/>
   </g>
   <g id="patch_17">
    <path d="M 381.78 138.096 
C 383.651273 138.096 385.446156 137.352535 386.769345 136.029345 
C 388.092535 134.706156 388.836 132.911273 388.836 131.04 
C 388.836 129.168727 388.092535 127.373844 386.769345 126.050655 
C 385.446156 124.727465 383.651273 123.984 381.78 123.984 
C 379.908727 123.984 378.113844 124.727465 376.790655 126.050655 
C 375.467465 127.373844 374.724 129.168727 374.724 131.04 
C 374.724 132.911273 375.467465 134.706156 376.790655 136.029345 
C 378.113844 137.352535 379.908727 138.096 381.78 138.096 
z
" clip-path="url(#p6ecae1138b)" style="fill: #005e00; opacity: 0.4"/>
   </g>
   <g id="patch_18">
    <path d="M 346.5 138.096 
C 348.371273 138.096 350.166156 137.352535 351.489345 136.029345 
C 352.812535 134.706156 353.556 132.911273 353.556 131.04 
C 353.556 129.168727 352.812535 127.373844 351.489345 126.050655 
C 350.166156 124.727465 348.371273 123.984 346.5 123.984 
C 344.628727 123.984 342.833844 124.727465 341.510655 126.050655 
C 340.187465 127.373844 339.444 129.168727 339.444 131.04 
C 339.444 132.911273 340.187465 134.706156 341.510655 136.029345 
C 342.833844 137.352535 344.628727 138.096 346.5 138.096 
z
" clip-path="url(#p6ecae1138b)" style="fill: #006500; opacity: 0.4"/>
   </g>
   <g id="patch_19">
    <path d="M 346.5 173.376 
C 348.371273 173.376 350.166156 172.632535 351.489345 171.309345 
C 352.812535 169.986156 353.556 168.191273 353.556 166.32 
C 353.556 164.448727 352.812535 162.653844 351.489345 161.330655 
C 350.166156 160.007465 348.371273 159.264 346.5 159.264 
C 344.628727 159.264 342.833844 160.007465 341.510655 161.330655 
C 340.187465 162.653844 339.444 164.448727 339.444 166.32 
C 339.444 168.191273 340.187465 169.986156 341.510655 171.309345 
C 342.833844 172.632535 344.628727 173.376 346.5 173.376 
z
" clip-path="url(#p6ecae1138b)" style="fill: #006b00; opacity: 0.4"/>
   </g>
   <g id="patch_20">
    <path d="M 346.5 208.656 
C 348.371273 208.656 350.166156 207.912535 351.489345 206.589345 
C 352.812535 205.266156 353.556 203.471273 353.556 201.6 
C 353.556 199.728727 352.812535 197.933844 351.489345 196.610655 
C 350.166156 195.287465 348.371273 194.544 346.5 194.544 
C 344.628727 194.544 342.833844 195.287465 341.510655 196.610655 
C 340.187465 197.933844 339.444 199.728727 339.444 201.6 
C 339.444 203.471273 340.187465 205.266156 341.510655 206.589345 
C 342.833844 207.912535 344.628727 208.656 346.5 208.656 
z
" clip-path="url(#p6ecae1138b)" style="fill: #007200; opacity: 0.4"/>
   </g>
   <g id="patch_21">
    <path d="M 346.5 243.936 
C 348.371273 243.936 350.166156 243.192535 351.489345 241.869345 
C 352.812535 240.546156 353.556 238.751273 353.556 236.88 
C 353.556 235.008727 352.812535 233.213844 351.489345 231.890655 
C 350.166156 230.567465 348.371273 229.824 346.5 229.824 
C 344.628727 229.824 342.833844 230.567465 341.510655 231.890655 
C 340.187465 233.213844 339.444 235.008727 339.444 236.88 
C 339.444 238.751273 340.187465 240.546156 341.510655 241.869345 
C 342.833844 243.192535 344.628727 243.936 346.5 243.936 
z
" clip-path="url(#p6ecae1138b)" style="fill: #007900; opacity: 0.4"/>
   </g>
   <g id="patch_22">
    <path d="M 311.22 243.936 
C 313.091273 243.936 314.886156 243.192535 316.209345 241.869345 
C 317.532535 240.546156 318.276 238.751273 318.276 236.88 
C 318.276 235.008727 317.532535 233.213844 316.209345 231.890655 
C 314.886156 230.567465 313.091273 229.824 311.22 229.824 
C 309.348727 229.824 307.553844 230.567465 306.230655 231.890655 
C 304.907465 233.213844 304.164 235.008727 304.164 236.88 
C 304.164 238.751273 304.907465 240.546156 306.230655 241.869345 
C 307.553844 243.192535 309.348727 243.936 311.22 243.936 
z
" clip-path="url(#p6ecae1138b)" style="fill: #008000; opacity: 0.4"/>
   </g>
   <g id="patch_23">
    <path d="M 275.94 243.936 
C 277.811273 243.936 279.606156 243.192535 280.929345 241.869345 
C 282.252535 240.546156 282.996 238.751273 282.996 236.88 
C 282.996 235.008727 282.252535 233.213844 280.929345 231.890655 
C 279.606156 230.567465 277.811273 229.824 275.94 229.824 
C 274.068727 229.824 272.273844 230.567465 270.950655 231.890655 
C 269.627465 233.213844 268.884 235.008727 268.884 236.88 
C 268.884 238.751273 269.627465 240.546156 270.950655 241.869345 
C 272.273844 243.192535 274.068727 243.936 275.94 243.936 
z
" clip-path="url(#p6ecae1138b)" style="fill: #008600; opacity: 0.4"/>
   </g>
   <g id="patch_24">
    <path d="M 275.94 279.216 
C 277.811273 279.216 279.606156 278.472535 280.929345 277.149345 
C 282.252535 275.826156 282.996 274.031273 282.996 272.16 
C 282.996 270.288727 282.252535 268.493844 280.929345 267.170655 
C 279.606156 265.847465 277.811273 265.104 275.94 265.104 
C 274.068727 265.104 272.273844 265.847465 270.950655 267.170655 
C 269.627465 268.493844 268.884 270.288727 268.884 272.16 
C 268.884 274.031273 269.627465 275.826156 270.950655 277.149345 
C 272.273844 278.472535 274.068727 279.216 275.94 279.216 
z
" clip-path="url(#p6ecae1138b)" style="fill: #008d00; opacity: 0.4"/>
   </g>
   <g id="patch_25">
    <path d="M 275.94 314.496 
C 277.811273 314.496 279.606156 313.752535 280.929345 312.429345 
C 282.252535 311.106156 282.996 309.311273 282.996 307.44 
C 282.996 305.568727 282.252535 303.773844 280.929345 302.450655 
C 279.606156 301.127465 277.811273 300.384 275.94 300.384 
C 274.068727 300.384 272.273844 301.127465 270.950655 302.450655 
C 269.627465 303.773844 268.884 305.568727 268.884 307.44 
C 268.884 309.311273 269.627465 311.106156 270.950655 312.429345 
C 272.273844 313.752535 274.068727 314.496 275.94 314.496 
z
" clip-path="url(#p6ecae1138b)" style="fill: #009400; opacity: 0.4"/>
   </g>
   <g id="patch_26">
    <path d="M 240.66 314.496 
C 242.531273 314.496 244.326156 313.752535 245.649345 312.429345 
C 246.972535 311.106156 247.716 309.311273 247.716 307.44 
C 247.716 305.568727 246.972535 303.773844 245.649345 302.450655 
C 244.326156 301.127465 242.531273 300.384 240.66 300.384 
C 238.788727 300.384 236.993844 301.127465 235.670655 302.450655 
C 234.347465 303.773844 233.604 305.568727 233.604 307.44 
C 233.604 309.311273 234.347465 311.106156 235.670655 312.429345 
C 236.993844 313.752535 238.788727 314.496 240.66 314.496 
z
" clip-path="url(#p6ecae1138b)" style="fill: #009a00; opacity: 0.4"/>
   </g>
   <g id="patch_27">
    <path d="M 205.38 314.496 
C 207.251273 314.496 209.046156 313.752535 210.369345 312.429345 
C 211.692535 311.106156 212.436 309.311273 212.436 307.44 
C 212.436 305.568727 211.692535 303.773844 210.369345 302.450655 
C 209.046156 301.127465 207.251273 300.384 205.38 300.384 
C 203.508727 300.384 201.713844 301.127465 200.390655 302.450655 
C 199.067465 303.773844 198.324 305.568727 198.324 307.44 
C 198.324 309.311273 199.067465 311.106156 200.390655 312.429345 
C 201.713844 313.752535 203.508727 314.496 205.38 314.496 
z
" clip-path="url(#p6ecae1138b)" style="fill: #00a100; opacity: 0.4"/>
   </g>
   <g id="patch_28">
    <path d="M 205.38 279.216 
C 207.251273 279.216 209.046156 278.472535 210.369345 277.149345 
C 211.692535 275.826156 212.436 274.031273 212.436 272.16 
C 212.436 270.288727 211.692535 268.493844 210.369345 267.170655 
C 209.046156 265.847465 207.251273 265.104 205.38 265.104 
C 203.508727 265.104 201.713844 265.847465 200.390655 267.170655 
C 199.067465 268.493844 198.324 270.288727 198.324 272.16 
C 198.324 274.031273 199.067465 275.826156 200.390655 277.149345 
C 201.713844 278.472535 203.508727 279.216 205.38 279.216 
z
" clip-path="url(#p6ecae1138b)" style="fill: #00a800; opacity: 0.4"/>
   </g>
   <g id="patch_29">
    <path d="M 170.1 279.216 
C 171.971273 279.216 173.766156 278.472535 175.089345 277.149345 
C 176.412535 275.826156 177.156 274.031273 177.156 272.16 
C 177.156 270.288727 176.412535 268.493844 175.089345 267.170655 
C 173.766156 265.847465 171.971273 265.104 170.1 265.104 
C 168.228727 265.104 166.433844 265.847465 165.110655 267.170655 
C 163.787465 268.493844 163.044 270.288727 163.044 272.16 
C 163.044 274.031273 163.787465 275.826156 165.110655 277.149345 
C 166.433844 278.472535 168.228727 279.216 170.1 279.216 
z
" clip-path="url(#p6ecae1138b)" style="fill: #00ae00; opacity: 0.4"/>
   </g>
   <g id="patch_30">
    <path d="M 134.82 279.216 
C 136.691273 279.216 138.486156 278.472535 139.809345 277.149345 
C 141.132535 275.826156 141.876 274.031273 141.876 272.16 
C 141.876 270.288727 141.132535 268.493844 139.809345 267.170655 
C 138.486156 265.847465 136.691273 265.104 134.82 265.104 
C 132.948727 265.104 131.153844 265.847465 129.830655 267.170655 
C 128.507465 268.493844 127.764 270.288727 127.764 272.16 
C 127.764 274.031273 128.507465 275.826156 129.830655 277.149345 
C 131.153844 278.472535 132.948727 279.216 134.82 279.216 
z
" clip-path="url(#p6ecae1138b)" style="fill: #00b500; opacity: 0.4"/>
   </g>
   <g id="patch_31">
    <path d="M 134.82 314.496 
C 136.691273 314.496 138.486156 313.752535 139.809345 312.429345 
C 141.132535 311.106156 141.876 309.311273 141.876 307.44 
C 141.876 305.568727 141.132535 303.773844 139.809345 302.450655 
C 138.486156 301.127465 136.691273 300.384 134.82 300.384 
C 132.948727 300.384 131.153844 301.127465 129.830655 302.450655 
C 128.507465 303.773844 127.764 305.568727 127.764 307.44 
C 127.764 309.311273 128.507465 311.106156 129.830655 312.429345 
C 131.153844 313.752535 132.948727 314.496 134.82 314.496 
z
" clip-path="url(#p6ecae1138b)" style="fill: #00bc00; opacity: 0.4"/>
   </g>
   <g id="patch_32">
    <path d="M 99.54 314.496 
C 101.411273 314.496 103.206156 313.752535 104.529345 312.429345 
C 105.852535 311.106156 106.596 309.311273 106.596 307.44 
C 106.596 305.568727 105.852535 303.773844 104.529345 302.450655 
C 103.206156 301.127465 101.411273 300.384 99.54 300.384 
C 97.668727 300.384 95.873844 301.127465 94.550655 302.450655 
C 93.227465 303.773844 92.484 305.568727 92.484 307.44 
C 92.484 309.311273 93.227465 311.106156 94.550655 312.429345 
C 95.873844 313.752535 97.668727 314.496 99.54 314.496 
z
" clip-path="url(#p6ecae1138b)" style="fill: #00c300; opacity: 0.4"/>
   </g>
   <g id="patch_33">
    <path d="M 99.54 279.216 
C 101.411273 279.216 103.206156 278.472535 104.529345 277.149345 
C 105.852535 275.826156 106.596 274.031273 106.596 272.16 
C 106.596 270.288727 105.852535 268.493844 104.529345 267.170655 
C 103.206156 265.847465 101.411273 265.104 99.54 265.104 
C 97.668727 265.104 95.873844 265.847465 94.550655 267.170655 
C 93.227465 268.493844 92.484 270.288727 92.484 272.16 
C 92.484 274.031273 93.227465 275.826156 94.550655 277.149345 
C 95.873844 278.472535 97.668727 279.216 99.54 279.216 
z
" clip-path="url(#p6ecae1138b)" style="fill: #00c900; opacity: 0.4"/>
   </g>
   <g id="patch_34">
    <path d="M 99.54 243.936 
C 101.411273 243.936 103.206156 243.192535 104.529345 241.869345 
C 105.852535 240.546156 106.596 238.751273 106.596 236.88 
C 106.596 235.008727 105.852535 233.213844 104.529345 231.890655 
C 103.206156 230.567465 101.411273 229.824 99.54 229.824 
C 97.668727 229.824 95.873844 230.567465 94.550655 231.890655 
C 93.227465 233.213844 92.484 235.008727 92.484 236.88 
C 92.484 238.751273 93.227465 240.546156 94.550655 241.869345 
C 95.873844 243.192535 97.668727 243.936 99.54 243.936 
z
" clip-path="url(#p6ecae1138b)" style="fill: #00d000; opacity: 0.4"/>
   </g>
   <g id="patch_35">
    <path d="M 99.54 208.656 
C 101.411273 208.656 103.206156 207.912535 104.529345 206.589345 
C 105.852535 205.266156 106.596 203.471273 106.596 201.6 
C 106.596 199.728727 105.852535 197.933844 104.529345 196.610655 
C 103.206156 195.287465 101.411273 194.544 99.54 194.544 
C 97.668727 194.544 95.873844 195.287465 94.550655 196.610655 
C 93.227465 197.933844 92.484 199.728727 92.484 201.6 
C 92.484 203.471273 93.227465 205.266156 94.550655 206.589345 
C 95.873844 207.912535 97.668727 208.656 99.54 208.656 
z
" clip-path="url(#p6ecae1138b)" style="fill: #00d700; opacity: 0.4"/>
   </g>
   <g id="patch_36">
    <path d="M 99.54 173.376 
C 101.411273 173.376 103.206156 172.632535 104.529345 171.309345 
C 105.852535 169.986156 106.596 168.191273 106.596 166.32 
C 106.596 164.448727 105.852535 162.653844 104.529345 161.330655 
C 103.206156 160.007465 101.411273 159.264 99.54 159.264 
C 97.668727 159.264 95.873844 160.007465 94.550655 161.330655 
C 93.227465 162.653844 92.484 164.448727 92.484 166.32 
C 92.484 168.191273 93.227465 169.986156 94.550655 171.309345 
C 95.873844 172.632535 97.668727 173.376 99.54 173.376 
z
" clip-path="url(#p6ecae1138b)" style="fill: #00dd00; opacity: 0.4"/>
   </g>
   <g id="patch_37">
    <path d="M 99.54 138.096 
C 101.411273 138.096 103.206156 137.352535 104.529345 136.029345 
C 105.852535 134.706156 106.596 132.911273 106.596 131.04 
C 106.596 129.168727 105.852535 127.373844 104.529345 126.050655 
C 103.206156 124.727465 101.411273 123.984 99.54 123.984 
C 97.668727 123.984 95.873844 124.727465 94.550655 126.050655 
C 93.227465 127.373844 92.484 129.168727 92.484 131.04 
C 92.484 132.911273 93.227465 134.706156 94.550655 136.029345 
C 95.873844 137.352535 97.668727 138.096 99.54 138.096 
z
" clip-path="url(#p6ecae1138b)" style="fill: #00e400; opacity: 0.4"/>
   </g>
   <g id="patch_38">
    <path d="M 134.82 138.096 
C 136.691273 138.096 138.486156 137.352535 139.809345 136.029345 
C 141.132535 134.706156 141.876 132.911273 141.876 131.04 
C 141.876 129.168727 141.132535 127.373844 139.809345 126.050655 
C 138.486156 124.727465 136.691273 123.984 134.82 123.984 
C 132.948727 123.984 131.153844 124.727465 129.830655 126.050655 
C 128.507465 127.373844 127.764 129.168727 127.764 131.04 
C 127.764 132.911273 128.507465 134.706156 129.830655 136.029345 
C 131.153844 137.352535 132.948727 138.096 134.82 138.096 
z
" clip-path="url(#p6ecae1138b)" style="fill: #00eb00; opacity: 0.4"/>
   </g>
   <g id="patch_39">
    <path d="M 134.82 102.816 
C 136.691273 102.816 138.486156 102.072535 139.809345 100.749345 
C 141.132535 99.426156 141.876 97.631273 141.876 95.76 
C 141.876 93.888727 141.132535 92.093844 139.809345 90.770655 
C 138.486156 89.447465 136.691273 88.704 134.82 88.704 
C 132.948727 88.704 131.153844 89.447465 129.830655 90.770655 
C 128.507465 92.093844 127.764 93.888727 127.764 95.76 
C 127.764 97.631273 128.507465 99.426156 129.830655 100.749345 
C 131.153844 102.072535 132.948727 102.816 134.82 102.816 
z
" clip-path="url(#p6ecae1138b)" style="fill: #00f200; opacity: 0.4"/>
   </g>
   <g id="patch_40">
    <path d="M 170.1 102.816 
C 171.971273 102.816 173.766156 102.072535 175.089345 100.749345 
C 176.412535 99.426156 177.156 97.631273 177.156 95.76 
C 177.156 93.888727 176.412535 92.093844 175.089345 90.770655 
C 173.766156 89.447465 171.971273 88.704 170.1 88.704 
C 168.228727 88.704 166.433844 89.447465 165.110655 90.770655 
C 163.787465 92.093844 163.044 93.888727 163.044 95.76 
C 163.044 97.631273 163.787465 99.426156 165.110655 100.749345 
C 166.433844 102.072535 168.228727 102.816 170.1 102.816 
z
" clip-path="url(#p6ecae1138b)" style="fill: #00f800; opacity: 0.4"/>
   </g>
   <g id="line2d_1">
    <path d="M 81.9 430.92 
L 117.18 430.92 
" clip-path="url(#p6ecae1138b)" style="fill: none; stroke: #000000; stroke-width: 1.5; stroke-linecap: square"/>
   </g>
   <g id="line2d_2">
    <path d="M 117.18 430.92 
L 117.18 395.64 
" clip-path="url(#p6ecae1138b)" style="fill: none; stroke: #000000; stroke-width: 1.5; stroke-linecap: square"/>
   </g>
   <g id="line2d_3">
    <path d="M 81.9 395.64 
L 81.9 430.92 
" clip-path="url(#p6ecae1138b)" style="fill: none; stroke: #000000; stroke-width: 1.5; stroke-linecap: square"/>
   </g>
   <g id="line2d_4">
    <path d="M 117.18 430.92 
L 152.46 430.92 
" clip-path="url(#p6ecae1138b)" style="fill: none; stroke: #000000; stroke-width: 1.5; stroke-linecap: square"/>
   </g>
   <g id="line2d_5">
    <path d="M 152.46 395.64 
L 117.18 395.64 
" clip-path="url(#p6ecae1138b)" style="fill: none; stroke: #000000; stroke-width: 1.5; stroke-linecap: square"/>
   </g>
   <g id="line2d_6">
    <path d="M 117.18 395.64 
L 117.18 430.92 
" clip-path="url(#p6ecae1138b)" style="fill: none; stroke: #000000; stroke-width: 1.5; stroke-linecap: square"/>
   </g>
   <g id="line2d_7">
    <path d="M 152.46 430.92 
L 187.74 430.92 
" clip-path="url(#p6ecae1138b)" style="fill: none; stroke: #000000; stroke-width: 1.5; stroke-linecap: square"/>
   </g>
   <g id="line2d_8">
    <path d="M 187.74 430.92 
L 223.02 430.92 
" clip-path="url(#p6ecae1138b)" style="fill: none; stroke: #000000; stroke-width: 1.5; stroke-linecap: square"/>
   </g>
   <g id="line2d_9">
    <path d="M 223.02 395.64 
L 187.74 395.64 
" clip-path="url(#p6ecae1138b)" style="fill: none; stroke: #000000; stroke-width: 1.5; stroke-linecap: square"/>
   </g>
   <g id="line2d_10">
    <path d="M 223.02 430.92 
L 258.3 430.92 
" clip-path="url(#p6ecae1138b)" style="fill: none; stroke: #000000; stroke-width: 1.5; stroke-linecap: square"/>
   </g>
   <g id="line2d_11">
    <path d="M 258.3 430.92 
L 293.58 430.92 
" clip-path="url(#p6ecae1138b)" style="fill: none; stroke: #000000; stroke-width: 1.5; stroke-linecap: square"/>
   </g>
   <g id="line2d_12">
    <path d="M 293.58 430.92 
L 293.58 395.64 
" clip-path="url(#p6ecae1138b)" style="fill: none; stroke: #000000; stroke-width: 1.5; stroke-linecap: square"/>
   </g>
   <g id="line2d_13">
    <path d="M 293.58 395.64 
L 293.58 430.92 
" clip-path="url(#p6ecae1138b)" style="fill: none; stroke: #000000; stroke-width: 1.5; stroke-linecap: square"/>
   </g>
   <g id="line2d_14">
    <path d="M 328.86 430.92 
L 364.14 430.92 
" clip-path="url(#p6ecae1138b)" style="fill: none; stroke: #000000; stroke-width: 1.5; stroke-linecap: square"/>
   </g>
   <g id="line2d_15">
    <path d="M 364.14 395.64 
L 328.86 395.64 
" clip-path="url(#p6ecae1138b)" style="fill: none; stroke: #000000; stroke-width: 1.5; stroke-linecap: square"/>
   </g>
   <g id="line2d_16">
    <path d="M 364.14 430.92 
L 399.42 430.92 
" clip-path="url(#p6ecae1138b)" style="fill: none; stroke: #000000; stroke-width: 1.5; stroke-linecap: square"/>
   </g>
   <g id="line2d_17">
    <path d="M 399.42 430.92 
L 399.42 395.64 
" clip-path="url(#p6ecae1138b)" style="fill: none; stroke: #000000; stroke-width: 1.5; stroke-linecap: square"/>
   </g>
   <g id="line2d_18">
    <path d="M 399.42 430.92 
L 434.7 430.92 
" clip-path="url(#p6ecae1138b)" style="fill: none; stroke: #000000; stroke-width: 1.5; stroke-linecap: square"/>
   </g>
   <g id="line2d_19">
    <path d="M 434.7 430.92 
L 434.7 395.64 
" clip-path="url(#p6ecae1138b)" style="fill: none; stroke: #000000; stroke-width: 1.5; stroke-linecap: square"/>
   </g>
   <g id="line2d_20">
    <path d="M 399.42 395.64 
L 399.42 430.92 
" clip-path="url(#p6ecae1138b)" style="fill: none; stroke: #000000; stroke-width: 1.5; stroke-linecap: square"/>
   </g>
   <g id="line2d_21">
    <path d="M 117.18 360.36 
L 81.9 360.36 
" clip-path="url(#p6ecae1138b)" style="fill: none; stroke: #000000; stroke-width: 1.5; stroke-linecap: square"/>
   </g>
   <g id="line2d_22">
    <path d="M 81.9 360.36 
L 81.9 395.64 
" clip-path="url(#p6ecae1138b)" style="fill: none; stroke: #000000; stroke-width: 1.5; stroke-linecap: square"/>
   </g>
   <g id="line2d_23">
    <path d="M 117.18 395.64 
L 152.46 395.64 
" clip-path="url(#p6ecae1138b)" style="fill: none; stroke: #000000; stroke-width: 1.5; stroke-linecap: square"/>
   </g>
   <g id="line2d_24">
    <path d="M 152.46 395.64 
L 152.46 360.36 
" clip-path="url(#p6ecae1138b)" style="fill: none; stroke: #000000; stroke-width: 1.5; stroke-linecap: square"/>
   </g>
   <g id="line2d_25">
    <path d="M 187.74 395.64 
L 187.74 360.36 
" clip-path="url(#p6ecae1138b)" style="fill: none; stroke: #000000; stroke-width: 1.5; stroke-linecap: square"/>
   </g>
   <g id="line2d_26">
    <path d="M 187.74 360.36 
L 152.46 360.36 
" clip-path="url(#p6ecae1138b)" style="fill: none; stroke: #000000; stroke-width: 1.5; stroke-linecap: square"/>
   </g>
   <g id="line2d_27">
    <path d="M 152.46 360.36 
L 152.46 395.64 
" clip-path="url(#p6ecae1138b)" style="fill: none; stroke: #000000; stroke-width: 1.5; stroke-linecap: square"/>
   </g>
   <g id="line2d_28">
    <path d="M 187.74 395.64 
L 223.02 395.64 
" clip-path="url(#p6ecae1138b)" style="fill: none; stroke: #000000; stroke-width: 1.5; stroke-linecap: square"/>
   </g>
   <g id="line2d_29">
    <path d="M 187.74 360.36 
L 187.74 395.64 
" clip-path="url(#p6ecae1138b)" style="fill: none; stroke: #000000; stroke-width: 1.5; stroke-linecap: square"/>
   </g>
   <g id="line2d_30">
    <path d="M 258.3 395.64 
L 258.3 360.36 
" clip-path="url(#p6ecae1138b)" style="fill: none; stroke: #000000; stroke-width: 1.5; stroke-linecap: square"/>
   </g>
   <g id="line2d_31">
    <path d="M 258.3 360.36 
L 223.02 360.36 
" clip-path="url(#p6ecae1138b)" style="fill: none; stroke: #000000; stroke-width: 1.5; stroke-linecap: square"/>
   </g>
   <g id="line2d_32">
    <path d="M 293.58 395.64 
L 293.58 360.36 
" clip-path="url(#p6ecae1138b)" style="fill: none; stroke: #000000; stroke-width: 1.5; stroke-linecap: square"/>
   </g>
   <g id="line2d_33">
    <path d="M 258.3 360.36 
L 258.3 395.64 
" clip-path="url(#p6ecae1138b)" style="fill: none; stroke: #000000; stroke-width: 1.5; stroke-linecap: square"/>
   </g>
   <g id="line2d_34">
    <path d="M 328.86 360.36 
L 293.58 360.36 
" clip-path="url(#p6ecae1138b)" style="fill: none; stroke: #000000; stroke-width: 1.5; stroke-linecap: square"/>
   </g>
   <g id="line2d_35">
    <path d="M 293.58 360.36 
L 293.58 395.64 
" clip-path="url(#p6ecae1138b)" style="fill: none; stroke: #000000; stroke-width: 1.5; stroke-linecap: square"/>
   </g>
   <g id="line2d_36">
    <path d="M 328.86 395.64 
L 364.14 395.64 
" clip-path="url(#p6ecae1138b)" style="fill: none; stroke: #000000; stroke-width: 1.5; stroke-linecap: square"/>
   </g>
   <g id="line2d_37">
    <path d="M 364.14 395.64 
L 364.14 360.36 
" clip-path="url(#p6ecae1138b)" style="fill: none; stroke: #000000; stroke-width: 1.5; stroke-linecap: square"/>
   </g>
   <g id="line2d_38">
    <path d="M 399.42 360.36 
L 364.14 360.36 
" clip-path="url(#p6ecae1138b)" style="fill: none; stroke: #000000; stroke-width: 1.5; stroke-linecap: square"/>
   </g>
   <g id="line2d_39">
    <path d="M 364.14 360.36 
L 364.14 395.64 
" clip-path="url(#p6ecae1138b)" style="fill: none; stroke: #000000; stroke-width: 1.5; stroke-linecap: square"/>
   </g>
   <g id="line2d_40">
    <path d="M 434.7 395.64 
L 434.7 360.36 
" clip-path="url(#p6ecae1138b)" style="fill: none; stroke: #000000; stroke-width: 1.5; stroke-linecap: square"/>
   </g>
   <g id="line2d_41">
    <path d="M 434.7 360.36 
L 399.42 360.36 
" clip-path="url(#p6ecae1138b)" style="fill: none; stroke: #000000; stroke-width: 1.5; stroke-linecap: square"/>
   </g>
   <g id="line2d_42">
    <path d="M 81.9 360.36 
L 117.18 360.36 
" clip-path="url(#p6ecae1138b)" style="fill: none; stroke: #000000; stroke-width: 1.5; stroke-linecap: square"/>
   </g>
   <g id="line2d_43">
    <path d="M 117.18 360.36 
L 117.18 325.08 
" clip-path="url(#p6ecae1138b)" style="fill: none; stroke: #000000; stroke-width: 1.5; stroke-linecap: square"/>
   </g>
   <g id="line2d_44">
    <path d="M 81.9 325.08 
L 81.9 360.36 
" clip-path="url(#p6ecae1138b)" style="fill: none; stroke: #000000; stroke-width: 1.5; stroke-linecap: square"/>
   </g>
   <g id="line2d_45">
    <path d="M 152.46 325.08 
L 117.18 325.08 
" clip-path="url(#p6ecae1138b)" style="fill: none; stroke: #000000; stroke-width: 1.5; stroke-linecap: square"/>
   </g>
   <g id="line2d_46">
    <path d="M 117.18 325.08 
L 117.18 360.36 
" clip-path="url(#p6ecae1138b)" style="fill: none; stroke: #000000; stroke-width: 1.5; stroke-linecap: square"/>
   </g>
   <g id="line2d_47">
    <path d="M 152.46 360.36 
L 187.74 360.36 
" clip-path="url(#p6ecae1138b)" style="fill: none; stroke: #000000; stroke-width: 1.5; stroke-linecap: square"/>
   </g>
   <g id="line2d_48">
    <path d="M 187.74 325.08 
L 152.46 325.08 
" clip-path="url(#p6ecae1138b)" style="fill: none; stroke: #000000; stroke-width: 1.5; stroke-linecap: square"/>
   </g>
   <g id="line2d_49">
    <path d="M 223.02 360.36 
L 223.02 325.08 
" clip-path="url(#p6ecae1138b)" style="fill: none; stroke: #000000; stroke-width: 1.5; stroke-linecap: square"/>
   </g>
   <g id="line2d_50">
    <path d="M 223.02 325.08 
L 187.74 325.08 
" clip-path="url(#p6ecae1138b)" style="fill: none; stroke: #000000; stroke-width: 1.5; stroke-linecap: square"/>
   </g>
   <g id="line2d_51">
    <path d="M 223.02 360.36 
L 258.3 360.36 
" clip-path="url(#p6ecae1138b)" style="fill: none; stroke: #000000; stroke-width: 1.5; stroke-linecap: square"/>
   </g>
   <g id="line2d_52">
    <path d="M 258.3 360.36 
L 258.3 325.08 
" clip-path="url(#p6ecae1138b)" style="fill: none; stroke: #000000; stroke-width: 1.5; stroke-linecap: square"/>
   </g>
   <g id="line2d_53">
    <path d="M 223.02 325.08 
L 223.02 360.36 
" clip-path="url(#p6ecae1138b)" style="fill: none; stroke: #000000; stroke-width: 1.5; stroke-linecap: square"/>
   </g>
   <g id="line2d_54">
    <path d="M 293.58 325.08 
L 258.3 325.08 
" clip-path="url(#p6ecae1138b)" style="fill: none; stroke: #000000; stroke-width: 1.5; stroke-linecap: square"/>
   </g>
   <g id="line2d_55">
    <path d="M 258.3 325.08 
L 258.3 360.36 
" clip-path="url(#p6ecae1138b)" style="fill: none; stroke: #000000; stroke-width: 1.5; stroke-linecap: square"/>
   </g>
   <g id="line2d_56">
    <path d="M 293.58 360.36 
L 328.86 360.36 
" clip-path="url(#p6ecae1138b)" style="fill: none; stroke: #000000; stroke-width: 1.5; stroke-linecap: square"/>
   </g>
   <g id="line2d_57">
    <path d="M 328.86 360.36 
L 328.86 325.08 
" clip-path="url(#p6ecae1138b)" style="fill: none; stroke: #000000; stroke-width: 1.5; stroke-linecap: square"/>
   </g>
   <g id="line2d_58">
    <path d="M 364.14 325.08 
L 328.86 325.08 
" clip-path="url(#p6ecae1138b)" style="fill: none; stroke: #000000; stroke-width: 1.5; stroke-linecap: square"/>
   </g>
   <g id="line2d_59">
    <path d="M 328.86 325.08 
L 328.86 360.36 
" clip-path="url(#p6ecae1138b)" style="fill: none; stroke: #000000; stroke-width: 1.5; stroke-linecap: square"/>
   </g>
   <g id="line2d_60">
    <path d="M 364.14 360.36 
L 399.42 360.36 
" clip-path="url(#p6ecae1138b)" style="fill: none; stroke: #000000; stroke-width: 1.5; stroke-linecap: square"/>
   </g>
   <g id="line2d_61">
    <path d="M 399.42 325.08 
L 364.14 325.08 
" clip-path="url(#p6ecae1138b)" style="fill: none; stroke: #000000; stroke-width: 1.5; stroke-linecap: square"/>
   </g>
   <g id="line2d_62">
    <path d="M 399.42 360.36 
L 434.7 360.36 
" clip-path="url(#p6ecae1138b)" style="fill: none; stroke: #000000; stroke-width: 1.5; stroke-linecap: square"/>
   </g>
   <g id="line2d_63">
    <path d="M 434.7 360.36 
L 434.7 325.08 
" clip-path="url(#p6ecae1138b)" style="fill: none; stroke: #000000; stroke-width: 1.5; stroke-linecap: square"/>
   </g>
   <g id="line2d_64">
    <path d="M 81.9 289.8 
L 81.9 325.08 
" clip-path="url(#p6ecae1138b)" style="fill: none; stroke: #000000; stroke-width: 1.5; stroke-linecap: square"/>
   </g>
   <g id="line2d_65">
    <path d="M 117.18 325.08 
L 152.46 325.08 
" clip-path="url(#p6ecae1138b)" style="fill: none; stroke: #000000; stroke-width: 1.5; stroke-linecap: square"/>
   </g>
   <g id="line2d_66">
    <path d="M 152.46 325.08 
L 187.74 325.08 
" clip-path="url(#p6ecae1138b)" style="fill: none; stroke: #000000; stroke-width: 1.5; stroke-linecap: square"/>
   </g>
   <g id="line2d_67">
    <path d="M 187.74 325.08 
L 187.74 289.8 
" clip-path="url(#p6ecae1138b)" style="fill: none; stroke: #000000; stroke-width: 1.5; stroke-linecap: square"/>
   </g>
   <g id="line2d_68">
    <path d="M 187.74 289.8 
L 152.46 289.8 
" clip-path="url(#p6ecae1138b)" style="fill: none; stroke: #000000; stroke-width: 1.5; stroke-linecap: square"/>
   </g>
   <g id="line2d_69">
    <path d="M 187.74 325.08 
L 223.02 325.08 
" clip-path="url(#p6ecae1138b)" style="fill: none; stroke: #000000; stroke-width: 1.5; stroke-linecap: square"/>
   </g>
   <g id="line2d_70">
    <path d="M 187.74 289.8 
L 187.74 325.08 
" clip-path="url(#p6ecae1138b)" style="fill: none; stroke: #000000; stroke-width: 1.5; stroke-linecap: square"/>
   </g>
   <g id="line2d_71">
    <path d="M 258.3 289.8 
L 223.02 289.8 
" clip-path="url(#p6ecae1138b)" style="fill: none; stroke: #000000; stroke-width: 1.5; stroke-linecap: square"/>
   </g>
   <g id="line2d_72">
    <path d="M 258.3 325.08 
L 293.58 325.08 
" clip-path="url(#p6ecae1138b)" style="fill: none; stroke: #000000; stroke-width: 1.5; stroke-linecap: square"/>
   </g>
   <g id="line2d_73">
    <path d="M 293.58 325.08 
L 293.58 289.8 
" clip-path="url(#p6ecae1138b)" style="fill: none; stroke: #000000; stroke-width: 1.5; stroke-linecap: square"/>
   </g>
   <g id="line2d_74">
    <path d="M 328.86 325.08 
L 328.86 289.8 
" clip-path="url(#p6ecae1138b)" style="fill: none; stroke: #000000; stroke-width: 1.5; stroke-linecap: square"/>
   </g>
   <g id="line2d_75">
    <path d="M 293.58 289.8 
L 293.58 325.08 
" clip-path="url(#p6ecae1138b)" style="fill: none; stroke: #000000; stroke-width: 1.5; stroke-linecap: square"/>
   </g>
   <g id="line2d_76">
    <path d="M 328.86 325.08 
L 364.14 325.08 
" clip-path="url(#p6ecae1138b)" style="fill: none; stroke: #000000; stroke-width: 1.5; stroke-linecap: square"/>
   </g>
   <g id="line2d_77">
    <path d="M 328.86 289.8 
L 328.86 325.08 
" clip-path="url(#p6ecae1138b)" style="fill: none; stroke: #000000; stroke-width: 1.5; stroke-linecap: square"/>
   </g>
   <g id="line2d_78">
    <path d="M 364.14 325.08 
L 399.42 325.08 
" clip-path="url(#p6ecae1138b)" style="fill: none; stroke: #000000; stroke-width: 1.5; stroke-linecap: square"/>
   </g>
   <g id="line2d_79">
    <path d="M 399.42 289.8 
L 364.14 289.8 
" clip-path="url(#p6ecae1138b)" style="fill: none; stroke: #000000; stroke-width: 1.5; stroke-linecap: square"/>
   </g>
   <g id="line2d_80">
    <path d="M 434.7 325.08 
L 434.7 289.8 
" clip-path="url(#p6ecae1138b)" style="fill: none; stroke: #000000; stroke-width: 1.5; stroke-linecap: square"/>
   </g>
   <g id="line2d_81">
    <path d="M 117.18 289.8 
L 117.18 254.52 
" clip-path="url(#p6ecae1138b)" style="fill: none; stroke: #000000; stroke-width: 1.5; stroke-linecap: square"/>
   </g>
   <g id="line2d_82">
    <path d="M 81.9 254.52 
L 81.9 289.8 
" clip-path="url(#p6ecae1138b)" style="fill: none; stroke: #000000; stroke-width: 1.5; stroke-linecap: square"/>
   </g>
   <g id="line2d_83">
    <path d="M 152.46 254.52 
L 117.18 254.52 
" clip-path="url(#p6ecae1138b)" style="fill: none; stroke: #000000; stroke-width: 1.5; stroke-linecap: square"/>
   </g>
   <g id="line2d_84">
    <path d="M 117.18 254.52 
L 117.18 289.8 
" clip-path="url(#p6ecae1138b)" style="fill: none; stroke: #000000; stroke-width: 1.5; stroke-linecap: square"/>
   </g>
   <g id="line2d_85">
    <path d="M 152.46 289.8 
L 187.74 289.8 
" clip-path="url(#p6ecae1138b)" style="fill: none; stroke: #000000; stroke-width: 1.5; stroke-linecap: square"/>
   </g>
   <g id="line2d_86">
    <path d="M 187.74 254.52 
L 152.46 254.52 
" clip-path="url(#p6ecae1138b)" style="fill: none; stroke: #000000; stroke-width: 1.5; stroke-linecap: square"/>
   </g>
   <g id="line2d_87">
    <path d="M 223.02 289.8 
L 223.02 254.52 
" clip-path="url(#p6ecae1138b)" style="fill: none; stroke: #000000; stroke-width: 1.5; stroke-linecap: square"/>
   </g>
   <g id="line2d_88">
    <path d="M 223.02 254.52 
L 187.74 254.52 
" clip-path="url(#p6ecae1138b)" style="fill: none; stroke: #000000; stroke-width: 1.5; stroke-linecap: square"/>
   </g>
   <g id="line2d_89">
    <path d="M 223.02 289.8 
L 258.3 289.8 
" clip-path="url(#p6ecae1138b)" style="fill: none; stroke: #000000; stroke-width: 1.5; stroke-linecap: square"/>
   </g>
   <g id="line2d_90">
    <path d="M 258.3 289.8 
L 258.3 254.52 
" clip-path="url(#p6ecae1138b)" style="fill: none; stroke: #000000; stroke-width: 1.5; stroke-linecap: square"/>
   </g>
   <g id="line2d_91">
    <path d="M 223.02 254.52 
L 223.02 289.8 
" clip-path="url(#p6ecae1138b)" style="fill: none; stroke: #000000; stroke-width: 1.5; stroke-linecap: square"/>
   </g>
   <g id="line2d_92">
    <path d="M 293.58 289.8 
L 293.58 254.52 
" clip-path="url(#p6ecae1138b)" style="fill: none; stroke: #000000; stroke-width: 1.5; stroke-linecap: square"/>
   </g>
   <g id="line2d_93">
    <path d="M 258.3 254.52 
L 258.3 289.8 
" clip-path="url(#p6ecae1138b)" style="fill: none; stroke: #000000; stroke-width: 1.5; stroke-linecap: square"/>
   </g>
   <g id="line2d_94">
    <path d="M 328.86 254.52 
L 293.58 254.52 
" clip-path="url(#p6ecae1138b)" style="fill: none; stroke: #000000; stroke-width: 1.5; stroke-linecap: square"/>
   </g>
   <g id="line2d_95">
    <path d="M 293.58 254.52 
L 293.58 289.8 
" clip-path="url(#p6ecae1138b)" style="fill: none; stroke: #000000; stroke-width: 1.5; stroke-linecap: square"/>
   </g>
   <g id="line2d_96">
    <path d="M 364.14 289.8 
L 364.14 254.52 
" clip-path="url(#p6ecae1138b)" style="fill: none; stroke: #000000; stroke-width: 1.5; stroke-linecap: square"/>
   </g>
   <g id="line2d_97">
    <path d="M 364.14 254.52 
L 328.86 254.52 
" clip-path="url(#p6ecae1138b)" style="fill: none; stroke: #000000; stroke-width: 1.5; stroke-linecap: square"/>
   </g>
   <g id="line2d_98">
    <path d="M 364.14 289.8 
L 399.42 289.8 
" clip-path="url(#p6ecae1138b)" style="fill: none; stroke: #000000; stroke-width: 1.5; stroke-linecap: square"/>
   </g>
   <g id="line2d_99">
    <path d="M 364.14 254.52 
L 364.14 289.8 
" clip-path="url(#p6ecae1138b)" style="fill: none; stroke: #000000; stroke-width: 1.5; stroke-linecap: square"/>
   </g>
   <g id="line2d_100">
    <path d="M 434.7 289.8 
L 434.7 254.52 
" clip-path="url(#p6ecae1138b)" style="fill: none; stroke: #000000; stroke-width: 1.5; stroke-linecap: square"/>
   </g>
   <g id="line2d_101">
    <path d="M 434.7 254.52 
L 399.42 254.52 
" clip-path="url(#p6ecae1138b)" style="fill: none; stroke: #000000; stroke-width: 1.5; stroke-linecap: square"/>
   </g>
   <g id="line2d_102">
    <path d="M 117.18 254.52 
L 117.18 219.24 
" clip-path="url(#p6ecae1138b)" style="fill: none; stroke: #000000; stroke-width: 1.5; stroke-linecap: square"/>
   </g>
   <g id="line2d_103">
    <path d="M 81.9 219.24 
L 81.9 254.52 
" clip-path="url(#p6ecae1138b)" style="fill: none; stroke: #000000; stroke-width: 1.5; stroke-linecap: square"/>
   </g>
   <g id="line2d_104">
    <path d="M 117.18 254.52 
L 152.46 254.52 
" clip-path="url(#p6ecae1138b)" style="fill: none; stroke: #000000; stroke-width: 1.5; stroke-linecap: square"/>
   </g>
   <g id="line2d_105">
    <path d="M 117.18 219.24 
L 117.18 254.52 
" clip-path="url(#p6ecae1138b)" style="fill: none; stroke: #000000; stroke-width: 1.5; stroke-linecap: square"/>
   </g>
   <g id="line2d_106">
    <path d="M 152.46 254.52 
L 187.74 254.52 
" clip-path="url(#p6ecae1138b)" style="fill: none; stroke: #000000; stroke-width: 1.5; stroke-linecap: square"/>
   </g>
   <g id="line2d_107">
    <path d="M 187.74 219.24 
L 152.46 219.24 
" clip-path="url(#p6ecae1138b)" style="fill: none; stroke: #000000; stroke-width: 1.5; stroke-linecap: square"/>
   </g>
   <g id="line2d_108">
    <path d="M 187.74 254.52 
L 223.02 254.52 
" clip-path="url(#p6ecae1138b)" style="fill: none; stroke: #000000; stroke-width: 1.5; stroke-linecap: square"/>
   </g>
   <g id="line2d_109">
    <path d="M 223.02 219.24 
L 187.74 219.24 
" clip-path="url(#p6ecae1138b)" style="fill: none; stroke: #000000; stroke-width: 1.5; stroke-linecap: square"/>
   </g>
   <g id="line2d_110">
    <path d="M 258.3 254.52 
L 258.3 219.24 
" clip-path="url(#p6ecae1138b)" style="fill: none; stroke: #000000; stroke-width: 1.5; stroke-linecap: square"/>
   </g>
   <g id="line2d_111">
    <path d="M 293.58 219.24 
L 258.3 219.24 
" clip-path="url(#p6ecae1138b)" style="fill: none; stroke: #000000; stroke-width: 1.5; stroke-linecap: square"/>
   </g>
   <g id="line2d_112">
    <path d="M 258.3 219.24 
L 258.3 254.52 
" clip-path="url(#p6ecae1138b)" style="fill: none; stroke: #000000; stroke-width: 1.5; stroke-linecap: square"/>
   </g>
   <g id="line2d_113">
    <path d="M 293.58 254.52 
L 328.86 254.52 
" clip-path="url(#p6ecae1138b)" style="fill: none; stroke: #000000; stroke-width: 1.5; stroke-linecap: square"/>
   </g>
   <g id="line2d_114">
    <path d="M 328.86 219.24 
L 293.58 219.24 
" clip-path="url(#p6ecae1138b)" style="fill: none; stroke: #000000; stroke-width: 1.5; stroke-linecap: square"/>
   </g>
   <g id="line2d_115">
    <path d="M 328.86 254.52 
L 364.14 254.52 
" clip-path="url(#p6ecae1138b)" style="fill: none; stroke: #000000; stroke-width: 1.5; stroke-linecap: square"/>
   </g>
   <g id="line2d_116">
    <path d="M 364.14 254.52 
L 364.14 219.24 
" clip-path="url(#p6ecae1138b)" style="fill: none; stroke: #000000; stroke-width: 1.5; stroke-linecap: square"/>
   </g>
   <g id="line2d_117">
    <path d="M 399.42 219.24 
L 364.14 219.24 
" clip-path="url(#p6ecae1138b)" style="fill: none; stroke: #000000; stroke-width: 1.5; stroke-linecap: square"/>
   </g>
   <g id="line2d_118">
    <path d="M 364.14 219.24 
L 364.14 254.52 
" clip-path="url(#p6ecae1138b)" style="fill: none; stroke: #000000; stroke-width: 1.5; stroke-linecap: square"/>
   </g>
   <g id="line2d_119">
    <path d="M 399.42 254.52 
L 434.7 254.52 
" clip-path="url(#p6ecae1138b)" style="fill: none; stroke: #000000; stroke-width: 1.5; stroke-linecap: square"/>
   </g>
   <g id="line2d_120">
    <path d="M 434.7 254.52 
L 434.7 219.24 
" clip-path="url(#p6ecae1138b)" style="fill: none; stroke: #000000; stroke-width: 1.5; stroke-linecap: square"/>
   </g>
   <g id="line2d_121">
    <path d="M 117.18 219.24 
L 117.18 183.96 
" clip-path="url(#p6ecae1138b)" style="fill: none; stroke: #000000; stroke-width: 1.5; stroke-linecap: square"/>
   </g>
   <g id="line2d_122">
    <path d="M 81.9 183.96 
L 81.9 219.24 
" clip-path="url(#p6ecae1138b)" style="fill: none; stroke: #000000; stroke-width: 1.5; stroke-linecap: square"/>
   </g>
   <g id="line2d_123">
    <path d="M 152.46 219.24 
L 152.46 183.96 
" clip-path="url(#p6ecae1138b)" style="fill: none; stroke: #000000; stroke-width: 1.5; stroke-linecap: square"/>
   </g>
   <g id="line2d_124">
    <path d="M 117.18 183.96 
L 117.18 219.24 
" clip-path="url(#p6ecae1138b)" style="fill: none; stroke: #000000; stroke-width: 1.5; stroke-linecap: square"/>
   </g>
   <g id="line2d_125">
    <path d="M 152.46 219.24 
L 187.74 219.24 
" clip-path="url(#p6ecae1138b)" style="fill: none; stroke: #000000; stroke-width: 1.5; stroke-linecap: square"/>
   </g>
   <g id="line2d_126">
    <path d="M 187.74 219.24 
L 187.74 183.96 
" clip-path="url(#p6ecae1138b)" style="fill: none; stroke: #000000; stroke-width: 1.5; stroke-linecap: square"/>
   </g>
   <g id="line2d_127">
    <path d="M 152.46 183.96 
L 152.46 219.24 
" clip-path="url(#p6ecae1138b)" style="fill: none; stroke: #000000; stroke-width: 1.5; stroke-linecap: square"/>
   </g>
   <g id="line2d_128">
    <path d="M 187.74 219.24 
L 223.02 219.24 
" clip-path="url(#p6ecae1138b)" style="fill: none; stroke: #000000; stroke-width: 1.5; stroke-linecap: square"/>
   </g>
   <g id="line2d_129">
    <path d="M 187.74 183.96 
L 187.74 219.24 
" clip-path="url(#p6ecae1138b)" style="fill: none; stroke: #000000; stroke-width: 1.5; stroke-linecap: square"/>
   </g>
   <g id="line2d_130">
    <path d="M 258.3 183.96 
L 223.02 183.96 
" clip-path="url(#p6ecae1138b)" style="fill: none; stroke: #000000; stroke-width: 1.5; stroke-linecap: square"/>
   </g>
   <g id="line2d_131">
    <path d="M 258.3 219.24 
L 293.58 219.24 
" clip-path="url(#p6ecae1138b)" style="fill: none; stroke: #000000; stroke-width: 1.5; stroke-linecap: square"/>
   </g>
   <g id="line2d_132">
    <path d="M 293.58 183.96 
L 258.3 183.96 
" clip-path="url(#p6ecae1138b)" style="fill: none; stroke: #000000; stroke-width: 1.5; stroke-linecap: square"/>
   </g>
   <g id="line2d_133">
    <path d="M 293.58 219.24 
L 328.86 219.24 
" clip-path="url(#p6ecae1138b)" style="fill: none; stroke: #000000; stroke-width: 1.5; stroke-linecap: square"/>
   </g>
   <g id="line2d_134">
    <path d="M 328.86 219.24 
L 328.86 183.96 
" clip-path="url(#p6ecae1138b)" style="fill: none; stroke: #000000; stroke-width: 1.5; stroke-linecap: square"/>
   </g>
   <g id="line2d_135">
    <path d="M 328.86 183.96 
L 328.86 219.24 
" clip-path="url(#p6ecae1138b)" style="fill: none; stroke: #000000; stroke-width: 1.5; stroke-linecap: square"/>
   </g>
   <g id="line2d_136">
    <path d="M 364.14 219.24 
L 399.42 219.24 
" clip-path="url(#p6ecae1138b)" style="fill: none; stroke: #000000; stroke-width: 1.5; stroke-linecap: square"/>
   </g>
   <g id="line2d_137">
    <path d="M 399.42 219.24 
L 399.42 183.96 
" clip-path="url(#p6ecae1138b)" style="fill: none; stroke: #000000; stroke-width: 1.5; stroke-linecap: square"/>
   </g>
   <g id="line2d_138">
    <path d="M 434.7 219.24 
L 434.7 183.96 
" clip-path="url(#p6ecae1138b)" style="fill: none; stroke: #000000; stroke-width: 1.5; stroke-linecap: square"/>
   </g>
   <g id="line2d_139">
    <path d="M 399.42 183.96 
L 399.42 219.24 
" clip-path="url(#p6ecae1138b)" style="fill: none; stroke: #000000; stroke-width: 1.5; stroke-linecap: square"/>
   </g>
   <g id="line2d_140">
    <path d="M 117.18 183.96 
L 117.18 148.68 
" clip-path="url(#p6ecae1138b)" style="fill: none; stroke: #000000; stroke-width: 1.5; stroke-linecap: square"/>
   </g>
   <g id="line2d_141">
    <path d="M 81.9 148.68 
L 81.9 183.96 
" clip-path="url(#p6ecae1138b)" style="fill: none; stroke: #000000; stroke-width: 1.5; stroke-linecap: square"/>
   </g>
   <g id="line2d_142">
    <path d="M 152.46 148.68 
L 117.18 148.68 
" clip-path="url(#p6ecae1138b)" style="fill: none; stroke: #000000; stroke-width: 1.5; stroke-linecap: square"/>
   </g>
   <g id="line2d_143">
    <path d="M 117.18 148.68 
L 117.18 183.96 
" clip-path="url(#p6ecae1138b)" style="fill: none; stroke: #000000; stroke-width: 1.5; stroke-linecap: square"/>
   </g>
   <g id="line2d_144">
    <path d="M 187.74 183.96 
L 187.74 148.68 
" clip-path="url(#p6ecae1138b)" style="fill: none; stroke: #000000; stroke-width: 1.5; stroke-linecap: square"/>
   </g>
   <g id="line2d_145">
    <path d="M 187.74 148.68 
L 152.46 148.68 
" clip-path="url(#p6ecae1138b)" style="fill: none; stroke: #000000; stroke-width: 1.5; stroke-linecap: square"/>
   </g>
   <g id="line2d_146">
    <path d="M 223.02 148.68 
L 187.74 148.68 
" clip-path="url(#p6ecae1138b)" style="fill: none; stroke: #000000; stroke-width: 1.5; stroke-linecap: square"/>
   </g>
   <g id="line2d_147">
    <path d="M 187.74 148.68 
L 187.74 183.96 
" clip-path="url(#p6ecae1138b)" style="fill: none; stroke: #000000; stroke-width: 1.5; stroke-linecap: square"/>
   </g>
   <g id="line2d_148">
    <path d="M 223.02 183.96 
L 258.3 183.96 
" clip-path="url(#p6ecae1138b)" style="fill: none; stroke: #000000; stroke-width: 1.5; stroke-linecap: square"/>
   </g>
   <g id="line2d_149">
    <path d="M 258.3 148.68 
L 223.02 148.68 
" clip-path="url(#p6ecae1138b)" style="fill: none; stroke: #000000; stroke-width: 1.5; stroke-linecap: square"/>
   </g>
   <g id="line2d_150">
    <path d="M 258.3 183.96 
L 293.58 183.96 
" clip-path="url(#p6ecae1138b)" style="fill: none; stroke: #000000; stroke-width: 1.5; stroke-linecap: square"/>
   </g>
   <g id="line2d_151">
    <path d="M 293.58 183.96 
L 293.58 148.68 
" clip-path="url(#p6ecae1138b)" style="fill: none; stroke: #000000; stroke-width: 1.5; stroke-linecap: square"/>
   </g>
   <g id="line2d_152">
    <path d="M 328.86 183.96 
L 328.86 148.68 
" clip-path="url(#p6ecae1138b)" style="fill: none; stroke: #000000; stroke-width: 1.5; stroke-linecap: square"/>
   </g>
   <g id="line2d_153">
    <path d="M 293.58 148.68 
L 293.58 183.96 
" clip-path="url(#p6ecae1138b)" style="fill: none; stroke: #000000; stroke-width: 1.5; stroke-linecap: square"/>
   </g>
   <g id="line2d_154">
    <path d="M 364.14 183.96 
L 364.14 148.68 
" clip-path="url(#p6ecae1138b)" style="fill: none; stroke: #000000; stroke-width: 1.5; stroke-linecap: square"/>
   </g>
   <g id="line2d_155">
    <path d="M 328.86 148.68 
L 328.86 183.96 
" clip-path="url(#p6ecae1138b)" style="fill: none; stroke: #000000; stroke-width: 1.5; stroke-linecap: square"/>
   </g>
   <g id="line2d_156">
    <path d="M 399.42 183.96 
L 399.42 148.68 
" clip-path="url(#p6ecae1138b)" style="fill: none; stroke: #000000; stroke-width: 1.5; stroke-linecap: square"/>
   </g>
   <g id="line2d_157">
    <path d="M 399.42 148.68 
L 364.14 148.68 
" clip-path="url(#p6ecae1138b)" style="fill: none; stroke: #000000; stroke-width: 1.5; stroke-linecap: square"/>
   </g>
   <g id="line2d_158">
    <path d="M 364.14 148.68 
L 364.14 183.96 
" clip-path="url(#p6ecae1138b)" style="fill: none; stroke: #000000; stroke-width: 1.5; stroke-linecap: square"/>
   </g>
   <g id="line2d_159">
    <path d="M 434.7 183.96 
L 434.7 148.68 
" clip-path="url(#p6ecae1138b)" style="fill: none; stroke: #000000; stroke-width: 1.5; stroke-linecap: square"/>
   </g>
   <g id="line2d_160">
    <path d="M 399.42 148.68 
L 399.42 183.96 
" clip-path="url(#p6ecae1138b)" style="fill: none; stroke: #000000; stroke-width: 1.5; stroke-linecap: square"/>
   </g>
   <g id="line2d_161">
    <path d="M 117.18 113.4 
L 81.9 113.4 
" clip-path="url(#p6ecae1138b)" style="fill: none; stroke: #000000; stroke-width: 1.5; stroke-linecap: square"/>
   </g>
   <g id="line2d_162">
    <path d="M 81.9 113.4 
L 81.9 148.68 
" clip-path="url(#p6ecae1138b)" style="fill: none; stroke: #000000; stroke-width: 1.5; stroke-linecap: square"/>
   </g>
   <g id="line2d_163">
    <path d="M 117.18 148.68 
L 152.46 148.68 
" clip-path="url(#p6ecae1138b)" style="fill: none; stroke: #000000; stroke-width: 1.5; stroke-linecap: square"/>
   </g>
   <g id="line2d_164">
    <path d="M 152.46 148.68 
L 152.46 113.4 
" clip-path="url(#p6ecae1138b)" style="fill: none; stroke: #000000; stroke-width: 1.5; stroke-linecap: square"/>
   </g>
   <g id="line2d_165">
    <path d="M 152.46 148.68 
L 187.74 148.68 
" clip-path="url(#p6ecae1138b)" style="fill: none; stroke: #000000; stroke-width: 1.5; stroke-linecap: square"/>
   </g>
   <g id="line2d_166">
    <path d="M 152.46 113.4 
L 152.46 148.68 
" clip-path="url(#p6ecae1138b)" style="fill: none; stroke: #000000; stroke-width: 1.5; stroke-linecap: square"/>
   </g>
   <g id="line2d_167">
    <path d="M 187.74 148.68 
L 223.02 148.68 
" clip-path="url(#p6ecae1138b)" style="fill: none; stroke: #000000; stroke-width: 1.5; stroke-linecap: square"/>
   </g>
   <g id="line2d_168">
    <path d="M 223.02 113.4 
L 187.74 113.4 
" clip-path="url(#p6ecae1138b)" style="fill: none; stroke: #000000; stroke-width: 1.5; stroke-linecap: square"/>
   </g>
   <g id="line2d_169">
    <path d="M 223.02 148.68 
L 258.3 148.68 
" clip-path="url(#p6ecae1138b)" style="fill: none; stroke: #000000; stroke-width: 1.5; stroke-linecap: square"/>
   </g>
   <g id="line2d_170">
    <path d="M 258.3 113.4 
L 223.02 113.4 
" clip-path="url(#p6ecae1138b)" style="fill: none; stroke: #000000; stroke-width: 1.5; stroke-linecap: square"/>
   </g>
   <g id="line2d_171">
    <path d="M 293.58 148.68 
L 293.58 113.4 
" clip-path="url(#p6ecae1138b)" style="fill: none; stroke: #000000; stroke-width: 1.5; stroke-linecap: square"/>
   </g>
   <g id="line2d_172">
    <path d="M 293.58 113.4 
L 258.3 113.4 
" clip-path="url(#p6ecae1138b)" style="fill: none; stroke: #000000; stroke-width: 1.5; stroke-linecap: square"/>
   </g>
   <g id="line2d_173">
    <path d="M 328.86 148.68 
L 328.86 113.4 
" clip-path="url(#p6ecae1138b)" style="fill: none; stroke: #000000; stroke-width: 1.5; stroke-linecap: square"/>
   </g>
   <g id="line2d_174">
    <path d="M 293.58 113.4 
L 293.58 148.68 
" clip-path="url(#p6ecae1138b)" style="fill: none; stroke: #000000; stroke-width: 1.5; stroke-linecap: square"/>
   </g>
   <g id="line2d_175">
    <path d="M 364.14 113.4 
L 328.86 113.4 
" clip-path="url(#p6ecae1138b)" style="fill: none; stroke: #000000; stroke-width: 1.5; stroke-linecap: square"/>
   </g>
   <g id="line2d_176">
    <path d="M 328.86 113.4 
L 328.86 148.68 
" clip-path="url(#p6ecae1138b)" style="fill: none; stroke: #000000; stroke-width: 1.5; stroke-linecap: square"/>
   </g>
   <g id="line2d_177">
    <path d="M 364.14 148.68 
L 399.42 148.68 
" clip-path="url(#p6ecae1138b)" style="fill: none; stroke: #000000; stroke-width: 1.5; stroke-linecap: square"/>
   </g>
   <g id="line2d_178">
    <path d="M 399.42 113.4 
L 364.14 113.4 
" clip-path="url(#p6ecae1138b)" style="fill: none; stroke: #000000; stroke-width: 1.5; stroke-linecap: square"/>
   </g>
   <g id="line2d_179">
    <path d="M 434.7 148.68 
L 434.7 113.4 
" clip-path="url(#p6ecae1138b)" style="fill: none; stroke: #000000; stroke-width: 1.5; stroke-linecap: square"/>
   </g>
   <g id="line2d_180">
    <path d="M 434.7 113.4 
L 399.42 113.4 
" clip-path="url(#p6ecae1138b)" style="fill: none; stroke: #000000; stroke-width: 1.5; stroke-linecap: square"/>
   </g>
   <g id="line2d_181">
    <path d="M 81.9 113.4 
L 117.18 113.4 
" clip-path="url(#p6ecae1138b)" style="fill: none; stroke: #000000; stroke-width: 1.5; stroke-linecap: square"/>
   </g>
   <g id="line2d_182">
    <path d="M 117.18 78.12 
L 81.9 78.12 
" clip-path="url(#p6ecae1138b)" style="fill: none; stroke: #000000; stroke-width: 1.5; stroke-linecap: square"/>
   </g>
   <g id="line2d_183">
    <path d="M 81.9 78.12 
L 81.9 113.4 
" clip-path="url(#p6ecae1138b)" style="fill: none; stroke: #000000; stroke-width: 1.5; stroke-linecap: square"/>
   </g>
   <g id="line2d_184">
    <path d="M 152.46 78.12 
L 117.18 78.12 
" clip-path="url(#p6ecae1138b)" style="fill: none; stroke: #000000; stroke-width: 1.5; stroke-linecap: square"/>
   </g>
   <g id="line2d_185">
    <path d="M 187.74 113.4 
L 187.74 78.12 
" clip-path="url(#p6ecae1138b)" style="fill: none; stroke: #000000; stroke-width: 1.5; stroke-linecap: square"/>
   </g>
   <g id="line2d_186">
    <path d="M 187.74 113.4 
L 223.02 113.4 
" clip-path="url(#p6ecae1138b)" style="fill: none; stroke: #000000; stroke-width: 1.5; stroke-linecap: square"/>
   </g>
   <g id="line2d_187">
    <path d="M 223.02 78.12 
L 187.74 78.12 
" clip-path="url(#p6ecae1138b)" style="fill: none; stroke: #000000; stroke-width: 1.5; stroke-linecap: square"/>
   </g>
   <g id="line2d_188">
    <path d="M 187.74 78.12 
L 187.74 113.4 
" clip-path="url(#p6ecae1138b)" style="fill: none; stroke: #000000; stroke-width: 1.5; stroke-linecap: square"/>
   </g>
   <g id="line2d_189">
    <path d="M 223.02 113.4 
L 258.3 113.4 
" clip-path="url(#p6ecae1138b)" style="fill: none; stroke: #000000; stroke-width: 1.5; stroke-linecap: square"/>
   </g>
   <g id="line2d_190">
    <path d="M 258.3 78.12 
L 223.02 78.12 
" clip-path="url(#p6ecae1138b)" style="fill: none; stroke: #000000; stroke-width: 1.5; stroke-linecap: square"/>
   </g>
   <g id="line2d_191">
    <path d="M 258.3 113.4 
L 293.58 113.4 
" clip-path="url(#p6ecae1138b)" style="fill: none; stroke: #000000; stroke-width: 1.5; stroke-linecap: square"/>
   </g>
   <g id="line2d_192">
    <path d="M 293.58 78.12 
L 258.3 78.12 
" clip-path="url(#p6ecae1138b)" style="fill: none; stroke: #000000; stroke-width: 1.5; stroke-linecap: square"/>
   </g>
   <g id="line2d_193">
    <path d="M 328.86 78.12 
L 293.58 78.12 
" clip-path="url(#p6ecae1138b)" style="fill: none; stroke: #000000; stroke-width: 1.5; stroke-linecap: square"/>
   </g>
   <g id="line2d_194">
    <path d="M 328.86 113.4 
L 364.14 113.4 
" clip-path="url(#p6ecae1138b)" style="fill: none; stroke: #000000; stroke-width: 1.5; stroke-linecap: square"/>
   </g>
   <g id="line2d_195">
    <path d="M 364.14 78.12 
L 328.86 78.12 
" clip-path="url(#p6ecae1138b)" style="fill: none; stroke: #000000; stroke-width: 1.5; stroke-linecap: square"/>
   </g>
   <g id="line2d_196">
    <path d="M 364.14 113.4 
L 399.42 113.4 
" clip-path="url(#p6ecae1138b)" style="fill: none; stroke: #000000; stroke-width: 1.5; stroke-linecap: square"/>
   </g>
   <g id="line2d_197">
    <path d="M 399.42 78.12 
L 364.14 78.12 
" clip-path="url(#p6ecae1138b)" style="fill: none; stroke: #000000; stroke-width: 1.5; stroke-linecap: square"/>
   </g>
   <g id="line2d_198">
    <path d="M 399.42 113.4 
L 434.7 113.4 
" clip-path="url(#p6ecae1138b)" style="fill: none; stroke: #000000; stroke-width: 1.5; stroke-linecap: square"/>
   </g>
   <g id="line2d_199">
    <path d="M 434.7 113.4 
L 434.7 78.12 
" clip-path="url(#p6ecae1138b)" style="fill: none; stroke: #000000; stroke-width: 1.5; stroke-linecap: square"/>
   </g>
   <g id="line2d_200">
    <path d="M 434.7 78.12 
L 399.42 78.12 
" clip-path="url(#p6ecae1138b)" style="fill: none; stroke: #000000; stroke-width: 1.5; stroke-linecap: square"/>
   </g>
   <g id="patch_41">
    <path d="M 64.26 448.56 
L 64.26 60.48 
" style="fill: none; stroke: #000000; stroke-width: 0.8; stroke-linejoin: miter; stroke-linecap: square"/>
   </g>
   <g id="patch_42">
    <path d="M 452.34 448.56 
L 452.34 60.48 
" style="fill: none; stroke: #000000; stroke-width: 0.8; stroke-linejoin: miter; stroke-linecap: square"/>
   </g>
   <g id="patch_43">
    <path d="M 64.26 448.56 
L 452.34 448.56 
" style="fill: none; stroke: #000000; stroke-width: 0.8; stroke-linejoin: miter; stroke-linecap: square"/>
   </g>
   <g id="patch_44">
    <path d="M 64.26 60.48 
L 452.34 60.48 
" style="fill: none; stroke: #000000; stroke-width: 0.8; stroke-linejoin: miter; stroke-linecap: square"/>
   </g>
   <g id="text_1">
    <!-- START -->
    <g transform="translate(293.58 430.92)scale(0.07 -0.07)">
     <defs>
      <path id="DejaVuSans-Bold-53" d="M 3834 4519 
L 3834 3531 
Q 3450 3703 3084 3790 
Q 2719 3878 2394 3878 
Q 1963 3878 1756 3759 
Q 1550 3641 1550 3391 
Q 1550 3203 1689 3098 
Q 1828 2994 2194 2919 
L 2706 2816 
Q 3484 2659 3812 2340 
Q 4141 2022 4141 1434 
Q 4141 663 3683 286 
Q 3225 -91 2284 -91 
Q 1841 -91 1394 -6 
Q 947 78 500 244 
L 500 1259 
Q 947 1022 1364 901 
Q 1781 781 2169 781 
Q 2563 781 2772 912 
Q 2981 1044 2981 1288 
Q 2981 1506 2839 1625 
Q 2697 1744 2272 1838 
L 1806 1941 
Q 1106 2091 782 2419 
Q 459 2747 459 3303 
Q 459 4000 909 4375 
Q 1359 4750 2203 4750 
Q 2588 4750 2994 4692 
Q 3400 4634 3834 4519 
z
" transform="scale(0.015625)"/>
      <path id="DejaVuSans-Bold-54" d="M 31 4666 
L 4331 4666 
L 4331 3756 
L 2784 3756 
L 2784 0 
L 1581 0 
L 1581 3756 
L 31 3756 
L 31 4666 
z
" transform="scale(0.015625)"/>
      <path id="DejaVuSans-Bold-41" d="M 3419 850 
L 1538 850 
L 1241 0 
L 31 0 
L 1759 4666 
L 3194 4666 
L 4922 0 
L 3713 0 
L 3419 850 
z
M 1838 1716 
L 3116 1716 
L 2478 3572 
L 1838 1716 
z
" transform="scale(0.015625)"/>
      <path id="DejaVuSans-Bold-52" d="M 2297 2597 
Q 2675 2597 2839 2737 
Q 3003 2878 3003 3200 
Q 3003 3519 2839 3656 
Q 2675 3794 2297 3794 
L 1791 3794 
L 1791 2597 
L 2297 2597 
z
M 1791 1766 
L 1791 0 
L 588 0 
L 588 4666 
L 2425 4666 
Q 3347 4666 3776 4356 
Q 4206 4047 4206 3378 
Q 4206 2916 3982 2619 
Q 3759 2322 3309 2181 
Q 3556 2125 3751 1926 
Q 3947 1728 4147 1325 
L 4800 0 
L 3519 0 
L 2950 1159 
Q 2778 1509 2601 1637 
Q 2425 1766 2131 1766 
L 1791 1766 
z
" transform="scale(0.015625)"/>
     </defs>
     <use xlink:href="#DejaVuSans-Bold-53"/>
     <use xlink:href="#DejaVuSans-Bold-54" x="72.021484"/>
     <use xlink:href="#DejaVuSans-Bold-41" x="132.484375"/>
     <use xlink:href="#DejaVuSans-Bold-52" x="209.876953"/>
     <use xlink:href="#DejaVuSans-Bold-54" x="282.378906"/>
    </g>
   </g>
   <g id="text_2">
    <!-- END -->
    <g transform="translate(152.46 113.4)scale(0.07 -0.07)">
     <defs>
      <path id="DejaVuSans-Bold-45" d="M 588 4666 
L 3834 4666 
L 3834 3756 
L 1791 3756 
L 1791 2888 
L 3713 2888 
L 3713 1978 
L 1791 1978 
L 1791 909 
L 3903 909 
L 3903 0 
L 588 0 
L 588 4666 
z
" transform="scale(0.015625)"/>
      <path id="DejaVuSans-Bold-4e" d="M 588 4666 
L 1931 4666 
L 3628 1466 
L 3628 4666 
L 4769 4666 
L 4769 0 
L 3425 0 
L 1728 3200 
L 1728 0 
L 588 0 
L 588 4666 
z
" transform="scale(0.015625)"/>
      <path id="DejaVuSans-Bold-44" d="M 1791 3756 
L 1791 909 
L 2222 909 
Q 2959 909 3348 1275 
Q 3738 1641 3738 2338 
Q 3738 3031 3350 3393 
Q 2963 3756 2222 3756 
L 1791 3756 
z
M 588 4666 
L 1856 4666 
Q 2919 4666 3439 4514 
Q 3959 4363 4331 4000 
Q 4659 3684 4818 3271 
Q 4978 2859 4978 2338 
Q 4978 1809 4818 1395 
Q 4659 981 4331 666 
Q 3956 303 3431 151 
Q 2906 0 1856 0 
L 588 0 
L 588 4666 
z
" transform="scale(0.015625)"/>
     </defs>
     <use xlink:href="#DejaVuSans-Bold-45"/>
     <use xlink:href="#DejaVuSans-Bold-4e" x="68.310547"/>
     <use xlink:href="#DejaVuSans-Bold-44" x="152.001953"/>
    </g>
   </g>
  </g>
 </g>
 <defs>
  <clipPath id="p6ecae1138b">
   <rect x="64.26" y="60.48" width="388.08" height="388.08"/>
  </clipPath>
 </defs>
</svg>
