<svg id="maze" width="800" height="800" stroke-width="3" fill-opacity="0.0" stroke="#000">
          <path stroke-linecap="round" 
            d="M62.4 78
L62.4 15.6
L15.6 15.6
L15.6 78
M140.4 78
L140.4 15.6
L93.6 15.6
L93.6 78
M234 62.4
L171.6 62.4
L171.6 15.6
L234 15.6
M234 62.4
L249.6 62.4
L249.6 78
M234 15.6
L296.4 15.6
L296.4 78
M374.4 78
L374.4 15.6
L327.6 15.6
L327.6 78
M468 62.4
L452.4 62.4
L452.4 78
M468 15.6
L405.6 15.6
L405.6 78
M468 62.4
L530.4 62.4
L530.4 15.6
L468 15.6
M608.4 78
L608.4 15.6
L561.6 15.6
L561.6 78
M702 62.4
L639.6 62.4
L639.6 15.6
L702 15.6
M15.6 156
L15.6 78
M78 93.6
L62.4 93.6
L62.4 78
M78 140.4
L62.4 140.4
L62.4 156
M93.6 156
L93.6 78
M140.4 156
L140.4 78
M78 93.6
L93.6 93.6
M78 140.4
L93.6 140.4
M156 93.6
L140.4 93.6
M156 140.4
L140.4 140.4
M156 93.6
L234 93.6
M156 140.4
L171.6 140.4
L171.6 156
M234 140.4
L218.4 140.4
L218.4 156
M249.6 156
L249.6 78
M296.4 156
L296.4 78
M234 93.6
L249.6 93.6
M234 140.4
L249.6 140.4
M312 93.6
L296.4 93.6
M312 140.4
L296.4 140.4
M327.6 78
L327.6 93.6
L312 93.6
M312 140.4
L327.6 140.4
L327.6 156
M390 93.6
L374.4 93.6
L374.4 78
M390 140.4
L374.4 140.4
L374.4 156
M405.6 156
L405.6 78
M452.4 156
L452.4 78
M390 93.6
L405.6 93.6
M390 140.4
L405.6 140.4
M468 93.6
L452.4 93.6
M468 140.4
L452.4 140.4
M468 93.6
L546 93.6
M468 140.4
L483.6 140.4
L483.6 156
M546 140.4
L530.4 140.4
L530.4 156
M546 140.4
L624 140.4
M546 93.6
L624 93.6
M561.6 93.6
L561.6 78
M561.6 140.4
L561.6 156
M608.4 93.6
L608.4 78
M608.4 140.4
L608.4 156
M624 93.6
L702 93.6
M624 140.4
L639.6 140.4
L639.6 156
M702 140.4
L686.4 140.4
L686.4 156
M717.6 78
L717.6 93.6
L702 93.6
M764.4 78
L764.4 140.4
L702 140.4
M62.4 156
L62.4 218.4
L15.6 218.4
L15.6 156
M93.6 234
L93.6 156
M156 171.6
L140.4 171.6
L140.4 156
M156 218.4
L140.4 218.4
L140.4 234
M156 218.4
L234 218.4
M156 171.6
L234 171.6
M171.6 171.6
L171.6 156
M171.6 218.4
L171.6 234
M218.4 171.6
L218.4 156
M218.4 218.4
L218.4 234
M234 218.4
L312 218.4
M249.6 156
L249.6 171.6
L234 171.6
M312 171.6
L296.4 171.6
L296.4 156
M327.6 234
L327.6 156
M374.4 234
L374.4 156
M312 171.6
L327.6 171.6
M312 218.4
L327.6 218.4
M390 171.6
L374.4 171.6
M390 218.4
L374.4 218.4
M390 218.4
L468 218.4
M405.6 156
L405.6 171.6
L390 171.6
M468 171.6
L452.4 171.6
L452.4 156
M483.6 234
L483.6 156
M530.4 234
L530.4 156
M468 171.6
L483.6 171.6
M468 218.4
L483.6 218.4
M546 171.6
L530.4 171.6
M546 218.4
L530.4 218.4
M561.6 156
L561.6 171.6
L546 171.6
M546 218.4
L561.6 218.4
L561.6 234
M624 171.6
L608.4 171.6
L608.4 156
M624 218.4
L608.4 218.4
L608.4 234
M639.6 234
L639.6 156
M686.4 234
L686.4 156
M624 171.6
L639.6 171.6
M624 218.4
L639.6 218.4
M702 171.6
L686.4 171.6
M702 218.4
L686.4 218.4
M702 218.4
L764.4 218.4
L764.4 171.6
L702 171.6
M62.4 312
L62.4 249.6
L15.6 249.6
L15.6 312
M140.4 234
L140.4 296.4
L93.6 296.4
L93.6 234
M171.6 312
L171.6 234
M218.4 312
L218.4 234
M296.4 312
L296.4 249.6
L249.6 249.6
L249.6 312
M374.4 234
L374.4 296.4
L327.6 296.4
L327.6 234
M468 296.4
L405.6 296.4
L405.6 249.6
L468 249.6
M468 296.4
L546 296.4
M483.6 234
L483.6 249.6
L468 249.6
M546 249.6
L530.4 249.6
L530.4 234
M608.4 312
L608.4 234
M561.6 234
L561.6 249.6
L546 249.6
M546 296.4
L561.6 296.4
L561.6 312
M639.6 312
L639.6 234
M702 249.6
L686.4 249.6
L686.4 234
M702 296.4
L686.4 296.4
L686.4 312
M702 296.4
L764.4 296.4
L764.4 249.6
L702 249.6
M78 327.6
L62.4 327.6
L62.4 312
M78 374.4
L15.6 374.4
L15.6 312
M78 327.6
L156 327.6
M78 374.4
L93.6 374.4
L93.6 390
M156 374.4
L140.4 374.4
L140.4 390
M156 374.4
L234 374.4
M156 327.6
L234 327.6
M171.6 327.6
L171.6 312
M171.6 374.4
L171.6 390
M218.4 327.6
L218.4 312
M218.4 374.4
L218.4 390
M249.6 312
L249.6 327.6
L234 327.6
M296.4 312
L296.4 374.4
L234 374.4
M390 374.4
L374.4 374.4
L374.4 390
M390 327.6
L327.6 327.6
L327.6 390
M390 374.4
L452.4 374.4
L452.4 327.6
L390 327.6
M530.4 390
L530.4 327.6
L483.6 327.6
L483.6 390
M608.4 312
L608.4 374.4
L561.6 374.4
L561.6 312
M639.6 390
L639.6 312
M686.4 390
L686.4 312
M764.4 390
L764.4 327.6
L717.6 327.6
L717.6 390
M78 452.4
L15.6 452.4
L15.6 405.6
L78 405.6
M93.6 390
L93.6 405.6
L78 405.6
M78 452.4
L93.6 452.4
L93.6 468
M156 405.6
L140.4 405.6
L140.4 390
M156 452.4
L140.4 452.4
L140.4 468
M218.4 468
L218.4 390
M171.6 390
L171.6 405.6
L156 405.6
M156 452.4
L171.6 452.4
L171.6 468
M312 452.4
L249.6 452.4
L249.6 405.6
L312 405.6
M312 452.4
L390 452.4
M312 405.6
L390 405.6
M327.6 405.6
L327.6 390
M327.6 452.4
L327.6 468
M374.4 405.6
L374.4 390
M374.4 452.4
L374.4 468
M390 452.4
L468 452.4
M390 405.6
L468 405.6
M483.6 468
L483.6 390
M530.4 468
L530.4 390
M468 405.6
L483.6 405.6
M468 452.4
L483.6 452.4
M546 405.6
L530.4 405.6
M546 452.4
L530.4 452.4
M546 405.6
L624 405.6
M546 452.4
L561.6 452.4
L561.6 468
M624 452.4
L608.4 452.4
L608.4 468
M624 452.4
L702 452.4
M624 405.6
L702 405.6
M639.6 405.6
L639.6 390
M639.6 452.4
L639.6 468
M686.4 405.6
L686.4 390
M686.4 452.4
L686.4 468
M717.6 390
L717.6 405.6
L702 405.6
M764.4 390
L764.4 452.4
L702 452.4
M78 530.4
L15.6 530.4
L15.6 483.6
L78 483.6
M93.6 468
L93.6 483.6
L78 483.6
M78 530.4
L93.6 530.4
L93.6 546
M156 483.6
L140.4 483.6
L140.4 468
M156 530.4
L140.4 530.4
L140.4 546
M171.6 546
L171.6 468
M218.4 546
L218.4 468
M156 483.6
L171.6 483.6
M156 530.4
L171.6 530.4
M234 483.6
L218.4 483.6
M234 530.4
L218.4 530.4
M234 483.6
L312 483.6
M234 530.4
L249.6 530.4
L249.6 546
M312 530.4
L296.4 530.4
L296.4 546
M374.4 546
L374.4 468
M327.6 468
L327.6 483.6
L312 483.6
M312 530.4
L327.6 530.4
L327.6 546
M468 530.4
L405.6 530.4
L405.6 483.6
L468 483.6
M483.6 468
L483.6 483.6
L468 483.6
M468 530.4
L483.6 530.4
L483.6 546
M546 483.6
L530.4 483.6
L530.4 468
M546 530.4
L530.4 530.4
L530.4 546
M546 530.4
L624 530.4
M546 483.6
L624 483.6
M561.6 483.6
L561.6 468
M561.6 530.4
L561.6 546
M608.4 483.6
L608.4 468
M608.4 530.4
L608.4 546
M639.6 468
L639.6 483.6
L624 483.6
M624 530.4
L639.6 530.4
L639.6 546
M702 483.6
L686.4 483.6
L686.4 468
M702 530.4
L686.4 530.4
L686.4 546
M702 530.4
L764.4 530.4
L764.4 483.6
L702 483.6
M78 608.4
L62.4 608.4
L62.4 624
M78 561.6
L15.6 561.6
L15.6 624
M93.6 546
L93.6 561.6
L78 561.6
M140.4 546
L140.4 608.4
L78 608.4
M218.4 546
L218.4 608.4
L171.6 608.4
L171.6 546
M249.6 624
L249.6 546
M312 561.6
L296.4 561.6
L296.4 546
M312 608.4
L296.4 608.4
L296.4 624
M327.6 624
L327.6 546
M374.4 624
L374.4 546
M312 561.6
L327.6 561.6
M312 608.4
L327.6 608.4
M390 561.6
L374.4 561.6
M390 608.4
L374.4 608.4
M390 608.4
L468 608.4
M390 561.6
L468 561.6
M468 608.4
L546 608.4
M468 561.6
L546 561.6
M483.6 561.6
L483.6 546
M483.6 608.4
L483.6 624
M530.4 561.6
L530.4 546
M530.4 608.4
L530.4 624
M546 608.4
L624 608.4
M561.6 546
L561.6 561.6
L546 561.6
M624 561.6
L608.4 561.6
L608.4 546
M624 608.4
L702 608.4
M624 561.6
L702 561.6
M639.6 561.6
L639.6 546
M639.6 608.4
L639.6 624
M686.4 561.6
L686.4 546
M686.4 608.4
L686.4 624
M702 608.4
L764.4 608.4
L764.4 561.6
L702 561.6
M15.6 702
L15.6 624
M62.4 702
L62.4 624
M140.4 702
L140.4 639.6
L93.6 639.6
L93.6 702
M234 686.4
L218.4 686.4
L218.4 702
M234 639.6
L171.6 639.6
L171.6 702
M249.6 702
L249.6 624
M296.4 702
L296.4 624
M234 639.6
L249.6 639.6
M234 686.4
L249.6 686.4
M312 639.6
L296.4 639.6
M312 686.4
L296.4 686.4
M327.6 624
L327.6 639.6
L312 639.6
M312 686.4
L327.6 686.4
L327.6 702
M390 639.6
L374.4 639.6
L374.4 624
M390 686.4
L374.4 686.4
L374.4 702
M390 686.4
L452.4 686.4
L452.4 639.6
L390 639.6
M530.4 624
L530.4 686.4
L483.6 686.4
L483.6 624
M608.4 702
L608.4 639.6
L561.6 639.6
L561.6 702
M639.6 702
L639.6 624
M702 639.6
L686.4 639.6
L686.4 624
M702 686.4
L686.4 686.4
L686.4 702
M702 686.4
L764.4 686.4
L764.4 639.6
L702 639.6
M156 717.6
L140.4 717.6
L140.4 702
M156 764.4
L93.6 764.4
L93.6 702
M171.6 702
L171.6 717.6
L156 717.6
M218.4 702
L218.4 764.4
L156 764.4
M296.4 702
L296.4 764.4
L249.6 764.4
L249.6 702
M390 717.6
L374.4 717.6
L374.4 702
M390 764.4
L327.6 764.4
L327.6 702
M390 764.4
L452.4 764.4
L452.4 717.6
L390 717.6
M546 764.4
L483.6 764.4
L483.6 717.6
L546 717.6
M546 764.4
L624 764.4
M561.6 702
L561.6 717.6
L546 717.6
M624 717.6
L608.4 717.6
L608.4 702
M624 764.4
L702 764.4
M639.6 702
L639.6 717.6
L624 717.6
M702 717.6
L686.4 717.6
L686.4 702
M702 764.4
L764.4 764.4
L764.4 717.6
L702 717.6
"></path>
            <circle cx="741" cy="39" r="26" fill-opacity="1.0" stroke-opacity="0" fill="#E51919" /><circle cx="39" cy="741" r="26" fill-opacity="1.0" stroke-opacity="0" fill="#E51919" />
         </svg>